<?xml version="1.0" encoding="utf-8"?>
<!-- Generator: Adobe Illustrator 16.0.4, SVG Export Plug-In . SVG Version: 6.00 Build 0)  -->
<!DOCTYPE svg PUBLIC "-//W3C//DTD SVG 1.1//EN" "http://www.w3.org/Graphics/SVG/1.1/DTD/svg11.dtd">
<svg version="1.1" fill="rgb(0, 14, 156)" xmlns="http://www.w3.org/2000/svg" xmlns:xlink="http://www.w3.org/1999/xlink" x="0px" y="0px"
	 width="26.186px" height="32px" viewBox="0 0 26.186 32" enable-background="new 0 0 26.186 32" xml:space="preserve">
<g id="Fondo_1_" display="none">
	<rect id="Fondo" x="-112.874" y="-763.554" display="inline" fill="#FB6E92" width="999.999" height="2438.352"/>
</g>
<g id="Guias">
</g>
<g id="Icons">
	<g display="none" opacity="0.2">
		<path display="inline" fill="#FFFFFF" d="M297.136,712.967c-11.282,3.636-35.885,28.28-38.51,36.152
			c-2.621,7.852,12.064,36.154,18.864,37.705c6.794,1.591,56.584-20.436,58.154-28.284
			C337.216,750.67,308.418,709.288,297.136,712.967z"/>
		<path display="inline" fill="#FFFFFF" d="M400.104,632.809c-10.498,0.494-88.546,59.726-88.034,69.146
			c0.52,9.424,29.36,46.63,37.729,47.951c8.363,1.301,70.221-78.341,72.307-88.813C424.192,650.596,410.575,632.27,400.104,632.809z
			"/>
		<path display="inline" fill="#FFFFFF" d="M715.038,346.364c-10.932-15.145-35.497-16.26-56.114-3.016
			c-7.87-4.009-17.023-7.233-27.768-9.215c0,0-391.393,317.515-477.854,378.833c0,0-3.302,7.003-8.776,18.406
			c98.109,68.716,86.957,120.568,86.957,120.568c-27.148-66.916-95.885-102.037-95.904-102.037
			c-24.626,50.699-68.835,139.308-92.309,172.114c0,0-0.04,18.015,22.025,29.479c0,0,150.072-101.023,193.329-109.639
			c0,0,23.883-23.283,60.696-58.922c-20.12,10.308-43.196,20.062-52.826,20.659c-16.772,1.053-36.153-39.438-34.583-53.776
			c1.569-14.338,153.521-139.574,176.037-137.983c22.54,1.569,29.875,22.518,30.414,37.725c0.205,6.548-13.655,26.546-30.414,48.012
			c113.261-108.668,256.185-243.842,297.086-273.84c0,0,0.414-10.661-3.14-24.688C719.58,383.696,725.594,361.032,715.038,346.364z
			 M99.635,928.961c0,0-2.542-32.479-33.638-43.818C65.997,885.143,118.226,861.508,99.635,928.961z"/>
	</g>
	<path d="M26.178,19.32c0.35-0.544-11.448-19.436-12.12-19.319c-0.293,0.051-3.049,4.093-6.044,8.692c0,0-0.461-3.125-0.859-3.379
		C6.756,5.062,3.4,6.118,3.082,6.557c-0.318,0.439,1.709,7.157,1.709,7.157c-2.679,4.238-4.871,7.889-4.79,8.189
		c0.053,0.194,1.849,0.146,4.469-0.039c0,0,1.148,9.879,1.343,10.074c0.195,0.195,4.767-0.133,4.767-0.133
		c-0.209-1.693-0.816-8.485,2.833-9.008c0,0,4.174-1.149,2.618,8.855c0,0,3.764,0.137,4.138-0.113s3.348-11.697,3.348-11.697
		C25.098,19.614,26.11,19.426,26.178,19.32z"/>
	<path display="none" opacity="0.5" fill="#71C8EA" enable-background="new    " d="M1668.182,662.625l3.333,3.332
		c0,0,17-13.666,32.5-11.832c0,0,21-28,50-37.834c0,0,17.667-9.834,7.167-30.666c-10.5-20.834-24.327-12.938-31.167-8
		c-9.583,6.916-39.771,40.321-51.5,56.332C1678.515,633.957,1682.015,650.291,1668.182,662.625z"/>
	<g id="Capa_4">
	</g>
</g>
</svg>
