<?xml version="1.0" encoding="utf-8"?>
<!-- Generator: Adobe Illustrator 16.0.4, SVG Export Plug-In . SVG Version: 6.00 Build 0)  -->
<!DOCTYPE svg PUBLIC "-//W3C//DTD SVG 1.1//EN" "http://www.w3.org/Graphics/SVG/1.1/DTD/svg11.dtd">
<svg version="1.1" fill="rgb(0, 14, 156)" xmlns="http://www.w3.org/2000/svg" xmlns:xlink="http://www.w3.org/1999/xlink" x="0px" y="0px"
	 width="21.878px" height="32px" viewBox="0 0 21.878 32" enable-background="new 0 0 21.878 32" xml:space="preserve">
<g id="Fondo_1_" display="none">
	<rect id="Fondo" x="-166.072" y="-763.406" display="inline" fill="#FB6E92" width="1000" height="2438.351"/>
</g>
<g id="Guias">
</g>
<g id="Icons">
	<g display="none" opacity="0.2">
		<path display="inline" fill="#FFFFFF" d="M243.937,713.113c-11.282,3.637-35.885,28.281-38.51,36.154
			c-2.621,7.85,12.064,36.154,18.865,37.705c6.793,1.59,56.584-20.438,58.153-28.285
			C284.017,750.816,255.219,709.436,243.937,713.113z"/>
		<path display="inline" fill="#FFFFFF" d="M346.906,632.955c-10.498,0.494-88.546,59.727-88.033,69.146
			c0.519,9.424,29.359,46.629,37.729,47.951c8.363,1.301,70.221-78.34,72.307-88.814
			C370.994,650.742,357.376,632.418,346.906,632.955z"/>
		<path display="inline" fill="#FFFFFF" d="M661.84,346.512c-10.933-15.145-35.498-16.26-56.115-3.016
			c-7.87-4.01-17.023-7.232-27.768-9.215c0,0-391.393,317.516-477.854,378.832c0,0-3.302,7.004-8.776,18.408
			c98.109,68.715,86.957,120.568,86.957,120.568C151.136,785.174,82.4,750.053,82.38,750.053
			C57.753,800.752,13.544,889.359-9.927,922.168c0,0-0.04,18.014,22.025,29.479c0,0,150.071-101.023,193.329-109.639
			c0,0,23.883-23.283,60.697-58.922c-20.121,10.309-43.197,20.062-52.828,20.658c-16.771,1.055-36.152-39.436-34.582-53.775
			c1.57-14.338,153.521-139.574,176.037-137.984c22.541,1.57,29.875,22.52,30.414,37.727c0.205,6.547-13.654,26.545-30.414,48.012
			c113.259-108.67,256.183-243.844,297.085-273.842c0,0,0.414-10.66-3.141-24.688C666.382,383.844,672.395,361.18,661.84,346.512z
			 M46.436,929.107c0,0-2.542-32.477-33.638-43.818C12.798,885.289,65.027,861.654,46.436,929.107z"/>
	</g>
	<path id="GPS" d="M11.121,0C4.417,0-1.02,7.693,0.162,15.316C1.299,22.645,8.275,32,9.732,32c0.959,0,11.047-10.895,11.938-17.67
		C23.048,3.857,17.357,0,11.121,0z M14.804,10.092c-0.896,2.756-3.311,4.439-5.388,3.764c-2.078-0.678-3.035-3.459-2.138-6.215
		c0.898-2.756,3.31-4.439,5.39-3.762C14.744,4.555,15.701,7.338,14.804,10.092z"/>
</g>
</svg>
