<?xml version="1.0" encoding="utf-8"?>
<!-- Generator: Adobe Illustrator 16.0.4, SVG Export Plug-In . SVG Version: 6.00 Build 0)  -->
<!DOCTYPE svg PUBLIC "-//W3C//DTD SVG 1.1//EN" "http://www.w3.org/Graphics/SVG/1.1/DTD/svg11.dtd">
<svg version="1.1" fill="rgb(0, 14, 156)" xmlns="http://www.w3.org/2000/svg" xmlns:xlink="http://www.w3.org/1999/xlink" x="0px" y="0px"
	 width="32px" height="29.385px" viewBox="0 0 32 29.385" enable-background="new 0 0 32 29.385" xml:space="preserve">
<g id="Fondo_1_" display="none">
	<rect id="Fondo" x="-213.714" y="-764.713" display="inline" fill="#FB6E92" width="999.999" height="2438.351"/>
</g>
<g id="Guias">
</g>
<g id="Icons">
	<g display="none" opacity="0.2">
		<path display="inline" fill="#FFFFFF" d="M196.295,711.808c-11.281,3.636-35.885,28.281-38.51,36.153
			c-2.621,7.851,12.064,36.153,18.865,37.704c6.793,1.591,56.584-20.436,58.154-28.283
			C236.375,749.511,207.577,708.129,196.295,711.808z"/>
		<path display="inline" fill="#FFFFFF" d="M299.264,631.649c-10.498,0.494-88.545,59.726-88.033,69.146
			c0.519,9.423,29.359,46.629,37.729,47.95c8.363,1.302,70.221-78.341,72.307-88.813
			C323.352,649.437,309.734,631.11,299.264,631.649z"/>
		<path display="inline" fill="#FFFFFF" d="M614.197,345.204c-10.932-15.145-35.498-16.26-56.115-3.016
			c-7.869-4.009-17.021-7.233-27.766-9.215c0,0-391.394,317.515-477.854,378.833c0,0-3.302,7.003-8.776,18.407
			c98.109,68.715,86.957,120.567,86.957,120.567c-27.148-66.916-95.885-102.037-95.904-102.037
			c-24.626,50.7-68.835,139.309-92.307,172.115c0,0-0.04,18.015,22.025,29.48c0,0,150.071-101.024,193.329-109.64
			c0,0,23.883-23.283,60.697-58.922c-20.121,10.309-43.197,20.062-52.828,20.659c-16.771,1.053-36.152-39.437-34.582-53.776
			c1.57-14.338,153.521-139.573,176.037-137.983c22.541,1.569,29.875,22.518,30.414,37.725c0.205,6.548-13.654,26.546-30.414,48.012
			c113.258-108.669,256.182-243.843,297.084-273.841c0,0,0.414-10.661-3.139-24.688C618.74,382.536,624.754,359.872,614.197,345.204
			z M-1.206,927.802c0,0-2.542-32.479-33.638-43.818C-34.844,883.983,17.385,860.349-1.206,927.802z"/>
	</g>
	<path d="M25.977,1.701C23.786,0.719,13.924-3.248,4.26,5.887c0,0-10.146,10.16,0.877,16.729c1.322,0.786,3.462,1.309,4.084,1.704
		c0.497,0.318,0.128,4.836,0.697,5.039c1.171,0.414,5.989-4.434,6.531-4.756c0.805-0.479,13.226-2.783,15.264-11.352
		C33.256,6.768,28.165,2.682,25.977,1.701z"/>
</g>
</svg>
