<?xml version="1.0" encoding="utf-8"?>
<!-- Generator: Adobe Illustrator 16.0.4, SVG Export Plug-In . SVG Version: 6.00 Build 0)  -->
<!DOCTYPE svg PUBLIC "-//W3C//DTD SVG 1.1//EN" "http://www.w3.org/Graphics/SVG/1.1/DTD/svg11.dtd">
<svg version="1.1" fill="rgb(0, 14, 156)" xmlns="http://www.w3.org/2000/svg" xmlns:xlink="http://www.w3.org/1999/xlink" x="0px" y="0px"
	 width="32px" height="29.385px" viewBox="0 0 32 29.385" enable-background="new 0 0 32 29.385" xml:space="preserve">
<g id="Fondo_1_" display="none">
	<rect id="Fondo" x="-265.837" y="-764.713" display="inline" fill="#FB6E92" width="999.999" height="2438.351"/>
</g>
<g id="Guias">
</g>
<g id="Icons">
	<g display="none" opacity="0.2">
		<path display="inline" fill="#FFFFFF" d="M144.172,711.808c-11.281,3.636-35.885,28.281-38.51,36.153
			c-2.621,7.851,12.064,36.153,18.865,37.704c6.793,1.591,56.584-20.436,58.154-28.283
			C184.252,749.511,155.455,708.129,144.172,711.808z"/>
		<path display="inline" fill="#FFFFFF" d="M247.141,631.649c-10.498,0.494-88.545,59.726-88.033,69.146
			c0.519,9.423,29.359,46.629,37.729,47.95c8.363,1.302,70.221-78.341,72.307-88.813
			C271.229,649.437,257.613,631.11,247.141,631.649z"/>
		<path display="inline" fill="#FFFFFF" d="M562.076,345.204c-10.932-15.145-35.498-16.26-56.115-3.016
			c-7.869-4.009-17.023-7.233-27.768-9.215c0,0-391.393,317.515-477.854,378.833c0,0-3.302,7.003-8.776,18.407
			c98.109,68.715,86.958,120.567,86.958,120.567c-27.149-66.916-95.885-102.037-95.905-102.037
			c-24.626,50.699-68.835,139.308-92.308,172.114c0,0-0.04,18.016,22.025,29.48c0,0,150.071-101.024,193.329-109.64
			c0,0,23.883-23.282,60.697-58.922c-20.121,10.309-43.197,20.062-52.827,20.659c-16.772,1.053-36.153-39.438-34.583-53.776
			c1.57-14.338,153.521-139.573,176.037-137.983c22.541,1.569,29.875,22.518,30.414,37.725c0.205,6.548-13.654,26.546-30.414,48.012
			c113.261-108.668,256.184-243.842,297.086-273.84c0,0,0.414-10.661-3.139-24.688C566.617,382.536,572.631,359.872,562.076,345.204
			z M-53.329,927.802c0,0-2.542-32.479-33.638-43.818C-86.966,883.983-34.738,860.349-53.329,927.802z"/>
	</g>
	<path d="M25.975,1.701C23.785,0.719,13.923-3.248,4.26,5.889c0,0-10.146,10.158,0.877,16.728c1.323,0.786,3.462,1.309,4.085,1.704
		c0.497,0.318,0.127,4.839,0.697,5.039c1.17,0.414,5.988-4.434,6.531-4.756c0.805-0.479,13.225-2.783,15.264-11.352
		C33.256,6.768,28.165,2.682,25.975,1.701z M11.548,13.205c-0.632,1.313-1.935,2-2.909,1.53c-0.974-0.469-1.25-1.914-0.618-3.229
		c0.633-1.314,1.935-2,2.909-1.531C11.904,10.445,12.181,11.891,11.548,13.205z M18.674,13.504
		c-0.855,1.776-2.616,2.705-3.934,2.069c-1.316-0.633-1.691-2.588-0.836-4.364c0.855-1.777,2.618-2.705,3.933-2.07
		C19.156,9.771,19.529,11.727,18.674,13.504z M24.529,13.205c-0.633,1.313-1.936,2-2.91,1.53c-0.975-0.469-1.251-1.914-0.618-3.229
		c0.632-1.314,1.935-2,2.908-1.531C24.885,10.445,25.161,11.891,24.529,13.205z"/>
</g>
</svg>
