<?xml version="1.0" encoding="utf-8"?>
<!-- Generator: Adobe Illustrator 16.0.4, SVG Export Plug-In . SVG Version: 6.00 Build 0)  -->
<!DOCTYPE svg PUBLIC "-//W3C//DTD SVG 1.1//EN" "http://www.w3.org/Graphics/SVG/1.1/DTD/svg11.dtd">
<svg version="1.1" fill="rgb(0, 14, 156)" xmlns="http://www.w3.org/2000/svg" xmlns:xlink="http://www.w3.org/1999/xlink" x="0px" y="0px"
	 width="32px" height="22.453px" viewBox="0 0 32 22.453" enable-background="new 0 0 32 22.453" xml:space="preserve">
<g id="Fondo_1_" display="none">
	<rect id="Fondo" x="-317.756" y="-768.18" display="inline" fill="#FB6E92" width="1000" height="2438.352"/>
</g>
<g id="Guias">
</g>
<g id="Icons">
	<g display="none" opacity="0.2">
		<path display="inline" fill="#FFFFFF" d="M92.253,708.341c-11.282,3.636-35.885,28.28-38.51,36.152
			c-2.621,7.852,12.065,36.154,18.864,37.705c6.793,1.59,56.584-20.436,58.154-28.283
			C132.333,746.044,103.536,704.662,92.253,708.341z"/>
		<path display="inline" fill="#FFFFFF" d="M195.223,628.183c-10.498,0.494-88.547,59.726-88.035,69.146
			c0.52,9.423,29.36,46.63,37.729,47.951c8.362,1.301,70.222-78.341,72.308-88.813C219.311,645.97,205.693,627.644,195.223,628.183z
			"/>
		<path display="inline" fill="#FFFFFF" d="M510.156,341.738c-10.932-15.145-35.498-16.26-56.113-3.016
			c-7.871-4.009-17.023-7.233-27.768-9.215c0,0-391.394,317.515-477.854,378.833c0,0-3.302,7.003-8.776,18.406
			c98.109,68.716,86.957,120.568,86.957,120.568C-0.547,780.4-69.283,745.279-69.303,745.279
			c-24.626,50.699-68.835,139.308-92.308,172.114c0,0-0.04,18.015,22.025,29.479c0,0,150.072-101.023,193.329-109.639
			c0,0,23.883-23.283,60.696-58.922c-20.121,10.308-43.196,20.062-52.826,20.659c-16.772,1.053-36.153-39.438-34.584-53.776
			c1.57-14.338,153.521-139.574,176.039-137.983c22.539,1.569,29.875,22.518,30.414,37.725c0.205,6.548-13.655,26.546-30.414,48.012
			C316.326,584.279,459.25,449.105,500.152,419.107c0,0,0.414-10.661-3.141-24.688C514.699,379.07,520.711,356.406,510.156,341.738z
			 M-105.248,924.335c0,0-2.542-32.479-33.638-43.818C-138.885,880.517-86.657,856.882-105.248,924.335z"/>
	</g>
	<path d="M5.711,12.236c0,0-5.711-0.773-5.711,4.646c0,5.422,9.776,7.356,25.457,3.678c0,0,6.824-1.256,6.534-5.807
		c-0.29-4.549-4.599-4.26-5.565-3.292c0,0,2.42-3.389-0.387-5.809C23.23,3.235,20.521,5.46,19.65,7.299c0,0,2.178-7.938-5.711-7.26
		C6.5,0.68,3.775,6.43,5.711,12.236z"/>
</g>
</svg>
