<?xml version="1.0" encoding="utf-8"?>
<!-- Generator: Adobe Illustrator 16.0.4, SVG Export Plug-In . SVG Version: 6.00 Build 0)  -->
<!DOCTYPE svg PUBLIC "-//W3C//DTD SVG 1.1//EN" "http://www.w3.org/Graphics/SVG/1.1/DTD/svg11.dtd">
<svg version="1.1" fill="rgb(0, 14, 156)" xmlns="http://www.w3.org/2000/svg" xmlns:xlink="http://www.w3.org/1999/xlink" x="0px" y="0px"
	 width="29.389px" height="32px" viewBox="0 0 29.389 32" enable-background="new 0 0 29.389 32" xml:space="preserve">
<g id="Fondo_1_" display="none">
	<rect id="Fondo" x="-371.386" y="-763.426" display="inline" fill="#FB6E92" width="1000" height="2438.352"/>
</g>
<g id="Guias">
</g>
<g id="Icons">
	<g display="none" opacity="0.2">
		<path display="inline" fill="#FFFFFF" d="M38.623,713.096c-11.282,3.635-35.886,28.281-38.511,36.152
			c-2.62,7.852,12.065,36.154,18.865,37.705c6.793,1.59,56.584-20.436,58.154-28.283C78.703,750.799,49.905,709.416,38.623,713.096z
			"/>
		<path display="inline" fill="#FFFFFF" d="M141.592,632.938c-10.498,0.494-88.546,59.725-88.034,69.146
			c0.52,9.422,29.36,46.629,37.729,47.949c8.362,1.303,70.221-78.34,72.307-88.812C165.68,650.725,152.063,632.396,141.592,632.938z
			"/>
		<path display="inline" fill="#FFFFFF" d="M456.526,346.492c-10.932-15.145-35.498-16.26-56.115-3.016
			c-7.869-4.01-17.022-7.234-27.767-9.215c0,0-391.393,317.514-477.854,378.832c0,0-3.303,7.004-8.776,18.408
			c98.109,68.715,86.957,120.566,86.957,120.566c-27.149-66.916-95.885-102.037-95.905-102.037
			c-24.626,50.699-68.835,139.309-92.308,172.115c0,0-0.04,18.014,22.025,29.48c0,0,150.071-101.025,193.328-109.641
			c0,0,23.884-23.283,60.697-58.922c-20.121,10.309-43.197,20.062-52.827,20.66c-16.771,1.053-36.152-39.438-34.583-53.777
			c1.57-14.338,153.521-139.572,176.038-137.982c22.54,1.568,29.875,22.518,30.414,37.725c0.205,6.547-13.655,26.545-30.414,48.012
			c113.258-108.67,256.182-243.844,297.084-273.842c0,0,0.414-10.66-3.14-24.688C461.068,383.824,467.08,361.16,456.526,346.492z
			 M-158.878,929.09c0,0-2.542-32.479-33.639-43.818C-192.516,885.271-140.287,861.637-158.878,929.09z"/>
	</g>
	<path d="M25.979,13.062v0.004c-0.219-1.184-0.613-2.318-1.172-3.361l0.001,0.002l2.12-3.293l-3.729-3.355L20.14,5.17
		c-1.013-0.502-2.07-0.822-3.139-0.979l0.006-0.002L15.888,0l-4.326,0.82l-0.914,4.352l0.004-0.002
		C9.752,5.592,8.896,6.129,8.108,6.777l0,0l-3.47-1.605L2.685,7.98l1.953,3.357l0.002-0.002c-0.474,1.047-0.793,2.123-0.967,3.203
		v-0.002L0,15.068v3.877l4.109,1.291l0,0c0.277,0.84,0.646,1.639,1.105,2.387l-0.001-0.002l-2.529,3.113l3.085,2.834l3.086-2.354
		l0,0C9.083,26.35,9.315,26.48,9.557,26.6c0.358,0.178,0.723,0.33,1.091,0.463L12.382,32h3.879l0.746-4.668h-0.001
		c0.941-0.242,1.857-0.605,2.725-1.082l0,0l3.169,1.945l2.553-2.687l-1.659-2.889c0.398-0.558,0.761-1.151,1.076-1.789
		c0.226-0.455,0.417-0.92,0.583-1.386v0.002l3.937-1.622v-3.504L25.979,13.062z M12.193,21.439
		c-2.795-1.084-3.979-4.746-2.646-8.174c1.333-3.43,4.678-5.33,7.472-4.244s3.979,4.746,2.646,8.176
		C18.331,20.627,14.987,22.527,12.193,21.439z"/>
</g>
</svg>
