<?xml version="1.0" encoding="utf-8"?>
<!-- Generator: Adobe Illustrator 16.0.4, SVG Export Plug-In . SVG Version: 6.00 Build 0)  -->
<!DOCTYPE svg PUBLIC "-//W3C//DTD SVG 1.1//EN" "http://www.w3.org/Graphics/SVG/1.1/DTD/svg11.dtd">
<svg version="1.1" fill="rgb(0, 14, 156)" xmlns="http://www.w3.org/2000/svg" xmlns:xlink="http://www.w3.org/1999/xlink" x="0px" y="0px"
	 width="28.797px" height="32.141px" viewBox="0 0 28.797 32.141" enable-background="new 0 0 28.797 32.141" xml:space="preserve">
<g id="Fondo_1_" display="none">
	<rect id="Fondo" x="-423.003" y="-763.322" display="inline" fill="#FB6E92" width="1000" height="2438.351"/>
</g>
<g id="Guias">
</g>
<g id="Icons">
	<g display="none" opacity="0.2">
		<path display="inline" fill="#FFFFFF" d="M-12.994,713.198c-11.282,3.636-35.885,28.281-38.51,36.153
			c-2.621,7.851,12.065,36.154,18.865,37.705c6.793,1.59,56.584-20.437,58.154-28.284C27.086,750.901-1.712,709.52-12.994,713.198z"
			/>
		<path display="inline" fill="#FFFFFF" d="M89.975,633.039c-10.498,0.494-88.546,59.727-88.034,69.146
			c0.519,9.423,29.36,46.629,37.729,47.951c8.363,1.301,70.221-78.341,72.307-88.814
			C114.062,650.826,100.446,632.501,89.975,633.039z"/>
		<path display="inline" fill="#FFFFFF" d="M404.909,346.596c-10.932-15.146-35.498-16.26-56.115-3.017
			c-7.869-4.009-17.022-7.232-27.767-9.215c0,0-391.393,317.516-477.854,378.833c0,0-3.302,7.003-8.776,18.407
			c98.109,68.715,86.957,120.568,86.957,120.568c-27.149-66.916-95.885-102.037-95.905-102.037
			c-24.626,50.699-68.835,139.307-92.308,172.113c0,0-0.04,18.016,22.025,29.48c0,0,150.072-101.024,193.329-109.639
			c0,0,23.883-23.283,60.697-58.922c-20.121,10.308-43.197,20.062-52.827,20.658c-16.772,1.054-36.153-39.437-34.583-53.775
			c1.57-14.338,153.521-139.574,176.038-137.984c22.54,1.57,29.875,22.519,30.414,37.725c0.205,6.549-13.655,26.547-30.414,48.013
			c113.261-108.668,256.185-243.842,297.086-273.84c0,0,0.414-10.661-3.14-24.688C409.451,383.928,415.464,361.264,404.909,346.596z
			 M-210.495,929.192c0,0-2.542-32.478-33.638-43.817C-244.133,885.374-191.904,861.739-210.495,929.192z"/>
	</g>
	<path d="M17.165,8.631v0.002c-0.146-0.783-0.406-1.531-0.775-2.221h0.001l1.401-2.175L15.327,2.02l-2.021,1.396
		c-0.669-0.33-1.368-0.541-2.074-0.646h0.004L10.497,0L7.639,0.541L7.035,3.416h0.003c-0.595,0.278-1.16,0.633-1.681,1.062l0,0
		L3.064,3.416l-1.29,1.856l1.29,2.217l0.002-0.002C2.753,8.18,2.542,8.893,2.427,9.605V9.604L0,9.955v2.562l2.715,0.854v-0.002
		c0.183,0.555,0.427,1.084,0.73,1.577l-0.001-0.002l-1.67,2.058l2.039,1.873l2.038-1.556v-0.002
		c0.151,0.091,0.304,0.177,0.463,0.254c0.237,0.117,0.478,0.22,0.721,0.308l1.146,3.262h2.562l0.493-3.082l0,0
		c0.622-0.162,1.228-0.399,1.8-0.717l0,0l2.093,1.285l1.688-1.773l-1.096-1.908c0.263-0.366,0.502-0.762,0.71-1.182
		c0.147-0.303,0.274-0.607,0.385-0.916l0,0l2.601-1.07V9.463L17.165,8.631z M8.056,14.164c-1.846-0.718-2.629-3.136-1.749-5.4
		c0.88-2.265,3.091-3.521,4.937-2.803c1.847,0.717,2.629,3.135,1.749,5.399C12.112,13.627,9.902,14.883,8.056,14.164z"/>
	<path d="M26.538,21.029v0.002c-0.244-0.573-0.57-1.104-0.971-1.567h0.001l0.704-1.904l-2.264-1.279l-1.312,1.41
		c-0.567-0.139-1.14-0.184-1.698-0.143h0.004l-1.037-1.996l-2.098,0.9l0.025,2.305h0.002c-0.408,0.313-0.781,0.682-1.107,1.1l0,0
		l-1.937-0.424l-0.673,1.641l1.365,1.48v-0.002c-0.121,0.582-0.162,1.164-0.129,1.729l0,0l-1.799,0.681l0.436,1.963l2.225,0.193
		v-0.003c0.234,0.396,0.512,0.759,0.827,1.084l0,0l-0.931,1.859l1.879,1.088l1.297-1.537l0,0c0.131,0.043,0.262,0.082,0.398,0.115
		c0.2,0.049,0.402,0.086,0.604,0.113l1.432,2.305l1.963-0.436l-0.146-2.447v0.002c0.448-0.23,0.872-0.516,1.257-0.855v0.002
		l1.822,0.63l0.99-1.646l-1.164-1.275c0.141-0.327,0.257-0.668,0.345-1.026c0.063-0.256,0.108-0.512,0.14-0.767l0,0l1.811-1.262
		l-0.394-1.772L26.538,21.029z M20.5,26.816c-1.535-0.235-2.547-1.955-2.256-3.84c0.289-1.885,1.77-3.223,3.305-2.986
		c1.537,0.237,2.547,1.955,2.257,3.841C23.516,25.715,22.038,27.053,20.5,26.816z"/>
</g>
</svg>
