<?xml version="1.0" encoding="utf-8"?>
<!-- Generator: Adobe Illustrator 16.0.4, SVG Export Plug-In . SVG Version: 6.00 Build 0)  -->
<!DOCTYPE svg PUBLIC "-//W3C//DTD SVG 1.1//EN" "http://www.w3.org/Graphics/SVG/1.1/DTD/svg11.dtd">
<svg version="1.1" fill="rgb(0, 14, 156)" xmlns="http://www.w3.org/2000/svg" xmlns:xlink="http://www.w3.org/1999/xlink" x="0px" y="0px"
	 width="32px" height="26.971px" viewBox="0 0 32 26.971" enable-background="new 0 0 32 26.971" xml:space="preserve">
<g id="Fondo_1_" display="none">
	<rect id="Fondo" x="-473.961" y="-766.916" display="inline" fill="#FB6E92" width="1000" height="2438.351"/>
</g>
<g id="Guias">
</g>
<g id="Icons">
	<g display="none" opacity="0.2">
		<path display="inline" fill="#FFFFFF" d="M-63.952,709.604c-11.282,3.636-35.885,28.281-38.51,36.153
			c-2.621,7.851,12.065,36.153,18.865,37.705c6.793,1.59,56.584-20.437,58.154-28.284
			C-23.872,747.308-52.669,705.926-63.952,709.604z"/>
		<path display="inline" fill="#FFFFFF" d="M39.018,629.446c-10.498,0.494-88.546,59.727-88.035,69.146
			c0.519,9.423,29.36,46.629,37.729,47.95c8.363,1.302,70.222-78.341,72.308-88.813C63.105,647.233,49.488,628.906,39.018,629.446z"
			/>
		<path display="inline" fill="#FFFFFF" d="M353.952,343.002c-10.933-15.146-35.498-16.261-56.115-3.017
			c-7.87-4.009-17.022-7.232-27.767-9.215c0,0-391.393,317.515-477.854,378.833c0,0-3.302,7.003-8.776,18.407
			c98.109,68.715,86.957,120.567,86.957,120.567c-27.149-66.916-95.885-102.036-95.905-102.036
			c-24.626,50.698-68.835,139.307-92.308,172.113c0,0-0.04,18.016,22.025,29.48c0,0,150.072-101.024,193.329-109.64
			c0,0,23.883-23.282,60.697-58.922c-20.121,10.309-43.197,20.062-52.827,20.659c-16.772,1.053-36.153-39.437-34.583-53.775
			c1.57-14.339,153.521-139.574,176.038-137.984c22.539,1.57,29.875,22.518,30.414,37.725c0.205,6.548-13.655,26.546-30.414,48.013
			c113.258-108.669,256.182-243.844,297.084-273.842c0,0,0.414-10.661-3.141-24.688C358.494,380.334,364.506,357.67,353.952,343.002
			z M-261.453,925.599c0,0-2.542-32.479-33.638-43.818C-295.09,881.78-242.862,858.146-261.453,925.599z"/>
	</g>
	<path d="M15.25,26.971c1.688,0,18.25-8.502,16.639-20.098c-0.795-5.729-6.287-7.961-11.095-6.377
		c-3.927,1.295-5.375,5.59-5.637,5.59c-0.67,0-7.947-7.021-13.491,0.416c0,0-3.927,4.297,0.278,11.227
		C4.791,22.422,14.472,26.971,15.25,26.971z"/>
</g>
</svg>
