<?xml version="1.0" encoding="utf-8"?>
<!-- Generator: Adobe Illustrator 16.0.4, SVG Export Plug-In . SVG Version: 6.00 Build 0)  -->
<!DOCTYPE svg PUBLIC "-//W3C//DTD SVG 1.1//EN" "http://www.w3.org/Graphics/SVG/1.1/DTD/svg11.dtd">
<svg version="1.1" fill="rgb(0, 14, 156)" xmlns="http://www.w3.org/2000/svg" xmlns:xlink="http://www.w3.org/1999/xlink" x="0px" y="0px"
	 width="22.508px" height="32px" viewBox="0 0 22.508 32" enable-background="new 0 0 22.508 32" xml:space="preserve">
<g id="Fondo_1_" display="none">
	<rect id="Fondo" x="-528.374" y="-763.396" display="inline" fill="#FB6E92" width="999.999" height="2438.351"/>
</g>
<g id="Guias">
</g>
<g id="Icons">
	<g display="none" opacity="0.2">
		<path display="inline" fill="#FFFFFF" d="M-118.364,713.125c-11.282,3.636-35.885,28.28-38.51,36.152
			c-2.621,7.852,12.065,36.154,18.865,37.705c6.793,1.59,56.584-20.436,58.154-28.284
			C-78.284,750.827-107.082,709.445-118.364,713.125z"/>
		<path display="inline" fill="#FFFFFF" d="M-15.396,632.966c-10.498,0.494-88.546,59.726-88.034,69.146
			c0.519,9.423,29.36,46.629,37.729,47.951c8.363,1.301,70.221-78.341,72.307-88.814C8.692,650.753-4.924,632.427-15.396,632.966z"
			/>
		<path display="inline" fill="#FFFFFF" d="M299.539,346.521c-10.932-15.145-35.498-16.26-56.115-3.016
			c-7.869-4.01-17.023-7.233-27.767-9.216c0,0-391.393,317.516-477.854,378.833c0,0-3.302,7.004-8.776,18.407
			c98.109,68.715,86.957,120.568,86.957,120.568c-27.149-66.916-95.885-102.037-95.905-102.037
			c-24.626,50.699-68.835,139.307-92.308,172.114c0,0-0.04,18.015,22.025,29.479c0,0,150.072-101.023,193.329-109.639
			c0,0,23.883-23.283,60.697-58.922c-20.121,10.308-43.197,20.062-52.827,20.659c-16.772,1.053-36.153-39.438-34.583-53.776
			c1.57-14.338,153.521-139.574,176.038-137.984c22.54,1.57,29.875,22.519,30.413,37.726c0.205,6.548-13.654,26.546-30.413,48.012
			c113.26-108.668,256.184-243.841,297.086-273.839c0,0,0.414-10.661-3.14-24.688C304.081,383.854,310.094,361.189,299.539,346.521z
			 M-315.865,929.118c0,0-2.542-32.478-33.638-43.817C-349.503,885.3-297.274,861.665-315.865,929.118z"/>
	</g>
	<path d="M19.684,14.666c0.008-0.039,2.871-14.428-7.108-14.656c0,0-11.074-0.908-9.354,14.857l0,0C1.25,15.121,0,15.352,0,15.352
		v16.086c6.889,1.265,22.049,0,22.049,0l0.459-16.086C21.635,15.062,20.684,14.838,19.684,14.666z M12.072,2.768
		c0,0,7.537-1.25,5.189,11.584l0.012,0.002c-3.752-0.344-7.857-0.135-11.127,0.182C6.146,14.529,4.207,3.385,12.072,2.768z
		 M12.172,24.852l0.402,3.799l-3.373,0.131l0.445-3.877h0.01c-1.75-0.354-3.082-1.514-3.24-3.018
		c-0.211-1.982,1.689-3.81,4.246-4.078c2.553-0.271,4.793,1.117,5.004,3.101C15.854,22.688,14.336,24.337,12.172,24.852z"/>
</g>
</svg>
