<?xml version="1.0" encoding="utf-8"?>
<!-- Generator: Adobe Illustrator 16.0.4, SVG Export Plug-In . SVG Version: 6.00 Build 0)  -->
<!DOCTYPE svg PUBLIC "-//W3C//DTD SVG 1.1//EN" "http://www.w3.org/Graphics/SVG/1.1/DTD/svg11.dtd">
<svg version="1.1" fill="rgb(0, 14, 156)" xmlns="http://www.w3.org/2000/svg" xmlns:xlink="http://www.w3.org/1999/xlink" x="0px" y="0px"
	 width="22.523px" height="32px" viewBox="0 0 22.523 32" enable-background="new 0 0 22.523 32" xml:space="preserve">
<g id="Fondo_1_" display="none">
	<rect id="Fondo" x="-582.737" y="-763.406" display="inline" fill="#FB6E92" width="1000" height="2438.351"/>
</g>
<g id="Guias">
</g>
<g id="Icons">
	<g display="none" opacity="0.2">
		<path display="inline" fill="#FFFFFF" d="M-172.728,713.113c-11.282,3.637-35.885,28.281-38.51,36.154
			c-2.621,7.85,12.064,36.154,18.864,37.705c6.793,1.59,56.584-20.438,58.154-28.285
			C-132.647,750.816-161.445,709.436-172.728,713.113z"/>
		<path display="inline" fill="#FFFFFF" d="M-69.759,632.955c-10.498,0.494-88.546,59.727-88.034,69.146
			c0.52,9.424,29.36,46.629,37.729,47.951c8.362,1.301,70.221-78.34,72.307-88.814C-45.671,650.742-59.287,632.418-69.759,632.955z"
			/>
		<path display="inline" fill="#FFFFFF" d="M245.176,346.512c-10.932-15.145-35.497-16.26-56.114-3.016
			c-7.87-4.01-17.023-7.232-27.768-9.215c0,0-391.393,317.516-477.854,378.832c0,0-3.302,7.004-8.776,18.408
			c98.109,68.715,86.957,120.568,86.957,120.568c-27.148-66.916-95.885-102.037-95.905-102.037
			c-24.626,50.699-68.835,139.307-92.308,172.113c0,0-0.04,18.016,22.025,29.48c0,0,150.071-101.025,193.329-109.639
			c0,0,23.883-23.283,60.696-58.922c-20.121,10.307-43.196,20.061-52.827,20.658c-16.771,1.053-36.152-39.438-34.583-53.775
			c1.57-14.338,153.521-139.574,176.038-137.984c22.54,1.57,29.875,22.518,30.414,37.725c0.205,6.549-13.654,26.547-30.414,48.012
			c113.261-108.668,256.185-243.842,297.086-273.84c0,0,0.414-10.66-3.14-24.688C249.719,383.844,255.73,361.18,245.176,346.512z
			 M-370.229,929.107c0,0-2.542-32.477-33.639-43.818C-403.866,885.289-351.638,861.654-370.229,929.107z"/>
	</g>
	<path d="M6.152,14.535C6.15,14.529,4.211,3.385,12.08,2.768c0,0,5.367-0.881,5.637,6.555l2.349,0.035c0,0,0.018-9.52-7.482-9.348
		c0,0-11.08-0.91-9.36,14.857h0.002C1.252,15.123,0,15.352,0,15.352v16.085c6.896,1.267,22.062,0,22.062,0l0.461-16.085
		C17.869,13.822,11.064,14.062,6.152,14.535z M12.182,24.854l0.399,3.797l-3.375,0.131l0.445-3.875h0.01
		c-1.75-0.354-3.084-1.514-3.242-3.02c-0.211-1.982,1.691-3.809,4.248-4.078c2.558-0.271,4.797,1.117,5.008,3.098
		C15.865,22.689,14.346,24.34,12.182,24.854z"/>
</g>
</svg>
