<?xml version="1.0" encoding="utf-8"?>
<!-- Generator: Adobe Illustrator 16.0.4, SVG Export Plug-In . SVG Version: 6.00 Build 0)  -->
<!DOCTYPE svg PUBLIC "-//W3C//DTD SVG 1.1//EN" "http://www.w3.org/Graphics/SVG/1.1/DTD/svg11.dtd">
<svg version="1.1" fill="rgb(0, 14, 156)" xmlns="http://www.w3.org/2000/svg" xmlns:xlink="http://www.w3.org/1999/xlink" x="0px" y="0px"
	 width="30.646px" height="32px" viewBox="0 0 30.646 32" enable-background="new 0 0 30.646 32" xml:space="preserve">
<g id="Fondo_1_" display="none">
	<rect id="Fondo" x="-630.989" y="-763.34" display="inline" fill="#FB6E92" width="1000" height="2438.352"/>
</g>
<g id="Guias">
</g>
<g id="Icons">
	<g display="none" opacity="0.2">
		<path display="inline" fill="#FFFFFF" d="M-220.979,713.181c-11.282,3.636-35.885,28.281-38.51,36.153
			c-2.621,7.851,12.064,36.153,18.864,37.704c6.793,1.591,56.584-20.436,58.154-28.283
			C-180.899,750.884-209.697,709.502-220.979,713.181z"/>
		<path display="inline" fill="#FFFFFF" d="M-118.011,633.022c-10.498,0.494-88.546,59.726-88.034,69.146
			c0.52,9.424,29.36,46.63,37.729,47.951c8.362,1.302,70.221-78.341,72.307-88.813C-93.923,650.81-107.539,632.483-118.011,633.022z
			"/>
		<path display="inline" fill="#FFFFFF" d="M196.924,346.578c-10.932-15.145-35.498-16.26-56.114-3.016
			c-7.87-4.009-17.023-7.233-27.768-9.215c0,0-391.393,317.515-477.854,378.833c0,0-3.302,7.003-8.776,18.407
			c98.109,68.715,86.957,120.567,86.957,120.567c-27.148-66.916-95.885-102.037-95.905-102.037
			c-24.626,50.699-68.835,139.308-92.308,172.114c0,0-0.04,18.016,22.025,29.48c0,0,150.071-101.024,193.329-109.64
			c0,0,23.883-23.282,60.696-58.922c-20.121,10.309-43.196,20.062-52.827,20.659c-16.771,1.053-36.152-39.438-34.583-53.776
			c1.57-14.338,153.521-139.573,176.038-137.983c22.54,1.569,29.875,22.518,30.414,37.725c0.205,6.548-13.654,26.546-30.414,48.012
			C3.095,589.119,146.019,453.945,186.921,423.947c0,0,0.414-10.661-3.14-24.688C201.466,383.91,207.479,361.246,196.924,346.578z
			 M-418.48,929.175c0,0-2.542-32.479-33.639-43.818C-452.118,885.356-399.89,861.722-418.48,929.175z"/>
	</g>
	<g>
		<path d="M18.982,25.93c-5.297,2.588-11.379,1.021-13.586-3.496c-2.05-4.196-0.033-9.459,4.504-12.262
			c1.481,2.602,2.787,4.688,3.07,4.688c0.735,0,5.075-11.143,4.87-11.963C17.636,2.077,5.297-0.521,4.922,0.094
			C4.779,0.328,5.816,2.545,7.189,5.189C0.766,9.441-1.844,17.484,1.385,24.092c3.537,7.236,12.73,10.012,20.539,6.197
			c1.511-0.738,2.853-1.668,4.019-2.742l-3.279-4.369C21.67,24.271,20.434,25.221,18.982,25.93z"/>
		<path d="M25.297,17.723c-0.131,0.953-0.42,1.898-0.85,2.803l4.119,3.92c0.973-1.496,1.678-3.131,2.08-4.82L25.297,17.723z"/>
	</g>
</g>
</svg>
