<?xml version="1.0" encoding="utf-8"?>
<!-- Generator: Adobe Illustrator 16.0.4, SVG Export Plug-In . SVG Version: 6.00 Build 0)  -->
<!DOCTYPE svg PUBLIC "-//W3C//DTD SVG 1.1//EN" "http://www.w3.org/Graphics/SVG/1.1/DTD/svg11.dtd">
<svg version="1.1" fill="rgb(0, 14, 156)" xmlns="http://www.w3.org/2000/svg" xmlns:xlink="http://www.w3.org/1999/xlink" x="0px" y="0px"
	 width="32px" height="26.008px" viewBox="0 0 32 26.008" enable-background="new 0 0 32 26.008" xml:space="preserve">
<g id="Fondo_1_" display="none">
	<rect id="Fondo" x="-681.993" y="-766.402" display="inline" fill="#FB6E92" width="1000" height="2438.351"/>
</g>
<g id="Guias">
</g>
<g id="Icons">
	<g display="none" opacity="0.2">
		<path display="inline" fill="#FFFFFF" d="M-271.983,710.117c-11.282,3.637-35.885,28.281-38.51,36.154
			c-2.621,7.85,12.065,36.154,18.865,37.705c6.793,1.59,56.584-20.436,58.154-28.285
			C-231.903,747.82-260.701,706.439-271.983,710.117z"/>
		<path display="inline" fill="#FFFFFF" d="M-169.015,629.961c-10.498,0.492-88.546,59.725-88.034,69.145
			c0.519,9.424,29.36,46.629,37.729,47.951c8.363,1.301,70.221-78.34,72.307-88.814
			C-144.927,647.746-158.543,629.422-169.015,629.961z"/>
		<path display="inline" fill="#FFFFFF" d="M145.92,343.516c-10.933-15.145-35.498-16.26-56.115-3.016
			c-7.87-4.01-17.023-7.232-27.768-9.215c0,0-391.393,317.516-477.854,378.832c0,0-3.302,7.004-8.776,18.408
			c98.109,68.715,86.957,120.568,86.957,120.568c-27.149-66.916-95.885-102.037-95.905-102.037
			c-24.626,50.699-68.835,139.307-92.308,172.113c0,0-0.04,18.016,22.025,29.48c0,0,150.072-101.023,193.329-109.639
			c0,0,23.883-23.283,60.697-58.922c-20.121,10.307-43.197,20.061-52.827,20.658c-16.772,1.053-36.153-39.438-34.583-53.775
			s153.521-139.574,176.038-137.984c22.54,1.57,29.875,22.518,30.414,37.725c0.205,6.549-13.655,26.547-30.414,48.012
			c113.26-108.668,256.184-243.842,297.085-273.84c0,0,0.414-10.66-3.14-24.688C150.461,380.848,156.475,358.184,145.92,343.516z
			 M-469.484,926.111c0,0-2.542-32.477-33.638-43.816C-503.122,882.295-450.894,858.658-469.484,926.111z"/>
	</g>
	<g>
		<path d="M8.631,19.986c-2.033-2.098-2.455-5.232-1.393-8.131c1.986,1.02,3.639,1.795,3.76,1.674
			c0.318-0.318-1.447-9.535-1.844-9.682C8.758,3.699,0,7.357,0,7.721c0,0.133,1.391,0.967,3.182,1.963
			c-1.502,4.427-0.666,9.337,2.619,12.725c3.559,3.666,8.986,4.519,13.739,2.618l-1.269-4.071
			C14.943,22.734,11.031,22.459,8.631,19.986z"/>
		<path d="M28.439,13.482c0.403-3.586-0.655-7.209-3.252-9.883C21.945,0.257,17.15-0.747,12.728,0.54l1.965,4.771
			c2.623-0.564,5.285,0.053,7.091,1.914c1.327,1.369,1.969,3.182,1.959,5.084l0.061,0.045c-2.107-0.475-3.816-0.793-3.902-0.648
			c-0.229,0.387,3.783,8.873,4.203,8.916s7.988-5.685,7.896-6.037C31.967,14.459,30.418,14,28.439,13.482z"/>
	</g>
</g>
</svg>
