<?xml version="1.0" encoding="utf-8"?>
<!-- Generator: Adobe Illustrator 16.0.4, SVG Export Plug-In . SVG Version: 6.00 Build 0)  -->
<!DOCTYPE svg PUBLIC "-//W3C//DTD SVG 1.1//EN" "http://www.w3.org/Graphics/SVG/1.1/DTD/svg11.dtd">
<svg version="1.1" fill="rgb(0, 14, 156)" xmlns="http://www.w3.org/2000/svg" xmlns:xlink="http://www.w3.org/1999/xlink" x="0px" y="0px"
	 width="32px" height="31.562px" viewBox="0 0 32 31.562" enable-background="new 0 0 32 31.562" xml:space="preserve">
<g id="Fondo_1_" display="none">
	<rect id="Fondo" x="-733.991" y="-763.625" display="inline" fill="#FB6E92" width="1000" height="2438.352"/>
</g>
<g id="Guias">
</g>
<g id="Icons">
	<g display="none" opacity="0.2">
		<path display="inline" fill="#FFFFFF" d="M-323.981,712.896c-11.282,3.636-35.885,28.281-38.51,36.153
			c-2.621,7.851,12.065,36.153,18.865,37.705c6.793,1.59,56.584-20.437,58.154-28.284
			C-283.901,750.599-312.699,709.218-323.981,712.896z"/>
		<path display="inline" fill="#FFFFFF" d="M-221.013,632.737c-10.498,0.494-88.546,59.727-88.034,69.146
			c0.519,9.423,29.36,46.629,37.729,47.95c8.363,1.302,70.221-78.341,72.307-88.813
			C-196.925,650.524-210.541,632.198-221.013,632.737z"/>
		<path display="inline" fill="#FFFFFF" d="M93.922,346.294c-10.932-15.146-35.498-16.261-56.115-3.017
			c-7.869-4.009-17.022-7.232-27.767-9.215c0,0-391.393,317.515-477.854,378.833c0,0-3.302,7.003-8.776,18.407
			c98.109,68.715,86.957,120.567,86.957,120.567c-27.149-66.916-95.885-102.036-95.905-102.036
			c-24.626,50.698-68.835,139.307-92.308,172.113c0,0-0.04,18.016,22.025,29.48c0,0,150.072-101.024,193.329-109.64
			c0,0,23.883-23.282,60.697-58.922c-20.121,10.309-43.197,20.062-52.827,20.659c-16.772,1.053-36.153-39.437-34.583-53.775
			s153.521-139.574,176.038-137.984c22.54,1.57,29.875,22.518,30.414,37.725c0.205,6.548-13.655,26.546-30.414,48.013
			C-99.907,588.834,43.018,453.66,83.919,423.662c0,0,0.414-10.66-3.14-24.688C98.464,383.625,104.477,360.962,93.922,346.294z
			 M-521.482,928.89c0,0-2.542-32.479-33.638-43.818C-555.12,885.071-502.892,861.437-521.482,928.89z"/>
	</g>
	<g>
		<path d="M28.777,5.521C23.461-1.102,13.43-1.875,6.373,3.791c-7.057,5.668-8.469,15.629-3.15,22.25
			c5.316,6.623,15.347,7.396,22.404,1.73C32.686,22.105,34.096,12.143,28.777,5.521z M23.508,26.121
			c-5.967,4.195-13.971,3.099-17.873-2.453C1.73,18.115,3.404,10.213,9.373,6.016C15.34,1.82,23.344,2.918,27.248,8.471
			C31.15,14.021,29.477,21.924,23.508,26.121z"/>
		<path d="M21.283,19.424c-0.137-0.01-1.068,0.593-1.719,1.25l-1.326-1.211c0.625-0.873,0.807-1.957,0.383-2.905
			c-0.457-1.027-1.508-1.631-2.684-1.677l0.021-0.004v-2.09c1.662-0.195,3.205-0.461,3.205-0.645c0-0.39-3.67-5.92-4.367-5.92
			c-0.697,0-3.219,6.371-2.869,6.721c0.129,0.129,1.166,0.104,2.416,0.004l0.332,2.104c-0.158,0.047-0.314,0.102-0.469,0.172
			c-1.762,0.782-2.639,2.651-1.959,4.176c0.678,1.521,2.654,2.119,4.414,1.334c0.185-0.08,0.354-0.176,0.517-0.279l1.104,1.314
			c-0.738,0.815-1.58,1.875-1.5,1.969c0.188,0.219,5.227,1.965,5.625,1.625C22.805,25.02,21.652,19.451,21.283,19.424z"/>
	</g>
</g>
</svg>
