<?xml version="1.0" encoding="utf-8"?>
<!-- Generator: Adobe Illustrator 16.0.4, SVG Export Plug-In . SVG Version: 6.00 Build 0)  -->
<!DOCTYPE svg PUBLIC "-//W3C//DTD SVG 1.1//EN" "http://www.w3.org/Graphics/SVG/1.1/DTD/svg11.dtd">
<svg version="1.1" fill="rgb(0, 14, 156)" xmlns="http://www.w3.org/2000/svg" xmlns:xlink="http://www.w3.org/1999/xlink" x="0px" y="0px"
	 width="30.479px" height="32px" viewBox="0 0 30.479 32" enable-background="new 0 0 30.479 32" xml:space="preserve">
<g id="Fondo_1_" display="none">
	<rect id="Fondo" x="-787.092" y="-763.438" display="inline" fill="#FB6E92" width="1000" height="2438.352"/>
</g>
<g id="Guias">
</g>
<g id="Icons">
	<g display="none" opacity="0.2">
		<path display="inline" fill="#FFFFFF" d="M-377.083,713.082c-11.282,3.637-35.886,28.281-38.511,36.152
			c-2.62,7.852,12.065,36.154,18.865,37.705c6.793,1.59,56.584-20.436,58.154-28.283
			C-337.003,750.785-365.801,709.402-377.083,713.082z"/>
		<path display="inline" fill="#FFFFFF" d="M-274.114,632.924c-10.498,0.494-88.546,59.727-88.034,69.146
			c0.52,9.422,29.36,46.629,37.729,47.951c8.362,1.301,70.221-78.342,72.307-88.814
			C-250.026,650.711-263.643,632.385-274.114,632.924z"/>
		<path display="inline" fill="#FFFFFF" d="M40.82,346.479c-10.932-15.145-35.498-16.26-56.114-3.016
			c-7.87-4.01-17.023-7.232-27.768-9.215c0,0-391.393,317.516-477.854,378.834c0,0-3.303,7.002-8.776,18.406
			c98.109,68.715,86.957,120.568,86.957,120.568c-27.148-66.916-95.885-102.037-95.905-102.037
			c-24.626,50.699-68.835,139.307-92.308,172.113c0,0-0.04,18.016,22.025,29.48c0,0,150.071-101.023,193.328-109.639
			c0,0,23.884-23.283,60.697-58.922c-20.121,10.307-43.197,20.061-52.827,20.658c-16.771,1.053-36.152-39.438-34.583-53.775
			c1.57-14.338,153.521-139.574,176.038-137.984c22.54,1.57,29.875,22.518,30.414,37.725c0.205,6.549-13.655,26.547-30.414,48.012
			C-153.009,589.021-10.085,453.848,30.817,423.85c0,0,0.414-10.662-3.14-24.689C45.362,383.812,51.375,361.146,40.82,346.479z
			 M-574.584,929.076c0,0-2.542-32.479-33.639-43.818C-608.222,885.258-555.993,861.623-574.584,929.076z"/>
	</g>
	<g>
		<path d="M19.571,0.536C11.505-1.724,3.025,3.368,0.633,11.909c-2.392,8.54,2.208,17.295,10.276,19.555
			c8.066,2.261,16.546-2.832,18.938-11.373C32.239,11.551,27.639,2.796,19.571,0.536z M28.058,19.59
			c-2.099,7.495-9.539,11.965-16.618,9.98c-7.08-1.982-11.115-9.666-9.018-17.16c2.1-7.495,9.54-11.964,16.619-9.98
			C26.12,4.414,30.157,12.096,28.058,19.59z"/>
		<ellipse transform="matrix(-0.9946 -0.1042 0.1042 -0.9946 9.1618 33.9716)" cx="5.468" cy="16.747" rx="1.72" ry="2.305"/>
		<ellipse transform="matrix(-0.9946 -0.104 0.104 -0.9946 16.6447 21.2545)" cx="8.877" cy="10.193" rx="1.978" ry="2.649"/>
		<ellipse transform="matrix(0.9834 0.1812 -0.1812 0.9834 1.6349 -2.707)" cx="15.634" cy="7.595" rx="1.978" ry="2.649"/>
		<ellipse transform="matrix(0.2973 -0.9548 0.9548 0.2973 4.0308 28.4642)" cx="21.353" cy="11.494" rx="2.649" ry="1.978"/>
		<ellipse transform="matrix(-0.2971 0.9548 -0.9548 -0.2971 47.4156 0.0385)" cx="23.694" cy="17.471" rx="2.649" ry="1.978"/>
		<path d="M11.4,14.091c-0.845,0.729-0.595,4.761,1.135,6.981c1.098,1.408,3.102,2.119,4.742,0.787
			c1.223-0.99,1.198-3.101,0.361-4.389C15.751,14.565,12.331,13.288,11.4,14.091z M17.147,20.312c-0.26,0.981-1.146,1.6-1.98,1.379
			c-0.836-0.221-1.304-1.194-1.043-2.178c0.259-0.982,1.146-1.6,1.98-1.379S17.406,19.331,17.147,20.312z"/>
	</g>
</g>
</svg>
