<?xml version="1.0" encoding="utf-8"?>
<!-- Generator: Adobe Illustrator 16.0.4, SVG Export Plug-In . SVG Version: 6.00 Build 0)  -->
<!DOCTYPE svg PUBLIC "-//W3C//DTD SVG 1.1//EN" "http://www.w3.org/Graphics/SVG/1.1/DTD/svg11.dtd">
<svg version="1.1" fill="rgb(0, 14, 156)" xmlns="http://www.w3.org/2000/svg" xmlns:xlink="http://www.w3.org/1999/xlink" x="0px" y="0px"
	 width="30.311px" height="32px" viewBox="0 0 30.311 32" enable-background="new 0 0 30.311 32" xml:space="preserve">
<g id="Fondo_1_" display="none">
	<rect id="Fondo" x="-838.831" y="-763.438" display="inline" fill="#FB6E92" width="1000" height="2438.352"/>
</g>
<g id="Guias">
</g>
<g id="Icons">
	<g display="none" opacity="0.2">
		<path display="inline" fill="#FFFFFF" d="M-428.821,713.082c-11.282,3.637-35.886,28.281-38.511,36.152
			c-2.621,7.852,12.065,36.154,18.865,37.705c6.793,1.59,56.584-20.436,58.154-28.283
			C-388.741,750.785-417.539,709.402-428.821,713.082z"/>
		<path display="inline" fill="#FFFFFF" d="M-325.853,632.924c-10.498,0.494-88.546,59.727-88.034,69.146
			c0.519,9.422,29.36,46.629,37.729,47.951c8.363,1.301,70.222-78.342,72.308-88.814
			C-301.765,650.711-315.381,632.385-325.853,632.924z"/>
		<path display="inline" fill="#FFFFFF" d="M-10.918,346.479c-10.932-15.145-35.498-16.26-56.115-3.016
			c-7.869-4.01-17.022-7.232-27.767-9.215c0,0-391.393,317.516-477.854,378.834c0,0-3.303,7.002-8.776,18.406
			c98.109,68.715,86.957,120.568,86.957,120.568c-27.149-66.916-95.885-102.037-95.905-102.037
			c-24.626,50.699-68.835,139.307-92.308,172.113c0,0-0.04,18.016,22.024,29.48c0,0,150.072-101.023,193.329-109.639
			c0,0,23.884-23.283,60.697-58.922c-20.121,10.307-43.197,20.061-52.827,20.658c-16.771,1.053-36.152-39.438-34.583-53.775
			c1.57-14.338,153.521-139.574,176.038-137.984c22.54,1.57,29.875,22.518,30.414,37.725c0.205,6.549-13.655,26.547-30.414,48.012
			c113.26-108.666,256.184-243.84,297.086-273.838c0,0,0.414-10.662-3.14-24.689C-6.376,383.812-0.363,361.146-10.918,346.479z
			 M-626.322,929.076c0,0-2.542-32.479-33.639-43.818C-659.96,885.258-607.731,861.623-626.322,929.076z"/>
	</g>
	<g>
		<path d="M19.41,0.511C11.379-1.695,2.964,3.45,0.613,12.005c-2.35,8.556,2.256,17.278,10.286,19.483
			c8.031,2.207,16.446-2.938,18.796-11.493C32.046,11.44,27.44,2.717,19.41,0.511z M17.568,28.881
			c-0.305-1.029-1.484-2.876-1.846-2.854c-0.371,0.025-1.749,2.06-1.948,3.148c-0.712-0.061-1.426-0.182-2.136-0.377
			c-4.297-1.18-7.402-4.617-8.535-8.812c1.016-0.354,2.801-1.616,2.76-1.977c-0.043-0.367-2.127-1.644-3.227-1.797
			c0.018-1.158,0.179-2.338,0.502-3.516c1.271-4.631,4.694-8.053,8.771-9.35c0.359,0.99,1.736,2.8,2.103,2.744
			c0.367-0.057,1.575-2.211,1.676-3.312c0.99,0.012,1.99,0.146,2.982,0.419c5.038,1.383,8.44,5.871,8.94,11.044
			c-1.002,0.177-3.091,1.347-3.084,1.726c0.005,0.359,1.83,1.752,2.927,2.078c-0.075,0.417-0.168,0.836-0.283,1.254
			C25.813,24.243,22.005,27.807,17.568,28.881z"/>
		<path d="M18.916,11.671c-1.274-0.743-6.462,1.592-6.978,2.247s-1.24,7.266-0.631,7.734c0.607,0.468,5.011-0.891,6.648-2.67
			C18.742,18.13,19.689,12.12,18.916,11.671z M16.506,17.012c-0.422,1.065-1.457,1.655-2.311,1.316
			c-0.854-0.34-1.203-1.477-0.78-2.543c0.423-1.065,1.458-1.656,2.312-1.317C16.579,14.806,16.929,15.944,16.506,17.012z"/>
	</g>
</g>
</svg>
