<?xml version="1.0" encoding="utf-8"?>
<!-- Generator: Adobe Illustrator 16.0.4, SVG Export Plug-In . SVG Version: 6.00 Build 0)  -->
<!DOCTYPE svg PUBLIC "-//W3C//DTD SVG 1.1//EN" "http://www.w3.org/Graphics/SVG/1.1/DTD/svg11.dtd">
<svg version="1.1" fill="rgb(0, 14, 156)" xmlns="http://www.w3.org/2000/svg" xmlns:xlink="http://www.w3.org/1999/xlink" x="0px" y="0px"
	 width="25.775px" height="32px" viewBox="0 0 25.775 32" enable-background="new 0 0 25.775 32" xml:space="preserve">
<g id="Fondo_1_" display="none">
	<rect id="Fondo" x="-113.115" y="-827.445" display="inline" fill="#FB6E92" width="1000" height="2438.351"/>
</g>
<g id="Guias">
</g>
<g id="Icons">
	<g display="none" opacity="0.2">
		<path display="inline" fill="#FFFFFF" d="M296.894,649.074c-11.282,3.637-35.885,28.281-38.51,36.154
			c-2.621,7.85,12.065,36.154,18.865,37.705c6.793,1.59,56.584-20.436,58.153-28.285
			C336.974,686.777,308.176,645.396,296.894,649.074z"/>
		<path display="inline" fill="#FFFFFF" d="M399.863,568.918c-10.497,0.492-88.546,59.725-88.033,69.145
			c0.519,9.424,29.359,46.629,37.729,47.951c8.363,1.301,70.221-78.34,72.307-88.814
			C423.95,586.703,410.334,568.379,399.863,568.918z"/>
		<path display="inline" fill="#FFFFFF" d="M714.797,282.473c-10.933-15.145-35.498-16.26-56.115-3.016
			c-7.87-4.01-17.023-7.232-27.768-9.215c0,0-391.393,317.516-477.854,378.832c0,0-3.302,7.004-8.775,18.408
			c98.108,68.715,86.957,120.568,86.957,120.568c-27.149-66.916-95.886-102.037-95.905-102.037
			C110.711,736.713,66.502,825.32,43.03,858.129c0,0-0.039,18.014,22.025,29.479c0,0,150.072-101.023,193.329-109.639
			c0,0,23.883-23.283,60.697-58.922c-20.121,10.309-43.197,20.062-52.827,20.658c-16.772,1.055-36.153-39.436-34.583-53.775
			c1.57-14.338,153.521-139.574,176.038-137.984c22.539,1.57,29.875,22.52,30.413,37.727c0.205,6.547-13.654,26.545-30.413,48.012
			c113.259-108.67,256.183-243.844,297.085-273.842c0,0,0.413-10.66-3.141-24.688C719.339,319.805,725.352,297.141,714.797,282.473z
			 M99.393,865.068c0,0-2.542-32.477-33.638-43.816C65.755,821.252,117.984,797.615,99.393,865.068z"/>
	</g>
	<g>
		<path d="M24.128,11.168l1.647-1.715l-2.523-2.754l-1.46,1.552v0.001c-0.464-0.419-0.967-0.805-1.508-1.152
			c-1.775-1.139-3.756-1.73-5.767-1.826l0.229-2.062h2.723V0L8.476,0.367v2.845h2.645l0.307,2.3
			c-3.535,0.713-6.888,2.912-9.091,6.346c-4.085,6.367-2.671,14.56,3.158,18.298c5.827,3.74,13.863,1.609,17.947-4.758
			C26.379,20.82,26.474,15.299,24.128,11.168L24.128,11.168z M21.196,23.958c-3.216,5.013-9.541,6.688-14.13,3.745
			c-4.588-2.943-5.7-9.393-2.484-14.404c3.215-5.013,9.541-6.689,14.13-3.746C23.299,12.496,24.412,18.945,21.196,23.958z"/>
		<path d="M15.059,16.521h0.003l-1.01-5.532h-1.163l-0.668,5.637h0.007c-0.239,0.127-0.471,0.281-0.688,0.469
			c-1.344,1.16-1.625,3.033-0.631,4.184c0.992,1.15,2.888,1.144,4.229-0.016c1.342-1.16,1.625-3.033,0.631-4.185
			C15.567,16.844,15.324,16.66,15.059,16.521z"/>
	</g>
</g>
</svg>
