<?xml version="1.0" encoding="utf-8"?>
<!-- Generator: Adobe Illustrator 16.0.4, SVG Export Plug-In . SVG Version: 6.00 Build 0)  -->
<!DOCTYPE svg PUBLIC "-//W3C//DTD SVG 1.1//EN" "http://www.w3.org/Graphics/SVG/1.1/DTD/svg11.dtd">
<svg version="1.1" fill="rgb(0, 14, 156)" xmlns="http://www.w3.org/2000/svg" xmlns:xlink="http://www.w3.org/1999/xlink" x="0px" y="0px"
	 width="32px" height="30.318px" viewBox="0 0 32 30.318" enable-background="new 0 0 32 30.318" xml:space="preserve">
<g id="Fondo_1_" display="none">
	<rect id="Fondo" x="-161.966" y="-827.445" display="inline" fill="#FB6E92" width="999.999" height="2438.351"/>
</g>
<g id="Guias">
</g>
<g id="Icons">
	<g display="none" opacity="0.2">
		<path display="inline" fill="#FFFFFF" d="M248.043,649.074c-11.281,3.637-35.885,28.281-38.51,36.153
			c-2.621,7.851,12.064,36.154,18.865,37.705c6.793,1.59,56.584-20.436,58.154-28.284
			C288.123,686.778,259.325,645.396,248.043,649.074z"/>
		<path display="inline" fill="#FFFFFF" d="M351.012,568.917c-10.498,0.493-88.546,59.726-88.033,69.146
			c0.519,9.423,29.359,46.629,37.729,47.951c8.363,1.301,70.221-78.341,72.307-88.814
			C375.1,586.703,361.482,568.378,351.012,568.917z"/>
		<path display="inline" fill="#FFFFFF" d="M665.945,282.473c-10.932-15.145-35.498-16.26-56.115-3.016
			c-7.869-4.01-17.021-7.233-27.766-9.215c0,0-391.394,317.515-477.854,378.832c0,0-3.302,7.003-8.776,18.407
			c98.109,68.715,86.957,120.568,86.957,120.568c-27.148-66.916-95.885-102.037-95.904-102.037
			C61.859,736.713,17.65,825.32-5.821,858.128c0,0-0.04,18.015,22.025,29.479c0,0,150.071-101.024,193.329-109.639
			c0,0,23.883-23.283,60.697-58.922c-20.121,10.308-43.197,20.062-52.828,20.658c-16.771,1.054-36.152-39.437-34.582-53.775
			c1.57-14.338,153.521-139.574,176.037-137.984c22.541,1.57,29.875,22.519,30.414,37.726c0.205,6.548-13.654,26.546-30.414,48.012
			c113.26-108.669,256.184-243.843,297.086-273.841c0,0,0.414-10.661-3.141-24.688C670.488,319.805,676.5,297.141,665.945,282.473z
			 M50.542,865.069c0,0-2.542-32.478-33.638-43.817C16.904,821.251,69.133,797.615,50.542,865.069z"/>
	</g>
	<path display="none" opacity="0.5" fill="#71C8EA" enable-background="new    " d="M1619.09,598.732l3.332,3.333
		c0,0,17-13.666,32.5-11.833c0,0,21-27.999,50-37.833c0,0,17.668-9.834,7.168-30.667s-24.328-12.937-31.168-8
		c-9.582,6.916-39.771,40.322-51.5,56.333C1629.422,570.065,1632.922,586.399,1619.09,598.732z"/>
	<path d="M31.934,15.945h0.002c0,0-0.004-0.013-0.008-0.019c-0.023-0.085-0.052-0.158-0.089-0.21
		c-0.754-1.762-5.821-13.521-6.979-13.984c-0.514-0.206-3.817,0.201-7.6,0.812L17.566,0L12.369,0.73l0.42,2.593
		C8.795,4.066,5.253,4.861,4.822,5.239C3.915,6.033,0.694,18.829,0.096,21.227c-0.011,0.015-0.027,0.028-0.033,0.041
		c-0.036,0.079-0.054,0.193-0.06,0.331C0.001,21.607,0,21.613,0,21.613l0.003-0.002c-0.064,1.812,2.253,8.084,3.065,8.55
		c0.876,0.501,25.045-0.251,25.922-1.254C29.803,27.979,32.454,17.903,31.934,15.945z M22.455,16.167c0,0-0.801,3.75-1.354,4.225
		C20.225,21.144,9.956,23.146,9.08,22.58c-0.542-0.352-1.273-2.487-1.755-4.07c-2.282,0.68-3.214,1.336-4.512,1.853
		C3.897,15.31,5.86,7.53,6.526,6.948c0.401-0.352,2.686-1.09,6.4-1.782l0.731,3.51c-1.978,0.368-3.621,0.831-3.725,1.071
		c-0.243,0.567,4.589,7.959,5.523,7.879c0.934-0.082,5.682-8.654,5.115-9.099c-0.566-0.443-2.188-0.46-4.002-0.276l0.584-3.821
		c3.548-0.575,5.647-0.956,6.13-0.764c0.792,0.316,5.872,11.442,5.872,11.442L22.455,16.167z"/>
</g>
</svg>
