<?xml version="1.0" encoding="utf-8"?>
<!-- Generator: Adobe Illustrator 16.0.4, SVG Export Plug-In . SVG Version: 6.00 Build 0)  -->
<!DOCTYPE svg PUBLIC "-//W3C//DTD SVG 1.1//EN" "http://www.w3.org/Graphics/SVG/1.1/DTD/svg11.dtd">
<svg version="1.1" fill="rgb(0, 14, 156)" xmlns="http://www.w3.org/2000/svg" xmlns:xlink="http://www.w3.org/1999/xlink" x="0px" y="0px"
	 width="32px" height="30.32px" viewBox="0 0 32 30.32" enable-background="new 0 0 32 30.32" xml:space="preserve">
<g id="Fondo_1_" display="none">
	<rect id="Fondo" x="-213.714" y="-827.444" display="inline" fill="#FB6E92" width="999.999" height="2438.351"/>
</g>
<g id="Guias">
</g>
<g id="Icons">
	<g display="none" opacity="0.2">
		<path display="inline" fill="#FFFFFF" d="M196.295,649.076c-11.281,3.637-35.885,28.281-38.51,36.153
			c-2.621,7.851,12.064,36.154,18.865,37.705c6.793,1.59,56.584-20.437,58.154-28.284
			C236.375,686.779,207.578,645.397,196.295,649.076z"/>
		<path display="inline" fill="#FFFFFF" d="M299.264,568.919c-10.498,0.493-88.545,59.726-88.033,69.146
			c0.519,9.423,29.359,46.629,37.729,47.951c8.363,1.301,70.221-78.341,72.307-88.814
			C323.352,586.705,309.736,568.38,299.264,568.919z"/>
		<path display="inline" fill="#FFFFFF" d="M614.199,282.474c-10.932-15.146-35.498-16.261-56.115-3.017
			c-7.869-4.009-17.023-7.232-27.768-9.215c0,0-391.393,317.516-477.854,378.833c0,0-3.302,7.003-8.775,18.407
			c98.108,68.715,86.957,120.568,86.957,120.568c-27.149-66.916-95.886-102.037-95.906-102.037
			c-24.625,50.699-68.834,139.307-92.307,172.114c0,0-0.04,18.015,22.025,29.479c0,0,150.071-101.023,193.329-109.639
			c0,0,23.883-23.283,60.697-58.922c-20.121,10.308-43.197,20.062-52.828,20.659c-16.771,1.053-36.152-39.438-34.582-53.776
			c1.57-14.338,153.521-139.574,176.037-137.984c22.541,1.57,29.875,22.519,30.414,37.726c0.205,6.548-13.654,26.546-30.414,48.012
			c113.26-108.668,256.184-243.842,297.086-273.84c0,0,0.414-10.661-3.139-24.688C618.74,319.806,624.754,297.142,614.199,282.474z
			 M-1.206,865.07c0,0-2.542-32.478-33.638-43.817C-34.843,821.253,17.385,797.617-1.206,865.07z"/>
	</g>
	<path display="none" opacity="0.5" fill="#71C8EA" enable-background="new    " d="M1567.342,598.733l3.332,3.333
		c0,0,17-13.666,32.5-11.833c0,0,21-27.999,50-37.833c0,0,17.668-9.834,7.168-30.667s-24.328-12.937-31.168-8
		c-9.582,6.916-39.771,40.322-51.5,56.333C1577.674,570.066,1581.174,586.4,1567.342,598.733z"/>
	<path d="M31.934,15.946h0.002c0,0-0.004-0.013-0.008-0.019c-0.023-0.086-0.052-0.158-0.089-0.211
		c-0.754-1.762-5.821-13.521-6.979-13.983c-0.51-0.204-3.752,0.193-7.488,0.795c-1.033-1.42-2.011-2.559-2.38-2.527
		c-0.393,0.034-1.463,1.579-2.528,3.386c-3.857,0.726-7.22,1.486-7.64,1.854c-0.908,0.794-4.13,13.59-4.727,15.989
		c-0.011,0.014-0.027,0.027-0.033,0.041c-0.036,0.079-0.054,0.192-0.06,0.331C0.001,21.608,0,21.614,0,21.614l0.003-0.002
		c-0.064,1.812,2.253,8.084,3.065,8.549c0.876,0.501,25.045-0.251,25.922-1.253C29.803,27.98,32.454,17.904,31.934,15.946z
		 M22.455,16.168c-0.296,1.979-0.801,3.75-1.354,4.226c-0.875,0.752-11.146,2.755-12.021,2.188
		c-0.542-0.351-1.755-4.069-1.755-4.069s-3.214,1.336-4.512,1.853C3.897,15.311,5.86,7.531,6.526,6.949
		C6.89,6.63,8.435,6.03,11.71,5.398c-1.246,2.226-2.122,3.477-1.837,3.7c0.568,0.443,2.19,0.46,4.002,0.276l-0.996,8.25l5.197-0.729
		l-1.287-7.944c1.979-0.368,3.621-0.831,3.725-1.071c0.131-0.304-0.935-1.594-2.334-3.612c3.217-0.504,4.656-0.779,5.104-0.602
		c0.792,0.317,5.871,11.443,5.871,11.443S25.475,15.791,22.455,16.168z"/>
</g>
</svg>
