<?xml version="1.0" encoding="utf-8"?>
<!-- Generator: Adobe Illustrator 16.0.4, SVG Export Plug-In . SVG Version: 6.00 Build 0)  -->
<!DOCTYPE svg PUBLIC "-//W3C//DTD SVG 1.1//EN" "http://www.w3.org/Graphics/SVG/1.1/DTD/svg11.dtd">
<svg version="1.1" fill="rgb(0, 14, 156)" xmlns="http://www.w3.org/2000/svg" xmlns:xlink="http://www.w3.org/1999/xlink" x="0px" y="0px"
	 width="32px" height="21.458px" viewBox="0 0 32 21.458" enable-background="new 0 0 32 21.458" xml:space="preserve">
<g id="Fondo_1_" display="none">
	<rect id="Fondo" x="-266.003" y="-834.189" display="inline" fill="#FB6E92" width="999.999" height="2438.351"/>
</g>
<g id="Guias">
</g>
<g id="Icons">
	<g display="none" opacity="0.2">
		<path display="inline" fill="#FFFFFF" d="M144.006,642.331c-11.281,3.637-35.885,28.281-38.51,36.153
			c-2.621,7.852,12.064,36.154,18.865,37.705c6.793,1.59,56.584-20.436,58.154-28.284
			C184.086,680.034,155.288,638.652,144.006,642.331z"/>
		<path display="inline" fill="#FFFFFF" d="M246.975,562.173c-10.498,0.494-88.545,59.726-88.033,69.146
			c0.519,9.423,29.359,46.629,37.729,47.951c8.363,1.301,70.221-78.341,72.307-88.814
			C271.062,579.96,257.445,561.634,246.975,562.173z"/>
		<path display="inline" fill="#FFFFFF" d="M561.908,275.729c-10.932-15.145-35.498-16.26-56.113-3.016
			c-7.871-4.01-17.023-7.233-27.768-9.215c0,0-391.394,317.515-477.854,378.833c0,0-3.302,7.003-8.776,18.406
			c98.109,68.715,86.957,120.568,86.957,120.568C51.206,714.391-17.53,679.27-17.55,679.27
			c-24.626,50.699-68.835,139.307-92.308,172.114c0,0-0.04,18.015,22.025,29.479c0,0,150.071-101.023,193.329-109.639
			c0,0,23.883-23.283,60.697-58.922c-20.121,10.308-43.197,20.062-52.827,20.659c-16.772,1.053-36.153-39.438-34.583-53.776
			c1.57-14.338,153.521-139.574,176.037-137.984c22.541,1.57,29.875,22.519,30.414,37.726c0.205,6.548-13.654,26.546-30.414,48.012
			C368.08,518.27,511.004,383.096,551.906,353.098c0,0,0.414-10.661-3.141-24.688C566.451,313.061,572.465,290.396,561.908,275.729z
			 M-53.495,858.325c0,0-2.542-32.478-33.638-43.817C-87.133,814.507-34.904,790.872-53.495,858.325z"/>
	</g>
	<g>
		<polygon points="0,2.706 0.513,20.711 9.05,10.263 		"/>
		<polygon points="31.348,0 0.934,0.561 15.674,12.129 		"/>
		<polygon points="15.58,15.721 9.885,10.881 2.968,21.103 30.134,21.458 22.297,9.517 		"/>
		<polygon points="23.322,8.724 32,19.219 31.348,1.213 		"/>
	</g>
</g>
</svg>
