<?xml version="1.0" encoding="utf-8"?>
<!-- Generator: Adobe Illustrator 16.0.4, SVG Export Plug-In . SVG Version: 6.00 Build 0)  -->
<!DOCTYPE svg PUBLIC "-//W3C//DTD SVG 1.1//EN" "http://www.w3.org/Graphics/SVG/1.1/DTD/svg11.dtd">
<svg version="1.1" fill="rgb(0, 14, 156)" xmlns="http://www.w3.org/2000/svg" xmlns:xlink="http://www.w3.org/1999/xlink" x="0px" y="0px"
	 width="30.158px" height="32px" viewBox="0 0 30.158 32" enable-background="new 0 0 30.158 32" xml:space="preserve">
<g id="Fondo_1_" display="none">
	<rect id="Fondo" x="-318.845" y="-827.445" display="inline" fill="#FB6E92" width="1000" height="2438.351"/>
</g>
<g id="Guias">
</g>
<g id="Icons">
	<g display="none" opacity="0.2">
		<path display="inline" fill="#FFFFFF" d="M91.165,649.074c-11.282,3.637-35.885,28.281-38.51,36.154
			c-2.621,7.85,12.064,36.154,18.865,37.705c6.793,1.59,56.584-20.436,58.153-28.285
			C131.245,686.777,102.446,645.396,91.165,649.074z"/>
		<path display="inline" fill="#FFFFFF" d="M194.133,568.918c-10.498,0.492-88.546,59.725-88.034,69.145
			c0.52,9.424,29.36,46.629,37.729,47.951c8.362,1.301,70.221-78.34,72.308-88.814C218.222,586.703,204.604,568.379,194.133,568.918
			z"/>
		<path display="inline" fill="#FFFFFF" d="M509.067,282.473c-10.932-15.145-35.498-16.26-56.115-3.016
			c-7.869-4.01-17.021-7.232-27.766-9.215c0,0-391.394,317.516-477.854,378.832c0,0-3.302,7.004-8.776,18.408
			c98.109,68.715,86.957,120.568,86.957,120.568c-27.149-66.916-95.885-102.037-95.905-102.037
			c-24.626,50.699-68.835,139.307-92.308,172.113c0,0-0.04,18.016,22.025,29.48c0,0,150.072-101.023,193.328-109.639
			c0,0,23.884-23.283,60.697-58.922c-20.121,10.307-43.197,20.061-52.826,20.658c-16.772,1.053-36.153-39.438-34.584-53.775
			c1.57-14.338,153.521-139.574,176.039-137.984c22.539,1.57,29.875,22.518,30.414,37.725c0.205,6.549-13.656,26.547-30.414,48.012
			c113.26-108.668,256.184-243.842,297.086-273.84c0,0,0.414-10.66-3.141-24.688C513.61,319.805,519.622,297.141,509.067,282.473z
			 M-106.336,865.068c0,0-2.542-32.477-33.638-43.816C-139.974,821.252-87.746,797.615-106.336,865.068z"/>
	</g>
	<path d="M12.665,0.414C11,0.372,1.489-0.497,0.638,0.414c-0.851,0.911-0.851,12.209,0,12.998
		c0.851,0.789,15.868,18.449,16.521,18.587c0.652,0.136,12.953-14.153,12.999-14.821C30.203,16.51,15.079,0.475,12.665,0.414z
		 M9.835,10.429c-1.393,0.813-3.347,0.058-4.367-1.687C4.448,6.997,4.75,4.923,6.142,4.109S9.49,4.05,10.509,5.796
		C11.528,7.541,11.227,9.615,9.835,10.429z"/>
</g>
</svg>
