<?xml version="1.0" encoding="utf-8"?>
<!-- Generator: Adobe Illustrator 16.0.4, SVG Export Plug-In . SVG Version: 6.00 Build 0)  -->
<!DOCTYPE svg PUBLIC "-//W3C//DTD SVG 1.1//EN" "http://www.w3.org/Graphics/SVG/1.1/DTD/svg11.dtd">
<svg version="1.1" fill="rgb(0, 14, 156)" xmlns="http://www.w3.org/2000/svg" xmlns:xlink="http://www.w3.org/1999/xlink" x="0px" y="0px"
	 width="32px" height="26.393px" viewBox="0 0 32 26.393" enable-background="new 0 0 32 26.393" xml:space="preserve">
<g id="Fondo_1_" display="none">
	<rect id="Fondo" x="-370.081" y="-830.249" display="inline" fill="#FB6E92" width="1000" height="2438.352"/>
</g>
<g id="Guias">
</g>
<g id="Icons">
	<g display="none" opacity="0.2">
		<path display="inline" fill="#FFFFFF" d="M39.929,646.271c-11.282,3.636-35.885,28.281-38.51,36.153
			c-2.621,7.851,12.065,36.153,18.866,37.705c6.793,1.59,56.584-20.437,58.153-28.284C80.009,683.975,51.21,642.594,39.929,646.271z
			"/>
		<path display="inline" fill="#FFFFFF" d="M142.897,566.113c-10.498,0.494-88.546,59.727-88.034,69.146
			c0.52,9.423,29.36,46.629,37.729,47.951c8.363,1.301,70.222-78.342,72.308-88.814C166.985,583.9,153.369,565.574,142.897,566.113z
			"/>
		<path display="inline" fill="#FFFFFF" d="M457.832,279.669c-10.932-15.145-35.497-16.26-56.114-3.016
			c-7.87-4.009-17.023-7.233-27.767-9.215c0,0-391.394,317.515-477.854,378.833c0,0-3.302,7.003-8.776,18.407
			c98.109,68.715,86.957,120.567,86.957,120.567c-27.149-66.916-95.885-102.037-95.905-102.037
			c-24.626,50.699-68.835,139.308-92.308,172.114c0,0-0.04,18.016,22.025,29.48c0,0,150.072-101.024,193.329-109.64
			c0,0,23.882-23.282,60.697-58.922c-20.121,10.309-43.197,20.062-52.827,20.659c-16.772,1.053-36.153-39.437-34.583-53.776
			c1.57-14.338,153.521-139.573,176.039-137.983c22.539,1.57,29.875,22.518,30.414,37.725c0.204,6.548-13.656,26.546-30.414,48.013
			c113.26-108.668,256.184-243.843,297.085-273.841c0,0,0.414-10.66-3.14-24.688C462.374,317.002,468.387,294.337,457.832,279.669z
			 M-157.572,862.266c0,0-2.542-32.479-33.638-43.818C-191.21,818.447-138.981,794.812-157.572,862.266z"/>
	</g>
	<path d="M17.89,0.004C9.404-0.247,0,12.042,0,14.169c0,1.937,9.256,12.462,17.833,12.22C25.146,26.181,31.998,15.585,32,14.169
		C32,12.604,28.358,0.314,17.89,0.004z M22.255,9.611c-0.965,1.805-2.936,2.632-4.399,1.849c-1.464-0.782-1.87-2.883-0.903-4.688
		c0.346-0.646,0.821-1.165,1.356-1.531c1.581,0.01,2.969,0.367,4.18,0.932C22.929,7.151,22.882,8.442,22.255,9.611z M17.904,22.761
		c-6.593,0.293-13.672-7.746-13.672-8.479c0-1.086,3.4-4.457,7.645-6.971c-2.03,3.944-1.126,8.479,2.064,10.186
		c3.229,1.728,7.572-0.098,9.701-4.075c1.042-1.947,1.355-4.052,1.027-5.894c3.136,2.492,4.617,5.668,4.562,6.416
		C29.173,14.771,23.755,22.502,17.904,22.761z"/>
</g>
</svg>
