<?xml version="1.0" encoding="utf-8"?>
<!-- Generator: Adobe Illustrator 16.0.4, SVG Export Plug-In . SVG Version: 6.00 Build 0)  -->
<!DOCTYPE svg PUBLIC "-//W3C//DTD SVG 1.1//EN" "http://www.w3.org/Graphics/SVG/1.1/DTD/svg11.dtd">
<svg version="1.1" fill="rgb(0, 14, 156)" xmlns="http://www.w3.org/2000/svg" xmlns:xlink="http://www.w3.org/1999/xlink" x="0px" y="0px"
	 width="31.441px" height="32px" viewBox="0 0 31.441 32" enable-background="new 0 0 31.441 32" xml:space="preserve">
<g id="Fondo_1_" display="none">
	<rect id="Fondo" x="-421.938" y="-827.444" display="inline" fill="#FB6E92" width="1000" height="2438.351"/>
</g>
<g id="Guias">
</g>
<g id="Icons">
	<g display="none" opacity="0.2">
		<path display="inline" fill="#FFFFFF" d="M-11.929,649.076c-11.281,3.637-35.885,28.281-38.51,36.153
			c-2.621,7.851,12.065,36.154,18.865,37.705c6.793,1.59,56.584-20.437,58.154-28.284C28.151,686.779-0.647,645.397-11.929,649.076z
			"/>
		<path display="inline" fill="#FFFFFF" d="M91.04,568.918c-10.498,0.493-88.546,59.726-88.034,69.146
			c0.519,9.423,29.36,46.629,37.729,47.951c8.363,1.301,70.222-78.341,72.308-88.814C115.127,586.705,101.511,568.379,91.04,568.918
			z"/>
		<path display="inline" fill="#FFFFFF" d="M405.974,282.474c-10.932-15.146-35.498-16.261-56.115-3.017
			c-7.87-4.008-17.022-7.232-27.767-9.215c0,0-391.393,317.516-477.854,378.833c0,0-3.302,7.003-8.775,18.407
			c98.108,68.715,86.957,120.568,86.957,120.568c-27.149-66.916-95.885-102.037-95.905-102.037
			c-24.626,50.699-68.835,139.307-92.308,172.114c0,0-0.04,18.015,22.024,29.479c0,0,150.072-101.023,193.329-109.639
			c0,0,23.883-23.283,60.697-58.922c-20.121,10.308-43.197,20.062-52.827,20.659c-16.771,1.053-36.153-39.438-34.583-53.776
			c1.57-14.338,153.521-139.574,176.038-137.984c22.54,1.57,29.875,22.519,30.414,37.726c0.205,6.548-13.655,26.546-30.414,48.012
			C212.143,525.014,355.067,389.84,395.969,359.842c0,0,0.414-10.661-3.14-24.688C410.516,319.806,416.529,297.142,405.974,282.474z
			 M-209.43,865.07c0,0-2.542-32.478-33.638-43.817C-243.068,821.252-190.839,797.617-209.43,865.07z"/>
	</g>
	<path d="M31.413,11.789c-0.954-1.266-10.984,0.039-10.984,0.039S16.976-0.107,15.657,0.001c-1.319,0.107-5.243,12.997-5.243,12.997
		S0.413,13.27,0.015,14.211c-0.397,0.942,7.521,5.926,7.521,5.926S2.128,31.072,2.846,31.76c1.911,1.83,11.438-7.365,12.596-7.438
		c1.158-0.073,10.767,7.787,12.597,6.36c0.832-0.648-4.484-11.27-4.484-11.27S31.997,12.564,31.413,11.789z"/>
</g>
</svg>
