<?xml version="1.0" encoding="utf-8"?>
<!-- Generator: Adobe Illustrator 16.0.4, SVG Export Plug-In . SVG Version: 6.00 Build 0)  -->
<!DOCTYPE svg PUBLIC "-//W3C//DTD SVG 1.1//EN" "http://www.w3.org/Graphics/SVG/1.1/DTD/svg11.dtd">
<svg version="1.1" fill="rgb(0, 14, 156)" xmlns="http://www.w3.org/2000/svg" xmlns:xlink="http://www.w3.org/1999/xlink" x="0px" y="0px"
	 width="18.898px" height="32px" viewBox="0 0 18.898 32" enable-background="new 0 0 18.898 32" xml:space="preserve">
<g id="Fondo_1_" display="none">
	<rect id="Fondo" x="-480.511" y="-827.445" display="inline" fill="#FB6E92" width="1000" height="2438.351"/>
</g>
<g id="Guias">
</g>
<g id="Icons">
	<g display="none" opacity="0.2">
		<path display="inline" fill="#FFFFFF" d="M-70.502,649.074c-11.282,3.637-35.885,28.281-38.51,36.154
			c-2.621,7.85,12.065,36.154,18.865,37.705c6.793,1.59,56.584-20.436,58.153-28.285C-30.422,686.777-59.22,645.396-70.502,649.074z
			"/>
		<path display="inline" fill="#FFFFFF" d="M32.467,568.918c-10.497,0.492-88.546,59.725-88.033,69.145
			c0.519,9.424,29.359,46.629,37.729,47.951c8.363,1.301,70.221-78.34,72.308-88.814C56.555,586.703,42.938,568.379,32.467,568.918z
			"/>
		<path display="inline" fill="#FFFFFF" d="M347.401,282.473c-10.932-15.145-35.498-16.26-56.115-3.016
			c-7.87-4.01-17.022-7.232-27.767-9.215c0,0-391.394,317.516-477.854,378.832c0,0-3.302,7.004-8.775,18.408
			c98.108,68.715,86.957,120.568,86.957,120.568c-27.149-66.916-95.886-102.037-95.905-102.037
			c-24.626,50.699-68.835,139.307-92.309,172.113c0,0-0.04,18.016,22.025,29.48c0,0,150.072-101.023,193.329-109.639
			c0,0,23.883-23.283,60.697-58.922c-20.121,10.307-43.197,20.061-52.827,20.658c-16.772,1.053-36.153-39.438-34.583-53.775
			S17.795,546.355,40.312,547.945c22.54,1.57,29.875,22.518,30.414,37.725c0.205,6.549-13.655,26.547-30.414,48.012
			c113.26-108.668,256.184-243.842,297.086-273.84c0,0,0.414-10.66-3.141-24.688C351.943,319.805,357.956,297.141,347.401,282.473z
			 M-268.003,865.068c0,0-2.542-32.477-33.638-43.816C-301.641,821.252-249.412,797.615-268.003,865.068z"/>
	</g>
	<path d="M17.902,0.642C16.648-1.202,2.121,1.379,1.236,2.706s-1.99,27.21-0.516,28.538c1.475,1.326,15.779,0.811,17.182-0.812
		S19.156,2.484,17.902,0.642z M6.195,3.148c0.316-0.351,5.836-1.309,6.093-1.032c0.258,0.276,0.258,1.161,0,1.549
		C12.031,4.052,6.57,4.734,6.195,4.476C5.819,4.218,5.878,3.499,6.195,3.148z M9.804,29.911c-1.279,0.437-2.625-0.115-3.009-1.233
		c-0.382-1.119,0.346-2.38,1.624-2.816c1.279-0.438,2.626,0.115,3.009,1.234C11.811,28.213,11.083,29.475,9.804,29.911z
		 M15.468,23.279c-0.368,0.394-12.412,1.277-12.608,0.959C2.662,23.919,2.785,6.909,3.227,6.541
		c0.441-0.369,11.822-1.377,12.24-0.959C15.886,6,15.837,22.887,15.468,23.279z"/>
</g>
</svg>
