<?xml version="1.0" encoding="utf-8"?>
<!-- Generator: Adobe Illustrator 16.0.4, SVG Export Plug-In . SVG Version: 6.00 Build 0)  -->
<!DOCTYPE svg PUBLIC "-//W3C//DTD SVG 1.1//EN" "http://www.w3.org/Graphics/SVG/1.1/DTD/svg11.dtd">
<svg version="1.1" fill="rgb(0, 14, 156)" xmlns="http://www.w3.org/2000/svg" xmlns:xlink="http://www.w3.org/1999/xlink" x="0px" y="0px"
	 width="32px" height="30.176px" viewBox="0 0 32 30.176" enable-background="new 0 0 32 30.176" xml:space="preserve">
<g id="Fondo_1_" display="none">
	<rect id="Fondo" x="-526" y="-828.357" display="inline" fill="#FB6E92" width="1000" height="2438.351"/>
</g>
<g id="Guias">
</g>
<g id="Icons">
	<g display="none" opacity="0.2">
		<path display="inline" fill="#FFFFFF" d="M-115.99,648.162c-11.282,3.637-35.885,28.281-38.51,36.153
			c-2.621,7.852,12.065,36.154,18.865,37.705c6.793,1.59,56.584-20.436,58.154-28.284
			C-75.91,685.865-104.708,644.484-115.99,648.162z"/>
		<path display="inline" fill="#FFFFFF" d="M-13.021,568.005c-10.498,0.494-88.546,59.726-88.034,69.146
			c0.519,9.423,29.36,46.629,37.729,47.951c8.363,1.301,70.221-78.341,72.307-88.814C11.066,585.792-2.55,567.466-13.021,568.005z"
			/>
		<path display="inline" fill="#FFFFFF" d="M301.913,281.561c-10.933-15.145-35.498-16.26-56.115-3.016
			c-7.87-4.009-17.022-7.233-27.767-9.215c0,0-391.393,317.515-477.854,378.832c0,0-3.302,7.003-8.776,18.407
			c98.109,68.715,86.957,120.568,86.957,120.568c-27.149-66.916-95.885-102.037-95.905-102.037
			c-24.626,50.699-68.835,139.307-92.308,172.114c0,0-0.04,18.015,22.025,29.479c0,0,150.072-101.023,193.329-109.639
			c0,0,23.883-23.283,60.697-58.922c-20.121,10.308-43.197,20.062-52.827,20.659c-16.772,1.053-36.153-39.438-34.583-53.776
			c1.57-14.338,153.521-139.574,176.038-137.984c22.539,1.57,29.875,22.519,30.414,37.726c0.205,6.548-13.655,26.546-30.414,48.012
			c113.26-108.668,256.184-243.842,297.086-273.84c0,0,0.414-10.661-3.141-24.688C306.455,318.893,312.468,296.229,301.913,281.561z
			 M-313.491,864.156c0,0-2.542-32.478-33.638-43.817C-347.129,820.339-294.9,796.703-313.491,864.156z"/>
	</g>
	<path d="M31.15,0.714C29.521-1.548,3.197,2.162,1.479,3.609c-1.718,1.447-1.99,19.54-0.543,20.444
		c0.511,0.32,4.069,0.47,8.537,0.459c-0.155,0.543-0.404,1.18-0.803,1.712c-0.788,1.053-2.333,1.576-2.397,1.811
		c-0.136,0.497,0.068,1.854,0.452,2.08c0.385,0.227,15.356-0.227,15.741-0.634c0.384-0.407,0.769-1.809,0.362-2.08
		c-0.641-0.427-3.271-0.489-4.126-3.109c5.633-0.257,10.604-0.731,11.362-1.413C31.874,21.249,32.777,2.976,31.15,0.714z
		 M17.02,21.803c-0.397,1.133-1.542,1.762-2.557,1.405c-1.014-0.357-1.512-1.563-1.114-2.695c0.398-1.133,1.543-1.762,2.557-1.405
		C16.918,19.464,17.417,20.671,17.02,21.803z M28.165,15.912c-1.356,1.267-24.606,2.441-25.33,1.81
		C2.111,17.088,2.654,7.047,3.287,6.052c0.634-0.995,24.788-3.89,25.512-2.714C29.521,4.514,29.521,14.646,28.165,15.912z"/>
</g>
</svg>
