<?xml version="1.0" encoding="utf-8"?>
<!-- Generator: Adobe Illustrator 16.0.4, SVG Export Plug-In . SVG Version: 6.00 Build 0)  -->
<!DOCTYPE svg PUBLIC "-//W3C//DTD SVG 1.1//EN" "http://www.w3.org/Graphics/SVG/1.1/DTD/svg11.dtd">
<svg version="1.1" fill="rgb(0, 14, 156)" xmlns="http://www.w3.org/2000/svg" xmlns:xlink="http://www.w3.org/1999/xlink" x="0px" y="0px"
	 width="18.744px" height="32px" viewBox="0 0 18.744 32" enable-background="new 0 0 18.744 32" xml:space="preserve">
<g id="Fondo_1_" display="none">
	<rect id="Fondo" x="-584.626" y="-827.445" display="inline" fill="#FB6E92" width="1000" height="2438.352"/>
</g>
<g id="Guias">
</g>
<g id="Icons">
	<g display="none" opacity="0.2">
		<path display="inline" fill="#FFFFFF" d="M-174.617,649.075c-11.282,3.636-35.885,28.281-38.51,36.153
			c-2.621,7.851,12.065,36.153,18.865,37.704c6.793,1.591,56.584-20.436,58.154-28.283
			C-134.537,686.778-163.335,645.396-174.617,649.075z"/>
		<path display="inline" fill="#FFFFFF" d="M-71.648,568.917c-10.498,0.494-88.546,59.726-88.034,69.146
			c0.519,9.424,29.36,46.63,37.729,47.951c8.363,1.302,70.221-78.341,72.307-88.813C-47.561,586.704-61.177,568.378-71.648,568.917z
			"/>
		<path display="inline" fill="#FFFFFF" d="M243.286,282.473c-10.932-15.145-35.498-16.26-56.115-3.016
			c-7.87-4.009-17.023-7.232-27.768-9.215c0,0-391.393,317.515-477.854,378.833c0,0-3.302,7.003-8.776,18.407
			c98.109,68.715,86.957,120.567,86.957,120.567c-27.149-66.916-95.885-102.037-95.905-102.037
			c-24.626,50.699-68.835,139.308-92.308,172.114c0,0-0.04,18.015,22.025,29.48c0,0,150.072-101.024,193.329-109.64
			c0,0,23.883-23.283,60.697-58.922c-20.121,10.308-43.197,20.062-52.827,20.659c-16.772,1.053-36.153-39.438-34.583-53.776
			c1.57-14.338,153.521-139.573,176.038-137.983c22.54,1.569,29.875,22.518,30.414,37.725c0.205,6.548-13.655,26.546-30.414,48.012
			c113.26-108.668,256.184-243.842,297.086-273.84c0,0,0.413-10.66-3.14-24.688C247.828,319.805,253.841,297.141,243.286,282.473z
			 M-372.118,865.069c0,0-2.542-32.479-33.638-43.818C-405.756,821.251-353.527,797.616-372.118,865.069z"/>
	</g>
	<g>
		<path d="M17.64,0.347C16.476-0.816,1.6,1.214,0.697,2.499c-0.902,1.284-1.111,27.147,0.486,28.745
			c0.947,0.947,15.667,1.227,16.455-0.486C18.554,28.766,19.583,2.29,17.64,0.347z M11.532,29.521
			c-3.226,1.172-6.73-0.33-7.828-3.354c-1.099-3.022,0.626-6.426,3.852-7.597c3.225-1.172,6.729,0.33,7.828,3.354
			C16.481,24.948,14.757,28.35,11.532,29.521z M15.787,15.39c-0.556,0.648-12.498,1.481-13.238,0.834
			C1.809,15.575,2.04,5.021,2.734,4.234c0.694-0.786,12.914-2.222,13.332-1.759C16.481,2.938,16.343,14.742,15.787,15.39z"/>
		<ellipse transform="matrix(-0.9233 0.3841 -0.3841 -0.9233 27.7347 43.0977)" cx="9.564" cy="24.318" rx="2.291" ry="1.921"/>
	</g>
</g>
</svg>
