<?xml version="1.0" encoding="utf-8"?>
<!-- Generator: Adobe Illustrator 16.0.4, SVG Export Plug-In . SVG Version: 6.00 Build 0)  -->
<!DOCTYPE svg PUBLIC "-//W3C//DTD SVG 1.1//EN" "http://www.w3.org/Graphics/SVG/1.1/DTD/svg11.dtd">
<svg version="1.1" fill="rgb(0, 14, 156)" xmlns="http://www.w3.org/2000/svg" xmlns:xlink="http://www.w3.org/1999/xlink" x="0px" y="0px"
	 width="32px" height="26.864px" viewBox="0 0 32 26.864" enable-background="new 0 0 32 26.864" xml:space="preserve">
<g id="Fondo_1_" display="none">
	<rect id="Fondo" x="-629.997" y="-830.013" display="inline" fill="#FB6E92" width="1000" height="2438.351"/>
</g>
<g id="Guias">
</g>
<g id="Icons">
	<g display="none" opacity="0.2">
		<path display="inline" fill="#FFFFFF" d="M-219.987,646.508c-11.282,3.635-35.885,28.281-38.51,36.152
			c-2.621,7.852,12.065,36.154,18.865,37.705c6.793,1.59,56.584-20.436,58.154-28.283
			C-179.907,684.211-208.705,642.829-219.987,646.508z"/>
		<path display="inline" fill="#FFFFFF" d="M-117.019,566.35c-10.498,0.494-88.546,59.727-88.034,69.146
			c0.519,9.422,29.36,46.629,37.729,47.951c8.363,1.301,70.221-78.342,72.307-88.814
			C-92.931,584.137-106.547,565.811-117.019,566.35z"/>
		<path display="inline" fill="#FFFFFF" d="M197.916,279.905c-10.932-15.145-35.498-16.26-56.115-3.016
			c-7.869-4.01-17.023-7.232-27.767-9.215c0,0-391.393,317.516-477.854,378.832c0,0-3.302,7.004-8.776,18.408
			c98.109,68.715,86.957,120.568,86.957,120.568c-27.149-66.916-95.885-102.037-95.905-102.037
			c-24.626,50.697-68.835,139.307-92.308,172.113c0,0-0.04,18.016,22.025,29.48c0,0,150.072-101.025,193.329-109.639
			c0,0,23.883-23.283,60.697-58.922c-20.121,10.307-43.197,20.061-52.827,20.658c-16.772,1.053-36.153-39.438-34.583-53.775
			c1.57-14.338,153.521-139.574,176.038-137.984c22.54,1.57,29.875,22.518,30.414,37.725c0.205,6.549-13.655,26.547-30.414,48.012
			c113.26-108.668,256.185-243.842,297.086-273.84c0,0,0.414-10.661-3.14-24.688C202.458,317.237,208.471,294.573,197.916,279.905z
			 M-417.488,862.502c0,0-2.542-32.479-33.638-43.818C-451.126,818.684-398.897,795.049-417.488,862.502z"/>
	</g>
	<g>
		<path d="M30.34,6.909c-0.885-0.969-4.643-1.617-9.171-1.911c-0.438-1.817-1.106-4.265-1.635-4.712
			C18.678-0.439,9.673,0.359,8.961,1.101C8.438,1.646,7.49,4.028,7.025,5.251c-2.842,0.342-4.947,0.891-5.5,1.658
			c-2.092,2.904-1.976,18.009,0,19.054C3.5,27.01,28.364,27.475,30.34,25.499C32.314,23.524,32.779,9.582,30.34,6.909z
			 M20.011,22.268c-3.785,1.714-8.123,0.295-9.691-3.168c-1.567-3.465,0.23-7.659,4.016-9.372c3.785-1.714,8.124-0.295,9.691,3.168
			C25.594,16.359,23.796,20.555,20.011,22.268z"/>
		<ellipse transform="matrix(-0.8454 0.5342 -0.5342 -0.8454 40.2371 20.3461)" cx="17.174" cy="15.997" rx="4.437" ry="4.059"/>
	</g>
</g>
</svg>
