<?xml version="1.0" encoding="utf-8"?>
<!-- Generator: Adobe Illustrator 16.0.4, SVG Export Plug-In . SVG Version: 6.00 Build 0)  -->
<!DOCTYPE svg PUBLIC "-//W3C//DTD SVG 1.1//EN" "http://www.w3.org/Graphics/SVG/1.1/DTD/svg11.dtd">
<svg version="1.1" fill="rgb(0, 14, 156)" xmlns="http://www.w3.org/2000/svg" xmlns:xlink="http://www.w3.org/1999/xlink" x="0px" y="0px"
	 width="28.68px" height="32px" viewBox="0 0 28.68 32" enable-background="new 0 0 28.68 32" xml:space="preserve">
<g id="Fondo_1_" display="none">
	<rect id="Fondo" x="-683.442" y="-827.493" display="inline" fill="#FB6E92" width="999.999" height="2438.352"/>
</g>
<g id="Guias">
</g>
<g id="Icons">
	<g display="none" opacity="0.2">
		<path display="inline" fill="#FFFFFF" d="M-273.433,649.027c-11.282,3.636-35.885,28.28-38.51,36.152
			c-2.621,7.852,12.064,36.154,18.864,37.705c6.793,1.59,56.584-20.436,58.154-28.284
			C-233.353,686.73-262.15,645.349-273.433,649.027z"/>
		<path display="inline" fill="#FFFFFF" d="M-170.464,568.869c-10.498,0.494-88.546,59.726-88.034,69.146
			c0.52,9.423,29.36,46.63,37.729,47.951c8.363,1.301,70.221-78.341,72.307-88.813C-146.376,586.656-159.992,568.33-170.464,568.869
			z"/>
		<path display="inline" fill="#FFFFFF" d="M144.471,282.425c-10.933-15.146-35.498-16.26-56.115-3.016
			c-7.87-4.009-17.023-7.233-27.768-9.216c0,0-391.393,317.516-477.854,378.834c0,0-3.302,7.003-8.776,18.406
			c98.109,68.715,86.957,120.568,86.957,120.568c-27.148-66.916-95.885-102.037-95.905-102.037
			c-24.626,50.699-68.835,139.307-92.308,172.114c0,0-0.04,18.015,22.025,29.479c0,0,150.071-101.023,193.329-109.639
			c0,0,23.883-23.283,60.696-58.922c-20.121,10.308-43.196,20.062-52.827,20.659c-16.771,1.053-36.152-39.438-34.583-53.776
			c1.57-14.338,153.521-139.574,176.038-137.984c22.54,1.57,29.875,22.519,30.414,37.726c0.205,6.548-13.654,26.546-30.414,48.012
			c113.261-108.668,256.184-243.842,297.086-273.84c0,0,0.414-10.661-3.14-24.688C149.013,319.757,155.025,297.093,144.471,282.425z
			 M-470.934,865.021c0,0-2.542-32.479-33.639-43.818C-504.572,821.203-452.343,797.568-470.934,865.021z"/>
	</g>
	<g>
		<path d="M21.318,24.498c0.534-0.406,0.839-6.434,0-6.738c-0.84-0.306-2.136,0-2.747,0.61c-0.609,0.61-0.229,5.618,0,6.128
			C18.801,25.007,20.785,24.904,21.318,24.498z"/>
		<path d="M9.472,24.911c0.52-0.397,0.816-6.267,0-6.562c-0.818-0.3-2.081-0.002-2.676,0.594c-0.595,0.595-0.223,5.473,0,5.969
			C7.019,25.406,8.951,25.307,9.472,24.911z"/>
		<path d="M22.332,22.961c-0.134,0.96-0.297,2.473-0.514,2.639c-0.76,0.578-3.581,0.725-3.905,0
			c-0.099-0.218-0.19-1.664-0.284-2.541l-6.996,0.178c-0.132,1.242-0.321,2.933-0.583,3.131c-0.759,0.578-3.578,0.724-3.904,0
			c-0.118-0.264-0.266-2.186-0.361-3.33l-4.236,0.328c-0.349,2.769-0.149,7.648,0.758,8.179c1.303,0.761,22.454,0.543,23.541-0.435
			c0.718-0.646,0.847-5.127,0.613-7.989L22.332,22.961z"/>
		<path d="M27.905,6.491c-0.323-0.389-2.804-0.372-6.145-0.11c0.494-1.787,1.28-5.119,0.522-5.816
			C20.29-1.266,7.242,1.866,6.551,2.721C6.006,3.395,6.061,7.007,6.11,8.499c-2.981,0.591-5.111,1.194-5.324,1.68
			c-0.76,1.736-1.301,10.631,0,11.715c0.122,0.103,0.45,0.188,0.944,0.258l3.984-0.086c-0.096-1.797-0.036-3.726,0.431-4.19
			c0.869-0.868,2.713-1.302,3.904-0.868c0.681,0.247,0.831,2.74,0.696,4.951l3.353-0.072l3.416-0.072
			c-0.135-1.926-0.112-4.193,0.398-4.705c0.867-0.867,2.711-1.302,3.905-0.867c0.73,0.267,0.85,3.146,0.657,5.466l3.841-0.083
			c0.887-0.119,1.457-0.247,1.589-0.38C28.882,20.268,28.99,7.793,27.905,6.491z M8.724,8.022c-0.001-0.969,0.051-2.53,0.38-3.024
			c0.487-0.731,9.662-2.399,10.251-1.871c0.502,0.452,0.332,1.806-0.063,3.477C15.903,6.943,12.043,7.458,8.724,8.022z"/>
	</g>
</g>
</svg>
