<?xml version="1.0" encoding="utf-8"?>
<!-- Generator: Adobe Illustrator 16.0.4, SVG Export Plug-In . SVG Version: 6.00 Build 0)  -->
<!DOCTYPE svg PUBLIC "-//W3C//DTD SVG 1.1//EN" "http://www.w3.org/Graphics/SVG/1.1/DTD/svg11.dtd">
<svg version="1.1" fill="rgb(0, 14, 156)" xmlns="http://www.w3.org/2000/svg" xmlns:xlink="http://www.w3.org/1999/xlink" x="0px" y="0px"
	 width="23.797px" height="32.047px" viewBox="0 0 23.797 32.047" enable-background="new 0 0 23.797 32.047" xml:space="preserve">
<g id="Fondo_1_" display="none">
	<rect id="Fondo" x="-737.583" y="-827.445" display="inline" fill="#FB6E92" width="1000" height="2438.352"/>
</g>
<g id="Guias">
</g>
<g id="Icons">
	<g display="none" opacity="0.2">
		<path display="inline" fill="#FFFFFF" d="M-327.574,649.075c-11.282,3.636-35.885,28.281-38.51,36.153
			c-2.621,7.851,12.065,36.153,18.865,37.704c6.793,1.591,56.584-20.436,58.154-28.283
			C-287.494,686.778-316.292,645.396-327.574,649.075z"/>
		<path display="inline" fill="#FFFFFF" d="M-224.605,568.917c-10.498,0.494-88.546,59.726-88.034,69.146
			c0.519,9.424,29.36,46.63,37.729,47.951c8.363,1.302,70.221-78.341,72.307-88.813
			C-200.518,586.704-214.134,568.378-224.605,568.917z"/>
		<path display="inline" fill="#FFFFFF" d="M90.329,282.473c-10.932-15.145-35.498-16.26-56.115-3.016
			c-7.869-4.009-17.022-7.232-27.767-9.215c0,0-391.393,317.515-477.854,378.833c0,0-3.302,7.003-8.776,18.407
			c98.109,68.715,86.957,120.567,86.957,120.567c-27.149-66.916-95.885-102.037-95.905-102.037
			c-24.626,50.699-68.835,139.308-92.308,172.114c0,0-0.04,18.015,22.025,29.48c0,0,150.072-101.024,193.329-109.64
			c0,0,23.883-23.283,60.697-58.922c-20.121,10.308-43.197,20.062-52.827,20.659c-16.772,1.053-36.153-39.438-34.583-53.776
			c1.57-14.338,153.521-139.573,176.038-137.983c22.54,1.569,29.875,22.518,30.414,37.725c0.205,6.548-13.655,26.546-30.414,48.012
			C-103.5,525.014,39.424,389.84,80.327,359.842c0,0,0.414-10.66-3.141-24.688C94.872,319.805,100.883,297.141,90.329,282.473z
			 M-525.075,865.069c0,0-2.542-32.479-33.638-43.818C-558.713,821.251-506.484,797.616-525.075,865.069z"/>
	</g>
	<g>
		<path d="M4.987,13.547c-0.041-0.014-0.073-0.026-0.084-0.041c-0.305-0.379-0.454-2.122-0.078-2.611
			c0.377-0.489,11.782-2.019,12.179-1.438c0.33,0.482,0.387,2.683,0.168,3.639c3.025-0.078,5.44-0.123,6.291-0.139
			C23.157,6.548,22.68,0.824,22.202,0.346C21.094-0.761,1.845,1.027,0.737,2.305C0.265,2.85,0.041,8.056,0.005,13.922
			C1.238,13.78,2.987,13.655,4.987,13.547z"/>
		<path d="M23.793,24.273c-0.021-3.092-0.127-6.813-0.287-10.394C19.272,13.795,4.379,14.845,0,15.162
			c-0.005,2.959,0.036,6.012,0.115,8.664c1.177-0.059,2.795-0.078,4.643-0.07c-0.195-0.643-0.242-1.891,0.067-2.293
			c0.377-0.488,11.782-2.02,12.179-1.438c0.388,0.562,0.396,3.475,0.033,4C19.991,24.122,22.493,24.221,23.793,24.273z"/>
		<path d="M0.155,25.064c0.128,3.516,0.329,6.092,0.582,6.369c0.23,0.254,4.179,0.496,4.166,0.479
			c-0.305-0.379-0.454-2.121-0.078-2.61c0.377-0.488,11.782-2.019,12.179-1.438c0.398,0.58,0.225,3.787-0.174,4.173
			c-0.031,0.03,6.142,0.002,6.562-0.604c0.207-0.298,0.408-2.734,0.404-6.25C18.814,24.895,4.694,25.018,0.155,25.064z"/>
	</g>
</g>
</svg>
