<?xml version="1.0" encoding="utf-8"?>
<!-- Generator: Adobe Illustrator 16.0.4, SVG Export Plug-In . SVG Version: 6.00 Build 0)  -->
<!DOCTYPE svg PUBLIC "-//W3C//DTD SVG 1.1//EN" "http://www.w3.org/Graphics/SVG/1.1/DTD/svg11.dtd">
<svg version="1.1" fill="rgb(0, 14, 156)" xmlns="http://www.w3.org/2000/svg" xmlns:xlink="http://www.w3.org/1999/xlink" x="0px" y="0px"
	 width="27.445px" height="32px" viewBox="0 0 27.445 32" enable-background="new 0 0 27.445 32" xml:space="preserve">
<g id="Fondo_1_" display="none">
	<rect id="Fondo" x="-788.609" y="-827.493" display="inline" fill="#FB6E92" width="1000" height="2438.352"/>
</g>
<g id="Guias">
</g>
<g id="Icons">
	<g display="none" opacity="0.2">
		<path display="inline" fill="#FFFFFF" d="M-378.6,649.027c-11.281,3.636-35.885,28.28-38.51,36.152
			c-2.621,7.852,12.065,36.154,18.865,37.705c6.793,1.59,56.584-20.436,58.154-28.284C-338.52,686.73-367.317,645.349-378.6,649.027
			z"/>
		<path display="inline" fill="#FFFFFF" d="M-275.631,568.869c-10.498,0.494-88.546,59.726-88.034,69.146
			c0.519,9.423,29.359,46.63,37.729,47.951c8.363,1.301,70.222-78.341,72.308-88.813
			C-251.543,586.656-265.159,568.33-275.631,568.869z"/>
		<path display="inline" fill="#FFFFFF" d="M39.304,282.425c-10.932-15.146-35.498-16.26-56.115-3.016
			c-7.87-4.009-17.022-7.233-27.767-9.216c0,0-391.394,317.516-477.854,378.834c0,0-3.302,7.003-8.775,18.406
			c98.108,68.715,86.957,120.568,86.957,120.568c-27.149-66.916-95.885-102.037-95.905-102.037
			c-24.626,50.699-68.835,139.307-92.308,172.114c0,0-0.04,18.015,22.024,29.479c0,0,150.072-101.023,193.329-109.639
			c0,0,23.883-23.283,60.697-58.922c-20.121,10.308-43.197,20.062-52.827,20.659c-16.771,1.053-36.153-39.438-34.583-53.776
			c1.57-14.338,153.521-139.574,176.038-137.984c22.54,1.57,29.875,22.519,30.414,37.726c0.205,6.548-13.655,26.546-30.414,48.012
			c113.26-108.668,256.183-243.842,297.086-273.84c0,0,0.414-10.661-3.14-24.688C43.846,319.757,49.858,297.093,39.304,282.425z
			 M-576.101,865.021c0,0-2.542-32.479-33.638-43.818C-609.738,821.203-557.51,797.568-576.101,865.021z"/>
	</g>
	<path d="M16.054,2.583C16.027,0.984,16.001,0,16.001,0l-1.695,0.212c0,0,0.076,0.697,0.111,2.475C6.837,4.034,0,16.955,0,16.955
		c8.105-6.04,8.584,2.967,8.584,2.967c1.55-3.66,3.721-5.12,5.569-5.219c-0.033,0.718-0.07,1.468-0.112,2.252
		c-0.689,12.875-3.763,11.339-3.763,11.339c-2.489-0.371-2.648-4.451-2.648-4.451H5.723c0,0,0.171,4.011,1.695,6.095
		c2.597,3.549,6.093,2.437,7.63-2.703c0.627-2.098,0.9-7.018,1.006-12.106c0.34,0.187,0.646,0.428,0.901,0.716
		c1.436,1.613,1.59,4.079,1.59,4.079c2.755-9.537,8.9-2.226,8.9-2.226C24.145,6.681,20.057,2.81,16.054,2.583z"/>
</g>
</svg>
