<?xml version="1.0" encoding="utf-8"?>
<!-- Generator: Adobe Illustrator 16.0.4, SVG Export Plug-In . SVG Version: 6.00 Build 0)  -->
<!DOCTYPE svg PUBLIC "-//W3C//DTD SVG 1.1//EN" "http://www.w3.org/Graphics/SVG/1.1/DTD/svg11.dtd">
<svg version="1.1" fill="rgb(0, 14, 156)" xmlns="http://www.w3.org/2000/svg" xmlns:xlink="http://www.w3.org/1999/xlink" x="0px" y="0px"
	 width="25.246px" height="32px" viewBox="0 0 25.246 32" enable-background="new 0 0 25.246 32" xml:space="preserve">
<g id="Fondo_1_" display="none">
	<rect id="Fondo" x="-841.346" y="-827.523" display="inline" fill="#FB6E92" width="1000" height="2438.351"/>
</g>
<g id="Guias">
</g>
<g id="Icons">
	<g display="none" opacity="0.2">
		<path display="inline" fill="#FFFFFF" d="M-431.337,648.998c-11.282,3.635-35.885,28.281-38.51,36.152
			c-2.621,7.852,12.065,36.154,18.865,37.705c6.793,1.59,56.584-20.436,58.154-28.283
			C-391.257,686.701-420.055,645.318-431.337,648.998z"/>
		<path display="inline" fill="#FFFFFF" d="M-328.368,568.839c-10.498,0.494-88.546,59.727-88.034,69.146
			c0.519,9.422,29.36,46.629,37.729,47.949c8.363,1.303,70.221-78.34,72.307-88.812C-304.28,586.626-317.896,568.3-328.368,568.839z
			"/>
		<path display="inline" fill="#FFFFFF" d="M-13.434,282.395c-10.932-15.146-35.498-16.261-56.115-3.017
			c-7.87-4.008-17.023-7.232-27.767-9.215c0,0-391.393,317.516-477.854,378.834c0,0-3.302,7.002-8.776,18.406
			c98.109,68.715,86.957,120.568,86.957,120.568c-27.149-66.916-95.885-102.037-95.905-102.037
			c-24.626,50.699-68.835,139.307-92.308,172.113c0,0-0.04,18.016,22.025,29.48c0,0,150.072-101.023,193.329-109.639
			c0,0,23.883-23.283,60.697-58.922c-20.121,10.309-43.197,20.062-52.827,20.658c-16.772,1.053-36.153-39.436-34.583-53.775
			c1.57-14.338,153.521-139.574,176.038-137.984c22.54,1.57,29.875,22.518,30.414,37.725c0.205,6.549-13.655,26.547-30.414,48.012
			c113.26-108.668,256.184-243.841,297.086-273.839c0,0,0.414-10.661-3.14-24.688C-8.892,319.727-2.879,297.062-13.434,282.395z
			 M-628.838,864.992c0,0-2.542-32.479-33.638-43.818C-662.476,821.173-610.247,797.539-628.838,864.992z"/>
	</g>
	<g>
		<path d="M24.752,3.076C24.296,2.43,20.25,2.283,15.58,2.424c0.092-0.661,0.243-2.061-0.051-2.333
			c-0.389-0.36-5.514,0.436-5.812,0.908C9.52,1.317,9.589,2.192,9.655,2.733c-4.782,0.351-8.934,0.91-9.284,1.455
			c-0.834,1.298,0,3.894,0,3.894s6.984-0.495,11.774-0.464c4.789,0.031,12.606,0.464,12.606,0.464S25.864,4.652,24.752,3.076z"/>
		<path d="M22.744,10.06c-0.495-0.556-19.405-0.494-19.9,0c-0.446,0.446-0.59,16.514,0.021,20.258c0,0,0.037,1.002,0.586,1.471
			C4,32.255,22.803,31.91,23.201,31.164c0.142-0.264,0.229-0.535,0.291-0.789c0.031-0.062,0.057-0.195,0.076-0.393
			c0.054-0.361,0.045-0.621,0.045-0.621C23.805,25.257,23.178,10.549,22.744,10.06z M4.92,30.425
			c-0.066-4.072-0.229-15.387,0.024-15.792c0.31-0.494,2.658-0.371,2.968,0c0.243,0.293,0.449,11.279,0.524,15.871
			C7.045,30.494,5.846,30.46,4.92,30.425z M11.454,30.496c-0.1-4.01-0.354-15.456,0.036-15.863c0.474-0.494,3.162-0.371,3.636,0
			c0.367,0.289,0.679,10.938,0.799,15.65C14.023,30.412,13.107,30.475,11.454,30.496z M18.271,30.091
			c-0.069-4.325-0.217-15.063,0.03-15.458c0.31-0.494,2.657-0.371,2.968,0c0.229,0.276,0.426,10.068,0.51,15.031
			C20.611,29.837,19.438,29.978,18.271,30.091z"/>
	</g>
</g>
</svg>
