<?xml version="1.0" encoding="utf-8"?>
<!-- Generator: Adobe Illustrator 16.0.4, SVG Export Plug-In . SVG Version: 6.00 Build 0)  -->
<!DOCTYPE svg PUBLIC "-//W3C//DTD SVG 1.1//EN" "http://www.w3.org/Graphics/SVG/1.1/DTD/svg11.dtd">
<svg version="1.1" fill="rgb(0, 14, 156)" xmlns="http://www.w3.org/2000/svg" xmlns:xlink="http://www.w3.org/1999/xlink" x="0px" y="0px"
	 width="32px" height="31.812px" viewBox="0 0 32 31.812" enable-background="new 0 0 32 31.812" xml:space="preserve">
<g id="Fondo_1_" display="none">
	<rect id="Fondo" x="-109.966" y="-891.58" display="inline" fill="#FB6E92" width="1000" height="2438.352"/>
</g>
<g id="Guias">
</g>
<g id="Icons">
	<g display="none" opacity="0.2">
		<path display="inline" fill="#FFFFFF" d="M300.043,584.94c-11.282,3.636-35.885,28.28-38.51,36.152
			c-2.621,7.852,12.064,36.154,18.865,37.705c6.793,1.59,56.584-20.436,58.153-28.284
			C340.123,622.643,311.325,581.261,300.043,584.94z"/>
		<path display="inline" fill="#FFFFFF" d="M403.012,504.782c-10.498,0.494-88.546,59.726-88.034,69.146
			c0.52,9.423,29.36,46.629,37.729,47.951c8.363,1.301,70.221-78.341,72.307-88.813C427.1,522.569,413.483,504.243,403.012,504.782z
			"/>
		<path display="inline" fill="#FFFFFF" d="M717.946,218.338c-10.933-15.145-35.498-16.26-56.115-3.016
			c-7.87-4.009-17.023-7.233-27.767-9.215c0,0-391.394,317.515-477.854,378.833c0,0-3.302,7.003-8.776,18.406
			c98.109,68.716,86.957,120.568,86.957,120.568C207.243,657,138.507,621.879,138.486,621.879
			c-24.625,50.699-68.834,139.307-92.307,172.114c0,0-0.041,18.015,22.024,29.479c0,0,150.071-101.023,193.329-109.639
			c0,0,23.883-23.283,60.697-58.922c-20.121,10.308-43.197,20.062-52.828,20.659c-16.771,1.053-36.152-39.438-34.582-53.776
			c1.57-14.338,153.521-139.574,176.038-137.984c22.54,1.57,29.875,22.519,30.413,37.726c0.205,6.548-13.654,26.546-30.413,48.012
			C524.116,460.879,667.04,325.705,707.942,295.707c0,0,0.414-10.661-3.141-24.688C722.488,255.67,728.501,233.006,717.946,218.338z
			 M102.542,800.934c0,0-2.542-32.478-33.638-43.817C68.904,757.116,121.133,733.481,102.542,800.934z"/>
	</g>
	<g>
		<path d="M10.833,19.647C8.701,8.559,6.227,5.061,6.227,5.061S2.559,6.255,0,7.62c0,0,0.085,1.279,0.853,1.962
			c0,0,2.085-0.854,4.52-1.424C7.609,14.44,8.53,23.315,8.53,23.315c15.867-1.876,21.07,0,21.07,0l0.938-3.668
			C20.217,17.941,10.833,19.647,10.833,19.647z"/>
		<ellipse transform="matrix(-0.8957 0.4446 -0.4446 -0.8957 35.0292 49.0666)" cx="11.761" cy="28.641" rx="3.54" ry="3.045"/>
		<ellipse transform="matrix(-0.8957 0.4447 -0.4447 -0.8957 60.4981 43.4139)" cx="25.157" cy="28.802" rx="3.54" ry="2.861"/>
		<path d="M12.795,17.003c0.597,0.428,6.227-0.17,7.08-0.682c0.854-0.513,0.854-6.825,0-7.593c-0.854-0.769-8.53,0.171-9.127,0.854
			C10.151,10.265,12.198,16.577,12.795,17.003z"/>
		<path d="M30.156,8.717c-0.577-0.452-6.229-0.109-7.104,0.362s-1.159,6.778-0.343,7.584s8.529,0.215,9.157-0.438
			C32.494,15.568,30.734,9.17,30.156,8.717z"/>
		<path d="M13.904,6.682c0.768,0.341,12.796,0.768,13.208,0c0.414-0.769,0.697-5.545,0-6.483c-0.695-0.938-13.292,1.706-14.146,2.56
			C12.113,3.61,13.137,6.34,13.904,6.682z"/>
	</g>
</g>
</svg>
