<?xml version="1.0" encoding="utf-8"?>
<!-- Generator: Adobe Illustrator 16.0.4, SVG Export Plug-In . SVG Version: 6.00 Build 0)  -->
<!DOCTYPE svg PUBLIC "-//W3C//DTD SVG 1.1//EN" "http://www.w3.org/Graphics/SVG/1.1/DTD/svg11.dtd">
<svg version="1.1" fill="rgb(0, 14, 156)" xmlns="http://www.w3.org/2000/svg" xmlns:xlink="http://www.w3.org/1999/xlink" x="0px" y="0px"
	 width="29.21px" height="32.244px" viewBox="0 0 29.21 32.244" enable-background="new 0 0 29.21 32.244" xml:space="preserve">
<g id="Fondo_1_" display="none">
	<rect id="Fondo" x="-215.109" y="-891.401" display="inline" fill="#FB6E92" width="999.999" height="2438.351"/>
</g>
<g id="Guias">
</g>
<g id="Icons">
	<g display="none" opacity="0.2">
		<path display="inline" fill="#FFFFFF" d="M194.9,585.119c-11.281,3.636-35.885,28.281-38.51,36.153
			c-2.621,7.851,12.064,36.153,18.865,37.704c6.793,1.591,56.584-20.436,58.154-28.283C234.98,622.822,206.183,581.44,194.9,585.119
			z"/>
		<path display="inline" fill="#FFFFFF" d="M297.869,504.961c-10.498,0.494-88.545,59.727-88.033,69.146
			c0.519,9.423,29.359,46.629,37.729,47.95c8.363,1.302,70.221-78.341,72.307-88.813
			C321.957,522.748,308.341,504.422,297.869,504.961z"/>
		<path display="inline" fill="#FFFFFF" d="M612.804,218.517c-10.932-15.145-35.498-16.26-56.115-3.016
			c-7.869-4.009-17.023-7.232-27.768-9.215c0,0-391.393,317.515-477.854,378.833c0,0-3.302,7.003-8.775,18.407
			c98.108,68.715,86.957,120.567,86.957,120.567C102.1,657.179,33.365,622.058,33.343,622.058
			C8.718,672.757-35.491,761.364-58.964,794.172c0,0-0.04,18.016,22.025,29.48c0,0,150.071-101.024,193.329-109.64
			c0,0,23.883-23.282,60.697-58.922c-20.121,10.309-43.197,20.062-52.828,20.659c-16.771,1.053-36.152-39.438-34.582-53.776
			c1.57-14.338,153.521-139.573,176.037-137.983c22.541,1.569,29.875,22.518,30.414,37.725c0.205,6.548-13.654,26.546-30.414,48.012
			c113.258-108.669,256.182-243.843,297.084-273.841c0,0,0.414-10.66-3.139-24.688C617.345,255.849,623.359,233.185,612.804,218.517
			z M-2.601,801.113c0,0-2.542-32.479-33.638-43.818C-36.238,757.295,15.99,733.66-2.601,801.113z"/>
	</g>
	<path display="none" opacity="0.5" fill="#71C8EA" enable-background="new    " d="M1565.947,534.776l3.332,3.333
		c0,0,17-13.666,32.5-11.833c0,0,21-27.999,50-37.833c0,0,17.668-9.834,7.168-30.667s-24.328-12.938-31.168-8
		c-9.582,6.916-39.771,40.321-51.5,56.333C1576.279,506.109,1579.779,522.443,1565.947,534.776z"/>
	<g>
		<path d="M28.858,5c-0.125-0.126-1.812,0.058-4.306,0.422c-0.156-1.221-0.684-5.247-0.881-5.401
			c-0.233-0.182-4.851,0.907-5.073,1.244c-0.187,0.284-0.13,3.947-0.106,5.119c-3.004,0.507-6.258,1.091-9.178,1.653
			C9.159,7.173,8.596,4.105,8.401,3.95c-0.226-0.183-3.3,0.998-3.411,1.361c-0.085,0.28-0.069,2.567-0.055,3.608
			c-2.66,0.566-4.502,1.035-4.709,1.269c-0.245,0.275-0.272,2.271-0.168,4.948l29.102-4.769C29.104,7.323,29.007,5.147,28.858,5z"/>
		<path d="M29.188,12.498L1.289,15.874l0,0l-1.193,0.145c0.015,0.312,0.031,0.63,0.048,0.955l0.005,0.106l0,0
			c0.345,6.323,1.208,14.731,1.736,14.997c0.83,0.414,26.559,0,26.973-0.622C29.128,31.049,29.267,20.179,29.188,12.498z
			 M27.125,29.812c-0.514,0.371-23.411,0.865-23.76,0.592c-0.35-0.271-1.128-6.969-1.378-12.842l25.456-3.104
			C27.462,21.541,27.457,29.569,27.125,29.812z"/>
		<path d="M13.868,18.731c-2.529-3.812-6.225,0.195-7.431,4.437l1.751,1.983c0,0,1.984-5.096,3.54-1.983c0,0,1.4,1.75-2.256,4.513
			l0.545,1.984l6.263-1.051V25.19l-3.423,1.246C12.856,26.437,16.396,22.546,13.868,18.731z"/>
		<polygon points="15.58,21.456 17.173,23.435 19.003,20.989 18.38,28.537 22,28.537 22,16.671 20.091,16.088 		"/>
	</g>
</g>
</svg>
