<?xml version="1.0" encoding="utf-8"?>
<!-- Generator: Adobe Illustrator 16.0.4, SVG Export Plug-In . SVG Version: 6.00 Build 0)  -->
<!DOCTYPE svg PUBLIC "-//W3C//DTD SVG 1.1//EN" "http://www.w3.org/Graphics/SVG/1.1/DTD/svg11.dtd">
<svg version="1.1" fill="rgb(0, 14, 156)" xmlns="http://www.w3.org/2000/svg" xmlns:xlink="http://www.w3.org/1999/xlink" x="0px" y="0px"
	 width="21.938px" height="32px" viewBox="0 0 21.938 32" enable-background="new 0 0 21.938 32" xml:space="preserve">
<g id="Fondo_1_" display="none">
	<rect id="Fondo" x="-270.868" y="-891.485" display="inline" fill="#FB6E92" width="1000" height="2438.351"/>
</g>
<g id="Guias">
</g>
<g id="Icons">
	<g display="none" opacity="0.2">
		<path display="inline" fill="#FFFFFF" d="M139.142,585.035c-11.282,3.636-35.885,28.281-38.51,36.152
			c-2.621,7.852,12.064,36.154,18.865,37.705c6.793,1.591,56.584-20.436,58.153-28.283
			C179.222,622.738,150.424,581.356,139.142,585.035z"/>
		<path display="inline" fill="#FFFFFF" d="M242.11,504.877c-10.498,0.494-88.546,59.727-88.033,69.146
			c0.519,9.423,29.359,46.629,37.729,47.95c8.363,1.302,70.221-78.341,72.307-88.813
			C266.198,522.664,252.582,504.338,242.11,504.877z"/>
		<path display="inline" fill="#FFFFFF" d="M557.045,218.434c-10.932-15.146-35.498-16.261-56.115-3.017
			c-7.87-4.009-17.022-7.233-27.767-9.215c0,0-391.394,317.515-477.854,378.833c0,0-3.302,7.003-8.775,18.407
			C84.643,672.157,73.49,724.011,73.49,724.011c-27.149-66.916-95.886-102.037-95.905-102.037
			c-24.626,50.699-68.835,139.308-92.309,172.114c0,0-0.04,18.016,22.025,29.48c0,0,150.072-101.024,193.329-109.64
			c0,0,23.883-23.282,60.697-58.922c-20.121,10.309-43.197,20.062-52.827,20.659C91.73,676.72,72.35,636.23,73.92,621.891
			c1.57-14.338,153.521-139.573,176.038-137.983c22.54,1.569,29.875,22.518,30.414,37.725c0.205,6.548-13.655,26.546-30.414,48.012
			C363.216,460.974,506.14,325.8,547.042,295.802c0,0,0.414-10.661-3.14-24.688C561.587,255.766,567.6,233.102,557.045,218.434z
			 M-58.359,801.029c0,0-2.542-32.479-33.638-43.818C-91.997,757.211-39.769,733.576-58.359,801.029z"/>
	</g>
	<path d="M21.506,18.657c0.035-4.618,0.538-9.083,0.411-9.35C21.682,8.81,20.66,8.6,20.66,8.6c1.57-1.885,0.472-3.771,0.472-3.771
		c-1.808-2.593-3.457,0.078-3.457,0.078c0.864-4.635-2.907-4.871-2.907-4.871c-3.554-0.507-3.76,4.272-3.77,5.009
		C10.99,4.52,10.785,2.039,7.62,2.813C4.083,3.678,5.358,8.13,5.358,8.13s-1.194,1.31-0.96,1.885c0.235,0.576,0.786,0.55,0.786,0.55
		c0.085,0.564,0.101,1.669,0.078,3.063c-0.003,0.001-4.242,0.734-4.767,1.52c-0.523,0.786-0.785,9.584,0,10.266
		c0.786,0.682,4.464,1.202,4.464,1.202l0,0c0.028,0.888,0.098,1.504,0.225,1.704c0.382,0.609,5.488,4.089,9.872,3.641
		c3.727-0.381,6.861-3.719,6.861-4.661C21.917,26.861,21.475,22.648,21.506,18.657z M4.948,24.359
		c-0.861-0.117-2.675-0.396-3.154-0.736c-0.638-0.451-0.425-6.271,0-6.792c0.329-0.402,2.466-0.784,3.413-0.937
		C5.122,18.646,4.981,21.872,4.948,24.359z M5.22,15.446l0.042-1.802C5.253,14.204,5.24,14.811,5.22,15.446z M9.978,29.314
		c-1.832-0.522-3.349-1.555-3.349-1.555S6.95,15.775,7.418,15.251s2.292-0.523,2.76,0C10.646,15.776,9.978,29.314,9.978,29.314z
		 M16.792,29.65c-2.26,0.691-4.838,0.173-4.838,0.173s-0.087-14.257,0.302-14.885c0.39-0.629,3.938-0.524,4.28,0
		C16.877,15.462,16.792,29.65,16.792,29.65z M18.362,29.085c0,0-0.654-13.938-0.297-14.462c0.359-0.523,1.756-0.523,2.114,0
		s0.609,12.957,0.609,12.957S19.835,28.438,18.362,29.085z"/>
</g>
</svg>
