<?xml version="1.0" encoding="utf-8"?>
<!-- Generator: Adobe Illustrator 16.0.4, SVG Export Plug-In . SVG Version: 6.00 Build 0)  -->
<!DOCTYPE svg PUBLIC "-//W3C//DTD SVG 1.1//EN" "http://www.w3.org/Graphics/SVG/1.1/DTD/svg11.dtd">
<svg version="1.1" fill="rgb(0, 14, 156)" xmlns="http://www.w3.org/2000/svg" xmlns:xlink="http://www.w3.org/1999/xlink" x="0px" y="0px"
	 width="10.758px" height="32px" viewBox="0 0 10.758 32" enable-background="new 0 0 10.758 32" xml:space="preserve">
<g id="Fondo_1_" display="none">
	<rect id="Fondo" x="-328.624" y="-891.485" display="inline" fill="#FB6E92" width="1000" height="2438.351"/>
</g>
<g id="Guias">
</g>
<g id="Icons">
	<g display="none" opacity="0.2">
		<path display="inline" fill="#FFFFFF" d="M81.387,585.035c-11.283,3.636-35.886,28.281-38.511,36.152
			c-2.621,7.852,12.065,36.154,18.865,37.705c6.793,1.591,56.584-20.436,58.153-28.283
			C121.466,622.738,92.668,581.356,81.387,585.035z"/>
		<path display="inline" fill="#FFFFFF" d="M184.354,504.877c-10.498,0.494-88.545,59.727-88.033,69.146
			c0.519,9.423,29.359,46.629,37.729,47.95c8.363,1.302,70.221-78.341,72.307-88.813
			C208.441,522.664,194.826,504.338,184.354,504.877z"/>
		<path display="inline" fill="#FFFFFF" d="M499.289,218.434c-10.932-15.146-35.498-16.261-56.115-3.017
			c-7.87-4.009-17.022-7.233-27.767-9.215c0,0-391.394,317.515-477.854,378.833c0,0-3.302,7.003-8.776,18.407
			c98.11,68.715,86.958,120.567,86.958,120.567C-11.415,657.095-80.15,621.974-80.17,621.974
			c-24.626,50.699-68.835,139.308-92.308,172.114c0,0-0.04,18.016,22.025,29.48c0,0,150.072-101.024,193.329-109.64
			c0,0,23.883-23.282,60.697-58.922c-20.121,10.309-43.197,20.062-52.827,20.659c-16.771,1.053-36.153-39.438-34.583-53.776
			c1.569-14.338,153.521-139.573,176.038-137.983c22.54,1.569,29.875,22.518,30.414,37.725c0.205,6.548-13.655,26.546-30.414,48.012
			C305.46,460.974,448.384,325.8,489.286,295.802c0,0,0.414-10.661-3.14-24.688C503.831,255.766,509.844,233.102,499.289,218.434z
			 M-116.115,801.029c0,0-2.542-32.479-33.638-43.818C-149.753,757.211-97.524,733.576-116.115,801.029z"/>
	</g>
	<g>
		<path d="M0.021,8.616c0,0-0.75,25.138,6.792,23.286c0,0,3.806-0.617,3.793-4.764c-0.012-3.715,0-19.317,0-19.317L0.021,8.616z
			 M9.547,26.411c0.01,3.11-2.846,3.575-2.846,3.575c-5.66,1.39-5.098-20.389-5.098-20.389l7.944-0.596
			C9.547,9.002,9.539,23.624,9.547,26.411z"/>
		<ellipse transform="matrix(0.9197 0.3927 -0.3927 0.9197 1.9765 -0.6326)" cx="2.535" cy="4.515" rx="1.588" ry="1.852"/>
		<ellipse transform="matrix(0.9196 0.3929 -0.3929 0.9196 1.9115 -3.0007)" cx="8.286" cy="3.169" rx="2.289" ry="3.304"/>
	</g>
	<path d="M8.771,14.333c-0.774,0.274-1.627-0.01-1.986-0.707c-0.102-0.195-0.152-0.404-0.161-0.613L2.23,13.342
		c0,0,0.303,16.752,4.197,15.729c0,0,2.353-0.381,2.345-2.942C8.768,24.355,8.77,17.409,8.771,14.333z"/>
</g>
</svg>
