<?xml version="1.0" encoding="utf-8"?>
<!-- Generator: Adobe Illustrator 16.0.4, SVG Export Plug-In . SVG Version: 6.00 Build 0)  -->
<!DOCTYPE svg PUBLIC "-//W3C//DTD SVG 1.1//EN" "http://www.w3.org/Graphics/SVG/1.1/DTD/svg11.dtd">
<svg version="1.1" fill="rgb(0, 14, 156)" xmlns="http://www.w3.org/2000/svg" xmlns:xlink="http://www.w3.org/1999/xlink" x="0px" y="0px"
	 width="32px" height="31.314px" viewBox="0 0 32 31.314" enable-background="new 0 0 32 31.314" xml:space="preserve">
<g id="Fondo_1_" display="none">
	<rect id="Fondo" x="-369.966" y="-891.865" display="inline" fill="#FB6E92" width="1000" height="2438.352"/>
</g>
<g id="Guias">
</g>
<g id="Icons">
	<g display="none" opacity="0.2">
		<path display="inline" fill="#FFFFFF" d="M40.043,584.656c-11.282,3.636-35.885,28.28-38.51,36.152
			c-2.621,7.852,12.065,36.154,18.865,37.705c6.793,1.591,56.584-20.436,58.153-28.283
			C80.124,622.359,51.326,580.977,40.043,584.656z"/>
		<path display="inline" fill="#FFFFFF" d="M143.012,504.497c-10.498,0.494-88.546,59.726-88.033,69.146
			c0.519,9.424,29.359,46.63,37.729,47.951c8.363,1.301,70.221-78.341,72.307-88.813C167.1,522.284,153.484,503.958,143.012,504.497
			z"/>
		<path display="inline" fill="#FFFFFF" d="M457.947,218.053c-10.933-15.145-35.498-16.26-56.115-3.016
			c-7.87-4.01-17.023-7.233-27.767-9.216c0,0-391.394,317.516-477.854,378.834c0,0-3.302,7.003-8.776,18.407
			c98.109,68.715,86.957,120.567,86.957,120.567c-27.149-66.916-95.885-102.037-95.905-102.037
			c-24.626,50.699-68.835,139.308-92.308,172.114c0,0-0.04,18.015,22.025,29.48c0,0,150.072-101.024,193.329-109.64
			c0,0,23.883-23.283,60.697-58.922c-20.121,10.308-43.197,20.062-52.828,20.659c-16.772,1.053-36.153-39.438-34.583-53.776
			c1.57-14.338,153.521-139.574,176.038-137.983c22.541,1.569,29.875,22.518,30.414,37.725c0.205,6.548-13.654,26.546-30.414,48.012
			c113.261-108.668,256.185-243.842,297.087-273.84c0,0,0.414-10.661-3.141-24.688C462.489,255.385,468.501,232.721,457.947,218.053
			z M-157.458,800.65c0,0-2.542-32.479-33.638-43.818C-191.095,756.831-138.867,733.197-157.458,800.65z"/>
	</g>
	<path display="none" opacity="0.5" fill="#71C8EA" enable-background="new    " d="M1411.089,534.313l3.333,3.332
		c0,0,17-13.666,32.5-11.832c0,0,21-27.999,50-37.834c0,0,17.667-9.834,7.167-30.666c-10.5-20.834-24.327-12.938-31.167-8
		c-9.583,6.915-39.771,40.321-51.5,56.332C1421.422,505.647,1424.922,521.979,1411.089,534.313z"/>
	<path d="M32,9.171c0-2.686-1.885-4.86-4.209-4.86c-1.229,0-2.325,0.619-3.094,1.59c-1.412-3.302-2.637-5.861-2.994-5.896
		c-1-0.098-6.093,2.714-6.078,3.333s1.369,1.939,1.508,3.232c0.301,2.774-1.513,4.891-3.907,5.508
		c-3.324,0.856-4.403-3.948-4.944-4.212c-0.541-0.265-7.366,3.293-7.329,4.519c0.015,0.463,1.333,3.244,3.021,6.537
		C1.761,19.062,0,21.161,0,23.753c0,2.685,1.884,4.859,4.208,4.859c1.563,0,2.912-0.996,3.638-2.459
		c1.604,2.862,2.949,5.055,3.295,5.146c0.989,0.265,6.536-3.117,6.564-3.688c0.027-0.57-1.483-1.997-1.63-3.354
		c-0.3-2.775,1.534-4.814,3.907-5.508c3.735-1.091,4.808,4.585,5.009,4.768c0.2,0.184,5.063-2.199,5.249-2.949
		c0.066-0.273-0.928-3.094-2.26-6.56C30.214,13.894,32,11.78,32,9.171z"/>
</g>
</svg>
