<?xml version="1.0" encoding="utf-8"?>
<!-- Generator: Adobe Illustrator 16.0.4, SVG Export Plug-In . SVG Version: 6.00 Build 0)  -->
<!DOCTYPE svg PUBLIC "-//W3C//DTD SVG 1.1//EN" "http://www.w3.org/Graphics/SVG/1.1/DTD/svg11.dtd">
<svg version="1.1" fill="rgb(0, 14, 156)" xmlns="http://www.w3.org/2000/svg" xmlns:xlink="http://www.w3.org/1999/xlink" x="0px" y="0px"
	 width="30.625px" height="32px" viewBox="0 0 30.625 32" enable-background="new 0 0 30.625 32" xml:space="preserve">
<g id="Fondo_1_" display="none">
	<rect id="Fondo" x="-422.653" y="-891.523" display="inline" fill="#FB6E92" width="999.999" height="2438.351"/>
</g>
<g id="Guias">
</g>
<g id="Icons">
	<g display="none" opacity="0.2">
		<path display="inline" fill="#FFFFFF" d="M-12.644,584.997c-11.282,3.636-35.885,28.281-38.51,36.153
			c-2.621,7.851,12.065,36.153,18.865,37.705c6.793,1.59,56.584-20.437,58.155-28.284C27.437,622.7-1.361,581.318-12.644,584.997z"
			/>
		<path display="inline" fill="#FFFFFF" d="M90.325,504.839c-10.498,0.494-88.546,59.727-88.034,69.146
			c0.519,9.423,29.36,46.629,37.729,47.95c8.363,1.302,70.221-78.341,72.307-88.813C114.413,522.626,100.797,504.3,90.325,504.839z"
			/>
		<path display="inline" fill="#FFFFFF" d="M405.26,218.395c-10.932-15.145-35.498-16.26-56.115-3.016
			c-7.869-4.009-17.023-7.232-27.768-9.215c0,0-391.393,317.515-477.854,378.833c0,0-3.302,7.003-8.776,18.407
			c98.109,68.715,86.957,120.567,86.957,120.567c-27.149-66.916-95.885-102.037-95.905-102.037
			c-24.626,50.699-68.835,139.308-92.308,172.114c0,0-0.04,18.016,22.025,29.48c0,0,150.072-101.024,193.329-109.64
			c0,0,23.883-23.282,60.697-58.922c-20.121,10.309-43.197,20.062-52.827,20.659c-16.772,1.053-36.153-39.437-34.583-53.776
			c1.57-14.338,153.521-139.573,176.038-137.983c22.541,1.57,29.875,22.518,30.414,37.725c0.205,6.548-13.654,26.546-30.414,48.012
			c113.259-108.669,256.182-243.843,297.084-273.84c0,0,0.414-10.662-3.139-24.688C409.801,255.727,415.815,233.062,405.26,218.395z
			 M-210.145,800.991c0,0-2.542-32.479-33.638-43.818C-243.782,757.173-191.554,733.538-210.145,800.991z"/>
	</g>
	<path display="none" opacity="0.5" fill="#71C8EA" enable-background="new    " d="M1358.403,534.654l3.332,3.333
		c0,0,17-13.666,32.5-11.833c0,0,21-27.999,50-37.833c0,0,17.668-9.834,7.168-30.667s-24.328-12.938-31.168-8
		c-9.582,6.916-39.771,40.321-51.5,56.333C1368.735,505.987,1372.235,522.321,1358.403,534.654z"/>
	<g>
		<path d="M30.624,13.067c-0.14-1.637-6.933-2.077-6.933-2.077s1.552-5.736,0.476-6.45c-1.074-0.714-5.322,2.584-5.322,2.584
			s-4.363-7.485-5.754-7.11c-1.391,0.375-1.68,9.052-1.68,9.052s-6.1-1.848-6.753-0.77c-0.655,1.076,2.471,7.72,2.471,7.72
			s-7.619,3.273-7.103,5.052s8,1.146,8,1.146s-0.938,6.247,0,7.138c0.936,0.89,6.736-2.746,6.736-2.746s4.258,5.752,5.521,5.379
			c1.264-0.375,1.039-8.299,1.039-8.299s4.762,2.062,5.651,0.826c0.89-1.238-2.226-6.25-2.226-6.25S30.763,14.704,30.624,13.067z
			 M22.763,19.825c-1.871,4.021-6.354,5.899-10.015,4.196c-3.657-1.705-5.103-6.346-3.229-10.367
			c1.875-4.021,6.358-5.9,10.017-4.197C23.191,11.163,24.635,15.804,22.763,19.825z"/>
		<ellipse transform="matrix(-0.9064 -0.4223 0.4223 -0.9064 23.7011 39.2668)" cx="16.2" cy="17.008" rx="5.766" ry="6.248"/>
	</g>
</g>
</svg>
