<?xml version="1.0" encoding="utf-8"?>
<!-- Generator: Adobe Illustrator 16.0.4, SVG Export Plug-In . SVG Version: 6.00 Build 0)  -->
<!DOCTYPE svg PUBLIC "-//W3C//DTD SVG 1.1//EN" "http://www.w3.org/Graphics/SVG/1.1/DTD/svg11.dtd">
<svg version="1.1" fill="rgb(0, 14, 156)" xmlns="http://www.w3.org/2000/svg" xmlns:xlink="http://www.w3.org/1999/xlink" x="0px" y="0px"
	 width="30.093px" height="32px" viewBox="0 0 30.093 32" enable-background="new 0 0 30.093 32" xml:space="preserve">
<g id="Fondo_1_" display="none">
	<rect id="Fondo" x="-474.957" y="-891.485" display="inline" fill="#FB6E92" width="1000" height="2438.351"/>
</g>
<g id="Guias">
</g>
<g id="Icons">
	<g display="none" opacity="0.2">
		<path display="inline" fill="#FFFFFF" d="M-64.947,585.035c-11.282,3.636-35.885,28.281-38.51,36.152
			c-2.621,7.852,12.065,36.154,18.865,37.705c6.793,1.591,56.584-20.436,58.154-28.283
			C-24.867,622.738-53.665,581.356-64.947,585.035z"/>
		<path display="inline" fill="#FFFFFF" d="M38.021,504.877c-10.498,0.494-88.546,59.727-88.034,69.146
			c0.519,9.423,29.36,46.629,37.729,47.95c8.363,1.302,70.221-78.341,72.307-88.813C62.109,522.664,48.494,504.338,38.021,504.877z"
			/>
		<path display="inline" fill="#FFFFFF" d="M352.957,218.434c-10.932-15.146-35.498-16.261-56.115-3.017
			c-7.87-4.009-17.023-7.233-27.768-9.215c0,0-391.393,317.515-477.854,378.833c0,0-3.302,7.003-8.776,18.407
			c98.109,68.715,86.957,120.567,86.957,120.567c-27.149-66.916-95.885-102.037-95.905-102.037
			c-24.626,50.699-68.835,139.308-92.308,172.114c0,0-0.04,18.015,22.025,29.48c0,0,150.072-101.024,193.329-109.64
			c0,0,23.883-23.283,60.697-58.922c-20.121,10.309-43.197,20.062-52.827,20.659c-16.772,1.053-36.153-39.437-34.583-53.776
			c1.57-14.338,153.521-139.573,176.038-137.983c22.541,1.569,29.875,22.518,30.414,37.725c0.205,6.548-13.654,26.546-30.414,48.012
			C159.126,460.974,302.05,325.8,342.953,295.802c0,0,0.414-10.661-3.141-24.688C357.498,255.766,363.511,233.102,352.957,218.434z
			 M-262.448,801.029c0,0-2.542-32.479-33.638-43.818C-296.086,757.211-243.857,733.576-262.448,801.029z"/>
	</g>
	<g>
		<path d="M14.453,21.578c0.646,0,7.449-7.347,8.048-11.915C23.431,2.602,19.593,0,15.389,0C10.868,0,7.203,5.188,8,10.328
			C8.767,15.27,13.471,21.578,14.453,21.578z M12.798,5.152c0.605-1.858,2.232-2.993,3.634-2.536
			c1.399,0.455,2.047,2.332,1.44,4.188c-0.604,1.859-2.23,2.994-3.632,2.538C12.839,8.886,12.193,7.011,12.798,5.152z"/>
		<path d="M25.042,10.264l-2.711,14.403l0.742-12.319c-2.146,5.14-8.012,11.373-8.655,11.373c-1.146,0-6.634-7.356-7.527-13.121
			C6.546,8.368,6.921,6.131,7.8,4.198L0,8.506v22.368l7.484-2.495L7.89,17.035l1.226,11.074L21.563,32l5.633-3.54l2.896-20.276
			L25.042,10.264z"/>
	</g>
</g>
</svg>
