<?xml version="1.0" encoding="utf-8"?>
<!-- Generator: Adobe Illustrator 16.0.4, SVG Export Plug-In . SVG Version: 6.00 Build 0)  -->
<!DOCTYPE svg PUBLIC "-//W3C//DTD SVG 1.1//EN" "http://www.w3.org/Graphics/SVG/1.1/DTD/svg11.dtd">
<svg version="1.1" fill="rgb(0, 14, 156)" xmlns="http://www.w3.org/2000/svg" xmlns:xlink="http://www.w3.org/1999/xlink" x="0px" y="0px"
	 width="31.023px" height="32px" viewBox="0 0 31.023 32" enable-background="new 0 0 31.023 32" xml:space="preserve">
<g id="Fondo_1_" display="none">
	<rect id="Fondo" x="-526.002" y="-891.485" display="inline" fill="#FB6E92" width="1000" height="2438.351"/>
</g>
<g id="Guias">
</g>
<g id="Icons">
	<g display="none" opacity="0.2">
		<path display="inline" fill="#FFFFFF" d="M-115.993,585.035c-11.282,3.636-35.885,28.281-38.51,36.152
			c-2.621,7.852,12.064,36.154,18.864,37.705c6.794,1.591,56.584-20.436,58.154-28.283
			C-75.913,622.738-104.711,581.356-115.993,585.035z"/>
		<path display="inline" fill="#FFFFFF" d="M-13.024,504.877c-10.498,0.494-88.546,59.727-88.034,69.146
			c0.52,9.423,29.36,46.629,37.729,47.95c8.363,1.302,70.221-78.341,72.307-88.813C11.063,522.664-2.553,504.338-13.024,504.877z"/>
		<path display="inline" fill="#FFFFFF" d="M301.91,218.434c-10.933-15.146-35.498-16.261-56.115-3.017
			c-7.87-4.009-17.023-7.233-27.768-9.215c0,0-391.393,317.515-477.854,378.833c0,0-3.302,7.003-8.776,18.407
			c98.109,68.715,86.957,120.567,86.957,120.567c-27.148-66.916-95.885-102.037-95.904-102.037
			c-24.626,50.699-68.835,139.308-92.309,172.114c0,0-0.04,18.015,22.025,29.48c0,0,150.072-101.024,193.329-109.64
			c0,0,23.883-23.283,60.696-58.922c-20.12,10.309-43.196,20.062-52.826,20.659c-16.772,1.053-36.153-39.437-34.583-53.776
			c1.569-14.338,153.521-139.573,176.037-137.983c22.54,1.569,29.875,22.518,30.414,37.725c0.205,6.548-13.654,26.546-30.414,48.012
			C108.081,460.974,251.005,325.8,291.907,295.802c0,0,0.413-10.661-3.141-24.688C306.452,255.766,312.465,233.102,301.91,218.434z
			 M-313.494,801.029c0,0-2.542-32.479-33.638-43.818C-347.132,757.211-294.903,733.576-313.494,801.029z"/>
	</g>
	<path d="M24.54,1.543C18.617-2.636,8.09,2.244,2.265,9.34c0,0-3.797,4.578-1.559,7.398C1.772,18.081,4.75,17.42,4.75,17.42
		s6.766-1.744,5.576,6.322c0,0-0.729,4.763,1.002,6.43c1.886,1.814,4.302,2.598,7.877,0.848C32.135,24.695,35.265,9.105,24.54,1.543
		z M9.636,13.331c-1.238,1.482-3.193,1.89-4.369,0.91c-1.174-0.981-1.125-2.979,0.112-4.462c1.238-1.482,3.192-1.89,4.369-0.908
		C10.924,9.852,10.872,11.849,9.636,13.331z M13.758,5.698c1.373-1.646,3.545-2.1,4.85-1.01c1.306,1.089,1.25,3.307-0.125,4.953
		c-1.373,1.646-3.545,2.098-4.85,1.009C12.327,9.562,12.383,7.345,13.758,5.698z M19.83,24.305
		c-1.374,1.646-3.545,2.098-4.852,1.008c-1.306-1.088-1.25-3.306,0.125-4.951c1.374-1.646,3.545-2.101,4.852-1.01
		C21.26,20.439,21.205,22.656,19.83,24.305z M21.748,12.749c-1.177-0.98-1.125-2.978,0.111-4.461
		c1.238-1.482,3.193-1.89,4.369-0.908c1.175,0.979,1.125,2.978-0.113,4.46C24.879,13.323,22.923,13.73,21.748,12.749z
		 M24.288,19.117c-0.913-0.764-0.874-2.314,0.088-3.468c0.961-1.152,2.48-1.468,3.395-0.707c0.914,0.763,0.875,2.315-0.087,3.468
		C26.721,19.562,25.201,19.879,24.288,19.117z"/>
</g>
</svg>
