<?xml version="1.0" encoding="utf-8"?>
<!-- Generator: Adobe Illustrator 16.0.4, SVG Export Plug-In . SVG Version: 6.00 Build 0)  -->
<!DOCTYPE svg PUBLIC "-//W3C//DTD SVG 1.1//EN" "http://www.w3.org/Graphics/SVG/1.1/DTD/svg11.dtd">
<svg version="1.1" fill="rgb(0, 14, 156)" xmlns="http://www.w3.org/2000/svg" xmlns:xlink="http://www.w3.org/1999/xlink" x="0px" y="0px"
	 width="20.252px" height="32px" viewBox="0 0 20.252 32" enable-background="new 0 0 20.252 32" xml:space="preserve">
<g id="Fondo_1_" display="none">
	<rect id="Fondo" x="-584.058" y="-891.485" display="inline" fill="#FB6E92" width="1000" height="2438.351"/>
</g>
<g id="Guias">
</g>
<g id="Icons">
	<g display="none" opacity="0.2">
		<path display="inline" fill="#FFFFFF" d="M-174.049,585.035c-11.282,3.636-35.885,28.281-38.51,36.152
			c-2.621,7.852,12.065,36.154,18.865,37.705c6.793,1.591,56.584-20.436,58.154-28.283
			C-133.969,622.738-162.767,581.356-174.049,585.035z"/>
		<path display="inline" fill="#FFFFFF" d="M-71.08,504.877c-10.498,0.494-88.546,59.727-88.034,69.146
			c0.519,9.423,29.36,46.629,37.729,47.95c8.363,1.302,70.221-78.341,72.307-88.813C-46.992,522.664-60.608,504.338-71.08,504.877z"
			/>
		<path display="inline" fill="#FFFFFF" d="M243.854,218.434c-10.933-15.146-35.498-16.261-56.115-3.017
			c-7.87-4.009-17.023-7.233-27.768-9.215c0,0-391.393,317.515-477.854,378.833c0,0-3.302,7.003-8.776,18.407
			c98.109,68.715,86.957,120.567,86.957,120.567c-27.149-66.916-95.885-102.037-95.905-102.037
			c-24.626,50.699-68.835,139.308-92.308,172.114c0,0-0.04,18.015,22.025,29.48c0,0,150.072-101.024,193.329-109.64
			c0,0,23.883-23.283,60.697-58.922c-20.121,10.309-43.197,20.062-52.827,20.659c-16.772,1.053-36.153-39.437-34.583-53.776
			c1.57-14.338,153.521-139.573,176.038-137.983c22.54,1.569,29.875,22.518,30.414,37.725c0.205,6.548-13.655,26.546-30.414,48.012
			C50.024,460.974,192.949,325.8,233.853,295.802c0,0,0.414-10.661-3.141-24.688C248.396,255.766,254.409,233.102,243.854,218.434z
			 M-371.55,801.029c0,0-2.542-32.479-33.638-43.818C-405.188,757.211-352.959,733.576-371.55,801.029z"/>
	</g>
	<g>
		<path d="M11.539,0.024C0.915,0.945,0.064,12.349,0.064,12.349c-0.637,6.161,3.612,8.146,4.816,9.42
			c1.204,1.273,2.267,3.823,2.267,3.823c4.038,1.771,6.657-1.133,6.657-1.133c0.426-2.338,3.967-8.783,3.967-8.783
			C24.783,2.149,15.065-0.281,11.539,0.024z M8.396,6.564c-1.404,1.333-3.081,1.848-3.744,1.15C3.989,7.015,4.59,5.367,5.994,4.034
			c1.404-1.333,3.08-1.847,3.743-1.148C10.401,3.585,9.8,5.231,8.396,6.564z"/>
		<path d="M7.37,27.051c0.377,2.729,2.953,2.225,2.953,2.225c3.459-0.354,3.128-3.258,3.128-3.258
			C11.043,28.177,7.37,27.051,7.37,27.051z"/>
		<path d="M7.975,30.003c0.271,2.282,2.738,1.983,2.738,1.983c3.028-0.31,2.524-3.065,2.524-3.065
			C10.901,31.436,7.975,30.003,7.975,30.003z"/>
	</g>
</g>
</svg>
