<?xml version="1.0" encoding="utf-8"?>
<!-- Generator: Adobe Illustrator 16.0.4, SVG Export Plug-In . SVG Version: 6.00 Build 0)  -->
<!DOCTYPE svg PUBLIC "-//W3C//DTD SVG 1.1//EN" "http://www.w3.org/Graphics/SVG/1.1/DTD/svg11.dtd">
<svg version="1.1" fill="rgb(0, 14, 156)" xmlns="http://www.w3.org/2000/svg" xmlns:xlink="http://www.w3.org/1999/xlink" x="0px" y="0px"
	 width="31.008px" height="32px" viewBox="0 0 31.008 32" enable-background="new 0 0 31.008 32" xml:space="preserve">
<g id="Fondo_1_" display="none">
	<rect id="Fondo" x="-630.492" y="-891.485" display="inline" fill="#FB6E92" width="1000" height="2438.351"/>
</g>
<g id="Guias">
</g>
<g id="Icons">
	<g display="none" opacity="0.2">
		<path display="inline" fill="#FFFFFF" d="M-220.482,585.035c-11.282,3.636-35.885,28.281-38.51,36.152
			c-2.621,7.852,12.065,36.154,18.865,37.705c6.793,1.591,56.584-20.436,58.154-28.283
			C-180.402,622.738-209.2,581.356-220.482,585.035z"/>
		<path display="inline" fill="#FFFFFF" d="M-117.514,504.877c-10.498,0.494-88.546,59.727-88.034,69.146
			c0.519,9.423,29.36,46.629,37.729,47.95c8.363,1.302,70.221-78.341,72.307-88.813
			C-93.426,522.664-107.042,504.338-117.514,504.877z"/>
		<path display="inline" fill="#FFFFFF" d="M197.42,218.434c-10.932-15.146-35.498-16.261-56.114-3.017
			c-7.87-4.009-17.022-7.233-27.767-9.215c0,0-391.394,317.515-477.854,378.833c0,0-3.302,7.003-8.776,18.407
			c98.109,68.715,86.957,120.567,86.957,120.567c-27.149-66.916-95.885-102.037-95.905-102.037
			c-24.626,50.699-68.835,139.308-92.308,172.114c0,0-0.04,18.015,22.025,29.48c0,0,150.072-101.024,193.329-109.64
			c0,0,23.883-23.283,60.697-58.922c-20.121,10.309-43.197,20.062-52.827,20.659c-16.772,1.053-36.153-39.437-34.583-53.776
			c1.57-14.338,153.521-139.573,176.038-137.983c22.54,1.569,29.875,22.518,30.414,37.725c0.205,6.548-13.655,26.546-30.414,48.012
			C3.592,460.974,146.516,325.8,187.418,295.802c0,0,0.414-10.661-3.141-24.688C201.963,255.766,207.976,233.102,197.42,218.434z
			 M-417.983,801.029c0,0-2.542-32.479-33.638-43.818C-451.621,757.211-399.393,733.576-417.983,801.029z"/>
	</g>
	<path d="M4.605,0c2.029-0.056,6.399,5.864,6.541,7.218c0.141,1.354-4.229,3.608-4.285,4.511
		c-0.056,0.902,11.136,12.517,12.179,12.63c1.043,0.111,2.877-4.879,4.285-4.963c1.41-0.084,7.33,6.146,7.67,7.218
		c0.338,1.071-5.188,9.021-15.112,3.384C9.839,26.562,1.57,18.018,0.123,10.432C-0.807,5.562,3.812,0.022,4.605,0z"/>
</g>
</svg>
