<?xml version="1.0" encoding="utf-8"?>
<!-- Generator: Adobe Illustrator 16.0.4, SVG Export Plug-In . SVG Version: 6.00 Build 0)  -->
<!DOCTYPE svg PUBLIC "-//W3C//DTD SVG 1.1//EN" "http://www.w3.org/Graphics/SVG/1.1/DTD/svg11.dtd">
<svg version="1.1" fill="rgb(0, 14, 156)" xmlns="http://www.w3.org/2000/svg" xmlns:xlink="http://www.w3.org/1999/xlink" x="0px" y="0px"
	 width="31.852px" height="32px" viewBox="0 0 31.852 32" enable-background="new 0 0 31.852 32" xml:space="preserve">
<g id="Fondo_1_" display="none">
	<rect id="Fondo" x="-682.068" y="-891.485" display="inline" fill="#FB6E92" width="999.999" height="2438.351"/>
</g>
<g id="Guias">
</g>
<g id="Icons">
	<g display="none" opacity="0.2">
		<path display="inline" fill="#FFFFFF" d="M-272.059,585.035c-11.282,3.636-35.885,28.281-38.51,36.152
			c-2.621,7.852,12.064,36.154,18.864,37.705c6.793,1.591,56.584-20.436,58.154-28.283
			C-231.979,622.738-260.776,581.356-272.059,585.035z"/>
		<path display="inline" fill="#FFFFFF" d="M-169.09,504.877c-10.498,0.494-88.546,59.727-88.034,69.146
			c0.52,9.423,29.36,46.629,37.729,47.95c8.362,1.302,70.221-78.341,72.307-88.813C-145.002,522.664-158.618,504.338-169.09,504.877
			z"/>
		<path display="inline" fill="#FFFFFF" d="M145.845,218.434c-10.933-15.146-35.498-16.261-56.115-3.017
			c-7.87-4.009-17.023-7.233-27.768-9.215c0,0-391.393,317.515-477.854,378.833c0,0-3.302,7.003-8.776,18.407
			c98.109,68.715,86.957,120.567,86.957,120.567c-27.148-66.916-95.885-102.037-95.905-102.037
			c-24.626,50.699-68.835,139.308-92.308,172.114c0,0-0.04,18.015,22.025,29.48c0,0,150.071-101.024,193.329-109.64
			c0,0,23.883-23.283,60.696-58.922c-20.121,10.309-43.196,20.062-52.827,20.659c-16.771,1.053-36.152-39.437-34.583-53.776
			c1.57-14.338,153.521-139.573,176.038-137.983c22.54,1.569,29.875,22.518,30.414,37.725c0.205,6.548-13.654,26.546-30.414,48.012
			C-47.984,460.974,94.939,325.8,135.842,295.802c0,0,0.414-10.661-3.14-24.688C150.387,255.766,156.399,233.102,145.845,218.434z
			 M-469.56,801.029c0,0-2.542-32.479-33.639-43.818C-503.198,757.211-450.969,733.576-469.56,801.029z"/>
	</g>
	<g>
		<path d="M29.181,1.811c-4.558-5.356-11.992,2.878-11.992,2.878l-0.884,0.86l9.987,10.021c1.278-1.206,2.311-2.179,2.889-2.726
			C32.06,10.125,33.363,6.727,29.181,1.811z"/>
		<path d="M1.519,29.634c5.437,5.757,10.713-0.8,10.713-0.8s0.651-0.615,1.702-1.605L4.824,16.7
			C-3.546,24.721,1.519,29.634,1.519,29.634z"/>
		<path d="M6.29,15.292l8.269,11.349c2.616-2.469,6.938-6.547,10.298-9.715l-9.12-10.824L6.29,15.292z M13.114,11.199
			c0.685,0,1.239,0.743,1.239,1.66s-0.556,1.66-1.239,1.66s-1.239-0.743-1.239-1.66S12.43,11.199,13.114,11.199z M10.233,16.76
			c-0.686,0-1.239-0.743-1.239-1.659c0-0.918,0.555-1.66,1.239-1.66c0.684,0,1.239,0.742,1.239,1.66
			C11.473,16.017,10.918,16.76,10.233,16.76z M12.793,19.96c-0.685,0-1.238-0.743-1.238-1.66s0.555-1.659,1.238-1.659
			c0.685,0,1.239,0.742,1.239,1.659S13.478,19.96,12.793,19.96z M15.354,23.161c-0.687,0-1.24-0.743-1.24-1.66s0.555-1.66,1.24-1.66
			c0.684,0,1.237,0.743,1.237,1.66S16.038,23.161,15.354,23.161z M15.674,17.719c-0.685,0-1.238-0.742-1.238-1.659
			c0-0.917,0.555-1.66,1.238-1.66c0.685,0,1.239,0.743,1.239,1.66C16.913,16.977,16.358,17.719,15.674,17.719z M18.235,20.92
			c-0.686,0-1.239-0.743-1.239-1.659c0-0.917,0.555-1.659,1.239-1.659c0.684,0,1.239,0.742,1.239,1.659
			C19.475,20.177,18.92,20.92,18.235,20.92z M21.116,15.039c0.685,0,1.239,0.743,1.239,1.66s-0.556,1.66-1.239,1.66
			s-1.239-0.743-1.239-1.66S20.432,15.039,21.116,15.039z M18.556,11.838c0.684,0,1.237,0.743,1.237,1.66s-0.555,1.66-1.237,1.66
			c-0.687,0-1.24-0.743-1.24-1.66S17.87,11.838,18.556,11.838z M17.234,10.298c0,0.917-0.555,1.66-1.239,1.66
			c-0.684,0-1.239-0.743-1.239-1.66c0-0.916,0.556-1.659,1.239-1.659C16.679,8.639,17.234,9.382,17.234,10.298z"/>
	</g>
</g>
</svg>
