<?xml version="1.0" encoding="utf-8"?>
<!-- Generator: Adobe Illustrator 16.0.4, SVG Export Plug-In . SVG Version: 6.00 Build 0)  -->
<!DOCTYPE svg PUBLIC "-//W3C//DTD SVG 1.1//EN" "http://www.w3.org/Graphics/SVG/1.1/DTD/svg11.dtd">
<svg version="1.1" fill="rgb(0, 14, 156)" xmlns="http://www.w3.org/2000/svg" xmlns:xlink="http://www.w3.org/1999/xlink" x="0px" y="0px"
	 width="25.7px" height="26.57px" viewBox="0 0 25.7 26.57" enable-background="new 0 0 25.7 26.57" xml:space="preserve">
<g id="Fondo_1_" display="none">
	<rect id="Fondo" x="-736.629" y="-895.875" display="inline" fill="#FB6E92" width="1000" height="2438.352"/>
</g>
<g id="Guias">
</g>
<g id="Icons">
	<g display="none" opacity="0.2">
		<path display="inline" fill="#FFFFFF" d="M-326.62,580.646c-11.282,3.636-35.885,28.28-38.51,36.152
			c-2.621,7.852,12.065,36.154,18.865,37.705c6.793,1.59,56.584-20.436,58.154-28.284
			C-286.54,618.348-315.338,576.967-326.62,580.646z"/>
		<path display="inline" fill="#FFFFFF" d="M-223.651,500.487c-10.498,0.494-88.546,59.726-88.034,69.146
			c0.519,9.423,29.36,46.629,37.729,47.951c8.363,1.301,70.221-78.341,72.307-88.814
			C-199.563,518.274-213.18,499.948-223.651,500.487z"/>
		<path display="inline" fill="#FFFFFF" d="M91.284,214.043c-10.933-15.145-35.498-16.26-56.115-3.016
			c-7.871-4.009-17.023-7.233-27.768-9.215c0,0-391.393,317.515-477.854,378.832c0,0-3.302,7.004-8.776,18.407
			c98.109,68.715,86.957,120.568,86.957,120.568c-27.149-66.916-95.885-102.037-95.905-102.037
			c-24.626,50.699-68.835,139.307-92.308,172.114c0,0-0.04,18.015,22.025,29.479c0,0,150.072-101.023,193.329-109.639
			c0,0,23.883-23.283,60.697-58.922c-20.121,10.308-43.197,20.062-52.827,20.659c-16.772,1.053-36.153-39.438-34.583-53.776
			c1.57-14.338,153.521-139.574,176.038-137.984c22.54,1.57,29.875,22.519,30.414,37.726c0.205,6.548-13.655,26.546-30.414,48.012
			C-102.546,456.584,40.377,321.41,81.28,291.412c0,0,0.414-10.661-3.14-24.688C95.825,251.375,101.838,228.711,91.284,214.043z
			 M-524.121,796.639c0,0-2.542-32.478-33.638-43.817C-557.759,752.821-505.53,729.187-524.121,796.639z"/>
	</g>
	<path display="none" opacity="0.5" fill="#71C8EA" enable-background="new    " d="M1044.426,530.302l3.332,3.333
		c0,0,17-13.666,32.5-11.833c0,0,21-27.999,50-37.833c0,0,17.668-9.834,7.168-30.667s-24.328-12.937-31.168-8
		c-9.582,6.916-39.77,40.322-51.5,56.333C1054.758,501.635,1058.258,517.969,1044.426,530.302z"/>
	<g>
		<ellipse transform="matrix(-0.8523 -0.523 0.523 -0.8523 4.2247 7.7432)" cx="3.206" cy="3.275" rx="3.163" ry="3.317"/>
		<ellipse transform="matrix(-0.8522 -0.5231 0.5231 -0.8522 -1.0103 26.2835)" cx="3.207" cy="13.284" rx="3.163" ry="3.317"/>
		<ellipse transform="matrix(-0.8522 -0.5231 0.5231 -0.8522 -6.2459 44.8243)" cx="3.207" cy="23.294" rx="3.163" ry="3.317"/>
		<polygon points="9.873,1.053 9.873,4.698 25.7,4.698 25.7,0.22 		"/>
		<polygon points="9.873,14.698 25.7,14.698 25.7,10.22 9.873,11.053 		"/>
		<polygon points="9.873,24.698 25.7,24.698 25.7,20.22 9.873,21.053 		"/>
	</g>
</g>
</svg>
