<?xml version="1.0" encoding="utf-8"?>
<!-- Generator: Adobe Illustrator 16.0.4, SVG Export Plug-In . SVG Version: 6.00 Build 0)  -->
<!DOCTYPE svg PUBLIC "-//W3C//DTD SVG 1.1//EN" "http://www.w3.org/Graphics/SVG/1.1/DTD/svg11.dtd">
<svg version="1.1" fill="rgb(0, 14, 156)" xmlns="http://www.w3.org/2000/svg" xmlns:xlink="http://www.w3.org/1999/xlink" x="0px" y="0px"
	 width="27.396px" height="32px" viewBox="0 0 27.396 32" enable-background="new 0 0 27.396 32" xml:space="preserve">
<g id="Fondo_1_" display="none">
	<rect id="Fondo" x="-788.633" y="-891.485" display="inline" fill="#FB6E92" width="1000" height="2438.351"/>
</g>
<g id="Guias">
</g>
<g id="Icons">
	<g display="none" opacity="0.2">
		<path display="inline" fill="#FFFFFF" d="M-378.624,585.035c-11.282,3.636-35.885,28.281-38.51,36.152
			c-2.621,7.852,12.065,36.154,18.865,37.705c6.793,1.591,56.584-20.436,58.153-28.283
			C-338.544,622.738-367.342,581.356-378.624,585.035z"/>
		<path display="inline" fill="#FFFFFF" d="M-275.656,504.877c-10.497,0.494-88.546,59.727-88.033,69.146
			c0.519,9.423,29.359,46.629,37.729,47.95c8.363,1.302,70.221-78.341,72.308-88.813
			C-251.567,522.664-265.184,504.338-275.656,504.877z"/>
		<path display="inline" fill="#FFFFFF" d="M39.279,218.434c-10.932-15.146-35.498-16.261-56.115-3.017
			c-7.87-4.009-17.022-7.233-27.767-9.215c0,0-391.394,317.515-477.854,378.833c0,0-3.302,7.003-8.775,18.407
			c98.108,68.715,86.957,120.567,86.957,120.567c-27.149-66.916-95.886-102.037-95.905-102.037
			c-24.626,50.699-68.835,139.308-92.309,172.114c0,0-0.039,18.015,22.025,29.48c0,0,150.072-101.024,193.329-109.64
			c0,0,23.883-23.283,60.697-58.922c-20.121,10.309-43.197,20.062-52.827,20.659c-16.772,1.053-36.153-39.437-34.583-53.776
			c1.57-14.338,153.521-139.573,176.038-137.983c22.54,1.569,29.875,22.518,30.414,37.725c0.205,6.548-13.655,26.546-30.414,48.012
			C-154.55,460.974-11.626,325.8,29.276,295.802c0,0,0.414-10.661-3.141-24.688C43.821,255.766,49.834,233.102,39.279,218.434z
			 M-576.125,801.029c0,0-2.542-32.479-33.638-43.818C-609.763,757.211-557.534,733.576-576.125,801.029z"/>
	</g>
	<path display="none" opacity="0.5" fill="#71C8EA" enable-background="new    " d="M992.422,534.692l3.333,3.333
		c0,0,17-13.666,32.5-11.833c0,0,21-27.999,50-37.833c0,0,17.667-9.834,7.167-30.667s-24.327-12.938-31.167-8
		c-9.583,6.916-39.771,40.321-51.5,56.333C1002.755,506.025,1006.255,522.359,992.422,534.692z"/>
	<g>
		<g>
			<path d="M5.017,14.916c0.357,1.95-4.021,3.662-4.021,3.662l0.158,2.469c1.553-0.318,4.817-0.438,4.817-0.438l0.478-2.03
				c-1.512-0.119-2.965,0.319-2.965,0.319s2.029-1.528,2.807-2.588c1.035-1.414,1.474-4.459-1.354-4.619
				C2.11,11.532,0,14.757,0,14.757l1.043,1.368C3.105,13.363,4.771,13.577,5.017,14.916z"/>
			<path d="M3.769,3.986C3.291,5.5,3.251,9.042,3.251,9.042c0.876,0.359,2.07-0.158,2.07-0.158C4.564,4.942,5.72,0.403,5.72,0.403
				L4.047,0C3.928,1.667,0.982,5.062,0.982,5.062l1.074,0.876C2.893,5.301,3.769,3.986,3.769,3.986z"/>
			<path d="M5.72,26.049l1.752-1.768l-0.605-2.322l-5.452,1.616l0.151,1.514l3.585-0.604l-2.07,1.969l0.271,1.363
				c0.372-0.102,4.033-0.635,2,1.969c-1.478,1.891-4.351-1.143-4.351-1.143l-0.598,0.738c0,0,3.137,4.645,6.008,1.564
				C9.724,27.393,5.72,26.049,5.72,26.049z"/>
			<polygon points="11.569,4.163 11.569,7.809 27.396,7.809 27.396,3.33 			"/>
			<polygon points="11.569,17.809 27.396,17.809 27.396,13.33 11.569,14.163 			"/>
			<polygon points="11.569,27.809 27.396,27.809 27.396,23.33 11.569,24.163 			"/>
		</g>
	</g>
</g>
</svg>
