<?xml version="1.0" encoding="utf-8"?>
<!-- Generator: Adobe Illustrator 16.0.4, SVG Export Plug-In . SVG Version: 6.00 Build 0)  -->
<!DOCTYPE svg PUBLIC "-//W3C//DTD SVG 1.1//EN" "http://www.w3.org/Graphics/SVG/1.1/DTD/svg11.dtd">
<svg version="1.1" fill="rgb(0, 14, 156)" xmlns="http://www.w3.org/2000/svg" xmlns:xlink="http://www.w3.org/1999/xlink" x="0px" y="0px"
	 width="23.223px" height="32px" viewBox="0 0 23.223 32" enable-background="new 0 0 23.223 32" xml:space="preserve">
<g id="Fondo_1_" display="none">
	<rect id="Fondo" x="-114.282" y="-955.481" display="inline" fill="#FB6E92" width="1000" height="2438.352"/>
</g>
<g id="Guias">
</g>
<g id="Icons">
	<g display="none" opacity="0.2">
		<path display="inline" fill="#FFFFFF" d="M295.727,521.039c-11.282,3.637-35.886,28.281-38.511,36.154
			c-2.62,7.85,12.065,36.152,18.865,37.705c6.793,1.59,56.584-20.438,58.154-28.285
			C335.806,558.742,307.009,517.361,295.727,521.039z"/>
		<path display="inline" fill="#FFFFFF" d="M398.696,440.88c-10.498,0.494-88.546,59.727-88.034,69.146
			c0.519,9.424,29.36,46.629,37.729,47.951c8.363,1.301,70.222-78.342,72.308-88.814
			C422.784,458.667,409.167,440.341,398.696,440.88z"/>
		<path display="inline" fill="#FFFFFF" d="M713.63,154.437c-10.932-15.145-35.498-16.26-56.115-3.016
			c-7.87-4.01-17.022-7.233-27.767-9.215c0,0-391.393,317.514-477.854,378.832c0,0-3.303,7.004-8.776,18.408
			c98.109,68.715,86.957,120.566,86.957,120.566c-27.149-66.916-95.885-102.037-95.905-102.037
			c-24.626,50.699-68.835,139.309-92.308,172.115c0,0-0.04,18.016,22.025,29.48c0,0,150.071-101.025,193.328-109.641
			c0,0,23.884-23.281,60.697-58.922c-20.121,10.309-43.197,20.062-52.827,20.66c-16.771,1.053-36.152-39.438-34.583-53.777
			c1.57-14.338,153.521-139.572,176.038-137.982c22.54,1.568,29.875,22.518,30.414,37.725c0.205,6.547-13.655,26.545-30.414,48.012
			c113.258-108.67,256.182-243.844,297.084-273.841c0,0,0.414-10.661-3.14-24.688C718.172,191.769,724.184,169.104,713.63,154.437z
			 M98.226,737.033c0,0-2.542-32.479-33.639-43.818C64.588,693.214,116.817,669.58,98.226,737.033z"/>
	</g>
	<g>
		<path d="M15.435,0H0c0,0,0.854,15.999,0,31.248c0,0,14.855,1.023,22.454,0.683l0.564-21.191l-8.083,0.125L15.435,0z"/>
		<polygon points="16.791,0 16.762,8.68 23.222,9.334 		"/>
	</g>
</g>
</svg>
