<?xml version="1.0" encoding="utf-8"?>
<!-- Generator: Adobe Illustrator 16.0.4, SVG Export Plug-In . SVG Version: 6.00 Build 0)  -->
<!DOCTYPE svg PUBLIC "-//W3C//DTD SVG 1.1//EN" "http://www.w3.org/Graphics/SVG/1.1/DTD/svg11.dtd">
<svg version="1.1" fill="rgb(0, 14, 156)" xmlns="http://www.w3.org/2000/svg" xmlns:xlink="http://www.w3.org/1999/xlink" x="0px" y="0px"
	 width="23.223px" height="32px" viewBox="0 0 23.223 32" enable-background="new 0 0 23.223 32" xml:space="preserve">
<g id="Fondo_1_" display="none">
	<rect id="Fondo" x="-166.427" y="-955.48" display="inline" fill="#FB6E92" width="1000" height="2438.351"/>
</g>
<g id="Guias">
</g>
<g id="Icons">
	<g display="none" opacity="0.2">
		<path display="inline" fill="#FFFFFF" d="M243.581,521.04c-11.282,3.636-35.886,28.281-38.511,36.153
			c-2.62,7.851,12.065,36.153,18.865,37.705c6.793,1.59,56.584-20.437,58.154-28.284
			C283.661,558.743,254.863,517.361,243.581,521.04z"/>
		<path display="inline" fill="#FFFFFF" d="M346.55,440.882c-10.498,0.494-88.546,59.727-88.034,69.146
			c0.52,9.423,29.36,46.629,37.729,47.95c8.362,1.302,70.221-78.341,72.307-88.813C370.638,458.669,357.022,440.343,346.55,440.882z
			"/>
		<path display="inline" fill="#FFFFFF" d="M661.485,154.438c-10.933-15.145-35.498-16.26-56.115-3.016
			c-7.87-4.009-17.023-7.232-27.768-9.215c0,0-391.393,317.515-477.854,378.833c0,0-3.303,7.003-8.776,18.407
			c98.109,68.715,86.957,120.567,86.957,120.567C150.781,593.1,82.045,557.979,82.025,557.979
			C57.399,608.678,13.19,697.286-10.283,730.093c0,0-0.04,18.016,22.025,29.48c0,0,150.071-101.024,193.328-109.64
			c0,0,23.884-23.282,60.697-58.922c-20.121,10.309-43.197,20.062-52.827,20.659c-16.771,1.053-36.152-39.437-34.583-53.776
			c1.57-14.338,153.521-139.573,176.039-137.983c22.539,1.57,29.875,22.518,30.413,37.725c0.205,6.548-13.654,26.546-30.413,48.013
			c113.258-108.67,256.182-243.844,297.084-273.842c0,0,0.413-10.66-3.141-24.688C666.027,191.77,672.039,169.105,661.485,154.438z
			 M46.08,737.034c0,0-2.542-32.479-33.639-43.818C12.442,693.216,64.671,669.581,46.08,737.034z"/>
	</g>
	<g>
		<polygon points="16.791,0 16.763,8.68 23.223,9.334 		"/>
		<path d="M15.436,0H0c0,0,0.854,15.999,0,31.247c0,0,14.854,1.024,22.454,0.685l0.563-21.192l-8.083,0.125L15.436,0z M2.956,4.27
			h6.883l-0.454,6.581H2.956V4.27z M18.537,28.407L2.956,28.71v-2.42l15.582-1.286L18.537,28.407L18.537,28.407z M18.537,22.654
			L2.956,22.958v-2.42l15.582-1.286L18.537,22.654L18.537,22.654z M18.537,13.196V16.6L2.956,16.902v-2.421L18.537,13.196z"/>
	</g>
</g>
</svg>
