<?xml version="1.0" encoding="utf-8"?>
<!-- Generator: Adobe Illustrator 16.0.4, SVG Export Plug-In . SVG Version: 6.00 Build 0)  -->
<!DOCTYPE svg PUBLIC "-//W3C//DTD SVG 1.1//EN" "http://www.w3.org/Graphics/SVG/1.1/DTD/svg11.dtd">
<svg version="1.1" fill="rgb(0, 14, 156)" xmlns="http://www.w3.org/2000/svg" xmlns:xlink="http://www.w3.org/1999/xlink" x="0px" y="0px"
	 width="21.014px" height="32px" viewBox="0 0 21.014 32" enable-background="new 0 0 21.014 32" xml:space="preserve">
<g id="Fondo_1_" display="none">
	<rect id="Fondo" x="-221.032" y="-955.522" display="inline" fill="#FB6E92" width="1000" height="2438.351"/>
</g>
<g id="Guias">
</g>
<g id="Icons">
	<g display="none" opacity="0.2">
		<path display="inline" fill="#FFFFFF" d="M188.977,520.998c-11.282,3.636-35.885,28.281-38.51,36.153
			c-2.621,7.851,12.065,36.153,18.865,37.705c6.793,1.59,56.584-20.437,58.153-28.284
			C229.057,558.701,200.259,517.319,188.977,520.998z"/>
		<path display="inline" fill="#FFFFFF" d="M291.946,440.84c-10.497,0.494-88.546,59.727-88.033,69.146
			c0.519,9.423,29.359,46.629,37.729,47.951c8.363,1.301,70.222-78.342,72.308-88.814
			C316.034,458.627,302.417,440.301,291.946,440.84z"/>
		<path display="inline" fill="#FFFFFF" d="M606.88,154.396c-10.932-15.146-35.498-16.261-56.115-3.017
			c-7.87-4.009-17.022-7.233-27.767-9.215c0,0-391.394,317.515-477.854,378.833c0,0-3.302,7.003-8.775,18.407
			c98.108,68.715,86.957,120.567,86.957,120.567C96.176,593.057,27.44,557.936,27.42,557.936
			c-24.626,50.7-68.835,139.308-92.308,172.115c0,0-0.039,18.016,22.025,29.48c0,0,150.072-101.024,193.329-109.64
			c0,0,23.883-23.282,60.697-58.922c-20.121,10.309-43.197,20.062-52.827,20.659c-16.772,1.053-36.153-39.437-34.583-53.775
			s153.521-139.574,176.038-137.984c22.54,1.57,29.875,22.518,30.414,37.725c0.205,6.548-13.655,26.546-30.414,48.013
			C413.05,396.938,555.974,261.764,596.876,231.766c0,0,0.414-10.662-3.14-24.688C611.422,191.729,617.435,169.062,606.88,154.396z
			 M-8.524,736.992c0,0-2.542-32.479-33.638-43.818C-42.162,693.174,10.067,669.539-8.524,736.992z"/>
	</g>
	<path d="M20.601,13.45c1.531-5.999-1.324-11.908-6.38-13.199C9.163-1.041,3.824,2.774,2.291,8.772
		c-1.255,4.913,0.436,9.764,3.865,12.068c-2.123,1.335-3.55,3.489-4.484,5.557l-1.156,3.226C0.13,31.025,0,32,0,32l17.981-1.65
		c0,0,0.07-0.381,0.125-0.996l-0.014-2.93c-0.205-1.961-0.885-4.203-2.734-5.587C17.796,19.339,19.765,16.721,20.601,13.45z"/>
</g>
</svg>
