<?xml version="1.0" encoding="utf-8"?>
<!-- Generator: Adobe Illustrator 16.0.4, SVG Export Plug-In . SVG Version: 6.00 Build 0)  -->
<!DOCTYPE svg PUBLIC "-//W3C//DTD SVG 1.1//EN" "http://www.w3.org/Graphics/SVG/1.1/DTD/svg11.dtd">
<svg version="1.1" fill="rgb(0, 14, 156)" xmlns="http://www.w3.org/2000/svg" xmlns:xlink="http://www.w3.org/1999/xlink" x="0px" y="0px"
	 width="32px" height="23.714px" viewBox="0 0 32 23.714" enable-background="new 0 0 32 23.714" xml:space="preserve">
<g id="Fondo_1_" display="none">
	<rect id="Fondo" x="-318.126" y="-959.666" display="inline" fill="#FB6E92" width="1000" height="2438.351"/>
</g>
<g id="Guias">
</g>
<g id="Icons">
	<g display="none" opacity="0.2">
		<path display="inline" fill="#FFFFFF" d="M91.883,516.853c-11.281,3.637-35.885,28.281-38.51,36.154
			c-2.621,7.852,12.064,36.154,18.865,37.705c6.793,1.59,56.584-20.436,58.154-28.285
			C131.963,554.558,103.166,513.175,91.883,516.853z"/>
		<path display="inline" fill="#FFFFFF" d="M194.852,436.697c-10.498,0.494-88.545,59.725-88.033,69.145
			c0.519,9.424,29.359,46.629,37.729,47.951c8.363,1.301,70.221-78.34,72.307-88.812
			C218.939,454.484,205.324,436.158,194.852,436.697z"/>
		<path display="inline" fill="#FFFFFF" d="M509.787,150.251c-10.932-15.145-35.498-16.26-56.115-3.016
			c-7.87-4.009-17.022-7.232-27.767-9.215c0,0-391.394,317.516-477.854,378.832c0,0-3.302,7.004-8.776,18.408
			C37.384,603.976,26.232,655.83,26.232,655.83c-27.149-66.916-95.885-102.037-95.905-102.037
			c-24.626,50.699-68.835,139.307-92.308,172.115c0,0-0.04,18.014,22.025,29.479c0,0,150.072-101.023,193.329-109.639
			c0,0,23.883-23.283,60.697-58.922c-20.121,10.309-43.197,20.062-52.827,20.66c-16.772,1.053-36.153-39.438-34.583-53.777
			c1.57-14.338,153.521-139.574,176.038-137.984c22.54,1.57,29.875,22.52,30.413,37.727c0.205,6.547-13.654,26.545-30.413,48.012
			c113.258-108.67,256.182-243.844,297.084-273.842c0,0,0.414-10.66-3.141-24.688C514.329,187.583,520.341,164.919,509.787,150.251z
			 M-105.618,732.849c0,0-2.542-32.479-33.638-43.818C-139.255,689.031-87.027,665.396-105.618,732.849z"/>
	</g>
	<path display="none" opacity="0.5" fill="#71C8EA" enable-background="new    " d="M1462.929,466.511l3.333,3.334
		c0,0,17-13.666,32.5-11.834c0,0,21-27.998,50-37.832c0,0,17.667-9.834,7.167-30.667s-24.327-12.937-31.167-8
		c-9.583,6.915-39.771,40.321-51.5,56.333C1473.262,437.845,1476.762,454.179,1462.929,466.511z"/>
	<path d="M31.927,10.262c0.453-3.275-1.258-6.218-3.821-6.572s-5.008,2.014-5.461,5.288c-0.304,2.193,0.366,4.232,1.609,5.45
		c-1.018,0.752-1.715,1.862-2.193,3.054c0.069-2.279-0.449-4.708-2.66-5.728c1.094-1.06,1.896-2.622,2.146-4.436
		c0.501-3.628-1.395-6.887-4.232-7.279c-2.839-0.392-5.548,2.229-6.049,5.857c-0.36,2.604,0.519,5.012,2.092,6.312
		c-1.979,1.25-3.334,3.635-4.158,6.527c-0.162-0.776-0.541-1.471-1.291-1.86c1.16-0.789,2.047-2.229,2.287-3.965
		c0.393-2.842-1.092-5.396-3.316-5.702C4.655,6.9,2.533,8.955,2.14,11.797c-0.305,2.207,0.523,4.232,1.948,5.176
		C0.287,18.494,0,23.714,0,23.714l8.42-0.971c-0.037,0.32-0.072,0.645-0.1,0.971l12.708-1.315c-0.038,0.511-0.051,0.873-0.065,1.002
		h8.562c0,0,2.848-6.618,0.373-9.053C30.932,13.391,31.693,11.949,31.927,10.262z"/>
</g>
</svg>
