<?xml version="1.0" encoding="utf-8"?>
<!-- Generator: Adobe Illustrator 16.0.4, SVG Export Plug-In . SVG Version: 6.00 Build 0)  -->
<!DOCTYPE svg PUBLIC "-//W3C//DTD SVG 1.1//EN" "http://www.w3.org/Graphics/SVG/1.1/DTD/svg11.dtd">
<svg version="1.1" fill="rgb(0, 14, 156)" xmlns="http://www.w3.org/2000/svg" xmlns:xlink="http://www.w3.org/1999/xlink" x="0px" y="0px"
	 width="32px" height="23.714px" viewBox="0 0 32 23.714" enable-background="new 0 0 32 23.714" xml:space="preserve">
<g id="Fondo_1_" display="none">
	<rect id="Fondo" x="-370.081" y="-958.874" display="inline" fill="#FB6E92" width="1000" height="2438.35"/>
</g>
<g id="Guias">
</g>
<g id="Icons">
	<g display="none" opacity="0.2">
		<path display="inline" fill="#FFFFFF" d="M39.93,517.646c-11.283,3.637-35.886,28.281-38.511,36.152
			c-2.621,7.852,12.065,36.154,18.865,37.705c6.793,1.59,56.584-20.436,58.153-28.283C80.009,555.349,51.211,513.968,39.93,517.646z
			"/>
		<path display="inline" fill="#FFFFFF" d="M142.896,437.488c-10.498,0.494-88.545,59.727-88.033,69.146
			c0.519,9.422,29.359,46.629,37.729,47.951c8.363,1.301,70.221-78.342,72.307-88.814
			C166.984,455.275,153.369,436.949,142.896,437.488z"/>
		<path display="inline" fill="#FFFFFF" d="M457.832,151.044c-10.932-15.146-35.498-16.26-56.115-3.017
			c-7.87-4.009-17.022-7.233-27.767-9.215c0,0-391.393,317.515-477.854,378.833c0,0-3.302,7.004-8.776,18.406
			c98.109,68.715,86.957,120.568,86.957,120.568c-27.149-66.916-95.885-102.037-95.905-102.037
			c-24.626,50.699-68.835,139.307-92.308,172.115c0,0-0.04,18.014,22.025,29.479c0,0,150.072-101.023,193.329-109.639
			c0,0,23.883-23.283,60.697-58.922c-20.121,10.309-43.197,20.062-52.827,20.66c-16.772,1.053-36.153-39.438-34.583-53.777
			c1.57-14.338,153.521-139.574,176.038-137.984c22.54,1.57,29.875,22.52,30.414,37.727c0.204,6.547-13.655,26.545-30.414,48.012
			c113.258-108.67,256.182-243.844,297.084-273.842c0,0,0.414-10.66-3.14-24.688C462.374,188.376,468.387,165.712,457.832,151.044z
			 M-157.572,733.64c0,0-2.542-32.477-33.638-43.816C-191.21,689.822-138.981,666.187-157.572,733.64z"/>
	</g>
	<path d="M31.927,10.262c0.453-3.275-1.258-6.218-3.821-6.572s-5.008,2.014-5.461,5.288c-0.304,2.193,0.366,4.232,1.609,5.45
		c-1.018,0.752-1.715,1.862-2.193,3.054c0.069-2.279-0.449-4.708-2.66-5.728c1.094-1.06,1.896-2.622,2.146-4.436
		c0.501-3.628-1.395-6.887-4.232-7.279c-2.839-0.392-5.548,2.229-6.049,5.857c-0.36,2.604,0.519,5.012,2.092,6.312
		c-1.979,1.25-3.334,3.635-4.158,6.527c-0.162-0.776-0.541-1.471-1.291-1.86c1.16-0.789,2.047-2.229,2.287-3.965
		c0.393-2.842-1.092-5.396-3.316-5.702C4.655,6.9,2.533,8.955,2.14,11.797c-0.305,2.207,0.523,4.232,1.948,5.176
		C0.287,18.494,0,23.714,0,23.714l8.42-0.971c-0.037,0.32-0.072,0.645-0.1,0.971l12.708-1.315c-0.038,0.511-0.051,0.873-0.065,1.002
		h8.562c0,0,2.848-6.618,0.373-9.053C30.932,13.391,31.693,11.949,31.927,10.262z M3.365,13.46l5.321-1.643
		c0,0-0.048,4.122-3.026,4.122C3.298,15.94,3.365,13.46,3.365,13.46z M13.054,6.478c0.153-1.109,0.823-1.935,1.496-1.841
		c0.364,0.051,0.654,0.36,0.819,0.809c0.241-1.484,1.22-2.565,2.22-2.427c1.022,0.142,1.681,1.502,1.468,3.04
		c-0.214,1.537-1.215,2.67-2.238,2.527c-0.653-0.09-1.156-0.681-1.379-1.496c-0.218,0.967-0.829,1.649-1.444,1.564
		C13.321,8.562,12.9,7.587,13.054,6.478z M26.618,8.614c-0.007-0.042-0.022-0.227-0.022-0.227l3.534-1.043
		c0,0,0.707,2.893-1.223,3.581c-1.29,0.459-1.882-0.756-2.134-1.614c0.013,0.663-0.164,1.598-1.182,1.945
		c-1.644,0.562-1.957-1.942-1.957-1.942L26.618,8.614z"/>
</g>
</svg>
