<?xml version="1.0" encoding="utf-8"?>
<!-- Generator: Adobe Illustrator 16.0.4, SVG Export Plug-In . SVG Version: 6.00 Build 0)  -->
<!DOCTYPE svg PUBLIC "-//W3C//DTD SVG 1.1//EN" "http://www.w3.org/Graphics/SVG/1.1/DTD/svg11.dtd">
<svg version="1.1" fill="rgb(0, 14, 156)" xmlns="http://www.w3.org/2000/svg" xmlns:xlink="http://www.w3.org/1999/xlink" x="0px" y="0px"
	 width="32.386px" height="30.602px" viewBox="0 0 32.386 30.602" enable-background="new 0 0 32.386 30.602" xml:space="preserve">
<g id="Fondo_1_" display="none">
	<rect id="Fondo" x="-421.773" y="-955.49" display="inline" fill="#FB6E92" width="999.999" height="2438.352"/>
</g>
<g id="Guias">
</g>
<g id="Icons">
	<g display="none" opacity="0.2">
		<path display="inline" fill="#FFFFFF" d="M-11.764,521.03c-11.282,3.636-35.885,28.28-38.51,36.152
			c-2.621,7.852,12.065,36.154,18.865,37.705c6.793,1.591,56.584-20.436,58.155-28.283C28.316,558.733-0.481,517.351-11.764,521.03z
			"/>
		<path display="inline" fill="#FFFFFF" d="M91.205,440.872c-10.498,0.494-88.545,59.726-88.034,69.146
			c0.519,9.424,29.36,46.63,37.729,47.951c8.363,1.301,70.221-78.341,72.307-88.813C115.292,458.659,101.677,440.333,91.205,440.872
			z"/>
		<path display="inline" fill="#FFFFFF" d="M406.14,154.428c-10.932-15.146-35.498-16.261-56.115-3.017
			c-7.869-4.009-17.023-7.232-27.768-9.215c0,0-391.392,317.515-477.854,378.833c0,0-3.302,7.003-8.776,18.407
			c98.109,68.715,86.957,120.567,86.957,120.567c-27.149-66.916-95.885-102.037-95.905-102.037
			c-24.626,50.699-68.835,139.308-92.308,172.114c0,0-0.04,18.015,22.025,29.48c0,0,150.072-101.024,193.329-109.64
			c0,0,23.883-23.283,60.697-58.922c-20.121,10.308-43.197,20.062-52.827,20.659c-16.772,1.053-36.153-39.438-34.583-53.776
			C-75.417,543.546,76.535,418.309,99.05,419.9c22.541,1.569,29.875,22.518,30.414,37.725c0.205,6.548-13.654,26.546-30.414,48.012
			c113.259-108.669,256.184-243.843,297.084-273.841c0,0,0.414-10.66-3.139-24.688C410.681,191.76,416.695,169.096,406.14,154.428z
			 M-209.265,737.024c0,0-2.542-32.479-33.638-43.818C-242.902,693.206-190.674,669.571-209.265,737.024z"/>
	</g>
	<g>
		<path d="M31.384,0h-0.16c0,0,1.344,5.294,0.156,6.419c-0.498,0.473-2.207-0.609-4.135-2.916c-1.709-2.042-3.356-1.948-3.896-1.834
			c-0.539,0.116-4.087,1.027-4.087,5.894l0.083,0.021c-0.379-0.085-0.773-0.163-1.174-0.229l-2.477,5.076l-0.069-0.011
			c6.547,1.042,7.002,2.823,7.002,2.823l0,0c0.812-1.498,1.373-2.435,1.437-2.802c0.08-0.456,0.231-3.427-3.503-4.544
			c-0.15-0.045-0.311-0.089-0.473-0.132l0.065,0.017c0,0,0.478-4.448,3.413-4.861c2-0.28,3.953,2.325,3.953,2.325
			s3.193,3.646,4.328,2.02C33.287,5.2,31.384,0,31.384,0z"/>
		<path d="M6.51,11.708c2.922,0.062,5.316,0.229,7.277,0.457c0.066,0.008,0.127,0.017,0.192,0.023l-0.057-0.008l4.25-4.83
			c-2.088-0.354-4.35-0.434-5.466,0.121C10.81,8.412,2.185,13.772,0.38,19.643c-1.291,4.197,0.844,8.339,4.275,9.897
			c1.572,0.714,8.506,3.503,12.841-4.414c1.844-3.369,3.459-6.701,4.541-8.771l-0.018,0.03C19.119,13.021,6.51,11.708,6.51,11.708z"
			/>
	</g>
</g>
</svg>
