<?xml version="1.0" encoding="utf-8"?>
<!-- Generator: Adobe Illustrator 16.0.4, SVG Export Plug-In . SVG Version: 6.00 Build 0)  -->
<!DOCTYPE svg PUBLIC "-//W3C//DTD SVG 1.1//EN" "http://www.w3.org/Graphics/SVG/1.1/DTD/svg11.dtd">
<svg version="1.1" fill="rgb(0, 14, 156)" xmlns="http://www.w3.org/2000/svg" xmlns:xlink="http://www.w3.org/1999/xlink" x="0px" y="0px"
	 width="32px" height="30.57px" viewBox="0 0 32 30.57" enable-background="new 0 0 32 30.57" xml:space="preserve">
<g id="Fondo_1_" display="none">
	<rect id="Fondo" x="-473.888" y="-955.773" display="inline" fill="#FB6E92" width="1000" height="2438.351"/>
</g>
<g id="Guias">
</g>
<g id="Icons">
	<g display="none" opacity="0.2">
		<path display="inline" fill="#FFFFFF" d="M-63.879,520.747c-11.282,3.636-35.885,28.281-38.51,36.153
			c-2.621,7.851,12.065,36.153,18.865,37.705c6.793,1.59,56.584-20.437,58.154-28.284C-23.799,558.45-52.597,517.068-63.879,520.747
			z"/>
		<path display="inline" fill="#FFFFFF" d="M39.09,440.589c-10.498,0.494-88.546,59.727-88.034,69.146
			c0.519,9.423,29.36,46.629,37.729,47.95c8.363,1.302,70.221-78.341,72.307-88.813C63.178,458.376,49.562,440.05,39.09,440.589z"/>
		<path display="inline" fill="#FFFFFF" d="M354.024,154.145c-10.933-15.146-35.498-16.261-56.115-3.017
			c-7.87-4.009-17.023-7.232-27.767-9.215c0,0-391.394,317.515-477.854,378.833c0,0-3.302,7.003-8.776,18.407
			c98.109,68.715,86.957,120.567,86.957,120.567c-27.149-66.916-95.885-102.037-95.905-102.037
			c-24.626,50.699-68.835,139.308-92.308,172.114c0,0-0.04,18.016,22.025,29.48c0,0,150.072-101.024,193.329-109.64
			c0,0,23.883-23.282,60.697-58.922c-20.121,10.309-43.197,20.062-52.827,20.659c-16.772,1.053-36.153-39.437-34.583-53.776
			c1.57-14.338,153.521-139.573,176.039-137.983c22.539,1.57,29.875,22.518,30.414,37.725c0.205,6.548-13.656,26.546-30.414,48.012
			c113.258-108.669,256.182-243.843,297.083-273.84c0,0,0.414-10.661-3.14-24.688C358.566,191.477,364.579,168.812,354.024,154.145z
			 M-261.38,736.741c0,0-2.542-32.479-33.638-43.818C-295.018,692.923-242.789,669.288-261.38,736.741z"/>
	</g>
	<path display="none" opacity="0.5" fill="#71C8EA" enable-background="new    " d="M1307.167,470.404l3.333,3.333
		c0,0,17-13.666,32.5-11.833c0,0,21-27.999,50-37.833c0,0,17.667-9.834,7.167-30.667s-24.327-12.938-31.167-8
		c-9.583,6.916-39.771,40.321-51.5,56.333C1317.5,441.737,1321,458.071,1307.167,470.404z"/>
	<path d="M31.991,11.551c-0.169-0.889-1.06-2.583-1.693-2.879c-0.351-0.163-8.76,1.081-16.463,2.464
		c-0.119-0.562-0.824-4.371,1.59-5.677c1.777-0.961,4.515,0.804,4.515,0.804s4.265,2.305,4.761,0.384
		C25.329,4.212,21.734,0,21.734,0l-0.15,0.057c0,0,3.104,4.493,2.383,5.962c-0.302,0.615-2.281,0.196-4.892-1.292
		c-2.313-1.319-3.825-0.658-4.291-0.362c-0.464,0.296-3.461,2.38-1.786,6.923c-5.914,1.077-11.214,2.208-11.83,2.806
		c-1.439,1.396-1.228,15.242-1.016,15.75c0.211,0.509,0.298,0.402,0.522,0.706c0.225,0.304,27.564-2.562,28.327-3.069
		C29.764,26.969,32.161,12.44,31.991,11.551z M27.497,11.997c0.378,0.212,0.239,2.544,0.03,3.35l-3.379,0.47
		c-0.106-0.021-0.193-0.044-0.267-0.073l0.159-3.291C24.912,12.103,27.13,11.791,27.497,11.997z M1.912,25.827l3.74-0.539v2.52
		l-3.639,0.436C1.815,27.805,1.79,26.557,1.912,25.827z M2.05,23.519c-0.225-0.329-0.267-1.62-0.156-2.412l3.758-0.595v2.646
		l-3.419,0.476C2.148,23.601,2.081,23.563,2.05,23.519z M18.402,21.384l-3.317,0.463L15.222,19l3.18-0.503V21.384z M10.972,19.672
		l3.118-0.492v2.805l-3.251,0.452L10.972,19.672z M9.839,22.574l-3.191,0.444l0.13-2.686L9.84,19.85L9.839,22.574L9.839,22.574z
		 M19.413,21.244l0.142-2.929l3.098-0.489v2.967L19.413,21.244z M6.544,25.159l3.295-0.476v2.621l-3.418,0.409L6.544,25.159z
		 M10.736,24.555l3.354-0.483v2.725l-3.482,0.417L10.736,24.555z M14.983,23.942l3.417-0.493v2.83l-3.551,0.426L14.983,23.942z
		 M22.652,22.836v2.936l-3.479,0.416l0.139-2.868L22.652,22.836z M27.16,20.166l-3.36,0.468c-0.056-0.01-0.104-0.021-0.151-0.033
		l0.143-2.953l3.488-0.552C27.456,17.786,27.333,19.503,27.16,20.166z M22.652,16.023l-3.008,0.419l0.151-3.131
		c0.69-0.256,2.069-0.483,2.856-0.493V16.023z M18.402,16.615l-3.085,0.429l0.149-3.098c0.653-0.268,2.112-0.517,2.937-0.527V16.615
		z M9.839,17.806l-2.959,0.41l0.16-3.312c0.66-0.251,1.992-0.477,2.799-0.5V17.806z M23.4,25.681l0.145-2.975l3.78-0.545
		c0.125,0.959-0.068,2.857-0.265,3.068c-0.004,0.004-0.015,0.01-0.02,0.014L23.4,25.681z M14.089,13.913v3.302l-3.02,0.419
		l0.155-3.195C11.861,14.177,13.256,13.936,14.089,13.913z M2.418,15.725c0.219-0.325,2.207-0.702,3.233-0.721v3.384L2.59,18.813
		c-0.079-0.031-0.142-0.066-0.171-0.109C2.12,18.267,2.143,16.135,2.418,15.725z"/>
</g>
</svg>
