<?xml version="1.0" encoding="utf-8"?>
<!-- Generator: Adobe Illustrator 16.0.4, SVG Export Plug-In . SVG Version: 6.00 Build 0)  -->
<!DOCTYPE svg PUBLIC "-//W3C//DTD SVG 1.1//EN" "http://www.w3.org/Graphics/SVG/1.1/DTD/svg11.dtd">
<svg version="1.1" fill="rgb(0, 14, 156)" xmlns="http://www.w3.org/2000/svg" xmlns:xlink="http://www.w3.org/1999/xlink" x="0px" y="0px"
	 width="31.311px" height="31.92px" viewBox="0 0 31.311 31.92" enable-background="new 0 0 31.311 31.92" xml:space="preserve">
<g id="Fondo_1_" display="none">
	<rect id="Fondo" x="-526.308" y="-955.562" display="inline" fill="#FB6E92" width="1000" height="2438.351"/>
</g>
<g id="Guias">
</g>
<g id="Icons">
	<g display="none" opacity="0.2">
		<path display="inline" fill="#FFFFFF" d="M-116.299,520.958c-11.282,3.636-35.885,28.281-38.51,36.153
			c-2.621,7.851,12.064,36.153,18.865,37.705c6.793,1.59,56.584-20.437,58.153-28.284
			C-76.219,558.661-105.017,517.279-116.299,520.958z"/>
		<path display="inline" fill="#FFFFFF" d="M-13.33,440.8c-10.498,0.494-88.546,59.727-88.034,69.146
			c0.52,9.423,29.36,46.629,37.729,47.95c8.363,1.302,70.221-78.341,72.307-88.813C10.758,458.587-2.858,440.261-13.33,440.8z"/>
		<path display="inline" fill="#FFFFFF" d="M301.604,154.354c-10.933-15.145-35.498-16.26-56.115-3.016
			c-7.87-4.009-17.023-7.232-27.767-9.215c0,0-391.394,317.515-477.854,378.833c0,0-3.302,7.003-8.776,18.407
			c98.109,68.715,86.957,120.567,86.957,120.567c-27.148-66.916-95.885-102.037-95.904-102.037
			c-24.626,50.699-68.835,139.308-92.309,172.114c0,0-0.04,18.016,22.025,29.48c0,0,150.072-101.024,193.329-109.64
			c0,0,23.883-23.282,60.697-58.922c-20.121,10.309-43.197,20.062-52.827,20.659c-16.772,1.053-36.153-39.437-34.583-53.776
			C-179.951,543.476-28,418.239-5.482,419.829c22.54,1.57,29.875,22.518,30.414,37.725c0.205,6.548-13.655,26.546-30.414,48.013
			C107.776,396.897,250.7,261.724,291.602,231.726c0,0,0.414-10.662-3.141-24.688C306.146,191.688,312.159,169.022,301.604,154.354z
			 M-313.8,736.952c0,0-2.542-32.479-33.638-43.818C-347.438,693.134-295.209,669.499-313.8,736.952z"/>
	</g>
	<path display="none" opacity="0.5" fill="#71C8EA" enable-background="new    " d="M1254.747,470.615l3.333,3.333
		c0,0,17-13.666,32.5-11.833c0,0,21-27.999,50-37.833c0,0,17.667-9.834,7.167-30.667s-24.327-12.938-31.167-8
		c-9.583,6.915-39.771,40.321-51.5,56.333C1265.08,441.948,1268.58,458.282,1254.747,470.615z"/>
	<g>
		<path d="M2.209,26.569c0,0-1.078,3.32-2.209,4.48c0,0,0.338,0.357,1.209,0.869c0,0,2.238-2.312,3.439-3.133
			C4.648,28.787,4.301,26.084,2.209,26.569z"/>
		<path d="M30.305,4.062C26.391-3.411,19.98,1.715,19.98,1.715c8.543,2.505,7.371,13.036,7.371,13.036
			C33.951,10.838,30.305,4.062,30.305,4.062z"/>
		<path d="M14.096,19.202c2.027-2.604,12.12-8.984,12.133-8.992c-0.438-1.187-0.945-2.162-1.489-2.966
			c-2.796,1.178-13.249,9.877-13.249,9.877c3.717-4.964,12.103-11.259,12.117-11.27c-2.716-2.761-5.761-2.262-5.761-2.262
			C12.734,8.257,6.18,16.194,3.714,19.244c-0.311,0.356-0.644,0.771-1.001,1.247c0,0,2.854-2.358,3.785-1.207
			c0.934,1.152,0.658,3.457,0.658,3.457s1.865-2.358,2.963-1.152c1.097,1.206,0.383,2.854,0,3.291c0,0,1.59-1.591,1.92-0.986
			c0.328,0.603,0.054,1.975-0.934,3.235c0,0,0.182-0.21,0.436-0.537c7.552-9.265,15.812-11.841,15.812-11.841
			c-0.166-1.094-0.377-2.079-0.621-2.972C22.965,13.326,14.096,19.202,14.096,19.202z"/>
		<path d="M11.408,24.88c-0.056-0.438-1.289,0-1.289,0c0.191-0.438-0.083-1.617-0.604-2.275c-0.521-0.658-2.359,0.138-2.359,0.138
			c0-0.55-0.74-1.947-1.563-2.524c-0.821-0.574-2.88,0.274-2.88,0.274c0.357,3.1-0.504,6.077-0.504,6.077
			c4.367-1.648,2.439,2.219,2.439,2.219c2.881-1.698,6.457-1.658,6.457-1.658C11.929,25.729,11.408,24.88,11.408,24.88z"/>
	</g>
</g>
</svg>
