<?xml version="1.0" encoding="utf-8"?>
<!-- Generator: Adobe Illustrator 16.0.4, SVG Export Plug-In . SVG Version: 6.00 Build 0)  -->
<!DOCTYPE svg PUBLIC "-//W3C//DTD SVG 1.1//EN" "http://www.w3.org/Graphics/SVG/1.1/DTD/svg11.dtd">
<svg version="1.1" fill="rgb(0, 14, 156)" xmlns="http://www.w3.org/2000/svg" xmlns:xlink="http://www.w3.org/1999/xlink" x="0px" y="0px"
	 width="32px" height="32px" viewBox="0 0 32 32" enable-background="new 0 0 32 32" xml:space="preserve">
<g id="Fondo_1_" display="none">
	<rect id="Fondo" x="-578.184" y="-955.522" display="inline" fill="#FB6E92" width="1000" height="2438.351"/>
</g>
<g id="Guias">
</g>
<g id="Icons">
	<g display="none" opacity="0.2">
		<path display="inline" fill="#FFFFFF" d="M-168.175,520.998c-11.282,3.636-35.885,28.281-38.51,36.153
			c-2.621,7.851,12.065,36.153,18.865,37.705c6.793,1.59,56.584-20.437,58.154-28.284
			C-128.095,558.701-156.893,517.319-168.175,520.998z"/>
		<path display="inline" fill="#FFFFFF" d="M-65.206,440.84c-10.498,0.494-88.546,59.727-88.034,69.146
			c0.519,9.423,29.36,46.629,37.729,47.951c8.363,1.301,70.221-78.342,72.307-88.814C-41.118,458.627-54.734,440.301-65.206,440.84z
			"/>
		<path display="inline" fill="#FFFFFF" d="M249.729,154.396c-10.932-15.146-35.498-16.261-56.115-3.017
			c-7.869-4.009-17.022-7.233-27.766-9.215c0,0-391.394,317.515-477.854,378.833c0,0-3.302,7.003-8.776,18.407
			c98.109,68.715,86.957,120.567,86.957,120.567c-27.149-66.916-95.885-102.037-95.905-102.037
			c-24.626,50.699-68.835,139.308-92.308,172.114c0,0-0.04,18.016,22.025,29.48c0,0,150.072-101.024,193.329-109.64
			c0,0,23.883-23.282,60.697-58.922c-20.121,10.309-43.197,20.062-52.827,20.659c-16.772,1.053-36.153-39.437-34.583-53.776
			c1.57-14.338,153.521-139.573,176.038-137.983c22.54,1.569,29.875,22.518,30.414,37.725c0.205,6.548-13.655,26.546-30.414,48.013
			c113.258-108.668,256.183-243.842,297.086-273.84c0,0,0.414-10.662-3.141-24.688C254.271,191.729,260.283,169.062,249.729,154.396
			z M-365.676,736.992c0,0-2.542-32.479-33.638-43.818C-399.313,693.174-347.085,669.539-365.676,736.992z"/>
	</g>
	<path display="none" opacity="0.5" fill="#71C8EA" enable-background="new    " d="M1202.871,470.655l3.333,3.333
		c0,0,17-13.666,32.5-11.833c0,0,21-27.999,50-37.833c0,0,17.667-9.834,7.167-30.668c-10.5-20.832-24.327-12.937-31.167-8
		c-9.583,6.916-39.771,40.322-51.5,56.334C1213.204,441.988,1216.704,458.322,1202.871,470.655z"/>
	<path d="M0,17.027c0,0,5.284,6.066,11.059,14.973c0,0,8.807-12.232,20.941-20.942L25.541,0c0,0-8.857,10.588-14.776,21.333
		c0,0-4.894-6.165-8.221-9.101L0,17.027z"/>
</g>
</svg>
