<?xml version="1.0" encoding="utf-8"?>
<!-- Generator: Adobe Illustrator 16.0.4, SVG Export Plug-In . SVG Version: 6.00 Build 0)  -->
<!DOCTYPE svg PUBLIC "-//W3C//DTD SVG 1.1//EN" "http://www.w3.org/Graphics/SVG/1.1/DTD/svg11.dtd">
<svg version="1.1" fill="rgb(0, 14, 156)" xmlns="http://www.w3.org/2000/svg" xmlns:xlink="http://www.w3.org/1999/xlink" x="0px" y="0px"
	 width="32px" height="31.482px" viewBox="0 0 32 31.482" enable-background="new 0 0 32 31.482" xml:space="preserve">
<g id="Fondo_1_" display="none">
	<rect id="Fondo" x="-631.169" y="-955.739" display="inline" fill="#FB6E92" width="1000" height="2438.352"/>
</g>
<g id="Guias">
</g>
<g id="Icons">
	<g display="none" opacity="0.2">
		<path display="inline" fill="#FFFFFF" d="M-221.16,520.781c-11.282,3.636-35.885,28.281-38.51,36.152
			c-2.621,7.852,12.065,36.154,18.865,37.705c6.793,1.591,56.584-20.436,58.154-28.283
			C-181.08,558.485-209.878,517.104-221.16,520.781z"/>
		<path display="inline" fill="#FFFFFF" d="M-118.191,440.623c-10.498,0.494-88.546,59.726-88.034,69.146
			c0.519,9.424,29.36,46.63,37.729,47.951c8.363,1.302,70.221-78.341,72.307-88.813C-94.104,458.41-107.72,440.084-118.191,440.623z
			"/>
		<path display="inline" fill="#FFFFFF" d="M196.743,154.179c-10.933-15.145-35.498-16.26-56.115-3.016
			c-7.87-4.01-17.022-7.233-27.767-9.215c0,0-391.394,317.515-477.854,378.833c0,0-3.302,7.003-8.776,18.406
			c98.109,68.716,86.957,120.568,86.957,120.568c-27.149-66.916-95.885-102.037-95.905-102.037
			c-24.626,50.699-68.835,139.308-92.308,172.114c0,0-0.04,18.015,22.025,29.479c0,0,150.072-101.023,193.329-109.639
			c0,0,23.883-23.283,60.697-58.922c-20.121,10.308-43.197,20.062-52.827,20.659c-16.772,1.053-36.153-39.438-34.583-53.776
			c1.57-14.338,153.521-139.574,176.038-137.983c22.54,1.569,29.875,22.518,30.414,37.725c0.205,6.548-13.655,26.546-30.414,48.012
			C2.914,396.72,145.838,261.546,186.74,231.548c0,0,0.414-10.661-3.141-24.688C201.285,191.511,207.298,168.847,196.743,154.179z
			 M-418.661,736.776c0,0-2.542-32.479-33.638-43.818C-452.299,692.957-400.07,669.323-418.661,736.776z"/>
	</g>
	<path display="none" opacity="0.5" fill="#71C8EA" enable-background="new    " d="M1149.886,470.438l3.333,3.334
		c0,0,17-13.666,32.5-11.834c0,0,21-27.998,50-37.832c0,0,17.667-9.834,7.167-30.668c-10.5-20.833-24.327-12.937-31.167-8
		c-9.583,6.916-39.771,40.322-51.5,56.334C1160.219,441.772,1163.719,458.106,1149.886,470.438z"/>
	<path d="M32,8.317L27.143,0c0,0-0.637,0.761-1.646,2.048C21.561,2.444,6.396,4.01,0,5.197c0,0,1.246,17.897,1.431,26.286
		c0,0,14.316-0.932,25.393-0.894l-0.235-17.874C28.255,11.206,30.07,9.702,32,8.317z M5.187,27.014L4.113,8.774l18.503-2.913
		c-2.101,2.886-4.571,6.521-6.589,10.186c0,0-3.681-4.637-6.184-6.846L7.93,12.807c0,0,3.975,4.563,8.317,11.262
		c0,0,2.569-3.567,6.714-7.844l-0.43,9.715L5.187,27.014z"/>
</g>
</svg>
