<?xml version="1.0" encoding="utf-8"?>
<!-- Generator: Adobe Illustrator 16.0.4, SVG Export Plug-In . SVG Version: 6.00 Build 0)  -->
<!DOCTYPE svg PUBLIC "-//W3C//DTD SVG 1.1//EN" "http://www.w3.org/Graphics/SVG/1.1/DTD/svg11.dtd">
<svg version="1.1" fill="rgb(0, 14, 156)" xmlns="http://www.w3.org/2000/svg" xmlns:xlink="http://www.w3.org/1999/xlink" x="0px" y="0px"
	 width="29.336px" height="32px" viewBox="0 0 29.336 32" enable-background="new 0 0 29.336 32" xml:space="preserve">
<g id="Fondo_1_" display="none">
	<rect id="Fondo" x="-736.515" y="-955.299" display="inline" fill="#FB6E92" width="1000" height="2438.351"/>
</g>
<g id="Guias">
</g>
<g id="Icons">
	<g display="none" opacity="0.2">
		<path display="inline" fill="#FFFFFF" d="M-326.506,521.222c-11.282,3.637-35.885,28.281-38.51,36.153
			c-2.621,7.851,12.065,36.154,18.865,37.705c6.793,1.59,56.584-20.436,58.154-28.284
			C-286.426,558.925-315.224,517.543-326.506,521.222z"/>
		<path display="inline" fill="#FFFFFF" d="M-223.537,441.062c-10.498,0.494-88.546,59.727-88.034,69.146
			c0.519,9.423,29.36,46.629,37.729,47.951c8.363,1.301,70.221-78.341,72.307-88.814
			C-199.449,458.851-213.065,440.524-223.537,441.062z"/>
		<path display="inline" fill="#FFFFFF" d="M91.396,154.619c-10.932-15.145-35.498-16.26-56.114-3.016
			c-7.87-4.01-17.023-7.233-27.767-9.215c0,0-391.393,317.515-477.854,378.832c0,0-3.302,7.003-8.776,18.407
			c98.109,68.715,86.957,120.568,86.957,120.568c-27.149-66.916-95.885-102.037-95.905-102.037
			c-24.626,50.699-68.835,139.307-92.308,172.114c0,0-0.04,18.015,22.025,29.479c0,0,150.072-101.024,193.329-109.639
			c0,0,23.883-23.283,60.697-58.922c-20.121,10.308-43.197,20.062-52.827,20.658c-16.772,1.054-36.153-39.437-34.583-53.775
			c1.57-14.338,153.521-139.574,176.038-137.984c22.54,1.57,29.875,22.519,30.414,37.726c0.205,6.548-13.655,26.546-30.414,48.012
			c113.26-108.668,256.184-243.842,297.086-273.84c0,0,0.414-10.661-3.14-24.688C95.939,191.951,101.952,169.287,91.396,154.619z
			 M-524.007,737.216c0,0-2.542-32.478-33.638-43.817C-557.645,693.396-505.416,669.763-524.007,737.216z"/>
	</g>
	<path display="none" opacity="0.5" fill="#71C8EA" enable-background="new    " d="M1044.54,470.879l3.333,3.333
		c0,0,17-13.666,32.5-11.833c0,0,21-27.999,50-37.833c0,0,17.667-9.834,7.167-30.667s-24.327-12.938-31.167-8
		c-9.583,6.916-39.771,40.322-51.5,56.333C1054.873,442.212,1058.373,458.546,1044.54,470.879z"/>
	<path d="M26.307,23.509l-0.625-13.471l3.654-3.411L23.787,0L21.35,3.168C15.426,3.808,4.522,5.035,0,5.875
		c0,0,1.238,17.788,1.422,26.125c0,0,14.229-0.926,25.238-0.889l-0.15-3.245l2.826-2.007L26.307,23.509z M22.42,20.491l-4.333-3.365
		l4.364-4.073L22.42,20.491z M4.972,24.445L4.196,11.269l6.059,6.313L4.972,24.445z M13.724,21.197l5.281,5.504l-11.972,0.74
		L13.724,21.197z M13.404,13.49L7.486,8.896l10.759-1.694L13.404,13.49z"/>
</g>
</svg>
