<?xml version="1.0" encoding="utf-8"?>
<!-- Generator: Adobe Illustrator 16.0.4, SVG Export Plug-In . SVG Version: 6.00 Build 0)  -->
<!DOCTYPE svg PUBLIC "-//W3C//DTD SVG 1.1//EN" "http://www.w3.org/Graphics/SVG/1.1/DTD/svg11.dtd">
<svg version="1.1" fill="rgb(0, 14, 156)" xmlns="http://www.w3.org/2000/svg" xmlns:xlink="http://www.w3.org/1999/xlink" x="0px" y="0px"
	 width="31.714px" height="32px" viewBox="0 0 31.714 32" enable-background="new 0 0 31.714 32" xml:space="preserve">
<g id="Fondo_1_" display="none">
	<rect id="Fondo" x="-786.093" y="-955.299" display="inline" fill="#FB6E92" width="1000" height="2438.351"/>
</g>
<g id="Guias">
</g>
<g id="Icons">
	<g display="none" opacity="0.2">
		<path display="inline" fill="#FFFFFF" d="M-376.084,521.222c-11.282,3.637-35.885,28.281-38.51,36.153
			c-2.621,7.851,12.064,36.154,18.865,37.705c6.793,1.59,56.584-20.436,58.154-28.284
			C-336.004,558.925-364.802,517.543-376.084,521.222z"/>
		<path display="inline" fill="#FFFFFF" d="M-273.115,441.062c-10.498,0.494-88.546,59.727-88.034,69.146
			c0.519,9.423,29.36,46.629,37.729,47.951c8.363,1.301,70.221-78.341,72.307-88.814
			C-249.027,458.851-262.644,440.524-273.115,441.062z"/>
		<path display="inline" fill="#FFFFFF" d="M41.819,154.619c-10.932-15.145-35.498-16.26-56.115-3.016
			c-7.87-4.01-17.023-7.233-27.767-9.215c0,0-391.393,317.515-477.854,378.832c0,0-3.302,7.003-8.776,18.407
			c98.109,68.715,86.957,120.568,86.957,120.568c-27.149-66.916-95.885-102.037-95.905-102.037
			c-24.626,50.699-68.835,139.307-92.308,172.114c0,0-0.04,18.015,22.025,29.479c0,0,150.072-101.024,193.329-109.639
			c0,0,23.883-23.283,60.697-58.922c-20.121,10.308-43.197,20.062-52.827,20.658c-16.772,1.054-36.153-39.437-34.583-53.775
			c1.57-14.338,153.521-139.574,176.038-137.984c22.54,1.57,29.875,22.519,30.414,37.726c0.205,6.548-13.655,26.546-30.414,48.012
			C-152.01,397.16-9.086,261.986,31.816,231.988c0,0,0.414-10.661-3.141-24.688C46.361,191.951,52.375,169.287,41.819,154.619z
			 M-573.585,737.216c0,0-2.542-32.478-33.638-43.817C-607.223,693.396-554.994,669.763-573.585,737.216z"/>
	</g>
	<path display="none" opacity="0.5" fill="#71C8EA" enable-background="new    " d="M994.962,470.879l3.332,3.333
		c0,0,17-13.666,32.5-11.833c0,0,21-27.999,50-37.833c0,0,17.668-9.834,7.168-30.667s-24.328-12.938-31.168-8
		c-9.582,6.916-39.771,40.322-51.5,56.333C1005.294,442.212,1008.794,458.546,994.962,470.879z"/>
	<polygon points="31.714,10.039 20.41,11.675 21.024,0 9.866,2.736 10.537,13.104 0,14.629 0.689,22.177 11.107,21.9 11.761,32 
		19.339,32 19.884,21.668 30.003,21.4 	"/>
</g>
</svg>
