<?xml version="1.0" encoding="utf-8"?>
<!-- Generator: Adobe Illustrator 16.0.4, SVG Export Plug-In . SVG Version: 6.00 Build 0)  -->
<!DOCTYPE svg PUBLIC "-//W3C//DTD SVG 1.1//EN" "http://www.w3.org/Graphics/SVG/1.1/DTD/svg11.dtd">
<svg version="1.1" fill="rgb(0, 14, 156)" xmlns="http://www.w3.org/2000/svg" xmlns:xlink="http://www.w3.org/1999/xlink" x="0px" y="0px"
	 width="29.493px" height="32px" viewBox="0 0 29.493 32" enable-background="new 0 0 29.493 32" xml:space="preserve">
<g id="Fondo_1_" display="none">
	<rect id="Fondo" x="-839.203" y="-955.48" display="inline" fill="#FB6E92" width="1000" height="2438.351"/>
</g>
<g id="Guias">
</g>
<g id="Icons">
	<g display="none" opacity="0.2">
		<path display="inline" fill="#FFFFFF" d="M-429.193,521.04c-11.282,3.636-35.885,28.281-38.51,36.153
			c-2.621,7.851,12.065,36.153,18.865,37.705c6.793,1.59,56.584-20.437,58.154-28.284
			C-389.113,558.743-417.911,517.361-429.193,521.04z"/>
		<path display="inline" fill="#FFFFFF" d="M-326.225,440.882c-10.498,0.494-88.546,59.727-88.034,69.146
			c0.519,9.423,29.36,46.629,37.729,47.95c8.363,1.302,70.221-78.341,72.307-88.813
			C-302.137,458.669-315.753,440.343-326.225,440.882z"/>
		<path display="inline" fill="#FFFFFF" d="M-11.29,154.438c-10.932-15.145-35.498-16.26-56.115-3.016
			c-7.87-4.009-17.023-7.232-27.767-9.215c0,0-391.393,317.515-477.854,378.833c0,0-3.302,7.003-8.776,18.407
			c98.109,68.715,86.957,120.567,86.957,120.567c-27.149-66.916-95.885-102.036-95.905-102.036
			c-24.626,50.698-68.835,139.307-92.308,172.113c0,0-0.04,18.016,22.025,29.48c0,0,150.072-101.024,193.329-109.64
			c0,0,23.883-23.282,60.697-58.922c-20.121,10.309-43.197,20.062-52.827,20.659c-16.772,1.053-36.153-39.437-34.583-53.775
			S-340.896,418.32-318.379,419.91c22.54,1.57,29.875,22.518,30.414,37.725c0.205,6.548-13.655,26.546-30.414,48.013
			c113.26-108.669,256.184-243.843,297.086-273.841c0,0,0.414-10.66-3.14-24.688C-6.748,191.77-0.735,169.105-11.29,154.438z
			 M-626.694,737.034c0,0-2.542-32.479-33.638-43.818C-660.332,693.216-608.104,669.581-626.694,737.034z"/>
	</g>
	<path display="none" opacity="0.5" fill="#71C8EA" enable-background="new    " d="M941.854,470.697l3.332,3.333
		c0,0,17-13.666,32.5-11.833c0,0,21-27.999,50-37.833c0,0,17.668-9.834,7.168-30.667s-24.328-12.938-31.168-8
		c-9.582,6.916-39.771,40.321-51.5,56.333C952.186,442.03,955.686,458.364,941.854,470.697z"/>
	<g>
		<polygon points="20.51,18.336 14.108,19.77 18.79,9.259 11.272,11.841 9.789,24.148 12.771,23.305 10.573,32 		"/>
		<path d="M25.333,9.172c0.533-2.58,0.447-5.738-2.146-7.844c-3.848-3.12-8.076-0.231-9.638,3.389c-1.519-1.811-3.838-3.069-7.084-1
			c-3.842,2.45-3.949,5.288-2.541,7.287c-2.117,0.186-4.327,1.18-3.86,4.657c0.619,4.606,4.891,5.542,9.258,5.278l-0.302-9.658
			L21.61,7.109l-5.398,11.274l6.893-2.353l-2,3.373c4.803-0.957,8.475-2.618,8.391-5.94C29.383,9.161,27.194,8.739,25.333,9.172z"/>
	</g>
</g>
</svg>
