<?xml version="1.0" encoding="utf-8"?>
<!-- Generator: Adobe Illustrator 16.0.4, SVG Export Plug-In . SVG Version: 6.00 Build 0)  -->
<!DOCTYPE svg PUBLIC "-//W3C//DTD SVG 1.1//EN" "http://www.w3.org/Graphics/SVG/1.1/DTD/svg11.dtd">
<svg version="1.1" fill="rgb(0, 14, 156)" xmlns="http://www.w3.org/2000/svg" xmlns:xlink="http://www.w3.org/1999/xlink" x="0px" y="0px"
	 width="25.34px" height="32px" viewBox="0 0 25.34 32" enable-background="new 0 0 25.34 32" xml:space="preserve">
<g id="Fondo_1_" display="none">
	<rect id="Fondo" x="-114.575" y="-1019.52" display="inline" fill="#FB6E92" width="1000" height="2438.351"/>
</g>
<g id="Guias">
</g>
<g id="Icons">
	<g display="none" opacity="0.2">
		<path display="inline" fill="#FFFFFF" d="M295.434,457.001c-11.281,3.636-35.885,28.281-38.51,36.153
			c-2.621,7.851,12.064,36.153,18.865,37.705c6.793,1.59,56.584-20.437,58.154-28.284
			C335.514,494.704,306.716,453.322,295.434,457.001z"/>
		<path display="inline" fill="#FFFFFF" d="M398.403,376.843c-10.498,0.494-88.546,59.727-88.034,69.146
			c0.519,9.423,29.359,46.629,37.729,47.951c8.363,1.301,70.222-78.342,72.308-88.814
			C422.491,394.63,408.875,376.305,398.403,376.843z"/>
		<path display="inline" fill="#FFFFFF" d="M713.337,90.398c-10.932-15.146-35.498-16.26-56.115-3.017
			c-7.87-4.009-17.022-7.233-27.767-9.215c0,0-391.393,317.515-477.854,378.833c0,0-3.303,7.003-8.776,18.407
			c98.108,68.715,86.956,120.567,86.956,120.567c-27.148-66.916-95.885-102.036-95.904-102.036
			c-24.626,50.698-68.835,139.307-92.309,172.113c0,0-0.039,18.016,22.025,29.48c0,0,150.072-101.024,193.329-109.64
			c0,0,23.884-23.282,60.697-58.922c-20.121,10.309-43.197,20.062-52.827,20.659c-16.771,1.053-36.152-39.437-34.583-53.775
			S383.73,354.28,406.248,355.87c22.54,1.569,29.875,22.519,30.414,37.726c0.205,6.547-13.655,26.545-30.414,48.012
			c113.258-108.67,256.182-243.844,297.084-273.842c0,0,0.414-10.66-3.141-24.688C717.879,127.73,723.892,105.066,713.337,90.398z
			 M97.934,672.995c0,0-2.543-32.479-33.639-43.818C64.295,629.177,116.523,605.542,97.934,672.995z"/>
	</g>
	<path display="none" opacity="0.5" fill="#71C8EA" enable-background="new    " d="M1666.48,406.658l3.332,3.333
		c0,0,17-13.666,32.5-11.833c0,0,21-27.999,50-37.833c0,0,17.668-9.834,7.168-30.667s-24.327-12.938-31.168-8
		c-9.582,6.916-39.771,40.322-51.5,56.333C1676.812,377.991,1680.312,394.325,1666.48,406.658z"/>
	<path d="M17.139,32l-1.994-5.371c0,0-3.473,2.686-3.991,2.686s-5.045-2.147-5.448-2.686s0-4.298,0-4.298s-3.319,0.326-3.837,0
		c-0.518-0.325-2.033-4.776-1.688-5.447c0.345-0.672,2.187-2.13,3.836-1.612c1.65,0.519,4.297,2.457,4.297,2.457l2.993,1.688
		c0,0-10.858-12.221-11.126-12.892c-0.269-0.672-0.211-2.188,0-2.763C0.392,3.186,1.85,0.597,3.097,0.155
		C4.343-0.286,5.84,0.309,6.511,0.75c0.671,0.441,8.632,16.594,8.632,16.594s-1.695-5.413-1.355-5.968s3.945-1.054,5.117-0.209
		c1.17,0.844,1.842,5.717,1.842,5.717s-0.288-4.547,0.441-4.95c0.729-0.402,3.586,1.918,4.086,4.066
		c0.498,2.148-1.918,8.966-2.609,9.4c-0.689,0.436-4.682,0.461-4.682,0.461l2.609,5.063L17.139,32z"/>
</g>
</svg>
