<?xml version="1.0" encoding="utf-8"?>
<!-- Generator: Adobe Illustrator 16.0.4, SVG Export Plug-In . SVG Version: 6.00 Build 0)  -->
<!DOCTYPE svg PUBLIC "-//W3C//DTD SVG 1.1//EN" "http://www.w3.org/Graphics/SVG/1.1/DTD/svg11.dtd">
<svg version="1.1" fill="rgb(0, 14, 156)" xmlns="http://www.w3.org/2000/svg" xmlns:xlink="http://www.w3.org/1999/xlink" x="0px" y="0px"
	 width="29.797px" height="32px" viewBox="0 0 29.797 32" enable-background="new 0 0 29.797 32" xml:space="preserve">
<g id="Fondo_1_" display="none">
	<rect id="Fondo" x="-163.067" y="-1019.522" display="inline" fill="#FB6E92" width="999.999" height="2438.351"/>
</g>
<g id="Guias">
</g>
<g id="Icons">
	<g display="none" opacity="0.2">
		<path display="inline" fill="#FFFFFF" d="M246.942,456.999c-11.281,3.635-35.885,28.281-38.51,36.152
			c-2.621,7.852,12.064,36.154,18.865,37.705c6.793,1.59,56.584-20.436,58.154-28.283
			C287.022,494.702,258.224,453.319,246.942,456.999z"/>
		<path display="inline" fill="#FFFFFF" d="M349.911,376.84c-10.498,0.494-88.545,59.727-88.033,69.146
			c0.519,9.422,29.359,46.629,37.729,47.949c8.363,1.303,70.221-78.34,72.307-88.812
			C373.999,394.627,360.381,376.301,349.911,376.84z"/>
		<path display="inline" fill="#FFFFFF" d="M664.844,90.396c-10.932-15.146-35.498-16.261-56.113-3.017
			c-7.871-4.008-17.023-7.232-27.768-9.215c0,0-391.394,317.516-477.854,378.834c0,0-3.302,7.002-8.776,18.406
			c98.109,68.715,86.957,120.568,86.957,120.568c-27.148-66.916-95.885-102.037-95.904-102.037
			C60.758,544.635,16.549,633.243-6.922,666.051c0,0-0.04,18.016,22.025,29.48c0,0,150.071-101.025,193.329-109.641
			c0,0,23.883-23.281,60.697-58.922c-20.121,10.309-43.197,20.062-52.828,20.66c-16.771,1.053-36.152-39.438-34.582-53.775
			c1.57-14.34,153.521-139.575,176.037-137.984c22.541,1.569,29.875,22.518,30.414,37.725c0.205,6.547-13.654,26.545-30.414,48.012
			c113.26-108.669,256.184-243.843,297.086-273.841c0,0,0.414-10.661-3.141-24.688C669.387,127.728,675.401,105.063,664.844,90.396z
			 M49.441,672.993c0,0-2.542-32.479-33.638-43.818C15.803,629.174,68.032,605.54,49.441,672.993z"/>
	</g>
	<path display="none" opacity="0.5" fill="#71C8EA" enable-background="new    " d="M1617.989,406.655l3.332,3.334
		c0,0,17-13.666,32.5-11.834c0,0,21-27.998,50-37.833c0,0,17.668-9.834,7.168-30.667c-10.5-20.832-24.328-12.938-31.168-8
		c-9.582,6.916-39.771,40.322-51.5,56.333C1628.321,377.988,1631.821,394.322,1617.989,406.655z"/>
	<path d="M26.279,18.491c0,0,1.101-17.471,0.329-18.253C25.51-0.876,0.468,2.235,0.028,3.114
		c-0.439,0.879,4.393,17.792,4.393,17.792l-2.306,9.008c0,0,1.098,2.086,1.977,2.086c0.878,0,24.493-1.867,25.153-2.416
		c0.658-0.549,0.398-1.838,0.549-2.525C29.943,26.37,26.279,18.491,26.279,18.491z M2.595,4.762
		c0.549-0.659,21.702-2.965,22.141-2.416c0.438,0.549-0.215,13.16-0.435,13.773c-0.219,0.614-17.792,2.482-18.561,2.042
		C4.971,17.722,2.046,5.421,2.595,4.762z M24.885,18.228c0,0-8.82,3.339-18.596,1.69L24.885,18.228z M19.913,27.354
		c-0.301,0.257-7.379,0.717-7.531,0.505c-0.068-0.096,0.03-0.624,0.196-1.183c0.022-0.075,0.047-0.152,0.071-0.229
		c0.004-0.011,0.007-0.021,0.011-0.033c0.022-0.067,0.046-0.137,0.07-0.203c0.006-0.018,0.012-0.032,0.018-0.049
		c0.022-0.062,0.044-0.119,0.067-0.177c0.008-0.021,0.016-0.041,0.024-0.062c0.021-0.051,0.042-0.1,0.063-0.146
		c0.01-0.021,0.02-0.044,0.029-0.062c0.021-0.043,0.041-0.082,0.06-0.12c0.011-0.021,0.022-0.042,0.033-0.062
		c0.02-0.035,0.039-0.064,0.058-0.095c0.011-0.017,0.021-0.035,0.033-0.05c0.02-0.028,0.04-0.051,0.059-0.07
		c0.009-0.011,0.019-0.023,0.028-0.031c0.028-0.025,0.056-0.045,0.083-0.054c0.401-0.127,5.17-0.762,5.493-0.547
		c0.021,0.015,0.043,0.035,0.069,0.062c0.017,0.02,0.034,0.043,0.053,0.066c0.011,0.014,0.021,0.021,0.031,0.037
		s0.022,0.033,0.034,0.051c0.18,0.252,0.416,0.676,0.613,1.104C19.862,26.616,20.063,27.227,19.913,27.354z M26.854,25.85
		c-0.225,0.148-2.805,0.527-6.131,0.938c-0.081-0.272-0.186-0.57-0.301-0.869c2.632-0.291,4.631-0.555,4.812-0.658
		c0.56-0.32-1.396-3.527-1.909-3.725c-0.416-0.158-15.402,0.898-15.585,1.43c-0.184,0.531-1.85,3.505-1.381,3.979
		c0.161,0.162,2.365,0.054,5.211-0.174c-0.093,0.36-0.172,0.717-0.227,1.022c-3.624,0.328-6.503,0.492-6.701,0.254
		c-0.549-0.658,1.428-4.76,1.647-5.491c0.219-0.731,17.852-2.091,18.341-1.867C25.235,20.961,27.514,25.411,26.854,25.85z"/>
</g>
</svg>
