<?xml version="1.0" encoding="utf-8"?>
<!-- Generator: Adobe Illustrator 16.0.4, SVG Export Plug-In . SVG Version: 6.00 Build 0)  -->
<!DOCTYPE svg PUBLIC "-//W3C//DTD SVG 1.1//EN" "http://www.w3.org/Graphics/SVG/1.1/DTD/svg11.dtd">
<svg version="1.1" fill="rgb(0, 14, 156)" xmlns="http://www.w3.org/2000/svg" xmlns:xlink="http://www.w3.org/1999/xlink" x="0px" y="0px"
	 width="32px" height="25.632px" viewBox="0 0 32 25.632" enable-background="new 0 0 32 25.632" xml:space="preserve">
<g id="Fondo_1_" display="none">
	<rect id="Fondo" x="-214.961" y="-1022.154" display="inline" fill="#FB6E92" width="1000" height="2438.351"/>
</g>
<g id="Guias">
</g>
<g id="Icons">
	<g display="none" opacity="0.2">
		<path display="inline" fill="#FFFFFF" d="M195.048,454.367c-11.282,3.635-35.885,28.281-38.51,36.152
			c-2.621,7.852,12.065,36.154,18.864,37.705c6.793,1.59,56.584-20.436,58.154-28.283
			C235.128,492.07,206.331,450.687,195.048,454.367z"/>
		<path display="inline" fill="#FFFFFF" d="M298.018,374.208c-10.498,0.494-88.547,59.725-88.035,69.145
			c0.52,9.424,29.36,46.631,37.729,47.951c8.363,1.303,70.221-78.34,72.307-88.812C322.105,391.996,308.489,373.669,298.018,374.208
			z"/>
		<path display="inline" fill="#FFFFFF" d="M612.952,87.764c-10.933-15.146-35.498-16.261-56.115-3.017
			c-7.87-4.008-17.022-7.232-27.767-9.215c0,0-391.394,317.516-477.854,378.834c0,0-3.302,7.002-8.776,18.406
			c98.109,68.715,86.957,120.568,86.957,120.568c-27.148-66.916-95.885-102.037-95.904-102.037
			C8.866,542.003-35.343,630.611-58.816,663.419c0,0-0.04,18.014,22.025,29.48c0,0,150.072-101.025,193.329-109.641
			c0,0,23.883-23.283,60.696-58.922c-20.121,10.309-43.196,20.062-52.826,20.66c-16.772,1.053-36.153-39.438-34.583-53.777
			c1.569-14.338,153.521-139.573,176.038-137.983c22.54,1.57,29.875,22.519,30.414,37.726c0.205,6.547-13.655,26.545-30.414,48.012
			C419.121,330.305,562.045,195.13,602.947,165.132c0,0,0.414-10.66-3.141-24.688C617.494,125.096,623.506,102.432,612.952,87.764z
			 M-2.453,670.361c0,0-2.542-32.479-33.638-43.818C-36.09,626.542,16.138,602.908-2.453,670.361z"/>
	</g>
	<path display="none" opacity="0.5" fill="#71C8EA" enable-background="new    " d="M1566.094,404.023l3.333,3.334
		c0,0,17-13.667,32.5-11.834c0,0,21-27.999,50-37.833c0,0,17.667-9.834,7.167-30.667s-24.327-12.938-31.167-8
		c-9.583,6.916-39.771,40.322-51.5,56.333C1576.427,375.356,1579.927,391.69,1566.094,404.023z"/>
	<path d="M29.509,8.181c-1.104-0.184-2.146,0.598-2.146,0.598c-0.008,0.011-0.016,0.022-0.025,0.034
		C27.37,7.707,27.364,6.646,27.35,5.7C27.303,2.804,20.178,0,14.203,0C8.228,0,0,2.987,0,5.975c0,0-0.276,18.063,10.066,19.351
		c0,0,2.988,0.689,7.4,0c3.505-0.548,6.31-4.148,7.87-7.263c0,0.002,0,0.006,0,0.006c7.043-1.235,6.655-6.118,6.655-6.118
		C32.129,9.468,30.611,8.365,29.509,8.181z M13.974,12.088C3.402,12.271,1.518,7.951,1.518,7.951
		c3.44-4.366,12.823-4.137,12.823-4.137c8.917,0,11.722,4.137,11.722,4.137C22.385,12.777,13.974,12.088,13.974,12.088z
		 M29.325,13.696c0,0-0.552,1.41-3.033,2.106c0.515-1.541,0.784-3.213,0.926-4.853c0.001-0.003,0.003-0.007,0.005-0.01
		c0,0,0.907-0.599,1.506-0.415C29.325,10.709,30.475,11.674,29.325,13.696z"/>
</g>
</svg>
