<?xml version="1.0" encoding="utf-8"?>
<!-- Generator: Adobe Illustrator 16.0.4, SVG Export Plug-In . SVG Version: 6.00 Build 0)  -->
<!DOCTYPE svg PUBLIC "-//W3C//DTD SVG 1.1//EN" "http://www.w3.org/Graphics/SVG/1.1/DTD/svg11.dtd">
<svg version="1.1" fill="rgb(0, 14, 156)" xmlns="http://www.w3.org/2000/svg" xmlns:xlink="http://www.w3.org/1999/xlink" x="0px" y="0px"
	 width="18.271px" height="32px" viewBox="0 0 18.271 32" enable-background="new 0 0 18.271 32" xml:space="preserve">
<g id="Fondo_1_" display="none">
	<rect id="Fondo" x="-274.87" y="-1019.52" display="inline" fill="#FB6E92" width="1000" height="2438.351"/>
</g>
<g id="Guias">
</g>
<g id="Icons">
	<g display="none" opacity="0.2">
		<path display="inline" fill="#FFFFFF" d="M135.139,457.001c-11.282,3.636-35.886,28.281-38.511,36.153
			c-2.621,7.851,12.065,36.153,18.865,37.705c6.793,1.59,56.584-20.437,58.154-28.284
			C175.219,494.704,146.421,453.322,135.139,457.001z"/>
		<path display="inline" fill="#FFFFFF" d="M238.108,376.843c-10.498,0.494-88.546,59.727-88.034,69.146
			c0.519,9.423,29.36,46.629,37.729,47.951c8.362,1.301,70.221-78.342,72.307-88.814C262.196,394.63,248.58,376.305,238.108,376.843
			z"/>
		<path display="inline" fill="#FFFFFF" d="M553.042,90.398c-10.932-15.146-35.498-16.26-56.115-3.017
			c-7.87-4.009-17.022-7.233-27.767-9.215c0,0-391.393,317.515-477.854,378.833c0,0-3.303,7.003-8.776,18.407
			c98.109,68.715,86.957,120.567,86.957,120.567c-27.149-66.916-95.885-102.036-95.905-102.036
			c-24.626,50.698-68.835,139.307-92.308,172.113c0,0-0.04,18.016,22.024,29.48c0,0,150.072-101.024,193.329-109.64
			c0,0,23.884-23.282,60.697-58.922c-20.121,10.309-43.197,20.062-52.827,20.659c-16.771,1.053-36.152-39.437-34.583-53.775
			c1.57-14.339,153.521-139.574,176.038-137.984c22.54,1.569,29.875,22.519,30.414,37.726c0.205,6.547-13.655,26.545-30.414,48.012
			c113.26-108.668,256.184-243.842,297.087-273.84c0,0,0.414-10.66-3.14-24.688C557.584,127.73,563.596,105.066,553.042,90.398z
			 M-62.362,672.995c0,0-2.542-32.479-33.639-43.818C-96,629.177-43.771,605.542-62.362,672.995z"/>
	</g>
	<polygon points="0,19.15 7.044,18.051 0.881,32 18.271,12.174 9.135,11.797 16.29,0 3.742,0 	"/>
</g>
</svg>
