<?xml version="1.0" encoding="utf-8"?>
<!-- Generator: Adobe Illustrator 16.0.4, SVG Export Plug-In . SVG Version: 6.00 Build 0)  -->
<!DOCTYPE svg PUBLIC "-//W3C//DTD SVG 1.1//EN" "http://www.w3.org/Graphics/SVG/1.1/DTD/svg11.dtd">
<svg version="1.1" fill="rgb(0, 14, 156)" xmlns="http://www.w3.org/2000/svg" xmlns:xlink="http://www.w3.org/1999/xlink" x="0px" y="0px"
	 width="32.332px" height="30.992px" viewBox="0 0 32.332 30.992" enable-background="new 0 0 32.332 30.992" xml:space="preserve">
<g id="Fondo_1_" display="none">
	<rect id="Fondo" x="-318.029" y="-1019.622" display="inline" fill="#FB6E92" width="999.999" height="2438.351"/>
</g>
<g id="Guias">
</g>
<g id="Icons">
	<g display="none" opacity="0.2">
		<path display="inline" fill="#FFFFFF" d="M91.98,456.898c-11.281,3.636-35.885,28.28-38.51,36.152
			c-2.621,7.852,12.064,36.154,18.865,37.705c6.793,1.59,56.584-20.436,58.154-28.284C132.061,494.602,103.263,453.22,91.98,456.898
			z"/>
		<path display="inline" fill="#FFFFFF" d="M194.949,376.74c-10.498,0.494-88.546,59.726-88.033,69.146
			c0.519,9.423,29.359,46.629,37.729,47.951c8.363,1.301,70.221-78.341,72.307-88.813
			C219.037,394.527,205.421,376.201,194.949,376.74z"/>
		<path display="inline" fill="#FFFFFF" d="M509.884,90.296c-10.932-15.146-35.498-16.26-56.115-3.017
			c-7.869-4.008-17.023-7.232-27.768-9.215c0,0-391.393,317.516-477.854,378.834c0,0-3.302,7.003-8.776,18.406
			C37.481,544.02,26.33,595.873,26.33,595.873C-0.82,528.958-69.556,493.837-69.576,493.837
			c-24.626,50.699-68.835,139.308-92.308,172.114c0,0-0.04,18.015,22.025,29.479c0,0,150.072-101.023,193.329-109.639
			c0,0,23.883-23.283,60.697-58.922c-20.121,10.308-43.197,20.062-52.828,20.659c-16.771,1.053-36.152-39.438-34.582-53.776
			c1.57-14.338,153.521-139.573,176.037-137.983c22.541,1.569,29.875,22.518,30.414,37.725c0.205,6.548-13.654,26.546-30.414,48.012
			c113.258-108.669,256.182-243.843,297.084-273.841c0,0,0.414-10.661-3.139-24.688C514.425,127.628,520.437,104.964,509.884,90.296
			z M-105.521,672.893c0,0-2.542-32.478-33.638-43.817C-139.158,629.074-86.93,605.439-105.521,672.893z"/>
	</g>
	<path display="none" opacity="0.5" fill="#71C8EA" enable-background="new    " d="M1463.027,406.556l3.332,3.333
		c0,0,17-13.666,32.5-11.833c0,0,21-27.999,50-37.833c0,0,17.668-9.834,7.168-30.666c-10.5-20.834-24.328-12.938-31.168-8
		c-9.582,6.916-39.771,40.321-51.5,56.332C1473.359,377.889,1476.859,394.223,1463.027,406.556z"/>
	<g>
		<path d="M15.475,6.905c-3.671,1.278-5.769,4.837-4.685,7.945c1.084,3.11,4.938,4.593,8.608,3.313
			c3.672-1.278,5.77-4.836,4.686-7.945C23,7.108,19.146,5.626,15.475,6.905z M17.949,10.799c-0.959,0.334-1.964-0.054-2.247-0.864
			c-0.283-0.812,0.264-1.739,1.221-2.074c0.959-0.332,1.964,0.054,2.246,0.865C19.455,9.536,18.906,10.465,17.949,10.799z"/>
		<path d="M27.619,2.97C24.446,0.547,19.421-0.005,15.938,0c-3.285,0.005-5.893,1.628-7.032,2.886
			c-1.139,1.259-1.491,3.188-2.63,4.087c-1.139,0.898-2.617,1.165-4.295,3.502c-1.678,2.338-2.697,5.873-1.378,7.73
			c1.318,1.857,2.941,2.292,3.84,3.852c0.899,1.558,0.295,4.359,1.853,6.576c1.559,2.219,5.753,2.997,7.372,1.799
			c1.618-1.199,2.674-2.062,5.192-2.543c2.517-0.479,4.457,2.062,7.513,0.744c3.058-1.316,4.496-3.595,5.035-6.352
			c0.539-2.758-0.238-4.508-0.298-6.785S35.559,9.038,27.619,2.97z M19.603,19.544c-4.497,1.567-9.219-0.25-10.546-4.059
			c-1.328-3.811,1.241-8.168,5.739-9.735C19.294,4.183,24.015,6,25.343,9.81C26.669,13.618,24.101,17.979,19.603,19.544z"/>
	</g>
</g>
</svg>
