<?xml version="1.0" encoding="utf-8"?>
<!-- Generator: Adobe Illustrator 16.0.4, SVG Export Plug-In . SVG Version: 6.00 Build 0)  -->
<!DOCTYPE svg PUBLIC "-//W3C//DTD SVG 1.1//EN" "http://www.w3.org/Graphics/SVG/1.1/DTD/svg11.dtd">
<svg version="1.1" fill="rgb(0, 14, 156)" xmlns="http://www.w3.org/2000/svg" xmlns:xlink="http://www.w3.org/1999/xlink" x="0px" y="0px"
	 width="29.377px" height="32px" viewBox="0 0 29.377 32" enable-background="new 0 0 29.377 32" xml:space="preserve">
<g id="Fondo_1_" display="none">
	<rect id="Fondo" x="-370.832" y="-1019.52" display="inline" fill="#FB6E92" width="1000" height="2438.351"/>
</g>
<g id="Guias">
</g>
<g id="Icons">
	<g display="none" opacity="0.2">
		<path display="inline" fill="#FFFFFF" d="M39.179,457.001c-11.283,3.636-35.886,28.281-38.511,36.153
			c-2.621,7.851,12.065,36.153,18.865,37.705c6.793,1.59,56.584-20.437,58.153-28.284C79.258,494.704,50.46,453.322,39.179,457.001z
			"/>
		<path display="inline" fill="#FFFFFF" d="M142.146,376.843c-10.498,0.494-88.545,59.727-88.033,69.146
			c0.519,9.423,29.359,46.629,37.729,47.951c8.363,1.301,70.221-78.342,72.307-88.814
			C166.233,394.63,152.618,376.305,142.146,376.843z"/>
		<path display="inline" fill="#FFFFFF" d="M457.081,90.398c-10.932-15.146-35.498-16.26-56.115-3.017
			c-7.87-4.009-17.022-7.233-27.767-9.215c0,0-391.393,317.515-477.854,378.833c0,0-3.302,7.003-8.776,18.407
			c98.109,68.715,86.957,120.567,86.957,120.567c-27.149-66.916-95.885-102.036-95.905-102.036
			c-24.626,50.698-68.835,139.307-92.308,172.113c0,0-0.04,18.016,22.025,29.48c0,0,150.072-101.024,193.329-109.64
			c0,0,23.883-23.282,60.697-58.922c-20.121,10.309-43.197,20.062-52.827,20.659c-16.772,1.053-36.153-39.437-34.583-53.775
			c1.57-14.339,153.521-139.574,176.038-137.984c22.54,1.569,29.875,22.519,30.413,37.726c0.205,6.547-13.654,26.545-30.413,48.012
			c113.258-108.67,256.182-243.844,297.084-273.842c0,0,0.414-10.66-3.141-24.688C461.623,127.73,467.636,105.066,457.081,90.398z
			 M-158.323,672.995c0,0-2.542-32.479-33.638-43.818C-191.961,629.177-139.732,605.542-158.323,672.995z"/>
	</g>
	<path d="M28.19,5.669C25-0.245,16.369-1.779,8.913,2.242s-10.915,12.076-7.726,17.99c1.238,2.297,3.299,3.929,5.79,4.836
		c0,0-0.546,4.613,0,5.23s3.02,0.412,3.688,0c0.495-0.305,0.681-3.012,0.744-4.406c0.481,0.015,0.969,0.006,1.46-0.023
		c-0.119,1.64-0.334,5.277,0.063,5.873c0.515,0.771,4.379-0.361,4.792-1.186c0.305-0.611,0.072-3.961-0.067-5.658
		c0.276-0.097,0.554-0.201,0.829-0.312c0.141,1.673,0.432,4.555,0.783,4.881c0.498,0.463,3.842-0.919,4.172-1.898
		c0.219-0.642-0.559-3.297-1.119-5.051C28.472,18.246,31.101,11.067,28.19,5.669z M8.345,16.254c0.446-2.521,2.193-4.32,3.903-4.018
		c0.97,0.172,1.718,0.985,2.103,2.116c0.017-0.125,0.031-0.25,0.054-0.376c0.549-3.096,2.694-5.303,4.792-4.932
		c2.1,0.371,3.354,3.183,2.808,6.277c-0.549,3.096-2.694,5.304-4.792,4.933c-1.277-0.227-2.241-1.361-2.677-2.911
		c0,0.003,0,0.005-0.001,0.007c-0.446,2.521-2.194,4.319-3.903,4.018C8.922,21.064,7.898,18.775,8.345,16.254z"/>
</g>
</svg>
