<?xml version="1.0" encoding="utf-8"?>
<!-- Generator: Adobe Illustrator 16.0.4, SVG Export Plug-In . SVG Version: 6.00 Build 0)  -->
<!DOCTYPE svg PUBLIC "-//W3C//DTD SVG 1.1//EN" "http://www.w3.org/Graphics/SVG/1.1/DTD/svg11.dtd">
<svg version="1.1" fill="rgb(0, 14, 156)" xmlns="http://www.w3.org/2000/svg" xmlns:xlink="http://www.w3.org/1999/xlink" x="0px" y="0px"
	 width="32px" height="30.141px" viewBox="0 0 32 30.141" enable-background="new 0 0 32 30.141" xml:space="preserve">
<g id="Fondo_1_" display="none">
	<rect id="Fondo" x="-421.66" y="-1020.452" display="inline" fill="#FB6E92" width="1000" height="2438.352"/>
</g>
<g id="Guias">
</g>
<g id="Icons">
	<g display="none" opacity="0.2">
		<path display="inline" fill="#FFFFFF" d="M-11.65,456.068c-11.282,3.636-35.885,28.28-38.51,36.152
			c-2.621,7.852,12.065,36.154,18.865,37.705c6.793,1.59,56.584-20.436,58.154-28.284C28.43,493.771-0.368,452.389-11.65,456.068z"
			/>
		<path display="inline" fill="#FFFFFF" d="M91.318,375.91c-10.498,0.494-88.546,59.726-88.034,69.146
			c0.519,9.423,29.36,46.629,37.729,47.951c8.362,1.301,70.221-78.341,72.307-88.813C115.406,393.697,101.79,375.371,91.318,375.91z
			"/>
		<path display="inline" fill="#FFFFFF" d="M406.253,89.466c-10.932-15.145-35.498-16.26-56.115-3.016
			c-7.87-4.009-17.022-7.233-27.767-9.215c0,0-391.393,317.515-477.854,378.833c0,0-3.302,7.003-8.776,18.406
			c98.109,68.716,86.957,120.568,86.957,120.568c-27.149-66.916-95.885-102.037-95.905-102.037
			c-24.626,50.699-68.835,139.308-92.308,172.114c0,0-0.04,18.015,22.025,29.479c0,0,150.072-101.023,193.329-109.639
			c0,0,23.883-23.283,60.697-58.922c-20.12,10.31-43.196,20.064-52.826,20.661c-16.772,1.053-36.153-39.438-34.583-53.776
			c1.57-14.338,153.521-139.573,176.038-137.983c22.54,1.569,29.875,22.518,30.414,37.725c0.205,6.548-13.655,26.546-30.414,48.012
			c113.259-108.67,256.183-243.844,297.085-273.842c0,0,0.414-10.661-3.14-24.688C410.795,126.798,416.808,104.134,406.253,89.466z
			 M-209.151,672.062c0,0-2.542-32.479-33.638-43.818C-242.789,628.244-190.561,604.609-209.151,672.062z"/>
	</g>
	<path display="none" opacity="0.5" fill="#71C8EA" enable-background="new    " d="M1359.396,405.725l3.332,3.333
		c0,0,17-13.665,32.5-11.833c0,0,21-27.998,50-37.832c0,0,17.668-9.834,7.168-30.667s-24.327-12.938-31.168-8
		c-9.582,6.916-39.771,40.321-51.5,56.333C1369.729,377.059,1373.229,393.393,1359.396,405.725z"/>
	<path d="M31.493,10.804C29.296,2.823,20.579-1.735,12.021,0.621C3.464,2.977-1.691,11.356,0.506,19.336
		c2.197,7.98,10.915,12.539,19.473,10.184C28.536,27.163,33.691,18.783,31.493,10.804z M20.05,12.74
		c1.202,2.066,0.347,4.806-1.911,6.12c-2.258,1.312-5.062,0.703-6.266-1.363c-1.201-2.065-0.346-4.807,1.912-6.12
		C16.042,10.063,18.848,10.674,20.05,12.74z M10.011,5.795c0.771-0.483,1.542-0.616,1.542-0.616l1.321,4.316
		c0,0-0.242,0.044-0.616,0.286c-0.375,0.242-0.441,0.484-0.441,0.484L9.042,7.116C9.042,7.116,9.241,6.279,10.011,5.795z
		 M2.39,12.149c0,0-0.198-3.105,2.863-5.661l6.077,4.646c0,0-1.363,0.971-1.672,2.908L2.39,12.149z M21.023,24.704l-11.364,1.19
		v-0.906l11.364-1.473V24.704z M24.548,22.325L7.28,23.867V22.81l17.269-2.027L24.548,22.325L24.548,22.325z"/>
</g>
</svg>
