<?xml version="1.0" encoding="utf-8"?>
<!-- Generator: Adobe Illustrator 16.0.4, SVG Export Plug-In . SVG Version: 6.00 Build 0)  -->
<!DOCTYPE svg PUBLIC "-//W3C//DTD SVG 1.1//EN" "http://www.w3.org/Graphics/SVG/1.1/DTD/svg11.dtd">
<svg version="1.1" fill="rgb(0, 14, 156)" xmlns="http://www.w3.org/2000/svg" xmlns:xlink="http://www.w3.org/1999/xlink" x="0px" y="0px"
	 width="27.064px" height="32px" viewBox="0 0 27.064 32" enable-background="new 0 0 27.064 32" xml:space="preserve">
<g id="Fondo_1_" display="none">
	<rect id="Fondo" x="-477.375" y="-1019.522" display="inline" fill="#FB6E92" width="1000" height="2438.352"/>
</g>
<g id="Guias">
</g>
<g id="Icons">
	<g display="none" opacity="0.2">
		<path display="inline" fill="#FFFFFF" d="M-67.366,456.998c-11.281,3.637-35.885,28.281-38.51,36.154
			c-2.621,7.85,12.065,36.152,18.865,37.705c6.793,1.59,56.584-20.438,58.154-28.285C-27.286,494.701-56.083,453.32-67.366,456.998z
			"/>
		<path display="inline" fill="#FFFFFF" d="M35.603,376.839c-10.498,0.494-88.546,59.727-88.034,69.146
			c0.519,9.424,29.36,46.629,37.729,47.951c8.363,1.301,70.222-78.342,72.308-88.814C59.691,394.626,46.075,376.3,35.603,376.839z"
			/>
		<path display="inline" fill="#FFFFFF" d="M350.538,90.396c-10.932-15.145-35.498-16.26-56.115-3.016
			c-7.869-4.01-17.022-7.233-27.767-9.215c0,0-391.393,317.515-477.854,378.832c0,0-3.302,7.004-8.775,18.408
			c98.108,68.715,86.957,120.566,86.957,120.566c-27.149-66.916-95.885-102.037-95.905-102.037
			c-24.626,50.699-68.835,139.309-92.308,172.115c0,0-0.04,18.016,22.024,29.48c0,0,150.072-101.025,193.329-109.641
			c0,0,23.883-23.281,60.697-58.922c-20.121,10.309-43.197,20.062-52.827,20.66c-16.771,1.053-36.153-39.438-34.583-53.777
			c1.57-14.338,153.521-139.573,176.038-137.982c22.54,1.569,29.875,22.518,30.414,37.725c0.205,6.547-13.655,26.545-30.414,48.012
			c113.258-108.669,256.182-243.843,297.084-273.841c0,0,0.414-10.661-3.141-24.688C355.08,127.728,361.092,105.063,350.538,90.396z
			 M-264.867,672.992c0,0-2.542-32.479-33.638-43.818C-298.504,629.173-246.276,605.539-264.867,672.992z"/>
	</g>
	<path display="none" opacity="0.5" fill="#71C8EA" enable-background="new    " d="M1303.679,406.656l3.333,3.332
		c0,0,17-13.666,32.5-11.832c0,0,21-28,50-37.834c0,0,17.667-9.834,7.167-30.667s-24.326-12.937-31.167-8
		c-9.583,6.916-39.771,40.322-51.5,56.333C1314.012,377.988,1317.512,394.322,1303.679,406.656z"/>
	<g>
		<path d="M10.1,23.042c-7.906-2.07-6.834,1.979-6.239,2.9c0.747,1.157,3.604,2.285,5.444,1.684
			C11.549,26.894,12.165,23.583,10.1,23.042z"/>
		<path d="M6.076,28.621c-5.621-1.473-4.858,1.406-4.436,2.062c0.529,0.822,2.562,1.625,3.87,1.195
			C7.106,31.359,7.544,29.005,6.076,28.621z"/>
		<path d="M27.056,11.924c-0.198-2.48-3.18-2.242-3.18-2.242s3.626-2.432,2.138-5.246c-1.491-2.813-5.563,0.334-5.563,0.334
			s-0.199-4.864-3.974-4.769c-3.775,0.094-3.676,4.769-3.676,4.769S10.517,0.764,7.09,2.767C3.663,4.77,5.948,7.918,5.948,7.918
			s-4.371-1.909-5.712,2.479c-1.341,4.387,3.478,4.722,3.478,4.722S1.628,18.6,5.353,20.46c3.725,1.859,5.811-2.479,5.811-2.479
			s-0.844,3.435,3.328,3.862c4.172,0.43,3.824-3.481,3.824-3.481s2.582,4.579,6.208,1.622c3.626-2.958-0.745-5.103-0.745-5.246
			C23.778,14.595,27.254,14.403,27.056,11.924z M9.462,13.182c-0.911,0.978-2.298,1.214-3.096,0.529
			c-0.798-0.687-0.706-2.035,0.206-3.014c0.91-0.977,2.297-1.215,3.095-0.528C10.465,10.854,10.374,12.203,9.462,13.182z
			 M15.719,13.436c-1.049,1.124-2.643,1.396-3.562,0.606s-0.813-2.341,0.235-3.466c1.05-1.125,2.645-1.397,3.562-0.608
			C16.874,10.758,16.768,12.309,15.719,13.436z M21.479,13.182c-0.91,0.978-2.297,1.214-3.096,0.529
			c-0.798-0.687-0.705-2.035,0.205-3.014c0.911-0.977,2.299-1.215,3.097-0.528C22.483,10.854,22.391,12.203,21.479,13.182z"/>
	</g>
</g>
</svg>
