<?xml version="1.0" encoding="utf-8"?>
<!-- Generator: Adobe Illustrator 16.0.4, SVG Export Plug-In . SVG Version: 6.00 Build 0)  -->
<!DOCTYPE svg PUBLIC "-//W3C//DTD SVG 1.1//EN" "http://www.w3.org/Graphics/SVG/1.1/DTD/svg11.dtd">
<svg version="1.1" fill="rgb(0, 14, 156)" xmlns="http://www.w3.org/2000/svg" xmlns:xlink="http://www.w3.org/1999/xlink" x="0px" y="0px"
	 width="29.084px" height="32px" viewBox="0 0 29.084 32" enable-background="new 0 0 29.084 32" xml:space="preserve">
<g id="Fondo_1_" display="none">
	<rect id="Fondo" x="-527.42" y="-1019.522" display="inline" fill="#FB6E92" width="1000" height="2438.352"/>
</g>
<g id="Guias">
</g>
<g id="Icons">
	<g display="none" opacity="0.2">
		<path display="inline" fill="#FFFFFF" d="M-117.411,456.998c-11.282,3.637-35.885,28.281-38.51,36.154
			c-2.621,7.85,12.065,36.152,18.865,37.705c6.793,1.59,56.584-20.438,58.154-28.285
			C-77.331,494.701-106.129,453.32-117.411,456.998z"/>
		<path display="inline" fill="#FFFFFF" d="M-14.442,376.839c-10.498,0.494-88.546,59.727-88.034,69.146
			c0.519,9.424,29.36,46.629,37.729,47.951c8.363,1.301,70.221-78.342,72.307-88.814C9.646,394.626-3.971,376.3-14.442,376.839z"/>
		<path display="inline" fill="#FFFFFF" d="M300.492,90.396c-10.933-15.145-35.498-16.26-56.115-3.016
			c-7.87-4.01-17.022-7.233-27.767-9.215c0,0-391.394,317.515-477.854,378.832c0,0-3.302,7.004-8.776,18.408
			c98.109,68.715,86.957,120.566,86.957,120.566c-27.149-66.916-95.885-102.037-95.905-102.037
			c-24.626,50.699-68.835,139.309-92.308,172.115c0,0-0.04,18.016,22.025,29.48c0,0,150.072-101.025,193.329-109.641
			c0,0,23.883-23.281,60.697-58.922c-20.121,10.309-43.197,20.062-52.827,20.66c-16.772,1.053-36.153-39.438-34.583-53.777
			c1.57-14.338,153.521-139.573,176.038-137.982c22.54,1.569,29.875,22.518,30.415,37.725c0.205,6.547-13.655,26.545-30.415,48.012
			c113.258-108.669,256.182-243.843,297.084-273.841c0,0,0.414-10.661-3.141-24.688C305.034,127.728,311.047,105.063,300.492,90.396
			z M-314.912,672.992c0,0-2.542-32.479-33.638-43.818C-348.55,629.173-296.321,605.539-314.912,672.992z"/>
	</g>
	<path display="none" opacity="0.5" fill="#71C8EA" enable-background="new    " d="M1253.635,406.656l3.333,3.332
		c0,0,17-13.666,32.5-11.832c0,0,21-28,50-37.834c0,0,17.667-9.834,7.167-30.667s-24.327-12.937-31.167-8
		c-9.583,6.916-39.771,40.322-51.5,56.333C1263.968,377.988,1267.468,394.322,1253.635,406.656z"/>
	<g>
		<path d="M14.993,11.816c-3.4-0.919-7.076,1.734-8.208,5.928c-1.132,4.19,0.708,8.334,4.109,9.252
			c3.4,0.92,7.075-1.734,8.207-5.927C20.233,16.878,18.396,12.735,14.993,11.816z M13.047,18.955
			c-0.722,1.463-0.531,3.088,0.368,4.006c-0.864,0.281-1.769,0.261-2.57-0.135c-1.895-0.935-2.497-3.584-1.347-5.918
			c1.15-2.336,3.619-3.471,5.513-2.538c0.973,0.479,1.602,1.41,1.831,2.518C15.472,16.484,13.843,17.339,13.047,18.955z"/>
		<path d="M25.006,0.015C24.666-0.177,1.562,1.543,0.768,2.506c-0.793,0.963-1.02,28.387-0.453,29.109
			c0.567,0.721,21.846,0.254,22.652,0c0.808-0.256,4.644-3.908,4.87-4.418c0.229-0.51,1.289-14.073,1.246-15.063
			C29.041,11.143,25.347,0.205,25.006,0.015z M20.929,29.009c-0.723,0.396-17.641,0.537-18.122,0s-0.538-23.544,0-24.125
			c0.538-0.581,19.82-2.902,20.16-2.379C23.308,3.03,21.649,28.613,20.929,29.009z"/>
		<ellipse transform="matrix(0.3714 -0.9285 0.9285 0.3714 -3.6732 12.727)" cx="7.562" cy="9.076" rx="2.832" ry="2.492"/>
	</g>
</g>
</svg>
