<?xml version="1.0" encoding="utf-8"?>
<!-- Generator: Adobe Illustrator 16.0.4, SVG Export Plug-In . SVG Version: 6.00 Build 0)  -->
<!DOCTYPE svg PUBLIC "-//W3C//DTD SVG 1.1//EN" "http://www.w3.org/Graphics/SVG/1.1/DTD/svg11.dtd">
<svg version="1.1" fill="rgb(0, 14, 156)" xmlns="http://www.w3.org/2000/svg" xmlns:xlink="http://www.w3.org/1999/xlink" x="0px" y="0px"
	 width="32px" height="27.16px" viewBox="0 0 32 27.16" enable-background="new 0 0 32 27.16" xml:space="preserve">
<g id="Fondo_1_" display="none">
	<rect id="Fondo" x="-577.961" y="-1021.889" display="inline" fill="#FB6E92" width="1000" height="2438.351"/>
</g>
<g id="Guias">
</g>
<g id="Icons">
	<g display="none" opacity="0.2">
		<path display="inline" fill="#FFFFFF" d="M-167.952,454.632c-11.282,3.635-35.885,28.281-38.51,36.152
			c-2.621,7.852,12.065,36.154,18.865,37.705c6.793,1.59,56.584-20.436,58.154-28.283
			C-127.872,492.335-156.67,450.953-167.952,454.632z"/>
		<path display="inline" fill="#FFFFFF" d="M-64.983,374.474c-10.498,0.494-88.546,59.727-88.034,69.146
			c0.519,9.422,29.36,46.629,37.729,47.951c8.363,1.301,70.221-78.342,72.307-88.814C-40.896,392.261-54.512,373.935-64.983,374.474
			z"/>
		<path display="inline" fill="#FFFFFF" d="M249.951,88.029c-10.932-15.145-35.498-16.26-56.115-3.016
			c-7.87-4.01-17.023-7.233-27.768-9.215c0,0-391.393,317.515-477.854,378.832c0,0-3.302,7.004-8.776,18.408
			c98.109,68.715,86.957,120.568,86.957,120.568c-27.149-66.916-95.885-102.037-95.905-102.037
			c-24.626,50.697-68.835,139.307-92.308,172.113c0,0-0.04,18.016,22.025,29.48c0,0,150.072-101.025,193.329-109.639
			c0,0,23.883-23.283,60.697-58.924c-20.121,10.309-43.197,20.062-52.827,20.66c-16.772,1.053-36.153-39.438-34.583-53.775
			c1.57-14.338,153.521-139.574,176.038-137.984c22.54,1.57,29.875,22.518,30.414,37.725c0.205,6.549-13.655,26.547-30.414,48.012
			c113.26-108.668,256.184-243.842,297.086-273.84c0,0,0.413-10.661-3.14-24.688C254.493,125.361,260.506,102.697,249.951,88.029z
			 M-365.453,670.626c0,0-2.542-32.479-33.638-43.818C-399.091,626.808-346.862,603.173-365.453,670.626z"/>
	</g>
	<path display="none" opacity="0.5" fill="#71C8EA" enable-background="new    " d="M1203.094,404.289l3.333,3.334
		c0,0,17-13.666,32.5-11.834c0,0,21-27.998,50-37.832c0,0,17.667-9.834,7.167-30.668c-10.5-20.832-24.327-12.937-31.167-8
		c-9.583,6.916-39.771,40.322-51.5,56.334C1213.427,375.623,1216.927,391.957,1203.094,404.289z"/>
	<g>
		<ellipse transform="matrix(-0.964 -0.2659 0.2659 -0.964 5.094 30.6624)" cx="4.623" cy="14.986" rx="1.57" ry="1.927"/>
		<path d="M31.327,0.408C30.076-1.233,2.326,2.519,0.997,3.77s-1.329,21.888,0,22.981c1.329,1.095,28.142-0.234,29.549-1.406
			C31.952,24.171,32.578,2.05,31.327,0.408z M2.872,6.106c0.156-0.417,3.774-1.068,3.972-0.781c0.197,0.286,0.376,1.381,0,1.719
			C6.468,7.383,3.185,7.72,2.872,7.408C2.559,7.097,2.716,6.523,2.872,6.106z M2.871,8.923c0.156-0.417,3.775-1.068,3.972-0.782
			c0.197,0.287,0.377,1.382,0,1.72c-0.376,0.339-3.659,0.676-3.972,0.364S2.715,9.34,2.871,8.923z M6.843,24.253
			c-0.376,0.338-3.659,0.675-3.972,0.363c-0.313-0.312-0.156-0.886,0-1.303c0.156-0.417,3.775-1.068,3.972-0.781
			C7.04,22.819,7.22,23.914,6.843,24.253z M6.844,21.437C6.468,21.775,3.185,22.11,2.872,21.8c-0.313-0.312-0.156-0.885,0-1.303
			c0.156-0.416,3.774-1.067,3.972-0.781C7.041,20.003,7.22,21.097,6.844,21.437z M7.599,15.808c-0.558,2.02-2.341,3.287-3.985,2.834
			c-1.644-0.454-2.524-2.458-1.968-4.477c0.557-2.019,2.341-3.288,3.984-2.833C7.274,11.785,8.155,13.789,7.599,15.808z
			 M28.436,20.264c-1.172,0.78-17.745,2.032-18.683,1.329c-0.938-0.704-0.938-14.774,0-15.947s18.604-3.752,19.386-2.657
			C29.92,4.082,29.607,19.481,28.436,20.264z"/>
		<path d="M10.857,6.46c-0.815,1.019-0.815,13.245,0,13.856c0.814,0.611,15.215-0.477,16.233-1.154
			c1.02-0.68,1.29-14.061,0.611-15.011C27.021,3.2,11.672,5.441,10.857,6.46z"/>
	</g>
</g>
</svg>
