<?xml version="1.0" encoding="utf-8"?>
<!-- Generator: Adobe Illustrator 16.0.4, SVG Export Plug-In . SVG Version: 6.00 Build 0)  -->
<!DOCTYPE svg PUBLIC "-//W3C//DTD SVG 1.1//EN" "http://www.w3.org/Graphics/SVG/1.1/DTD/svg11.dtd">
<svg version="1.1" fill="rgb(0, 14, 156)" xmlns="http://www.w3.org/2000/svg" xmlns:xlink="http://www.w3.org/1999/xlink" x="0px" y="0px"
	 width="32px" height="29.184px" viewBox="0 0 32 29.184" enable-background="new 0 0 32 29.184" xml:space="preserve">
<g id="Fondo_1_" display="none">
	<rect id="Fondo" x="-629.997" y="-1021.508" display="inline" fill="#FB6E92" width="1000" height="2438.351"/>
</g>
<g id="Guias">
</g>
<g id="Icons">
	<g display="none" opacity="0.2">
		<path display="inline" fill="#FFFFFF" d="M-219.987,455.012c-11.282,3.637-35.885,28.281-38.51,36.153
			c-2.621,7.851,12.065,36.154,18.865,37.705c6.793,1.59,56.584-20.437,58.154-28.284
			C-179.907,492.716-208.705,451.334-219.987,455.012z"/>
		<path display="inline" fill="#FFFFFF" d="M-117.019,374.854c-10.498,0.494-88.546,59.726-88.034,69.146
			c0.519,9.423,29.36,46.629,37.729,47.951c8.363,1.301,70.221-78.341,72.307-88.814
			C-92.931,392.642-106.547,374.315-117.019,374.854z"/>
		<path display="inline" fill="#FFFFFF" d="M197.916,88.41c-10.932-15.145-35.498-16.26-56.115-3.016
			c-7.869-4.01-17.023-7.233-27.767-9.215c0,0-391.393,317.515-477.854,378.832c0,0-3.302,7.003-8.776,18.407
			c98.109,68.715,86.957,120.568,86.957,120.568c-27.149-66.916-95.885-102.037-95.905-102.037
			c-24.626,50.699-68.835,139.307-92.308,172.114c0,0-0.04,18.015,22.025,29.479c0,0,150.072-101.023,193.329-109.639
			c0,0,23.883-23.283,60.697-58.922c-20.121,10.308-43.197,20.062-52.827,20.659c-16.772,1.053-36.153-39.438-34.583-53.776
			c1.57-14.338,153.521-139.574,176.038-137.984c22.54,1.57,29.875,22.519,30.414,37.726c0.205,6.548-13.655,26.546-30.414,48.012
			c113.26-108.668,256.185-243.842,297.086-273.84c0,0,0.414-10.661-3.14-24.688C202.458,125.742,208.471,103.078,197.916,88.41z
			 M-417.488,671.007c0,0-2.542-32.478-33.638-43.817C-451.126,627.187-398.897,603.553-417.488,671.007z"/>
	</g>
	<path display="none" opacity="0.5" fill="#71C8EA" enable-background="new    " d="M1151.059,404.67l3.333,3.333
		c0,0,17-13.666,32.5-11.833c0,0,21-27.999,50-37.833c0,0,17.667-9.834,7.167-30.667s-24.326-12.937-31.167-8
		c-9.583,6.916-39.771,40.322-51.5,56.333C1161.392,376.003,1164.892,392.337,1151.059,404.67z"/>
	<g>
		<path d="M12,17.907c-0.533,0.172-1.697,1.337-1.821,1.709c-0.124,0.371,0.57,1.709,0.892,1.782
			c0.322,0.075,2.676-0.966,2.75-1.337C13.895,19.689,12.532,17.733,12,17.907z"/>
		<path d="M16.866,14.118c-0.496,0.023-4.186,2.823-4.161,3.27c0.025,0.444,1.388,2.203,1.783,2.267
			c0.396,0.062,3.319-3.703,3.418-4.198C18.006,14.959,17.361,14.093,16.866,14.118z"/>
		<path d="M31.753,0.578c-0.517-0.716-1.678-0.769-2.651-0.143C28.729,0.246,28.297,0.094,27.789,0c0,0-18.502,15.009-22.588,17.907
			c0,0-0.156,0.331-0.416,0.87c4.638,3.248,4.11,5.699,4.11,5.699c-1.283-3.163-4.532-4.823-4.533-4.823
			C3.198,22.05,1.108,26.238,0,27.789c0,0-0.002,0.853,1.04,1.395c0,0,7.094-4.775,9.139-5.184c0,0,1.129-1.101,2.869-2.785
			c-0.95,0.487-2.042,0.948-2.497,0.978c-0.793,0.05-1.709-1.864-1.635-2.542s7.257-6.599,8.322-6.522
			c1.063,0.074,1.41,1.064,1.437,1.783c0.011,0.311-0.646,1.255-1.438,2.271c5.354-5.138,12.109-11.526,14.045-12.944
			c0,0,0.019-0.504-0.149-1.167C31.969,2.343,32.252,1.271,31.753,0.578z M2.663,28.117c0,0-0.12-1.535-1.59-2.071
			C1.073,26.046,3.542,24.929,2.663,28.117z"/>
	</g>
</g>
</svg>
