<?xml version="1.0" encoding="utf-8"?>
<!-- Generator: Adobe Illustrator 16.0.4, SVG Export Plug-In . SVG Version: 6.00 Build 0)  -->
<!DOCTYPE svg PUBLIC "-//W3C//DTD SVG 1.1//EN" "http://www.w3.org/Graphics/SVG/1.1/DTD/svg11.dtd">
<svg version="1.1" fill="rgb(0, 14, 156)" xmlns="http://www.w3.org/2000/svg" xmlns:xlink="http://www.w3.org/1999/xlink" x="0px" y="0px"
	 width="29.918px" height="32px" viewBox="0 0 29.918 32" enable-background="new 0 0 29.918 32" xml:space="preserve">
<g id="Fondo_1_" display="none">
	<rect id="Fondo" x="-683.329" y="-1019.523" display="inline" fill="#FB6E92" width="1000" height="2438.351"/>
</g>
<g id="Guias">
</g>
<g id="Icons">
	<g display="none" opacity="0.2">
		<path display="inline" fill="#FFFFFF" d="M-273.319,456.998c-11.282,3.635-35.885,28.281-38.51,36.152
			c-2.621,7.852,12.065,36.154,18.865,37.705c6.793,1.59,56.584-20.436,58.154-28.283
			C-233.239,494.701-262.037,453.318-273.319,456.998z"/>
		<path display="inline" fill="#FFFFFF" d="M-170.351,376.839c-10.498,0.494-88.546,59.727-88.034,69.146
			c0.519,9.422,29.36,46.629,37.729,47.949c8.363,1.303,70.221-78.34,72.307-88.812C-146.263,394.626-159.879,376.3-170.351,376.839
			z"/>
		<path display="inline" fill="#FFFFFF" d="M144.584,90.395c-10.933-15.146-35.498-16.261-56.115-3.017
			c-7.87-4.008-17.023-7.232-27.768-9.215c0,0-391.393,317.516-477.854,378.834c0,0-3.302,7.002-8.776,18.406
			c98.109,68.715,86.957,120.568,86.957,120.568c-27.149-66.916-95.885-102.037-95.905-102.037
			c-24.626,50.699-68.835,139.307-92.308,172.113c0,0-0.04,18.016,22.025,29.48c0,0,150.072-101.023,193.329-109.639
			c0,0,23.883-23.283,60.697-58.922c-20.121,10.309-43.197,20.062-52.827,20.658c-16.772,1.053-36.153-39.436-34.583-53.775
			c1.57-14.338,153.521-139.574,176.038-137.984c22.54,1.57,29.875,22.519,30.414,37.726c0.205,6.548-13.655,26.546-30.414,48.013
			c113.26-108.669,256.184-243.843,297.085-273.841c0,0,0.414-10.661-3.14-24.688C149.125,127.727,155.139,105.062,144.584,90.395z
			 M-470.82,672.992c0,0-2.542-32.479-33.638-43.818C-504.458,629.173-452.229,605.539-470.82,672.992z"/>
	</g>
	<path display="none" opacity="0.5" fill="#71C8EA" enable-background="new    " d="M1097.727,406.654l3.334,3.334
		c0,0,17-13.666,32.5-11.834c0,0,21-27.999,50-37.833c0,0,17.666-9.834,7.166-30.667s-24.326-12.938-31.166-8
		c-9.584,6.916-39.771,40.322-51.5,56.333C1108.061,377.987,1111.561,394.321,1097.727,406.654z"/>
	<g>
		<path d="M22.258,0.357c-0.579,0.284-1.275,0.877-2.034,1.672c1.003,3.572,5.599,6.047,7.629,6.984
			c0.601-0.613,1.093-1.17,1.431-1.633C31.889,3.797,25.879-1.417,22.258,0.357z"/>
		<path d="M11.594,18.107l-6.361,7.41l-0.786-0.614L0,29.214C0,29.214,0.682,32,3.288,32l3.476-5.285l-0.771-0.604l6.463-7.254
			c0.698,0.561,1.389,1.004,1.693,1.051c0.572,0.086,8.035-5.529,12.441-9.663c-6.088-3.415-6.366-8.209-6.366-8.216
			c-3.978,4.169-9.695,13.951-9.695,14.619C10.528,16.968,10.992,17.535,11.594,18.107z"/>
	</g>
</g>
</svg>
