<?xml version="1.0" encoding="utf-8"?>
<!-- Generator: Adobe Illustrator 16.0.4, SVG Export Plug-In . SVG Version: 6.00 Build 0)  -->
<!DOCTYPE svg PUBLIC "-//W3C//DTD SVG 1.1//EN" "http://www.w3.org/Graphics/SVG/1.1/DTD/svg11.dtd">
<svg version="1.1" fill="rgb(0, 14, 156)" xmlns="http://www.w3.org/2000/svg" xmlns:xlink="http://www.w3.org/1999/xlink" x="0px" y="0px"
	 width="24.654px" height="32px" viewBox="0 0 24.654 32" enable-background="new 0 0 24.654 32" xml:space="preserve">
<g id="Fondo_1_" display="none">
	<rect id="Fondo" x="-738.856" y="-1019.522" display="inline" fill="#FB6E92" width="1000" height="2438.351"/>
</g>
<g id="Guias">
</g>
<g id="Icons">
	<g display="none" opacity="0.2">
		<path display="inline" fill="#FFFFFF" d="M-328.847,456.998c-11.282,3.636-35.885,28.281-38.51,36.153
			c-2.621,7.851,12.064,36.153,18.864,37.705c6.793,1.59,56.584-20.437,58.154-28.284
			C-288.767,494.701-317.564,453.319-328.847,456.998z"/>
		<path display="inline" fill="#FFFFFF" d="M-225.878,376.84c-10.498,0.494-88.546,59.727-88.034,69.146
			c0.52,9.423,29.36,46.629,37.729,47.95c8.363,1.302,70.221-78.341,72.307-88.813C-201.79,394.627-215.406,376.301-225.878,376.84z
			"/>
		<path display="inline" fill="#FFFFFF" d="M89.057,90.396C78.125,75.251,53.559,74.136,32.942,87.38
			c-7.87-4.009-17.023-7.233-27.768-9.215c0,0-391.393,317.515-477.854,378.833c0,0-3.302,7.003-8.776,18.407
			c98.109,68.715,86.957,120.567,86.957,120.567c-27.148-66.916-95.885-102.037-95.904-102.037
			c-24.626,50.699-68.836,139.308-92.309,172.114c0,0-0.04,18.016,22.025,29.48c0,0,150.072-101.024,193.329-109.64
			c0,0,23.883-23.282,60.696-58.922c-20.121,10.309-43.196,20.062-52.826,20.659c-16.772,1.053-36.153-39.437-34.583-53.776
			c1.569-14.338,153.521-139.574,176.037-137.983c22.54,1.569,29.875,22.519,30.414,37.726c0.205,6.547-13.654,26.545-30.414,48.012
			c113.261-108.668,256.184-243.842,297.087-273.84c0,0,0.413-10.662-3.141-24.688C93.599,127.729,99.611,105.062,89.057,90.396z
			 M-526.348,672.992c0,0-2.542-32.479-33.638-43.818C-559.985,629.174-507.757,605.539-526.348,672.992z"/>
	</g>
	<path display="none" opacity="0.5" fill="#71C8EA" enable-background="new    " d="M1042.199,406.655l3.333,3.333
		c0,0,17-13.666,32.5-11.833c0,0,21-27.999,50-37.833c0,0,17.667-9.834,7.167-30.668c-10.5-20.832-24.327-12.937-31.167-8
		c-9.583,6.916-39.771,40.322-51.5,56.334C1052.532,377.988,1056.032,394.322,1042.199,406.655z"/>
	<g>
		<polygon points="15.082,20.714 19.159,26.264 24.553,26.762 24.654,24.621 20.349,24.621 		"/>
		<path d="M20.76,11.195c-2.301-4.289-7.938-5.74-12.597-3.243c-4.657,2.498-6.567,7.999-4.268,12.287s7.938,5.739,12.596,3.243
			c0.025-0.015,0.049-0.028,0.074-0.043l-2.247-3.405l3.793,2.375C21.562,19.623,22.771,14.945,20.76,11.195z M12.954,18.454
			c-1.761,0.368-3.468-0.673-3.812-2.326c-0.346-1.653,0.8-3.291,2.561-3.659c1.76-0.369,3.467,0.673,3.812,2.325
			C15.86,16.447,14.714,18.086,12.954,18.454z"/>
		<path d="M17.148,24.324c-0.019,0.01-0.034,0.021-0.053,0.029c-5.333,2.86-11.792,1.197-14.427-3.713
			C0.036,15.729,2.225,9.428,7.558,6.568c5.334-2.86,11.793-1.198,14.427,3.714c2.277,4.247,0.946,9.532-2.904,12.733l1.523,0.953
			l4.036-0.166c0.103-8.775-0.326-22.338-1.178-23.305C22.218-0.917,1.662,1.009,0.7,2.197c-0.962,1.189-0.906,29.105,0,29.559
			c0.906,0.452,22.536,0.282,23.442-0.566c0.184-0.172,0.314-1.469,0.398-3.438l-5.723-0.894L17.148,24.324z"/>
	</g>
</g>
</svg>
