<?xml version="1.0" encoding="utf-8"?>
<!-- Generator: Adobe Illustrator 16.0.4, SVG Export Plug-In . SVG Version: 6.00 Build 0)  -->
<!DOCTYPE svg PUBLIC "-//W3C//DTD SVG 1.1//EN" "http://www.w3.org/Graphics/SVG/1.1/DTD/svg11.dtd">
<svg version="1.1" fill="rgb(0, 14, 156)" xmlns="http://www.w3.org/2000/svg" xmlns:xlink="http://www.w3.org/1999/xlink" x="0px" y="0px"
	 width="21.021px" height="32px" viewBox="0 0 21.021 32" enable-background="new 0 0 21.021 32" xml:space="preserve">
<g id="Fondo_1_" display="none">
	<rect id="Fondo" x="-790.499" y="-1019.522" display="inline" fill="#FB6E92" width="1000" height="2438.351"/>
</g>
<g id="Guias">
</g>
<g id="Icons">
	<g display="none" opacity="0.2">
		<path display="inline" fill="#FFFFFF" d="M-380.49,456.998c-11.281,3.636-35.885,28.281-38.51,36.153
			c-2.621,7.851,12.065,36.153,18.865,37.705c6.793,1.59,56.584-20.437,58.154-28.284
			C-340.409,494.701-369.207,453.319-380.49,456.998z"/>
		<path display="inline" fill="#FFFFFF" d="M-277.521,376.84c-10.498,0.494-88.546,59.727-88.034,69.146
			c0.519,9.423,29.36,46.629,37.729,47.95c8.363,1.302,70.222-78.341,72.308-88.813
			C-253.433,394.627-267.049,376.301-277.521,376.84z"/>
		<path display="inline" fill="#FFFFFF" d="M37.414,90.396C26.482,75.251,1.916,74.136-18.701,87.38
			c-7.869-4.009-17.022-7.233-27.767-9.215c0,0-391.393,317.515-477.854,378.833c0,0-3.302,7.003-8.775,18.407
			c98.108,68.715,86.957,120.567,86.957,120.567c-27.149-66.916-95.885-102.037-95.905-102.037
			c-24.626,50.699-68.835,139.308-92.308,172.114c0,0-0.04,18.016,22.024,29.48c0,0,150.072-101.024,193.329-109.64
			c0,0,23.883-23.282,60.697-58.922c-20.121,10.309-43.197,20.062-52.827,20.659c-16.771,1.053-36.153-39.437-34.583-53.776
			c1.57-14.338,153.521-139.574,176.038-137.983c22.54,1.569,29.875,22.519,30.414,37.726c0.205,6.547-13.655,26.545-30.414,48.012
			c113.26-108.668,256.184-243.842,297.086-273.84c0,0,0.414-10.662-3.14-24.688C41.956,127.729,47.969,105.062,37.414,90.396z
			 M-577.99,672.992c0,0-2.542-32.479-33.638-43.818C-611.628,629.174-559.399,605.539-577.99,672.992z"/>
	</g>
	<path display="none" opacity="0.5" fill="#71C8EA" enable-background="new    " d="M990.556,406.655l3.333,3.333
		c0,0,17-13.666,32.5-11.833c0,0,21-27.999,50-37.833c0,0,17.667-9.834,7.167-30.668c-10.5-20.832-24.326-12.937-31.167-8
		c-9.583,6.916-39.771,40.322-51.5,56.334C1000.889,377.988,1004.389,394.322,990.556,406.655z"/>
	<g>
		<path d="M20.737,8.222L7.531,9.717c0,0-0.623,9.238,0.914,10.15c0.472,0.279,2.67,0.377,5.03,0.289
			c0.099,1.521,0.008,4.781-2.425,5.889c-2.187,0.992-5.287-1.324-5.287-1.324s-4.868-3.084-5.616-0.848
			C-0.8,26.709,3.118,32,3.118,32l0.186-0.055c0,0-3.312-5.586-2.337-7.268c0.408-0.707,2.722-0.045,5.695,1.936
			c2.635,1.756,4.483,1.096,5.061,0.783c0.548-0.299,3.938-2.336,2.876-7.295c2.486-0.152,4.884-0.506,5.392-1.062
			C21.734,17.128,20.737,8.222,20.737,8.222z"/>
		<path d="M19.2,0L8.61,1.245v7.434l11.072-1.173L19.2,0z M13.526,4.816l-3.67,0.332V2.294l3.67-0.509V4.816z M18.178,4.255
			l-3.671,0.333V1.733l3.671-0.509V4.255z"/>
	</g>
</g>
</svg>
