<?xml version="1.0" encoding="utf-8"?>
<!-- Generator: Adobe Illustrator 16.0.4, SVG Export Plug-In . SVG Version: 6.00 Build 0)  -->
<!DOCTYPE svg PUBLIC "-//W3C//DTD SVG 1.1//EN" "http://www.w3.org/Graphics/SVG/1.1/DTD/svg11.dtd">
<svg version="1.1" fill="rgb(0, 14, 156)" xmlns="http://www.w3.org/2000/svg" xmlns:xlink="http://www.w3.org/1999/xlink" x="0px" y="0px"
	 width="25.383px" height="32px" viewBox="0 0 25.383 32" enable-background="new 0 0 25.383 32" xml:space="preserve">
<g id="Fondo_1_" display="none">
	<rect id="Fondo" x="-841.75" y="-1019.522" display="inline" fill="#FB6E92" width="1000" height="2438.351"/>
</g>
<g id="Guias">
</g>
<g id="Icons">
	<g display="none" opacity="0.2">
		<path display="inline" fill="#FFFFFF" d="M-431.741,456.998c-11.282,3.636-35.885,28.281-38.51,36.153
			c-2.621,7.851,12.065,36.153,18.865,37.705c6.793,1.59,56.584-20.437,58.154-28.284
			C-391.661,494.701-420.459,453.319-431.741,456.998z"/>
		<path display="inline" fill="#FFFFFF" d="M-328.772,376.84c-10.498,0.494-88.546,59.727-88.034,69.146
			c0.519,9.423,29.36,46.629,37.729,47.95c8.363,1.302,70.221-78.341,72.307-88.813
			C-304.685,394.627-318.301,376.301-328.772,376.84z"/>
		<path display="inline" fill="#FFFFFF" d="M-13.838,90.396C-24.77,75.251-49.336,74.136-69.953,87.38
			c-7.87-4.009-17.023-7.233-27.767-9.215c0,0-391.393,317.515-477.854,378.833c0,0-3.302,7.003-8.776,18.407
			c98.109,68.715,86.957,120.567,86.957,120.567c-27.149-66.916-95.885-102.037-95.905-102.037
			c-24.626,50.699-68.835,139.308-92.308,172.114c0,0-0.04,18.016,22.025,29.48c0,0,150.072-101.024,193.329-109.64
			c0,0,23.883-23.282,60.697-58.922c-20.121,10.309-43.197,20.062-52.827,20.659c-16.772,1.053-36.153-39.437-34.583-53.776
			c1.57-14.338,153.521-139.574,176.038-137.983c22.54,1.569,29.875,22.519,30.414,37.726c0.205,6.547-13.655,26.545-30.414,48.012
			c113.26-108.668,256.184-243.842,297.086-273.84c0,0,0.414-10.662-3.14-24.688C-9.296,127.729-3.283,105.062-13.838,90.396z
			 M-629.242,672.992c0,0-2.542-32.479-33.638-43.818C-662.88,629.174-610.651,605.539-629.242,672.992z"/>
	</g>
	<path display="none" opacity="0.5" fill="#71C8EA" enable-background="new    " d="M939.305,406.655l3.333,3.333
		c0,0,17-13.666,32.5-11.833c0,0,21-27.999,50-37.833c0,0,17.667-9.834,7.167-30.668c-10.5-20.832-24.327-12.937-31.167-8
		c-9.583,6.916-39.771,40.322-51.5,56.334C949.638,377.988,953.138,394.322,939.305,406.655z"/>
	<g>
		<path d="M21.171,3.346c-0.485-0.328-5.258,0.33-5.575,0.549c-0.125,0.086-0.557,1.723-1,3.694l-9.998,7.528
			c-0.09-0.283-0.188-0.467-0.293-0.49c-0.547-0.119-4.065,2.406-4.214,2.783c-0.149,0.378-0.09,1.113,0,1.432
			c0.089,0.318,2.534,2.436,2.862,2.465c0.107,0.01,0.366-0.174,0.666-0.428l3.523,6.98c-1.425,0.436-2.529,0.808-2.6,0.887
			c-0.199,0.225-0.904,2.607-0.616,2.975c0.288,0.367,12.741,0.379,12.969,0c0.227-0.379-2.373-5.166-3.045-5.464
			c-0.26-0.114-1.67,0.196-3.317,0.632L4.85,19.691c0.132-0.142,0.225-0.25,0.249-0.293c0.062-0.108-0.008-1.362-0.166-2.56
			l8.788-4.889c-0.248,1.472-0.365,2.582-0.193,2.677c0.186,0.104,1.627,0.055,3.445-0.074c0.407,0.967,1.663,1.489,2.965,1.182
			c0.992-0.234,1.744-0.889,2.017-1.649c1.876-0.223,3.342-0.466,3.42-0.649C25.593,12.918,21.657,3.676,21.171,3.346z"/>
		<path d="M18.209,2.532c1.53-0.368,2.732-0.278,2.732-0.278s-0.537-1.799-0.814-2.177s-4.354,0.735-4.531,1.113
			c-0.179,0.378,0,2.155,0,2.155S17.038,2.813,18.209,2.532z"/>
	</g>
</g>
</svg>
