<?xml version="1.0" encoding="utf-8"?>
<!-- Generator: Adobe Illustrator 16.0.4, SVG Export Plug-In . SVG Version: 6.00 Build 0)  -->
<!DOCTYPE svg PUBLIC "-//W3C//DTD SVG 1.1//EN" "http://www.w3.org/Graphics/SVG/1.1/DTD/svg11.dtd">
<svg version="1.1" fill="rgb(0, 14, 156)" xmlns="http://www.w3.org/2000/svg" xmlns:xlink="http://www.w3.org/1999/xlink" x="0px" y="0px"
	 width="32px" height="24.243px" viewBox="0 0 32 24.243" enable-background="new 0 0 32 24.243" xml:space="preserve">
<g id="Fondo_1_" display="none">
	<rect id="Fondo" x="-109.966" y="-1087.4" display="inline" fill="#FB6E92" width="1000" height="2438.352"/>
</g>
<g id="Guias">
</g>
<g id="Icons">
	<g display="none" opacity="0.2">
		<path display="inline" fill="#FFFFFF" d="M300.043,389.12c-11.282,3.637-35.885,28.281-38.51,36.154
			c-2.621,7.85,12.064,36.152,18.865,37.705c6.793,1.59,56.584-20.438,58.153-28.285
			C340.124,426.823,311.326,385.441,300.043,389.12z"/>
		<path display="inline" fill="#FFFFFF" d="M403.012,308.961c-10.498,0.494-88.546,59.727-88.034,69.146
			c0.52,9.424,29.36,46.629,37.729,47.951c8.363,1.301,70.221-78.342,72.307-88.814C427.1,326.749,413.484,308.422,403.012,308.961z
			"/>
		<path display="inline" fill="#FFFFFF" d="M717.947,22.518c-10.933-15.145-35.498-16.26-56.115-3.016
			c-7.87-4.01-17.023-7.233-27.767-9.215c0,0-391.394,317.514-477.854,378.833c0,0-3.302,7.004-8.775,18.408
			c98.108,68.715,86.957,120.566,86.957,120.566c-27.149-66.916-95.886-102.037-95.906-102.037
			c-24.625,50.699-68.834,139.309-92.307,172.115c0,0-0.041,18.016,22.024,29.48c0,0,150.071-101.025,193.329-109.641
			c0,0,23.883-23.281,60.697-58.922c-20.121,10.309-43.197,20.062-52.828,20.66c-16.771,1.053-36.152-39.438-34.582-53.777
			c1.57-14.338,153.521-139.573,176.038-137.982c22.54,1.569,29.875,22.518,30.413,37.725c0.205,6.548-13.654,26.546-30.413,48.012
			c113.26-108.668,256.184-243.842,297.086-273.84c0,0,0.414-10.661-3.141-24.688C722.489,59.85,728.501,37.186,717.947,22.518z
			 M102.542,605.114c0,0-2.542-32.479-33.638-43.818C68.904,561.295,121.133,537.661,102.542,605.114z"/>
	</g>
	<path display="none" opacity="0.5" fill="#71C8EA" enable-background="new    " d="M1671.089,338.777l3.333,3.333
		c0,0,17-13.666,32.5-11.833c0,0,21-27.999,50-37.833c0,0,17.667-9.834,7.167-30.667s-24.327-12.937-31.167-8
		c-9.583,6.916-39.771,40.322-51.5,56.333C1681.422,310.11,1684.922,326.444,1671.089,338.777z"/>
	<g>
		<path d="M10.406,8.017c-0.24-0.549-0.662-1.004-1.232-1.259c-0.022-0.01-0.045-0.017-0.068-0.026
			C9.025,6.323,8.93,5.94,8.784,5.82c-0.331-0.272-1.63-0.067-1.911,0.145c-0.138,0.104-0.126,0.562-0.106,1.03
			C6.332,7.283,5.965,7.703,5.731,8.228C5.719,8.255,5.709,8.283,5.698,8.311C5.262,8.359,4.833,8.416,4.747,8.564
			c-0.172,0.296,0.045,1.864,0.248,2.024c0.089,0.07,0.43,0.097,0.801,0.115c0.25,0.463,0.636,0.845,1.139,1.069
			c0.091,0.041,0.185,0.073,0.279,0.102c0.083,0.343,0.182,0.657,0.316,0.75c0.32,0.223,1.411,0.114,1.643-0.11
			c0.115-0.111,0.142-0.543,0.158-0.972c0.424-0.278,0.783-0.683,1.02-1.186c0.355-0.071,0.702-0.161,0.816-0.301
			c0.246-0.304,0.169-1.851-0.147-1.989C10.894,8.012,10.659,8.011,10.406,8.017z"/>
		<ellipse transform="matrix(-0.831 -0.5563 0.5563 -0.831 26.1001 24.8028)" cx="16.818" cy="8.437" rx="2.121" ry="2.38"/>
		<path d="M27.461,0.5c-1.148-0.857-4.577-0.443-5.314,0c-0.738,0.442-0.738,1.402-1.107,2.141
			c-0.369,0.739-7.382,1.624-8.121,1.477c-0.738-0.148-1.403-1.477-1.846-1.993c-0.443-0.518-4.94-0.356-5.979,0.517
			c-6.299,5.29-5.192,19.438-4.675,20.472s3.942,1.752,6.152,0.344c2.166-1.379,4.843-8.285,5.582-8.877
			c0.739-0.59,8.249-1.802,9.429-1.062c1.181,0.738,2.633,6.742,4.036,7.186c1.402,0.442,2.902,0.676,4.675-0.936
			C33.54,16.814,31.916,3.821,27.461,0.5z M11.421,10.795c-0.911,2.042-3.184,3.012-5.074,2.167
			c-1.892-0.844-2.686-3.185-1.773-5.226c0.912-2.042,3.184-3.013,5.075-2.168C11.54,6.413,12.333,8.753,11.421,10.795z
			 M19.127,10.112c-0.971,1.45-2.806,1.925-4.099,1.059c-1.292-0.865-1.554-2.742-0.583-4.192c0.971-1.449,2.805-1.924,4.098-1.059
			C19.836,6.786,20.098,8.662,19.127,10.112z M24.287,4.468c0.145-0.831,0.814-1.408,1.498-1.289
			c0.683,0.118,1.117,0.889,0.973,1.72c-0.145,0.83-0.814,1.408-1.498,1.289C24.577,6.068,24.143,5.299,24.287,4.468z M24.395,8.146
			c-0.145,0.83-0.814,1.408-1.498,1.289c-0.682-0.119-1.117-0.889-0.973-1.72s0.815-1.408,1.498-1.289
			C24.105,6.545,24.54,7.315,24.395,8.146z M27.053,10.805c-0.145,0.83-0.814,1.407-1.498,1.288
			c-0.682-0.118-1.117-0.889-0.973-1.72c0.145-0.83,0.814-1.408,1.497-1.289S27.197,9.973,27.053,10.805z M29.12,7.556
			c-0.146,0.831-0.815,1.408-1.498,1.289c-0.683-0.118-1.118-0.889-0.974-1.72c0.146-0.831,0.815-1.408,1.498-1.289
			C28.83,5.955,29.264,6.725,29.12,7.556z"/>
	</g>
</g>
</svg>
