<?xml version="1.0" encoding="utf-8"?>
<!-- Generator: Adobe Illustrator 16.0.4, SVG Export Plug-In . SVG Version: 6.00 Build 0)  -->
<!DOCTYPE svg PUBLIC "-//W3C//DTD SVG 1.1//EN" "http://www.w3.org/Graphics/SVG/1.1/DTD/svg11.dtd">
<svg version="1.1" fill="rgb(0, 14, 156)" xmlns="http://www.w3.org/2000/svg" xmlns:xlink="http://www.w3.org/1999/xlink" x="0px" y="0px"
	 width="32px" height="24.242px" viewBox="0 0 32 24.242" enable-background="new 0 0 32 24.242" xml:space="preserve">
<g id="Fondo_1_" display="none">
	<rect id="Fondo" x="-161.966" y="-1087.402" display="inline" fill="#FB6E92" width="1000" height="2438.351"/>
</g>
<g id="Guias">
</g>
<g id="Icons">
	<g display="none" opacity="0.2">
		<path display="inline" fill="#FFFFFF" d="M248.043,389.118c-11.281,3.636-35.885,28.281-38.51,36.153
			c-2.621,7.851,12.064,36.153,18.865,37.704c6.793,1.591,56.584-20.436,58.153-28.283
			C288.124,426.821,259.326,385.439,248.043,389.118z"/>
		<path display="inline" fill="#FFFFFF" d="M351.012,308.96c-10.498,0.494-88.546,59.726-88.033,69.146
			c0.519,9.424,29.359,46.63,37.729,47.951c8.363,1.302,70.221-78.341,72.307-88.813C375.1,326.747,361.484,308.421,351.012,308.96z
			"/>
		<path display="inline" fill="#FFFFFF" d="M665.947,22.516c-10.933-15.145-35.498-16.26-56.115-3.016
			c-7.87-4.009-17.023-7.233-27.767-9.215c0,0-391.394,317.515-477.854,378.833c0,0-3.302,7.003-8.775,18.407
			c98.108,68.715,86.957,120.567,86.957,120.567c-27.149-66.916-95.886-102.037-95.906-102.037
			c-24.625,50.7-68.834,139.308-92.307,172.115c0,0-0.04,18.015,22.025,29.48c0,0,150.071-101.024,193.329-109.64
			c0,0,23.883-23.282,60.697-58.922c-20.121,10.309-43.197,20.062-52.828,20.659c-16.771,1.053-36.152-39.437-34.582-53.776
			c1.57-14.338,153.521-139.574,176.038-137.983c22.54,1.569,29.875,22.518,30.413,37.725c0.205,6.548-13.654,26.546-30.413,48.013
			c113.26-108.67,256.184-243.844,297.086-273.842c0,0,0.414-10.66-3.141-24.688C670.489,59.848,676.501,37.184,665.947,22.516z
			 M50.542,605.112c0,0-2.542-32.479-33.638-43.818C16.904,561.294,69.133,537.659,50.542,605.112z"/>
	</g>
	<path display="none" opacity="0.5" fill="#71C8EA" enable-background="new    " d="M1619.089,338.775l3.333,3.332
		c0,0,17-13.666,32.5-11.832c0,0,21-28,50-37.834c0,0,17.667-9.834,7.167-30.666c-10.5-20.834-24.327-12.938-31.167-8
		c-9.583,6.916-39.771,40.322-51.5,56.332C1629.422,310.107,1632.922,326.441,1619.089,338.775z"/>
	<g>
		<path d="M11.018,8.065c-0.124-0.055-0.358-0.056-0.612-0.05c-0.24-0.549-0.662-1.004-1.232-1.259
			C9.151,6.747,9.128,6.74,9.106,6.73C9.025,6.322,8.93,5.939,8.784,5.819c-0.331-0.272-1.63-0.067-1.911,0.145
			c-0.137,0.104-0.126,0.562-0.106,1.03C6.332,7.282,5.965,7.702,5.731,8.227C5.719,8.254,5.709,8.282,5.698,8.31
			C5.262,8.358,4.833,8.415,4.747,8.563c-0.172,0.296,0.044,1.864,0.248,2.024c0.089,0.07,0.43,0.097,0.801,0.115
			c0.25,0.463,0.636,0.845,1.139,1.069c0.091,0.041,0.185,0.073,0.279,0.102c0.083,0.343,0.182,0.657,0.316,0.75
			c0.32,0.223,1.411,0.113,1.643-0.111c0.115-0.111,0.142-0.543,0.157-0.972c0.424-0.278,0.783-0.683,1.02-1.186
			c0.355-0.071,0.702-0.161,0.816-0.301C11.411,9.751,11.334,8.204,11.018,8.065z"/>
		<ellipse transform="matrix(-0.831 -0.5563 0.5563 -0.831 26.1006 24.801)" cx="16.818" cy="8.436" rx="2.121" ry="2.38"/>
		<ellipse transform="matrix(-0.9991 -0.0433 0.0433 -0.9991 42.619 29.5549)" cx="21.63" cy="14.315" rx="1.78" ry="1.952"/>
		<ellipse transform="matrix(-0.7123 0.7019 -0.7019 -0.7123 32.4515 17.2405)" cx="12.692" cy="15.271" rx="1.952" ry="1.78"/>
		<path d="M27.461,0.499c-1.148-0.857-4.577-0.443-5.314,0c-0.738,0.442-0.738,1.402-1.107,2.141
			c-0.369,0.739-7.382,1.624-8.121,1.477c-0.738-0.148-1.403-1.477-1.846-1.993C10.63,1.605,6.132,1.767,5.093,2.64
			c-6.299,5.291-5.192,19.439-4.675,20.474c0.517,1.032,3.942,1.752,6.152,0.344c1.31-0.834,2.807-3.69,3.949-5.948
			c1.073,1.076,2.9,1.002,4.088-0.17c1.015-1,1.234-2.475,0.618-3.562c1.225-0.211,2.616-0.389,3.796-0.459
			c-0.011,0.024-0.024,0.048-0.035,0.072c-0.663,1.537-0.064,3.274,1.338,3.879c1.007,0.436,2.152,0.164,2.965-0.592
			c0.754,1.82,1.547,3.778,2.326,4.024c1.402,0.442,2.902,0.677,4.675-0.935C33.54,16.812,31.916,3.82,27.461,0.499z M24.287,4.467
			c0.145-0.831,0.814-1.408,1.498-1.289c0.683,0.118,1.117,0.889,0.973,1.72c-0.145,0.83-0.814,1.408-1.498,1.289
			C24.577,6.067,24.143,5.298,24.287,4.467z M6.347,12.961c-1.892-0.845-2.686-3.185-1.773-5.226
			c0.912-2.042,3.184-3.013,5.075-2.168c1.891,0.845,2.685,3.185,1.772,5.227C10.51,12.835,8.238,13.807,6.347,12.961z
			 M14.235,16.884c-0.971,0.957-2.466,1.015-3.338,0.13c-0.873-0.886-0.792-2.379,0.179-3.336c0.971-0.957,2.466-1.015,3.338-0.13
			C15.287,14.434,15.207,15.927,14.235,16.884z M15.028,11.17c-1.292-0.865-1.554-2.742-0.583-4.192
			c0.97-1.449,2.805-1.924,4.098-1.059c1.293,0.866,1.555,2.742,0.583,4.192C18.154,11.561,16.321,12.036,15.028,11.17z
			 M21.407,16.861c-1.242-0.055-2.201-1.202-2.142-2.564c0.06-1.361,1.114-2.423,2.356-2.368c1.242,0.054,2.201,1.201,2.142,2.563
			C23.704,15.854,22.648,16.915,21.407,16.861z M24.395,8.146c-0.145,0.83-0.814,1.408-1.498,1.289
			c-0.682-0.119-1.117-0.889-0.973-1.72s0.815-1.408,1.498-1.289C24.104,6.545,24.54,7.314,24.395,8.146z M27.053,10.804
			c-0.145,0.83-0.814,1.407-1.498,1.288c-0.682-0.118-1.117-0.889-0.973-1.72c0.146-0.83,0.814-1.408,1.498-1.289
			C26.762,9.202,27.197,9.972,27.053,10.804z M29.12,7.555c-0.146,0.831-0.815,1.408-1.498,1.289
			c-0.683-0.118-1.118-0.889-0.974-1.72c0.146-0.831,0.815-1.408,1.498-1.289C28.83,5.954,29.264,6.724,29.12,7.555z"/>
	</g>
</g>
</svg>
