<?xml version="1.0" encoding="utf-8"?>
<!-- Generator: Adobe Illustrator 16.0.4, SVG Export Plug-In . SVG Version: 6.00 Build 0)  -->
<!DOCTYPE svg PUBLIC "-//W3C//DTD SVG 1.1//EN" "http://www.w3.org/Graphics/SVG/1.1/DTD/svg11.dtd">
<svg version="1.1" fill="rgb(0, 14, 156)" xmlns="http://www.w3.org/2000/svg" xmlns:xlink="http://www.w3.org/1999/xlink" x="0px" y="0px"
	 width="31.361px" height="32px" viewBox="0 0 31.361 32" enable-background="new 0 0 31.361 32" xml:space="preserve">
<g id="Fondo_1_" display="none">
	<rect id="Fondo" x="-214.454" y="-1083.522" display="inline" fill="#FB6E92" width="1000" height="2438.351"/>
</g>
<g id="Guias">
</g>
<g id="Icons">
	<g display="none" opacity="0.2">
		<path display="inline" fill="#FFFFFF" d="M195.555,392.998c-11.282,3.636-35.886,28.281-38.511,36.153
			c-2.621,7.851,12.065,36.153,18.865,37.705c6.793,1.59,56.584-20.437,58.154-28.284
			C235.635,430.701,206.837,389.318,195.555,392.998z"/>
		<path display="inline" fill="#FFFFFF" d="M298.524,312.84c-10.498,0.494-88.546,59.727-88.034,69.146
			c0.519,9.423,29.36,46.629,37.729,47.95c8.363,1.302,70.222-78.341,72.308-88.813C322.612,330.627,308.996,312.301,298.524,312.84
			z"/>
		<path display="inline" fill="#FFFFFF" d="M613.458,26.396c-10.932-15.146-35.498-16.261-56.115-3.017
			c-7.87-4.009-17.022-7.233-27.767-9.215c0,0-391.393,317.515-477.854,378.833c0,0-3.303,7.003-8.776,18.407
			c98.109,68.715,86.957,120.567,86.957,120.567c-27.149-66.916-95.885-102.037-95.905-102.037
			c-24.625,50.7-68.834,139.308-92.307,172.115c0,0-0.04,18.016,22.024,29.48c0,0,150.072-101.024,193.329-109.64
			c0,0,23.884-23.282,60.697-58.922c-20.121,10.309-43.197,20.062-52.827,20.659c-16.771,1.053-36.152-39.437-34.583-53.775
			c1.57-14.339,153.521-139.574,176.038-137.984c22.54,1.57,29.875,22.518,30.414,37.725c0.205,6.549-13.655,26.547-30.414,48.012
			c113.258-108.668,256.182-243.842,297.084-273.84c0,0,0.414-10.662-3.14-24.688C618,63.729,624.012,41.062,613.458,26.396z
			 M-1.946,608.992c0,0-2.542-32.479-33.639-43.818C-35.583,565.174,16.645,541.539-1.946,608.992z"/>
	</g>
	<path display="none" opacity="0.5" fill="#71C8EA" enable-background="new    " d="M1566.6,342.654l3.333,3.334
		c0,0,17-13.666,32.5-11.834c0,0,21-27.998,50-37.832c0,0,17.667-9.834,7.167-30.668c-10.5-20.832-24.327-12.937-31.167-8
		c-9.583,6.916-39.771,40.322-51.5,56.334C1576.933,313.988,1580.433,330.322,1566.6,342.654z"/>
	<g>
		<path d="M30.736,5.911L16.182,1.403c0.076-0.416-0.009-0.816-0.278-1.088c-0.515-0.519-1.492-0.384-2.182,0.302
			c-0.32,0.317-0.518,0.697-0.591,1.065L0,8.948L0.715,32l30.646-0.626L30.736,5.911z M13.185,2.442
			c0.051,0.131,0.119,0.253,0.22,0.354c0.515,0.52,1.492,0.385,2.182-0.301c0.146-0.145,0.261-0.303,0.356-0.467L27.404,6.24
			L2.871,8.665L13.185,2.442z M13.793,30.05c0.006-0.056,0.014-0.112,0.02-0.181l-0.008-1.605c-0.112-1.074-0.484-2.304-1.498-3.062
			c1.215-0.746,2.212-2.007,2.728-3.576c2.972-0.131,1.047,4.257,1.047,4.257c3.061-6.758,5.833,0,5.833,0
			c-2.025-6.513,3.985-3.807,3.985-3.807c-5.239-3.071,1.665-3.623,1.665-3.623c-7.785-0.33-1.812-5.203-1.812-5.203
			c-6.609,3.428-6.488-3.134-6.488-3.134c-0.373,6.086-2.903,4.681-4.278,3.432c2.05,2.353,1.312,3.265,0.034,3.586
			c-0.575-1.585-1.76-2.809-3.335-3.211c-2.771-0.708-5.696,1.382-6.536,4.669c-0.688,2.691,0.239,5.35,2.118,6.612
			c-1.163,0.731-1.944,1.912-2.457,3.044l-0.635,1.768c-0.031,0.116-0.055,0.215-0.081,0.319l-1.947,0.058L1.34,10.557l27.787-2.681
			l0.447,21.711L13.793,30.05z M16.47,17.201c0.841-1.878,2.773-2.84,4.315-2.148c1.542,0.69,2.11,2.773,1.27,4.651
			c-0.843,1.878-2.774,2.84-4.317,2.147C16.197,21.161,15.628,19.079,16.47,17.201z"/>
		<ellipse transform="matrix(0.9126 0.4089 -0.4089 0.9126 9.2346 -6.2421)" cx="19.217" cy="18.477" rx="2.595" ry="3.159"/>
	</g>
</g>
</svg>
