<?xml version="1.0" encoding="utf-8"?>
<!-- Generator: Adobe Illustrator 16.0.4, SVG Export Plug-In . SVG Version: 6.00 Build 0)  -->
<!DOCTYPE svg PUBLIC "-//W3C//DTD SVG 1.1//EN" "http://www.w3.org/Graphics/SVG/1.1/DTD/svg11.dtd">
<svg version="1.1" fill="rgb(0, 14, 156)" xmlns="http://www.w3.org/2000/svg" xmlns:xlink="http://www.w3.org/1999/xlink" x="0px" y="0px"
	 width="23.523px" height="32px" viewBox="0 0 23.523 32" enable-background="new 0 0 23.523 32" xml:space="preserve">
<g id="Fondo_1_" display="none">
	<rect id="Fondo" x="-323.931" y="-1083.063" display="inline" fill="#FB6E92" width="1000" height="2438.351"/>
</g>
<g id="Guias">
</g>
<g id="Icons">
	<g display="none" opacity="0.2">
		<path display="inline" fill="#FFFFFF" d="M86.079,393.458c-11.282,3.635-35.885,28.281-38.51,36.152
			c-2.621,7.852,12.064,36.154,18.865,37.705c6.793,1.59,56.584-20.436,58.153-28.283
			C126.159,431.161,97.361,389.778,86.079,393.458z"/>
		<path display="inline" fill="#FFFFFF" d="M189.047,313.299c-10.498,0.494-88.546,59.726-88.033,69.146
			c0.519,9.423,29.359,46.63,37.729,47.952c8.363,1.301,70.221-78.342,72.307-88.814
			C213.135,331.086,199.519,312.76,189.047,313.299z"/>
		<path display="inline" fill="#FFFFFF" d="M503.982,26.854c-10.933-15.145-35.498-16.26-56.115-3.016
			c-7.87-4.01-17.023-7.233-27.768-9.215c0,0-391.393,317.515-477.854,378.833c0,0-3.302,7.004-8.775,18.408
			C31.579,480.579,20.427,532.43,20.427,532.43c-27.148-66.916-95.885-102.035-95.904-102.035
			c-24.626,50.697-68.835,139.307-92.309,172.113c0,0-0.04,18.016,22.025,29.48c0,0,150.072-101.025,193.329-109.641
			c0,0,23.883-23.281,60.697-58.922c-20.121,10.309-43.197,20.062-52.827,20.66c-16.772,1.053-36.153-39.438-34.583-53.775
			c1.569-14.34,153.521-139.575,176.038-137.984c22.54,1.569,29.875,22.518,30.414,37.725c0.205,6.548-13.655,26.546-30.414,48.012
			C310.151,269.394,453.075,134.22,493.976,104.222c0,0,0.414-10.661-3.14-24.688C508.524,64.187,514.537,41.522,503.982,26.854z
			 M-111.422,609.452c0,0-2.542-32.479-33.638-43.818C-145.06,565.633-92.832,541.999-111.422,609.452z"/>
	</g>
	<path display="none" opacity="0.5" fill="#71C8EA" enable-background="new    " d="M1457.125,343.114l3.333,3.334
		c0,0,17-13.666,32.5-11.834c0,0,21-27.998,50-37.832c0,0,17.667-9.834,7.167-30.668c-10.5-20.832-24.327-12.937-31.167-8
		c-9.583,6.916-39.771,40.322-51.5,56.334C1467.458,314.447,1470.958,330.782,1457.125,343.114z"/>
	<g>
		<path d="M20.42,9.067c-0.146-0.109-1.229-0.14-2.815-0.106c0.053-3.377-0.575-9.909-6.372-8.845
			C4.965,1.268,4.067,7.579,3.954,9.969c-1.667,0.236-2.809,0.497-2.939,0.762C0.459,11.84-0.412,31.086,0.222,31.642
			c0.633,0.555,23.05,0.396,23.286,0C23.746,31.247,21.053,9.543,20.42,9.067z M11.174,1.924c4.07-0.874,4.853,3.901,4.933,7.081
			C12.99,9.12,8.795,9.4,5.617,9.76C5.897,7.182,6.993,2.82,11.174,1.924z M17.798,22.812c-1.432,3.595-5.293,5.433-8.627,4.104
			s-4.876-5.316-3.444-8.91c1.431-3.594,5.293-5.432,8.627-4.104C17.686,15.229,19.229,19.217,17.798,22.812z"/>
		<ellipse transform="matrix(-0.9291 -0.3699 0.3699 -0.9291 15.5151 44.0024)" cx="11.976" cy="20.514" rx="5.495" ry="5.925"/>
	</g>
</g>
</svg>
