<?xml version="1.0" encoding="utf-8"?>
<!-- Generator: Adobe Illustrator 16.0.4, SVG Export Plug-In . SVG Version: 6.00 Build 0)  -->
<!DOCTYPE svg PUBLIC "-//W3C//DTD SVG 1.1//EN" "http://www.w3.org/Graphics/SVG/1.1/DTD/svg11.dtd">
<svg version="1.1" fill="rgb(0, 14, 156)" xmlns="http://www.w3.org/2000/svg" xmlns:xlink="http://www.w3.org/1999/xlink" x="0px" y="0px"
	 width="32px" height="13.486px" viewBox="0 0 32 13.486" enable-background="new 0 0 32 13.486" xml:space="preserve">
<g id="Fondo_1_" display="none">
	<rect id="Fondo" x="-369.965" y="-1093.676" display="inline" fill="#FB6E92" width="1000" height="2438.351"/>
</g>
<g id="Guias">
</g>
<g id="Icons">
	<g display="none" opacity="0.2">
		<path display="inline" fill="#FFFFFF" d="M40.044,382.845c-11.282,3.636-35.885,28.28-38.51,36.152
			c-2.621,7.851,12.065,36.154,18.864,37.705c6.793,1.59,56.584-20.437,58.154-28.284C80.124,420.548,51.326,379.166,40.044,382.845
			z"/>
		<path display="inline" fill="#FFFFFF" d="M143.014,302.687c-10.498,0.494-88.547,59.726-88.035,69.146
			c0.52,9.423,29.36,46.629,37.729,47.951c8.362,1.301,70.222-78.341,72.308-88.813
			C167.102,320.474,153.484,302.147,143.014,302.687z"/>
		<path display="inline" fill="#FFFFFF" d="M457.947,16.242c-10.933-15.145-35.498-16.26-56.115-3.016
			c-7.87-4.01-17.023-7.233-27.767-9.216c0,0-391.394,317.516-477.854,378.833c0,0-3.302,7.004-8.776,18.407
			c98.109,68.715,86.957,120.568,86.957,120.568c-27.149-66.916-95.885-102.037-95.905-102.037
			c-24.626,50.699-68.835,139.307-92.308,172.114c0,0-0.04,18.015,22.025,29.479c0,0,150.072-101.024,193.329-109.639
			c0,0,23.883-23.283,60.697-58.922c-20.121,10.308-43.197,20.062-52.828,20.658c-16.772,1.054-36.153-39.437-34.583-53.775
			c1.57-14.338,153.521-139.574,176.038-137.984c22.541,1.57,29.875,22.519,30.414,37.726c0.205,6.548-13.654,26.546-30.414,48.012
			c113.261-108.668,256.185-243.842,297.087-273.84c0,0,0.414-10.661-3.141-24.688C462.489,53.574,468.502,30.91,457.947,16.242z
			 M-157.457,598.839c0,0-2.542-32.478-33.638-43.817C-191.095,555.021-138.866,531.385-157.457,598.839z"/>
	</g>
	<path display="none" opacity="0.5" fill="#71C8EA" enable-background="new    " d="M1411.09,332.502l3.333,3.333
		c0,0,17-13.666,32.5-11.833c0,0,21-27.999,50-37.833c0,0,17.667-9.834,7.167-30.667s-24.327-12.937-31.167-8
		c-9.583,6.916-39.771,40.322-51.5,56.333C1421.423,303.835,1424.923,320.169,1411.09,332.502z"/>
	<path d="M31.654,0.479c-0.28-0.305-11.736-1.169-12.998,0.606c-0.594,0.835-1.076,2.059-2.151,2.198
		c-1.075,0.14-1.613-2.104-2.992-2.432C12.134,0.524,0.467,3.565,0.14,4.313c-0.327,0.748-0.023,2.523,0.346,2.759
		C0.855,7.306,2.244,6.51,2.574,6.76c0.33,0.249,3.06,6.087,3.645,6.577c0.584,0.491,7.2-0.328,7.761-1.122
		c0.561-0.795,1.45-5.705,1.73-6.22c0.281-0.514,1.449-0.935,1.87-0.187s1.122,5.553,1.895,6.044
		c0.771,0.489,7.527,0.619,8.486-0.246s2.17-7.699,2.45-8.073s1.36-0.39,1.524-0.764C32.1,2.396,31.936,0.783,31.654,0.479z
		 M13.127,10.801c-0.421,0.771-4.91,1.648-5.822,1.299c-0.912-0.352-3.647-5.856-3.121-7.015c0.526-1.156,8.732-2.945,9.504-2.278
		C14.459,3.472,13.547,10.029,13.127,10.801z M27.064,10.664c-0.246,0.246-5.942,0.452-6.539-0.038
		c-0.596-0.491-1.508-7.442-0.877-7.965c0.631-0.521,8.593-0.741,9.119,0C29.293,3.401,27.311,10.418,27.064,10.664z"/>
</g>
</svg>
