<?xml version="1.0" encoding="utf-8"?>
<!-- Generator: Adobe Illustrator 16.0.4, SVG Export Plug-In . SVG Version: 6.00 Build 0)  -->
<!DOCTYPE svg PUBLIC "-//W3C//DTD SVG 1.1//EN" "http://www.w3.org/Graphics/SVG/1.1/DTD/svg11.dtd">
<svg version="1.1" fill="rgb(0, 14, 156)" xmlns="http://www.w3.org/2000/svg" xmlns:xlink="http://www.w3.org/1999/xlink" x="0px" y="0px"
	 width="32px" height="26.857px" viewBox="0 0 32 26.857" enable-background="new 0 0 32 26.857" xml:space="preserve">
<g id="Fondo_1_" display="none">
	<rect id="Fondo" x="-421.966" y="-1086.989" display="inline" fill="#FB6E92" width="1000" height="2438.352"/>
</g>
<g id="Guias">
</g>
<g id="Icons">
	<g display="none" opacity="0.2">
		<path display="inline" fill="#FFFFFF" d="M-11.957,389.531c-11.282,3.636-35.885,28.281-38.51,36.152
			c-2.621,7.852,12.065,36.154,18.865,37.705c6.793,1.591,56.584-20.436,58.154-28.283C28.124,427.235-0.674,385.853-11.957,389.531
			z"/>
		<path display="inline" fill="#FFFFFF" d="M91.012,309.373c-10.498,0.494-88.546,59.726-88.034,69.146
			c0.519,9.423,29.36,46.63,37.729,47.951c8.363,1.301,70.221-78.341,72.307-88.814C115.1,327.16,101.484,308.834,91.012,309.373z"
			/>
		<path display="inline" fill="#FFFFFF" d="M405.947,22.929c-10.933-15.145-35.498-16.26-56.115-3.016
			c-7.87-4.01-17.023-7.233-27.767-9.215c0,0-391.394,317.515-477.854,378.833c0,0-3.302,7.003-8.776,18.407
			c98.109,68.715,86.957,120.567,86.957,120.567c-27.149-66.916-95.885-102.037-95.905-102.037
			c-24.626,50.699-68.835,139.308-92.308,172.114c0,0-0.04,18.015,22.025,29.48c0,0,150.072-101.024,193.329-109.64
			c0,0,23.883-23.283,60.697-58.922c-20.121,10.309-43.197,20.062-52.827,20.659c-16.772,1.053-36.153-39.438-34.583-53.776
			c1.57-14.338,153.521-139.574,176.038-137.984c22.541,1.57,29.875,22.519,30.414,37.726c0.205,6.548-13.654,26.546-30.414,48.012
			c113.261-108.668,256.185-243.842,297.087-273.84c0,0,0.414-10.661-3.141-24.688C410.489,60.261,416.501,37.597,405.947,22.929z
			 M-209.458,605.526c0,0-2.542-32.479-33.638-43.818C-243.095,561.707-190.867,538.073-209.458,605.526z"/>
	</g>
	<path display="none" opacity="0.5" fill="#71C8EA" enable-background="new    " d="M1359.089,339.188l3.333,3.333
		c0,0,17-13.666,32.5-11.833c0,0,21-27.999,50-37.833c0,0,17.667-9.834,7.167-30.667s-24.327-12.937-31.167-8
		c-9.583,6.916-39.771,40.322-51.5,56.333C1369.422,310.521,1372.922,326.855,1359.089,339.188z"/>
	<path d="M11.836,17.438L30.312,2.749c0,0-12.261-2.814-12.983-2.748C16.605,0.068,0.531,13.303,0.29,14.106
		c-0.241,0.804-0.508,7.127,0,7.876c0.509,0.751,10.181,4.931,11.333,4.876c1.151-0.053,19.771-9.563,20.253-10.22
		c0.481-0.657-0.589-11.808-0.589-11.808L11.836,17.438z M10.528,8.072c0.075-0.045,0.508-0.044,1.014-0.02
		c0.1-0.584,0.223-1.111,0.32-1.156c0.216-0.101,0.305-0.023,0.406,0.176c0.04,0.078,0.005,0.518-0.058,1.023
		c0.598,0.048,1.13,0.114,1.16,0.165c0.064,0.112,0.012,0.435-0.179,0.515c-0.078,0.032-0.545,0.024-1.076-0.009
		c-0.092,0.584-0.196,1.102-0.249,1.126c-0.118,0.057-0.435-0.021-0.5-0.217C11.342,9.6,11.377,9.192,11.441,8.71
		c-0.542-0.056-1.011-0.133-1.059-0.22C10.268,8.284,10.336,8.188,10.528,8.072z M6.033,18.603
		c-0.997,0.062-1.875-1.039-1.962-2.457c-0.016-0.263-0.004-0.518,0.033-0.76l1.048-0.757l-2.291-1.005l5.916-4.773
		c0.253,1.111,1.443,1.943,2.867,1.928c1.599-0.018,2.881-1.097,2.867-2.408c-0.013-1.137-0.995-2.073-2.294-2.294l4.588-3.703
		l5.827,1.769l-8.72,6.711l0.723,0.241l-6.967,5.411C7.554,17.655,6.89,18.55,6.033,18.603z"/>
</g>
</svg>
