<?xml version="1.0" encoding="utf-8"?>
<!-- Generator: Adobe Illustrator 16.0.4, SVG Export Plug-In . SVG Version: 6.00 Build 0)  -->
<!DOCTYPE svg PUBLIC "-//W3C//DTD SVG 1.1//EN" "http://www.w3.org/Graphics/SVG/1.1/DTD/svg11.dtd">
<svg version="1.1" fill="rgb(0, 14, 156)" xmlns="http://www.w3.org/2000/svg" xmlns:xlink="http://www.w3.org/1999/xlink" x="0px" y="0px"
	 width="22.348px" height="32px" viewBox="0 0 22.348 32" enable-background="new 0 0 22.348 32" xml:space="preserve">
<g id="Fondo_1_" display="none">
	<rect id="Fondo" x="-633.558" y="-1211.301" display="inline" fill="#FB6E92" width="1000.001" height="2438.351"/>
</g>
<g id="Guias">
</g>
<g id="Icons">
	<g display="none" opacity="0.2">
		<path display="inline" fill="#FFFFFF" d="M-223.549,265.221c-11.282,3.635-35.886,28.28-38.511,36.152
			c-2.621,7.852,12.065,36.154,18.865,37.705c6.793,1.59,56.584-20.436,58.154-28.284
			C-183.469,302.923-212.267,261.541-223.549,265.221z"/>
		<path display="inline" fill="#FFFFFF" d="M-120.58,185.062c-10.498,0.494-88.546,59.726-88.034,69.146
			c0.519,9.423,29.36,46.629,37.729,47.951c8.362,1.301,70.221-78.341,72.307-88.813C-96.492,202.85-110.108,184.521-120.58,185.062
			z"/>
		<path display="inline" fill="#FFFFFF" d="M194.354-101.383c-10.932-15.145-35.498-16.26-56.115-3.016
			c-7.869-4.009-17.022-7.233-27.767-9.215c0,0-391.393,317.515-477.854,378.833c0,0-3.303,7.004-8.776,18.407
			c98.109,68.715,86.957,120.568,86.957,120.568c-27.149-66.917-95.885-102.037-95.905-102.037
			c-24.626,50.698-68.835,139.307-92.308,172.114c0,0-0.04,18.015,22.024,29.479c0,0,150.072-101.024,193.329-109.64
			c0,0,23.884-23.282,60.697-58.922c-20.121,10.309-43.197,20.062-52.827,20.66c-16.771,1.053-36.152-39.438-34.583-53.776
			c1.57-14.339,153.521-139.574,176.038-137.984c22.54,1.57,29.875,22.519,30.414,37.726c0.205,6.547-13.655,26.545-30.414,48.012
			C0.525,141.158,143.449,5.984,184.352-24.014c0,0,0.414-10.661-3.14-24.688C198.896-64.051,204.909-86.715,194.354-101.383z
			 M-421.05,481.214c0,0-2.542-32.478-33.639-43.817C-454.688,437.396-402.459,413.761-421.05,481.214z"/>
	</g>
	<path display="none" opacity="0.5" fill="#71C8EA" enable-background="new    " d="M1147.497,214.877l3.333,3.333
		c0,0,17-13.666,32.5-11.833c0,0,21-27.999,50-37.833c0,0,17.667-9.834,7.167-30.667s-24.327-12.938-31.167-8
		c-9.583,6.916-39.771,40.322-51.5,56.333C1157.83,186.21,1161.33,202.544,1147.497,214.877z"/>
	<path d="M22.259,0L5.053,2.85l0.882,19.755C5.588,22.508,4.18,20.9,3.81,20.918C1.718,21.021,0,22.949,0,26.17S2.131,32,4.761,32
		s4.762-2.609,4.762-5.83c0-0.133-0.01-0.262-0.017-0.393h0.005L9.198,10.3l9.327-1.426l0.408,13.856
		c-0.396-0.133-2.131-1.764-2.562-1.75c-1.543,0.045-3.547,1.969-3.547,5.188s2.132,5.83,4.762,5.83s4.761-2.61,4.761-5.83
		C22.348,25.784,22.259,0,22.259,0z"/>
</g>
</svg>
