<?xml version="1.0" encoding="utf-8"?>
<!-- Generator: Adobe Illustrator 16.0.4, SVG Export Plug-In . SVG Version: 6.00 Build 0)  -->
<!DOCTYPE svg PUBLIC "-//W3C//DTD SVG 1.1//EN" "http://www.w3.org/Graphics/SVG/1.1/DTD/svg11.dtd">
<svg version="1.1" fill="rgb(0, 14, 156)" xmlns="http://www.w3.org/2000/svg" xmlns:xlink="http://www.w3.org/1999/xlink" x="0px" y="0px"
	 width="26.176px" height="32px" viewBox="0 0 26.176 32" enable-background="new 0 0 26.176 32" xml:space="preserve">
<g id="Fondo_1_" display="none">
	<rect id="Fondo" x="-684.87" y="-1211.531" display="inline" fill="#FB6E92" width="1000" height="2438.352"/>
</g>
<g id="Guias">
</g>
<g id="Icons">
	<g display="none" opacity="0.2">
		<path display="inline" fill="#FFFFFF" d="M-274.86,264.989c-11.282,3.636-35.885,28.28-38.51,36.153
			c-2.621,7.851,12.065,36.153,18.865,37.705c6.793,1.59,56.584-20.437,58.154-28.285
			C-234.78,302.691-263.578,261.311-274.86,264.989z"/>
		<path display="inline" fill="#FFFFFF" d="M-171.892,184.831c-10.498,0.494-88.546,59.726-88.034,69.146
			c0.519,9.424,29.36,46.629,37.729,47.951c8.363,1.301,70.221-78.341,72.307-88.814
			C-147.804,202.618-161.42,184.292-171.892,184.831z"/>
		<path display="inline" fill="#FFFFFF" d="M143.043-101.613c-10.932-15.145-35.498-16.26-56.115-3.016
			c-7.869-4.009-17.023-7.233-27.767-9.215c0,0-391.393,317.515-477.854,378.833c0,0-3.302,7.003-8.776,18.407
			c98.109,68.715,86.957,120.567,86.957,120.567c-27.149-66.916-95.885-102.037-95.905-102.037
			c-24.626,50.699-68.835,139.308-92.308,172.114c0,0-0.04,18.015,22.025,29.48c0,0,150.072-101.024,193.329-109.64
			c0,0,23.883-23.282,60.697-58.922c-20.121,10.308-43.197,20.062-52.827,20.659c-16.772,1.053-36.153-39.438-34.583-53.776
			c1.57-14.338,153.521-139.573,176.038-137.983c22.54,1.57,29.875,22.518,30.414,37.725c0.205,6.548-13.655,26.546-30.414,48.012
			C-50.786,140.928,92.139,5.754,133.04-24.244c0,0,0.414-10.661-3.14-24.688C147.585-64.281,153.598-86.945,143.043-101.613z
			 M-472.361,480.983c0,0-2.542-32.479-33.638-43.818C-505.999,437.165-453.771,413.53-472.361,480.983z"/>
	</g>
	<path display="none" opacity="0.5" fill="#71C8EA" enable-background="new    " d="M1096.186,214.646l3.334,3.332
		c0,0,17-13.666,32.5-11.832c0,0,21-28,50-37.834c0,0,17.666-9.834,7.166-30.666c-10.5-20.834-24.326-12.938-31.166-8
		c-9.584,6.916-39.771,40.321-51.5,56.332C1106.52,185.979,1110.02,202.312,1096.186,214.646z"/>
	<path d="M21.568,6.283c-2.444-1.443-4.271-3.569-4.271-3.569c-5.766-5.767-9.609-0.55-9.609-0.55l-0.244,19.77
		c-0.365-0.093-2.864-4.324-3.25-4.3C1.953,17.784,0,20.635,0,24.68C0,28.723,2.582,32,5.767,32c3.184,0,5.766-3.277,5.766-7.32
		c0-0.438-0.036-0.865-0.094-1.281h0.004L10.414,4.258l0,0c6.568,12.801,15.763,5.319,15.763,4.13
		C26.176,7.862,23.502,7.423,21.568,6.283z"/>
</g>
</svg>
