<?xml version="1.0" encoding="utf-8"?>
<!-- Generator: Adobe Illustrator 16.0.4, SVG Export Plug-In . SVG Version: 6.00 Build 0)  -->
<!DOCTYPE svg PUBLIC "-//W3C//DTD SVG 1.1//EN" "http://www.w3.org/Graphics/SVG/1.1/DTD/svg11.dtd">
<svg version="1.1" fill="rgb(0, 14, 156)" xmlns="http://www.w3.org/2000/svg" xmlns:xlink="http://www.w3.org/1999/xlink" x="0px" y="0px"
	 width="28.801px" height="32px" viewBox="0 0 28.801 32" enable-background="new 0 0 28.801 32" xml:space="preserve">
<g id="Fondo_1_" display="none">
	<rect id="Fondo" x="-786.609" y="-1211.522" display="inline" fill="#FB6E92" width="1000" height="2438.351"/>
</g>
<g id="Guias">
</g>
<g id="Icons">
	<g display="none" opacity="0.2">
		<path display="inline" fill="#FFFFFF" d="M-376.6,264.998c-11.282,3.636-35.885,28.281-38.51,36.152
			c-2.621,7.852,12.065,36.154,18.865,37.705c6.793,1.59,56.584-20.436,58.154-28.283
			C-336.52,302.701-365.317,261.318-376.6,264.998z"/>
		<path display="inline" fill="#FFFFFF" d="M-273.631,184.84c-10.498,0.494-88.546,59.727-88.034,69.146
			c0.519,9.423,29.36,46.629,37.729,47.951c8.363,1.301,70.221-78.342,72.307-88.814
			C-249.543,202.627-263.159,184.301-273.631,184.84z"/>
		<path display="inline" fill="#FFFFFF" d="M41.305-101.604c-10.933-15.145-35.499-16.26-56.116-3.016
			c-7.87-4.009-17.023-7.233-27.767-9.215c0,0-391.393,317.515-477.854,378.833c0,0-3.302,7.003-8.776,18.407
			c98.109,68.715,86.957,120.567,86.957,120.567c-27.149-66.916-95.885-102.037-95.905-102.037
			c-24.626,50.699-68.835,139.308-92.308,172.114c0,0-0.04,18.016,22.025,29.48c0,0,150.072-101.024,193.329-109.64
			c0,0,23.883-23.283,60.697-58.922c-20.121,10.309-43.197,20.062-52.827,20.659c-16.771,1.054-36.153-39.437-34.583-53.776
			c1.57-14.338,153.521-139.574,176.038-137.983c22.54,1.569,29.875,22.519,30.414,37.726c0.205,6.547-13.655,26.545-30.414,48.012
			C-152.525,140.938-9.602,5.763,31.301-24.235c0,0,0.414-10.661-3.14-24.688C45.846-64.272,51.857-86.937,41.305-101.604z
			 M-574.101,480.992c0,0-2.542-32.479-33.638-43.818C-607.738,437.174-555.51,413.539-574.101,480.992z"/>
	</g>
	<path display="none" opacity="0.5" fill="#71C8EA" enable-background="new    " d="M994.446,214.654l3.333,3.334
		c0,0,17-13.666,32.5-11.834c0,0,21-27.998,50-37.832c0,0,17.667-9.834,7.167-30.668c-10.5-20.832-24.327-12.937-31.167-8
		c-9.583,6.916-39.771,40.322-51.5,56.334C1004.779,185.988,1008.279,202.322,994.446,214.654z"/>
	<g>
		<path d="M21.688,19.607l-0.006,0.006c2.465-3.688,2.721-8.792,0.241-13.13C18.518,0.517,11.234-1.739,5.66,1.443
			C0.087,4.627-1.669,12.045,1.738,18.014c3.408,5.967,10.689,8.223,16.264,5.039c0,0,6.766,8.947,7.137,8.947
			c0.37,0,3.644-4.182,3.662-4.475C28.82,27.232,21.688,19.607,21.688,19.607z M16.704,20.137
			c-4.194,2.396-9.674,0.697-12.237-3.793c-2.565-4.49-1.243-10.072,2.95-12.468c4.194-2.396,9.674-0.697,12.237,3.793
			C22.219,12.159,20.898,17.741,16.704,20.137z"/>
		<path d="M14.291,9.931c0,0,0.355-2.893,0.206-3.211c-0.151-0.317-2.924,0.07-3.356,0.311c-0.432,0.241-0.732,3.246-0.732,3.246
			s-2.831,0.324-3.043,0.616c-0.212,0.291-0.424,2.577-0.22,2.916S10,14.123,10,14.123s-0.018,2.441,0.228,2.794
			s2.86-0.125,3.114-0.242c0.254-0.116,0.738-2.869,0.738-2.869s2.205-0.067,2.658-0.317c0.453-0.249,1.048-2.931,0.77-3.271
			C17.23,9.88,14.291,9.931,14.291,9.931z"/>
	</g>
</g>
</svg>
