<?xml version="1.0" encoding="utf-8"?>
<!-- Generator: Adobe Illustrator 16.0.4, SVG Export Plug-In . SVG Version: 6.00 Build 0)  -->
<!DOCTYPE svg PUBLIC "-//W3C//DTD SVG 1.1//EN" "http://www.w3.org/Graphics/SVG/1.1/DTD/svg11.dtd">
<svg version="1.1" fill="rgb(0, 14, 156)" xmlns="http://www.w3.org/2000/svg" xmlns:xlink="http://www.w3.org/1999/xlink" x="0px" y="0px"
	 width="28.801px" height="32px" viewBox="0 0 28.801 32" enable-background="new 0 0 28.801 32" xml:space="preserve">
<g id="Fondo_1_" display="none">
	<rect id="Fondo" x="-839.449" y="-1211.531" display="inline" fill="#FB6E92" width="1000" height="2438.352"/>
</g>
<g id="Guias">
</g>
<g id="Icons">
	<g display="none" opacity="0.2">
		<path display="inline" fill="#FFFFFF" d="M-429.439,264.989c-11.282,3.636-35.885,28.28-38.51,36.153
			c-2.621,7.851,12.065,36.153,18.865,37.705c6.793,1.59,56.584-20.437,58.154-28.285
			C-389.359,302.691-418.157,261.311-429.439,264.989z"/>
		<path display="inline" fill="#FFFFFF" d="M-326.471,184.831c-10.498,0.494-88.546,59.726-88.034,69.146
			c0.519,9.424,29.36,46.629,37.729,47.951c8.363,1.301,70.221-78.341,72.307-88.814
			C-302.383,202.618-315.999,184.292-326.471,184.831z"/>
		<path display="inline" fill="#FFFFFF" d="M-11.536-101.613c-10.932-15.145-35.498-16.26-56.115-3.016
			c-7.87-4.009-17.023-7.233-27.767-9.215c0,0-391.393,317.515-477.854,378.833c0,0-3.302,7.003-8.776,18.407
			c98.109,68.715,86.957,120.567,86.957,120.567c-27.149-66.916-95.885-102.037-95.905-102.037
			c-24.626,50.699-68.835,139.308-92.308,172.114c0,0-0.04,18.015,22.025,29.48c0,0,150.072-101.024,193.329-109.64
			c0,0,23.883-23.282,60.697-58.922c-20.121,10.308-43.197,20.062-52.827,20.659c-16.772,1.053-36.153-39.438-34.583-53.776
			c1.57-14.338,153.521-139.573,176.038-137.983c22.54,1.57,29.875,22.518,30.414,37.725c0.205,6.548-13.655,26.546-30.414,48.012
			C-205.365,140.928-62.441,5.754-21.539-24.244c0,0,0.414-10.661-3.14-24.688C-6.994-64.281-0.981-86.945-11.536-101.613z
			 M-626.94,480.983c0,0-2.542-32.479-33.638-43.818C-660.578,437.165-608.35,413.53-626.94,480.983z"/>
	</g>
	<path display="none" opacity="0.5" fill="#71C8EA" enable-background="new    " d="M941.606,214.646l3.333,3.332
		c0,0,17-13.666,32.5-11.832c0,0,21-28,50-37.834c0,0,17.666-9.834,7.166-30.666c-10.5-20.834-24.326-12.938-31.166-8
		c-9.584,6.916-39.771,40.321-51.5,56.332C951.939,185.979,955.439,202.312,941.606,214.646z"/>
	<g>
		<path d="M21.688,19.607l-0.006,0.006c2.465-3.688,2.721-8.792,0.241-13.13C18.518,0.517,11.234-1.739,5.66,1.443
			C0.087,4.627-1.669,12.045,1.738,18.014c3.408,5.967,10.689,8.223,16.264,5.039c0,0,6.766,8.947,7.137,8.947
			c0.37,0,3.644-4.182,3.662-4.475C28.82,27.232,21.688,19.607,21.688,19.607z M16.704,20.137
			c-4.194,2.396-9.674,0.697-12.237-3.793c-2.565-4.49-1.243-10.072,2.95-12.468c4.194-2.396,9.674-0.697,12.237,3.793
			C22.219,12.159,20.898,17.741,16.704,20.137z"/>
		<path d="M17.508,10.219C17.23,9.88,14.2,10.085,14.2,10.085l-3.792,0.191c0,0-2.84,0.119-3.052,0.411
			c-0.212,0.291-0.415,2.782-0.211,3.121C7.349,14.147,10,14.123,10,14.123l4.2-0.16c0,0,2.141-0.057,2.594-0.307
			C17.247,13.407,17.786,10.558,17.508,10.219z"/>
	</g>
</g>
</svg>
