<?xml version="1.0" encoding="utf-8"?>
<!-- Generator: Adobe Illustrator 16.0.4, SVG Export Plug-In . SVG Version: 6.00 Build 0)  -->
<!DOCTYPE svg PUBLIC "-//W3C//DTD SVG 1.1//EN" "http://www.w3.org/Graphics/SVG/1.1/DTD/svg11.dtd">
<svg version="1.1" fill="rgb(0, 14, 156)" xmlns="http://www.w3.org/2000/svg" xmlns:xlink="http://www.w3.org/1999/xlink" x="0px" y="0px"
	 width="32px" height="30.773px" viewBox="0 0 32 30.773" enable-background="new 0 0 32 30.773" xml:space="preserve">
<g id="Fondo_1_" display="none">
	<rect id="Fondo" x="-109.966" y="-1276.136" display="inline" fill="#FB6E92" width="1000" height="2438.351"/>
</g>
<g id="Guias">
</g>
<g id="Icons">
	<g display="none" opacity="0.2">
		<path display="inline" fill="#FFFFFF" d="M300.043,200.385c-11.282,3.637-35.885,28.281-38.51,36.153
			c-2.621,7.852,12.064,36.154,18.865,37.705c6.793,1.59,56.584-20.436,58.153-28.284
			C340.123,238.088,311.325,196.706,300.043,200.385z"/>
		<path display="inline" fill="#FFFFFF" d="M403.012,120.227c-10.498,0.494-88.546,59.726-88.034,69.146
			c0.52,9.423,29.36,46.629,37.729,47.951c8.363,1.301,70.221-78.341,72.307-88.814C427.1,138.014,413.483,119.688,403.012,120.227z
			"/>
		<path display="inline" fill="#FFFFFF" d="M717.946-166.218c-10.933-15.146-35.498-16.26-56.115-3.016
			c-7.87-4.01-17.023-7.233-27.767-9.216c0,0-391.394,317.516-477.854,378.833c0,0-3.302,7.004-8.776,18.407
			c98.109,68.715,86.957,120.568,86.957,120.568c-27.148-66.916-95.885-102.037-95.904-102.037
			c-24.627,50.7-68.836,139.308-92.307,172.115c0,0-0.041,18.016,22.024,29.48c0,0,150.071-101.023,193.329-109.639
			c0,0,23.883-23.283,60.697-58.922c-20.121,10.308-43.197,20.062-52.828,20.659c-16.771,1.053-36.152-39.438-34.582-53.776
			c1.57-14.338,153.521-139.574,176.038-137.984c22.54,1.57,29.875,22.519,30.413,37.726c0.205,6.548-13.654,26.546-30.413,48.012
			C524.117,76.323,667.041-58.851,707.943-88.849c0,0,0.414-10.661-3.141-24.688C722.488-128.886,728.501-151.55,717.946-166.218z
			 M102.542,416.379c0,0-2.542-32.478-33.638-43.817C68.904,372.561,121.133,348.926,102.542,416.379z"/>
	</g>
	<path display="none" opacity="0.5" fill="#71C8EA" enable-background="new    " d="M1671.089,150.042l3.333,3.333
		c0,0,17-13.666,32.5-11.833c0,0,21-27.999,50-37.833c0,0,17.667-9.834,7.167-30.667s-24.327-12.937-31.167-8
		c-9.583,6.916-39.771,40.322-51.5,56.333C1681.422,121.375,1684.922,137.709,1671.089,150.042z"/>
	<g>
		<path d="M3.107,0c0,0-9.75,20.071,5.293,20.479l-0.617,6.337c-2.457,0.233-4.265,1.015-4.265,1.941
			c0,1.113,2.598,2.017,5.804,2.017c3.205,0,5.803-0.902,5.803-2.017c0-0.95-1.898-1.745-4.448-1.959v-6.391
			C14.33,19.907,21.706,16.894,15.203,0H3.107z M9.066,18.216C-3.201,18.216,4.15,1.92,4.15,1.92l10.148-0.055
			C20.441,18.65,9.066,18.216,9.066,18.216z"/>
		<path d="M31.303,0.329h-1.354c1.95,9.035-1.183,11.568-3.091,12.279l0.166-12.226h-1.526l-0.588,12.47
			c-6.138-0.64-2.562-10.578-1.802-12.523H21.54c0,0-5.559,14.486,3.271,14.593l-0.748,15.853h2.545l0.22-16.02
			C29.373,14.153,33.693,11.522,31.303,0.329z"/>
	</g>
</g>
</svg>
