<?xml version="1.0" encoding="utf-8"?>
<!-- Generator: Adobe Illustrator 16.0.4, SVG Export Plug-In . SVG Version: 6.00 Build 0)  -->
<!DOCTYPE svg PUBLIC "-//W3C//DTD SVG 1.1//EN" "http://www.w3.org/Graphics/SVG/1.1/DTD/svg11.dtd">
<svg version="1.1" fill="rgb(0, 14, 156)" xmlns="http://www.w3.org/2000/svg" xmlns:xlink="http://www.w3.org/1999/xlink" x="0px" y="0px"
	 width="32px" height="30.84px" viewBox="0 0 32 30.84" enable-background="new 0 0 32 30.84" xml:space="preserve">
<g id="Fondo_1_" display="none">
	<rect id="Fondo" x="-161.966" y="-1276.102" display="inline" fill="#FB6E92" width="1000" height="2438.351"/>
</g>
<g id="Guias">
</g>
<g id="Icons">
	<g display="none" opacity="0.2">
		<path display="inline" fill="#FFFFFF" d="M248.043,200.418c-11.281,3.637-35.885,28.281-38.51,36.153
			c-2.621,7.851,12.064,36.154,18.865,37.705c6.793,1.591,56.584-20.437,58.153-28.284
			C288.123,238.122,259.325,196.741,248.043,200.418z"/>
		<path display="inline" fill="#FFFFFF" d="M351.012,120.26c-10.498,0.494-88.546,59.727-88.033,69.146
			c0.519,9.424,29.359,46.629,37.729,47.951c8.363,1.301,70.221-78.341,72.307-88.814C375.1,138.047,361.483,119.722,351.012,120.26
			z"/>
		<path display="inline" fill="#FFFFFF" d="M665.946-166.184c-10.933-15.145-35.498-16.26-56.115-3.016
			c-7.87-4.009-17.023-7.233-27.767-9.215c0,0-391.394,317.515-477.854,378.833c0,0-3.302,7.002-8.776,18.406
			c98.109,68.715,86.957,120.568,86.957,120.568c-27.148-66.916-95.885-102.037-95.904-102.037
			C61.859,288.057,17.65,376.665-5.821,409.471c0,0-0.04,18.016,22.025,29.48c0,0,150.071-101.023,193.329-109.639
			c0,0,23.883-23.283,60.697-58.922c-20.121,10.309-43.197,20.062-52.828,20.658c-16.771,1.054-36.152-39.437-34.582-53.775
			C184.391,222.937,336.342,97.7,358.859,99.29c22.54,1.57,29.875,22.519,30.414,37.726c0.204,6.548-13.655,26.546-30.414,48.012
			C472.117,76.357,615.041-58.816,655.943-88.814c0,0,0.414-10.661-3.141-24.688C670.488-128.852,676.501-151.516,665.946-166.184z
			 M50.542,416.413c0,0-2.542-32.478-33.638-43.817C16.904,372.595,69.133,348.959,50.542,416.413z"/>
	</g>
	<path display="none" opacity="0.5" fill="#71C8EA" enable-background="new    " d="M1619.089,150.077l3.333,3.332
		c0,0,17-13.666,32.5-11.832c0,0,21-28,50-37.834c0,0,17.667-9.834,7.167-30.666c-10.5-20.834-24.327-12.938-31.167-8
		c-9.583,6.916-39.771,40.321-51.5,56.332C1629.422,121.409,1632.922,137.743,1619.089,150.077z"/>
	<g>
		<path d="M3.333,10.37c-5.685,3.981-2.374,11.25-2.374,11.25C1.944,21.887,3,22.104,4.105,22.277
			C4.105,22.275,2.969,14.588,3.333,10.37z"/>
		<path d="M29.363,11.206c-0.227,4.778-1.717,10.744-1.717,10.746c1.562-0.188,2.496-0.332,2.496-0.332S34.801,15.295,29.363,11.206
			z"/>
		<path d="M8.676,29.849c0.731,0.657,14.775,1.394,15.543,0.733c0.521-0.444,0.336-4.213,0.163-6.604L8.551,23.633
			C8.38,25.679,8.15,29.375,8.676,29.849z"/>
		<path d="M27.823,7.285c-0.171-0.463-0.608-0.819-1.249-1.086c-0.18,3.309-0.479,6.496-0.479,6.496H7.707
			c0,0-0.197-2.525-0.294-5.159C6.362,7.841,5.62,8.135,5.342,8.38C3.646,9.874,5.29,21.899,5.339,22.26l0.051,0.197
			c1.44,0.228,1.68,0.199,3.238,0.297c0,0,12.839-0.107,15.618-0.436c1.314-0.126,1.402-0.13,2.332-0.242l0.076-0.113
			C26.654,21.963,29.213,11.087,27.823,7.285z"/>
	</g>
	<path d="M24.657,0.226C23.889-0.762,9.626,1.762,8.968,2.529c-0.658,0.767,0,9.216,0,9.216h15.47
		C24.438,11.745,25.425,1.213,24.657,0.226z M23.505,9.368l-13.75,1.125V9.659l13.75-1.416V9.368z M23.505,7.368L9.755,8.493V7.659
		l13.75-1.416V7.368z M23.505,5.368L9.755,6.493V5.659l13.75-1.416V5.368z M23.505,3.368L9.755,4.493V3.659l13.75-1.416V3.368z"/>
</g>
</svg>
