<?xml version="1.0" encoding="utf-8"?>
<!-- Generator: Adobe Illustrator 16.0.4, SVG Export Plug-In . SVG Version: 6.00 Build 0)  -->
<!DOCTYPE svg PUBLIC "-//W3C//DTD SVG 1.1//EN" "http://www.w3.org/Graphics/SVG/1.1/DTD/svg11.dtd">
<svg version="1.1" fill="rgb(0, 14, 156)" xmlns="http://www.w3.org/2000/svg" xmlns:xlink="http://www.w3.org/1999/xlink" x="0px" y="0px"
	 width="15.893px" height="32px" viewBox="0 0 15.893 32" enable-background="new 0 0 15.893 32" xml:space="preserve">
<g id="Fondo_1_" display="none">
	<rect id="Fondo" x="-537.433" y="-1083.522" display="inline" fill="#FB6E92" width="1000" height="2438.351"/>
</g>
<g id="Guias">
</g>
<g id="Icons">
	<g display="none" opacity="0.2">
		<path display="inline" fill="#FFFFFF" d="M-127.424,392.998c-11.282,3.636-35.885,28.281-38.51,36.153
			c-2.621,7.851,12.064,36.153,18.865,37.705c6.793,1.59,56.584-20.437,58.153-28.284
			C-87.344,430.701-116.142,389.318-127.424,392.998z"/>
		<path display="inline" fill="#FFFFFF" d="M-24.455,312.84c-10.498,0.494-88.546,59.727-88.034,69.146
			c0.52,9.423,29.36,46.629,37.729,47.95c8.363,1.302,70.221-78.341,72.307-88.813C-0.367,330.627-13.983,312.301-24.455,312.84z"/>
		<path display="inline" fill="#FFFFFF" d="M290.479,26.396c-10.933-15.146-35.498-16.261-56.115-3.017
			c-7.87-4.009-17.023-7.233-27.767-9.215c0,0-391.394,317.515-477.854,378.833c0,0-3.302,7.003-8.776,18.407
			c98.109,68.715,86.957,120.567,86.957,120.567c-27.148-66.916-95.885-102.037-95.904-102.037
			c-24.626,50.699-68.835,139.308-92.309,172.114c0,0-0.04,18.016,22.025,29.48c0,0,150.072-101.024,193.329-109.64
			c0,0,23.883-23.282,60.697-58.922c-20.121,10.309-43.197,20.062-52.827,20.659c-16.772,1.053-36.153-39.437-34.583-53.776
			c1.569-14.338,153.521-139.574,176.038-137.983c22.54,1.569,29.875,22.519,30.414,37.726c0.204,6.547-13.655,26.545-30.414,48.012
			c113.26-108.668,256.184-243.842,297.087-273.84c0,0,0.414-10.662-3.141-24.688C295.021,63.729,301.034,41.062,290.479,26.396z
			 M-324.925,608.992c0,0-2.542-32.479-33.638-43.818C-358.562,565.174-306.334,541.539-324.925,608.992z"/>
	</g>
	<path display="none" opacity="0.5" fill="#71C8EA" enable-background="new    " d="M1243.622,342.654l3.333,3.334
		c0,0,17-13.666,32.5-11.834c0,0,21-27.998,50-37.832c0,0,17.667-9.834,7.167-30.668c-10.5-20.832-24.327-12.937-31.167-8
		c-9.583,6.916-39.771,40.322-51.5,56.334C1253.955,313.988,1257.455,330.322,1243.622,342.654z"/>
	<path d="M8.986,10.132c-0.075-6.89,6.905-2.92,6.905-2.92l-0.164-5.393C9.549-1.55,6.649,0.235,4.568,3.317
		C2.66,6.145,3.31,10.805,3.31,10.805l0.074,2.369L0,13.353v3.745H3.51L3.984,32h5.603c0,0-0.271-8.089-0.453-14.902h6.595V12.53
		l-6.695,0.35C9.012,11.839,8.995,10.904,8.986,10.132z"/>
</g>
</svg>
