<?xml version="1.0" encoding="utf-8"?>
<!-- Generator: Adobe Illustrator 16.0.4, SVG Export Plug-In . SVG Version: 6.00 Build 0)  -->
<!DOCTYPE svg PUBLIC "-//W3C//DTD SVG 1.1//EN" "http://www.w3.org/Graphics/SVG/1.1/DTD/svg11.dtd">
<svg version="1.1" fill="rgb(0, 14, 156)" xmlns="http://www.w3.org/2000/svg" xmlns:xlink="http://www.w3.org/1999/xlink" x="0px" y="0px"
	 width="32px" height="31.969px" viewBox="0 0 32 31.969" enable-background="new 0 0 32 31.969" xml:space="preserve">
<g id="Fondo_1_" display="none">
	<rect id="Fondo" x="-577.961" y="-1083.537" display="inline" fill="#FB6E92" width="1000" height="2438.352"/>
</g>
<g id="Guias">
</g>
<g id="Icons">
	<g display="none" opacity="0.2">
		<path display="inline" fill="#FFFFFF" d="M-167.952,392.982c-11.282,3.637-35.885,28.281-38.51,36.153
			c-2.621,7.852,12.065,36.154,18.865,37.705c6.793,1.59,56.584-20.436,58.154-28.284
			C-127.872,430.688-156.67,389.305-167.952,392.982z"/>
		<path display="inline" fill="#FFFFFF" d="M-64.983,312.825c-10.498,0.493-88.546,59.726-88.034,69.146
			c0.519,9.424,29.36,46.629,37.729,47.951c8.363,1.301,70.221-78.341,72.307-88.814C-40.896,330.611-54.512,312.286-64.983,312.825
			z"/>
		<path display="inline" fill="#FFFFFF" d="M249.951,26.381c-10.932-15.145-35.498-16.26-56.115-3.016
			c-7.87-4.01-17.023-7.233-27.768-9.215c0,0-391.393,317.515-477.854,378.833c0,0-3.302,7.004-8.776,18.407
			c98.109,68.716,86.957,120.568,86.957,120.568c-27.149-66.916-95.885-102.037-95.905-102.037
			c-24.626,50.699-68.835,139.308-92.308,172.114c0,0-0.04,18.015,22.025,29.479c0,0,150.072-101.023,193.329-109.639
			c0,0,23.883-23.283,60.697-58.922c-20.121,10.308-43.197,20.062-52.827,20.659c-16.772,1.053-36.153-39.438-34.583-53.776
			c1.57-14.338,153.521-139.573,176.038-137.983c22.54,1.569,29.875,22.518,30.414,37.725c0.205,6.548-13.655,26.546-30.414,48.012
			c113.26-108.668,256.184-243.842,297.086-273.84c0,0,0.413-10.661-3.14-24.688C254.493,63.713,260.506,41.049,249.951,26.381z
			 M-365.453,608.979c0,0-2.542-32.479-33.638-43.818C-399.091,565.159-346.862,541.524-365.453,608.979z"/>
	</g>
	<path display="none" opacity="0.5" fill="#71C8EA" enable-background="new    " d="M1203.094,342.641l3.333,3.334
		c0,0,17-13.666,32.5-11.834c0,0,21-27.998,50-37.832c0,0,17.667-9.834,7.167-30.668c-10.5-20.832-24.327-12.937-31.167-8
		c-9.583,6.916-39.771,40.322-51.5,56.334C1213.427,313.975,1216.927,330.309,1203.094,342.641z"/>
	<path d="M29.398,1.075C26.982-1.226,2.939,0.517,0.983,3.03c-1.955,2.514-0.69,26.345,1.15,27.725
		c1.841,1.381,26.92,1.841,28.876,0S31.814,3.376,29.398,1.075z M19.253,14.401l5.142-0.27v3.51H19.33
		c0.139,5.232,0.348,11.445,0.348,11.445h-4.303l-0.364-11.445h-2.696v-2.876l2.601-0.137l-0.058-1.819c0,0-0.5-3.58,0.966-5.752
		c1.599-2.367,3.824-3.738,8.57-1.15l0.127,4.142c0,0-5.361-3.049-5.305,2.243C19.225,12.884,19.236,13.602,19.253,14.401z"/>
</g>
</svg>
