<?xml version="1.0" encoding="utf-8"?>
<!-- Generator: Adobe Illustrator 16.0.4, SVG Export Plug-In . SVG Version: 6.00 Build 0)  -->
<!DOCTYPE svg PUBLIC "-//W3C//DTD SVG 1.1//EN" "http://www.w3.org/Graphics/SVG/1.1/DTD/svg11.dtd">
<svg version="1.1" fill="rgb(0, 14, 156)" xmlns="http://www.w3.org/2000/svg" xmlns:xlink="http://www.w3.org/1999/xlink" x="0px" y="0px"
	 width="32px" height="32px" viewBox="0 0 32 32" enable-background="new 0 0 32 32" xml:space="preserve">
<g id="Fondo_1_" display="none">
	<rect id="Fondo" x="-629.997" y="-1083.522" display="inline" fill="#FB6E92" width="1000" height="2438.352"/>
</g>
<g id="Guias">
</g>
<g id="Icons">
	<g display="none" opacity="0.2">
		<path display="inline" fill="#FFFFFF" d="M-219.987,392.998c-11.282,3.637-35.885,28.281-38.51,36.152
			c-2.621,7.852,12.065,36.154,18.865,37.705c6.793,1.59,56.584-20.436,58.154-28.283
			C-179.907,430.701-208.705,389.318-219.987,392.998z"/>
		<path display="inline" fill="#FFFFFF" d="M-117.019,312.84c-10.498,0.494-88.546,59.727-88.034,69.146
			c0.519,9.422,29.36,46.629,37.729,47.951c8.363,1.301,70.221-78.342,72.307-88.814
			C-92.931,330.627-106.547,312.301-117.019,312.84z"/>
		<path display="inline" fill="#FFFFFF" d="M197.916,26.396c-10.932-15.146-35.498-16.26-56.115-3.017
			c-7.869-4.009-17.023-7.233-27.767-9.215c0,0-391.393,317.515-477.854,378.833c0,0-3.302,7.004-8.776,18.406
			c98.109,68.715,86.957,120.568,86.957,120.568c-27.149-66.916-95.885-102.037-95.905-102.037
			c-24.626,50.699-68.835,139.307-92.308,172.115c0,0-0.04,18.014,22.025,29.479c0,0,150.072-101.023,193.329-109.639
			c0,0,23.883-23.283,60.697-58.922c-20.121,10.309-43.197,20.062-52.827,20.66c-16.772,1.053-36.153-39.438-34.583-53.777
			c1.57-14.338,153.521-139.574,176.038-137.983c22.54,1.569,29.875,22.519,30.414,37.726c0.205,6.547-13.655,26.545-30.414,48.012
			c113.26-108.668,256.185-243.842,297.086-273.84c0,0,0.414-10.662-3.14-24.688C202.458,63.729,208.471,41.062,197.916,26.396z
			 M-417.488,608.992c0,0-2.542-32.479-33.638-43.818C-451.126,565.174-398.897,541.539-417.488,608.992z"/>
	</g>
	<path display="none" opacity="0.5" fill="#71C8EA" enable-background="new    " d="M1151.059,342.654l3.334,3.334
		c0,0,17-13.666,32.5-11.834c0,0,21-27.998,50-37.832c0,0,17.666-9.834,7.166-30.668c-10.5-20.832-24.326-12.936-31.166-8
		c-9.584,6.916-39.771,40.322-51.5,56.334C1161.393,313.988,1164.893,330.322,1151.059,342.654z"/>
	<path d="M30.861,9.979C27.594,1.795,18.29-2.145,10.082,1.181C1.875,4.507-2.129,13.838,1.139,22.021
		c3.268,8.185,12.57,12.123,20.777,8.797C30.124,27.494,34.129,18.163,30.861,9.979z M16.711,13.947l4.376-0.231v3.007h-4.31
		c0.117,4.487,0.295,9.813,0.295,9.813H13.41l-0.309-9.813h-2.295v-2.465l2.212-0.117l-0.048-1.56c0,0-0.426-3.068,0.822-4.931
		c1.359-2.03,3.255-3.205,7.294-0.987l0.105,3.551c0,0-4.562-2.613-4.512,1.923C16.688,12.646,16.695,13.262,16.711,13.947z"/>
</g>
</svg>
