<?xml version="1.0" encoding="utf-8"?>
<!-- Generator: Adobe Illustrator 16.0.4, SVG Export Plug-In . SVG Version: 6.00 Build 0)  -->
<!DOCTYPE svg PUBLIC "-//W3C//DTD SVG 1.1//EN" "http://www.w3.org/Graphics/SVG/1.1/DTD/svg11.dtd">
<svg version="1.1" fill="rgb(0, 14, 156)" xmlns="http://www.w3.org/2000/svg" xmlns:xlink="http://www.w3.org/1999/xlink" x="0px" y="0px"
	 width="32px" height="31.085px" viewBox="0 0 32 31.085" enable-background="new 0 0 32 31.085" xml:space="preserve">
<g id="Fondo_1_" display="none">
	<rect id="Fondo" x="-681.957" y="-1083.98" display="inline" fill="#FB6E92" width="1000" height="2438.351"/>
</g>
<g id="Guias">
</g>
<g id="Icons">
	<g display="none" opacity="0.2">
		<path display="inline" fill="#FFFFFF" d="M-271.947,392.541c-11.282,3.635-35.885,28.281-38.51,36.152
			c-2.621,7.852,12.065,36.154,18.865,37.705c6.793,1.59,56.584-20.436,58.154-28.283
			C-231.867,430.244-260.665,388.861-271.947,392.541z"/>
		<path display="inline" fill="#FFFFFF" d="M-168.979,312.382c-10.498,0.494-88.546,59.726-88.034,69.146
			c0.519,9.423,29.36,46.63,37.729,47.95c8.363,1.303,70.221-78.34,72.307-88.812C-144.891,330.169-158.507,311.843-168.979,312.382
			z"/>
		<path display="inline" fill="#FFFFFF" d="M145.956,25.938c-10.932-15.145-35.498-16.26-56.115-3.017
			c-7.869-4.008-17.022-7.232-27.766-9.214c0,0-391.394,317.515-477.855,378.833c0,0-3.302,7.002-8.776,18.406
			c98.109,68.715,86.957,120.568,86.957,120.568c-27.149-66.916-95.885-102.037-95.905-102.037
			c-24.626,50.699-68.835,139.307-92.308,172.113c0,0-0.04,18.016,22.025,29.48c0,0,150.072-101.023,193.329-109.639
			c0,0,23.883-23.283,60.697-58.922c-20.121,10.309-43.197,20.062-52.827,20.658c-16.772,1.053-36.153-39.436-34.583-53.775
			c1.57-14.338,153.521-139.574,176.038-137.984c22.54,1.57,29.875,22.519,30.414,37.726c0.205,6.548-13.655,26.546-30.414,48.012
			c113.26-108.668,256.184-243.842,297.086-273.84c0,0,0.414-10.661-3.141-24.688C150.499,63.27,156.511,40.605,145.956,25.938z
			 M-469.448,608.535c0,0-2.542-32.479-33.638-43.818C-503.086,564.716-450.857,541.082-469.448,608.535z"/>
	</g>
	<path display="none" opacity="0.5" fill="#71C8EA" enable-background="new    " d="M1099.098,342.197l3.334,3.333
		c0,0,17-13.665,32.5-11.833c0,0,21-27.998,50-37.833c0,0,17.666-9.834,7.166-30.667c-10.5-20.832-24.326-12.938-31.166-8
		c-9.584,6.916-39.771,40.322-51.5,56.333C1109.432,313.53,1112.932,329.865,1099.098,342.197z"/>
	<g>
		<path d="M31.947,6.35c-0.687-0.42-5.126-1.472-5.131-1.473C26.551,3.127,25.603,0,22.2,0c-4.021,0-4.457,2.447-5.681,4.981
			C15.417,7.264,8.554,12.023,0,11.274c0,0,2.605,6.616,8.016,9.183c-0.004-2.937,2.349-5.646,5.712-6.331
			c3.409-0.693,6.676,0.938,7.774,3.711c2.983-2.492,4.328-5.567,4.934-7.956l-0.002,0.025C26.434,9.907,32.635,6.771,31.947,6.35z
			 M24.002,6.352c-0.402,1.211-1.547,1.92-2.553,1.584c-1.009-0.336-1.498-1.589-1.096-2.8c0.404-1.211,1.548-1.92,2.557-1.584
			C23.917,3.888,24.407,5.142,24.002,6.352z"/>
		<path d="M21.143,18.134c-1.35-2.309-4.325-3.587-7.415-2.959c-2.974,0.604-5.155,2.795-5.619,5.325
			c1.16,0.537,2.449,0.885,3.866,0.944l0.729,6.669l-2.331,0.934v0.582l2.331-0.467l1.224,1.924l0.699-0.524l-0.699-1.34l1.923,0.35
			l0.233-0.815l-2.215-0.467l-1.177-6.836c0.938-0.025,1.93-0.18,2.975-0.484l1.278,4.064L14.841,26.4l0.113,0.571l2.195-0.91
			l1.574,1.647l0.584-0.65l-0.946-1.18l1.954-0.03l0.068-0.847l-2.262-0.024l-1.641-4.272c0.214-0.078,0.432-0.162,0.648-0.252
			C18.709,19.798,20.032,19.007,21.143,18.134z"/>
	</g>
</g>
</svg>
