<?xml version="1.0" encoding="utf-8"?>
<!-- Generator: Adobe Illustrator 16.0.4, SVG Export Plug-In . SVG Version: 6.00 Build 0)  -->
<!DOCTYPE svg PUBLIC "-//W3C//DTD SVG 1.1//EN" "http://www.w3.org/Graphics/SVG/1.1/DTD/svg11.dtd">
<svg version="1.1" fill="rgb(0, 14, 156)" xmlns="http://www.w3.org/2000/svg" xmlns:xlink="http://www.w3.org/1999/xlink" x="0px" y="0px"
	 width="32px" height="31.969px" viewBox="0 0 32 31.969" enable-background="new 0 0 32 31.969" xml:space="preserve">
<g id="Fondo_1_" display="none">
	<rect id="Fondo" x="-733.48" y="-1083.537" display="inline" fill="#FB6E92" width="1000" height="2438.352"/>
</g>
<g id="Guias">
</g>
<g id="Icons">
	<g display="none" opacity="0.2">
		<path display="inline" fill="#FFFFFF" d="M-323.471,392.982c-11.282,3.637-35.885,28.281-38.51,36.153
			c-2.621,7.852,12.065,36.154,18.865,37.705c6.793,1.59,56.584-20.436,58.154-28.284
			C-283.391,430.688-312.188,389.305-323.471,392.982z"/>
		<path display="inline" fill="#FFFFFF" d="M-220.502,312.825c-10.498,0.493-88.546,59.726-88.034,69.146
			c0.519,9.424,29.36,46.629,37.729,47.951c8.363,1.301,70.221-78.341,72.307-88.814
			C-196.414,330.611-210.03,312.286-220.502,312.825z"/>
		<path display="inline" fill="#FFFFFF" d="M94.434,26.381c-10.933-15.145-35.498-16.26-56.115-3.016
			c-7.87-4.01-17.023-7.233-27.768-9.215c0,0-391.393,317.515-477.854,378.833c0,0-3.302,7.004-8.776,18.407
			c98.109,68.716,86.957,120.568,86.957,120.568c-27.149-66.916-95.885-102.037-95.905-102.037
			c-24.626,50.699-68.835,139.308-92.308,172.114c0,0-0.04,18.015,22.025,29.479c0,0,150.072-101.023,193.329-109.639
			c0,0,23.883-23.283,60.697-58.922c-20.121,10.308-43.197,20.062-52.827,20.659c-16.772,1.053-36.153-39.438-34.583-53.776
			c1.57-14.338,153.521-139.573,176.038-137.983c22.54,1.569,29.875,22.518,30.414,37.725c0.205,6.548-13.655,26.546-30.414,48.012
			C-99.396,268.922,43.527,133.748,84.43,103.75c0,0,0.414-10.661-3.14-24.688C98.975,63.713,104.986,41.049,94.434,26.381z
			 M-520.972,608.979c0,0-2.542-32.479-33.638-43.818C-554.609,565.159-502.381,541.524-520.972,608.979z"/>
	</g>
	<path display="none" opacity="0.5" fill="#71C8EA" enable-background="new    " d="M1047.575,342.641l3.333,3.334
		c0,0,17-13.666,32.5-11.834c0,0,21-27.998,50-37.832c0,0,17.667-9.834,7.167-30.668c-10.5-20.832-24.327-12.937-31.167-8
		c-9.583,6.916-39.771,40.322-51.5,56.334C1057.908,313.975,1061.408,330.309,1047.575,342.641z"/>
	<g>
		<ellipse transform="matrix(-0.9488 -0.316 0.316 -0.9488 38.4665 26.0317)" cx="21.344" cy="9.897" rx="1.515" ry="1.82"/>
		<path d="M29.398,1.075C26.982-1.226,2.939,0.517,0.983,3.03c-1.955,2.514-0.69,26.345,1.15,27.725
			c1.841,1.381,26.92,1.841,28.876,0S31.814,3.376,29.398,1.075z M18.146,25.049l1.781,0.021l-0.055,0.666l-1.539,0.023l0.745,0.93
			l-0.46,0.513l-1.24-1.298l-1.729,0.717l-0.089-0.45l1.658-1.077l-1.008-3.201c-0.822,0.239-1.604,0.36-2.343,0.381l0.927,5.387
			l1.745,0.367l-0.184,0.643l-1.516-0.275l0.552,1.057l-0.552,0.413l-0.964-1.515l-1.836,0.366v-0.459l1.836-0.733l-0.573-5.254
			c-1.116-0.049-2.132-0.321-3.046-0.744c0.365-1.993,2.084-3.719,4.427-4.194c2.434-0.495,4.778,0.512,5.841,2.331
			c-0.875,0.688-1.918,1.312-3.16,1.824c-0.172,0.072-0.344,0.138-0.512,0.199L18.146,25.049z M24.693,13.178l0.002-0.02
			c-0.478,1.881-1.535,4.304-3.887,6.268c-0.865-2.186-3.438-3.471-6.125-2.925c-2.649,0.539-4.503,2.675-4.5,4.988
			c-4.262-2.022-6.314-7.234-6.314-7.234c6.738,0.59,12.146-3.159,13.014-4.957c0.964-1.996,1.308-3.925,4.476-3.925
			c2.681,0,3.429,2.464,3.637,3.843c0.004,0,3.501,0.829,4.042,1.16S24.693,13.178,24.693,13.178z"/>
	</g>
</g>
</svg>
