<?xml version="1.0" encoding="utf-8"?>
<!-- Generator: Adobe Illustrator 16.0.4, SVG Export Plug-In . SVG Version: 6.00 Build 0)  -->
<!DOCTYPE svg PUBLIC "-//W3C//DTD SVG 1.1//EN" "http://www.w3.org/Graphics/SVG/1.1/DTD/svg11.dtd">
<svg version="1.1" fill="rgb(0, 14, 156)" xmlns="http://www.w3.org/2000/svg" xmlns:xlink="http://www.w3.org/1999/xlink" x="0px" y="0px"
	 width="32px" height="32px" viewBox="0 0 32 32" enable-background="new 0 0 32 32" xml:space="preserve">
<g id="Fondo_1_" display="none">
	<rect id="Fondo" x="-785.951" y="-1083.864" display="inline" fill="#FB6E92" width="1000" height="2438.351"/>
</g>
<g id="Guias">
</g>
<g id="Icons">
	<g display="none" opacity="0.2">
		<path display="inline" fill="#FFFFFF" d="M-375.941,392.656c-11.282,3.637-35.885,28.281-38.51,36.153
			c-2.621,7.851,12.065,36.154,18.865,37.705c6.793,1.59,56.584-20.437,58.154-28.284
			C-335.861,430.359-364.659,388.978-375.941,392.656z"/>
		<path display="inline" fill="#FFFFFF" d="M-272.973,312.498c-10.498,0.494-88.546,59.727-88.034,69.146
			c0.519,9.423,29.36,46.629,37.729,47.951c8.363,1.301,70.221-78.341,72.307-88.814
			C-248.885,330.285-262.501,311.959-272.973,312.498z"/>
		<path display="inline" fill="#FFFFFF" d="M41.962,26.054C31.029,10.909,6.464,9.794-14.153,23.039
			c-7.87-4.01-17.023-7.233-27.767-9.216c0,0-391.393,317.516-477.854,378.833c0,0-3.302,7.003-8.776,18.407
			c98.109,68.715,86.957,120.568,86.957,120.568c-27.149-66.916-95.885-102.037-95.905-102.037
			c-24.626,50.699-68.835,139.307-92.308,172.114c0,0-0.04,18.015,22.025,29.479c0,0,150.072-101.024,193.329-109.639
			c0,0,23.883-23.283,60.697-58.922c-20.121,10.308-43.197,20.062-52.827,20.658c-16.772,1.054-36.153-39.437-34.583-53.775
			c1.57-14.338,153.521-139.574,176.038-137.984c22.54,1.57,29.875,22.519,30.414,37.726c0.205,6.548-13.655,26.546-30.414,48.012
			c113.26-108.668,256.184-243.842,297.086-273.84c0,0,0.414-10.661-3.141-24.688C46.504,63.386,52.518,40.722,41.962,26.054z
			 M-573.442,608.65c0,0-2.542-32.478-33.638-43.818C-607.08,564.832-554.852,541.197-573.442,608.65z"/>
	</g>
	<path display="none" opacity="0.5" fill="#71C8EA" enable-background="new    " d="M995.104,342.313l3.334,3.333
		c0,0,17-13.666,32.5-11.833c0,0,21-27.999,50-37.833c0,0,17.666-9.834,7.166-30.667s-24.326-12.937-31.166-8
		c-9.584,6.916-39.771,40.321-51.5,56.333C1005.438,313.646,1008.938,329.98,995.104,342.313z"/>
	<g>
		<path d="M30.861,9.978C27.594,1.795,18.29-2.146,10.082,1.181C1.875,4.506-2.129,13.838,1.138,22.021
			c3.269,8.186,12.571,12.123,20.778,8.799C30.124,27.494,34.129,18.162,30.861,9.978z M17.428,23.401l1.523,0.019l-0.049,0.572
			l-1.314,0.021l0.639,0.801l-0.395,0.44l-1.061-1.117l-1.478,0.617l-0.075-0.389l1.416-0.927l-0.86-2.756
			c-0.703,0.209-1.37,0.312-2.002,0.328l0.793,4.634l1.489,0.316l-0.156,0.554l-1.294-0.236l0.471,0.906l-0.471,0.356l-0.823-1.304
			l-1.568,0.317V26.16l1.568-0.632l-0.49-4.521c-0.954-0.041-1.821-0.277-2.602-0.641c0.312-1.715,1.779-3.199,3.781-3.609
			c2.078-0.424,4.082,0.44,4.989,2.008c-0.748,0.59-1.638,1.127-2.7,1.568c-0.146,0.062-0.292,0.119-0.437,0.172L17.428,23.401z
			 M23.021,13.187v-0.018c-0.405,1.619-1.311,3.704-3.317,5.395c-0.74-1.881-2.938-2.986-5.231-2.517
			c-2.264,0.463-3.847,2.3-3.844,4.291c-3.641-1.74-5.394-6.225-5.394-6.225c5.756,0.51,10.374-2.717,11.115-4.266
			c0.823-1.718,1.117-3.376,3.823-3.376c2.288,0,2.929,2.121,3.104,3.306c0.005,0.002,2.99,0.714,3.453,0.999
			C27.191,11.061,23.021,13.187,23.021,13.187z"/>
		<path d="M20.65,8.88c-0.68-0.229-1.447,0.252-1.721,1.074c-0.271,0.82,0.059,1.668,0.736,1.896
			c0.677,0.228,1.447-0.254,1.718-1.072C21.657,9.958,21.328,9.108,20.65,8.88z"/>
	</g>
</g>
</svg>
