<?xml version="1.0" encoding="utf-8"?>
<!-- Generator: Adobe Illustrator 16.0.4, SVG Export Plug-In . SVG Version: 6.00 Build 0)  -->
<!DOCTYPE svg PUBLIC "-//W3C//DTD SVG 1.1//EN" "http://www.w3.org/Graphics/SVG/1.1/DTD/svg11.dtd">
<svg version="1.1" fill="rgb(0, 14, 156)" xmlns="http://www.w3.org/2000/svg" xmlns:xlink="http://www.w3.org/1999/xlink" x="0px" y="0px"
	 width="21.043px" height="13.093px" viewBox="0 0 21.043 13.093" enable-background="new 0 0 21.043 13.093" xml:space="preserve">
<g id="Fondo_1_" display="none">
	<rect id="Fondo" x="-167.444" y="-1156.977" display="inline" fill="#FB6E92" width="999.999" height="2438.352"/>
</g>
<g id="Guias">
</g>
<g id="Icons">
	<g display="none" opacity="0.2">
		<path display="inline" fill="#FFFFFF" d="M242.565,319.544c-11.281,3.636-35.885,28.281-38.51,36.152
			c-2.621,7.852,12.064,36.154,18.865,37.705c6.793,1.59,56.584-20.436,58.154-28.283
			C282.645,357.248,253.847,315.865,242.565,319.544z"/>
		<path display="inline" fill="#FFFFFF" d="M345.534,239.386c-10.498,0.494-88.546,59.726-88.033,69.146
			c0.519,9.422,29.359,46.629,37.729,47.95c8.363,1.302,70.221-78.341,72.307-88.813
			C369.622,257.173,356.004,238.847,345.534,239.386z"/>
		<path display="inline" fill="#FFFFFF" d="M660.467-47.059c-10.932-15.145-35.498-16.26-56.113-3.016
			c-7.871-4.009-17.023-7.233-27.768-9.215c0,0-391.394,317.515-477.854,378.833c0,0-3.302,7.004-8.776,18.408
			c98.109,68.715,86.957,120.566,86.957,120.566c-27.148-66.915-95.885-102.036-95.904-102.036
			C56.381,407.179,12.172,495.789-11.3,528.595c0,0-0.04,18.016,22.025,29.48c0,0,150.072-101.025,193.329-109.641
			c0,0,23.883-23.281,60.696-58.921c-20.121,10.308-43.196,20.062-52.826,20.659c-16.772,1.053-36.153-39.438-34.584-53.776
			c1.57-14.338,153.521-139.573,176.039-137.983c22.539,1.569,29.875,22.518,30.414,37.725c0.205,6.548-13.656,26.546-30.414,48.012
			C466.639,195.482,609.563,60.309,650.465,30.311c0,0,0.414-10.661-3.141-24.688C665.01-9.727,671.024-32.391,660.467-47.059z
			 M45.064,535.539c0,0-2.542-32.479-33.638-43.818C11.426,491.72,63.655,468.085,45.064,535.539z"/>
	</g>
	<path display="none" opacity="0.5" fill="#71C8EA" enable-background="new    " d="M1613.612,269.201l3.332,3.334
		c0,0,17-13.666,32.5-11.834c0,0,21-27.998,50-37.832c0,0,17.668-9.834,7.168-30.668c-10.5-20.832-24.328-12.937-31.168-8
		c-9.582,6.916-39.771,40.322-51.5,56.334C1623.944,240.535,1627.444,256.869,1613.612,269.201z"/>
	<path d="M20.204,9.811c-1.588,2.875-4.894,4.091-7.382,2.716c-1.075-0.594-1.82-1.576-2.194-2.73
		c-1.875,2.781-5.273,3.882-7.873,2.445c-2.775-1.533-3.589-5.375-1.818-8.581s5.456-4.562,8.231-3.029
		c1.306,0.722,2.177,1.954,2.549,3.392c1.716-2.282,4.615-3.145,6.855-1.907C21.062,3.49,21.792,6.936,20.204,9.811z"/>
</g>
</svg>
