<?xml version="1.0" encoding="utf-8"?>
<!-- Generator: Adobe Illustrator 16.0.4, SVG Export Plug-In . SVG Version: 6.00 Build 0)  -->
<!DOCTYPE svg PUBLIC "-//W3C//DTD SVG 1.1//EN" "http://www.w3.org/Graphics/SVG/1.1/DTD/svg11.dtd">
<svg version="1.1" fill="rgb(0, 14, 156)" xmlns="http://www.w3.org/2000/svg" xmlns:xlink="http://www.w3.org/1999/xlink" x="0px" y="0px"
	 width="32px" height="31.969px" viewBox="0 0 32 31.969" enable-background="new 0 0 32 31.969" xml:space="preserve">
<g id="Fondo_1_" display="none">
	<rect id="Fondo" x="-838.442" y="-1083.539" display="inline" fill="#FB6E92" width="1000" height="2438.352"/>
</g>
<g id="Guias">
</g>
<g id="Icons">
	<g display="none" opacity="0.2">
		<path display="inline" fill="#FFFFFF" d="M-428.433,392.98c-11.282,3.637-35.885,28.281-38.51,36.153
			c-2.621,7.852,12.065,36.154,18.865,37.705c6.793,1.59,56.584-20.436,58.154-28.284
			C-388.353,430.685-417.15,389.303-428.433,392.98z"/>
		<path display="inline" fill="#FFFFFF" d="M-325.464,312.823c-10.498,0.493-88.546,59.726-88.034,69.146
			c0.519,9.424,29.36,46.629,37.729,47.951c8.363,1.301,70.221-78.341,72.307-88.814
			C-301.376,330.609-314.992,312.284-325.464,312.823z"/>
		<path display="inline" fill="#FFFFFF" d="M-10.529,26.379c-10.932-15.145-35.498-16.26-56.115-3.016
			c-7.87-4.01-17.023-7.233-27.767-9.215c0,0-391.393,317.515-477.854,378.833c0,0-3.302,7.004-8.776,18.407
			c98.109,68.716,86.957,120.568,86.957,120.568c-27.149-66.916-95.885-102.037-95.905-102.037
			c-24.626,50.699-68.835,139.308-92.308,172.114c0,0-0.04,18.015,22.025,29.479c0,0,150.072-101.023,193.329-109.639
			c0,0,23.883-23.283,60.697-58.922c-20.121,10.308-43.197,20.062-52.827,20.659c-16.771,1.053-36.153-39.438-34.583-53.776
			c1.57-14.338,153.521-139.573,176.038-137.983c22.54,1.569,29.875,22.518,30.414,37.725c0.205,6.548-13.655,26.546-30.414,48.012
			c113.26-108.668,256.183-243.842,297.086-273.84c0,0,0.414-10.661-3.14-24.688C-5.987,63.711,0.025,41.047-10.529,26.379z
			 M-625.934,608.976c0,0-2.542-32.478-33.638-43.817C-659.571,565.157-607.343,541.521-625.934,608.976z"/>
	</g>
	<path display="none" opacity="0.5" fill="#71C8EA" enable-background="new    " d="M942.613,342.639l3.333,3.334
		c0,0,17-13.666,32.5-11.834c0,0,21-27.998,50-37.832c0,0,17.667-9.834,7.167-30.668c-10.5-20.832-24.327-12.937-31.167-8
		c-9.583,6.916-39.771,40.322-51.5,56.334C952.946,313.973,956.446,330.307,942.613,342.639z"/>
	<path d="M29.398,1.074C26.982-1.227,2.939,0.516,0.983,3.029c-1.955,2.514-0.69,26.345,1.15,27.725
		c1.841,1.381,26.92,1.842,28.876,0C32.965,28.913,31.814,3.375,29.398,1.074z M25.857,19.248c-1.588,2.875-4.894,4.091-7.381,2.716
		c-1.076-0.594-1.82-1.575-2.194-2.729c-1.875,2.781-5.273,3.881-7.873,2.443c-2.775-1.533-3.589-5.374-1.818-8.58
		s5.456-4.562,8.231-3.029c1.306,0.722,2.177,1.954,2.549,3.392c1.716-2.282,4.615-3.145,6.855-1.907
		C26.717,12.928,27.445,16.373,25.857,19.248z"/>
</g>
</svg>
