<?xml version="1.0" encoding="utf-8"?>
<!-- Generator: Adobe Illustrator 16.0.4, SVG Export Plug-In . SVG Version: 6.00 Build 0)  -->
<!DOCTYPE svg PUBLIC "-//W3C//DTD SVG 1.1//EN" "http://www.w3.org/Graphics/SVG/1.1/DTD/svg11.dtd">
<svg version="1.1" fill="rgb(0, 14, 156)" xmlns="http://www.w3.org/2000/svg" xmlns:xlink="http://www.w3.org/1999/xlink" x="0px" y="0px"
	 width="32px" height="32px" viewBox="0 0 32 32" enable-background="new 0 0 32 32" xml:space="preserve">
<g id="Fondo_1_" display="none">
	<rect id="Fondo" x="-109.966" y="-1147.523" display="inline" fill="#FB6E92" width="1000" height="2438.351"/>
</g>
<g id="Guias">
</g>
<g id="Icons">
	<g display="none" opacity="0.2">
		<path display="inline" fill="#FFFFFF" d="M300.043,328.997c-11.282,3.636-35.885,28.28-38.51,36.153
			c-2.621,7.851,12.064,36.153,18.865,37.705c6.793,1.59,56.584-20.437,58.153-28.284
			C340.123,366.7,311.325,325.318,300.043,328.997z"/>
		<path display="inline" fill="#FFFFFF" d="M403.012,248.839c-10.498,0.494-88.546,59.726-88.034,69.146
			c0.52,9.424,29.36,46.63,37.729,47.951c8.363,1.301,70.221-78.34,72.307-88.813C427.1,266.626,413.483,248.3,403.012,248.839z"/>
		<path display="inline" fill="#FFFFFF" d="M717.946-37.605c-10.933-15.145-35.498-16.26-56.115-3.016
			c-7.87-4.009-17.023-7.233-27.767-9.215c0,0-391.394,317.516-477.854,378.833c0,0-3.302,7.003-8.776,18.407
			c98.109,68.715,86.957,120.567,86.957,120.567c-27.148-66.916-95.885-102.036-95.904-102.036
			C113.859,416.635,69.65,505.242,46.18,538.05c0,0-0.041,18.016,22.024,29.48c0,0,150.071-101.024,193.329-109.64
			c0,0,23.883-23.282,60.697-58.922c-20.121,10.309-43.197,20.062-52.828,20.659c-16.771,1.053-36.152-39.437-34.582-53.776
			c1.57-14.338,153.521-139.574,176.038-137.983c22.54,1.569,29.875,22.518,30.413,37.725c0.205,6.548-13.654,26.546-30.413,48.013
			C524.117,204.936,667.041,69.762,707.943,39.764c0,0,0.414-10.66-3.141-24.688C722.488-0.273,728.501-22.938,717.946-37.605z
			 M102.542,544.991c0,0-2.542-32.479-33.638-43.818C68.904,501.173,121.133,477.538,102.542,544.991z"/>
	</g>
	<path display="none" opacity="0.5" fill="#71C8EA" enable-background="new    " d="M1671.089,278.654l3.333,3.332
		c0,0,17-13.666,32.5-11.832c0,0,21-28,50-37.834c0,0,17.667-9.834,7.167-30.666c-10.5-20.834-24.327-12.938-31.167-8
		c-9.583,6.916-39.771,40.322-51.5,56.332C1681.422,249.986,1684.922,266.32,1671.089,278.654z"/>
	<path d="M31.816,13.521C30.493,4.793,22.337-1.174,13.601,0.195C4.866,1.564-1.142,9.749,0.183,18.479
		c1.325,8.729,9.48,14.694,18.215,13.326C27.134,30.436,33.143,22.25,31.816,13.521z M26.003,19.159
		c-1.588,2.921-4.894,4.155-7.382,2.76c-1.075-0.604-1.82-1.603-2.194-2.774c-1.875,2.826-5.273,3.943-7.873,2.483
		c-2.775-1.558-3.589-5.46-1.818-8.718c1.771-3.258,5.456-4.636,8.231-3.078c1.306,0.733,2.178,1.985,2.549,3.446
		c1.717-2.319,4.616-3.195,6.856-1.938C26.861,12.737,27.591,16.238,26.003,19.159z"/>
</g>
</svg>
