<?xml version="1.0" encoding="utf-8"?>
<!-- Generator: Adobe Illustrator 16.0.4, SVG Export Plug-In . SVG Version: 6.00 Build 0)  -->
<!DOCTYPE svg PUBLIC "-//W3C//DTD SVG 1.1//EN" "http://www.w3.org/Graphics/SVG/1.1/DTD/svg11.dtd">
<svg version="1.1" fill="rgb(0, 14, 156)" xmlns="http://www.w3.org/2000/svg" xmlns:xlink="http://www.w3.org/1999/xlink" x="0px" y="0px"
	 width="32px" height="31.186px" viewBox="0 0 32 31.186" enable-background="new 0 0 32 31.186" xml:space="preserve">
<g id="Fondo_1_" display="none">
	<rect id="Fondo" x="-318.192" y="-1147.93" display="inline" fill="#FB6E92" width="1000" height="2438.352"/>
</g>
<g id="Guias">
</g>
<g id="Icons">
	<g display="none" opacity="0.2">
		<path display="inline" fill="#FFFFFF" d="M91.816,328.591c-11.281,3.636-35.885,28.281-38.51,36.153
			c-2.621,7.851,12.065,36.154,18.865,37.705c6.793,1.59,56.584-20.437,58.154-28.284C131.896,366.294,103.1,324.912,91.816,328.591
			z"/>
		<path display="inline" fill="#FFFFFF" d="M194.786,248.433c-10.498,0.494-88.546,59.727-88.034,69.146
			c0.52,9.423,29.359,46.629,37.729,47.95c8.363,1.302,70.222-78.341,72.308-88.813C218.874,266.22,205.257,247.894,194.786,248.433
			z"/>
		<path display="inline" fill="#FFFFFF" d="M509.72-38.012c-10.932-15.145-35.498-16.26-56.114-3.016
			c-7.87-4.009-17.023-7.232-27.768-9.215c0,0-391.393,317.515-477.854,378.833c0,0-3.302,7.003-8.776,18.407
			c98.108,68.715,86.957,120.568,86.957,120.568c-27.148-66.915-95.884-102.037-95.904-102.037
			c-24.626,50.699-68.835,139.308-92.308,172.114c0,0-0.04,18.016,22.025,29.48c0,0,150.072-101.024,193.329-109.639
			c0,0,23.883-23.283,60.697-58.923c-20.121,10.309-43.197,20.062-52.827,20.659c-16.772,1.054-36.153-39.437-34.583-53.776
			c1.57-14.338,153.521-139.573,176.038-137.983c22.54,1.569,29.875,22.518,30.414,37.725c0.205,6.548-13.655,26.546-30.414,48.012
			C315.891,204.529,458.815,69.355,499.717,39.357c0,0,0.414-10.661-3.14-24.688C514.262-0.68,520.275-23.344,509.72-38.012z
			 M-105.684,544.585c0,0-2.542-32.478-33.638-43.818C-139.322,500.767-87.093,477.132-105.684,544.585z"/>
	</g>
	<path display="none" opacity="0.5" fill="#71C8EA" enable-background="new    " d="M1462.863,278.248l3.333,3.333
		c0,0,17-13.666,32.5-11.833c0,0,21-27.999,50-37.833c0,0,17.667-9.834,7.167-30.667s-24.327-12.938-31.167-8
		c-9.583,6.916-39.771,40.321-51.5,56.333C1473.196,249.581,1476.696,265.915,1462.863,278.248z"/>
	<g>
		<path d="M19.25,11.809c4.693-1.855,7.286-5.844,8.634-8.852C24.734,0.145,19.93-0.65,15.181,0.523
			C17.309,4.247,18.57,8.094,19.25,11.809z"/>
		<path d="M30.331,6.238c-0.209-0.443-0.453-0.854-0.711-1.252c-2.413,5.134-6.086,7.794-10.032,9.012
			c0.217,1.715,0.316,3.388,0.333,4.994c3.519,0.881,6.068,3.424,7.777,5.904c1.362-1.549,1.991-2.774,1.991-2.774
			S34.43,14.949,30.331,6.238z"/>
		<path d="M19.865,21.786c-0.172,3.459-0.696,6.479-1.219,8.754c3.152-0.838,5.562-2.373,7.313-3.91
			C24.635,24.618,22.654,22.544,19.865,21.786z"/>
		<path d="M16.82,12.523c-0.963-5.186-2.81-9-4.112-11.199C8.761,2.895,5.075,5.865,2.67,10.207
			C8.567,12.794,13.2,13.256,16.82,12.523z"/>
		<path d="M17.268,18.663c0.062,0,0.121,0.006,0.182,0.007c-0.032-1.438-0.141-2.808-0.309-4.102
			c-6.319,1.054-12.806-0.945-15.605-1.988c-3.79,9.322,0.176,14.082,3.935,16.393C6.886,25.363,10.433,18.663,17.268,18.663z"/>
		<path d="M17.413,21.488c-5.301,0.115-8.378,5.396-9.762,8.601c1.541,0.647,2.698,0.871,2.698,0.871
			c2.016,0.28,3.85,0.284,5.521,0.099C16.801,27.63,17.271,24.433,17.413,21.488z"/>
	</g>
</g>
</svg>
