<?xml version="1.0" encoding="utf-8"?>
<!-- Generator: Adobe Illustrator 16.0.4, SVG Export Plug-In . SVG Version: 6.00 Build 0)  -->
<!DOCTYPE svg PUBLIC "-//W3C//DTD SVG 1.1//EN" "http://www.w3.org/Graphics/SVG/1.1/DTD/svg11.dtd">
<svg version="1.1" fill="rgb(0, 14, 156)" xmlns="http://www.w3.org/2000/svg" xmlns:xlink="http://www.w3.org/1999/xlink" x="0px" y="0px"
	 width="32px" height="31.969px" viewBox="0 0 32 31.969" enable-background="new 0 0 32 31.969" xml:space="preserve">
<g id="Fondo_1_" display="none">
	<rect id="Fondo" x="-213.967" y="-1147.539" display="inline" fill="#FB6E92" width="1000" height="2438.352"/>
</g>
<g id="Guias">
</g>
<g id="Icons">
	<g display="none" opacity="0.2">
		<path display="inline" fill="#FFFFFF" d="M196.042,328.98c-11.282,3.637-35.885,28.281-38.51,36.153
			c-2.621,7.851,12.065,36.154,18.864,37.705c6.793,1.59,56.584-20.437,58.154-28.284
			C236.123,366.686,207.325,325.303,196.042,328.98z"/>
		<path display="inline" fill="#FFFFFF" d="M299.011,248.823c-10.497,0.493-88.546,59.726-88.034,69.146
			c0.52,9.424,29.36,46.629,37.729,47.951c8.362,1.301,70.221-78.341,72.307-88.814
			C323.099,266.609,309.483,248.284,299.011,248.823z"/>
		<path display="inline" fill="#FFFFFF" d="M613.946-37.621c-10.933-15.145-35.498-16.26-56.115-3.016
			c-7.87-4.009-17.023-7.233-27.767-9.215c0,0-391.394,317.515-477.854,378.833c0,0-3.302,7.004-8.776,18.408
			c98.109,68.715,86.957,120.567,86.957,120.567C103.242,401.041,34.506,365.92,34.486,365.92
			C9.86,416.619-34.349,505.227-57.822,538.034c0,0-0.04,18.015,22.025,29.479c0,0,150.072-101.023,193.329-109.639
			c0,0,23.883-23.283,60.696-58.922c-20.121,10.308-43.196,20.062-52.826,20.659c-16.772,1.053-36.153-39.438-34.584-53.776
			c1.57-14.338,153.521-139.574,176.039-137.984c22.54,1.57,29.875,22.519,30.414,37.726c0.204,6.548-13.655,26.546-30.414,48.012
			C420.117,204.92,563.041,69.746,603.943,39.748c0,0,0.414-10.661-3.141-24.688C618.488-0.289,624.5-22.953,613.946-37.621z
			 M-1.458,544.976c0,0-2.542-32.478-33.638-43.817C-35.096,501.157,17.132,477.522-1.458,544.976z"/>
	</g>
	<path display="none" opacity="0.5" fill="#71C8EA" enable-background="new    " d="M1567.088,278.639l3.333,3.334
		c0,0,17-13.666,32.5-11.834c0,0,21-27.998,50-37.832c0,0,17.667-9.834,7.167-30.668c-10.5-20.832-24.327-12.937-31.167-8
		c-9.583,6.916-39.771,40.322-51.5,56.334C1577.421,249.973,1580.921,266.307,1567.088,278.639z"/>
	<path d="M29.398,1.074C26.982-1.227,2.939,0.516,0.983,3.029c-1.955,2.514-0.69,26.345,1.15,27.725
		c1.841,1.381,26.92,1.842,28.876,0C32.964,28.913,31.814,3.375,29.398,1.074z M13.5,5.149c0.99,1.671,2.391,4.566,3.122,8.504
		c-2.748,0.556-6.266,0.206-10.743-1.759C7.705,8.598,10.503,6.343,13.5,5.149z M15.901,27.725
		c-1.269,0.143-2.661,0.139-4.191-0.074c0,0-0.879-0.168-2.049-0.661c1.05-2.433,3.386-6.441,7.412-6.529
		C16.965,22.695,16.607,25.122,15.901,27.725z M16.961,18.314c-5.188,0-7.881,5.086-8.957,7.828
		C5.15,24.389,2.14,20.773,5.017,13.696c2.126,0.792,7.051,2.31,11.849,1.511c0.127,0.981,0.209,2.021,0.233,3.113
		C17.053,18.318,17.008,18.314,16.961,18.314z M15.377,4.543c3.605-0.892,7.253-0.287,9.645,1.848
		c-1.022,2.283-2.992,5.31-6.556,6.721C17.951,10.29,16.993,7.369,15.377,4.543z M18.009,27.332
		c0.396-1.727,0.793-4.021,0.925-6.646c2.117,0.574,3.621,2.148,4.627,3.678C22.232,25.529,20.402,26.695,18.009,27.332z
		 M26.395,20.939c0,0-0.479,0.932-1.514,2.106c-1.298-1.883-3.232-3.813-5.904-4.483c-0.013-1.22-0.088-2.488-0.254-3.792
		c2.996-0.923,5.785-2.944,7.617-6.841c0.196,0.302,0.381,0.613,0.54,0.951C29.992,15.495,26.395,20.939,26.395,20.939z"/>
</g>
</svg>
