<?xml version="1.0" encoding="utf-8"?>
<!-- Generator: Adobe Illustrator 16.0.4, SVG Export Plug-In . SVG Version: 6.00 Build 0)  -->
<!DOCTYPE svg PUBLIC "-//W3C//DTD SVG 1.1//EN" "http://www.w3.org/Graphics/SVG/1.1/DTD/svg11.dtd">
<svg version="1.1" fill="rgb(0, 14, 156)" xmlns="http://www.w3.org/2000/svg" xmlns:xlink="http://www.w3.org/1999/xlink" x="0px" y="0px"
	 width="32px" height="32px" viewBox="0 0 32 32" enable-background="new 0 0 32 32" xml:space="preserve">
<g id="Fondo_1_" display="none">
	<rect id="Fondo" x="-266.416" y="-1147.523" display="inline" fill="#FB6E92" width="1000" height="2438.351"/>
</g>
<g id="Guias">
</g>
<g id="Icons">
	<g display="none" opacity="0.2">
		<path display="inline" fill="#FFFFFF" d="M143.594,328.997c-11.281,3.636-35.885,28.28-38.51,36.153
			c-2.621,7.851,12.064,36.153,18.865,37.705c6.793,1.59,56.584-20.437,58.154-28.284
			C183.674,366.7,154.876,325.318,143.594,328.997z"/>
		<path display="inline" fill="#FFFFFF" d="M246.562,248.839c-10.498,0.494-88.547,59.726-88.035,69.146
			c0.52,9.424,29.361,46.63,37.729,47.951c8.363,1.301,70.222-78.34,72.308-88.813C270.65,266.626,257.034,248.3,246.562,248.839z"
			/>
		<path display="inline" fill="#FFFFFF" d="M561.497-37.605c-10.932-15.145-35.498-16.26-56.115-3.016
			c-7.87-4.009-17.022-7.233-27.767-9.215c0,0-391.393,317.516-477.854,378.833c0,0-3.302,7.003-8.776,18.407
			c98.109,68.715,86.957,120.567,86.957,120.567c-27.148-66.916-95.884-102.036-95.904-102.036
			c-24.626,50.698-68.835,139.307-92.308,172.113c0,0-0.04,18.016,22.025,29.48c0,0,150.072-101.024,193.329-109.64
			c0,0,23.883-23.282,60.696-58.922c-20.12,10.309-43.196,20.062-52.826,20.659C96.182,420.68,76.8,380.189,78.37,365.852
			c1.569-14.338,153.521-139.574,176.038-137.984c22.54,1.57,29.875,22.518,30.414,37.725c0.205,6.549-13.655,26.547-30.414,48.012
			c113.26-108.668,256.184-243.842,297.086-273.84c0,0,0.414-10.66-3.141-24.688C566.039-0.273,572.052-22.938,561.497-37.605z
			 M-53.907,544.991c0,0-2.542-32.479-33.638-43.818C-87.545,501.173-35.316,477.538-53.907,544.991z"/>
	</g>
	<path display="none" opacity="0.5" fill="#71C8EA" enable-background="new    " d="M1514.64,278.654l3.333,3.332
		c0,0,17-13.666,32.5-11.832c0,0,21-28,50-37.834c0,0,17.667-9.834,7.167-30.666c-10.5-20.834-24.327-12.938-31.167-8
		c-9.583,6.916-39.771,40.322-51.5,56.332C1524.973,249.986,1528.473,266.32,1514.64,278.654z"/>
	<path d="M31.816,13.521C30.493,4.793,22.337-1.174,13.601,0.195C4.866,1.564-1.142,9.749,0.183,18.479
		c1.325,8.729,9.48,14.694,18.215,13.326C27.134,30.436,33.143,22.25,31.816,13.521z M25.023,6.254
		c-1.023,2.319-2.992,5.395-6.557,6.828c-0.516-2.866-1.474-5.834-3.089-8.706C18.982,3.471,22.631,4.084,25.023,6.254z M13.5,4.992
		c0.99,1.698,2.391,4.64,3.122,8.641c-2.748,0.564-6.266,0.209-10.743-1.787C7.706,8.496,10.504,6.205,13.5,4.992z M15.901,27.93
		c-1.269,0.145-2.661,0.141-4.191-0.074c0,0-0.879-0.172-2.049-0.674c1.05-2.472,3.386-6.545,7.412-6.635
		C16.966,22.818,16.607,25.285,15.901,27.93z M16.962,18.369c-5.188,0-7.881,5.168-8.957,7.953
		c-2.854-1.783-5.865-5.454-2.988-12.646c2.126,0.805,7.051,2.347,11.849,1.535c0.127,0.997,0.209,2.053,0.233,3.163
		C17.053,18.372,17.009,18.369,16.962,18.369z M18.01,27.529c0.396-1.754,0.793-4.084,0.924-6.752
		c2.118,0.584,3.623,2.185,4.629,3.736C22.232,25.7,20.402,26.884,18.01,27.529z M26.395,21.037c0,0-0.479,0.945-1.514,2.14
		c-1.298-1.913-3.232-3.876-5.904-4.556c-0.013-1.239-0.088-2.529-0.254-3.853c2.996-0.938,5.785-2.991,7.617-6.95
		c0.196,0.307,0.381,0.623,0.54,0.967C29.993,15.504,26.395,21.037,26.395,21.037z"/>
</g>
</svg>
