<?xml version="1.0" encoding="utf-8"?>
<!-- Generator: Adobe Illustrator 16.0.4, SVG Export Plug-In . SVG Version: 6.00 Build 0)  -->
<!DOCTYPE svg PUBLIC "-//W3C//DTD SVG 1.1//EN" "http://www.w3.org/Graphics/SVG/1.1/DTD/svg11.dtd">
<svg version="1.1" fill="rgb(0, 14, 156)" xmlns="http://www.w3.org/2000/svg" xmlns:xlink="http://www.w3.org/1999/xlink" x="0px" y="0px"
	 width="29.964px" height="32px" viewBox="0 0 29.964 32" enable-background="new 0 0 29.964 32" xml:space="preserve">
<g id="Fondo_1_" display="none">
	<rect id="Fondo" x="-475.002" y="-1147.618" display="inline" fill="#FB6E92" width="1000" height="2438.352"/>
</g>
<g id="Guias">
</g>
<g id="Icons">
	<g display="none" opacity="0.2">
		<path display="inline" fill="#FFFFFF" d="M-64.993,328.902c-11.282,3.636-35.885,28.281-38.51,36.152
			c-2.621,7.852,12.065,36.154,18.865,37.705c6.793,1.59,56.584-20.436,58.154-28.283C-24.913,366.605-53.71,325.225-64.993,328.902
			z"/>
		<path display="inline" fill="#FFFFFF" d="M37.976,248.744c-10.498,0.494-88.546,59.727-88.034,69.146
			c0.519,9.422,29.36,46.629,37.729,47.95c8.363,1.302,70.221-78.341,72.307-88.813C62.064,266.531,48.449,248.205,37.976,248.744z"
			/>
		<path display="inline" fill="#FFFFFF" d="M352.912-37.7c-10.934-15.145-35.498-16.26-56.115-3.016
			c-7.871-4.009-17.023-7.233-27.768-9.215c0,0-391.393,317.515-477.854,378.833c0,0-3.302,7.002-8.776,18.406
			c98.109,68.716,86.957,120.568,86.957,120.568c-27.149-66.916-95.885-102.037-95.905-102.037
			c-24.626,50.699-68.835,139.308-92.308,172.114c0,0-0.04,18.015,22.025,29.479c0,0,150.072-101.023,193.329-109.639
			c0,0,23.883-23.283,60.697-58.922c-20.121,10.308-43.197,20.062-52.827,20.659c-16.772,1.053-36.153-39.437-34.583-53.776
			c1.57-14.338,153.521-139.574,176.038-137.984c22.54,1.57,29.875,22.519,30.414,37.726c0.205,6.548-13.654,26.546-30.414,48.012
			c113.26-108.668,256.184-243.842,297.086-273.84c0,0,0.414-10.661-3.141-24.688C357.453-0.368,363.464-23.032,352.912-37.7z
			 M-262.494,544.896c0,0-2.542-32.479-33.638-43.818C-296.131,501.078-243.903,477.443-262.494,544.896z"/>
	</g>
	<path display="none" opacity="0.5" fill="#71C8EA" enable-background="new    " d="M1306.052,278.561l3.334,3.332
		c0,0,17-13.666,32.5-11.832c0,0,21-28,50-37.834c0,0,17.666-9.834,7.166-30.666c-10.5-20.834-24.326-12.938-31.166-8
		c-9.584,6.916-39.771,40.321-51.5,56.332C1316.386,249.893,1319.886,266.227,1306.052,278.561z"/>
	<g>
		<path d="M29.891,6.248c-0.285-0.35-3.315-0.298-3.315-0.298s0.366-2.981,0.213-3.31c-0.156-0.327-3.016,0.072-3.461,0.32
			s-0.756,3.347-0.756,3.347s-2.918,0.334-3.137,0.635c-0.219,0.3-0.438,2.656-0.227,3.006c0.211,0.35,2.942,0.324,2.942,0.324
			s-0.019,2.517,0.233,2.88c0.253,0.364,2.949-0.128,3.211-0.249c0.262-0.12,0.762-2.958,0.762-2.958s2.273-0.069,2.74-0.327
			C29.565,9.361,30.178,6.597,29.891,6.248z"/>
		<path d="M12.378,0.407c-1.732,0.778-2.714,2.448-2.412,3.935C8.732,4.296,7.42,4.539,6.155,5.107
			c-3.703,1.663-5.599,5.477-4.232,8.518c0.185,0.412,0.421,0.788,0.698,1.127c-1.707,1.878-2.33,4.359-1.383,6.471
			c0.076,0.168,0.161,0.332,0.254,0.488c-1.486,2.014-1.948,4.479-0.991,6.605c1.54,3.431,6.176,4.689,10.354,2.813
			c4.178-1.877,6.314-6.179,4.775-9.608c-1.542-3.431-6.177-4.689-10.354-2.812c-0.4,0.18-0.782,0.382-1.145,0.604
			c0.003,0,0.006-0.002,0.008-0.004c-0.214-0.978,0.118-2.035,0.85-2.885c1.786,0.688,4.015,0.639,6.113-0.305
			c3.703-1.664,5.599-5.477,4.232-8.518c-0.201-0.449-0.463-0.855-0.773-1.217c0.144-0.049,0.286-0.104,0.429-0.168
			c1.954-0.877,2.954-2.89,2.233-4.494C16.501,0.119,14.333-0.471,12.378,0.407z M6.555,21.559c2.261-1.017,4.77-0.334,5.604,1.522
			s-0.323,4.185-2.584,5.2c-2.262,1.016-4.771,0.334-5.604-1.522S4.293,22.573,6.555,21.559z M9.966,13.593
			c-2.004,0.9-4.229,0.296-4.968-1.35c-0.739-1.646,0.286-3.71,2.291-4.61c2.005-0.9,4.229-0.296,4.968,1.351
			C12.997,10.629,11.971,12.693,9.966,13.593z"/>
	</g>
</g>
</svg>
