<?xml version="1.0" encoding="utf-8"?>
<!-- Generator: Adobe Illustrator 16.0.4, SVG Export Plug-In . SVG Version: 6.00 Build 0)  -->
<!DOCTYPE svg PUBLIC "-//W3C//DTD SVG 1.1//EN" "http://www.w3.org/Graphics/SVG/1.1/DTD/svg11.dtd">
<svg version="1.1" fill="rgb(0, 14, 156)" xmlns="http://www.w3.org/2000/svg" xmlns:xlink="http://www.w3.org/1999/xlink" x="0px" y="0px"
	 width="32px" height="31.969px" viewBox="0 0 32 31.969" enable-background="new 0 0 32 31.969" xml:space="preserve">
<g id="Fondo_1_" display="none">
	<rect id="Fondo" x="-369.966" y="-1147.441" display="inline" fill="#FB6E92" width="1000" height="2438.351"/>
</g>
<g id="Guias">
</g>
<g id="Icons">
	<g display="none" opacity="0.2">
		<path display="inline" fill="#FFFFFF" d="M40.043,329.079c-11.282,3.636-35.885,28.28-38.51,36.153
			c-2.621,7.851,12.065,36.153,18.865,37.705c6.793,1.59,56.584-20.437,58.153-28.285C80.124,366.782,51.326,325.4,40.043,329.079z"
			/>
		<path display="inline" fill="#FFFFFF" d="M143.012,248.921c-10.498,0.494-88.546,59.726-88.033,69.146
			c0.519,9.424,29.359,46.629,37.729,47.951c8.363,1.301,70.221-78.341,72.307-88.813
			C167.1,266.708,153.484,248.382,143.012,248.921z"/>
		<path display="inline" fill="#FFFFFF" d="M457.947-37.523c-10.933-15.145-35.498-16.26-56.115-3.016
			c-7.87-4.009-17.023-7.233-27.767-9.215c0,0-391.394,317.516-477.854,378.833c0,0-3.302,7.003-8.776,18.407
			c98.109,68.715,86.957,120.567,86.957,120.567c-27.149-66.916-95.885-102.036-95.905-102.036
			c-24.626,50.698-68.835,139.307-92.308,172.113c0,0-0.04,18.016,22.025,29.48c0,0,150.072-101.024,193.329-109.64
			c0,0,23.883-23.282,60.697-58.922c-20.121,10.309-43.197,20.062-52.828,20.659c-16.772,1.053-36.153-39.438-34.583-53.775
			c1.57-14.338,153.521-139.574,176.038-137.984c22.541,1.57,29.875,22.518,30.414,37.725c0.205,6.549-13.654,26.547-30.414,48.012
			C264.118,205.018,407.042,69.844,447.944,39.846c0,0,0.414-10.66-3.141-24.688C462.489-0.191,468.501-22.855,457.947-37.523z
			 M-157.458,545.073c0,0-2.542-32.479-33.638-43.818C-191.095,501.255-138.867,477.62-157.458,545.073z"/>
	</g>
	<path display="none" opacity="0.5" fill="#71C8EA" enable-background="new    " d="M1411.089,278.736l3.333,3.332
		c0,0,17-13.666,32.5-11.832c0,0,21-28,50-37.834c0,0,17.667-9.834,7.167-30.666c-10.5-20.834-24.327-12.938-31.167-8
		c-9.583,6.916-39.771,40.322-51.5,56.332C1421.422,250.068,1424.922,266.402,1411.089,278.736z"/>
	<g>
		<ellipse transform="matrix(-0.9122 0.4098 -0.4098 -0.9122 29.9767 20.121)" cx="12.832" cy="13.273" rx="2.735" ry="2.246"/>
		<path d="M29.398,1.074C26.982-1.227,2.939,0.516,0.983,3.029c-1.955,2.514-0.69,26.345,1.15,27.725
			c1.841,1.381,26.92,1.842,28.876,0C32.964,28.913,31.814,3.375,29.398,1.074z M17.205,10.251
			c-0.098,0.044-0.196,0.082-0.294,0.115c0.213,0.248,0.394,0.527,0.53,0.837c0.939,2.09-0.363,4.711-2.909,5.855
			c-1.442,0.646-2.975,0.682-4.203,0.209c-0.503,0.584-0.731,1.312-0.584,1.982c0.248-0.15,0.508-0.289,0.781-0.412
			c2.872-1.29,6.059-0.424,7.119,1.934c1.06,2.358-0.41,5.316-3.283,6.606c-2.872,1.29-6.059,0.424-7.118-1.935
			C6.586,23.98,6.903,22.286,7.925,20.9c-0.063-0.106-0.122-0.219-0.174-0.336C7.1,19.115,7.528,17.41,8.702,16.119
			c-0.191-0.233-0.353-0.492-0.48-0.775c-0.939-2.091,0.364-4.713,2.91-5.854c0.87-0.391,1.772-0.559,2.621-0.526
			c-0.208-1.022,0.467-2.17,1.658-2.705c1.343-0.604,2.834-0.198,3.33,0.904C19.236,8.264,18.548,9.647,17.205,10.251z
			 M26.417,12.124c-0.287,0.158-1.683,0.201-1.683,0.201s-0.307,1.742-0.467,1.816c-0.162,0.074-1.816,0.376-1.972,0.153
			c-0.155-0.224-0.144-1.769-0.144-1.769s-1.678,0.015-1.807-0.2c-0.13-0.214,0.004-1.661,0.139-1.845
			c0.134-0.185,1.926-0.39,1.926-0.39s0.191-1.902,0.464-2.055c0.272-0.153,2.028-0.398,2.125-0.197
			c0.095,0.201-0.13,2.031-0.13,2.031s1.861-0.03,2.035,0.184C27.081,10.269,26.704,11.966,26.417,12.124z"/>
		<ellipse transform="matrix(0.4097 0.9122 -0.9122 0.4097 28.4273 2.2899)" cx="12.444" cy="23.109" rx="2.534" ry="3.086"/>
	</g>
</g>
</svg>
