<?xml version="1.0" encoding="utf-8"?>
<!-- Generator: Adobe Illustrator 16.0.4, SVG Export Plug-In . SVG Version: 6.00 Build 0)  -->
<!DOCTYPE svg PUBLIC "-//W3C//DTD SVG 1.1//EN" "http://www.w3.org/Graphics/SVG/1.1/DTD/svg11.dtd">
<svg version="1.1" fill="rgb(0, 14, 156)" xmlns="http://www.w3.org/2000/svg" xmlns:xlink="http://www.w3.org/1999/xlink" x="0px" y="0px"
	 width="32px" height="32px" viewBox="0 0 32 32" enable-background="new 0 0 32 32" xml:space="preserve">
<g id="Fondo_1_" display="none">
	<rect id="Fondo" x="-421.966" y="-1147.618" display="inline" fill="#FB6E92" width="999.999" height="2438.351"/>
</g>
<g id="Guias">
</g>
<g id="Icons">
	<g display="none" opacity="0.2">
		<path display="inline" fill="#FFFFFF" d="M-11.957,328.902c-11.282,3.635-35.885,28.281-38.51,36.152
			c-2.621,7.852,12.065,36.154,18.865,37.705c6.793,1.59,56.584-20.436,58.155-28.283C28.124,366.605-0.674,325.225-11.957,328.902z
			"/>
		<path display="inline" fill="#FFFFFF" d="M91.012,248.744c-10.498,0.494-88.546,59.727-88.034,69.146
			c0.519,9.422,29.36,46.629,37.729,47.951c8.363,1.301,70.221-78.342,72.307-88.814C115.1,266.531,101.484,248.205,91.012,248.744z
			"/>
		<path display="inline" fill="#FFFFFF" d="M405.947-37.7c-10.932-15.145-35.498-16.26-56.115-3.016
			c-7.87-4.009-17.023-7.233-27.768-9.215c0,0-391.393,317.515-477.854,378.833c0,0-3.302,7.002-8.776,18.406
			c98.109,68.715,86.957,120.568,86.957,120.568c-27.149-66.916-95.885-102.037-95.905-102.037
			c-24.626,50.699-68.835,139.307-92.308,172.113c0,0-0.04,18.016,22.025,29.48c0,0,150.072-101.023,193.329-109.639
			c0,0,23.883-23.283,60.697-58.922c-20.121,10.309-43.197,20.062-52.827,20.658c-16.772,1.055-36.153-39.436-34.583-53.775
			c1.57-14.338,153.521-139.574,176.038-137.984c22.541,1.57,29.875,22.519,30.414,37.726c0.205,6.548-13.654,26.546-30.414,48.013
			C212.118,204.841,355.042,69.667,395.943,39.669c0,0,0.414-10.661-3.139-24.688C410.488-0.368,416.502-23.032,405.947-37.7z
			 M-209.458,544.896c0,0-2.542-32.479-33.638-43.818C-243.095,501.078-190.867,477.443-209.458,544.896z"/>
	</g>
	<path display="none" opacity="0.5" fill="#71C8EA" enable-background="new    " d="M1359.09,278.561l3.332,3.332
		c0,0,17-13.666,32.5-11.832c0,0,21-28,50-37.834c0,0,17.668-9.834,7.168-30.666c-10.5-20.834-24.328-12.938-31.168-8
		c-9.582,6.916-39.771,40.321-51.5,56.332C1369.422,249.893,1372.922,266.227,1359.09,278.561z"/>
	<g>
		<path d="M31.816,13.521C30.493,4.793,22.337-1.174,13.601,0.195C4.866,1.564-1.142,9.749,0.183,18.479
			c1.325,8.729,9.48,14.694,18.215,13.326C27.134,30.436,33.143,22.25,31.816,13.521z M16.205,9.074
			c-0.098,0.044-0.196,0.082-0.294,0.115c0.213,0.248,0.393,0.527,0.531,0.837c0.939,2.09-0.364,4.711-2.91,5.855
			c-1.442,0.646-2.975,0.682-4.203,0.209c-0.503,0.584-0.731,1.312-0.584,1.982c0.248-0.15,0.508-0.288,0.781-0.411
			c2.872-1.29,6.059-0.425,7.119,1.935c1.06,2.357-0.411,5.315-3.283,6.605c-2.872,1.29-6.059,0.424-7.118-1.934
			c-0.658-1.465-0.341-3.158,0.681-4.543c-0.063-0.107-0.122-0.221-0.174-0.336c-0.651-1.451-0.223-3.157,0.951-4.448
			c-0.191-0.233-0.353-0.492-0.48-0.775c-0.939-2.091,0.364-4.713,2.91-5.855c0.87-0.391,1.772-0.559,2.621-0.526
			c-0.208-1.022,0.467-2.17,1.658-2.705c1.343-0.604,2.834-0.198,3.33,0.904C18.236,7.087,17.548,8.471,16.205,9.074z
			 M25.417,10.947c-0.287,0.158-1.683,0.201-1.683,0.201s-0.307,1.742-0.467,1.816c-0.162,0.074-1.816,0.376-1.972,0.153
			c-0.155-0.224-0.144-1.769-0.144-1.769s-1.678,0.015-1.807-0.2c-0.13-0.214,0.004-1.661,0.139-1.845
			c0.134-0.185,1.926-0.39,1.926-0.39s0.191-1.902,0.464-2.055c0.272-0.153,2.028-0.398,2.125-0.197
			c0.095,0.201-0.13,2.031-0.13,2.031s1.861-0.03,2.035,0.184C26.081,9.092,25.704,10.789,25.417,10.947z"/>
		<ellipse transform="matrix(-0.9122 0.4098 -0.4098 -0.9122 27.7471 18.4113)" cx="11.901" cy="12.179" rx="2.735" ry="2.246"/>
		<ellipse transform="matrix(0.4098 0.9122 -0.9122 0.4098 26.7619 2.5059)" cx="11.445" cy="21.933" rx="2.534" ry="3.086"/>
	</g>
</g>
</svg>
