<?xml version="1.0" encoding="utf-8"?>
<!-- Generator: Adobe Illustrator 16.0.4, SVG Export Plug-In . SVG Version: 6.00 Build 0)  -->
<!DOCTYPE svg PUBLIC "-//W3C//DTD SVG 1.1//EN" "http://www.w3.org/Graphics/SVG/1.1/DTD/svg11.dtd">
<svg version="1.1" fill="rgb(0, 14, 156)" xmlns="http://www.w3.org/2000/svg" xmlns:xlink="http://www.w3.org/1999/xlink" x="0px" y="0px"
	 width="32px" height="31.922px" viewBox="0 0 32 31.922" enable-background="new 0 0 32 31.922" xml:space="preserve">
<g id="Fondo_1_" display="none">
	<rect id="Fondo" x="-629.959" y="-1147.561" display="inline" fill="#FB6E92" width="1000" height="2438.351"/>
</g>
<g id="Guias">
</g>
<g id="Icons">
	<g display="none" opacity="0.2">
		<path display="inline" fill="#FFFFFF" d="M-219.95,328.959c-11.282,3.637-35.885,28.281-38.51,36.153
			c-2.621,7.851,12.065,36.153,18.865,37.706c6.793,1.59,56.584-20.438,58.154-28.285
			C-179.87,366.663-208.668,325.282-219.95,328.959z"/>
		<path display="inline" fill="#FFFFFF" d="M-116.981,248.801c-10.498,0.494-88.546,59.727-88.034,69.146
			c0.519,9.424,29.36,46.629,37.729,47.951c8.363,1.301,70.221-78.341,72.307-88.814
			C-92.894,266.588-106.51,248.263-116.981,248.801z"/>
		<path display="inline" fill="#FFFFFF" d="M197.953-37.643c-10.932-15.145-35.498-16.26-56.115-3.016
			c-7.87-4.009-17.023-7.233-27.768-9.215c0,0-391.393,317.515-477.854,378.833c0,0-3.302,7.002-8.776,18.406
			c98.109,68.715,86.957,120.568,86.957,120.568c-27.149-66.916-95.885-102.037-95.905-102.037
			c-24.626,50.699-68.835,139.307-92.308,172.113c0,0-0.04,18.016,22.025,29.48c0,0,150.072-101.023,193.329-109.639
			c0,0,23.883-23.283,60.697-58.922c-20.121,10.309-43.197,20.062-52.827,20.658c-16.772,1.053-36.153-39.437-34.583-53.775
			c1.57-14.338,153.521-139.574,176.038-137.984c22.54,1.57,29.875,22.519,30.414,37.726c0.205,6.548-13.655,26.546-30.414,48.012
			C4.124,204.898,147.048,69.725,187.95,39.727c0,0,0.413-10.661-3.14-24.688C202.495-0.311,208.508-22.975,197.953-37.643z
			 M-417.451,544.954c0,0-2.542-32.479-33.638-43.818C-451.089,501.135-398.86,477.5-417.451,544.954z"/>
	</g>
	<path display="none" opacity="0.5" fill="#71C8EA" enable-background="new    " d="M1151.096,278.618l3.333,3.332
		c0,0,17-13.666,32.5-11.832c0,0,21-28,50-37.834c0,0,17.667-9.834,7.167-30.666c-10.5-20.834-24.327-12.938-31.167-8
		c-9.583,6.916-39.771,40.321-51.5,56.332C1161.429,249.95,1164.929,266.284,1151.096,278.618z"/>
	<g>
		<circle cx="5.562" cy="26.36" r="5.562"/>
		<path d="M17.755,14.194c0,0-4.472-4.991-17.209-3.483v6.396c0,0,9.306-1.508,12.634,1.976c0,0,3.691,2.703,1.976,12.842h6.187
			C21.342,31.922,23.214,19.342,17.755,14.194z"/>
		<path d="M25.917,5.616c0,0-7.591-7.539-25.371-5.147V5.2c0,0,12.8-0.917,20.38,4.471c0,0,6.344,3.483,5.459,22.251h5.355
			C31.74,31.922,33.872,12.062,25.917,5.616z"/>
	</g>
</g>
</svg>
