<?xml version="1.0" encoding="utf-8"?>
<!-- Generator: Adobe Illustrator 16.0.4, SVG Export Plug-In . SVG Version: 6.00 Build 0)  -->
<!DOCTYPE svg PUBLIC "-//W3C//DTD SVG 1.1//EN" "http://www.w3.org/Graphics/SVG/1.1/DTD/svg11.dtd">
<svg version="1.1" fill="rgb(0, 14, 156)" xmlns="http://www.w3.org/2000/svg" xmlns:xlink="http://www.w3.org/1999/xlink" x="0px" y="0px"
	 width="32px" height="31.968px" viewBox="0 0 32 31.968" enable-background="new 0 0 32 31.968" xml:space="preserve">
<g id="Fondo_1_" display="none">
	<rect id="Fondo" x="-525.961" y="-1147.634" display="inline" fill="#FB6E92" width="1000" height="2438.35"/>
</g>
<g id="Guias">
</g>
<g id="Icons">
	<g display="none" opacity="0.2">
		<path display="inline" fill="#FFFFFF" d="M-115.952,328.887c-11.282,3.636-35.885,28.28-38.51,36.153
			c-2.621,7.851,12.065,36.154,18.865,37.705c6.793,1.59,56.584-20.437,58.154-28.285
			C-75.872,366.589-104.67,325.208-115.952,328.887z"/>
		<path display="inline" fill="#FFFFFF" d="M-12.983,248.729c-10.498,0.494-88.546,59.726-88.034,69.146
			c0.519,9.424,29.36,46.629,37.729,47.951c8.363,1.301,70.221-78.341,72.307-88.813C11.104,266.516-2.512,248.189-12.983,248.729z"
			/>
		<path display="inline" fill="#FFFFFF" d="M301.951-37.716c-10.932-15.145-35.498-16.26-56.115-3.016
			c-7.869-4.009-17.022-7.233-27.767-9.215c0,0-391.393,317.515-477.854,378.833c0,0-3.302,7.003-8.776,18.406
			c98.109,68.715,86.957,120.568,86.957,120.568c-27.149-66.916-95.885-102.037-95.905-102.037
			c-24.626,50.699-68.835,139.307-92.308,172.115c0,0-0.04,18.014,22.025,29.479c0,0,150.072-101.023,193.329-109.639
			c0,0,23.883-23.283,60.697-58.922c-20.121,10.309-43.197,20.062-52.827,20.658c-16.772,1.055-36.153-39.436-34.583-53.775
			c1.57-14.338,153.521-139.574,176.038-137.984c22.54,1.57,29.875,22.519,30.414,37.726c0.205,6.548-13.655,26.546-30.414,48.013
			C108.123,204.826,251.046,69.651,291.949,39.653c0,0,0.413-10.661-3.141-24.688C306.494-0.384,312.505-23.048,301.951-37.716z
			 M-313.453,544.88c0,0-2.542-32.477-33.638-43.818C-347.091,501.062-294.862,477.427-313.453,544.88z"/>
	</g>
	<path display="none" opacity="0.5" fill="#71C8EA" enable-background="new    " d="M1255.093,278.544l3.334,3.332
		c0,0,17-13.666,32.5-11.832c0,0,21-28,50-37.834c0,0,17.666-9.834,7.166-30.666c-10.5-20.834-24.326-12.938-31.166-8
		c-9.584,6.916-39.771,40.322-51.5,56.332C1265.427,249.876,1268.927,266.21,1255.093,278.544z"/>
	<path d="M29.397,1.074C26.981-1.227,2.938,0.516,0.983,3.029c-1.955,2.513-0.691,26.346,1.15,27.725
		c1.84,1.381,26.92,1.842,28.875,0C32.962,28.914,31.813,3.375,29.397,1.074z M10.129,24.962C8.4,24.962,7,23.562,7,21.833
		c0-1.728,1.4-3.129,3.129-3.129s3.129,1.401,3.129,3.129C13.258,23.562,11.857,24.962,10.129,24.962z M19.005,24.962h-3.48
		c0.966-5.701-1.111-7.223-1.111-7.223c-1.872-1.958-7.106-1.111-7.106-1.111v-3.597c7.165-0.848,9.682,1.96,9.682,1.96
		C20.058,17.887,19.005,24.962,19.005,24.962z M24.854,24.962h-3.013c0.498-10.556-3.07-12.517-3.07-12.517
		C14.507,9.416,7.307,9.932,7.307,9.932V7.271c10.002-1.346,14.271,2.896,14.271,2.896C26.053,13.792,24.854,24.962,24.854,24.962z"
		/>
</g>
</svg>
