<?xml version="1.0" encoding="utf-8"?>
<!-- Generator: Adobe Illustrator 16.0.4, SVG Export Plug-In . SVG Version: 6.00 Build 0)  -->
<!DOCTYPE svg PUBLIC "-//W3C//DTD SVG 1.1//EN" "http://www.w3.org/Graphics/SVG/1.1/DTD/svg11.dtd">
<svg version="1.1" fill="rgb(0, 14, 156)" xmlns="http://www.w3.org/2000/svg" xmlns:xlink="http://www.w3.org/1999/xlink" x="0px" y="0px"
	 width="32px" height="32px" viewBox="0 0 32 32" enable-background="new 0 0 32 32" xml:space="preserve">
<g id="Fondo_1_" display="none">
	<rect id="Fondo" x="-577.96" y="-1147.713" display="inline" fill="#FB6E92" width="1000" height="2438.351"/>
</g>
<g id="Guias">
</g>
<g id="Icons">
	<g display="none" opacity="0.2">
		<path display="inline" fill="#FFFFFF" d="M-167.951,328.809c-11.282,3.635-35.885,28.28-38.51,36.152
			c-2.621,7.852,12.065,36.154,18.865,37.705c6.793,1.59,56.584-20.436,58.154-28.284
			C-127.871,366.511-156.669,325.129-167.951,328.809z"/>
		<path display="inline" fill="#FFFFFF" d="M-64.982,248.648c-10.498,0.494-88.546,59.727-88.034,69.146
			c0.519,9.423,29.36,46.629,37.729,47.951c8.363,1.301,70.221-78.342,72.307-88.814C-40.895,266.438-54.511,248.109-64.982,248.648
			z"/>
		<path display="inline" fill="#FFFFFF" d="M249.952-37.795c-10.932-15.145-35.498-16.26-56.115-3.016
			c-7.869-4.009-17.022-7.233-27.767-9.215c0,0-391.393,317.515-477.854,378.833c0,0-3.302,7.004-8.776,18.407
			c98.109,68.715,86.957,120.568,86.957,120.568c-27.149-66.916-95.885-102.037-95.905-102.037
			c-24.626,50.699-68.835,139.307-92.308,172.114c0,0-0.04,18.015,22.025,29.479c0,0,150.072-101.023,193.329-109.639
			c0,0,23.883-23.283,60.697-58.922c-20.121,10.308-43.197,20.062-52.827,20.658c-16.772,1.054-36.153-39.437-34.583-53.775
			c1.57-14.339,153.521-139.574,176.038-137.984c22.54,1.57,29.875,22.519,30.414,37.726c0.205,6.548-13.655,26.545-30.414,48.012
			C56.124,204.746,199.047,69.572,239.95,39.574c0,0,0.413-10.661-3.141-24.688C254.495-0.463,260.506-23.127,249.952-37.795z
			 M-365.452,544.802c0,0-2.542-32.478-33.638-43.817C-399.09,500.983-346.861,477.349-365.452,544.802z"/>
	</g>
	<path display="none" opacity="0.5" fill="#71C8EA" enable-background="new    " d="M1203.094,278.465l3.334,3.333
		c0,0,17-13.666,32.5-11.833c0,0,21-27.999,50-37.833c0,0,17.666-9.834,7.166-30.667s-24.326-12.938-31.166-8
		c-9.584,6.916-39.771,40.322-51.5,56.333C1213.428,249.798,1216.928,266.132,1203.094,278.465z"/>
	<path d="M31.817,13.522C30.493,4.794,22.338-1.173,13.602,0.195C4.866,1.565-1.142,9.75,0.184,18.479
		C1.51,27.208,9.664,33.174,18.4,31.805C27.135,30.436,33.143,22.251,31.817,13.522z M10.13,24.588c-1.728,0-3.129-1.424-3.129-3.18
		s1.401-3.18,3.129-3.18s3.13,1.424,3.13,3.18S11.857,24.588,10.13,24.588z M19.006,24.588h-3.48c0.966-5.795-1.11-7.341-1.11-7.341
		c-1.872-1.988-7.107-1.126-7.107-1.126v-3.656c7.165-0.861,9.682,1.99,9.682,1.99C20.058,17.398,19.006,24.588,19.006,24.588z
		 M24.855,24.588H21.84c0.498-10.728-3.068-12.719-3.068-12.719C14.508,8.79,7.308,9.315,7.308,9.315V6.611
		C17.31,5.243,21.579,9.553,21.579,9.553C26.055,13.237,24.855,24.588,24.855,24.588z"/>
</g>
</svg>
