<?xml version="1.0" encoding="utf-8"?>
<!-- Generator: Adobe Illustrator 16.0.4, SVG Export Plug-In . SVG Version: 6.00 Build 0)  -->
<!DOCTYPE svg PUBLIC "-//W3C//DTD SVG 1.1//EN" "http://www.w3.org/Graphics/SVG/1.1/DTD/svg11.dtd">
<svg version="1.1" fill="rgb(0, 14, 156)" xmlns="http://www.w3.org/2000/svg" xmlns:xlink="http://www.w3.org/1999/xlink" x="0px" y="0px"
	 width="32px" height="29.98px" viewBox="0 0 32 29.98" enable-background="new 0 0 32 29.98" xml:space="preserve">
<g id="Fondo_1_" display="none">
	<rect id="Fondo" x="-785.951" y="-1148.724" display="inline" fill="#FB6E92" width="1000" height="2438.351"/>
</g>
<g id="Guias">
</g>
<g id="Icons">
	<g display="none" opacity="0.2">
		<path display="inline" fill="#FFFFFF" d="M-375.941,327.797c-11.282,3.637-35.885,28.281-38.51,36.153
			c-2.621,7.851,12.065,36.153,18.865,37.705c6.793,1.59,56.584-20.436,58.154-28.284
			C-335.861,365.5-364.659,324.118-375.941,327.797z"/>
		<path display="inline" fill="#FFFFFF" d="M-272.973,247.639c-10.498,0.493-88.546,59.726-88.034,69.146
			c0.519,9.423,29.36,46.629,37.729,47.951c8.363,1.301,70.221-78.341,72.307-88.814
			C-248.885,265.426-262.501,247.1-272.973,247.639z"/>
		<path display="inline" fill="#FFFFFF" d="M41.962-38.806C31.03-53.95,6.464-55.065-14.153-41.821
			c-7.87-4.01-17.023-7.233-27.767-9.216c0,0-391.393,317.516-477.854,378.833c0,0-3.302,7.003-8.776,18.407
			c98.109,68.715,86.957,120.568,86.957,120.568c-27.149-66.916-95.885-102.037-95.905-102.037
			c-24.626,50.698-68.835,139.307-92.308,172.113c0,0-0.04,18.016,22.025,29.48c0,0,150.072-101.024,193.329-109.639
			c0,0,23.883-23.283,60.697-58.923c-20.121,10.309-43.197,20.062-52.827,20.659c-16.772,1.054-36.153-39.437-34.583-53.775
			c1.57-14.338,153.521-139.574,176.038-137.984c22.54,1.57,29.875,22.519,30.414,37.726c0.205,6.548-13.655,26.546-30.414,48.012
			C-151.867,203.735-8.943,68.562,31.958,38.563c0,0,0.414-10.661-3.14-24.688C46.503-1.474,52.517-24.138,41.962-38.806z
			 M-573.442,543.791c0,0-2.542-32.478-33.638-43.818C-607.08,499.972-554.852,476.338-573.442,543.791z"/>
	</g>
	<path display="none" opacity="0.5" fill="#71C8EA" enable-background="new    " d="M995.103,277.454l3.334,3.333
		c0,0,17-13.666,32.5-11.833c0,0,21-27.999,50-37.833c0,0,17.666-9.834,7.166-30.667s-24.326-12.937-31.166-8
		c-9.584,6.916-39.771,40.322-51.5,56.333C1005.437,248.787,1008.937,265.121,995.103,277.454z"/>
	<g>
		<polygon points="2.373,29.98 9.421,29.98 9.421,11.822 1.298,14.212 		"/>
		<path d="M18.889,11.822V9.194l-6.69,2.628l0.836,18.158h5.734C16.26,15.286,22.71,15.167,22.71,15.167
			c6.213-0.119,1.554,14.813,1.554,14.813h5.733C38.123-0.841,18.889,11.822,18.889,11.822z"/>
		<ellipse transform="matrix(-0.895 0.446 -0.446 -0.895 12.2589 6.5439)" cx="5.359" cy="4.715" rx="5.555" ry="4.48"/>
	</g>
</g>
</svg>
