<?xml version="1.0" encoding="utf-8"?>
<!-- Generator: Adobe Illustrator 16.0.4, SVG Export Plug-In . SVG Version: 6.00 Build 0)  -->
<!DOCTYPE svg PUBLIC "-//W3C//DTD SVG 1.1//EN" "http://www.w3.org/Graphics/SVG/1.1/DTD/svg11.dtd">
<svg version="1.1" fill="rgb(0, 14, 156)" xmlns="http://www.w3.org/2000/svg" xmlns:xlink="http://www.w3.org/1999/xlink" x="0px" y="0px"
	 width="32px" height="31.969px" viewBox="0 0 32 31.969" enable-background="new 0 0 32 31.969" xml:space="preserve">
<g id="Fondo_1_" display="none">
	<rect id="Fondo" x="-681.958" y="-1147.537" display="inline" fill="#FB6E92" width="1000" height="2438.352"/>
</g>
<g id="Guias">
</g>
<g id="Icons">
	<g display="none" opacity="0.2">
		<path display="inline" fill="#FFFFFF" d="M-271.948,328.982c-11.282,3.637-35.885,28.281-38.51,36.153
			c-2.621,7.851,12.065,36.154,18.865,37.705c6.793,1.59,56.584-20.437,58.154-28.284
			C-231.868,366.688-260.666,325.305-271.948,328.982z"/>
		<path display="inline" fill="#FFFFFF" d="M-168.979,248.825c-10.498,0.493-88.546,59.726-88.034,69.146
			c0.519,9.424,29.36,46.629,37.729,47.951c8.363,1.301,70.221-78.341,72.307-88.814
			C-144.892,266.611-158.508,248.286-168.979,248.825z"/>
		<path display="inline" fill="#FFFFFF" d="M145.955-37.619c-10.932-15.145-35.498-16.26-56.115-3.016
			c-7.869-4.009-17.022-7.233-27.766-9.215c0,0-391.394,317.515-477.855,378.833c0,0-3.302,7.004-8.776,18.408
			c98.109,68.715,86.957,120.567,86.957,120.567c-27.149-66.916-95.885-102.037-95.905-102.037
			c-24.626,50.699-68.835,139.308-92.308,172.114c0,0-0.04,18.015,22.025,29.479c0,0,150.072-101.023,193.329-109.639
			c0,0,23.883-23.283,60.697-58.922c-20.121,10.308-43.197,20.062-52.827,20.659c-16.772,1.053-36.153-39.438-34.583-53.776
			c1.57-14.338,153.521-139.573,176.038-137.983c22.54,1.569,29.875,22.518,30.414,37.725c0.205,6.548-13.655,26.546-30.414,48.012
			C-47.874,204.922,95.05,69.748,135.953,39.75c0,0,0.414-10.661-3.141-24.688C150.498-0.287,156.509-22.951,145.955-37.619z
			 M-469.449,544.979c0,0-2.542-32.479-33.638-43.818C-503.087,501.159-450.858,477.524-469.449,544.979z"/>
	</g>
	<path display="none" opacity="0.5" fill="#71C8EA" enable-background="new    " d="M1099.097,278.641l3.334,3.334
		c0,0,17-13.666,32.5-11.834c0,0,21-27.998,50-37.832c0,0,17.666-9.834,7.166-30.668c-10.5-20.832-24.326-12.937-31.166-8
		c-9.584,6.916-39.771,40.322-51.5,56.334C1109.431,249.975,1112.931,266.309,1099.097,278.641z"/>
	<path d="M29.397,1.075C26.981-1.226,2.938,0.517,0.983,3.03c-1.955,2.513-0.691,26.345,1.15,27.725
		c1.84,1.381,26.92,1.841,28.875,0C32.962,28.914,31.813,3.376,29.397,1.075z M11.476,26.291H6.631L5.891,15.45l5.585-1.644V26.291z
		 M10.058,11.676c-1.888,0.941-4.033,0.47-4.792-1.053C4.507,9.102,5.422,7.104,7.311,6.162c1.887-0.94,4.032-0.469,4.792,1.054
		C12.86,8.738,11.944,10.735,10.058,11.676z M25.623,26.291h-3.941c0,0,3.201-10.268-1.068-10.185c0,0-4.436,0.082-2.709,10.185
		H13.96l-0.574-12.484l4.601-1.808v1.808C17.985,13.807,31.207,5.1,25.623,26.291z"/>
</g>
</svg>
