<?xml version="1.0" encoding="utf-8"?>
<!-- Generator: Adobe Illustrator 16.0.4, SVG Export Plug-In . SVG Version: 6.00 Build 0)  -->
<!DOCTYPE svg PUBLIC "-//W3C//DTD SVG 1.1//EN" "http://www.w3.org/Graphics/SVG/1.1/DTD/svg11.dtd">
<svg version="1.1" fill="rgb(0, 14, 156)" xmlns="http://www.w3.org/2000/svg" xmlns:xlink="http://www.w3.org/1999/xlink" x="0px" y="0px"
	 width="32px" height="32px" viewBox="0 0 32 32" enable-background="new 0 0 32 32" xml:space="preserve">
<g id="Fondo_1_" display="none">
	<rect id="Fondo" x="-733.955" y="-1147.522" display="inline" fill="#FB6E92" width="1000" height="2438.352"/>
</g>
<g id="Guias">
</g>
<g id="Icons">
	<g display="none" opacity="0.2">
		<path display="inline" fill="#FFFFFF" d="M-323.945,328.998c-11.282,3.637-35.885,28.281-38.51,36.153
			c-2.621,7.852,12.065,36.154,18.865,37.705c6.793,1.59,56.584-20.436,58.154-28.284
			C-283.865,366.701-312.663,325.319-323.945,328.998z"/>
		<path display="inline" fill="#FFFFFF" d="M-220.977,248.839c-10.498,0.494-88.546,59.727-88.034,69.146
			c0.519,9.423,29.36,46.629,37.729,47.951c8.363,1.301,70.221-78.341,72.307-88.814
			C-196.889,266.626-210.505,248.3-220.977,248.839z"/>
		<path display="inline" fill="#FFFFFF" d="M93.958-37.604c-10.932-15.145-35.498-16.26-56.115-3.016
			c-7.869-4.009-17.022-7.233-27.766-9.215c0,0-391.393,317.515-477.854,378.833c0,0-3.302,7.004-8.776,18.407
			c98.109,68.715,86.957,120.568,86.957,120.568c-27.149-66.916-95.885-102.037-95.905-102.037
			c-24.626,50.699-68.835,139.307-92.308,172.114c0,0-0.04,18.015,22.025,29.479c0,0,150.072-101.023,193.329-109.639
			c0,0,23.883-23.283,60.697-58.922c-20.121,10.308-43.197,20.062-52.827,20.659c-16.772,1.053-36.153-39.438-34.583-53.776
			c1.57-14.338,153.521-139.574,176.038-137.983c22.54,1.569,29.875,22.518,30.414,37.725c0.205,6.548-13.655,26.546-30.414,48.012
			C-99.871,204.937,43.053,69.763,83.956,39.765c0,0,0.414-10.661-3.141-24.688C98.5-0.272,104.513-22.937,93.958-37.604z
			 M-521.446,544.992c0,0-2.542-32.478-33.638-43.817C-555.084,501.174-502.855,477.539-521.446,544.992z"/>
	</g>
	<path display="none" opacity="0.5" fill="#71C8EA" enable-background="new    " d="M1047.101,278.655l3.333,3.333
		c0,0,17-13.666,32.5-11.833c0,0,21-27.999,50-37.833c0,0,17.667-9.834,7.167-30.667s-24.327-12.937-31.167-8
		c-9.583,6.916-39.771,40.322-51.5,56.333C1057.434,249.988,1060.934,266.322,1047.101,278.655z"/>
	<path d="M31.817,13.521C30.493,4.793,22.338-1.173,13.602,0.195C4.866,1.564-1.142,9.749,0.184,18.478
		C1.51,27.207,9.664,33.173,18.4,31.804C27.136,30.435,33.143,22.25,31.817,13.521z M12.241,24.703H8.212l-0.614-9.156l4.643-1.387
		V24.703z M11.061,12.36c-1.569,0.795-3.352,0.397-3.982-0.888c-0.631-1.286,0.129-2.973,1.699-3.767
		c1.569-0.795,3.353-0.396,3.983,0.889C13.392,9.88,12.63,11.565,11.061,12.36z M23.999,24.703h-3.275c0,0,2.662-8.669-0.889-8.601
		c0,0-3.686,0.068-2.252,8.601h-3.276L13.828,14.16l3.824-1.525v1.525C17.651,14.16,28.642,6.807,23.999,24.703z"/>
</g>
</svg>
