<?xml version="1.0" encoding="utf-8"?>
<!-- Generator: Adobe Illustrator 16.0.4, SVG Export Plug-In . SVG Version: 6.00 Build 0)  -->
<!DOCTYPE svg PUBLIC "-//W3C//DTD SVG 1.1//EN" "http://www.w3.org/Graphics/SVG/1.1/DTD/svg11.dtd">
<svg version="1.1" fill="rgb(0, 14, 156)" xmlns="http://www.w3.org/2000/svg" xmlns:xlink="http://www.w3.org/1999/xlink" x="0px" y="0px"
	 width="31.199px" height="32px" viewBox="0 0 31.199 32" enable-background="new 0 0 31.199 32" xml:space="preserve">
<g id="Fondo_1_" display="none">
	<rect id="Fondo" x="-838.843" y="-1147.522" display="inline" fill="#FB6E92" width="1000" height="2438.351"/>
</g>
<g id="Guias">
</g>
<g id="Icons">
	<g display="none" opacity="0.2">
		<path display="inline" fill="#FFFFFF" d="M-428.834,328.998c-11.282,3.636-35.885,28.281-38.51,36.152
			c-2.621,7.852,12.064,36.154,18.865,37.706c6.793,1.59,56.584-20.437,58.154-28.284
			C-388.754,366.701-417.552,325.318-428.834,328.998z"/>
		<path display="inline" fill="#FFFFFF" d="M-325.865,248.84c-10.498,0.494-88.546,59.727-88.034,69.146
			c0.519,9.423,29.36,46.629,37.729,47.951c8.363,1.301,70.221-78.342,72.307-88.814
			C-301.777,266.627-315.394,248.301-325.865,248.84z"/>
		<path display="inline" fill="#FFFFFF" d="M-10.931-37.604c-10.932-15.145-35.498-16.26-56.115-3.016
			c-7.87-4.009-17.023-7.233-27.767-9.215c0,0-391.393,317.515-477.854,378.833c0,0-3.302,7.003-8.776,18.407
			c98.109,68.715,86.957,120.567,86.957,120.567c-27.149-66.916-95.885-102.037-95.905-102.037
			c-24.626,50.699-68.835,139.308-92.308,172.114c0,0-0.04,18.016,22.025,29.48c0,0,150.072-101.024,193.329-109.64
			c0,0,23.883-23.282,60.697-58.922c-20.121,10.309-43.197,20.062-52.827,20.659c-16.772,1.053-36.153-39.437-34.583-53.776
			c1.57-14.338,153.521-139.574,176.038-137.983c22.54,1.569,29.875,22.519,30.414,37.725c0.205,6.548-13.655,26.546-30.414,48.013
			C-204.76,204.938-61.836,69.764-20.934,39.766c0,0,0.414-10.662-3.14-24.688C-6.389-0.272-0.376-22.937-10.931-37.604z
			 M-626.335,544.992c0,0-2.542-32.479-33.638-43.818C-659.973,501.174-607.744,477.539-626.335,544.992z"/>
	</g>
	<path display="none" opacity="0.5" fill="#71C8EA" enable-background="new    " d="M942.212,278.654l3.332,3.334
		c0,0,17-13.666,32.5-11.834c0,0,21-27.998,50-37.832c0,0,17.668-9.834,7.168-30.668c-10.5-20.832-24.328-12.937-31.168-8
		c-9.582,6.916-39.771,40.322-51.5,56.334C952.544,249.988,956.044,266.322,942.212,278.654z"/>
	<g>
		<polygon points="6.002,13.722 9.433,13.231 9.515,7.433 14.251,4.002 11.965,0 8.126,4.656 5.349,0 2.082,1.797 6.165,7.024 		"/>
		<path d="M12.264,8.381c-0.436,2.558,0.906,4.919,2.996,5.274c2.09,0.355,4.138-1.429,4.574-3.985
			c0.435-2.558-0.906-4.918-2.996-5.274C14.747,4.04,12.699,5.824,12.264,8.381z M14.117,8.208c0.24-1.414,1.373-2.401,2.528-2.204
			C17.8,6.2,18.542,7.507,18.302,8.921c-0.241,1.414-1.373,2.401-2.528,2.204C14.618,10.928,13.876,9.622,14.117,8.208z"/>
		<path d="M24.951,12.497c0,0,1.062-0.817,1.145-1.716v1.961l1.797-0.245l0.087-9.369L25.85,3.594c0,0-0.082,6.861-2.45,6.861
			c-2.369,0,0-6.534,0-6.534l-2.124,0.43C21.275,4.351,17.355,15.927,24.951,12.497z"/>
		<path d="M26.403,23.354c-0.763-0.106-1.51,0.436-1.669,1.211c-0.016,0.078-0.021,0.152-0.023,0.229
			c0,0.021-0.002,0.052-0.004,0.083c0.01,0.648,0.463,1.197,1.121,1.289c0.764,0.109,1.51-0.434,1.67-1.209
			C27.656,24.18,27.167,23.463,26.403,23.354z"/>
		<path d="M20.156,24.085c-0.873-0.146-1.729,0.589-1.91,1.642c-0.182,1.055,0.379,2.026,1.252,2.174
			c0.873,0.146,1.729-0.59,1.91-1.643C21.589,25.204,21.03,24.232,20.156,24.085z"/>
		<path d="M30.695,16.444c-1.252-2.123-30.111,0.218-30.547,1.906c-0.436,1.688,0.109,11.436,1.307,12.523
			c1.198,1.089,26.246,1.742,27.716,0.271C30.641,29.676,31.949,18.568,30.695,16.444z M6.982,29.402H4.94v-7.351l-2.858,0.163
			V20.01l7.596-1.144v2.286l-2.695,0.898L6.982,29.402L6.982,29.402z M15.052,29.424l-1.508,0.206v-1.646
			c-0.068,0.754-0.96,1.438-0.96,1.438C6.211,32.303,9.5,22.589,9.5,22.589l1.782-0.36c0,0-1.988,5.482,0,5.482
			c1.987,0,2.056-5.758,2.056-5.758l1.787-0.391L15.052,29.424z M22.817,26.734c-0.349,2.045-1.985,3.471-3.655,3.187
			c-0.479-0.081-0.906-0.298-1.267-0.608l-0.052,0.646h-1.796V17.969l2.777-0.652l-0.441,5.703c0.607-0.426,1.32-0.621,2.039-0.5
			C22.093,22.805,23.166,24.691,22.817,26.734z M28.757,25.225c-0.416,2.051-2.354,2.534-4.051,1.862c0,0,0.416,2.358,2.857,1.173
			l0.414,1.145c0,0-5.135,2.449-4.77-4.596l0.01-0.002c0.009-0.138,0.021-0.274,0.05-0.414c0.315-1.651,1.801-2.806,3.315-2.574
			C28.101,22.047,29.093,23.576,28.757,25.225z"/>
	</g>
</g>
</svg>
