<?xml version="1.0" encoding="utf-8"?>
<!-- Generator: Adobe Illustrator 16.0.4, SVG Export Plug-In . SVG Version: 6.00 Build 0)  -->
<!DOCTYPE svg PUBLIC "-//W3C//DTD SVG 1.1//EN" "http://www.w3.org/Graphics/SVG/1.1/DTD/svg11.dtd">
<svg version="1.1" fill="rgb(0, 14, 156)" xmlns="http://www.w3.org/2000/svg" xmlns:xlink="http://www.w3.org/1999/xlink" x="0px" y="0px"
	 width="32px" height="31.969px" viewBox="0 0 32 31.969" enable-background="new 0 0 32 31.969" xml:space="preserve">
<g id="Fondo_1_" display="none">
	<rect id="Fondo" x="-109.967" y="-1211.539" display="inline" fill="#FB6E92" width="1000" height="2438.352"/>
</g>
<g id="Guias">
</g>
<g id="Icons">
	<g display="none" opacity="0.2">
		<path display="inline" fill="#FFFFFF" d="M300.042,264.98c-11.282,3.637-35.885,28.281-38.51,36.153
			c-2.621,7.851,12.065,36.154,18.864,37.705c6.793,1.591,56.584-20.437,58.154-28.284
			C340.123,302.686,311.325,261.303,300.042,264.98z"/>
		<path display="inline" fill="#FFFFFF" d="M403.011,184.823c-10.498,0.493-88.546,59.726-88.034,69.146
			c0.52,9.424,29.36,46.629,37.729,47.951c8.363,1.301,70.221-78.341,72.307-88.814
			C427.099,202.609,413.483,184.284,403.011,184.823z"/>
		<path display="inline" fill="#FFFFFF" d="M717.946-101.621c-10.933-15.145-35.498-16.26-56.115-3.016
			c-7.87-4.009-17.023-7.233-27.767-9.215c0,0-391.394,317.515-477.854,378.833c0,0-3.302,7.004-8.776,18.408
			c98.109,68.715,86.957,120.567,86.957,120.567c-27.148-66.916-95.885-102.037-95.904-102.037
			c-24.627,50.699-68.836,139.307-92.309,172.114c0,0-0.039,18.015,22.025,29.479c0,0,150.072-101.023,193.328-109.639
			c0,0,23.884-23.283,60.697-58.922c-20.121,10.308-43.197,20.062-52.826,20.659c-16.772,1.053-36.153-39.438-34.584-53.776
			c1.57-14.338,153.521-139.573,176.039-137.983c22.539,1.569,29.875,22.518,30.413,37.725c0.205,6.548-13.654,26.546-30.413,48.012
			C524.117,140.92,667.041,5.746,707.943-24.252c0,0,0.414-10.661-3.141-24.688C722.488-64.289,728.5-86.953,717.946-101.621z
			 M102.542,480.976c0,0-2.542-32.478-33.638-43.817C68.904,437.157,121.132,413.522,102.542,480.976z"/>
	</g>
	<path display="none" opacity="0.5" fill="#71C8EA" enable-background="new    " d="M1671.088,214.639l3.333,3.334
		c0,0,17-13.666,32.5-11.834c0,0,21-27.998,50-37.832c0,0,17.667-9.834,7.167-30.668c-10.5-20.832-24.327-12.937-31.167-8
		c-9.583,6.916-39.771,40.322-51.5,56.334C1681.421,185.973,1684.921,202.307,1671.088,214.639z"/>
	<path d="M29.398,1.074C26.982-1.227,2.939,0.516,0.983,3.029c-1.955,2.514-0.69,26.345,1.15,27.725
		c1.841,1.381,26.92,1.842,28.876,0C32.964,28.913,31.814,3.375,29.398,1.074z M25.29,16.403c-4.983,8.852-10.61,8.025-10.61,8.025
		c-4.427,0-4.716-7.467-4.716-7.467c-0.166-5.026-3.6-0.725-3.6-0.725L5,14.541C7.667,8.46,10.915,7.67,10.915,7.67
		c3.475-1.179,3.33,4.886,3.33,4.886c0.6,7.322,5.026,1.986,5.026,1.986c3.061-4.22-0.684-3.972-0.684-3.972
		c4.033-4.405,6.701-2.481,6.701-2.481C29.137,10.012,25.29,16.403,25.29,16.403z"/>
</g>
</svg>
