<?xml version="1.0" encoding="utf-8"?>
<!-- Generator: Adobe Illustrator 16.0.4, SVG Export Plug-In . SVG Version: 6.00 Build 0)  -->
<!DOCTYPE svg PUBLIC "-//W3C//DTD SVG 1.1//EN" "http://www.w3.org/Graphics/SVG/1.1/DTD/svg11.dtd">
<svg version="1.1" fill="rgb(0, 14, 156)" xmlns="http://www.w3.org/2000/svg" xmlns:xlink="http://www.w3.org/1999/xlink" x="0px" y="0px"
	 width="32px" height="32px" viewBox="0 0 32 32" enable-background="new 0 0 32 32" xml:space="preserve">
<g id="Fondo_1_" display="none">
	<rect id="Fondo" x="-161.966" y="-1211.522" display="inline" fill="#FB6E92" width="1000" height="2438.351"/>
</g>
<g id="Guias">
</g>
<g id="Icons">
	<g display="none" opacity="0.2">
		<path display="inline" fill="#FFFFFF" d="M248.043,264.998c-11.281,3.636-35.885,28.281-38.51,36.152
			c-2.621,7.852,12.064,36.154,18.865,37.705c6.793,1.59,56.584-20.436,58.153-28.283
			C288.123,302.701,259.325,261.318,248.043,264.998z"/>
		<path display="inline" fill="#FFFFFF" d="M351.012,184.84c-10.498,0.494-88.546,59.727-88.033,69.146
			c0.519,9.423,29.359,46.629,37.729,47.951c8.363,1.301,70.221-78.342,72.307-88.814C375.1,202.627,361.483,184.301,351.012,184.84
			z"/>
		<path display="inline" fill="#FFFFFF" d="M665.946-101.604c-10.933-15.145-35.498-16.26-56.115-3.016
			c-7.87-4.009-17.023-7.233-27.767-9.215c0,0-391.394,317.515-477.854,378.833c0,0-3.302,7.003-8.776,18.407
			c98.109,68.715,86.957,120.567,86.957,120.567c-27.148-66.916-95.885-102.037-95.904-102.037
			c-24.627,50.7-68.836,139.308-92.307,172.115c0,0-0.04,18.016,22.025,29.48c0,0,150.071-101.024,193.329-109.639
			c0,0,23.883-23.283,60.697-58.922c-20.121,10.307-43.197,20.062-52.828,20.658c-16.771,1.053-36.152-39.438-34.582-53.775
			s153.521-139.574,176.038-137.984c22.54,1.57,29.875,22.518,30.413,37.725c0.205,6.549-13.654,26.547-30.413,48.012
			C472.117,140.938,615.041,5.763,655.943-24.235c0,0,0.414-10.661-3.141-24.688C670.488-64.272,676.501-86.937,665.946-101.604z
			 M50.542,480.992c0,0-2.542-32.479-33.638-43.818C16.904,437.174,69.133,413.539,50.542,480.992z"/>
	</g>
	<path display="none" opacity="0.5" fill="#71C8EA" enable-background="new    " d="M1619.089,214.654l3.333,3.334
		c0,0,17-13.666,32.5-11.834c0,0,21-27.998,50-37.832c0,0,17.667-9.834,7.167-30.668c-10.5-20.832-24.327-12.937-31.167-8
		c-9.583,6.916-39.771,40.322-51.5,56.334C1629.422,185.988,1632.922,202.322,1619.089,214.654z"/>
	<path d="M16,0C7.164,0,0,7.163,0,16s7.164,16,16,16s16-7.163,16-16S24.836,0,16,0z M25.29,16.42
		c-4.983,8.852-10.61,8.025-10.61,8.025c-4.427,0-4.716-7.467-4.716-7.467c-0.166-5.026-3.6-0.726-3.6-0.726L5,14.558
		c2.668-6.081,5.916-6.871,5.916-6.871c3.475-1.179,3.33,4.886,3.33,4.886c0.6,7.321,5.025,1.986,5.025,1.986
		c3.062-4.22-0.683-3.972-0.683-3.972c4.033-4.405,6.701-2.481,6.701-2.481C29.137,10.028,25.29,16.42,25.29,16.42z"/>
</g>
</svg>
