<?xml version="1.0" encoding="utf-8"?>
<!-- Generator: Adobe Illustrator 16.0.4, SVG Export Plug-In . SVG Version: 6.00 Build 0)  -->
<!DOCTYPE svg PUBLIC "-//W3C//DTD SVG 1.1//EN" "http://www.w3.org/Graphics/SVG/1.1/DTD/svg11.dtd">
<svg version="1.1" fill="rgb(0, 14, 156)" xmlns="http://www.w3.org/2000/svg" xmlns:xlink="http://www.w3.org/1999/xlink" x="0px" y="0px"
	 width="32px" height="31.697px" viewBox="0 0 32 31.697" enable-background="new 0 0 32 31.697" xml:space="preserve">
<g id="Fondo_1_" display="none">
	<rect id="Fondo" x="-265.642" y="-1211.674" display="inline" fill="#FB6E92" width="1000" height="2438.351"/>
</g>
<g id="Guias">
</g>
<g id="Icons">
	<g display="none" opacity="0.2">
		<path display="inline" fill="#FFFFFF" d="M144.368,264.847c-11.282,3.636-35.886,28.28-38.511,36.152
			c-2.621,7.852,12.065,36.154,18.865,37.705c6.793,1.59,56.584-20.436,58.154-28.284
			C184.448,302.55,155.65,261.168,144.368,264.847z"/>
		<path display="inline" fill="#FFFFFF" d="M247.336,184.688c-10.498,0.494-88.546,59.726-88.034,69.146
			c0.519,9.423,29.36,46.629,37.729,47.951c8.363,1.301,70.221-78.341,72.307-88.813
			C271.424,202.476,257.809,184.149,247.336,184.688z"/>
		<path display="inline" fill="#FFFFFF" d="M562.271-101.756c-10.933-15.145-35.498-16.26-56.115-3.016
			c-7.87-4.01-17.023-7.233-27.768-9.215c0,0-391.393,317.515-477.854,378.833c0,0-3.302,7.003-8.776,18.406
			c98.109,68.715,86.957,120.568,86.957,120.568c-27.149-66.916-95.885-102.037-95.905-102.037
			c-24.626,50.699-68.835,139.307-92.308,172.114c0,0-0.04,18.015,22.025,29.479c0,0,150.072-101.024,193.33-109.639
			c0,0,23.883-23.283,60.697-58.922c-20.121,10.308-43.197,20.062-52.828,20.659c-16.771,1.053-36.152-39.438-34.582-53.776
			c1.569-14.338,153.521-139.574,176.037-137.984c22.541,1.57,29.875,22.519,30.414,37.726c0.205,6.548-13.654,26.546-30.414,48.012
			C368.442,140.785,511.366,5.611,552.268-24.387c0,0,0.414-10.661-3.14-24.688C566.812-64.424,572.826-87.088,562.271-101.756z
			 M-53.133,480.841c0,0-2.542-32.478-33.638-43.817C-86.771,437.022-34.542,413.387-53.133,480.841z"/>
	</g>
	<path display="none" opacity="0.5" fill="#71C8EA" enable-background="new    " d="M1515.414,214.504l3.333,3.333
		c0,0,17-13.666,32.5-11.833c0,0,21-27.999,50-37.833c0,0,17.667-9.834,7.167-30.667s-24.327-12.937-31.167-8
		c-9.583,6.916-39.771,40.322-51.5,56.333C1525.747,185.837,1529.247,202.171,1515.414,214.504z"/>
	<path d="M29.011,4.224C24.279-1.265,7.453-1.229,3.105,3.318C-1.06,7.674-1.243,25.239,3.83,29.587
		c3.934,3.371,25.544,1.992,26.812,0.726C31.91,29.043,33.54,9.478,29.011,4.224z M14.7,22.28c-0.604,2.354-1.812,4.045-1.812,4.045
		h-2.355c0,0,0.725-5.222,0-9.238h4.71C15.243,17.087,15.304,19.925,14.7,22.28z M17.381,10.932
		c-0.555,1.817-3.138,2.641-5.77,1.838c-2.632-0.804-4.315-2.929-3.76-4.746c0.555-1.818,3.137-2.642,5.77-1.838
		C16.252,6.988,17.936,9.113,17.381,10.932z M22.408,26.083l-2.637-1.024c0,0,5.797-8.877,0-18.298l2.578-0.893
		C22.35,5.868,31.466,15.032,22.408,26.083z"/>
</g>
</svg>
