<?xml version="1.0" encoding="utf-8"?>
<!-- Generator: Adobe Illustrator 16.0.4, SVG Export Plug-In . SVG Version: 6.00 Build 0)  -->
<!DOCTYPE svg PUBLIC "-//W3C//DTD SVG 1.1//EN" "http://www.w3.org/Graphics/SVG/1.1/DTD/svg11.dtd">
<svg version="1.1" fill="rgb(0, 14, 156)" xmlns="http://www.w3.org/2000/svg" xmlns:xlink="http://www.w3.org/1999/xlink" x="0px" y="0px"
	 width="32px" height="27.055px" viewBox="0 0 32 27.055" enable-background="new 0 0 32 27.055" xml:space="preserve">
<g id="Fondo_1_" display="none">
	<rect id="Fondo" x="-421.966" y="-1212.674" display="inline" fill="#FB6E92" width="1000" height="2438.351"/>
</g>
<g id="Guias">
</g>
<g id="Icons">
	<g display="none" opacity="0.2">
		<path display="inline" fill="#FFFFFF" d="M-11.957,263.847c-11.282,3.636-35.885,28.281-38.51,36.153
			c-2.621,7.851,12.065,36.153,18.865,37.705c6.793,1.59,56.584-20.437,58.154-28.284C28.124,301.55-0.674,260.168-11.957,263.847z"
			/>
		<path display="inline" fill="#FFFFFF" d="M91.012,183.688c-10.498,0.494-88.546,59.727-88.034,69.146
			c0.519,9.423,29.36,46.629,37.729,47.951c8.363,1.301,70.221-78.342,72.307-88.814C115.1,201.476,101.484,183.149,91.012,183.688z
			"/>
		<path display="inline" fill="#FFFFFF" d="M405.947-102.756c-10.933-15.146-35.498-16.261-56.115-3.017
			c-7.87-4.009-17.023-7.232-27.767-9.215c0,0-391.394,317.515-477.854,378.833c0,0-3.302,7.003-8.776,18.407
			c98.109,68.715,86.957,120.568,86.957,120.568c-27.149-66.916-95.885-102.037-95.905-102.037
			c-24.626,50.698-68.835,139.307-92.308,172.114c0,0-0.04,18.015,22.025,29.479c0,0,150.072-101.024,193.329-109.639
			c0,0,23.883-23.283,60.697-58.923c-20.121,10.309-43.197,20.062-52.827,20.659c-16.772,1.053-36.153-39.437-34.583-53.775
			c1.57-14.339,153.521-139.574,176.038-137.984c22.541,1.57,29.875,22.518,30.414,37.725c0.205,6.549-13.654,26.546-30.414,48.013
			C212.118,139.785,355.042,4.611,395.944-25.387c0,0,0.414-10.66-3.141-24.688C410.489-65.424,416.501-88.088,405.947-102.756z
			 M-209.458,479.841c0,0-2.542-32.478-33.638-43.817C-243.095,436.023-190.867,412.388-209.458,479.841z"/>
	</g>
	<path display="none" opacity="0.5" fill="#71C8EA" enable-background="new    " d="M1359.089,213.504l3.333,3.333
		c0,0,17-13.666,32.5-11.833c0,0,21-27.999,50-37.833c0,0,17.667-9.834,7.167-30.667s-24.327-12.938-31.167-8
		c-9.583,6.916-39.771,40.322-51.5,56.333C1369.422,184.837,1372.922,201.171,1359.089,213.504z"/>
	<path d="M14.014,4.333c-0.344,0.061-0.677,0.129-1.004,0.203L11.916,0L6.88,1.935l1.222,4.406
		c-10.768,5.936-7.696,20.714-7.696,20.714l16.906-4.108l-1.021-4.803l-2.062-8.55c0.244-0.058,0.488-0.113,0.744-0.166
		c10.191-1.979,11.465,6.334,11.465,6.334l-0.002,0.003l-4.213,0.988l-0.955-6.125l-3.957,0.897l1.17,6.104l0.908,4.812L32,19.381
		C32,19.381,31.7,1.215,14.014,4.333z M5.141,20.901c0,0-0.213-5.625,4.444-9.07l2.093,7.54L5.141,20.901z"/>
</g>
</svg>
