<?xml version="1.0" encoding="utf-8"?>
<!-- Generator: Adobe Illustrator 16.0.4, SVG Export Plug-In . SVG Version: 6.00 Build 0)  -->
<!DOCTYPE svg PUBLIC "-//W3C//DTD SVG 1.1//EN" "http://www.w3.org/Graphics/SVG/1.1/DTD/svg11.dtd">
<svg version="1.1" fill="rgb(0, 14, 156)" xmlns="http://www.w3.org/2000/svg" xmlns:xlink="http://www.w3.org/1999/xlink" x="0px" y="0px"
	 width="32px" height="31.968px" viewBox="0 0 32 31.968" enable-background="new 0 0 32 31.968" xml:space="preserve">
<g id="Fondo_1_" display="none">
	<rect id="Fondo" x="-317.708" y="-1211.481" display="inline" fill="#FB6E92" width="1000" height="2438.352"/>
</g>
<g id="Guias">
</g>
<g id="Icons">
	<g display="none" opacity="0.2">
		<path display="inline" fill="#FFFFFF" d="M92.301,265.039c-11.281,3.637-35.885,28.281-38.51,36.153
			c-2.621,7.851,12.064,36.154,18.865,37.705c6.793,1.59,56.584-20.437,58.154-28.284
			C132.381,302.742,103.583,261.36,92.301,265.039z"/>
		<path display="inline" fill="#FFFFFF" d="M195.27,184.88c-10.498,0.494-88.545,59.727-88.033,69.146
			c0.519,9.424,29.359,46.629,37.729,47.951c8.363,1.301,70.221-78.341,72.307-88.814
			C219.357,202.667,205.742,184.341,195.27,184.88z"/>
		<path display="inline" fill="#FFFFFF" d="M510.205-101.563c-10.932-15.145-35.498-16.26-56.115-3.016
			c-7.87-4.009-17.022-7.233-27.767-9.215c0,0-391.394,317.515-477.854,378.833c0,0-3.302,7.004-8.776,18.407
			C37.802,352.162,26.65,404.015,26.65,404.015c-27.149-66.916-95.885-102.037-95.905-102.037
			c-24.626,50.699-68.835,139.307-92.308,172.113c0,0-0.04,18.016,22.025,29.48c0,0,150.072-101.023,193.329-109.639
			c0,0,23.883-23.283,60.697-58.922c-20.121,10.308-43.197,20.062-52.827,20.658c-16.772,1.054-36.153-39.437-34.583-53.775
			c1.57-14.337,153.521-139.574,176.04-137.984c22.54,1.57,29.875,22.519,30.414,37.725c0.204,6.549-13.655,26.547-30.414,48.013
			C316.375,140.978,459.299,5.804,500.202-24.194c0,0,0.414-10.661-3.141-24.688C514.747-64.231,520.759-86.896,510.205-101.563z
			 M-105.2,481.033c0,0-2.542-32.479-33.638-43.818C-138.837,437.214-86.609,413.58-105.2,481.033z"/>
	</g>
	<path display="none" opacity="0.5" fill="#71C8EA" enable-background="new    " d="M1463.347,214.696l3.333,3.333
		c0,0,17-13.666,32.5-11.833c0,0,21-27.999,50-37.833c0,0,17.667-9.834,7.167-30.667s-24.327-12.937-31.167-8
		c-9.583,6.916-39.771,40.322-51.5,56.333C1473.68,186.029,1477.18,202.363,1463.347,214.696z"/>
	<g>
		<path d="M8.535,20.957l4.494-1.055l-1.438-5.183C8.389,17.089,8.535,20.957,8.535,20.957z"/>
		<path d="M29.398,1.074C26.982-1.227,2.939,0.516,0.983,3.029c-1.955,2.514-0.69,26.346,1.15,27.725
			c1.841,1.381,26.92,1.842,28.876,0C32.965,28.914,31.814,3.375,29.398,1.074z M18.332,22.115l-0.625-3.311l-0.805-4.196
			l2.72-0.617l0.657,4.211l2.896-0.681v-0.001c0,0-0.875-5.715-7.882-4.355c-0.176,0.035-0.344,0.074-0.512,0.114l1.417,5.878
			L16.9,22.46L5.279,25.285c0,0-2.111-10.161,5.292-14.241L9.73,8.015l3.462-1.33l0.752,3.118c0.225-0.051,0.454-0.098,0.69-0.14
			C26.794,7.52,27,20.009,27,20.009L18.332,22.115z"/>
	</g>
</g>
</svg>
