<?xml version="1.0" encoding="utf-8"?>
<!-- Generator: Adobe Illustrator 16.0.4, SVG Export Plug-In . SVG Version: 6.00 Build 0)  -->
<!DOCTYPE svg PUBLIC "-//W3C//DTD SVG 1.1//EN" "http://www.w3.org/Graphics/SVG/1.1/DTD/svg11.dtd">
<svg version="1.1" fill="rgb(0, 14, 156)" xmlns="http://www.w3.org/2000/svg" xmlns:xlink="http://www.w3.org/1999/xlink" x="0px" y="0px"
	 width="32px" height="32px" viewBox="0 0 32 32" enable-background="new 0 0 32 32" xml:space="preserve">
<g id="Fondo_1_" display="none">
	<rect id="Fondo" x="-370.333" y="-1211.515" display="inline" fill="#FB6E92" width="1000" height="2438.351"/>
</g>
<g id="Guias">
</g>
<g id="Icons">
	<g display="none" opacity="0.2">
		<path display="inline" fill="#FFFFFF" d="M39.676,265.006c-11.281,3.637-35.885,28.281-38.51,36.153
			c-2.621,7.851,12.065,36.153,18.865,37.705c6.793,1.59,56.584-20.437,58.154-28.284C79.756,302.709,50.958,261.327,39.676,265.006
			z"/>
		<path display="inline" fill="#FFFFFF" d="M142.645,184.848c-10.498,0.494-88.545,59.727-88.033,69.146
			c0.519,9.423,29.359,46.629,37.729,47.951c8.363,1.301,70.221-78.342,72.307-88.814
			C166.732,202.635,153.117,184.309,142.645,184.848z"/>
		<path display="inline" fill="#FFFFFF" d="M457.58-101.597c-10.932-15.145-35.498-16.26-56.115-3.016
			c-7.87-4.009-17.022-7.233-27.767-9.215c0,0-391.393,317.516-477.854,378.833c0,0-3.302,7.003-8.776,18.407
			c98.109,68.715,86.957,120.568,86.957,120.568c-27.149-66.916-95.885-102.037-95.905-102.037
			c-24.626,50.699-68.835,139.307-92.308,172.113c0,0-0.04,18.016,22.025,29.48c0,0,150.072-101.024,193.329-109.639
			c0,0,23.883-23.283,60.697-58.922c-20.121,10.308-43.197,20.062-52.827,20.658c-16.772,1.053-36.153-39.437-34.583-53.775
			c1.57-14.338,153.521-139.574,176.038-137.984c22.54,1.57,29.875,22.518,30.413,37.725c0.205,6.549-13.654,26.547-30.413,48.012
			C263.75,140.943,406.674,5.771,447.577-24.228c0,0,0.414-10.661-3.141-24.688C462.122-64.265,468.134-86.929,457.58-101.597z
			 M-157.825,481c0,0-2.542-32.478-33.638-43.818C-191.462,437.182-139.234,413.547-157.825,481z"/>
	</g>
	<path display="none" opacity="0.5" fill="#71C8EA" enable-background="new    " d="M1410.722,214.663l3.333,3.333
		c0,0,17-13.666,32.5-11.833c0,0,21-27.999,50-37.833c0,0,17.667-9.834,7.167-30.667s-24.327-12.937-31.167-8
		c-9.583,6.916-39.771,40.321-51.5,56.333C1421.055,185.996,1424.555,202.33,1410.722,214.663z"/>
	<g>
		<path d="M9.535,19.973l4.494-1.054l-1.438-5.184C9.388,16.104,9.535,19.973,9.535,19.973z"/>
		<path d="M31.816,13.521C30.493,4.793,22.337-1.174,13.601,0.195C4.866,1.564-1.142,9.749,0.183,18.479
			c1.325,8.729,9.48,14.694,18.215,13.326C27.134,30.436,33.143,22.25,31.816,13.521z M19.332,21.13l-0.625-3.31l-0.805-4.196
			l2.72-0.617l0.657,4.211l2.896-0.68v-0.002c0,0-0.875-5.715-7.882-4.354c-0.176,0.036-0.344,0.074-0.512,0.114l1.417,5.878
			l0.701,3.303L6.279,24.3c0,0-2.112-10.16,5.291-14.24l-0.84-3.03l3.462-1.33l0.752,3.118c0.225-0.051,0.454-0.098,0.69-0.14
			C27.794,6.535,28,19.023,28,19.023L19.332,21.13z"/>
	</g>
</g>
</svg>
