<?xml version="1.0" encoding="utf-8"?>
<!-- Generator: Adobe Illustrator 16.0.4, SVG Export Plug-In . SVG Version: 6.00 Build 0)  -->
<!DOCTYPE svg PUBLIC "-//W3C//DTD SVG 1.1//EN" "http://www.w3.org/Graphics/SVG/1.1/DTD/svg11.dtd">
<svg version="1.1" fill="rgb(0, 14, 156)" xmlns="http://www.w3.org/2000/svg" xmlns:xlink="http://www.w3.org/1999/xlink" x="0px" y="0px"
	 width="30.445px" height="32px" viewBox="0 0 30.445 32" enable-background="new 0 0 30.445 32" xml:space="preserve">
<g id="Fondo_1_" display="none">
	<rect id="Fondo" x="-682.734" y="-1403.758" display="inline" fill="#FB6E92" width="999.999" height="2438.35"/>
</g>
<g id="Guias">
</g>
<g id="Icons">
	<g display="none" opacity="0.2">
		<path display="inline" fill="#FFFFFF" d="M-272.725,72.763c-11.282,3.636-35.885,28.28-38.51,36.153
			c-2.621,7.851,12.064,36.153,18.864,37.705c6.793,1.59,56.584-20.437,58.154-28.285
			C-232.645,110.465-261.442,69.084-272.725,72.763z"/>
		<path display="inline" fill="#FFFFFF" d="M-169.756-7.396c-10.498,0.494-88.546,59.727-88.034,69.146
			c0.52,9.422,29.36,46.629,37.729,47.951c8.363,1.301,70.221-78.342,72.307-88.814C-145.668,10.392-159.284-7.935-169.756-7.396z"
			/>
		<path display="inline" fill="#FFFFFF" d="M145.179-293.84c-10.933-15.145-35.498-16.26-56.115-3.016
			c-7.87-4.009-17.023-7.233-27.768-9.215c0,0-391.393,317.515-477.854,378.833c0,0-3.302,7.003-8.776,18.406
			c98.109,68.715,86.957,120.568,86.957,120.568c-27.148-66.916-95.885-102.037-95.905-102.037
			c-24.626,50.699-68.835,139.307-92.308,172.114c0,0-0.04,18.015,22.025,29.479c0,0,150.071-101.023,193.329-109.639
			c0,0,23.883-23.283,60.696-58.922c-20.121,10.309-43.196,20.062-52.827,20.659c-16.771,1.053-36.152-39.437-34.583-53.776
			c1.57-14.338,153.521-139.574,176.038-137.984c22.54,1.57,29.875,22.518,30.414,37.725c0.205,6.548-13.654,26.546-30.414,48.013
			C-48.65-51.299,94.273-186.473,135.176-216.471c0,0,0.414-10.661-3.14-24.688C149.721-256.508,155.733-279.172,145.179-293.84z
			 M-470.226,288.756c0,0-2.542-32.478-33.639-43.817C-503.864,244.938-451.635,221.304-470.226,288.756z"/>
	</g>
	<path display="none" opacity="0.5" fill="#71C8EA" enable-background="new    " d="M1098.321,22.42l3.333,3.332
		c0,0,17-13.666,32.5-11.833c0,0,21-27.999,50-37.833c0,0,17.667-9.834,7.167-30.667s-24.327-12.937-31.167-8
		c-9.583,6.916-39.771,40.322-51.5,56.333C1108.654-6.247,1112.154,10.087,1098.321,22.42z"/>
	<g>
		<path d="M26.149,0.197c-0.74-0.521-4.188,0.039-8.349,1.098c3.979-0.055,7.553,1.827,7.809,2.302
			c0.46,0.851-2.044,6.889-2.743,7.02c-0.697,0.131-5.715-3.912-7.543-1.842c-1.828,2.071,4,4.276,4,4.276s9.631,3.53,6.286,10.682
			c-1.279,2.737-2.943,4.402-4.771,5.324c4.653-1.445,8.844-3.021,9.36-3.712C31.347,23.816,28.213,1.649,26.149,0.197z"/>
		<path d="M5.037,25.113c-0.099-0.731,2.059-4.013,2.73-4.271s7.832,5.393,9.956-0.678c1.283-3.673-3.314-5.062-3.771-5.293
			c-0.457-0.229-7.854-2.724-4.915-8.168c0.984-1.823,2.2-3.082,3.522-3.926C6.439,4.676,0.498,7.084,0.08,8.452
			c-0.841,2.752,5.202,22.625,7.495,23.466c1.042,0.383,5.572-0.625,10.312-1.98C11.738,30.681,5.104,25.608,5.037,25.113z"/>
	</g>
</g>
</svg>
