<?xml version="1.0" encoding="utf-8"?>
<!-- Generator: Adobe Illustrator 16.0.4, SVG Export Plug-In . SVG Version: 6.00 Build 0)  -->
<!DOCTYPE svg PUBLIC "-//W3C//DTD SVG 1.1//EN" "http://www.w3.org/Graphics/SVG/1.1/DTD/svg11.dtd">
<svg version="1.1" fill="rgb(0, 14, 156)" xmlns="http://www.w3.org/2000/svg" xmlns:xlink="http://www.w3.org/1999/xlink" x="0px" y="0px"
	 width="28.697px" height="32px" viewBox="0 0 28.697 32" enable-background="new 0 0 28.697 32" xml:space="preserve">
<g id="Fondo_1_" display="none">
	<rect id="Fondo" x="-579.613" y="-1211.515" display="inline" fill="#FB6E92" width="999.999" height="2438.351"/>
</g>
<g id="Guias">
</g>
<g id="Icons">
	<g display="none" opacity="0.2">
		<path display="inline" fill="#FFFFFF" d="M-169.604,265.006c-11.282,3.637-35.886,28.281-38.511,36.153
			c-2.62,7.851,12.065,36.153,18.865,37.705c6.793,1.59,56.584-20.437,58.154-28.284
			C-129.523,302.709-158.321,261.327-169.604,265.006z"/>
		<path display="inline" fill="#FFFFFF" d="M-66.635,184.848c-10.498,0.494-88.546,59.727-88.034,69.146
			c0.52,9.423,29.36,46.629,37.729,47.951c8.362,1.301,70.221-78.342,72.307-88.814C-42.547,202.635-56.163,184.309-66.635,184.848z
			"/>
		<path display="inline" fill="#FFFFFF" d="M248.3-101.597c-10.932-15.145-35.498-16.26-56.114-3.016
			c-7.87-4.009-17.023-7.233-27.768-9.215c0,0-391.393,317.516-477.854,378.833c0,0-3.303,7.003-8.776,18.407
			c98.109,68.715,86.957,120.568,86.957,120.568c-27.148-66.916-95.885-102.037-95.905-102.037
			c-24.626,50.699-68.835,139.307-92.308,172.113c0,0-0.04,18.016,22.025,29.48c0,0,150.071-101.024,193.328-109.639
			c0,0,23.884-23.283,60.697-58.922c-20.121,10.308-43.197,20.062-52.827,20.658c-16.771,1.053-36.152-39.437-34.583-53.775
			c1.57-14.338,153.521-139.574,176.038-137.984c22.54,1.57,29.875,22.518,30.414,37.725c0.205,6.549-13.655,26.547-30.414,48.012
			C54.471,140.943,197.395,5.771,238.297-24.228c0,0,0.414-10.661-3.14-24.688C252.842-64.265,258.854-86.929,248.3-101.597z
			 M-367.104,481c0,0-2.542-32.478-33.639-43.818C-400.742,437.182-348.514,413.547-367.104,481z"/>
	</g>
	<path display="none" opacity="0.5" fill="#71C8EA" enable-background="new    " d="M1201.442,214.663l3.333,3.333
		c0,0,17-13.666,32.5-11.833c0,0,21-27.999,50-37.833c0,0,17.667-9.834,7.167-30.667s-24.327-12.937-31.167-8
		c-9.583,6.916-39.771,40.321-51.5,56.333C1211.775,185.996,1215.275,202.33,1201.442,214.663z"/>
	<g>
		<path d="M27.095,6.662c-3.638-6.515-12.291-8.609-19.33-4.681c-7.039,3.928-9.799,12.396-6.161,18.91
			c0.771,1.385,1.771,2.565,2.935,3.535c0.105,2.602,0.39,7.292,1.057,7.559c0.595,0.238,4.088-2.5,6.515-4.491
			c2.916,0.26,6-0.345,8.825-1.923C27.972,21.643,30.73,13.177,27.095,6.662z M19.602,23.441c-2.295,1.281-4.802,1.772-7.17,1.562
			c-1.973,1.618-4.812,3.844-5.293,3.648c-0.543-0.217-0.772-4.027-0.858-6.142c-0.943-0.786-1.757-1.747-2.384-2.872
			C0.942,14.347,3.184,7.468,8.902,4.275c5.72-3.191,12.751-1.489,15.705,3.803C27.562,13.371,25.32,20.25,19.602,23.441z"/>
		<path d="M17.595,15.858c-0.591,0.035-1.355,2.123-1.792,2.076c-0.438-0.048-5.117-4.905-5.095-5.283
			c0.023-0.378,1.852-1.32,1.792-1.887c-0.059-0.565-1.887-3.042-2.734-3.019c-0.332,0.01-2.265,2.326-1.875,4.363
			c0.604,3.172,4.062,6.746,6.591,8.183c4.149,2.357,6.462-0.967,6.319-1.415C20.66,18.428,18.185,15.823,17.595,15.858z"/>
	</g>
</g>
</svg>
