<?xml version="1.0" encoding="utf-8"?>
<!-- Generator: Adobe Illustrator 16.0.4, SVG Export Plug-In . SVG Version: 6.00 Build 0)  -->
<!DOCTYPE svg PUBLIC "-//W3C//DTD SVG 1.1//EN" "http://www.w3.org/Graphics/SVG/1.1/DTD/svg11.dtd">
<svg version="1.1" fill="rgb(0, 14, 156)" xmlns="http://www.w3.org/2000/svg" xmlns:xlink="http://www.w3.org/1999/xlink" x="0px" y="0px"
	 width="32px" height="31.969px" viewBox="0 0 32 31.969" enable-background="new 0 0 32 31.969" xml:space="preserve">
<g id="Fondo_1_" display="none">
	<rect id="Fondo" x="-473.888" y="-1211.547" display="inline" fill="#FB6E92" width="1000" height="2438.351"/>
</g>
<g id="Guias">
</g>
<g id="Icons">
	<g display="none" opacity="0.2">
		<path display="inline" fill="#FFFFFF" d="M-63.879,264.975c-11.282,3.635-35.885,28.28-38.51,36.152
			c-2.621,7.852,12.065,36.154,18.865,37.705c6.793,1.59,56.584-20.436,58.154-28.284
			C-23.799,302.677-52.597,261.295-63.879,264.975z"/>
		<path display="inline" fill="#FFFFFF" d="M39.09,184.814c-10.498,0.494-88.546,59.727-88.034,69.146
			c0.519,9.423,29.36,46.629,37.729,47.951c8.363,1.301,70.221-78.342,72.307-88.814C63.178,202.604,49.562,184.275,39.09,184.814z"
			/>
		<path display="inline" fill="#FFFFFF" d="M354.024-101.629c-10.933-15.145-35.498-16.26-56.115-3.016
			c-7.87-4.009-17.023-7.233-27.767-9.215c0,0-391.394,317.514-477.854,378.833c0,0-3.302,7.004-8.776,18.407
			c98.109,68.716,86.957,120.568,86.957,120.568c-27.149-66.916-95.885-102.037-95.905-102.037
			c-24.626,50.698-68.835,139.307-92.308,172.114c0,0-0.04,18.015,22.025,29.479c0,0,150.072-101.023,193.329-109.639
			c0,0,23.883-23.283,60.697-58.923c-20.121,10.309-43.197,20.062-52.827,20.66c-16.772,1.053-36.153-39.438-34.583-53.776
			c1.57-14.338,153.521-139.574,176.039-137.983c22.539,1.569,29.875,22.518,30.414,37.725c0.205,6.548-13.656,26.546-30.414,48.012
			C160.195,140.912,303.119,5.738,344.021-24.26c0,0,0.413-10.661-3.141-24.688C358.566-64.297,364.579-86.961,354.024-101.629z
			 M-261.38,480.968c0,0-2.542-32.478-33.638-43.817C-295.018,437.149-242.789,413.515-261.38,480.968z"/>
	</g>
	<path display="none" opacity="0.5" fill="#71C8EA" enable-background="new    " d="M1307.167,214.631l3.333,3.333
		c0,0,17-13.666,32.5-11.833c0,0,21-27.999,50-37.833c0,0,17.667-9.834,7.167-30.667s-24.327-12.938-31.167-8
		c-9.583,6.916-39.771,40.322-51.5,56.333C1317.5,185.964,1321,202.298,1307.167,214.631z"/>
	<g>
		<path d="M12.256,7.923c-3.932,2.194-5.473,6.924-3.441,10.562c0.431,0.773,0.99,1.435,1.639,1.976
			c0.059,1.453,0.217,4.073,0.59,4.224c0.332,0.133,2.283-1.396,3.639-2.51c1.629,0.145,3.352-0.193,4.93-1.074
			c3.932-2.193,5.473-6.924,3.441-10.562C21.021,6.898,16.188,5.729,12.256,7.923z M16.092,18.934
			c-1.738-0.986-4.115-3.443-4.531-5.625c-0.268-1.4,1.061-2.993,1.289-3c0.583-0.016,1.84,1.687,1.88,2.075
			c0.041,0.39-1.216,1.038-1.231,1.298c-0.017,0.26,3.201,3.599,3.502,3.63c0.3,0.033,0.826-1.401,1.231-1.427
			c0.406-0.024,2.106,1.769,2.205,2.075C20.534,18.27,18.945,20.557,16.092,18.934z"/>
		<path d="M29.398,1.074C26.982-1.227,2.939,0.516,0.983,3.029c-1.955,2.514-0.69,26.345,1.15,27.725
			c1.841,1.381,26.92,1.842,28.876,0C32.965,28.913,31.814,3.375,29.398,1.074z M20.527,22.562c-1.942,1.086-4.062,1.5-6.067,1.321
			c-1.669,1.37-4.07,3.252-4.479,3.089c-0.459-0.184-0.653-3.408-0.727-5.195c-0.799-0.668-1.486-1.479-2.018-2.432
			c-2.5-4.479-0.604-10.3,4.236-13c4.839-2.701,10.789-1.261,13.289,3.218C27.262,14.043,25.366,19.863,20.527,22.562z"/>
	</g>
</g>
</svg>
