<?xml version="1.0" encoding="utf-8"?>
<!-- Generator: Adobe Illustrator 16.0.4, SVG Export Plug-In . SVG Version: 6.00 Build 0)  -->
<!DOCTYPE svg PUBLIC "-//W3C//DTD SVG 1.1//EN" "http://www.w3.org/Graphics/SVG/1.1/DTD/svg11.dtd">
<svg version="1.1" fill="rgb(0, 14, 156)" xmlns="http://www.w3.org/2000/svg" xmlns:xlink="http://www.w3.org/1999/xlink" x="0px" y="0px"
	 width="32px" height="32px" viewBox="0 0 32 32" enable-background="new 0 0 32 32" xml:space="preserve">
<g id="Fondo_1_" display="none">
	<rect id="Fondo" x="-525.962" y="-1211.531" display="inline" fill="#FB6E92" width="1000" height="2438.352"/>
</g>
<g id="Guias">
</g>
<g id="Icons">
	<g display="none" opacity="0.2">
		<path display="inline" fill="#FFFFFF" d="M-115.953,264.989c-11.282,3.636-35.885,28.28-38.51,36.153
			c-2.621,7.851,12.065,36.153,18.865,37.705c6.793,1.59,56.584-20.437,58.154-28.285
			C-75.873,302.691-104.671,261.311-115.953,264.989z"/>
		<path display="inline" fill="#FFFFFF" d="M-12.984,184.831c-10.498,0.494-88.546,59.726-88.034,69.146
			c0.519,9.424,29.36,46.629,37.729,47.951c8.363,1.301,70.221-78.341,72.307-88.814C11.104,202.618-2.513,184.292-12.984,184.831z"
			/>
		<path display="inline" fill="#FFFFFF" d="M301.95-101.613c-10.933-15.145-35.498-16.26-56.115-3.016
			c-7.87-4.009-17.022-7.233-27.767-9.215c0,0-391.394,317.515-477.854,378.833c0,0-3.302,7.003-8.776,18.407
			c98.109,68.715,86.957,120.567,86.957,120.567c-27.149-66.916-95.885-102.037-95.905-102.037
			c-24.626,50.699-68.835,139.308-92.308,172.114c0,0-0.04,18.015,22.025,29.48c0,0,150.072-101.024,193.329-109.64
			c0,0,23.883-23.282,60.697-58.922c-20.121,10.308-43.197,20.062-52.827,20.659c-16.772,1.053-36.153-39.438-34.583-53.776
			c1.57-14.338,153.521-139.573,176.038-137.983c22.54,1.57,29.875,22.518,30.415,37.725c0.205,6.548-13.655,26.546-30.415,48.012
			C108.121,140.928,251.045,5.754,291.947-24.244c0,0,0.414-10.661-3.141-24.688C306.492-64.281,312.505-86.945,301.95-101.613z
			 M-313.454,480.983c0,0-2.542-32.479-33.638-43.818C-347.092,437.165-294.863,413.53-313.454,480.983z"/>
	</g>
	<path display="none" opacity="0.5" fill="#71C8EA" enable-background="new    " d="M1255.093,214.646l3.333,3.332
		c0,0,17-13.666,32.5-11.832c0,0,21-28,50-37.834c0,0,17.667-9.834,7.167-30.666c-10.5-20.834-24.327-12.938-31.167-8
		c-9.583,6.916-39.771,40.321-51.5,56.332C1265.426,185.979,1268.926,202.312,1255.093,214.646z"/>
	<g>
		<path d="M12.256,7.939c-3.932,2.194-5.473,6.924-3.441,10.562c0.431,0.772,0.99,1.435,1.639,1.976
			c0.059,1.453,0.217,4.072,0.59,4.223c0.332,0.133,2.283-1.396,3.639-2.51c1.629,0.146,3.352-0.192,4.93-1.073
			c3.932-2.194,5.473-6.924,3.441-10.562C21.021,6.915,16.188,5.745,12.256,7.939z M16.092,18.95
			c-1.738-0.987-4.115-3.444-4.531-5.625c-0.268-1.4,1.061-2.993,1.289-3c0.583-0.016,1.84,1.687,1.88,2.075
			c0.041,0.39-1.216,1.038-1.231,1.298c-0.017,0.26,3.201,3.599,3.502,3.631c0.3,0.032,0.826-1.402,1.231-1.427
			c0.406-0.024,2.106,1.768,2.205,2.075C20.534,18.286,18.945,20.572,16.092,18.95z"/>
		<path d="M31.816,13.521C30.492,4.793,22.338-1.174,13.602,0.195C4.866,1.564-1.143,9.749,0.184,18.479
			c1.324,8.729,9.48,14.694,18.214,13.326C27.135,30.436,33.143,22.25,31.816,13.521z M20.527,22.58
			c-1.942,1.085-4.062,1.5-6.067,1.32c-1.669,1.371-4.07,3.252-4.479,3.09c-0.459-0.184-0.653-3.408-0.727-5.196
			c-0.799-0.667-1.486-1.479-2.018-2.431c-2.5-4.479-0.604-10.3,4.236-13.001c4.839-2.701,10.789-1.261,13.289,3.218
			C27.264,14.06,25.366,19.88,20.527,22.58z"/>
	</g>
</g>
</svg>
