<?xml version="1.0" encoding="utf-8"?>
<!-- Generator: Adobe Illustrator 16.0.4, SVG Export Plug-In . SVG Version: 6.00 Build 0)  -->
<!DOCTYPE svg PUBLIC "-//W3C//DTD SVG 1.1//EN" "http://www.w3.org/Graphics/SVG/1.1/DTD/svg11.dtd">
<svg version="1.1" fill="rgb(0, 14, 156)" xmlns="http://www.w3.org/2000/svg" xmlns:xlink="http://www.w3.org/1999/xlink" x="0px" y="0px"
	 width="32px" height="25.695px" viewBox="0 0 32 25.695" enable-background="new 0 0 32 25.695" xml:space="preserve">
<g id="Fondo_1_" display="none">
	<rect id="Fondo" x="-733.955" y="-1278.674" display="inline" fill="#FB6E92" width="1000" height="2438.351"/>
</g>
<g id="Guias">
</g>
<g id="Icons">
	<g display="none" opacity="0.2">
		<path display="inline" fill="#FFFFFF" d="M-323.945,197.847c-11.282,3.636-35.885,28.281-38.51,36.153
			c-2.621,7.851,12.065,36.153,18.865,37.705c6.793,1.59,56.584-20.437,58.154-28.284
			C-283.865,235.55-312.663,194.168-323.945,197.847z"/>
		<path display="inline" fill="#FFFFFF" d="M-220.977,117.688c-10.498,0.494-88.546,59.727-88.034,69.146
			c0.519,9.423,29.36,46.629,37.729,47.951c8.363,1.301,70.221-78.342,72.307-88.814
			C-196.889,135.476-210.505,117.149-220.977,117.688z"/>
		<path display="inline" fill="#FFFFFF" d="M93.958-168.756c-10.933-15.146-35.498-16.261-56.115-3.017
			c-7.87-4.009-17.022-7.232-27.767-9.215c0,0-391.393,317.515-477.854,378.833c0,0-3.302,7.003-8.776,18.407
			c98.109,68.715,86.957,120.567,86.957,120.567c-27.149-66.915-95.885-102.036-95.905-102.036
			c-24.626,50.698-68.835,139.307-92.308,172.114c0,0-0.04,18.015,22.025,29.479c0,0,150.072-101.024,193.329-109.639
			c0,0,23.883-23.283,60.697-58.923c-20.121,10.309-43.197,20.062-52.827,20.659c-16.772,1.053-36.153-39.437-34.583-53.775
			c1.57-14.339,153.521-139.574,176.038-137.984c22.54,1.57,29.875,22.518,30.414,37.725c0.205,6.549-13.655,26.546-30.414,48.013
			C-99.871,73.785,43.053-61.389,83.955-91.387c0,0,0.414-10.66-3.141-24.688C98.5-131.424,104.514-154.088,93.958-168.756z
			 M-521.446,413.841c0,0-2.542-32.479-33.638-43.818C-555.084,370.022-502.855,346.388-521.446,413.841z"/>
	</g>
	<path display="none" opacity="0.5" fill="#71C8EA" enable-background="new    " d="M1047.101,147.504l3.333,3.333
		c0,0,17-13.666,32.5-11.833c0,0,21-27.999,50-37.833c0,0,17.667-9.834,7.167-30.667s-24.327-12.938-31.167-8
		c-9.583,6.916-39.771,40.322-51.5,56.333C1057.434,118.837,1060.934,135.171,1047.101,147.504z"/>
	<g>
		<path d="M31.975,17.625c-0.328-0.985-2.619-1.409-3.183-1.212c-0.821,0.288-0.479,2.564-2.136,2.547
			c-2.309-0.027-2.975-2.773-2.443-3.349c1.006-1.088,5.01-0.337,6.527-1.466c0.923-0.687,1.486-4.521-0.02-6.603
			s-4.562-2.832-7.699-0.575c-1.893,1.36-2.754,3.5-3.146,5.249c-0.061-0.051-0.119-0.1-0.18-0.146
			c-1.875-1.437-5.094-1.048-5.094-1.048s5.053-3.437,3.301-8.164C16.186-1.77,2.904,0.66,1.029,3.757S0.183,23.206,1.396,24.461
			c2.526,2.615,14.828,0.903,18.667-3.546c0.258-0.3,0.481-0.602,0.679-0.901c0.782,1.288,2.069,2.446,4.188,2.9
			C30.723,24.154,32.227,18.382,31.975,17.625z M5.085,11.469C4.663,11.157,4.998,6.013,6.057,5.61
			c1.06-0.401,4.432-1.143,5.148,0.519s-0.172,3.824-1.356,4.542C8.823,11.291,5.506,11.779,5.085,11.469z M13.217,20.388
			c-1.518,0.983-4.845,1.348-5.932,1.029c-1.088-0.318-1.822-5.422-1.427-5.766c0.395-0.343,5.248-0.953,6.38-0.562
			C14.603,15.904,15.401,18.971,13.217,20.388z M23.414,12.184c-0.607-1.145,0.768-3.208,1.887-3.511
			c2.865-0.773,3.35,1.968,3.061,2.936C28.093,12.5,23.764,12.841,23.414,12.184z"/>
		<path d="M30.375,3.799c0.285-0.489,0.693-3.098,0-3.668c-0.691-0.57-9.266,0.887-9.632,1.172
			c-0.367,0.285-0.599,2.496,0.055,3.107C21.449,5.021,30.09,4.288,30.375,3.799z"/>
	</g>
</g>
</svg>
