<?xml version="1.0" encoding="utf-8"?>
<!-- Generator: Adobe Illustrator 16.0.4, SVG Export Plug-In . SVG Version: 6.00 Build 0)  -->
<!DOCTYPE svg PUBLIC "-//W3C//DTD SVG 1.1//EN" "http://www.w3.org/Graphics/SVG/1.1/DTD/svg11.dtd">
<svg version="1.1" fill="rgb(0, 14, 156)" xmlns="http://www.w3.org/2000/svg" xmlns:xlink="http://www.w3.org/1999/xlink" x="0px" y="0px"
	 width="32px" height="31.969px" viewBox="0 0 32 31.969" enable-background="new 0 0 32 31.969" xml:space="preserve">
<g id="Fondo_1_" display="none">
	<rect id="Fondo" x="-837.95" y="-1275.539" display="inline" fill="#FB6E92" width="1000" height="2438.352"/>
</g>
<g id="Guias">
</g>
<g id="Icons">
	<g display="none" opacity="0.2">
		<path display="inline" fill="#FFFFFF" d="M-427.94,200.98c-11.282,3.637-35.885,28.281-38.51,36.153
			c-2.621,7.851,12.065,36.154,18.865,37.705c6.793,1.591,56.584-20.437,58.154-28.284
			C-387.86,238.686-416.658,197.303-427.94,200.98z"/>
		<path display="inline" fill="#FFFFFF" d="M-324.972,120.823c-10.498,0.493-88.546,59.726-88.034,69.146
			c0.519,9.424,29.36,46.629,37.729,47.951c8.363,1.301,70.221-78.341,72.307-88.814
			C-300.884,138.609-314.5,120.284-324.972,120.823z"/>
		<path display="inline" fill="#FFFFFF" d="M-10.037-165.621c-10.932-15.145-35.498-16.26-56.115-3.016
			c-7.87-4.009-17.023-7.233-27.767-9.215c0,0-391.393,317.515-477.854,378.833c0,0-3.302,7.004-8.776,18.408
			c98.109,68.715,86.957,120.567,86.957,120.567c-27.149-66.916-95.885-102.037-95.905-102.037
			c-24.626,50.699-68.835,139.308-92.308,172.114c0,0-0.04,18.015,22.025,29.479c0,0,150.072-101.023,193.329-109.639
			c0,0,23.883-23.283,60.697-58.922c-20.121,10.308-43.197,20.062-52.827,20.659c-16.772,1.053-36.153-39.438-34.583-53.776
			c1.57-14.338,153.521-139.574,176.038-137.983c22.54,1.569,29.875,22.518,30.414,37.725c0.205,6.548-13.655,26.546-30.414,48.012
			C-203.866,76.92-60.942-58.254-20.04-88.252c0,0,0.414-10.661-3.14-24.688C-5.495-128.289,0.518-150.953-10.037-165.621z
			 M-625.441,416.976c0,0-2.542-32.478-33.638-43.817C-659.079,373.157-606.851,349.521-625.441,416.976z"/>
	</g>
	<path display="none" opacity="0.5" fill="#71C8EA" enable-background="new    " d="M943.105,150.639l3.332,3.334
		c0,0,17-13.666,32.5-11.834c0,0,21-27.998,50-37.832c0,0,17.668-9.834,7.168-30.668c-10.5-20.832-24.326-12.937-31.168-8
		c-9.582,6.916-39.77,40.322-51.5,56.334C953.437,121.973,956.937,138.307,943.105,150.639z"/>
	<g>
		<path d="M23.71,15.211c0.181-0.604-0.121-2.313-1.908-1.831c-0.699,0.188-1.557,1.476-1.178,2.19
			C20.841,15.979,23.542,15.768,23.71,15.211z"/>
		<path d="M12.162,14.626c0.739-0.448,1.293-1.798,0.847-2.834c-0.447-1.035-2.551-0.573-3.212-0.322
			c-0.66,0.251-0.869,3.46-0.606,3.654C9.453,15.317,11.522,15.013,12.162,14.626z"/>
		<path d="M13.653,17.382c-0.706-0.243-3.733,0.138-3.98,0.353c-0.246,0.214,0.212,3.396,0.891,3.597
			c0.678,0.198,2.753-0.029,3.7-0.644C15.626,19.805,15.128,17.891,13.653,17.382z"/>
		<path d="M29.397,1.074C26.981-1.227,2.938,0.516,0.983,3.029c-1.955,2.513-0.691,26.345,1.15,27.725
			c1.84,1.381,26.92,1.842,28.875,0C32.962,28.913,31.813,3.375,29.397,1.074z M18.958,8.782c0.229-0.178,5.576-1.087,6.008-0.731
			c0.434,0.356,0.179,1.983,0,2.289c-0.178,0.305-5.567,0.762-5.975,0.381C18.585,10.34,18.729,8.96,18.958,8.782z M21.571,22.266
			c-1.321-0.283-2.126-1.007-2.612-1.811c-0.123,0.188-0.264,0.376-0.424,0.562C16.14,23.792,8.467,24.861,6.89,23.229
			c-0.757-0.781-1.398-10.982-0.229-12.915c1.17-1.933,9.455-3.448,10.525-0.56c1.094,2.948-2.059,5.093-2.059,5.093
			s2.009-0.243,3.178,0.653c0.036,0.028,0.073,0.059,0.11,0.09c0.246-1.091,0.783-2.426,1.963-3.274
			c1.959-1.407,3.863-0.939,4.804,0.359c0.938,1.297,0.588,3.69,0.012,4.118c-0.946,0.704-3.444,0.236-4.071,0.915
			c-0.33,0.356,0.084,2.071,1.523,2.088c1.033,0.013,0.82-1.409,1.333-1.589c0.353-0.123,1.78,0.143,1.983,0.756
			C26.121,19.438,25.183,23.037,21.571,22.266z"/>
	</g>
</g>
</svg>
