<?xml version="1.0" encoding="utf-8"?>
<!-- Generator: Adobe Illustrator 16.0.4, SVG Export Plug-In . SVG Version: 6.00 Build 0)  -->
<!DOCTYPE svg PUBLIC "-//W3C//DTD SVG 1.1//EN" "http://www.w3.org/Graphics/SVG/1.1/DTD/svg11.dtd">
<svg version="1.1" fill="rgb(0, 14, 156)" xmlns="http://www.w3.org/2000/svg" xmlns:xlink="http://www.w3.org/1999/xlink" x="0px" y="0px"
	 width="32px" height="32px" viewBox="0 0 32 32" enable-background="new 0 0 32 32" xml:space="preserve">
<g id="Fondo_1_" display="none">
	<rect id="Fondo" x="-785.951" y="-1275.522" display="inline" fill="#FB6E92" width="1000" height="2438.351"/>
</g>
<g id="Guias">
</g>
<g id="Icons">
	<g display="none" opacity="0.2">
		<path display="inline" fill="#FFFFFF" d="M-375.941,200.998c-11.282,3.636-35.885,28.281-38.51,36.152
			c-2.621,7.852,12.065,36.154,18.865,37.705c6.793,1.59,56.584-20.436,58.154-28.283
			C-335.861,238.701-364.659,197.318-375.941,200.998z"/>
		<path display="inline" fill="#FFFFFF" d="M-272.973,120.84c-10.498,0.494-88.546,59.727-88.034,69.146
			c0.519,9.423,29.36,46.629,37.729,47.951c8.363,1.301,70.221-78.342,72.307-88.814
			C-248.885,138.627-262.501,120.301-272.973,120.84z"/>
		<path display="inline" fill="#FFFFFF" d="M41.962-165.604c-10.933-15.145-35.498-16.26-56.115-3.016
			c-7.87-4.009-17.023-7.233-27.767-9.215c0,0-391.393,317.515-477.854,378.833c0,0-3.302,7.003-8.776,18.406
			c98.109,68.716,86.957,120.568,86.957,120.568c-27.149-66.916-95.885-102.037-95.905-102.037
			c-24.626,50.699-68.835,139.308-92.308,172.114c0,0-0.04,18.016,22.025,29.48c0,0,150.072-101.024,193.329-109.64
			c0,0,23.883-23.283,60.697-58.922c-20.121,10.309-43.197,20.062-52.827,20.659c-16.772,1.054-36.153-39.437-34.583-53.776
			c1.57-14.338,153.521-139.574,176.038-137.983c22.54,1.569,29.875,22.518,30.414,37.725c0.205,6.548-13.655,26.546-30.414,48.013
			C-151.867,76.938-8.943-58.237,31.959-88.235c0,0,0.414-10.661-3.141-24.688C46.504-128.272,52.518-150.937,41.962-165.604z
			 M-573.442,416.992c0,0-2.542-32.479-33.638-43.818C-607.08,373.174-554.852,349.539-573.442,416.992z"/>
	</g>
	<path display="none" opacity="0.5" fill="#71C8EA" enable-background="new    " d="M995.104,150.654l3.334,3.334
		c0,0,17-13.666,32.5-11.834c0,0,21-27.998,50-37.832c0,0,17.666-9.834,7.166-30.668c-10.5-20.832-24.326-12.937-31.166-8
		c-9.584,6.916-39.771,40.322-51.5,56.334C1005.438,121.988,1008.938,138.322,995.104,150.654z"/>
	<g>
		<path d="M23.711,15.228c0.182-0.604-0.121-2.313-1.908-1.831c-0.699,0.188-1.557,1.476-1.178,2.19
			C20.843,15.996,23.544,15.784,23.711,15.228z"/>
		<path d="M13.654,17.398c-0.706-0.244-3.733,0.138-3.98,0.352c-0.246,0.214,0.212,3.396,0.891,3.598
			c0.678,0.197,2.753-0.029,3.7-0.644C15.627,19.82,15.129,17.907,13.654,17.398z"/>
		<path d="M12.163,14.643c0.739-0.448,1.293-1.798,0.847-2.834c-0.447-1.035-2.551-0.573-3.212-0.322
			c-0.66,0.251-0.869,3.46-0.606,3.654C9.454,15.334,11.523,15.029,12.163,14.643z"/>
		<path d="M16,0C7.164,0,0,7.164,0,16c0,8.837,7.164,16,16,16s16-7.163,16-16C32,7.164,24.836,0,16,0z M18.959,8.799
			c0.229-0.178,5.577-1.087,6.009-0.731c0.433,0.356,0.179,1.983,0,2.289c-0.178,0.305-5.567,0.762-5.975,0.381
			C18.586,10.357,18.73,8.977,18.959,8.799z M21.572,22.281c-1.322-0.283-2.127-1.006-2.613-1.811
			c-0.123,0.188-0.264,0.377-0.424,0.562c-2.394,2.775-10.067,3.844-11.644,2.212C6.134,22.463,5.493,12.262,6.662,10.33
			c1.17-1.933,9.455-3.448,10.525-0.56c1.094,2.948-2.06,5.093-2.06,5.093s2.009-0.243,3.179,0.653
			c0.036,0.028,0.073,0.059,0.11,0.09c0.245-1.091,0.782-2.426,1.963-3.274c1.958-1.407,3.863-0.939,4.804,0.359
			c0.938,1.297,0.588,3.69,0.012,4.118c-0.946,0.705-3.444,0.236-4.071,0.916c-0.331,0.356,0.084,2.07,1.522,2.088
			c1.033,0.012,0.82-1.41,1.334-1.59c0.352-0.123,1.779,0.143,1.983,0.756C26.122,19.453,25.184,23.055,21.572,22.281z"/>
	</g>
</g>
</svg>
