<?xml version="1.0" encoding="utf-8"?>
<!-- Generator: Adobe Illustrator 16.0.4, SVG Export Plug-In . SVG Version: 6.00 Build 0)  -->
<!DOCTYPE svg PUBLIC "-//W3C//DTD SVG 1.1//EN" "http://www.w3.org/Graphics/SVG/1.1/DTD/svg11.dtd">
<svg version="1.1" fill="rgb(0, 14, 156)" xmlns="http://www.w3.org/2000/svg" xmlns:xlink="http://www.w3.org/1999/xlink" x="0px" y="0px"
	 width="27.393px" height="32px" viewBox="0 0 27.393 32" enable-background="new 0 0 27.393 32" xml:space="preserve">
<g id="Fondo_1_" display="none">
	<rect id="Fondo" x="-216.27" y="-1275.687" display="inline" fill="#FB6E92" width="1000.001" height="2438.351"/>
</g>
<g id="Guias">
</g>
<g id="Icons">
	<g display="none" opacity="0.2">
		<path display="inline" fill="#FFFFFF" d="M193.739,200.834c-11.281,3.637-35.885,28.281-38.51,36.152
			c-2.621,7.852,12.065,36.154,18.865,37.705c6.793,1.591,56.584-20.436,58.154-28.283
			C233.819,238.537,205.021,197.154,193.739,200.834z"/>
		<path display="inline" fill="#FFFFFF" d="M296.708,120.676c-10.498,0.494-88.546,59.727-88.034,69.146
			c0.519,9.423,29.36,46.629,37.729,47.951c8.363,1.301,70.222-78.342,72.308-88.814
			C320.796,138.463,307.18,120.137,296.708,120.676z"/>
		<path display="inline" fill="#FFFFFF" d="M611.643-165.769c-10.932-15.145-35.498-16.26-56.114-3.016
			c-7.87-4.009-17.023-7.233-27.768-9.215c0,0-391.393,317.516-477.854,378.833c0,0-3.303,7.003-8.776,18.407
			c98.109,68.715,86.957,120.568,86.957,120.568c-27.149-66.916-95.885-102.037-95.905-102.037
			C7.557,288.473-36.652,377.079-60.125,409.887c0,0-0.04,18.016,22.024,29.48c0,0,150.072-101.024,193.329-109.639
			c0,0,23.883-23.283,60.697-58.922c-20.121,10.308-43.197,20.062-52.827,20.658c-16.771,1.053-36.153-39.438-34.583-53.775
			S282.037,98.115,304.554,99.705c22.54,1.57,29.875,22.518,30.414,37.725c0.205,6.549-13.655,26.547-30.414,48.012
			C417.813,76.771,560.738-58.401,601.64-88.399c0,0,0.414-10.661-3.14-24.688C616.185-128.437,622.198-151.101,611.643-165.769z
			 M-3.762,416.828c0,0-2.542-32.479-33.638-43.818C-37.399,373.01,14.829,349.375-3.762,416.828z"/>
	</g>
	<path display="none" opacity="0.5" fill="#71C8EA" enable-background="new    " d="M1564.785,150.491l3.333,3.333
		c0,0,17-13.666,32.5-11.833c0,0,21-27.999,50-37.833c0,0,17.667-9.834,7.167-30.667s-24.327-12.937-31.167-8
		c-9.583,6.916-39.771,40.321-51.5,56.333C1575.118,121.824,1578.618,138.158,1564.785,150.491z"/>
	<path d="M17.856,25.193c7.293,1.824,9.03-9.137,9.03-9.137s3.169-12.352-6.338-15.261C10.135-2.39,4.63,4.587,1.504,11.187
		c-3.69,7.792-0.258,17.297,6.657,19.564c7.234,2.373,14.817,0.638,14.817,0.638l-0.134-3.5c-8.896,1.185-11.233,0.375-14.048-0.609
		c-2.646-0.926-8.104-5.617-4.11-15.107c3.995-9.492,10.217-9.813,14.56-8.424c4.341,1.39,5.903,4.429,4.602,11.624
		c-1.302,7.194-4.515,5.741-4.515,5.741c-1.516-0.605-0.476-4.557,0.66-7.759c0.545-1.256,1.106-2.657,1.684-4.223
		c0,0-8.596-5.991-12.894,1.649c0,0-6.903,12.025,2.214,13.111c0,0,2.431,0.391,4.407-2.488
		C15.233,23.239,15.842,24.689,17.856,25.193z M11.041,20.419c0,0-3.256-0.999-0.607-7.163c2.648-6.165,7.033-2.432,7.033-2.432
		s1.085,0.348-0.999,4.906C13.768,21.636,11.041,20.419,11.041,20.419z"/>
</g>
</svg>
