<?xml version="1.0" encoding="utf-8"?>
<!-- Generator: Adobe Illustrator 16.0.4, SVG Export Plug-In . SVG Version: 6.00 Build 0)  -->
<!DOCTYPE svg PUBLIC "-//W3C//DTD SVG 1.1//EN" "http://www.w3.org/Graphics/SVG/1.1/DTD/svg11.dtd">
<svg version="1.1" fill="rgb(0, 14, 156)" xmlns="http://www.w3.org/2000/svg" xmlns:xlink="http://www.w3.org/1999/xlink" x="0px" y="0px"
	 width="29.697px" height="32px" viewBox="0 0 29.697 32" enable-background="new 0 0 29.697 32" xml:space="preserve">
<g id="Fondo_1_" display="none">
	<rect id="Fondo" x="-267.271" y="-1275.519" display="inline" fill="#FB6E92" width="999.999" height="2438.351"/>
</g>
<g id="Guias">
</g>
<g id="Icons">
	<g display="none" opacity="0.2">
		<path display="inline" fill="#FFFFFF" d="M142.738,201.002c-11.282,3.637-35.885,28.281-38.51,36.152
			c-2.621,7.852,12.064,36.154,18.864,37.705c6.794,1.591,56.584-20.436,58.154-28.283
			C182.818,238.705,154.021,197.323,142.738,201.002z"/>
		<path display="inline" fill="#FFFFFF" d="M245.707,120.844c-10.498,0.494-88.546,59.727-88.034,69.146
			c0.52,9.423,29.36,46.629,37.729,47.951c8.363,1.301,70.221-78.342,72.307-88.814
			C269.795,138.631,256.179,120.305,245.707,120.844z"/>
		<path display="inline" fill="#FFFFFF" d="M560.641-165.601c-10.932-15.145-35.497-16.26-56.114-3.016
			c-7.87-4.009-17.023-7.233-27.768-9.215c0,0-391.393,317.516-477.854,378.833c0,0-3.302,7.003-8.776,18.407
			c98.109,68.715,86.957,120.568,86.957,120.568c-27.148-66.914-95.885-102.037-95.904-102.037
			c-24.626,50.699-68.835,139.308-92.309,172.114c0,0-0.04,18.016,22.025,29.48c0,0,150.072-101.024,193.329-109.64
			c0,0,23.883-23.283,60.696-58.922c-20.12,10.309-43.196,20.062-52.826,20.659c-16.772,1.054-36.153-39.437-34.583-53.776
			c1.569-14.338,153.521-139.573,176.037-137.983c22.54,1.569,29.875,22.519,30.414,37.726c0.205,6.547-13.654,26.545-30.414,48.012
			c113.26-108.67,256.184-243.842,297.086-273.84c0,0,0.414-10.661-3.14-24.688C565.183-128.269,571.196-150.933,560.641-165.601z
			 M-54.763,416.996c0,0-2.542-32.479-33.638-43.818C-88.4,373.178-36.172,349.543-54.763,416.996z"/>
	</g>
	<path display="none" opacity="0.5" fill="#71C8EA" enable-background="new    " d="M1513.784,150.659l3.333,3.333
		c0,0,17-13.666,32.5-11.833c0,0,21-27.999,50-37.833c0,0,17.667-9.834,7.167-30.667s-24.327-12.937-31.167-8
		c-9.583,6.916-39.771,40.321-51.5,56.333C1524.117,121.992,1527.617,138.326,1513.784,150.659z"/>
	<path d="M28.109,2.101C25.551-3.3,2.828,2.963,0.585,6.878C-0.903,9.477,0.643,29.093,3.01,30.986
		c2.368,1.895,21.12,1.041,24.057-1.799C30.003,26.346,30.666,7.498,28.109,2.101z M10.503,25.339
		c-0.441,2.231-2.147,3.772-3.811,3.445c-1.663-0.33-2.652-2.407-2.209-4.64c0.441-2.231,2.148-3.773,3.811-3.445
		C9.958,21.029,10.946,23.105,10.503,25.339z M10.503,12.836c-0.441,2.232-2.147,3.773-3.811,3.445
		c-1.663-0.329-2.652-2.405-2.209-4.638c0.441-2.232,2.148-3.775,3.811-3.445C9.958,8.527,10.946,10.604,10.503,12.836z
		 M17.702,24.042c-0.442,2.231-2.148,3.774-3.811,3.444c-1.663-0.328-2.651-2.405-2.209-4.639c0.441-2.23,2.148-3.772,3.811-3.443
		C17.155,19.734,18.145,21.812,17.702,24.042z M17.702,11.54c-0.442,2.232-2.148,3.774-3.811,3.445
		c-1.663-0.33-2.651-2.406-2.209-4.638c0.441-2.232,2.148-3.775,3.811-3.445C17.155,7.231,18.145,9.309,17.702,11.54z
		 M24.995,22.688c-0.443,2.231-2.148,3.772-3.811,3.443c-1.663-0.329-2.651-2.404-2.209-4.638c0.442-2.231,2.148-3.772,3.811-3.445
		C24.448,18.377,25.438,20.454,24.995,22.688z M24.995,10.185c-0.443,2.232-2.148,3.773-3.811,3.445
		c-1.663-0.33-2.651-2.407-2.209-4.639c0.442-2.232,2.148-3.774,3.811-3.445C24.448,5.876,25.438,7.952,24.995,10.185z"/>
</g>
</svg>
