<?xml version="1.0" encoding="utf-8"?>
<!-- Generator: Adobe Illustrator 16.0.4, SVG Export Plug-In . SVG Version: 6.00 Build 0)  -->
<!DOCTYPE svg PUBLIC "-//W3C//DTD SVG 1.1//EN" "http://www.w3.org/Graphics/SVG/1.1/DTD/svg11.dtd">
<svg version="1.1" fill="rgb(0, 14, 156)" xmlns="http://www.w3.org/2000/svg" xmlns:xlink="http://www.w3.org/1999/xlink" x="0px" y="0px"
	 width="32px" height="31.982px" viewBox="0 0 32 31.982" enable-background="new 0 0 32 31.982" xml:space="preserve">
<g id="Fondo_1_" display="none">
	<rect id="Fondo" x="-317.966" y="-1275.527" display="inline" fill="#FB6E92" width="1000" height="2438.351"/>
</g>
<g id="Guias">
</g>
<g id="Icons">
	<g display="none" opacity="0.2">
		<path display="inline" fill="#FFFFFF" d="M92.043,200.993c-11.281,3.636-35.885,28.281-38.51,36.153
			c-2.621,7.851,12.064,36.153,18.865,37.705c6.793,1.59,56.584-20.437,58.153-28.284
			C132.124,238.696,103.326,197.314,92.043,200.993z"/>
		<path display="inline" fill="#FFFFFF" d="M195.012,120.835c-10.498,0.494-88.546,59.727-88.033,69.146
			c0.519,9.423,29.359,46.629,37.729,47.951c8.363,1.301,70.221-78.342,72.307-88.814
			C219.1,138.622,205.484,120.296,195.012,120.835z"/>
		<path display="inline" fill="#FFFFFF" d="M509.947-165.609c-10.933-15.146-35.498-16.261-56.115-3.017
			c-7.87-4.009-17.023-7.232-27.767-9.215c0,0-391.394,317.515-477.854,378.833c0,0-3.302,7.003-8.776,18.407
			c98.109,68.715,86.958,120.567,86.958,120.567c-27.149-66.916-95.886-102.036-95.906-102.036
			c-24.626,50.698-68.835,139.307-92.308,172.113c0,0-0.04,18.015,22.025,29.48c0,0,150.072-101.024,193.329-109.639
			c0,0,23.883-23.283,60.697-58.923c-20.121,10.309-43.197,20.062-52.828,20.659c-16.771,1.053-36.152-39.437-34.582-53.775
			S180.341,98.273,202.857,99.863c22.541,1.57,29.875,22.518,30.414,37.725c0.205,6.549-13.654,26.546-30.414,48.013
			C316.118,76.932,459.042-58.242,499.944-88.24c0,0,0.414-10.66-3.141-24.688C514.489-128.277,520.501-150.941,509.947-165.609z
			 M-105.458,416.987c0,0-2.542-32.479-33.638-43.818C-139.095,373.169-86.867,349.534-105.458,416.987z"/>
	</g>
	<path display="none" opacity="0.5" fill="#71C8EA" enable-background="new    " d="M1463.089,150.65l3.333,3.333
		c0,0,17-13.666,32.5-11.833c0,0,21-27.999,50-37.833c0,0,17.667-9.834,7.167-30.667s-24.327-12.938-31.167-8
		c-9.583,6.916-39.771,40.322-51.5,56.333C1473.422,121.983,1476.922,138.317,1463.089,150.65z"/>
	<path d="M31.018,14.104L20.48,1.772c-3.722-3.912-7.786-0.216-8.406,0.396l2.974,3.391c1.558-0.365,3.179,0.463,3.75,2.002
		c0.275,0.737,0.247,1.507,0.003,2.194l3.703,4.142c1.618-0.492,3.357,0.342,3.955,1.949c0.619,1.668-0.23,3.521-1.898,4.141
		c-1.67,0.62-3.523-0.23-4.143-1.898c-0.271-0.728-0.246-1.484-0.012-2.166l-3.752-4.038l-0.321,8.818
		c0.625,0.361,1.138,0.922,1.409,1.651c0.619,1.668-0.231,3.522-1.898,4.142c-1.668,0.62-3.522-0.23-4.141-1.897
		c-0.599-1.612,0.182-3.389,1.74-4.065l0.541-9.184c-0.54-0.363-0.979-0.889-1.224-1.545c-0.266-0.717-0.248-1.462-0.024-2.135
		L9.759,4.462c-2.177,2.15-5.497,5.411-7.853,7.642c-3.793,3.589-0.751,6.494-0.751,6.494l9.392,10.907
		c3.808,4.747,8.192,1.212,8.192,1.212s3.028-2.316,9.634-7.828C34.493,17.78,31.018,14.104,31.018,14.104z"/>
</g>
</svg>
