<?xml version="1.0" encoding="utf-8"?>
<!-- Generator: Adobe Illustrator 16.0.4, SVG Export Plug-In . SVG Version: 6.00 Build 0)  -->
<!DOCTYPE svg PUBLIC "-//W3C//DTD SVG 1.1//EN" "http://www.w3.org/Graphics/SVG/1.1/DTD/svg11.dtd">
<svg version="1.1" fill="rgb(0, 14, 156)" xmlns="http://www.w3.org/2000/svg" xmlns:xlink="http://www.w3.org/1999/xlink" x="0px" y="0px"
	 width="32px" height="25.133px" viewBox="0 0 32 25.133" enable-background="new 0 0 32 25.133" xml:space="preserve">
<g id="Fondo_1_" display="none">
	<rect id="Fondo" x="-369.966" y="-1278.956" display="inline" fill="#FB6E92" width="1000" height="2438.351"/>
</g>
<g id="Guias">
</g>
<g id="Icons">
	<g display="none" opacity="0.2">
		<path display="inline" fill="#FFFFFF" d="M40.043,197.564c-11.282,3.636-35.885,28.281-38.51,36.153
			c-2.621,7.851,12.065,36.154,18.865,37.705c6.793,1.59,56.584-20.437,58.153-28.284C80.124,235.268,51.326,193.886,40.043,197.564
			z"/>
		<path display="inline" fill="#FFFFFF" d="M143.012,117.407c-10.498,0.493-88.546,59.725-88.033,69.145
			c0.519,9.424,29.359,46.63,37.729,47.951c8.363,1.302,70.221-78.34,72.307-88.813C167.1,135.193,153.484,116.868,143.012,117.407z
			"/>
		<path display="inline" fill="#FFFFFF" d="M457.947-169.038c-10.933-15.145-35.498-16.26-56.115-3.016
			c-7.87-4.009-17.023-7.233-27.767-9.215c0,0-391.394,317.516-477.854,378.833c0,0-3.302,7.003-8.776,18.407
			c98.109,68.715,86.957,120.568,86.957,120.568c-27.149-66.916-95.885-102.037-95.905-102.037
			c-24.626,50.699-68.835,139.307-92.308,172.113c0,0-0.04,18.016,22.025,29.48c0,0,150.072-101.023,193.329-109.639
			c0,0,23.883-23.283,60.697-58.922c-20.121,10.307-43.197,20.062-52.828,20.658c-16.772,1.053-36.153-39.438-34.583-53.775
			c1.57-14.338,153.521-139.574,176.038-137.984c22.541,1.57,29.875,22.518,30.414,37.725c0.205,6.549-13.654,26.547-30.414,48.012
			C264.118,73.502,407.042-61.671,447.944-91.669c0,0,0.414-10.661-3.141-24.688C462.489-131.706,468.501-154.37,457.947-169.038z
			 M-157.458,413.559c0,0-2.542-32.479-33.638-43.818C-191.095,369.741-138.867,346.105-157.458,413.559z"/>
	</g>
	<path display="none" opacity="0.5" fill="#71C8EA" enable-background="new    " d="M1411.089,147.222l3.333,3.333
		c0,0,17-13.666,32.5-11.833c0,0,21-27.999,50-37.833c0,0,17.667-9.834,7.167-30.667s-24.327-12.937-31.167-8
		c-9.583,6.916-39.771,40.321-51.5,56.333C1421.422,118.555,1424.922,134.889,1411.089,147.222z"/>
	<g>
		<path d="M31.991,4.402L0.132,5.539c0.208,5.669,0.66,17.486,0.832,18.336c0.227,1.119,1.198,1.258,1.198,1.258
			s25.749-0.096,28.887-0.03c0.973,0.021,0.926-1.438,0.926-1.438S32.018,10.395,31.991,4.402z M29.684,10.283l0.037,0.819
			l-14.507,0.089l-0.057-0.811L29.684,10.283z M29.654,11.738l0.037,0.819l-14.505,0.088l-0.057-0.811L29.654,11.738z
			 M29.559,13.196l0.037,0.818l-14.507,0.089l-0.057-0.812L29.559,13.196z M11.891,22.515l-8.26,0.041l-0.132-5.181l8.444-0.201
			L11.891,22.515z M3.361,14.002L3.024,7.76l9.542-0.52l0.052,6.778L3.361,14.002z M13.318,22.479l0.239-5.395l7.964-0.031v5.343
			L13.318,22.479z M30.307,22.534l-7.604-0.035l0.14-5.285l7.565-0.142L30.307,22.534z"/>
		<path d="M0.109,4.897L31.988,3.88c-0.008-1.156-0.018-1.97-0.031-2.25C31.874-0.03,30.423,0,30.423,0S2.262,0.837,1.009,0.895
			c-1.254,0.058-0.984,1.65-0.984,1.65S0.056,3.456,0.109,4.897z M6.966,1.886C7.309,1.312,7.958,1.067,8.415,1.34
			S8.966,2.3,8.624,2.875C8.281,3.448,7.631,3.693,7.174,3.42S6.623,2.46,6.966,1.886z M4.276,1.893
			c0.343-0.574,0.991-0.818,1.449-0.545C6.182,1.62,6.276,2.307,5.934,2.882C5.591,3.455,4.941,3.7,4.484,3.427
			C4.027,3.154,3.934,2.467,4.276,1.893z M1.547,2.078C1.89,1.504,2.539,1.26,2.997,1.532c0.457,0.272,0.551,0.96,0.208,1.534
			C2.862,3.641,2.213,3.885,1.756,3.612C1.298,3.339,1.205,2.652,1.547,2.078z"/>
	</g>
</g>
</svg>
