<?xml version="1.0" encoding="utf-8"?>
<!-- Generator: Adobe Illustrator 16.0.4, SVG Export Plug-In . SVG Version: 6.00 Build 0)  -->
<!DOCTYPE svg PUBLIC "-//W3C//DTD SVG 1.1//EN" "http://www.w3.org/Graphics/SVG/1.1/DTD/svg11.dtd">
<svg version="1.1" fill="rgb(0, 14, 156)" xmlns="http://www.w3.org/2000/svg" xmlns:xlink="http://www.w3.org/1999/xlink" x="0px" y="0px"
	 width="23.975px" height="32px" viewBox="0 0 23.975 32" enable-background="new 0 0 23.975 32" xml:space="preserve">
<g id="Fondo_1_" display="none">
	<rect id="Fondo" x="-425.588" y="-1275.519" display="inline" fill="#FB6E92" width="1000" height="2438.351"/>
</g>
<g id="Guias">
</g>
<g id="Icons">
	<g display="none" opacity="0.2">
		<path display="inline" fill="#FFFFFF" d="M-15.579,201.002c-11.281,3.637-35.885,28.281-38.51,36.152
			c-2.621,7.852,12.065,36.154,18.865,37.705c6.793,1.591,56.584-20.436,58.154-28.283C24.501,238.705-4.297,197.323-15.579,201.002
			z"/>
		<path display="inline" fill="#FFFFFF" d="M87.39,120.844C76.892,121.338-1.156,180.57-0.644,189.99
			c0.519,9.423,29.359,46.629,37.729,47.951c8.363,1.301,70.222-78.342,72.308-88.814C111.478,138.631,97.861,120.305,87.39,120.844
			z"/>
		<path display="inline" fill="#FFFFFF" d="M402.324-165.601c-10.933-15.145-35.498-16.26-56.115-3.016
			c-7.87-4.009-17.023-7.233-27.767-9.215c0,0-391.394,317.516-477.854,378.833c0,0-3.302,7.003-8.775,18.407
			c98.108,68.715,86.957,120.568,86.957,120.568c-27.149-66.916-95.886-102.037-95.905-102.037
			c-24.626,50.699-68.835,139.307-92.308,172.113c0,0-0.04,18.016,22.024,29.48c0,0,150.072-101.024,193.329-109.639
			c0,0,23.883-23.283,60.697-58.922c-20.121,10.308-43.197,20.062-52.827,20.658c-16.772,1.053-36.153-39.438-34.583-53.775
			C-79.231,223.52,72.72,98.283,95.237,99.873c22.54,1.57,29.875,22.518,30.414,37.725c0.205,6.549-13.655,26.547-30.414,48.012
			C208.495,76.939,351.419-58.233,392.321-88.231c0,0,0.414-10.661-3.141-24.688C406.866-128.269,412.879-150.933,402.324-165.601z
			 M-213.08,416.996c0,0-2.542-32.479-33.638-43.818C-246.718,373.178-194.49,349.543-213.08,416.996z"/>
	</g>
	<path display="none" opacity="0.5" fill="#71C8EA" enable-background="new    " d="M1355.467,150.659l3.333,3.333
		c0,0,17-13.666,32.5-11.833c0,0,21-27.999,50-37.833c0,0,17.667-9.834,7.167-30.667s-24.327-12.937-31.167-8
		c-9.583,6.916-39.771,40.321-51.5,56.333C1365.8,121.992,1369.3,138.326,1355.467,150.659z"/>
	<g>
		<polygon points="23.621,0 2.004,0.262 2.021,1.752 22.62,1.503 22.954,29.247 23.974,29.234 		"/>
		<path d="M0,2.766L0.353,32l21.617-0.261L21.618,2.505L0,2.766z M1.634,5.007l17.865-0.14l0.055,6.943L1.688,11.951L1.634,5.007z
			 M1.924,14.509l17.781,0.149l-0.014,1.732L1.91,16.242L1.924,14.509z M2.154,18.456l17.782,0.142l-0.015,1.733l-17.78-0.144
			L2.154,18.456z M2.404,22.334l17.781,0.027l-0.002,1.731L2.401,24.066L2.404,22.334z M2.659,27.908l-0.001-1.732l17.782-0.014
			v1.732L2.659,27.908z"/>
		<path d="M7.083,6.973c0.254,0.007,0.576,0.09,0.963,0.252l0.297-0.737C7.981,6.308,7.569,6.212,7.109,6.2
			c-0.678-0.016-1.2,0.169-1.568,0.554C5.173,7.139,4.98,7.697,4.962,8.432C4.944,9.15,5.103,9.706,5.436,10.1
			s0.83,0.598,1.488,0.613c0.269,0.007,0.497-0.009,0.686-0.046c0.188-0.038,0.367-0.103,0.535-0.196l0.02-0.807
			C7.792,9.859,7.399,9.952,6.987,9.942C6.624,9.934,6.352,9.805,6.17,9.555c-0.182-0.251-0.267-0.621-0.254-1.11
			C5.94,7.445,6.329,6.954,7.083,6.973z"/>
		<path d="M11.664,8.567c-0.16-0.12-0.418-0.254-0.773-0.401c-0.425-0.177-0.699-0.313-0.824-0.411
			C9.94,7.657,9.879,7.54,9.883,7.403c0.008-0.278,0.255-0.411,0.743-0.399c0.32,0.008,0.713,0.115,1.18,0.32l0.315-0.689
			c-0.452-0.219-0.934-0.334-1.446-0.348c-0.518-0.012-0.929,0.081-1.234,0.28C9.134,6.766,8.977,7.052,8.968,7.425
			C8.96,7.735,9.042,7.989,9.215,8.188c0.174,0.199,0.509,0.402,1.004,0.607c0.256,0.106,0.453,0.201,0.597,0.283
			c0.143,0.082,0.244,0.161,0.306,0.236c0.062,0.075,0.09,0.167,0.087,0.277c-0.008,0.345-0.297,0.51-0.867,0.496
			C9.9,10.076,9.426,9.947,8.92,9.698L8.9,10.497c0.348,0.185,0.812,0.284,1.393,0.299c0.577,0.014,1.024-0.089,1.339-0.309
			c0.315-0.219,0.479-0.542,0.489-0.968c0.005-0.209-0.03-0.391-0.104-0.544C11.941,8.822,11.824,8.687,11.664,8.567z"/>
		<path d="M15.591,8.663c-0.159-0.119-0.418-0.253-0.773-0.401c-0.424-0.177-0.699-0.312-0.824-0.411
			c-0.125-0.097-0.186-0.214-0.183-0.352c0.007-0.278,0.254-0.411,0.743-0.399c0.32,0.008,0.713,0.115,1.179,0.32l0.316-0.689
			c-0.452-0.219-0.934-0.334-1.445-0.347c-0.519-0.013-0.93,0.08-1.234,0.279c-0.306,0.198-0.463,0.485-0.473,0.857
			c-0.007,0.311,0.075,0.564,0.248,0.764c0.172,0.198,0.507,0.401,1.004,0.607c0.255,0.106,0.454,0.2,0.596,0.282
			s0.245,0.161,0.306,0.236c0.062,0.075,0.092,0.168,0.089,0.278c-0.009,0.344-0.299,0.509-0.867,0.495
			c-0.442-0.011-0.915-0.141-1.422-0.39l-0.021,0.799c0.348,0.186,0.812,0.284,1.394,0.299c0.577,0.015,1.023-0.089,1.339-0.309
			c0.314-0.219,0.479-0.542,0.488-0.968c0.006-0.209-0.029-0.391-0.104-0.544C15.869,8.918,15.751,8.783,15.591,8.663z"/>
	</g>
</g>
</svg>
