<?xml version="1.0" encoding="utf-8"?>
<!-- Generator: Adobe Illustrator 16.0.4, SVG Export Plug-In . SVG Version: 6.00 Build 0)  -->
<!DOCTYPE svg PUBLIC "-//W3C//DTD SVG 1.1//EN" "http://www.w3.org/Graphics/SVG/1.1/DTD/svg11.dtd">
<svg version="1.1" fill="rgb(0, 14, 156)" xmlns="http://www.w3.org/2000/svg" xmlns:xlink="http://www.w3.org/1999/xlink" x="0px" y="0px"
	 width="24.954px" height="32px" viewBox="0 0 24.954 32" enable-background="new 0 0 24.954 32" xml:space="preserve">
<g id="Icons">
	<path opacity="0.5" fill="#71C8EA" enable-background="new    " d="M1781.055,1425.693l3.333,3.333c0,0,17-13.666,32.5-11.833
		c0,0,21-27.999,50-37.833c0,0,17.667-9.834,7.167-30.667s-24.327-12.937-31.167-8c-9.583,6.916-39.771,40.322-51.5,56.333
		C1791.388,1397.026,1794.888,1413.36,1781.055,1425.693z"/>
	<path fill="#FFFFFF" d="M486.73,1307.035c0,0-13.833-3.123-7.65-18.611c0,0,1.403,1.721,1.213,2.55c0,0,1.101-3.911,3.474-6.247
		c2.04-2.008,4.112-7.648,2.2-9.688c0,0,9.466,2.041,10.518,12.238c0,0,1.211-3.251,3.697-3.568c0,0-0.767,1.785,0,4.463
		c0,0,7.841,13.769-5.673,18.422c0,0,4.049-4.717-4.541-12.812c0,0-2.025,4.334-3.236,5.863
		C486.73,1299.642,483.351,1303.53,486.73,1307.035z"/>
</g>
<path d="M9.241,32c0,0-13.833-3.123-7.65-18.613c0,0,1.403,1.721,1.211,2.55c0,0,1.101-3.911,3.474-6.247
	C8.316,7.682,10.389,2.04,8.477,0c0,0,9.465,2.04,10.518,12.239c0,0,1.211-3.251,3.697-3.57c0,0-0.766,1.785,0,4.463
	c0,0,7.84,13.768-5.674,18.422c0,0,4.049-4.717-4.541-12.812c0,0-2.025,4.334-3.236,5.863C9.241,24.605,5.862,28.494,9.241,32z"/>
</svg>
