<?xml version="1.0" encoding="utf-8"?>
<!-- Generator: Adobe Illustrator 16.0.4, SVG Export Plug-In . SVG Version: 6.00 Build 0)  -->
<!DOCTYPE svg PUBLIC "-//W3C//DTD SVG 1.1//EN" "http://www.w3.org/Graphics/SVG/1.1/DTD/svg11.dtd">
<svg version="1.1" fill="rgb(0, 14, 156)" xmlns="http://www.w3.org/2000/svg" xmlns:xlink="http://www.w3.org/1999/xlink" x="0px" y="0px"
	 width="32px" height="19.339px" viewBox="0 0 32 19.339" enable-background="new 0 0 32 19.339" xml:space="preserve">
<g id="Fondo_1_" display="none">
	<rect id="Fondo" x="-525.962" y="-1281.852" display="inline" fill="#FB6E92" width="1000" height="2438.352"/>
</g>
<g id="Guias">
</g>
<g id="Icons">
	<g display="none" opacity="0.2">
		<path display="inline" fill="#FFFFFF" d="M-115.953,194.669c-11.282,3.636-35.885,28.281-38.51,36.152
			c-2.621,7.852,12.065,36.154,18.865,37.705c6.793,1.59,56.584-20.436,58.154-28.283
			C-75.873,232.373-104.671,190.99-115.953,194.669z"/>
		<path display="inline" fill="#FFFFFF" d="M-12.984,114.511c-10.498,0.494-88.546,59.726-88.034,69.146
			c0.519,9.422,29.36,46.629,37.729,47.95c8.363,1.302,70.221-78.341,72.307-88.813C11.104,132.298-2.513,113.972-12.984,114.511z"
			/>
		<path display="inline" fill="#FFFFFF" d="M301.95-171.934c-10.933-15.145-35.498-16.26-56.115-3.016
			c-7.87-4.009-17.022-7.233-27.767-9.215c0,0-391.394,317.515-477.854,378.833c0,0-3.302,7.004-8.776,18.408
			c98.109,68.715,86.957,120.567,86.957,120.567c-27.149-66.916-95.885-102.037-95.905-102.037
			c-24.626,50.699-68.835,139.308-92.308,172.114c0,0-0.04,18.016,22.025,29.48c0,0,150.072-101.025,193.329-109.64
			c0,0,23.883-23.283,60.697-58.922c-20.121,10.308-43.197,20.062-52.827,20.659c-16.772,1.053-36.153-39.438-34.583-53.776
			c1.572-14.335,153.523-139.571,176.04-137.981c22.54,1.569,29.875,22.518,30.415,37.725c0.205,6.548-13.655,26.546-30.415,48.012
			C108.121,70.607,251.045-64.566,291.947-94.564c0,0,0.414-10.661-3.141-24.688C306.492-134.602,312.505-157.266,301.95-171.934z
			 M-313.454,410.664c0,0-2.542-32.479-33.638-43.818C-347.092,366.845-294.863,343.21-313.454,410.664z"/>
	</g>
	<path display="none" opacity="0.5" fill="#71C8EA" enable-background="new    " d="M1255.093,144.326l3.333,3.334
		c0,0,17-13.666,32.5-11.834c0,0,21-27.998,50-37.832c0,0,17.667-9.834,7.167-30.668c-10.5-20.832-24.327-12.937-31.167-8
		c-9.583,6.916-39.771,40.322-51.5,56.334C1265.426,115.66,1268.926,131.994,1255.093,144.326z"/>
	<path d="M0,7.881c0,0,4.587,7.175,4.705-0.94c0.118-8.116,9.293-8.487,10.821-1.186c0,0,1.147-5.755,5.926-5.755
		c4.073,0,5.287,6.894,5.287,6.894s1.639,7.457,5.255,2.752c0,0,0.471,7.881-6.939,9.527c-7.41,1.646-9.528-9.498-9.528-9.498
		s-1.999,8.556-8.233,8.556S0,10.007,0,7.881z"/>
</g>
</svg>
