<?xml version="1.0" encoding="utf-8"?>
<!-- Generator: Adobe Illustrator 16.0.4, SVG Export Plug-In . SVG Version: 6.00 Build 0)  -->
<!DOCTYPE svg PUBLIC "-//W3C//DTD SVG 1.1//EN" "http://www.w3.org/Graphics/SVG/1.1/DTD/svg11.dtd">
<svg version="1.1" fill="rgb(0, 14, 156)" xmlns="http://www.w3.org/2000/svg" xmlns:xlink="http://www.w3.org/1999/xlink" x="0px" y="0px"
	 width="32.016px" height="27.143px" viewBox="0 0 32.016 27.143" enable-background="new 0 0 32.016 27.143" xml:space="preserve">
<g id="Fondo_1_" display="none">
	<rect id="Fondo" x="-578.68" y="-1279.206" display="inline" fill="#FB6E92" width="1000.001" height="2438.351"/>
</g>
<g id="Guias">
</g>
<g id="Icons">
	<g display="none" opacity="0.2">
		<path display="inline" fill="#FFFFFF" d="M-168.671,197.314c-11.282,3.637-35.886,28.281-38.511,36.153
			c-2.62,7.851,12.065,36.154,18.865,37.705c6.793,1.59,56.584-20.437,58.154-28.284
			C-128.591,235.018-157.389,193.636-168.671,197.314z"/>
		<path display="inline" fill="#FFFFFF" d="M-65.702,117.156c-10.498,0.493-88.546,59.726-88.034,69.146
			c0.52,9.423,29.36,46.629,37.729,47.951c8.362,1.301,70.221-78.341,72.307-88.814C-41.614,134.943-55.23,116.617-65.702,117.156z"
			/>
		<path display="inline" fill="#FFFFFF" d="M249.232-169.288c-10.932-15.146-35.498-16.26-56.114-3.017
			c-7.87-4.009-17.023-7.232-27.768-9.215c0,0-391.393,317.516-477.854,378.833c0,0-3.303,7.003-8.776,18.407
			c98.109,68.715,86.957,120.568,86.957,120.568c-27.149-66.916-95.885-102.037-95.905-102.037
			c-24.626,50.699-68.835,139.307-92.308,172.114c0,0-0.04,18.015,22.025,29.479c0,0,150.071-101.023,193.328-109.639
			c0,0,23.884-23.283,60.697-58.922c-20.121,10.308-43.197,20.062-52.827,20.658c-16.771,1.054-36.152-39.437-34.583-53.775
			c1.57-14.338,153.521-139.574,176.038-137.984c22.54,1.57,29.875,22.519,30.414,37.726c0.205,6.548-13.655,26.546-30.414,48.012
			C55.403,73.253,198.327-61.921,239.229-91.919c0,0,0.414-10.661-3.14-24.688C253.774-131.956,259.787-154.62,249.232-169.288z
			 M-366.172,413.309c0,0-2.542-32.478-33.639-43.817C-399.81,369.49-347.581,345.855-366.172,413.309z"/>
	</g>
	<path display="none" opacity="0.5" fill="#71C8EA" enable-background="new    " d="M1202.375,146.972l3.333,3.333
		c0,0,17-13.666,32.5-11.833c0,0,21-27.999,50-37.833c0,0,17.667-9.834,7.167-30.667s-24.327-12.937-31.167-8
		c-9.583,6.916-39.771,40.322-51.5,56.333C1212.708,118.305,1216.208,134.639,1202.375,146.972z"/>
	<g>
		<path d="M15.784,18.521C16.156,18.7,31.656,14.595,32,14.054s-5.232-6.831-5.232-6.831l-13.934,3.94
			C12.834,11.163,15.412,18.343,15.784,18.521z"/>
		<g>
			<path d="M0,8.535c0,0.384,7.967,8.158,8.499,8.146s4.335-5.519,4.335-5.519L4.248,4.068C4.248,4.068,0,8.151,0,8.535z"/>
			<path d="M19.338,0.309l-1.213,6.395L17.295,0c0,0-11.996,3.064-12.005,3.461c-0.009,0.396,7.229,6.3,7.892,6.395
				c0.663,0.096,12.484-3.271,12.651-3.696C26,5.733,19.338,0.309,19.338,0.309z"/>
		</g>
		<path d="M12.542,13.804c0,0-3.114,4.5-3.75,4.542s-4.978-4.542-4.978-4.542s-0.122,4.838,0,5.242s7.978,7.925,9.02,8.092
			s14.428-4.086,14.656-4.324c0.228-0.237,0.78-6.509,0.78-6.509s-12.725,3.739-13.139,3.583S12.542,13.804,12.542,13.804z"/>
	</g>
</g>
</svg>
