<?xml version="1.0" encoding="utf-8"?>
<!-- Generator: Adobe Illustrator 16.0.4, SVG Export Plug-In . SVG Version: 6.00 Build 0)  -->
<!DOCTYPE svg PUBLIC "-//W3C//DTD SVG 1.1//EN" "http://www.w3.org/Graphics/SVG/1.1/DTD/svg11.dtd">
<svg version="1.1" fill="rgb(0, 14, 156)" xmlns="http://www.w3.org/2000/svg" xmlns:xlink="http://www.w3.org/1999/xlink" x="0px" y="0px"
	 width="32px" height="25.943px" viewBox="0 0 32 25.943" enable-background="new 0 0 32 25.943" xml:space="preserve">
<g id="Fondo_1_" display="none">
	<rect id="Fondo" x="-629.996" y="-1279.108" display="inline" fill="#FB6E92" width="1000" height="2438.352"/>
</g>
<g id="Guias">
</g>
<g id="Icons">
	<g display="none" opacity="0.2">
		<path display="inline" fill="#FFFFFF" d="M-219.986,197.412c-11.282,3.636-35.885,28.28-38.51,36.152
			c-2.621,7.852,12.065,36.154,18.865,37.705c6.793,1.59,56.584-20.436,58.154-28.284
			C-179.906,235.115-208.704,193.733-219.986,197.412z"/>
		<path display="inline" fill="#FFFFFF" d="M-117.018,117.254c-10.498,0.494-88.546,59.726-88.034,69.146
			c0.519,9.424,29.36,46.629,37.729,47.951c8.363,1.301,70.221-78.341,72.307-88.813
			C-92.93,135.041-106.546,116.715-117.018,117.254z"/>
		<path display="inline" fill="#FFFFFF" d="M197.917-169.19c-10.933-15.145-35.498-16.26-56.115-3.016
			c-7.87-4.009-17.022-7.233-27.767-9.215c0,0-391.393,317.515-477.854,378.833c0,0-3.302,7.003-8.776,18.406
			c98.109,68.716,86.957,120.568,86.957,120.568c-27.149-66.916-95.885-102.037-95.905-102.037
			c-24.626,50.699-68.835,139.308-92.308,172.114c0,0-0.04,18.015,22.025,29.48c0,0,150.072-101.024,193.329-109.64
			c0,0,23.883-23.283,60.697-58.922c-20.121,10.308-43.197,20.062-52.827,20.659c-16.772,1.053-36.153-39.438-34.583-53.776
			c1.57-14.338,153.521-139.574,176.038-137.983c22.54,1.569,29.875,22.518,30.414,37.725c0.205,6.548-13.655,26.546-30.414,48.012
			C4.088,73.351,147.012-61.823,187.914-91.821c0,0,0.414-10.661-3.141-24.688C202.459-131.858,208.473-154.522,197.917-169.19z
			 M-417.487,413.406c0,0-2.542-32.479-33.638-43.818C-451.125,369.588-398.896,345.953-417.487,413.406z"/>
	</g>
	<path display="none" opacity="0.5" fill="#71C8EA" enable-background="new    " d="M1151.061,147.069l3.332,3.333
		c0,0,17-13.666,32.5-11.833c0,0,21-27.999,50-37.833c0,0,17.668-9.834,7.168-30.667s-24.327-12.937-31.168-8
		c-9.582,6.916-39.771,40.322-51.5,56.333C1161.393,118.402,1164.893,134.736,1151.061,147.069z"/>
	<g>
		<path d="M31.783,5.426C30.812,3.926,8.318,4.72,6.201,6.66C4.084,8.602,2.496,24.921,3.29,25.538
			c0.794,0.618,25.317,0.618,26.11-0.617C30.195,23.686,32.754,6.925,31.783,5.426z"/>
		<path d="M18.209,3.701c-0.595-1.428-1.428-2.954-2.393-3.394C13.876-0.573,1.878,0.573,0.379,1.984
			c-1.251,1.179,0.935,14.69,1.694,19.143c0.262-5.042,1.525-14.108,3.07-15.524C6.192,4.64,12.249,3.96,18.209,3.701z"/>
	</g>
</g>
</svg>
