<?xml version="1.0" encoding="utf-8"?>
<!-- Generator: Adobe Illustrator 16.0.4, SVG Export Plug-In . SVG Version: 6.00 Build 0)  -->
<!DOCTYPE svg PUBLIC "-//W3C//DTD SVG 1.1//EN" "http://www.w3.org/Graphics/SVG/1.1/DTD/svg11.dtd">
<svg version="1.1" fill="rgb(0, 14, 156)" xmlns="http://www.w3.org/2000/svg" xmlns:xlink="http://www.w3.org/1999/xlink" x="0px" y="0px"
	 width="32px" height="22.918px" viewBox="0 0 32 22.918" enable-background="new 0 0 32 22.918" xml:space="preserve">
<g id="Fondo_1_" display="none">
	<rect id="Fondo" x="-681.958" y="-1278.212" display="inline" fill="#FB6E92" width="1000" height="2438.351"/>
</g>
<g id="Guias">
</g>
<g id="Icons">
	<g display="none" opacity="0.2">
		<path display="inline" fill="#FFFFFF" d="M-271.948,198.309c-11.282,3.637-35.885,28.281-38.51,36.153
			c-2.621,7.851,12.065,36.154,18.865,37.705c6.793,1.59,56.584-20.437,58.154-28.284
			C-231.868,236.012-260.666,194.63-271.948,198.309z"/>
		<path display="inline" fill="#FFFFFF" d="M-168.979,118.15c-10.498,0.494-88.546,59.726-88.034,69.146
			c0.519,9.423,29.36,46.629,37.729,47.951c8.363,1.301,70.221-78.341,72.307-88.813
			C-144.892,135.938-158.508,117.611-168.979,118.15z"/>
		<path display="inline" fill="#FFFFFF" d="M145.955-168.294c-10.932-15.145-35.498-16.26-56.115-3.016
			c-7.869-4.009-17.023-7.233-27.767-9.215c0,0-391.393,317.515-477.854,378.833c0,0-3.302,7.002-8.776,18.406
			c98.109,68.715,86.957,120.568,86.957,120.568c-27.149-66.916-95.885-102.037-95.905-102.037
			c-24.626,50.699-68.835,139.307-92.308,172.114c0,0-0.04,18.015,22.025,29.479c0,0,150.072-101.023,193.329-109.639
			c0,0,23.883-23.283,60.697-58.922c-20.121,10.308-43.197,20.062-52.827,20.658c-16.772,1.054-36.153-39.437-34.583-53.775
			C-335.6,220.826-183.649,95.59-161.132,97.18c22.54,1.57,29.875,22.519,30.414,37.725c0.205,6.549-13.655,26.547-30.414,48.013
			C-47.874,74.247,95.05-60.927,135.952-90.925c0,0,0.414-10.661-3.14-24.688C150.497-130.962,156.51-153.626,145.955-168.294z
			 M-469.449,414.303c0,0-2.542-32.478-33.638-43.818C-503.087,370.484-450.858,346.85-469.449,414.303z"/>
	</g>
	<path display="none" opacity="0.5" fill="#71C8EA" enable-background="new    " d="M1099.098,147.966l3.333,3.333
		c0,0,17-13.666,32.5-11.833c0,0,21-27.999,50-37.833c0,0,17.667-9.834,7.167-30.667s-24.326-12.937-31.167-8
		c-9.583,6.916-39.771,40.322-51.5,56.333C1109.431,119.299,1112.931,135.633,1099.098,147.966z"/>
	<path d="M31.486,16.96c-0.291-0.333-1.346-0.5-2.562-0.517c0.03-1.565,0.364-4.698-0.261-5.242
		c-0.357-0.312-5.966-0.734-11.363-0.436l0.157-2.302c1.644-0.029,3.065-0.183,3.397-0.515c0.821-0.822,0.959-6.174,0-7.271
		c-0.961-1.098-8.233-0.823-9.332,0.549s-0.96,6.175,0,6.723c0.379,0.217,1.786,0.391,3.399,0.471l0.128,2.479
		C9.206,11.27,3.55,11.805,3.329,12.188c-0.33,0.571-0.03,3.027,0.158,4.326c-1.33,0.127-2.54,0.42-2.896,0.866
		c-0.84,1.05-0.734,4.722,0,5.142c0.733,0.42,6.504,0.629,7.134,0c0.63-0.631,0.734-4.722,0-5.562
		c-0.304-0.347-1.437-0.515-2.718-0.517c-0.117-0.936-0.279-2.732,0.136-3.155c0.271-0.274,5.036-0.611,9.991-0.802l0.209,4.055
		c-1.224,0.139-2.302,0.422-2.635,0.839c-0.84,1.05-0.734,4.722,0,5.142s6.505,0.629,7.134,0c0.631-0.631,0.734-4.722,0-5.562
		c-0.32-0.366-1.562-0.532-2.93-0.517l0.275-4.025c4.699-0.139,9.595-0.146,9.826,0.214c0.361,0.558,0.541,2.584,0.416,3.917
		c-1.318,0.128-2.723,0.389-3.076,0.831c-0.84,1.05-0.734,4.722,0,5.142c0.733,0.42,6.504,0.629,7.133,0
		C32.117,21.891,32.223,17.8,31.486,16.96z"/>
</g>
</svg>
