<?xml version="1.0" encoding="utf-8"?>
<!-- Generator: Adobe Illustrator 16.0.4, SVG Export Plug-In . SVG Version: 6.00 Build 0)  -->
<!DOCTYPE svg PUBLIC "-//W3C//DTD SVG 1.1//EN" "http://www.w3.org/Graphics/SVG/1.1/DTD/svg11.dtd">
<svg version="1.1" fill="rgb(0, 14, 156)" xmlns="http://www.w3.org/2000/svg" xmlns:xlink="http://www.w3.org/1999/xlink" x="0px" y="0px"
	 width="22.007px" height="32px" viewBox="0 0 22.007 32" enable-background="new 0 0 22.007 32" xml:space="preserve">
<g id="Fondo_1_" display="none">
	<rect id="Fondo" x="-114.963" y="-1339.522" display="inline" fill="#FB6E92" width="1000" height="2438.351"/>
</g>
<g id="Guias">
</g>
<g id="Icons">
	<g display="none" opacity="0.2">
		<path display="inline" fill="#FFFFFF" d="M295.046,136.998c-11.282,3.636-35.885,28.281-38.51,36.152
			c-2.621,7.852,12.064,36.154,18.864,37.705c6.793,1.59,56.585-20.436,58.153-28.283
			C335.126,174.701,306.328,133.318,295.046,136.998z"/>
		<path display="inline" fill="#FFFFFF" d="M398.015,56.84c-10.498,0.494-88.547,59.727-88.033,69.146
			c0.518,9.423,29.359,46.629,37.729,47.951c8.363,1.301,70.221-78.342,72.307-88.814C422.103,74.627,408.486,56.301,398.015,56.84z
			"/>
		<path display="inline" fill="#FFFFFF" d="M712.949-229.604c-10.932-15.145-35.498-16.26-56.115-3.016
			c-7.869-4.009-17.023-7.233-27.766-9.215c0,0-391.395,317.515-477.855,378.833c0,0-3.301,7.003-8.775,18.406
			c98.109,68.716,86.957,120.568,86.957,120.568c-27.148-66.916-95.885-102.037-95.905-102.037
			c-24.626,50.699-68.835,139.308-92.308,172.114c0,0-0.04,18.015,22.025,29.479c0,0,150.071-101.023,193.328-109.639
			c0,0,23.883-23.283,60.697-58.922c-20.121,10.309-43.197,20.062-52.827,20.659c-16.772,1.054-36.153-39.437-34.583-53.776
			c1.57-14.338,153.521-139.574,176.039-137.983c22.539,1.569,29.875,22.518,30.412,37.725c0.205,6.548-13.654,26.546-30.412,48.013
			c113.26-108.668,256.184-243.842,297.086-273.84c0,0,0.414-10.661-3.141-24.688C717.492-192.272,723.503-214.937,712.949-229.604z
			 M97.544,352.992c0,0-2.541-32.479-33.637-43.818C63.908,309.174,116.136,285.539,97.544,352.992z"/>
	</g>
	<path display="none" opacity="0.5" fill="#71C8EA" enable-background="new    " d="M1666.091,86.654l3.334,3.334
		c0,0,17-13.666,32.5-11.834c0,0,21-27.998,50-37.832c0,0,17.666-9.834,7.166-30.667c-10.5-20.833-24.326-12.937-31.166-8
		c-9.584,6.916-39.771,40.322-51.5,56.333C1676.425,57.988,1679.925,74.322,1666.091,86.654z"/>
	<path d="M21.718,9.01c-0.432-0.524-4.936,0.046-5.414,0.717s-0.432,4.791,0,5.127c0.138,0.107,0.708,0.194,1.429,0.248
		c-1.263,2.477-4.597,2.02-5.853,1.744l-0.207-7.824c1.388-0.071,2.598-0.328,2.857-0.828C14.818,7.641,11.8-0.048,10.746,0
		C9.692,0.049,6.051,7.57,6.935,8.385c0.357,0.33,1.567,0.558,2.922,0.632l0.383,11.178c-0.936,0.476-4.6,2.016-5.428-2.487
		c0.815-0.458,1.501-1.247,1.863-2.26c0.727-2.03-0.121-4.19-1.892-4.823C3.011,9.99,0.986,11.123,0.26,13.153
		c-0.726,2.03,0.121,4.19,1.893,4.824c0.326,0.116,0.661,0.172,0.994,0.176c0.29,1.422,1.708,6.305,7.163,4.041l0.077,2.262
		C9.294,24.811,8.33,25.729,7.875,27c-0.726,2.031,0.121,4.189,1.893,4.824c1.771,0.634,3.796-0.499,4.522-2.529
		c0.726-2.031-0.121-4.191-1.894-4.824c-0.104-0.037-0.212-0.068-0.319-0.094l-0.146-5.572c5.346,0.912,7.318-1.672,8.042-3.652
		c0.888-0.027,1.618-0.119,1.743-0.299C22.053,14.374,22.149,9.535,21.718,9.01z"/>
</g>
</svg>
