<?xml version="1.0" encoding="utf-8"?>
<!-- Generator: Adobe Illustrator 16.0.4, SVG Export Plug-In . SVG Version: 6.00 Build 0)  -->
<!DOCTYPE svg PUBLIC "-//W3C//DTD SVG 1.1//EN" "http://www.w3.org/Graphics/SVG/1.1/DTD/svg11.dtd">
<svg version="1.1" fill="rgb(0, 14, 156)" xmlns="http://www.w3.org/2000/svg" xmlns:xlink="http://www.w3.org/1999/xlink" x="0px" y="0px"
	 width="32px" height="32px" viewBox="0 0 32 32" enable-background="new 0 0 32 32" xml:space="preserve">
<g id="Fondo_1_" display="none">
	<rect id="Fondo" x="-161.966" y="-1339.522" display="inline" fill="#FB6E92" width="1000" height="2438.351"/>
</g>
<g id="Guias">
</g>
<g id="Icons">
	<g display="none" opacity="0.2">
		<path display="inline" fill="#FFFFFF" d="M248.043,136.998c-11.281,3.636-35.885,28.281-38.51,36.152
			c-2.621,7.852,12.064,36.154,18.865,37.705c6.793,1.59,56.584-20.436,58.153-28.283
			C288.124,174.701,259.326,133.318,248.043,136.998z"/>
		<path display="inline" fill="#FFFFFF" d="M351.012,56.84c-10.498,0.494-88.546,59.727-88.033,69.146
			c0.519,9.423,29.359,46.629,37.729,47.951c8.363,1.301,70.221-78.342,72.307-88.814C375.1,74.627,361.484,56.301,351.012,56.84z"
			/>
		<path display="inline" fill="#FFFFFF" d="M665.947-229.604c-10.933-15.145-35.498-16.26-56.115-3.016
			c-7.87-4.009-17.023-7.233-27.767-9.215c0,0-391.394,317.515-477.854,378.833c0,0-3.302,7.003-8.775,18.406
			c98.108,68.716,86.957,120.568,86.957,120.568c-27.149-66.916-95.886-102.037-95.906-102.037
			C61.861,224.637,17.652,313.243-5.821,346.051c0,0-0.04,18.016,22.025,29.48c0,0,150.071-101.024,193.329-109.639
			c0,0,23.883-23.283,60.697-58.922c-20.121,10.307-43.197,20.062-52.828,20.658c-16.771,1.053-36.152-39.438-34.582-53.775
			S336.341,34.279,358.858,35.869c22.54,1.57,29.875,22.518,30.413,37.725c0.205,6.549-13.654,26.547-30.413,48.012
			c113.26-108.668,256.184-243.842,297.086-273.84c0,0,0.414-10.661-3.141-24.688C670.489-192.272,676.501-214.937,665.947-229.604z
			 M50.542,352.992c0,0-2.542-32.479-33.638-43.818C16.904,309.174,69.133,285.539,50.542,352.992z"/>
	</g>
	<path display="none" opacity="0.5" fill="#71C8EA" enable-background="new    " d="M1619.089,86.654l3.333,3.334
		c0,0,17-13.666,32.5-11.834c0,0,21-27.998,50-37.832c0,0,17.667-9.834,7.167-30.667c-10.5-20.833-24.327-12.937-31.167-8
		c-9.583,6.916-39.771,40.322-51.5,56.333C1629.422,57.988,1632.922,74.322,1619.089,86.654z"/>
	<g>
		<path d="M18.468,0.16C9.738-1.078,1.557,5.01,0.194,13.759c-1.362,8.748,4.61,16.845,13.339,18.081
			c8.73,1.238,16.91-4.85,18.273-13.599C33.169,9.493,27.197,1.397,18.468,0.16z M28.327,17.748
			c-1.062,6.822-7.443,11.57-14.251,10.604c-6.807-0.963-11.466-7.277-10.403-14.1C4.736,7.43,11.116,2.682,17.924,3.647
			C24.73,4.612,29.391,10.926,28.327,17.748z"/>
		<ellipse transform="matrix(-0.9891 -0.147 0.147 -0.9891 21.521 24.956)" cx="11.683" cy="11.683" rx="2.587" ry="2.717"/>
		<ellipse transform="matrix(-0.9891 -0.147 0.147 -0.9891 38.6925 26.2273)" cx="20.315" cy="11.684" rx="2.586" ry="2.717"/>
		<ellipse transform="matrix(-0.9891 -0.1469 0.1469 -0.9891 37.4254 43.399)" cx="20.315" cy="20.317" rx="2.586" ry="2.717"/>
		<ellipse transform="matrix(-0.9891 -0.147 0.147 -0.9891 20.2516 42.1288)" cx="11.683" cy="20.316" rx="2.587" ry="2.716"/>
	</g>
</g>
</svg>
