<?xml version="1.0" encoding="utf-8"?>
<!-- Generator: Adobe Illustrator 16.0.4, SVG Export Plug-In . SVG Version: 6.00 Build 0)  -->
<!DOCTYPE svg PUBLIC "-//W3C//DTD SVG 1.1//EN" "http://www.w3.org/Graphics/SVG/1.1/DTD/svg11.dtd">
<svg version="1.1" fill="rgb(0, 14, 156)" xmlns="http://www.w3.org/2000/svg" xmlns:xlink="http://www.w3.org/1999/xlink" x="0px" y="0px"
	 width="31.152px" height="32px" viewBox="0 0 31.152 32" enable-background="new 0 0 31.152 32" xml:space="preserve">
<g id="Fondo_1_" display="none">
	<rect id="Fondo" x="-214.39" y="-1339.522" display="inline" fill="#FB6E92" width="1000.001" height="2438.351"/>
</g>
<g id="Guias">
</g>
<g id="Icons">
	<g display="none" opacity="0.2">
		<path display="inline" fill="#FFFFFF" d="M195.619,136.998c-11.282,3.636-35.886,28.281-38.511,36.152
			c-2.621,7.852,12.065,36.154,18.865,37.705c6.793,1.59,56.584-20.436,58.154-28.283
			C235.699,174.701,206.901,133.318,195.619,136.998z"/>
		<path display="inline" fill="#FFFFFF" d="M298.588,56.84c-10.498,0.494-88.546,59.727-88.034,69.146
			c0.52,9.423,29.36,46.629,37.729,47.951c8.362,1.301,70.221-78.342,72.307-88.814C322.676,74.627,309.06,56.301,298.588,56.84z"/>
		<path display="inline" fill="#FFFFFF" d="M613.522-229.604c-10.932-15.145-35.497-16.26-56.114-3.016
			c-7.87-4.009-17.023-7.233-27.768-9.215c0,0-391.393,317.515-477.854,378.833c0,0-3.303,7.003-8.776,18.406
			c98.109,68.716,86.957,120.568,86.957,120.568c-27.149-66.916-95.885-102.037-95.905-102.037
			C9.437,224.637-34.772,313.243-58.245,346.051c0,0-0.04,18.016,22.024,29.48c0,0,150.072-101.024,193.329-109.639
			c0,0,23.884-23.283,60.697-58.922c-20.121,10.307-43.197,20.062-52.827,20.658c-16.771,1.053-36.152-39.438-34.583-53.775
			c1.57-14.338,153.521-139.574,176.038-137.984c22.54,1.57,29.875,22.518,30.414,37.725c0.205,6.549-13.654,26.547-30.414,48.012
			c113.26-108.668,256.184-243.842,297.086-273.84c0,0,0.414-10.661-3.14-24.688C618.065-192.272,624.077-214.937,613.522-229.604z
			 M-1.882,352.992c0,0-2.542-32.479-33.639-43.818C-35.52,309.174,16.709,285.539-1.882,352.992z"/>
	</g>
	<path display="none" opacity="0.5" fill="#71C8EA" enable-background="new    " d="M1566.665,86.654l3.333,3.334
		c0,0,17-13.666,32.5-11.834c0,0,21-27.998,50-37.832c0,0,17.667-9.834,7.167-30.667c-10.5-20.833-24.327-12.937-31.167-8
		c-9.583,6.916-39.771,40.322-51.5,56.333C1576.998,57.988,1580.498,74.322,1566.665,86.654z"/>
	<g>
		<polygon points="0,13.744 0.5,31.273 8.812,21.102 		"/>
		<polygon points="15.168,26.414 9.625,21.702 2.89,31.652 29.337,32 21.707,20.374 		"/>
		<polygon points="22.707,19.602 31.153,29.818 30.519,12.29 		"/>
		<path d="M15.56,18.501c0.98-0.086,5.964-9.084,5.37-9.55c-0.595-0.467-2.298-0.482-4.201-0.291L17.776,0l-5.458,0.766l1.354,8.34
			c-2.077,0.387-3.802,0.873-3.91,1.125C9.505,10.827,14.578,18.586,15.56,18.501z"/>
		<path d="M30.519,11.109l-7.859,0.145c-1.444,2.856-5.94,9.045-7.006,9.12c-1.254,0.086-7.35-7.26-7.94-8.845L0.91,11.654
			l14.35,11.263L30.519,11.109z"/>
	</g>
</g>
</svg>
