<?xml version="1.0" encoding="utf-8"?>
<!-- Generator: Adobe Illustrator 16.0.4, SVG Export Plug-In . SVG Version: 6.00 Build 0)  -->
<!DOCTYPE svg PUBLIC "-//W3C//DTD SVG 1.1//EN" "http://www.w3.org/Graphics/SVG/1.1/DTD/svg11.dtd">
<svg version="1.1" fill="rgb(0, 14, 156)" xmlns="http://www.w3.org/2000/svg" xmlns:xlink="http://www.w3.org/1999/xlink" x="0px" y="0px"
	 width="30.289px" height="32px" viewBox="0 0 30.289 32" enable-background="new 0 0 30.289 32" xml:space="preserve">
<g id="Fondo_1_" display="none">
	<rect id="Fondo" x="-265.966" y="-1339.522" display="inline" fill="#FB6E92" width="1000" height="2438.351"/>
</g>
<g id="Guias">
</g>
<g id="Icons">
	<g display="none" opacity="0.2">
		<path display="inline" fill="#FFFFFF" d="M144.043,136.998c-11.281,3.636-35.885,28.281-38.51,36.152
			c-2.621,7.852,12.064,36.154,18.865,37.705c6.793,1.59,56.584-20.436,58.153-28.283
			C184.123,174.701,155.325,133.318,144.043,136.998z"/>
		<path display="inline" fill="#FFFFFF" d="M247.012,56.84c-10.498,0.494-88.546,59.727-88.033,69.146
			c0.519,9.423,29.359,46.629,37.729,47.951c8.363,1.301,70.221-78.342,72.307-88.814C271.1,74.627,257.482,56.301,247.012,56.84z"
			/>
		<path display="inline" fill="#FFFFFF" d="M561.946-229.604c-10.933-15.145-35.498-16.26-56.115-3.016
			c-7.87-4.009-17.023-7.233-27.767-9.215c0,0-391.394,317.515-477.854,378.833c0,0-3.302,7.003-8.776,18.406
			c98.109,68.716,86.957,120.568,86.957,120.568c-27.148-66.916-95.885-102.037-95.905-102.037
			c-24.626,50.699-68.835,139.308-92.308,172.114c0,0-0.04,18.015,22.025,29.479c0,0,150.072-101.023,193.329-109.639
			c0,0,23.883-23.283,60.696-58.922c-20.121,10.309-43.196,20.062-52.826,20.659c-16.772,1.054-36.153-39.437-34.584-53.776
			c1.57-14.338,153.521-139.574,176.039-137.983c22.539,1.569,29.875,22.518,30.414,37.725c0.205,6.548-13.655,26.546-30.414,48.013
			c113.26-108.668,256.184-243.842,297.086-273.84c0,0,0.414-10.661-3.141-24.688C566.488-192.272,572.501-214.937,561.946-229.604z
			 M-53.458,352.992c0,0-2.542-32.479-33.638-43.818C-87.096,309.174-34.867,285.539-53.458,352.992z"/>
	</g>
	<path display="none" opacity="0.5" fill="#71C8EA" enable-background="new    " d="M1515.089,86.654l3.333,3.334
		c0,0,17-13.666,32.5-11.834c0,0,21-27.998,50-37.832c0,0,17.667-9.834,7.167-30.667c-10.5-20.833-24.327-12.937-31.167-8
		c-9.583,6.916-39.771,40.322-51.5,56.333C1525.422,57.988,1528.922,74.322,1515.089,86.654z"/>
	<g>
		<polygon points="0,14.251 0.486,31.295 8.567,21.404 		"/>
		<polygon points="14.747,26.57 9.357,21.989 2.81,31.664 28.523,32 21.104,20.697 		"/>
		<polygon points="22.077,19.947 30.289,29.881 29.671,12.838 		"/>
		<path d="M13.654,9.569l-1.019,8.42l5.307-0.745l-1.315-8.108c2.019-0.376,3.696-0.849,3.801-1.094
			c0.25-0.58-4.683-8.123-5.637-8.041c-0.952,0.084-5.798,8.833-5.22,9.285C10.148,9.739,11.804,9.756,13.654,9.569z"/>
		<polygon points="29.671,11.689 18.176,11.902 19.448,17.989 11.448,18.886 12.253,12.011 0.884,12.221 14.836,23.17 		"/>
	</g>
</g>
</svg>
