<?xml version="1.0" encoding="utf-8"?>
<!-- Generator: Adobe Illustrator 16.0.4, SVG Export Plug-In . SVG Version: 6.00 Build 0)  -->
<!DOCTYPE svg PUBLIC "-//W3C//DTD SVG 1.1//EN" "http://www.w3.org/Graphics/SVG/1.1/DTD/svg11.dtd">
<svg version="1.1" fill="rgb(0, 14, 156)" xmlns="http://www.w3.org/2000/svg" xmlns:xlink="http://www.w3.org/1999/xlink" x="0px" y="0px"
	 width="32px" height="21.297px" viewBox="0 0 32 21.297" enable-background="new 0 0 32 21.297" xml:space="preserve">
<g id="Fondo_1_" display="none">
	<rect id="Fondo" x="-317.966" y="-1344.874" display="inline" fill="#FB6E92" width="1000" height="2438.351"/>
</g>
<g id="Guias">
</g>
<g id="Icons">
	<g display="none" opacity="0.2">
		<path display="inline" fill="#FFFFFF" d="M92.043,131.646c-11.281,3.636-35.885,28.28-38.51,36.153
			c-2.621,7.851,12.064,36.154,18.865,37.705c6.793,1.59,56.584-20.437,58.153-28.284
			C132.123,169.35,103.325,127.967,92.043,131.646z"/>
		<path display="inline" fill="#FFFFFF" d="M195.012,51.488c-10.498,0.494-88.546,59.726-88.033,69.146
			c0.519,9.424,29.359,46.63,37.729,47.951c8.363,1.302,70.221-78.34,72.307-88.813C219.1,69.275,205.482,50.95,195.012,51.488z"/>
		<path display="inline" fill="#FFFFFF" d="M509.946-234.956c-10.933-15.145-35.498-16.26-56.115-3.016
			c-7.87-4.009-17.023-7.233-27.767-9.215c0,0-391.394,317.516-477.854,378.833c0,0-3.302,7.003-8.776,18.407
			c98.109,68.715,86.957,120.568,86.957,120.568c-27.148-66.916-95.885-102.037-95.905-102.037
			c-24.626,50.699-68.835,139.307-92.308,172.113c0,0-0.04,18.016,22.025,29.48c0,0,150.072-101.024,193.329-109.639
			c0,0,23.883-23.283,60.696-58.922c-20.121,10.307-43.196,20.062-52.826,20.658c-16.772,1.053-36.153-39.438-34.584-53.775
			c1.57-14.338,153.521-139.574,176.039-137.984c22.539,1.57,29.875,22.518,30.414,37.725c0.205,6.549-13.655,26.547-30.414,48.012
			C316.117,7.585,459.041-127.589,499.943-157.587c0,0,0.414-10.661-3.141-24.688C514.488-197.624,520.501-220.288,509.946-234.956z
			 M-105.458,347.641c0,0-2.542-32.479-33.638-43.818C-139.096,303.822-86.867,280.188-105.458,347.641z"/>
	</g>
	<path display="none" opacity="0.5" fill="#71C8EA" enable-background="new    " d="M1463.089,81.304l3.333,3.333
		c0,0,17-13.666,32.5-11.833c0,0,21-27.999,50-37.833c0,0,17.667-9.834,7.167-30.667s-24.327-12.937-31.167-8
		c-9.583,6.916-39.771,40.321-51.5,56.333C1473.422,52.637,1476.922,68.971,1463.089,81.304z"/>
	<g>
		<path d="M15.328,13.5c0.745-3.133-1.716-5.108-2.773-5.583C11.496,7.443,6.729,5.526,2.059,9.941c0,0-4.903,4.91,0.424,8.085
			c0.639,0.381,1.673,0.633,1.974,0.824c0.24,0.152,0.062,2.337,0.337,2.436c0.565,0.2,2.894-2.143,3.156-2.299
			C8.34,18.756,14.342,17.643,15.328,13.5z"/>
		<path d="M25.041,1.063C14.528-2.508,8.422,3.934,7.102,5.441C6.955,5.609,6.794,5.82,6.629,6.066
			c3.733-1.076,6.833,0.181,7.736,0.586c1.304,0.584,4.335,3.019,3.417,6.88c-0.75,3.149-3.853,4.877-6.232,5.807
			c4.709,1.434,10.188,0.113,10.749,0.174c0.525,0.056,5.869,2.059,6.612,1.337c0.362-0.353-1.49-3.652-1.224-4.067
			c0.334-0.517,1.776-1.656,2.506-2.715C36.275,5.246,25.041,1.063,25.041,1.063z"/>
	</g>
</g>
</svg>
