<?xml version="1.0" encoding="utf-8"?>
<!-- Generator: Adobe Illustrator 16.0.4, SVG Export Plug-In . SVG Version: 6.00 Build 0)  -->
<!DOCTYPE svg PUBLIC "-//W3C//DTD SVG 1.1//EN" "http://www.w3.org/Graphics/SVG/1.1/DTD/svg11.dtd">
<svg version="1.1" fill="rgb(0, 14, 156)" xmlns="http://www.w3.org/2000/svg" xmlns:xlink="http://www.w3.org/1999/xlink" x="0px" y="0px"
	 width="32px" height="26.508px" viewBox="0 0 32 26.508" enable-background="new 0 0 32 26.508" xml:space="preserve">
<g id="Fondo_1_" display="none">
	<rect id="Fondo" x="-369.966" y="-1343.407" display="inline" fill="#FB6E92" width="1000" height="2438.351"/>
</g>
<g id="Guias">
</g>
<g id="Icons">
	<g display="none" opacity="0.2">
		<path display="inline" fill="#FFFFFF" d="M40.043,133.113c-11.282,3.636-35.885,28.281-38.51,36.153
			c-2.621,7.852,12.065,36.154,18.865,37.705c6.793,1.59,56.584-20.436,58.153-28.284C80.124,170.816,51.326,129.435,40.043,133.113
			z"/>
		<path display="inline" fill="#FFFFFF" d="M143.012,52.956c-10.498,0.494-88.546,59.726-88.033,69.146
			c0.519,9.423,29.359,46.629,37.729,47.95c8.363,1.302,70.221-78.34,72.307-88.813C167.1,70.743,153.484,52.417,143.012,52.956z"/>
		<path display="inline" fill="#FFFFFF" d="M457.947-233.489c-10.933-15.145-35.498-16.26-56.115-3.016
			c-7.87-4.009-17.023-7.233-27.767-9.215c0,0-391.394,317.515-477.854,378.833c0,0-3.302,7.003-8.776,18.407
			c98.109,68.715,86.957,120.568,86.957,120.568c-27.149-66.916-95.885-102.037-95.905-102.037
			c-24.626,50.699-68.835,139.307-92.308,172.113c0,0-0.04,18.016,22.025,29.48c0,0,150.072-101.023,193.329-109.639
			c0,0,23.883-23.283,60.697-58.922c-20.121,10.308-43.197,20.062-52.828,20.658c-16.772,1.053-36.153-39.437-34.583-53.775
			c1.57-14.338,153.521-139.574,176.038-137.984c22.541,1.57,29.875,22.518,30.414,37.725c0.205,6.549-13.654,26.547-30.414,48.013
			C264.118,9.052,407.042-126.122,447.944-156.12c0,0,0.414-10.661-3.141-24.688C462.489-196.157,468.501-218.821,457.947-233.489z
			 M-157.458,349.107c0,0-2.542-32.478-33.638-43.817C-191.095,305.29-138.867,281.654-157.458,349.107z"/>
	</g>
	<path display="none" opacity="0.5" fill="#71C8EA" enable-background="new    " d="M1411.089,82.771l3.333,3.333
		c0,0,17-13.666,32.5-11.833c0,0,21-27.999,50-37.833c0,0,17.667-9.834,7.167-30.667s-24.327-12.937-31.167-8
		c-9.583,6.916-39.771,40.321-51.5,56.333C1421.422,54.104,1424.922,70.438,1411.089,82.771z"/>
	<g>
		<path d="M13.579,0.333c0.215,3.506,0.747,12.916,0.316,13.617c-0.209,0.34-1.388,0.514-2.771,0.561l0.209,10.861
			c2.893,0.244,6.073,0.492,9.035,0.693l0.836-11.6c-1.228-0.086-2.246-0.27-2.435-0.518C18.33,13.373,19.32,2.857,19.589,0.092
			C17.626,0.15,15.579,0.233,13.579,0.333z"/>
		<path d="M8.868,14.481c-1.395-0.079-2.588-0.27-2.798-0.531C5.64,13.412,6.514,4.228,6.863,0.749
			C3.016,1.045,0.239,1.384,0.101,1.681c-0.464,0.995,0.796,22.351,1.393,22.681c0.18,0.1,2.889,0.393,6.609,0.729L8.868,14.481z"/>
		<path d="M31.402,0.487C31.18,0.161,29.012,0.019,25.916,0c0.189,3.194,0.746,13.226,0.32,13.95
			c-0.207,0.352-1.4,0.525-2.777,0.565l0.227,11.761c4.252,0.247,7.478,0.335,7.717,0.074C32.131,25.556,32.264,1.747,31.402,0.487z
			"/>
	</g>
</g>
</svg>
