<?xml version="1.0" encoding="utf-8"?>
<!-- Generator: Adobe Illustrator 16.0.4, SVG Export Plug-In . SVG Version: 6.00 Build 0)  -->
<!DOCTYPE svg PUBLIC "-//W3C//DTD SVG 1.1//EN" "http://www.w3.org/Graphics/SVG/1.1/DTD/svg11.dtd">
<svg version="1.1" fill="rgb(0, 14, 156)" xmlns="http://www.w3.org/2000/svg" xmlns:xlink="http://www.w3.org/1999/xlink" x="0px" y="0px"
	 width="32px" height="28.182px" viewBox="0 0 32 28.182" enable-background="new 0 0 32 28.182" xml:space="preserve">
<g id="Fondo_1_" display="none">
	<rect id="Fondo" x="-421.966" y="-1341.432" display="inline" fill="#FB6E92" width="1000" height="2438.352"/>
</g>
<g id="Guias">
</g>
<g id="Icons">
	<g display="none" opacity="0.2">
		<path display="inline" fill="#FFFFFF" d="M-11.957,135.089c-11.282,3.636-35.885,28.281-38.51,36.153
			c-2.621,7.851,12.065,36.153,18.865,37.704c6.793,1.591,56.584-20.436,58.154-28.283C28.124,172.792-0.674,131.41-11.957,135.089z
			"/>
		<path display="inline" fill="#FFFFFF" d="M91.012,54.931c-10.498,0.494-88.546,59.727-88.034,69.146
			c0.519,9.423,29.36,46.629,37.729,47.95c8.363,1.302,70.221-78.341,72.307-88.813C115.1,72.718,101.484,54.392,91.012,54.931z"/>
		<path display="inline" fill="#FFFFFF" d="M405.947-231.514c-10.933-15.145-35.498-16.26-56.115-3.016
			c-7.87-4.009-17.023-7.233-27.767-9.215c0,0-391.394,317.515-477.854,378.833c0,0-3.302,7.003-8.776,18.407
			c98.109,68.715,86.957,120.567,86.957,120.567c-27.149-66.916-95.885-102.037-95.905-102.037
			c-24.626,50.699-68.835,139.308-92.308,172.114c0,0-0.04,18.015,22.025,29.48c0,0,150.072-101.024,193.329-109.64
			c0,0,23.883-23.283,60.697-58.922c-20.121,10.309-43.197,20.062-52.827,20.659c-16.772,1.053-36.153-39.438-34.583-53.776
			C-75.608,157.606,76.342,32.37,98.859,33.96c22.541,1.569,29.875,22.518,30.414,37.725c0.205,6.548-13.654,26.546-30.414,48.012
			c113.259-108.67,256.183-243.843,297.085-273.842c0,0,0.414-10.661-3.141-24.688C410.489-194.182,416.501-216.846,405.947-231.514
			z M-209.458,351.083c0,0-2.542-32.479-33.638-43.818C-243.095,307.265-190.867,283.63-209.458,351.083z"/>
	</g>
	<path display="none" opacity="0.5" fill="#71C8EA" enable-background="new    " d="M1359.089,84.746l3.333,3.333
		c0,0,17-13.666,32.5-11.833c0,0,21-27.999,50-37.833c0,0,17.667-9.834,7.167-30.667s-24.327-12.938-31.167-8
		c-9.583,6.916-39.771,40.321-51.5,56.333C1369.422,56.079,1372.922,72.413,1359.089,84.746z"/>
	<path d="M30.264,5.07c-2.203-3.804-5.648-5.928-7.695-4.741C20.869,1.31,20.67,4.262,21.906,7.41l-4.547,2.915
		c-2.507-2.629-5.392-3.803-7.312-2.689C7.626,9.037,7.591,13.571,9.835,18.09C6.221,21.464-0.2,27.563,0.005,28.131
		c0.206,0.57,7.993-3.812,12.295-6.284c2.636,3.088,5.837,4.556,7.913,3.354c2.148-1.244,2.417-4.961,0.879-8.941l3.969-4.008
		c1.906,1.878,4.041,2.688,5.481,1.854C32.591,12.921,32.465,8.875,30.264,5.07z"/>
</g>
</svg>
