<?xml version="1.0" encoding="utf-8"?>
<!-- Generator: Adobe Illustrator 16.0.4, SVG Export Plug-In . SVG Version: 6.00 Build 0)  -->
<!DOCTYPE svg PUBLIC "-//W3C//DTD SVG 1.1//EN" "http://www.w3.org/Graphics/SVG/1.1/DTD/svg11.dtd">
<svg version="1.1" fill="rgb(0, 14, 156)" xmlns="http://www.w3.org/2000/svg" xmlns:xlink="http://www.w3.org/1999/xlink" x="0px" y="0px"
	 width="29.443px" height="32px" viewBox="0 0 29.443 32" enable-background="new 0 0 29.443 32" xml:space="preserve">
<g id="Fondo_1_" display="none">
	<rect id="Fondo" x="-475.244" y="-1339.621" display="inline" fill="#FB6E92" width="1000" height="2438.351"/>
</g>
<g id="Guias">
</g>
<g id="Icons">
	<g display="none" opacity="0.2">
		<path display="inline" fill="#FFFFFF" d="M-65.234,136.899c-11.282,3.636-35.886,28.281-38.511,36.153
			c-2.621,7.851,12.065,36.154,18.865,37.705c6.793,1.59,56.584-20.437,58.154-28.284
			C-25.154,174.603-53.952,133.221-65.234,136.899z"/>
		<path display="inline" fill="#FFFFFF" d="M37.734,56.742c-10.498,0.493-88.546,59.725-88.034,69.146
			c0.519,9.423,29.36,46.629,37.729,47.95c8.362,1.302,70.221-78.34,72.307-88.813C61.822,74.528,48.206,56.203,37.734,56.742z"/>
		<path display="inline" fill="#FFFFFF" d="M352.669-229.703c-10.932-15.145-35.498-16.26-56.114-3.016
			c-7.87-4.009-17.023-7.233-27.768-9.215c0,0-391.393,317.516-477.854,378.833c0,0-3.303,7.003-8.776,18.407
			c98.109,68.715,86.957,120.568,86.957,120.568c-27.149-66.916-95.885-102.037-95.905-102.037
			c-24.626,50.699-68.835,139.307-92.308,172.113c0,0-0.04,18.016,22.024,29.48c0,0,150.072-101.023,193.329-109.639
			c0,0,23.884-23.283,60.697-58.922c-20.121,10.308-43.197,20.062-52.827,20.658c-16.771,1.053-36.152-39.438-34.583-53.775
			c1.57-14.338,153.521-139.574,176.038-137.984c22.54,1.57,29.875,22.518,30.414,37.725c0.205,6.549-13.655,26.547-30.414,48.012
			C158.84,12.838,301.764-122.336,342.666-152.334c0,0,0.414-10.661-3.14-24.688C357.211-192.371,363.223-215.035,352.669-229.703z
			 M-262.735,352.894c0,0-2.542-32.479-33.639-43.818C-296.373,309.076-244.145,285.44-262.735,352.894z"/>
	</g>
	<path display="none" opacity="0.5" fill="#71C8EA" enable-background="new    " d="M1305.812,86.557l3.332,3.333
		c0,0,17-13.666,32.5-11.833c0,0,21-27.999,50-37.833c0,0,17.668-9.834,7.168-30.667s-24.327-12.937-31.168-8
		c-9.582,6.916-39.771,40.321-51.5,56.333C1316.144,57.89,1319.644,74.224,1305.812,86.557z"/>
	<g>
		<path d="M28.874,18.542c0.564-0.764,0.729-6.191,0.084-6.742c-0.34-0.289-1.469-0.245-2.466-0.139
			c0.005-0.316,0.01-0.631,0.014-0.941c1.096-0.162,2.124-0.406,2.387-0.763c0.621-0.841,0.805-6.823,0.092-7.429
			c-0.351-0.298-1.463-0.275-2.505-0.175c-0.042-1.202-0.11-1.978-0.208-2.133C25.623-0.815,1.514,2.036,0.347,3.462
			C-0.82,4.888,1.255,31.33,2.162,31.848s22.554-0.39,23.331-1.296c0.135-0.157,0.266-1.139,0.386-2.657
			c1.251-0.138,2.69-0.384,2.995-0.798c0.564-0.764,0.729-6.191,0.084-6.741c-0.365-0.312-1.641-0.237-2.685-0.114
			c0.011-0.314,0.021-0.633,0.033-0.951C27.438,19.145,28.603,18.91,28.874,18.542z M20.819,22.597
			c-0.431,0.936-1.368,1.423-2.095,1.089c-0.264-0.12-0.462-0.334-0.591-0.603c-0.028,0.328-0.065,0.529-0.065,0.529l-9.541,0.875
			c0,0,0.07-0.517,0.272-1.261c-0.616,0.812-1.567,1.179-2.337,0.825c-0.929-0.428-1.236-1.743-0.687-2.94
			c0.55-1.196,1.749-1.821,2.678-1.396c0.634,0.293,0.979,0.998,0.959,1.799c0.497-1.098,1.253-2.24,2.379-2.947
			c-1.819-1.223-2.716-3.797-2.051-6.403c0.813-3.183,3.646-5.208,6.33-4.521c2.683,0.685,4.198,3.82,3.385,7.003
			c-0.442,1.735-1.488,3.125-2.781,3.92c0.981,0.733,1.343,1.923,1.451,2.964c0.02-0.048,0.037-0.096,0.06-0.144
			c0.431-0.937,1.368-1.425,2.095-1.091C21.008,20.632,21.249,21.66,20.819,22.597z"/>
		<path d="M15.872,11.694c-0.669-0.046-1.272,0.675-1.438,1.657c-0.169-0.284-0.422-0.487-0.73-0.554
			c-0.703-0.151-1.43,0.46-1.626,1.363c-0.196,0.904,0.216,1.761,0.918,1.913c0.654,0.141,1.33-0.379,1.578-1.182
			c0.208,0.527,0.577,0.886,1.02,0.916c0.739,0.051,1.4-0.83,1.479-1.966C17.146,12.706,16.611,11.744,15.872,11.694z"/>
	</g>
</g>
</svg>
