<?xml version="1.0" encoding="utf-8"?>
<!-- Generator: Adobe Illustrator 16.0.4, SVG Export Plug-In . SVG Version: 6.00 Build 0)  -->
<!DOCTYPE svg PUBLIC "-//W3C//DTD SVG 1.1//EN" "http://www.w3.org/Graphics/SVG/1.1/DTD/svg11.dtd">
<svg version="1.1" fill="rgb(0, 14, 156)" xmlns="http://www.w3.org/2000/svg" xmlns:xlink="http://www.w3.org/1999/xlink" x="0px" y="0px"
	 width="32px" height="31.662px" viewBox="0 0 32 31.662" enable-background="new 0 0 32 31.662" xml:space="preserve">
<g id="Fondo_1_" display="none">
	<rect id="Fondo" x="-525.962" y="-1339.691" display="inline" fill="#FB6E92" width="1000" height="2438.351"/>
</g>
<g id="Guias">
</g>
<g id="Icons">
	<g display="none" opacity="0.2">
		<path display="inline" fill="#FFFFFF" d="M-115.953,136.829c-11.282,3.636-35.885,28.281-38.51,36.152
			c-2.621,7.852,12.065,36.154,18.865,37.705c6.793,1.59,56.584-20.436,58.154-28.283
			C-75.873,174.532-104.671,133.149-115.953,136.829z"/>
		<path display="inline" fill="#FFFFFF" d="M-12.984,56.671c-10.498,0.494-88.546,59.727-88.034,69.146
			c0.519,9.423,29.36,46.629,37.729,47.951c8.363,1.301,70.221-78.342,72.307-88.814C11.104,74.458-2.513,56.132-12.984,56.671z"/>
		<path display="inline" fill="#FFFFFF" d="M301.95-229.773c-10.933-15.145-35.498-16.26-56.115-3.016
			c-7.87-4.009-17.022-7.233-27.767-9.215c0,0-391.394,317.515-477.854,378.833c0,0-3.302,7.003-8.776,18.406
			c98.109,68.716,86.957,120.568,86.957,120.568c-27.149-66.916-95.885-102.037-95.905-102.037
			c-24.626,50.699-68.835,139.308-92.308,172.114c0,0-0.04,18.015,22.025,29.479c0,0,150.072-101.023,193.329-109.639
			c0,0,23.883-23.283,60.697-58.922c-20.121,10.309-43.197,20.062-52.827,20.659c-16.772,1.054-36.153-39.437-34.583-53.776
			C-179.605,159.347-27.654,34.11-5.137,35.7c22.54,1.57,29.875,22.518,30.415,37.725c0.205,6.549-13.655,26.547-30.415,48.012
			c113.258-108.668,256.182-243.843,297.084-273.84c0,0,0.414-10.661-3.141-24.688C306.492-192.441,312.505-215.105,301.95-229.773z
			 M-313.454,352.823c0,0-2.542-32.479-33.638-43.818C-347.092,309.005-294.863,285.37-313.454,352.823z"/>
	</g>
	<path display="none" opacity="0.5" fill="#71C8EA" enable-background="new    " d="M1255.093,86.485l3.333,3.334
		c0,0,17-13.666,32.5-11.834c0,0,21-27.998,50-37.832c0,0,17.667-9.834,7.167-30.667c-10.5-20.833-24.327-12.937-31.167-8
		c-9.583,6.916-39.771,40.322-51.5,56.333C1265.426,57.819,1268.926,74.153,1255.093,86.485z"/>
	<g>
		<path d="M13.861,19.054c-1.713,0.665-2.639,2.396-2.067,3.862c0.57,1.469,2.422,2.119,4.134,1.453s2.638-2.396,2.068-3.864
			C17.425,19.037,15.573,18.388,13.861,19.054z M15.532,21.338c-0.531,0.207-1.105,0.005-1.283-0.45
			c-0.177-0.455,0.11-0.992,0.642-1.199c0.532-0.205,1.105-0.004,1.283,0.451C16.351,20.595,16.063,21.131,15.532,21.338z"/>
		<ellipse cx="17.895" cy="12.649" rx="0.947" ry="1.731"/>
		<ellipse cx="12.51" cy="13.147" rx="0.885" ry="1.617"/>
		<path d="M26.373,24.188C29.916,23.961,32,24.397,32,24.397l-0.064-0.717c-2.451-0.356-4.311-0.293-5.541-0.148
			c-0.021-0.506-0.123-0.996-0.303-1.463c3.163-0.864,5.121-0.885,5.121-0.885l-0.219-0.688c-2.303,0.168-4.021,0.58-5.193,0.964
			c-0.546-0.988-1.436-1.82-2.549-2.359c0.023-0.002,0.04-0.004,0.04-0.004s-1.505-18.935-2.14-19.093
			c-0.633-0.158-2.139,4.832-2.139,4.832S16.229,3.824,14.34,4.07c-2.43,0.317-4.357,2.271-4.357,2.271s-2.456-4.278-3.089-4.04
			C6.291,2.526,8.476,17.967,9.308,19.728c-1.862,0.713-3.218,2.114-3.736,3.686C4.333,23.38,2.453,23.485,0,24.086l0.004,0.722
			c0,0,1.966-0.611,5.397-0.738c-0.085,0.488-0.088,0.984,0.001,1.477c-1.217,0.232-3.038,0.74-5.32,1.859l0.159,0.703
			c0,0,1.862-1.064,5.329-1.938c0.137,0.394,0.329,0.753,0.568,1.08c-1.068,0.595-2.489,1.541-4.112,3.024l0.35,0.633
			c0,0,1.374-1.424,4.206-3.139c1.397,1.388,3.769,1.916,6.102,1.176c0.117-0.038,0.229-0.084,0.344-0.127
			c-0.011,0.19,0,0.383,0.037,0.574c0.305,1.594,2.185,2.573,4.199,2.188c1.707-0.326,2.959-1.53,3.115-2.859
			c2.329,0.084,4.402-1.016,5.396-2.717c3.276,0.766,5.053,1.715,5.053,1.715l0.139-0.709c-2.027-0.927-3.689-1.391-4.894-1.626
			C26.225,25.004,26.329,24.604,26.373,24.188z M16.54,29.554c-0.766,0-1.386-0.621-1.386-1.387s0.62-1.386,1.386-1.386
			c0.767,0,1.387,0.62,1.387,1.386S17.307,29.554,16.54,29.554z M16.392,25.187c-2.238,0.869-4.657,0.02-5.404-1.899
			c-0.449-1.156-0.184-2.435,0.585-3.458c0.044-0.061,0.089-0.118,0.136-0.176c0.031-0.036,0.063-0.072,0.096-0.108
			c0.034-0.038,0.068-0.076,0.104-0.114c0.043-0.045,0.086-0.089,0.131-0.132c0.451-0.44,1.006-0.812,1.651-1.062
			c1.614-0.629,3.319-0.357,4.426,0.56l0,0c0.1,0.083,0.193,0.172,0.283,0.265c0.013,0.014,0.024,0.025,0.037,0.039
			c0.078,0.082,0.149,0.17,0.219,0.26c0.014,0.019,0.029,0.035,0.043,0.054c0.16,0.221,0.295,0.461,0.396,0.724
			C19.84,22.054,18.63,24.313,16.392,25.187z M17.786,17.67c-1.146,0-2.154-0.969-2.743-2.437c-0.468,1.45-1.393,2.437-2.457,2.437
			c-1.538,0-2.784-2.057-2.784-4.595c0-2.538,1.246-4.596,2.784-4.596c0.872,0,1.649,0.663,2.16,1.699
			c0.492-1.973,1.667-3.362,3.04-3.362c1.815,0,3.288,2.43,3.288,5.428C21.074,15.24,19.604,17.67,17.786,17.67z"/>
	</g>
</g>
</svg>
