<?xml version="1.0" encoding="utf-8"?>
<!-- Generator: Adobe Illustrator 16.0.4, SVG Export Plug-In . SVG Version: 6.00 Build 0)  -->
<!DOCTYPE svg PUBLIC "-//W3C//DTD SVG 1.1//EN" "http://www.w3.org/Graphics/SVG/1.1/DTD/svg11.dtd">
<svg version="1.1" fill="rgb(0, 14, 156)" xmlns="http://www.w3.org/2000/svg" xmlns:xlink="http://www.w3.org/1999/xlink" x="0px" y="0px"
	 width="26.271px" height="32px" viewBox="0 0 26.271 32" enable-background="new 0 0 26.271 32" xml:space="preserve">
<g id="Fondo_1_" display="none">
	<rect id="Fondo" x="-580.761" y="-1339.718" display="inline" fill="#FB6E92" width="1000" height="2438.351"/>
</g>
<g id="Guias">
</g>
<g id="Icons">
	<g display="none" opacity="0.2">
		<path display="inline" fill="#FFFFFF" d="M-170.752,136.803c-11.282,3.637-35.885,28.281-38.51,36.153
			c-2.621,7.851,12.065,36.153,18.865,37.705c6.793,1.59,56.584-20.437,58.153-28.284
			C-130.672,174.506-159.47,133.124-170.752,136.803z"/>
		<path display="inline" fill="#FFFFFF" d="M-67.783,56.645c-10.498,0.494-88.546,59.727-88.033,69.146
			c0.519,9.423,29.359,46.629,37.729,47.951c8.363,1.301,70.221-78.342,72.308-88.814C-43.695,74.432-57.312,56.105-67.783,56.645z"
			/>
		<path display="inline" fill="#FFFFFF" d="M247.151-229.8c-10.933-15.145-35.498-16.26-56.115-3.016
			c-7.87-4.009-17.022-7.233-27.767-9.215c0,0-391.394,317.516-477.854,378.833c0,0-3.302,7.003-8.775,18.407
			c98.108,68.715,86.956,120.568,86.956,120.568c-27.148-66.916-95.885-102.037-95.904-102.037
			c-24.626,50.699-68.835,139.307-92.309,172.113c0,0-0.04,18.016,22.025,29.48c0,0,150.072-101.023,193.329-109.639
			c0,0,23.883-23.283,60.697-58.922c-20.121,10.308-43.197,20.062-52.827,20.658c-16.772,1.053-36.153-39.437-34.583-53.775
			c1.569-14.338,153.521-139.574,176.038-137.984c22.54,1.57,29.875,22.518,30.414,37.725c0.205,6.549-13.655,26.547-30.414,48.013
			c113.26-108.668,256.184-243.842,297.086-273.84c0,0,0.414-10.661-3.141-24.688C251.693-192.468,257.706-215.132,247.151-229.8z
			 M-368.253,352.797c0,0-2.542-32.479-33.638-43.818C-401.891,308.979-349.662,285.344-368.253,352.797z"/>
	</g>
	<path display="none" opacity="0.5" fill="#71C8EA" enable-background="new    " d="M1200.294,86.46l3.333,3.333
		c0,0,17-13.666,32.5-11.833c0,0,21-27.999,50-37.833c0,0,17.667-9.834,7.167-30.667s-24.327-12.937-31.167-8
		c-9.583,6.916-39.771,40.322-51.5,56.333C1210.627,57.793,1214.127,74.127,1200.294,86.46z"/>
	<g>
		<path d="M25.772,26.771c-0.784-0.446-3.81,0.506-3.81,0.506s3.978-9.971,1.064-19.325c-1.434-4.601-6.834-8.458-10.867-7.898
			S3.199,2.574,0.678,9.296c-2.521,6.723,2.801,18.485,2.801,18.485s-2.464-0.393-3.024,0c-0.56,0.393-0.504,1.849-0.057,2.353
			c0.448,0.505,3.81,2.241,5.098,1.793s3.312-4.215,3.312-4.215s2.123,4.384,3.636,4.215s3.023-3.922,3.023-3.922
			s0.952,4.146,2.018,3.922c1.063-0.225,2.577-3.81,2.577-3.81s1.903,3.306,2.633,3.249c0.728-0.056,3.585-2.353,3.528-3.138
			C26.165,27.443,26.558,27.221,25.772,26.771z M18.83,13.455c-0.506,4.053-2.977,7.081-5.52,6.764
			c-1.511-0.188-2.701-1.518-3.318-3.41c-0.35,2.31-1.651,4.026-3.209,4.026c-1.825,0-3.305-2.356-3.305-5.266
			c0-2.907,1.479-5.265,3.305-5.265c1.178,0,2.209,0.984,2.794,2.462c0.014-0.153,0.023-0.306,0.043-0.46
			c0.505-4.052,2.978-7.079,5.521-6.763C17.684,5.861,19.336,9.403,18.83,13.455z"/>
		<ellipse cx="14.283" cy="13.049" rx="1.147" ry="2.128"/>
		<ellipse cx="6.638" cy="15.533" rx="0.896" ry="1.661"/>
	</g>
</g>
</svg>
