<?xml version="1.0" encoding="utf-8"?>
<!-- Generator: Adobe Illustrator 16.0.4, SVG Export Plug-In . SVG Version: 6.00 Build 0)  -->
<!DOCTYPE svg PUBLIC "-//W3C//DTD SVG 1.1//EN" "http://www.w3.org/Graphics/SVG/1.1/DTD/svg11.dtd">
<svg version="1.1" fill="rgb(0, 14, 156)" xmlns="http://www.w3.org/2000/svg" xmlns:xlink="http://www.w3.org/1999/xlink" x="0px" y="0px"
	 width="32.07px" height="28.936px" viewBox="0 0 32.07 28.936" enable-background="new 0 0 32.07 28.936" xml:space="preserve">
<g id="Fondo_1_" display="none">
	<rect id="Fondo" x="-630.163" y="-1340.444" display="inline" fill="#FB6E92" width="1000" height="2438.351"/>
</g>
<g id="Guias">
</g>
<g id="Icons">
	<g display="none" opacity="0.2">
		<path display="inline" fill="#FFFFFF" d="M-220.153,136.076c-11.282,3.636-35.886,28.281-38.511,36.153
			c-2.621,7.851,12.065,36.153,18.865,37.705c6.793,1.59,56.584-20.437,58.154-28.284
			C-180.073,173.779-208.871,132.397-220.153,136.076z"/>
		<path display="inline" fill="#FFFFFF" d="M-117.185,55.918c-10.498,0.494-88.546,59.727-88.034,69.146
			c0.519,9.423,29.36,46.629,37.729,47.951c8.363,1.301,70.222-78.342,72.308-88.814C-93.097,73.705-106.713,55.379-117.185,55.918z
			"/>
		<path display="inline" fill="#FFFFFF" d="M197.75-230.526c-10.932-15.146-35.498-16.261-56.115-3.017
			c-7.869-4.009-17.022-7.232-27.767-9.215c0,0-391.393,317.515-477.854,378.833c0,0-3.303,7.003-8.776,18.407
			c98.109,68.715,86.957,120.567,86.957,120.567c-27.149-66.916-95.885-102.036-95.905-102.036
			c-24.626,50.698-68.835,139.307-92.308,172.113c0,0-0.04,18.016,22.024,29.48c0,0,150.072-101.024,193.329-109.64
			c0,0,23.883-23.282,60.697-58.922c-20.121,10.309-43.197,20.062-52.827,20.659c-16.771,1.053-36.153-39.437-34.583-53.775
			S-131.856,33.356-109.339,34.946c22.54,1.57,29.875,22.518,30.414,37.725c0.205,6.548-13.655,26.546-30.414,48.013
			C3.921,12.015,146.845-123.159,187.747-153.157c0,0,0.414-10.66-3.14-24.688C202.292-193.194,208.305-215.858,197.75-230.526z
			 M-417.654,352.07c0,0-2.542-32.479-33.639-43.818C-451.292,308.252-399.063,284.617-417.654,352.07z"/>
	</g>
	<path display="none" opacity="0.5" fill="#71C8EA" enable-background="new    " d="M1150.892,85.733l3.333,3.333
		c0,0,17-13.666,32.5-11.833c0,0,21-27.999,50-37.833c0,0,17.667-9.834,7.167-30.667s-24.326-12.938-31.167-8
		c-9.583,6.916-39.771,40.322-51.5,56.333C1161.225,57.066,1164.725,73.4,1150.892,85.733z"/>
	<path d="M32.061,11.807c-0.144-0.992-1.75-2.458-1.75-2.458s1.466-3.545,0.897-4.207c-0.36-0.422-1.567-0.018-2.494,0.441
		c-0.499-0.65-1.099-1.199-1.099-1.199s1.466-3.545,0.898-4.206s-3.216,0.709-3.594,1.135s-0.709,2.836-0.804,3.215
		c-0.061,0.244-1.664,1.003-2.789,1.508c-0.054-0.082-0.11-0.156-0.173-0.21c-0.486-0.425-2.581,0.904-3.39,1.447
		c-0.087-0.05-0.175-0.103-0.267-0.146C8.518,2.837-2.44,17.706,0.482,24.916c2.837,6.996,18.909,2.932,19.191,1.985
		c0.284-0.945-1.97-3.314-1.97-3.314s2.812-2.312,2.989-6.204c1.38-0.783,2.491-1.438,2.855-2.313
		c0.104-0.245,0.167-0.56,0.201-0.904l4.058-2.248c0,0,1.698,2.633,2.312,2.491S32.202,12.8,32.061,11.807z M10.256,23.672
		c4.479-3.876,3.769-6.199,3.181-6.938c-1.95-2.449-8.604,4.292-8.604,4.292c7.469-10.684,10.777-5.672,10.777-5.672
		C17.637,18.926,10.256,23.672,10.256,23.672z M23.366,11.291c-0.108-0.245-0.237-0.442-0.383-0.57
		c-0.375-0.328-1.518,0.181-2.572,0.775c-0.029-0.321-0.081-0.638-0.155-0.946c0.674-0.47,1.228-0.929,1.355-1.238
		c0.059-0.14,0.101-0.308,0.131-0.488l3.371-1.87c0,0,1.017,1.574,1.762,2.223c-0.025,0.145-0.047,0.258-0.062,0.315
		C26.738,9.79,24.358,10.857,23.366,11.291z"/>
</g>
</svg>
