<?xml version="1.0" encoding="utf-8"?>
<!-- Generator: Adobe Illustrator 16.0.4, SVG Export Plug-In . SVG Version: 6.00 Build 0)  -->
<!DOCTYPE svg PUBLIC "-//W3C//DTD SVG 1.1//EN" "http://www.w3.org/Graphics/SVG/1.1/DTD/svg11.dtd">
<svg version="1.1" fill="rgb(0, 14, 156)" xmlns="http://www.w3.org/2000/svg" xmlns:xlink="http://www.w3.org/1999/xlink" x="0px" y="0px"
	 width="17.062px" height="32px" viewBox="0 0 17.062 32" enable-background="new 0 0 17.062 32" xml:space="preserve">
<g id="Fondo_1_" display="none">
	<rect id="Fondo" x="-689.425" y="-1339.718" display="inline" fill="#FB6E92" width="1000" height="2438.351"/>
</g>
<g id="Guias">
</g>
<g id="Icons">
	<g display="none" opacity="0.2">
		<path display="inline" fill="#FFFFFF" d="M-279.416,136.803c-11.282,3.637-35.885,28.281-38.51,36.153
			c-2.621,7.851,12.064,36.153,18.864,37.705c6.793,1.59,56.584-20.437,58.154-28.284
			C-239.336,174.506-268.134,133.124-279.416,136.803z"/>
		<path display="inline" fill="#FFFFFF" d="M-176.447,56.645c-10.498,0.494-88.546,59.727-88.034,69.146
			c0.52,9.423,29.36,46.629,37.729,47.951c8.362,1.301,70.221-78.342,72.307-88.814C-152.359,74.432-165.976,56.105-176.447,56.645z
			"/>
		<path display="inline" fill="#FFFFFF" d="M138.487-229.8c-10.932-15.145-35.498-16.26-56.114-3.016
			c-7.87-4.009-17.023-7.233-27.768-9.215c0,0-391.393,317.516-477.854,378.833c0,0-3.302,7.003-8.776,18.407
			c98.109,68.715,86.957,120.568,86.957,120.568c-27.148-66.916-95.885-102.037-95.905-102.037
			c-24.626,50.699-68.835,139.307-92.308,172.113c0,0-0.04,18.016,22.025,29.48c0,0,150.071-101.023,193.329-109.639
			c0,0,23.883-23.283,60.696-58.922c-20.121,10.308-43.196,20.062-52.827,20.658c-16.771,1.053-36.152-39.437-34.583-53.775
			c1.57-14.338,153.521-139.574,176.038-137.984c22.54,1.57,29.875,22.518,30.414,37.725c0.205,6.549-13.654,26.547-30.414,48.013
			C-55.342,12.741,87.582-122.433,128.484-152.431c0,0,0.414-10.661-3.14-24.688C143.029-192.468,149.042-215.132,138.487-229.8z
			 M-476.917,352.797c0,0-2.542-32.479-33.639-43.818C-510.555,308.979-458.326,285.344-476.917,352.797z"/>
	</g>
	<path display="none" opacity="0.5" fill="#71C8EA" enable-background="new    " d="M1091.63,86.46l3.333,3.333
		c0,0,17-13.666,32.5-11.833c0,0,21-27.999,50-37.833c0,0,17.667-9.834,7.167-30.667s-24.327-12.937-31.167-8
		c-9.583,6.916-39.771,40.322-51.5,56.333C1101.963,57.793,1105.463,74.127,1091.63,86.46z"/>
	<path d="M17.044,9.978C17.348,5.415,14.064,0,8.531,0C2.982,0-0.54,5.354,0.068,10.951c0.608,5.597,5.842,8.031,5.842,8.031
		S4.936,22.632,5.24,23.18c0.305,0.549,2.434-2.099,2.434-2.099s0.729,2.221,1.278,2.099c0.547-0.121,0.912-2.556,0.912-2.556
		s1.339,1.582,1.946,1.217c0.431-0.258-0.296-1.763-0.758-2.623c1.194,0.647,3.348,2.132,3.056,4.302
		c-0.273,2.031-3.355,3.227-3.355,3.227s-4.439,2.12-3.16,3.676c1.621,1.971,7.225,1.537,7.225,1.537l0.044-0.156
		c0,0-5.542-0.139-6.314-1.607c-0.324-0.615,1.202-1.989,3.982-3.24c2.466-1.109,2.826-2.746,2.861-3.305
		c0.032-0.532,0.105-3.93-4-5.403C12.958,17.311,16.736,14.588,17.044,9.978z M11.238,8.289c-0.321-1.365,0.154-2.646,1.062-2.86
		c0.909-0.214,1.907,0.719,2.229,2.085c0.321,1.365-0.153,2.646-1.062,2.859C12.557,10.588,11.56,9.654,11.238,8.289z"/>
</g>
</svg>
