<?xml version="1.0" encoding="utf-8"?>
<!-- Generator: Adobe Illustrator 16.0.4, SVG Export Plug-In . SVG Version: 6.00 Build 0)  -->
<!DOCTYPE svg PUBLIC "-//W3C//DTD SVG 1.1//EN" "http://www.w3.org/Graphics/SVG/1.1/DTD/svg11.dtd">
<svg version="1.1" fill="rgb(0, 14, 156)" xmlns="http://www.w3.org/2000/svg" xmlns:xlink="http://www.w3.org/1999/xlink" x="0px" y="0px"
	 width="23.479px" height="32px" viewBox="0 0 23.479 32" enable-background="new 0 0 23.479 32" xml:space="preserve">
<g id="Fondo_1_" display="none">
	<rect id="Fondo" x="-738.216" y="-1339.718" display="inline" fill="#FB6E92" width="1000" height="2438.351"/>
</g>
<g id="Guias">
</g>
<g id="Icons">
	<g display="none" opacity="0.2">
		<path display="inline" fill="#FFFFFF" d="M-328.207,136.803c-11.282,3.637-35.885,28.281-38.51,36.153
			c-2.621,7.851,12.065,36.153,18.865,37.705c6.793,1.59,56.584-20.437,58.153-28.284
			C-288.127,174.506-316.925,133.124-328.207,136.803z"/>
		<path display="inline" fill="#FFFFFF" d="M-225.239,56.645c-10.497,0.494-88.546,59.727-88.033,69.146
			c0.519,9.423,29.359,46.629,37.729,47.951c8.363,1.301,70.222-78.342,72.308-88.814C-201.15,74.432-214.767,56.105-225.239,56.645
			z"/>
		<path display="inline" fill="#FFFFFF" d="M89.696-229.8c-10.932-15.145-35.498-16.26-56.115-3.016
			c-7.87-4.009-17.022-7.233-27.767-9.215c0,0-391.394,317.516-477.854,378.833c0,0-3.302,7.003-8.775,18.407
			c98.108,68.715,86.957,120.568,86.957,120.568c-27.149-66.916-95.886-102.037-95.905-102.037
			c-24.626,50.699-68.835,139.307-92.309,172.113c0,0-0.039,18.016,22.025,29.48c0,0,150.072-101.023,193.329-109.639
			c0,0,23.883-23.283,60.697-58.922c-20.121,10.308-43.197,20.062-52.827,20.658c-16.772,1.053-36.153-39.437-34.583-53.775
			c1.57-14.338,153.521-139.574,176.038-137.984c22.54,1.57,29.875,22.518,30.414,37.725c0.205,6.549-13.655,26.547-30.414,48.013
			c113.26-108.668,256.184-243.842,297.086-273.84c0,0,0.414-10.661-3.14-24.688C94.238-192.468,100.251-215.132,89.696-229.8z
			 M-525.708,352.797c0,0-2.542-32.479-33.638-43.818C-559.346,308.979-507.117,285.344-525.708,352.797z"/>
	</g>
	<path display="none" opacity="0.5" fill="#71C8EA" enable-background="new    " d="M1042.839,86.46l3.333,3.333
		c0,0,17-13.666,32.5-11.833c0,0,21-27.999,50-37.833c0,0,17.667-9.834,7.167-30.667s-24.327-12.937-31.167-8
		c-9.583,6.916-39.771,40.322-51.5,56.333C1053.172,57.793,1056.672,74.127,1042.839,86.46z"/>
	<path d="M11.738,0C4.103,0-0.744,7.367,0.094,15.069c0.838,7.703,8.037,11.052,8.037,11.052s-1.34,5.021-0.921,5.775
		c0.418,0.754,3.35-2.889,3.35-2.889s1.005,3.057,1.758,2.889c0.754-0.168,1.256-3.517,1.256-3.517s1.842,2.177,2.68,1.675
		c0.837-0.503-1.508-4.438-1.508-4.438s8.173-3.868,8.707-11.888C23.87,7.451,19.352,0,11.738,0z M7.7,10.954
		c0.589-2.463,2.521-4.112,4.31-3.685c1.79,0.427,2.766,2.772,2.177,5.236c-0.59,2.463-2.521,4.113-4.311,3.685
		C8.085,15.763,7.111,13.419,7.7,10.954z M17.402,21.448c-0.411,0.315-9.208,0.729-9.245,0.271
		c-0.037-0.461-0.163-0.656,0.175-1.175c0.337-0.519,9.472-1.438,9.681-1.091C18.22,19.801,17.813,21.13,17.402,21.448z
		 M18.528,14.273c-1.251,0.296-2.623-0.988-3.065-2.867c-0.442-1.879,0.213-3.642,1.463-3.938c1.251-0.294,2.623,0.989,3.065,2.869
		C20.435,12.218,19.779,13.98,18.528,14.273z"/>
</g>
</svg>
