<?xml version="1.0" encoding="utf-8"?>
<!-- Generator: Adobe Illustrator 16.0.4, SVG Export Plug-In . SVG Version: 6.00 Build 0)  -->
<!DOCTYPE svg PUBLIC "-//W3C//DTD SVG 1.1//EN" "http://www.w3.org/Graphics/SVG/1.1/DTD/svg11.dtd">
<svg version="1.1" fill="rgb(0, 14, 156)" xmlns="http://www.w3.org/2000/svg" xmlns:xlink="http://www.w3.org/1999/xlink" x="0px" y="0px"
	 width="32px" height="24.855px" viewBox="0 0 32 24.855" enable-background="new 0 0 32 24.855" xml:space="preserve">
<g id="Fondo_1_" display="none">
	<rect id="Fondo" x="-785.951" y="-1343.289" display="inline" fill="#FB6E92" width="1000" height="2438.352"/>
</g>
<g id="Guias">
</g>
<g id="Icons">
	<g display="none" opacity="0.2">
		<path display="inline" fill="#FFFFFF" d="M-375.941,133.231c-11.282,3.637-35.885,28.281-38.51,36.153
			c-2.621,7.851,12.065,36.154,18.865,37.705c6.793,1.59,56.584-20.437,58.154-28.284
			C-335.861,170.935-364.659,129.553-375.941,133.231z"/>
		<path display="inline" fill="#FFFFFF" d="M-272.973,53.073c-10.498,0.493-88.546,59.726-88.034,69.146
			c0.519,9.423,29.36,46.629,37.729,47.951c8.363,1.301,70.221-78.341,72.307-88.814C-248.885,70.86-262.501,52.534-272.973,53.073z
			"/>
		<path display="inline" fill="#FFFFFF" d="M41.962-233.371c-10.933-15.146-35.498-16.26-56.115-3.017
			c-7.87-4.009-17.023-7.232-27.767-9.215c0,0-391.393,317.516-477.854,378.833c0,0-3.302,7.003-8.776,18.407
			c98.109,68.715,86.957,120.568,86.957,120.568c-27.149-66.916-95.885-102.037-95.905-102.037
			c-24.626,50.699-68.835,139.307-92.308,172.114c0,0-0.04,18.015,22.025,29.479c0,0,150.072-101.023,193.329-109.639
			c0,0,23.883-23.283,60.697-58.922c-20.121,10.308-43.197,20.062-52.827,20.658c-16.772,1.054-36.153-39.437-34.583-53.775
			c1.57-14.338,153.521-139.574,176.038-137.984c22.54,1.57,29.875,22.519,30.414,37.726c0.205,6.548-13.655,26.546-30.414,48.012
			C-151.867,9.17-8.943-126.004,31.959-156.002c0,0,0.414-10.661-3.141-24.688C46.504-196.039,52.518-218.703,41.962-233.371z
			 M-573.442,349.226c0,0-2.542-32.478-33.638-43.817C-607.08,305.407-554.852,281.772-573.442,349.226z"/>
	</g>
	<path display="none" opacity="0.5" fill="#71C8EA" enable-background="new    " d="M995.104,82.889l3.334,3.333
		c0,0,17-13.666,32.5-11.833c0,0,21-27.999,50-37.833c0,0,17.666-9.834,7.166-30.667s-24.326-12.937-31.166-8
		c-9.584,6.916-39.771,40.322-51.5,56.333C1005.438,54.222,1008.938,70.556,995.104,82.889z"/>
	<g>
		<ellipse cx="13.446" cy="12.653" rx="0.769" ry="1.306"/>
		<ellipse cx="17.749" cy="12.653" rx="0.769" ry="1.306"/>
		<path d="M17.199,17.888c0.041-0.012,0.08-0.021,0.121-0.034c4.117-1.248,6.802-4.409,5.996-7.06
			c-0.803-2.65-4.791-3.786-8.907-2.538c-4.115,1.249-6.8,4.41-5.996,7.061c0.574,1.894,2.774,3.014,5.483,3.043
			c-1.163,0.505-2.106,1.354-2.835,2.264c-0.979,0.062-1.861,0.091-2.102,0.021c-0.61-0.179-2.957-2.157-3.32-2.282
			c-0.363-0.124-0.491,0.384-0.44,0.722c0.051,0.338,2.304,3.392,2.701,3.54c0.168,0.062,0.969,0.101,1.84,0.125
			c-0.383,0.812-0.557,1.462-0.52,1.662c0.12,0.652,9.78,0.538,10.379,0C20.146,23.918,22.186,18.312,17.199,17.888z M12.52,15.927
			c-1.276-0.397-1.868-2.143-1.321-3.898c0.547-1.755,2.024-2.856,3.301-2.46c0.523,0.163,0.929,0.556,1.19,1.079
			c0.514-0.748,1.296-1.211,2.153-1.167c1.438,0.073,2.53,1.542,2.441,3.28s-1.326,3.088-2.765,3.014
			c-0.884-0.045-1.637-0.618-2.064-1.457C14.765,15.559,13.574,16.255,12.52,15.927z"/>
		<path d="M31.984,12.544L32,12.024c-1.959-0.151-4.076-0.071-5.521,0.023c0.504-1.148,0.68-2.364,0.445-3.57
			c-0.177-0.919-0.576-1.756-1.152-2.491c0.265-2.014,0.59-5.479-0.211-5.935c-0.724-0.414-2.793,1.726-4.068,3.168
			c-1.95-0.604-4.251-0.74-6.626-0.281c-1.239,0.239-2.398,0.623-3.449,1.117C9.98,2.706,8.146,1.18,7.451,1.472
			c-0.805,0.34-0.28,3.55,0.1,5.417C6.085,8.56,5.37,10.549,5.73,12.514c-1.432,0.19-3.699,0.55-5.73,1.137l0.12,0.507
			c0,0,3.249-0.874,5.698-1.253c0.092,0.356,0.215,0.7,0.372,1.028c-1.295,0.332-3.876,1.05-6.108,2.025l0.186,0.485
			c0,0,3.694-1.533,6.11-2.155c0.354,0.623,0.817,1.189,1.382,1.688c-0.059-0.135-0.112-0.271-0.155-0.416
			c-0.92-3.03,2.034-6.608,6.596-7.994c4.562-1.384,9.008-0.049,9.927,2.981c0.743,2.448-1.042,5.253-4.16,6.971
			c2.269-0.806,4.146-2.107,5.392-3.652c2.004-0.012,5.55,0.682,5.55,0.682l0.032-0.514c-1.993-0.438-4.207-0.534-5.284-0.556
			c0.237-0.33,0.446-0.669,0.625-1.016C28.741,12.353,31.984,12.544,31.984,12.544z"/>
	</g>
</g>
</svg>
