<?xml version="1.0" encoding="utf-8"?>
<!-- Generator: Adobe Illustrator 16.0.4, SVG Export Plug-In . SVG Version: 6.00 Build 0)  -->
<!DOCTYPE svg PUBLIC "-//W3C//DTD SVG 1.1//EN" "http://www.w3.org/Graphics/SVG/1.1/DTD/svg11.dtd">
<svg version="1.1" fill="rgb(0, 14, 156)" xmlns="http://www.w3.org/2000/svg" xmlns:xlink="http://www.w3.org/1999/xlink" x="0px" y="0px"
	 width="26.672px" height="32px" viewBox="0 0 26.672 32" enable-background="new 0 0 26.672 32" xml:space="preserve">
<g id="Fondo_1_" display="none">
	<rect id="Fondo" x="-841.507" y="-1339.522" display="inline" fill="#FB6E92" width="1000" height="2438.351"/>
</g>
<g id="Guias">
</g>
<g id="Icons">
	<g display="none" opacity="0.2">
		<path display="inline" fill="#FFFFFF" d="M-431.498,136.998c-11.282,3.636-35.885,28.281-38.51,36.152
			c-2.621,7.852,12.065,36.154,18.865,37.705c6.793,1.59,56.584-20.436,58.154-28.283
			C-391.418,174.701-420.216,133.318-431.498,136.998z"/>
		<path display="inline" fill="#FFFFFF" d="M-328.529,56.84c-10.498,0.494-88.546,59.727-88.034,69.146
			c0.519,9.423,29.36,46.629,37.729,47.951c8.363,1.301,70.221-78.342,72.307-88.814C-304.441,74.627-318.058,56.301-328.529,56.84z
			"/>
		<path display="inline" fill="#FFFFFF" d="M-13.595-229.604c-10.932-15.145-35.498-16.26-56.115-3.016
			c-7.87-4.009-17.023-7.233-27.767-9.215c0,0-391.393,317.515-477.854,378.833c0,0-3.302,7.003-8.776,18.406
			c98.109,68.716,86.957,120.568,86.957,120.568c-27.149-66.916-95.885-102.037-95.905-102.037
			c-24.626,50.699-68.835,139.308-92.308,172.114c0,0-0.04,18.015,22.025,29.479c0,0,150.072-101.023,193.329-109.639
			c0,0,23.883-23.283,60.697-58.922c-20.121,10.309-43.197,20.062-52.827,20.659c-16.772,1.054-36.153-39.437-34.583-53.776
			c1.57-14.338,153.521-139.574,176.038-137.983c22.54,1.569,29.875,22.518,30.414,37.725c0.205,6.548-13.655,26.546-30.414,48.013
			C-207.424,12.937-64.5-122.237-23.598-152.235c0,0,0.414-10.661-3.14-24.688C-9.053-192.272-3.04-214.937-13.595-229.604z
			 M-628.999,352.992c0,0-2.542-32.479-33.638-43.818C-662.637,309.174-610.408,285.539-628.999,352.992z"/>
	</g>
	<path display="none" opacity="0.5" fill="#71C8EA" enable-background="new    " d="M939.548,86.654l3.333,3.334
		c0,0,17-13.666,32.5-11.834c0,0,21-27.998,50-37.832c0,0,17.667-9.834,7.167-30.667c-10.5-20.833-24.327-12.937-31.167-8
		c-9.583,6.916-39.771,40.322-51.5,56.333C949.881,57.988,953.381,74.322,939.548,86.654z"/>
	<path d="M21.077,17.009c0.134-0.787,0.212-1.565,0.212-2.32C21.289,7.699,17.616,0,13.943,0C9.681,0,5.298,8.293,5.298,14.926
		c0,1.12,0.051,2.192,0.139,3.219c-8.936,3.914-4.255,13.256-3.87,13.424c0.474,0.207,3.302,0.119,3.494-0.236
		c0.142-0.262-2.161-4.674,1.378-7.281c1.19,4.576,2.939,7.311,3.36,7.577c0.651,0.415,3.376,0.415,4.146-0.177
		c0.443-0.342,2.815-3.5,4.746-7.475c1.908,2.563-0.174,7.01,0.109,7.354c0.415,0.504,3.006,0.829,3.731,0.588
		C23.159,31.711,32.385,19.749,21.077,17.009z M14.156,26.818c-0.436,1.33-1.725,2.103-2.879,1.724
		c-1.154-0.378-1.738-1.763-1.303-3.092c0.435-1.33,1.725-2.103,2.879-1.724C14.008,24.105,14.592,25.489,14.156,26.818z
		 M15.461,18.913c-0.638,1.944-2.407,3.112-3.952,2.606c-1.547-0.508-2.284-2.494-1.646-4.439c0.638-1.946,2.407-3.113,3.953-2.606
		C15.359,14.979,16.098,16.967,15.461,18.913z M15.712,9.821c-0.535,1.633-2.055,2.602-3.394,2.163
		c-1.34-0.438-1.992-2.118-1.458-3.752c0.535-1.634,2.055-2.603,3.395-2.164C15.596,6.507,16.247,8.187,15.712,9.821z"/>
</g>
</svg>
