<?xml version="1.0" encoding="utf-8"?>
<!-- Generator: Adobe Illustrator 16.0.4, SVG Export Plug-In . SVG Version: 6.00 Build 0)  -->
<!DOCTYPE svg PUBLIC "-//W3C//DTD SVG 1.1//EN" "http://www.w3.org/Graphics/SVG/1.1/DTD/svg11.dtd">
<svg version="1.1" fill="rgb(0, 14, 156)" xmlns="http://www.w3.org/2000/svg" xmlns:xlink="http://www.w3.org/1999/xlink" x="0px" y="0px"
	 width="30.504px" height="32px" viewBox="0 0 30.504 32" enable-background="new 0 0 30.504 32" xml:space="preserve">
<g id="Fondo_1_" display="none">
	<rect id="Fondo" x="-110.714" y="-1403.523" display="inline" fill="#FB6E92" width="1000" height="2438.351"/>
</g>
<g id="Guias">
</g>
<g id="Icons">
	<g display="none" opacity="0.2">
		<path display="inline" fill="#FFFFFF" d="M299.295,72.998c-11.281,3.635-35.885,28.28-38.51,36.152
			c-2.621,7.852,12.064,36.154,18.865,37.705c6.793,1.59,56.584-20.436,58.153-28.284
			C339.375,110.701,310.577,69.318,299.295,72.998z"/>
		<path display="inline" fill="#FFFFFF" d="M402.264-7.161c-10.498,0.494-88.546,59.726-88.033,69.146
			c0.519,9.423,29.359,46.63,37.729,47.951c8.363,1.301,70.221-78.341,72.307-88.813C426.352,10.626,412.735-7.7,402.264-7.161z"/>
		<path display="inline" fill="#FFFFFF" d="M717.198-293.605c-10.933-15.145-35.498-16.26-56.115-3.016
			c-7.87-4.009-17.023-7.233-27.767-9.215c0,0-391.394,317.515-477.854,378.833c0,0-3.302,7.002-8.776,18.406
			c98.109,68.715,86.957,120.568,86.957,120.568c-27.148-66.916-95.885-102.037-95.904-102.037
			c-24.627,50.699-68.836,139.307-92.309,172.113c0,0-0.039,18.016,22.025,29.48c0,0,150.072-101.023,193.329-109.639
			c0,0,23.883-23.283,60.696-58.922c-20.121,10.308-43.196,20.062-52.826,20.658c-16.772,1.054-36.153-39.437-34.584-53.775
			c1.57-14.338,153.521-139.574,176.039-137.984c22.54,1.57,29.875,22.518,30.414,37.725c0.204,6.548-13.655,26.546-30.414,48.012
			c113.26-108.668,256.184-243.842,297.086-273.84c0,0,0.414-10.661-3.141-24.688C721.74-256.273,727.753-278.938,717.198-293.605z
			 M101.794,288.992c0,0-2.542-32.479-33.638-43.818C68.156,245.173,120.385,221.539,101.794,288.992z"/>
	</g>
	<path display="none" opacity="0.5" fill="#71C8EA" enable-background="new    " d="M1670.341,22.654l3.333,3.333
		c0,0,17-13.666,32.5-11.833c0,0,21-27.999,50-37.833c0,0,17.667-9.834,7.167-30.667s-24.327-12.937-31.167-8
		c-9.583,6.916-39.771,40.322-51.5,56.333C1680.674-6.013,1684.174,10.321,1670.341,22.654z"/>
	<path d="M28.288,13.359c0.747-1.009,1.188-2.236,1.188-3.564c0-3.426-2.92-6.203-6.523-6.203c-0.807,0-1.576,0.146-2.29,0.4
		c-0.396-0.735-0.91-1.416-1.558-2.007c-3.22-2.938-8.333-2.574-11.423,0.812c-2.354,2.578-2.848,6.165-1.53,9.027
		C2.724,12.008,0,14.703,0,18.009c0,3.427,2.921,6.203,6.524,6.203c0.729,0,1.429-0.119,2.084-0.328L9.882,32l2.188-0.104
		l1.094-10.578l1.656,10.45l2.083-0.097l1.047-10.114l1.583,9.991l3.184-0.148l0.397-7.248c0.283,0.036,0.57,0.061,0.865,0.061
		c3.604,0,6.523-2.776,6.523-6.203C30.504,16.155,29.645,14.496,28.288,13.359z"/>
</g>
</svg>
