<?xml version="1.0" encoding="utf-8"?>
<!-- Generator: Adobe Illustrator 16.0.4, SVG Export Plug-In . SVG Version: 6.00 Build 0)  -->
<!DOCTYPE svg PUBLIC "-//W3C//DTD SVG 1.1//EN" "http://www.w3.org/Graphics/SVG/1.1/DTD/svg11.dtd">
<svg version="1.1" fill="rgb(0, 14, 156)" xmlns="http://www.w3.org/2000/svg" xmlns:xlink="http://www.w3.org/1999/xlink" x="0px" y="0px"
	 width="32px" height="29.184px" viewBox="0 0 32 29.184" enable-background="new 0 0 32 29.184" xml:space="preserve">
<g id="Fondo_1_" display="none">
	<rect id="Fondo" x="-161.966" y="-1404.341" display="inline" fill="#FB6E92" width="1000" height="2438.351"/>
</g>
<g id="Guias">
</g>
<g id="Icons">
	<g display="none" opacity="0.2">
		<path display="inline" fill="#FFFFFF" d="M248.043,72.18c-11.281,3.636-35.885,28.28-38.51,36.152
			c-2.621,7.852,12.064,36.154,18.865,37.705c6.793,1.59,56.584-20.436,58.153-28.284C288.123,109.883,259.325,68.501,248.043,72.18
			z"/>
		<path display="inline" fill="#FFFFFF" d="M351.012-7.979c-10.498,0.494-88.546,59.726-88.033,69.146
			c0.519,9.423,29.359,46.629,37.729,47.951c8.363,1.301,70.221-78.341,72.307-88.813C375.1,9.809,361.483-8.518,351.012-7.979z"/>
		<path display="inline" fill="#FFFFFF" d="M665.946-294.423c-10.933-15.145-35.498-16.26-56.115-3.016
			c-7.87-4.01-17.023-7.233-27.767-9.215c0,0-391.394,317.515-477.854,378.833c0,0-3.302,7.003-8.776,18.406
			c98.109,68.715,86.957,120.568,86.957,120.568c-27.148-66.916-95.885-102.037-95.904-102.037
			c-24.627,50.7-68.836,139.308-92.307,172.115c0,0-0.04,18.015,22.025,29.479c0,0,150.071-101.023,193.329-109.639
			c0,0,23.883-23.283,60.697-58.922c-20.121,10.308-43.197,20.062-52.828,20.659c-16.771,1.053-36.152-39.438-34.582-53.776
			C184.391,94.696,336.341-30.54,358.858-28.95c22.54,1.57,29.875,22.519,30.413,37.726c0.205,6.548-13.654,26.546-30.413,48.012
			C472.117-51.882,615.041-187.056,655.943-217.054c0,0,0.414-10.661-3.141-24.688C670.488-257.091,676.501-279.755,665.946-294.423
			z M50.542,288.174c0,0-2.542-32.478-33.638-43.817C16.904,244.355,69.133,220.721,50.542,288.174z"/>
	</g>
	<path display="none" opacity="0.5" fill="#71C8EA" enable-background="new    " d="M1619.089,21.837l3.333,3.333
		c0,0,17-13.666,32.5-11.833c0,0,21-27.999,50-37.833c0,0,17.667-9.834,7.167-30.667s-24.327-12.937-31.167-8
		c-9.583,6.916-39.771,40.322-51.5,56.333C1629.422-6.83,1632.922,9.504,1619.089,21.837z"/>
	<g>
		<path d="M31.866,12.78c-0.078-0.537-0.187-1.066-0.318-1.586c-0.101,2.235-0.784,4.755-2.438,7.435
			c-4.569,7.397-15.664,8.593-23.276,3.046C-0.224,17.263,2.849,6.612,4.36,2.439l-1.498,0.45
			c-3.896,5.795-3.896,15.177,0.509,20.396c2.396,2.839,6.782,6.887,15.143,5.676C27.003,27.731,32.982,20.486,31.866,12.78z"/>
		<path d="M7.274,19.729c6.525,4.754,16.033,3.729,19.949-2.609c0.135-0.222,0.246-0.437,0.367-0.654l-1.049-1.896h1.947
			c1.308-3.412,0.893-6.384,0.001-8.497h-1.554l0.785-1.467c-0.271-0.422-0.552-0.787-0.82-1.071
			c-2.604-2.295-6.025-3.664-9.86-3.523l-1.271,1.412l-0.331-1.27c-0.008,0-0.015,0-0.022,0.001
			c-0.333,0.048-0.685,0.132-1.043,0.229L14.06,1.771l-0.904-0.982c-1.788,0.677-3.649,1.709-4.925,2.475V3.262l-1.04-0.945l0,0
			L6.59,1.771l-0.301,0.09l0.19,0.173C5.71,3.893,1.286,15.366,7.274,19.729z M15.352,3.104c5.216-0.787,9.988,2.17,10.656,6.604
			c0.668,4.436-3.018,8.666-8.234,9.453c-5.217,0.786-9.988-2.17-10.656-6.604C6.448,8.123,10.135,3.891,15.352,3.104z"/>
	</g>
</g>
</svg>
