<?xml version="1.0" encoding="utf-8"?>
<!-- Generator: Adobe Illustrator 16.0.4, SVG Export Plug-In . SVG Version: 6.00 Build 0)  -->
<!DOCTYPE svg PUBLIC "-//W3C//DTD SVG 1.1//EN" "http://www.w3.org/Graphics/SVG/1.1/DTD/svg11.dtd">
<svg version="1.1" fill="rgb(0, 14, 156)" xmlns="http://www.w3.org/2000/svg" xmlns:xlink="http://www.w3.org/1999/xlink" x="0px" y="0px"
	 width="30.811px" height="32px" viewBox="0 0 30.811 32" enable-background="new 0 0 30.811 32" xml:space="preserve">
<g id="Fondo_1_" display="none">
	<rect id="Fondo" x="-214.562" y="-1403.523" display="inline" fill="#FB6E92" width="999.999" height="2438.351"/>
</g>
<g id="Guias">
</g>
<g id="Icons">
	<g display="none" opacity="0.2">
		<path display="inline" fill="#FFFFFF" d="M195.448,72.997c-11.282,3.636-35.885,28.28-38.51,36.153
			c-2.621,7.851,12.064,36.154,18.865,37.705c6.793,1.59,56.584-20.437,58.153-28.285C235.528,110.7,206.73,69.318,195.448,72.997z"
			/>
		<path display="inline" fill="#FFFFFF" d="M298.417-7.161c-10.498,0.494-88.546,59.726-88.034,69.146
			c0.52,9.424,29.36,46.63,37.729,47.951c8.363,1.301,70.221-78.34,72.307-88.813C322.504,10.626,308.887-7.7,298.417-7.161z"/>
		<path display="inline" fill="#FFFFFF" d="M613.35-293.605c-10.932-15.145-35.497-16.26-56.114-3.016
			c-7.87-4.009-17.023-7.233-27.768-9.215c0,0-391.393,317.515-477.854,378.833c0,0-3.302,7.003-8.776,18.407
			c98.109,68.715,86.957,120.568,86.957,120.568c-27.148-66.916-95.885-102.037-95.904-102.037
			C9.265,160.635-34.944,249.242-58.417,282.05c0,0-0.04,18.015,22.025,29.479c0,0,150.072-101.023,193.329-109.639
			c0,0,23.883-23.283,60.696-58.922c-20.12,10.309-43.196,20.062-52.826,20.659c-16.772,1.054-36.153-39.437-34.583-53.776
			c1.569-14.338,153.521-139.574,176.037-137.983c22.54,1.57,29.875,22.518,30.414,37.725c0.205,6.548-13.654,26.546-30.414,48.013
			C419.522-51.064,562.446-186.238,603.347-216.236c0,0,0.414-10.661-3.14-24.688C617.892-256.273,623.906-278.938,613.35-293.605z
			 M-2.053,288.991c0,0-2.542-32.478-33.638-43.818C-35.691,245.173,16.538,221.538-2.053,288.991z"/>
	</g>
	<path display="none" opacity="0.5" fill="#71C8EA" enable-background="new    " d="M1566.494,22.654l3.333,3.332
		c0,0,17-13.666,32.5-11.833c0,0,21-27.999,50-37.833c0,0,17.667-9.834,7.167-30.667s-24.327-12.937-31.167-8
		c-9.583,6.916-39.771,40.322-51.5,56.333C1576.827-6.013,1580.327,10.321,1566.494,22.654z"/>
	<path d="M24.385,24.547c-0.689-0.712-1.326-1.561-1.893-2.425c2.695,0.394,7.108,0.54,7.247-2.685
		c0.028-0.658-2.487-0.23-4.646-0.979c-2.157-0.748-3.822-2.688-3.822-2.688s-1.864-2.049-2.225-7.514
		c-0.063-0.97-1.205-1.398-2.606-1.503c0.043-0.747,0.124-1.806,0.269-2.861c0.242-1.763,0.712-3.51,0.56-3.751
		c-0.322-0.507-4.235,0.46-4.326,1.059c-0.232,1.526,0.396,4.272,0.766,5.686c-1.434,0.222-2.618,0.64-2.698,1.033
		c-0.583,2.854-2.086,6.412-2.086,6.412s-1.087,2.979-3.325,4.603c-2.135,1.547-5.423,1.729-5.572,2.209
		c-0.27,0.861,1.641,5.131,8.181,2.621c-0.137,0.346-0.286,0.698-0.449,1.062c-1.279,2.832-4.304,5.049-3.375,6.504
		c0.64,1.001,7.049,2.103,10.213-6.495c0.944,1.839,2.433,3.993,4.637,5.361c3.574,2.22,10.096,1.759,11.514-1.043
		C31.396,27.863,27.003,27.249,24.385,24.547z"/>
</g>
</svg>
