<?xml version="1.0" encoding="utf-8"?>
<!-- Generator: Adobe Illustrator 16.0.4, SVG Export Plug-In . SVG Version: 6.00 Build 0)  -->
<!DOCTYPE svg PUBLIC "-//W3C//DTD SVG 1.1//EN" "http://www.w3.org/Graphics/SVG/1.1/DTD/svg11.dtd">
<svg version="1.1" fill="rgb(0, 14, 156)" xmlns="http://www.w3.org/2000/svg" xmlns:xlink="http://www.w3.org/1999/xlink" x="0px" y="0px"
	 width="24.036px" height="32px" viewBox="0 0 24.036 32" enable-background="new 0 0 24.036 32" xml:space="preserve">
<g id="Fondo_1_" display="none">
	<rect id="Fondo" x="-270.25" y="-1403.522" display="inline" fill="#FB6E92" width="1000" height="2438.352"/>
</g>
<g id="Guias">
</g>
<g id="Icons">
	<g display="none" opacity="0.2">
		<path display="inline" fill="#FFFFFF" d="M139.76,72.998c-11.282,3.637-35.885,28.281-38.51,36.153
			c-2.621,7.851,12.064,36.154,18.865,37.705c6.793,1.59,56.584-20.437,58.153-28.284C179.84,110.701,151.042,69.319,139.76,72.998z
			"/>
		<path display="inline" fill="#FFFFFF" d="M242.729-7.16c-10.498,0.494-88.546,59.726-88.034,69.146
			c0.519,9.424,29.36,46.629,37.729,47.951c8.363,1.301,70.221-78.341,72.307-88.814C266.816,10.627,253.2-7.699,242.729-7.16z"/>
		<path display="inline" fill="#FFFFFF" d="M557.663-293.604c-10.932-15.145-35.498-16.26-56.115-3.016
			c-7.869-4.009-17.021-7.233-27.766-9.215c0,0-391.394,317.515-477.854,378.833c0,0-3.302,7.004-8.776,18.408
			c98.109,68.715,86.957,120.567,86.957,120.567c-27.148-66.916-95.885-102.037-95.905-102.037
			c-24.626,50.699-68.835,139.308-92.308,172.114c0,0-0.04,18.015,22.025,29.48c0,0,150.073-101.025,193.329-109.64
			c0,0,23.883-23.283,60.697-58.922c-20.121,10.308-43.197,20.062-52.826,20.659c-16.772,1.053-36.154-39.438-34.584-53.776
			c1.57-14.338,153.521-139.574,176.039-137.984c22.539,1.57,29.875,22.518,30.414,37.725c0.204,6.548-13.656,26.546-30.414,48.012
			c113.26-108.668,256.184-243.842,297.086-273.84c0,0,0.414-10.661-3.141-24.688C562.206-256.272,568.217-278.937,557.663-293.604z
			 M-57.741,288.992c0,0-2.542-32.478-33.638-43.818C-91.379,245.173-39.15,221.539-57.741,288.992z"/>
	</g>
	<path display="none" opacity="0.5" fill="#71C8EA" enable-background="new    " d="M1510.805,22.655l3.334,3.333
		c0,0,17-13.666,32.5-11.833c0,0,21-27.999,50-37.833c0,0,17.666-9.834,7.166-30.667s-24.326-12.937-31.166-8
		c-9.584,6.916-39.771,40.322-51.5,56.333C1521.139-6.012,1524.639,10.322,1510.805,22.655z"/>
	<path d="M24.036,13.287c0-2.172-3.826-3.291-5.697-3.709c1.826-4.736,3.974-8.814,2.996-9.336
		C19.222-0.886,12.948,2.02,9.537,7.053C4.898,6.496,0.966,8.898,0.966,9.676c0,1.338,1.911,2.023,3.668,2.914
		c-1.189,0.812-2.475,1.857-3.374,3.056c-2.432,3.243-0.697,7.982-0.147,8.402c1.367,1.041,3.598-3.493,6.386-4.516
		c0.696,4.098,2.161,7.406,2.532,7.635c0.317,0.195,0.708,0.232,1.114,0.18c-0.063,0.92-0.281,4.355,0.017,4.583
		c0.344,0.262,1.818-0.263,2.163-0.731c0.277-0.383-0.344-3.297-0.592-4.396c0.598-0.305,1.033-0.615,1.033-0.615
		s0.369-1.68,1.087-4.562c0.476,2.174,1.474,5.705,2.991,6.109c2.211,0.59,4.934-4.418,4.938-7.812
		c0.002-1.992-1.07-3.832-2.322-5.301C22.368,14.061,24.036,14.143,24.036,13.287z M11.306,17.655
		c-0.791-0.083-4.75-5.084-4.75-5.084s4.125,2.75,5.083,2.917s5.917-2.167,5.917-2.167S12.097,17.738,11.306,17.655z"/>
</g>
</svg>
