<?xml version="1.0" encoding="utf-8"?>
<!-- Generator: Adobe Illustrator 16.0.4, SVG Export Plug-In . SVG Version: 6.00 Build 0)  -->
<!DOCTYPE svg PUBLIC "-//W3C//DTD SVG 1.1//EN" "http://www.w3.org/Graphics/SVG/1.1/DTD/svg11.dtd">
<svg version="1.1" fill="rgb(0, 14, 156)" xmlns="http://www.w3.org/2000/svg" xmlns:xlink="http://www.w3.org/1999/xlink" x="0px" y="0px"
	 width="32px" height="27.9px" viewBox="0 0 32 27.9" enable-background="new 0 0 32 27.9" xml:space="preserve">
<g id="Fondo_1_" display="none">
	<rect id="Fondo" x="-318.244" y="-1405.573" display="inline" fill="#FB6E92" width="1000" height="2438.352"/>
</g>
<g id="Guias">
</g>
<g id="Icons">
	<g display="none" opacity="0.2">
		<path display="inline" fill="#FFFFFF" d="M91.766,70.947C80.482,74.583,55.88,99.228,53.255,107.1
			c-2.621,7.851,12.065,36.153,18.865,37.705c6.793,1.59,56.584-20.437,58.153-28.284C131.846,108.65,103.047,67.269,91.766,70.947z
			"/>
		<path display="inline" fill="#FFFFFF" d="M194.734-9.211c-10.498,0.494-88.547,59.727-88.034,69.146
			c0.519,9.423,29.36,46.629,37.729,47.95c8.362,1.302,70.221-78.341,72.307-88.813C218.822,8.576,205.206-9.75,194.734-9.211z"/>
		<path display="inline" fill="#FFFFFF" d="M509.668-295.656c-10.932-15.145-35.498-16.26-56.115-3.016
			c-7.87-4.009-17.022-7.232-27.767-9.215c0,0-391.394,317.515-477.854,378.833c0,0-3.302,7.003-8.776,18.407
			c98.109,68.715,86.957,120.567,86.957,120.567c-27.149-66.916-95.885-102.037-95.905-102.037
			c-24.625,50.7-68.834,139.308-92.307,172.115c0,0-0.04,18.016,22.025,29.48c0,0,150.072-101.024,193.329-109.64
			c0,0,23.884-23.282,60.697-58.922c-20.121,10.309-43.197,20.062-52.827,20.659c-16.771,1.053-36.152-39.437-34.583-53.776
			C28.111,93.464,180.062-31.772,202.58-30.182c22.54,1.57,29.875,22.518,30.414,37.725c0.205,6.548-13.655,26.546-30.414,48.013
			c113.259-108.67,256.183-243.844,297.086-273.842c0,0,0.414-10.661-3.14-24.688C514.21-258.323,520.223-280.987,509.668-295.656z
			 M-105.736,286.941c0,0-2.542-32.479-33.638-43.818C-139.374,243.123-87.145,219.488-105.736,286.941z"/>
	</g>
	<path display="none" opacity="0.5" fill="#71C8EA" enable-background="new    " d="M1462.811,20.604l3.334,3.333
		c0,0,17-13.666,32.5-11.833c0,0,21-27.999,50-37.833c0,0,17.666-9.834,7.166-30.667s-24.326-12.938-31.166-8
		c-9.584,6.916-39.771,40.321-51.5,56.333C1473.145-8.062,1476.645,8.271,1462.811,20.604z"/>
	<g>
		<path d="M31.52,10.036c-1.832,3.283-5.93,4.719-5.93,4.719c3.49-3.257,4.094-8.711,4.094-8.711
			c-0.158-2.551-3.562-4.363-6.311-4.944c0.62,5.466-2.145,9.301-2.145,9.301c1.401-5.354-0.473-9.408-0.473-9.408
			C18.886-1.151,10.315,0.16,8.467,5.104c0,0,0.839,4.636,1.844,6.935c0.032,0.075,0.064,0.146,0.097,0.216
			c0.978,2.062-2.759-4.034-3.212-7.409C4.688,5.23,1.713,9.763,2.003,12.078c0.057,0.453,0.223,0.904,0.464,1.348
			c0,0,1.511,2.597,4.64,4.416c0,0-4.065-1.037-6.249-3.867c-0.696,1.802-2.003,6.492,1.231,10.553
			c3.51,4.406,10.485,4.015,10.47,1.572c-0.009-1.564-1.79-4.702-4.332-7.494c1.875-0.375,3.128-1.979,3.458-2.544
			c1.329,0.48,4.986,0.961,7.559-0.699c0.689,0.55,1.818,1.051,2.766,1.168l-0.02,0.027c0,0-2.239,8.342,2.107,9.409
			c1.243,0.307,5.229-2.529,7.454-9.642C32.268,14.041,32.027,11.824,31.52,10.036z"/>
	</g>
</g>
</svg>
