<?xml version="1.0" encoding="utf-8"?>
<!-- Generator: Adobe Illustrator 16.0.4, SVG Export Plug-In . SVG Version: 6.00 Build 0)  -->
<!DOCTYPE svg PUBLIC "-//W3C//DTD SVG 1.1//EN" "http://www.w3.org/Graphics/SVG/1.1/DTD/svg11.dtd">
<svg version="1.1" fill="rgb(0, 14, 156)" xmlns="http://www.w3.org/2000/svg" xmlns:xlink="http://www.w3.org/1999/xlink" x="0px" y="0px"
	 width="32px" height="29.176px" viewBox="0 0 32 29.176" enable-background="new 0 0 32 29.176" xml:space="preserve">
<g id="Fondo_1_" display="none">
	<rect id="Fondo" x="-370.129" y="-1404.936" display="inline" fill="#FB6E92" width="1000" height="2438.351"/>
</g>
<g id="Guias">
</g>
<g id="Icons">
	<g display="none" opacity="0.2">
		<path display="inline" fill="#FFFFFF" d="M39.88,71.585C28.598,75.221,3.995,99.866,1.37,107.738
			c-2.621,7.851,12.065,36.154,18.864,37.705c6.793,1.59,56.584-20.437,58.154-28.284C79.96,109.288,51.162,67.906,39.88,71.585z"/>
		<path display="inline" fill="#FFFFFF" d="M142.85-8.573c-10.498,0.494-88.547,59.726-88.035,69.146
			c0.52,9.423,29.36,46.629,37.729,47.95c8.363,1.302,70.222-78.34,72.308-88.813C166.938,9.214,153.32-9.112,142.85-8.573z"/>
		<path display="inline" fill="#FFFFFF" d="M457.783-295.018c-10.933-15.145-35.498-16.26-56.115-3.016
			c-7.87-4.009-17.023-7.233-27.767-9.215c0,0-391.394,317.515-477.854,378.833c0,0-3.302,7.003-8.776,18.407
			c98.109,68.715,86.957,120.567,86.957,120.567c-27.149-66.916-95.885-102.037-95.905-102.037
			c-24.626,50.699-68.835,139.308-92.308,172.115c0,0-0.04,18.014,22.025,29.479c0,0,150.072-101.024,193.329-109.64
			c0,0,23.883-23.283,60.697-58.922c-20.121,10.309-43.197,20.062-52.828,20.659c-16.772,1.054-36.153-39.437-34.583-53.776
			C-23.774,94.1,128.177-31.136,150.693-29.546c22.541,1.57,29.875,22.518,30.414,37.725c0.205,6.548-13.654,26.545-30.414,48.012
			C263.954-52.477,406.878-187.65,447.78-217.648c0,0,0.414-10.661-3.141-24.688C462.325-257.686,468.338-280.35,457.783-295.018z
			 M-157.621,287.579c0,0-2.542-32.478-33.638-43.817C-191.259,243.762-139.03,220.126-157.621,287.579z"/>
	</g>
	<path display="none" opacity="0.5" fill="#71C8EA" enable-background="new    " d="M1410.926,21.242l3.333,3.333
		c0,0,17-13.666,32.5-11.833c0,0,21-27.999,50-37.833c0,0,17.667-9.834,7.167-30.667s-24.327-12.937-31.167-8
		c-9.583,6.916-39.771,40.322-51.5,56.333C1421.259-7.425,1424.759,8.909,1410.926,21.242z"/>
	<g>
		<path d="M31.938,11.885C31.42,9.964,26.229,1.712,23.221,1.764c-3.011,0.052-8.046,2.283-8.046,2.283s0.401-3.275-0.954-3.979
			c-0.501-0.261-2.589,0.247-5.016,1.257c0,0,1.898,9.33,1.247,10.145C9.801,12.285,0.31,12.542,0.31,12.542
			c1.035,5.021,4.423,11.087,6.353,11.59c2.388,0.624,4.412-1.192,4.412-1.192l0.312-3.113c0,0,0.726,5.033,2.335,5.138
			c1.609,0.104,9.653-3.735,9.653-3.735l0.623,4.981l-2.958,0.622c0,0,1.608-1.661,1.246-2.646
			c-0.363-0.985-2.751-0.623-3.425-0.154c-0.674,0.467-1.973,2.438-1.713,3.736c0.26,1.297,3.373,1.453,4.981,1.4
			c1.609-0.052,5.345-1.298,6.384-2.646C29.552,25.171,32.457,13.805,31.938,11.885z M24.932,16.088h-5.761
			c0,0,0.882-4.671,3.789-4.931C25.866,10.898,24.932,16.088,24.932,16.088z"/>
		<path d="M7.961,9.133c0.652-0.787,0.176-7.341,0.176-7.341C4.363,3.526,0.227,6.314,0.02,9.237
			c-0.055,0.78,0.006,1.652,0.155,2.572C0.175,11.81,7.309,9.92,7.961,9.133z"/>
	</g>
</g>
</svg>
