<?xml version="1.0" encoding="utf-8"?>
<!-- Generator: Adobe Illustrator 16.0.4, SVG Export Plug-In . SVG Version: 6.00 Build 0)  -->
<!DOCTYPE svg PUBLIC "-//W3C//DTD SVG 1.1//EN" "http://www.w3.org/Graphics/SVG/1.1/DTD/svg11.dtd">
<svg version="1.1" fill="rgb(0, 14, 156)" xmlns="http://www.w3.org/2000/svg" xmlns:xlink="http://www.w3.org/1999/xlink" x="0px" y="0px"
	 width="30.053px" height="32px" viewBox="0 0 30.053 32" enable-background="new 0 0 30.053 32" xml:space="preserve">
<g id="Fondo_1_" display="none">
	<rect id="Fondo" x="-474.966" y="-1403.522" display="inline" fill="#FB6E92" width="1000" height="2438.351"/>
</g>
<g id="Guias">
</g>
<g id="Icons">
	<g display="none" opacity="0.2">
		<path display="inline" fill="#FFFFFF" d="M-64.957,72.998c-11.282,3.636-35.885,28.281-38.51,36.152
			c-2.621,7.852,12.064,36.154,18.864,37.705c6.793,1.59,56.584-20.436,58.154-28.283C-24.876,110.701-53.674,69.318-64.957,72.998z
			"/>
		<path display="inline" fill="#FFFFFF" d="M38.012-7.16C27.514-6.666-50.534,52.564-50.022,61.984
			c0.52,9.424,29.36,46.63,37.729,47.951c8.362,1.301,70.221-78.34,72.307-88.813C62.1,10.627,48.484-7.699,38.012-7.16z"/>
		<path display="inline" fill="#FFFFFF" d="M352.948-293.604c-10.933-15.145-35.498-16.26-56.115-3.016
			c-7.87-4.009-17.023-7.233-27.768-9.215c0,0-391.393,317.515-477.854,378.833c0,0-3.302,7.003-8.776,18.407
			c98.109,68.715,86.957,120.567,86.957,120.567c-27.148-66.916-95.885-102.037-95.905-102.037
			c-24.626,50.699-68.835,139.308-92.308,172.114c0,0-0.04,18.015,22.025,29.48c0,0,150.071-101.024,193.329-109.64
			c0,0,23.883-23.283,60.696-58.922c-20.121,10.309-43.196,20.062-52.827,20.659c-16.771,1.054-36.152-39.437-34.583-53.776
			C-128.608,95.516,23.342-29.721,45.86-28.131C68.4-26.561,75.735-5.613,76.274,9.594c0.205,6.548-13.654,26.547-30.414,48.012
			c113.259-108.668,256.183-243.842,297.085-273.84c0,0,0.414-10.661-3.141-24.688C357.49-256.272,363.501-278.937,352.948-293.604z
			 M-262.458,288.992c0,0-2.542-32.479-33.639-43.818C-296.094,245.174-243.867,221.539-262.458,288.992z"/>
	</g>
	<path display="none" opacity="0.5" fill="#71C8EA" enable-background="new    " d="M1306.089,22.654l3.333,3.334
		c0,0,17-13.667,32.5-11.833c0,0,21-27.999,50-37.833c0,0,17.667-9.834,7.167-30.667s-24.327-12.937-31.167-8
		c-9.583,6.916-39.771,40.322-51.5,56.333C1316.422-6.012,1319.922,10.322,1306.089,22.654z"/>
	<path d="M20.039,0.691C12.217-1.87,3.633,2.908,0.865,11.364c-2.769,8.454,1.328,17.384,9.149,19.944
		c7.821,2.562,16.406-2.218,19.174-10.673C31.957,12.181,27.861,3.252,20.039,0.691z M10.086,10.832
		c-1.222-0.982-1.217-3.02,0.013-4.551c1.23-1.531,3.218-1.976,4.44-0.994c1.222,0.982,1.217,3.02-0.014,4.551
		C13.296,11.369,11.308,11.812,10.086,10.832z M19.765,15.397c-1.135,1.433-3.015,1.832-4.198,0.895
		c-1.183-0.938-1.224-2.859-0.088-4.292c1.137-1.432,3.016-1.831,4.198-0.894C20.861,12.045,20.901,13.966,19.765,15.397z
		 M22.064,7.347c-1.049,1.307-2.798,1.644-3.903,0.755c-1.107-0.89-1.155-2.67-0.106-3.976c1.05-1.307,2.798-1.644,3.905-0.755
		C23.065,4.262,23.113,6.041,22.064,7.347z"/>
</g>
</svg>
