<?xml version="1.0" encoding="utf-8"?>
<!-- Generator: Adobe Illustrator 16.0.4, SVG Export Plug-In . SVG Version: 6.00 Build 0)  -->
<!DOCTYPE svg PUBLIC "-//W3C//DTD SVG 1.1//EN" "http://www.w3.org/Graphics/SVG/1.1/DTD/svg11.dtd">
<svg version="1.1" fill="rgb(0, 14, 156)" xmlns="http://www.w3.org/2000/svg" xmlns:xlink="http://www.w3.org/1999/xlink" x="0px" y="0px"
	 width="25.011px" height="32px" viewBox="0 0 25.011 32" enable-background="new 0 0 25.011 32" xml:space="preserve">
<g id="Fondo_1_" display="none">
	<rect id="Fondo" x="-529.625" y="-1403.522" display="inline" fill="#FB6E92" width="1000" height="2438.351"/>
</g>
<g id="Guias">
</g>
<g id="Icons">
	<g display="none" opacity="0.2">
		<path display="inline" fill="#FFFFFF" d="M-119.615,72.998c-11.282,3.636-35.885,28.281-38.51,36.152
			c-2.621,7.852,12.065,36.154,18.865,37.705c6.793,1.59,56.584-20.436,58.154-28.283
			C-79.535,110.701-108.333,69.318-119.615,72.998z"/>
		<path display="inline" fill="#FFFFFF" d="M-16.646-7.16c-10.498,0.494-88.546,59.727-88.034,69.146
			c0.519,9.423,29.36,46.629,37.729,47.951c8.363,1.301,70.221-78.342,72.307-88.814C7.441,10.627-6.175-7.699-16.646-7.16z"/>
		<path display="inline" fill="#FFFFFF" d="M298.289-293.604c-10.933-15.145-35.498-16.26-56.115-3.016
			c-7.87-4.009-17.023-7.233-27.768-9.215c0,0-391.393,317.515-477.854,378.833c0,0-3.302,7.003-8.776,18.407
			c98.109,68.715,86.957,120.567,86.957,120.567c-27.149-66.916-95.885-102.037-95.905-102.037
			c-24.626,50.699-68.835,139.308-92.308,172.114c0,0-0.04,18.015,22.025,29.48c0,0,150.072-101.024,193.329-109.64
			c0,0,23.883-23.283,60.697-58.922c-20.121,10.309-43.197,20.062-52.827,20.659c-16.772,1.054-36.153-39.437-34.583-53.776
			C-183.267,95.516-31.316-29.721-8.799-28.131c22.541,1.57,29.875,22.518,30.414,37.725C21.82,16.142,7.96,36.141-8.799,57.605
			c113.257-108.668,256.181-243.842,297.083-273.84c0,0,0.414-10.661-3.14-24.688C302.83-256.272,308.843-278.937,298.289-293.604z
			 M-317.116,288.992c0,0-2.542-32.479-33.638-43.818C-350.754,245.174-298.525,221.539-317.116,288.992z"/>
	</g>
	<path display="none" opacity="0.5" fill="#71C8EA" enable-background="new    " d="M1251.431,22.654l3.332,3.334
		c0,0,17-13.667,32.5-11.833c0,0,21-27.999,50-37.833c0,0,17.668-9.834,7.168-30.667s-24.328-12.937-31.168-8
		c-9.582,6.916-39.77,40.322-51.5,56.333C1261.763-6.012,1265.263,10.322,1251.431,22.654z"/>
	<path d="M19.35,10.015c3.663-3.516,1.917-9.78,1.126-10.007c-0.475-0.135-4.915,1.413-6.105,4.275
		c-0.283,0.679-0.42,1.416-0.461,2.16c-1.685-2.819-5.292-3.736-5.685-3.326c-0.265,0.275-0.898,3.819,0.31,5.96
		c-3.519,1.428-7.331,4.412-8.27,8.412c-1.399,5.966,2.927,14.021,8.578,14.468c5.274,0.48,11.157-3.025,8.899-15.077
		c0,0,4.514,6.587,0.096,14.509c3.324-1.494,5.945-4.479,6.849-8.322C25.904,17.868,23.606,12.677,19.35,10.015z"/>
</g>
</svg>
