<?xml version="1.0" encoding="utf-8"?>
<!-- Generator: Adobe Illustrator 16.0.4, SVG Export Plug-In . SVG Version: 6.00 Build 0)  -->
<!DOCTYPE svg PUBLIC "-//W3C//DTD SVG 1.1//EN" "http://www.w3.org/Graphics/SVG/1.1/DTD/svg11.dtd">
<svg version="1.1" fill="rgb(0, 14, 156)" xmlns="http://www.w3.org/2000/svg" xmlns:xlink="http://www.w3.org/1999/xlink" x="0px" y="0px"
	 width="32px" height="28.846px" viewBox="0 0 32 28.846" enable-background="new 0 0 32 28.846" xml:space="preserve">
<g id="Fondo_1_" display="none">
	<rect id="Fondo" x="-577.897" y="-1405.1" display="inline" fill="#FB6E92" width="1000" height="2438.352"/>
</g>
<g id="Guias">
</g>
<g id="Icons">
	<g display="none" opacity="0.2">
		<path display="inline" fill="#FFFFFF" d="M-167.888,71.421c-11.282,3.636-35.885,28.281-38.51,36.153
			c-2.621,7.851,12.065,36.153,18.865,37.704c6.793,1.591,56.584-20.436,58.154-28.283
			C-127.808,109.124-156.605,67.742-167.888,71.421z"/>
		<path display="inline" fill="#FFFFFF" d="M-64.919-8.737c-10.498,0.494-88.546,59.727-88.034,69.146
			c0.519,9.423,29.36,46.629,37.729,47.95c8.363,1.302,70.221-78.341,72.307-88.813C-40.831,9.05-54.447-9.276-64.919-8.737z"/>
		<path display="inline" fill="#FFFFFF" d="M250.016-295.182c-10.932-15.145-35.498-16.26-56.115-3.016
			c-7.869-4.009-17.022-7.233-27.767-9.215c0,0-391.393,317.515-477.854,378.833c0,0-3.302,7.003-8.776,18.407
			c98.109,68.715,86.957,120.567,86.957,120.567c-27.149-66.916-95.885-102.037-95.905-102.037
			c-24.626,50.699-68.835,139.308-92.308,172.114c0,0-0.04,18.015,22.025,29.48c0,0,150.072-101.024,193.329-109.64
			c0,0,23.883-23.283,60.697-58.922c-20.121,10.309-43.197,20.062-52.827,20.659c-16.772,1.053-36.153-39.437-34.583-53.776
			C-231.54,93.938-79.589-31.298-57.071-29.708c22.54,1.569,29.875,22.518,30.414,37.725c0.205,6.548-13.655,26.546-30.414,48.012
			c113.258-108.67,256.18-243.843,297.084-273.841c0,0,0.413-10.661-3.141-24.688C254.559-257.85,260.57-280.514,250.016-295.182z
			 M-365.389,287.415c0,0-2.542-32.479-33.638-43.818C-399.026,243.597-346.798,219.962-365.389,287.415z"/>
	</g>
	<path display="none" opacity="0.5" fill="#71C8EA" enable-background="new    " d="M1203.158,21.078l3.333,3.333
		c0,0,17-13.666,32.5-11.833c0,0,21-27.999,50-37.833c0,0,17.667-9.834,7.167-30.667s-24.327-12.938-31.167-8
		c-9.583,6.916-39.771,40.321-51.5,56.333C1213.491-7.589,1216.991,8.745,1203.158,21.078z"/>
	<g>
		<path d="M26.216,0.003c-0.129-0.031-0.599,0.183-1.319,0.58c2.199,2.62,10.225,13.567-1.058,22.188
			c-10.01,7.648-20.574-4.376-22.357-6.553c-0.909,0.697-1.451,1.165-1.479,1.304c-0.191,0.959,12.709,18.963,26.087,7.544
			C38.748,14.261,27.303,0.258,26.216,0.003z"/>
		<path d="M23.268,22.07c11.776-9,0.494-20.778,0.494-20.778L2.479,15.604C2.479,15.604,13.251,29.723,23.268,22.07z M25.832,11.927
			c0.637,0.78,0.927,2.094,0.719,2.237c-0.353,0.244-1.46-0.097-2.158-1.007c-0.627-0.819-0.897-2.262-0.67-2.397
			C23.979,10.605,25.049,10.968,25.832,11.927z M22.57,4.622c0.257-0.154,1.328,0.207,2.109,1.167
			c0.639,0.779,0.928,2.094,0.721,2.236c-0.354,0.244-1.461-0.097-2.158-1.007C22.614,6.2,22.344,4.758,22.57,4.622z M21.996,14.611
			c0.637,0.781,0.927,2.096,0.719,2.238c-0.354,0.244-1.46-0.097-2.158-1.007c-0.627-0.819-0.897-2.261-0.671-2.397
			C20.143,13.291,21.213,13.652,21.996,14.611z M18.352,7.691c0.256-0.153,1.328,0.207,2.109,1.166
			c0.639,0.781,0.928,2.095,0.719,2.238c-0.353,0.244-1.459-0.097-2.156-1.007C18.395,9.27,18.124,7.827,18.352,7.691z
			 M18.159,17.297c0.638,0.781,0.927,2.095,0.719,2.238c-0.353,0.243-1.459-0.098-2.157-1.008c-0.628-0.818-0.897-2.262-0.672-2.396
			C16.306,15.977,17.377,16.338,18.159,17.297z M14.515,10.376c0.257-0.153,1.327,0.208,2.11,1.167
			c0.639,0.78,0.927,2.094,0.719,2.238c-0.353,0.242-1.46-0.098-2.157-1.009C14.559,11.955,14.288,10.513,14.515,10.376z
			 M14.707,19.982c0.637,0.781,0.927,2.095,0.719,2.238c-0.353,0.244-1.46-0.097-2.158-1.007c-0.628-0.819-0.898-2.262-0.671-2.397
			C12.854,18.662,13.924,19.023,14.707,19.982z M10.679,13.062c0.257-0.153,1.327,0.208,2.11,1.167
			c0.637,0.78,0.927,2.095,0.719,2.237c-0.353,0.244-1.46-0.097-2.158-1.007C10.722,14.64,10.451,13.198,10.679,13.062z
			 M7.226,15.747c0.257-0.154,1.328,0.207,2.11,1.167c0.638,0.779,0.927,2.094,0.719,2.236c-0.353,0.244-1.46-0.097-2.157-1.007
			C7.27,17.325,6.999,15.883,7.226,15.747z"/>
	</g>
</g>
</svg>
