<?xml version="1.0" encoding="utf-8"?>
<!-- Generator: Adobe Illustrator 16.0.4, SVG Export Plug-In . SVG Version: 6.00 Build 0)  -->
<!DOCTYPE svg PUBLIC "-//W3C//DTD SVG 1.1//EN" "http://www.w3.org/Graphics/SVG/1.1/DTD/svg11.dtd">
<svg version="1.1" fill="rgb(0, 14, 156)" xmlns="http://www.w3.org/2000/svg" xmlns:xlink="http://www.w3.org/1999/xlink" x="0px" y="0px"
	 width="32px" height="32px" viewBox="0 0 32 32" enable-background="new 0 0 32 32" xml:space="preserve">
<g id="Fondo_1_" display="none">
	<rect id="Fondo" x="-629.628" y="-1403.188" display="inline" fill="#FB6E92" width="1000" height="2438.351"/>
</g>
<g id="Guias">
</g>
<g id="Icons">
	<g display="none" opacity="0.2">
		<path display="inline" fill="#FFFFFF" d="M-219.619,73.333c-11.282,3.636-35.885,28.281-38.51,36.153
			c-2.621,7.851,12.065,36.154,18.865,37.705c6.793,1.59,56.584-20.437,58.154-28.284
			C-179.539,111.036-208.337,69.654-219.619,73.333z"/>
		<path display="inline" fill="#FFFFFF" d="M-116.65-6.825c-10.498,0.494-88.546,59.726-88.034,69.146
			c0.519,9.424,29.36,46.63,37.729,47.951c8.363,1.302,70.221-78.34,72.307-88.813C-92.562,10.962-106.179-7.364-116.65-6.825z"/>
		<path display="inline" fill="#FFFFFF" d="M198.284-293.27c-10.933-15.145-35.498-16.26-56.115-3.016
			c-7.87-4.009-17.022-7.233-27.767-9.215c0,0-391.394,317.515-477.854,378.833c0,0-3.302,7.003-8.776,18.407
			c98.109,68.715,86.957,120.567,86.957,120.567c-27.149-66.916-95.885-102.037-95.905-102.037
			c-24.626,50.699-68.835,139.308-92.308,172.114c0,0-0.04,18.015,22.025,29.48c0,0,150.072-101.024,193.329-109.64
			c0,0,23.883-23.283,60.697-58.922c-20.121,10.309-43.197,20.062-52.827,20.659c-16.772,1.054-36.153-39.437-34.583-53.776
			c1.57-14.338,153.521-139.574,176.038-137.983c22.54,1.57,29.875,22.518,30.414,37.725c0.205,6.548-13.655,26.545-30.414,48.012
			C4.455-50.729,147.379-185.902,188.281-215.9c0,0,0.414-10.661-3.141-24.688C202.826-255.938,208.839-278.602,198.284-293.27z
			 M-417.12,289.327c0,0-2.542-32.478-33.638-43.818C-450.758,245.509-398.529,221.874-417.12,289.327z"/>
	</g>
	<path display="none" opacity="0.5" fill="#71C8EA" enable-background="new    " d="M1151.427,22.99l3.333,3.333
		c0,0,17-13.666,32.5-11.833c0,0,21-27.999,50-37.833c0,0,17.667-9.834,7.167-30.667s-24.327-12.938-31.167-8
		c-9.583,6.916-39.771,40.322-51.5,56.333C1161.76-5.677,1165.26,10.657,1151.427,22.99z"/>
	<g>
		<path d="M32,16.92c-15.802-0.67-3.678-10.56-3.678-10.56C14.906,13.316,15.151,0,15.151,0c-0.756,12.353-5.893,9.499-8.684,6.966
			C14.928,16.676,0,14.311,0,14.311c14.267,3.9,1.226,10.621,0.08,11.19C14.783,18.141,8.693,32,8.693,32
			c6.21-13.715,11.84,0,11.84,0c-4.113-13.218,8.088-7.725,8.088-7.725C17.986,18.042,32,16.92,32,16.92z M20.818,19.46
			c-1.707,3.812-5.629,5.765-8.76,4.36c-3.13-1.402-4.283-5.629-2.575-9.44c1.708-3.811,5.631-5.764,8.761-4.36
			C21.375,11.422,22.527,15.649,20.818,19.46z"/>
		<ellipse transform="matrix(-0.9125 -0.409 0.409 -0.9125 21.8545 38.6232)" cx="15.057" cy="16.975" rx="5.264" ry="6.411"/>
	</g>
</g>
</svg>
