<?xml version="1.0" encoding="utf-8"?>
<!-- Generator: Adobe Illustrator 16.0.4, SVG Export Plug-In . SVG Version: 6.00 Build 0)  -->
<!DOCTYPE svg PUBLIC "-//W3C//DTD SVG 1.1//EN" "http://www.w3.org/Graphics/SVG/1.1/DTD/svg11.dtd">
<svg version="1.1" fill="rgb(0, 14, 156)" xmlns="http://www.w3.org/2000/svg" xmlns:xlink="http://www.w3.org/1999/xlink" x="0px" y="0px"
	 width="32px" height="24.958px" viewBox="0 0 32 24.958" enable-background="new 0 0 32 24.958" xml:space="preserve">
<g id="Fondo_1_" display="none">
	<rect id="Fondo" x="-733.955" y="-1406.709" display="inline" fill="#FB6E92" width="1000" height="2438.352"/>
</g>
<g id="Guias">
</g>
<g id="Icons">
	<g display="none" opacity="0.2">
		<path display="inline" fill="#FFFFFF" d="M-323.945,69.812c-11.282,3.636-35.885,28.28-38.51,36.153
			c-2.621,7.851,12.065,36.154,18.865,37.705c6.793,1.59,56.584-20.437,58.154-28.285
			C-283.865,107.515-312.663,66.133-323.945,69.812z"/>
		<path display="inline" fill="#FFFFFF" d="M-220.977-10.347c-10.498,0.494-88.546,59.727-88.034,69.146
			c0.519,9.423,29.36,46.629,37.729,47.951c8.363,1.301,70.221-78.342,72.307-88.814C-196.889,7.44-210.505-10.886-220.977-10.347z"
			/>
		<path display="inline" fill="#FFFFFF" d="M93.958-296.791c-10.933-15.145-35.498-16.26-56.115-3.016
			c-7.87-4.009-17.022-7.233-27.767-9.215c0,0-391.393,317.515-477.854,378.833c0,0-3.302,7.003-8.776,18.406
			c98.109,68.716,86.957,120.568,86.957,120.568c-27.149-66.916-95.885-102.037-95.905-102.037
			c-24.626,50.699-68.835,139.308-92.308,172.115c0,0-0.04,18.014,22.025,29.479c0,0,150.072-101.024,193.329-109.64
			c0,0,23.883-23.283,60.697-58.922c-20.121,10.309-43.197,20.062-52.827,20.659c-16.772,1.054-36.153-39.437-34.583-53.776
			c1.57-14.338,153.521-139.574,176.038-137.983c22.54,1.57,29.875,22.518,30.414,37.725c0.205,6.548-13.655,26.545-30.414,48.012
			C-99.871-54.25,43.053-189.424,83.955-219.422c0,0,0.414-10.661-3.141-24.688C98.5-259.459,104.514-282.123,93.958-296.791z
			 M-521.446,285.806c0,0-2.542-32.478-33.638-43.818C-555.084,241.987-502.855,218.353-521.446,285.806z"/>
	</g>
	<path display="none" opacity="0.5" fill="#71C8EA" enable-background="new    " d="M1047.101,19.469l3.333,3.332
		c0,0,17-13.666,32.5-11.833c0,0,21-27.999,50-37.833c0,0,17.667-9.834,7.167-30.667s-24.327-12.937-31.167-8
		c-9.583,6.916-39.771,40.322-51.5,56.333C1057.434-9.198,1060.934,7.136,1047.101,19.469z"/>
	<path d="M30.721,0.168C29.314-0.886,0.684,3.33,0.157,4.56C-0.37,5.789,0.509,23.354,1.562,24.232
		c1.054,0.878,29.333,1.054,30.036,0S32.125,1.223,30.721,0.168z M14.086,12.465c-0.32,1.239-0.998,2.261-1.843,2.936
		c1.88,1.646,1.088,5.846,1.088,5.846h-8.08c0,0,0.527-3.896,2.723-5.654c-1.296-1.014-1.898-3.017-1.37-5.06
		c0.667-2.583,2.883-4.244,4.949-3.711C13.619,7.354,14.753,9.882,14.086,12.465z M27.559,18.788l-10.013,0.877v-1.701l10.013-2.162
		V18.788z M27.559,13.518l-10.013,0.878v-1.702l10.013-2.162V13.518z M27.559,8.6L17.546,9.478V7.775l10.013-2.162V8.6z"/>
</g>
</svg>
