<?xml version="1.0" encoding="utf-8"?>
<!-- Generator: Adobe Illustrator 16.0.4, SVG Export Plug-In . SVG Version: 6.00 Build 0)  -->
<!DOCTYPE svg PUBLIC "-//W3C//DTD SVG 1.1//EN" "http://www.w3.org/Graphics/SVG/1.1/DTD/svg11.dtd">
<svg version="1.1" fill="rgb(0, 14, 156)" xmlns="http://www.w3.org/2000/svg" xmlns:xlink="http://www.w3.org/1999/xlink" x="0px" y="0px"
	 width="32px" height="25.04px" viewBox="0 0 32 25.04" enable-background="new 0 0 32 25.04" xml:space="preserve">
<g id="Fondo_1_" display="none">
	<rect id="Fondo" x="-785.952" y="-1408.178" display="inline" fill="#FB6E92" width="1000" height="2438.35"/>
</g>
<g id="Guias">
</g>
<g id="Icons">
	<g display="none" opacity="0.2">
		<path display="inline" fill="#FFFFFF" d="M-375.942,68.342c-11.282,3.637-35.885,28.281-38.51,36.154
			c-2.621,7.851,12.065,36.153,18.865,37.705c6.793,1.59,56.584-20.437,58.154-28.285
			C-335.862,106.045-364.66,64.665-375.942,68.342z"/>
		<path display="inline" fill="#FFFFFF" d="M-272.974-11.815c-10.498,0.494-88.546,59.726-88.034,69.146
			c0.519,9.424,29.36,46.629,37.729,47.951c8.363,1.301,70.221-78.341,72.307-88.814C-248.886,5.972-262.502-12.354-272.974-11.815z
			"/>
		<path display="inline" fill="#FFFFFF" d="M41.96-298.26c-10.932-15.146-35.498-16.26-56.114-3.016
			c-7.87-4.009-17.023-7.233-27.767-9.215c0,0-391.393,317.515-477.854,378.833c0,0-3.302,7.003-8.776,18.406
			c98.109,68.715,86.957,120.568,86.957,120.568c-27.149-66.916-95.885-102.037-95.905-102.037
			c-24.626,50.699-68.835,139.307-92.308,172.114c0,0-0.04,18.015,22.025,29.479c0,0,150.072-101.023,193.329-109.639
			c0,0,23.883-23.283,60.697-58.922c-20.121,10.309-43.197,20.062-52.827,20.659c-16.772,1.053-36.153-39.437-34.583-53.776
			c1.57-14.338,153.521-139.574,176.038-137.984c22.54,1.57,29.875,22.518,30.414,37.725c0.205,6.548-13.655,26.546-30.414,48.013
			C-151.868-55.719-8.944-190.893,31.958-220.891c0,0,0.414-10.661-3.141-24.688C46.503-260.928,52.516-283.592,41.96-298.26z
			 M-573.443,284.336c0,0-2.542-32.478-33.638-43.817C-607.081,240.519-554.853,216.883-573.443,284.336z"/>
	</g>
	<path display="none" opacity="0.5" fill="#71C8EA" enable-background="new    " d="M995.103,18l3.334,3.332
		c0,0,17-13.666,32.5-11.833c0,0,21-27.999,50-37.833c0,0,17.666-9.834,7.166-30.667s-24.326-12.937-31.166-8
		c-9.584,6.916-39.771,40.322-51.5,56.333C1005.437-10.667,1008.937,5.667,995.103,18z"/>
	<g>
		<path d="M25.893,7.093c-0.007-0.002-0.013-0.005-0.021-0.008c-0.031-0.012-0.068-0.021-0.115-0.03
			C25.75,7.053,25.74,7.052,25.732,7.05c-0.047-0.008-0.1-0.015-0.158-0.021c-0.012-0.001-0.021-0.002-0.033-0.003
			c-0.066-0.006-0.144-0.011-0.228-0.015c-0.017-0.001-0.034-0.002-0.052-0.003C25.173,7.004,25.082,7.002,24.98,7
			c-0.002,0-0.003,0-0.003,0c-0.104-0.001-0.218-0.001-0.337,0c-0.021,0-0.043,0-0.064,0c-0.121,0.002-0.246,0.004-0.379,0.007
			c-0.011,0-0.021,0.001-0.031,0.001c-0.133,0.003-0.272,0.008-0.418,0.013c-0.014,0.001-0.025,0.001-0.041,0.002
			c-0.15,0.006-0.31,0.013-0.473,0.02c-0.018,0.002-0.035,0.002-0.054,0.003c-0.337,0.017-0.697,0.036-1.077,0.061
			c-0.016,0.001-0.029,0.002-0.043,0.003c-2.736,0.172-6.467,0.526-9.693,0.896l0,0c-0.007,0.001-0.014,0.001-0.021,0.002
			c-0.445,0.052-0.881,0.103-1.303,0.154c-0.009,0.001-0.018,0.002-0.026,0.003c-0.42,0.051-0.826,0.102-1.215,0.152
			c-0.012,0-0.025,0.001-0.037,0.003c-0.38,0.05-0.743,0.099-1.086,0.146C8.66,8.469,8.641,8.472,8.622,8.474
			c-0.168,0.024-0.331,0.047-0.489,0.07C8.127,8.545,8.12,8.546,8.113,8.547C7.964,8.568,7.82,8.59,7.682,8.612
			C7.663,8.614,7.645,8.617,7.627,8.62C7.486,8.642,7.351,8.663,7.222,8.685c-0.016,0.002-0.03,0.004-0.045,0.007
			C7.061,8.712,6.949,8.73,6.844,8.749C6.828,8.751,6.812,8.754,6.796,8.756C6.685,8.776,6.58,8.795,6.481,8.813
			c-0.017,0.003-0.033,0.007-0.05,0.01c-0.087,0.018-0.168,0.033-0.243,0.05C6.178,8.875,6.165,8.878,6.154,8.88
			C6.075,8.897,6.003,8.914,5.938,8.931C5.924,8.934,5.91,8.937,5.897,8.94C5.839,8.956,5.786,8.971,5.74,8.984
			C5.736,8.985,5.731,8.987,5.727,8.988C5.681,9.003,5.645,9.017,5.613,9.03C5.606,9.033,5.6,9.037,5.593,9.04
			C5.567,9.054,5.546,9.066,5.536,9.079c-0.509,0.638,0.163,6.589,0.675,7c0.01,0.008,0.031,0.014,0.059,0.021
			c0.006,0.001,0.011,0.002,0.018,0.004c0.03,0.006,0.068,0.013,0.115,0.017c0.007,0.002,0.016,0.002,0.022,0.002
			c0.047,0.006,0.1,0.01,0.159,0.014c0.009,0,0.017,0.002,0.025,0.002c0.067,0.004,0.144,0.008,0.226,0.011
			c0.015,0,0.028,0.001,0.043,0.001c0.175,0.006,0.381,0.01,0.615,0.012c0.015,0.002,0.029,0.002,0.045,0.002c0.12,0,0.247,0,0.38,0
			c0.007,0,0.013,0,0.019,0c0.138,0,0.282,0,0.433-0.002c0.004,0,0.006,0,0.009,0c0.153,0,0.312-0.002,0.478-0.004
			c0.01,0,0.02-0.002,0.03-0.002c0.331-0.004,0.687-0.011,1.062-0.02c0.01,0,0.021,0,0.031,0c0.189-0.004,0.383-0.008,0.582-0.014
			h0.003c0.4-0.01,0.819-0.021,1.251-0.033c0.015-0.002,0.029-0.002,0.043-0.002c0.42-0.014,0.853-0.026,1.293-0.043
			c0.014,0,0.026,0,0.039,0l0,0c2.228-0.078,4.67-0.189,6.818-0.313l0,0c0.021-0.001,0.044-0.002,0.066-0.004
			c0.151-0.009,0.303-0.019,0.452-0.026c0.046-0.003,0.089-0.006,0.134-0.008c0.353-0.021,0.694-0.043,1.024-0.064
			c0.028-0.002,0.06-0.004,0.088-0.006c0.149-0.011,0.298-0.021,0.442-0.031c0.017,0,0.033-0.002,0.051-0.004
			c0.16-0.01,0.316-0.021,0.469-0.033c0.023-0.002,0.045-0.004,0.067-0.006c0.131-0.01,0.258-0.021,0.382-0.029
			c0.025-0.002,0.053-0.004,0.079-0.006c0.144-0.012,0.28-0.021,0.415-0.034c0.006-0.001,0.011-0.001,0.017-0.002
			c0.123-0.011,0.241-0.021,0.354-0.031c0.029-0.003,0.058-0.006,0.086-0.008c0.117-0.013,0.232-0.022,0.341-0.034h0.001
			c0.107-0.011,0.21-0.021,0.309-0.033c0.024-0.002,0.049-0.006,0.073-0.008c0.078-0.01,0.152-0.02,0.224-0.027
			c0.018-0.002,0.035-0.004,0.053-0.006c0.082-0.012,0.158-0.021,0.229-0.033c0.018-0.002,0.033-0.004,0.049-0.008
			c0.057-0.009,0.107-0.017,0.155-0.024c0.015-0.003,0.03-0.007,0.044-0.009c0.057-0.01,0.105-0.021,0.148-0.031
			c0.008-0.002,0.014-0.003,0.021-0.006c0.033-0.01,0.062-0.018,0.088-0.025c0.008-0.003,0.017-0.006,0.023-0.009
			c0.025-0.011,0.047-0.021,0.059-0.03c0.592-0.506,0.422-7.339,0-8.017C25.942,7.119,25.919,7.105,25.893,7.093z M22.332,9.082
			c1.363,0.06,2.428,1.042,2.377,2.196c-0.049,1.153-1.194,2.041-2.559,1.98c-1.363-0.059-2.428-1.042-2.377-2.195
			S20.968,9.022,22.332,9.082z M9.678,14.583c-1.346,0.226-2.591-0.517-2.781-1.656c-0.189-1.139,0.747-2.244,2.094-2.469
			c1.346-0.225,2.59,0.517,2.78,1.656C11.96,13.252,11.023,14.358,9.678,14.583z M13.708,15.495
			c0.959-1.141,1.435-2.564,1.192-4.016c-0.21-1.262-0.931-2.328-1.955-3.091c1.716-0.191,3.569-0.376,5.288-0.523
			c-0.771,0.84-1.253,1.88-1.302,3.03c-0.076,1.729,0.828,3.305,2.285,4.348C17.472,15.342,15.523,15.43,13.708,15.495z"/>
		<path d="M31.153,0.358C30.14-0.992,0.895,1.821,0.22,3.058C-0.455,4.295,0.558,23.53,1.345,24.317
			c0.788,0.787,28.57,1.125,29.809,0S32.166,1.709,31.153,0.358z M11.367,23.286c-0.486,0.176-1.003-0.02-1.152-0.437
			c-0.15-0.416,0.122-0.896,0.608-1.071c0.487-0.176,1.003,0.02,1.153,0.436C12.126,22.631,11.854,23.11,11.367,23.286z
			 M14.859,20.941c-0.194-0.538,0.158-1.159,0.787-1.386c0.332-0.12,0.674-0.104,0.951,0.016l-1.466,1.754
			C15.012,21.222,14.915,21.095,14.859,20.941z M16.35,21.504c-0.309,0.113-0.626,0.106-0.892,0.011l1.594-1.565
			c0.033,0.053,0.062,0.108,0.086,0.17C17.332,20.659,16.979,21.278,16.35,21.504z M20.479,22.948
			c-0.485,0.176-1.003-0.02-1.151-0.436c-0.15-0.417,0.121-0.896,0.607-1.072s1.003,0.021,1.152,0.438S20.964,22.772,20.479,22.948z
			 M28.003,20.493c-0.277,0.229-2.193,0.418-4.846,0.562c-0.267-1.115-0.642-2.276-1.115-2.697
			C21.03,17.458,8.77,18.779,7.982,19.454c-0.291,0.25-0.378,1.284-0.513,1.887c-2.446-0.037-4.154-0.129-4.324-0.283
			C2.493,20.467,2.211,6.14,2.77,5.214c0.559-0.926,24.847-3.953,25.685-2.942C29.292,3.281,29.028,19.651,28.003,20.493z"/>
	</g>
</g>
</svg>
