<?xml version="1.0" encoding="utf-8"?>
<!-- Generator: Adobe Illustrator 16.0.4, SVG Export Plug-In . SVG Version: 6.00 Build 0)  -->
<!DOCTYPE svg PUBLIC "-//W3C//DTD SVG 1.1//EN" "http://www.w3.org/Graphics/SVG/1.1/DTD/svg11.dtd">
<svg version="1.1" fill="rgb(0, 14, 156)" xmlns="http://www.w3.org/2000/svg" xmlns:xlink="http://www.w3.org/1999/xlink" x="0px" y="0px"
	 width="32px" height="25.459px" viewBox="0 0 32 25.459" enable-background="new 0 0 32 25.459" xml:space="preserve">
<g id="Fondo_1_" display="none">
	<rect id="Fondo" x="-837.949" y="-1407.969" display="inline" fill="#FB6E92" width="1000" height="2438.351"/>
</g>
<g id="Guias">
</g>
<g id="Icons">
	<g display="none" opacity="0.2">
		<path display="inline" fill="#FFFFFF" d="M-427.939,68.552c-11.282,3.637-35.885,28.281-38.51,36.153
			c-2.621,7.851,12.065,36.153,18.865,37.705c6.793,1.59,56.584-20.437,58.154-28.284
			C-387.859,106.255-416.657,64.873-427.939,68.552z"/>
		<path display="inline" fill="#FFFFFF" d="M-324.971-11.606c-10.498,0.494-88.546,59.726-88.034,69.146
			c0.519,9.423,29.36,46.629,37.729,47.951c8.363,1.301,70.221-78.342,72.307-88.814C-300.883,6.181-314.499-12.146-324.971-11.606z
			"/>
		<path display="inline" fill="#FFFFFF" d="M-10.036-298.051c-10.932-15.145-35.498-16.26-56.115-3.016
			c-7.87-4.009-17.023-7.233-27.767-9.215c0,0-391.393,317.515-477.854,378.833c0,0-3.302,7.003-8.776,18.407
			c98.109,68.715,86.957,120.568,86.957,120.568c-27.149-66.916-95.885-102.037-95.905-102.037
			c-24.626,50.699-68.835,139.307-92.308,172.113c0,0-0.04,18.016,22.025,29.48c0,0,150.072-101.023,193.329-109.639
			c0,0,23.883-23.283,60.697-58.922c-20.121,10.308-43.197,20.062-52.827,20.658c-16.772,1.053-36.153-39.437-34.583-53.775
			c1.57-14.338,153.521-139.574,176.038-137.984c22.54,1.57,29.875,22.518,30.414,37.725c0.205,6.548-13.655,26.546-30.414,48.012
			C-203.865-55.51-60.941-190.684-20.039-220.682c0,0,0.414-10.661-3.14-24.688C-5.494-260.719,0.519-283.383-10.036-298.051z
			 M-625.44,284.546c0,0-2.542-32.479-33.638-43.818C-659.078,240.728-606.85,217.093-625.44,284.546z"/>
	</g>
	<path display="none" opacity="0.5" fill="#71C8EA" enable-background="new    " d="M943.106,18.209l3.333,3.333
		c0,0,17-13.666,32.5-11.833c0,0,21-27.999,50-37.833c0,0,17.666-9.834,7.166-30.667s-24.326-12.937-31.166-8
		c-9.584,6.916-39.771,40.322-51.5,56.333C953.439-10.458,956.939,5.876,943.106,18.209z"/>
	<g>
		<path d="M31.523,3.337C30.499,1.802,1.831-0.656,0.807,0.163C0.5,0.408,0.275,2.57,0.143,5.513l31.846,2.281
			C31.948,5.492,31.807,3.762,31.523,3.337z"/>
		<path d="M0.032,9.1c-0.125,6.607,0.112,14.588,0.774,15.432c1.126,1.434,29.283,1.023,30.103,0
			c0.534-0.67,1.069-8.858,1.091-14.882L0.032,9.1z M18.35,22.033L3.698,22.006l0.072-1.944l14.658-0.177L18.35,22.033z
			 M18.484,18.351l-14.65-0.027l0.072-1.943l14.656-0.178L18.484,18.351z M18.62,14.666L3.97,14.64l0.072-1.944L18.7,12.518
			L18.62,14.666z"/>
	</g>
</g>
</svg>
