<?xml version="1.0" encoding="utf-8"?>
<!-- Generator: Adobe Illustrator 16.0.4, SVG Export Plug-In . SVG Version: 6.00 Build 0)  -->
<!DOCTYPE svg PUBLIC "-//W3C//DTD SVG 1.1//EN" "http://www.w3.org/Graphics/SVG/1.1/DTD/svg11.dtd">
<svg version="1.1" fill="rgb(0, 14, 156)" xmlns="http://www.w3.org/2000/svg" xmlns:xlink="http://www.w3.org/1999/xlink" x="0px" y="0px"
	 width="29.25px" height="32px" viewBox="0 0 29.25 32" enable-background="new 0 0 29.25 32" xml:space="preserve">
<g id="Fondo_1_" display="none">
	<rect id="Fondo" x="-111.233" y="-1467.522" display="inline" fill="#FB6E92" width="999.999" height="2438.351"/>
</g>
<g id="Guias">
</g>
<g id="Icons">
	<g display="none" opacity="0.2">
		<path display="inline" fill="#FFFFFF" d="M298.776,8.998c-11.281,3.636-35.885,28.281-38.51,36.152
			c-2.621,7.852,12.064,36.154,18.865,37.705c6.793,1.59,56.584-20.436,58.154-28.283C338.856,46.701,310.057,5.319,298.776,8.998z"
			/>
		<path display="inline" fill="#FFFFFF" d="M401.745-71.16c-10.498,0.494-88.545,59.726-88.033,69.146
			c0.52,9.423,29.359,46.629,37.729,47.952c8.363,1.301,70.221-78.341,72.307-88.814C425.833-53.373,412.215-71.699,401.745-71.16z"
			/>
		<path display="inline" fill="#FFFFFF" d="M716.678-357.604c-10.932-15.145-35.498-16.26-56.113-3.016
			c-7.871-4.009-17.023-7.233-27.768-9.215c0,0-391.394,317.515-477.854,378.833c0,0-3.302,7.003-8.776,18.407
			c98.109,68.715,86.957,120.567,86.957,120.567C205.976,81.059,137.241,45.938,137.22,45.938
			c-24.626,50.698-68.835,139.307-92.308,172.113c0,0-0.041,18.016,22.024,29.48c0,0,150.071-101.024,193.329-109.639
			c0,0,23.883-23.283,60.697-58.922c-20.121,10.307-43.197,20.062-52.828,20.658c-16.771,1.053-36.152-39.438-34.582-53.775
			S387.075-93.721,409.59-92.131c22.541,1.57,29.875,22.518,30.414,37.725c0.205,6.548-13.654,26.546-30.414,48.012
			c113.26-108.669,256.184-243.843,297.086-273.841c0,0,0.414-10.661-3.141-24.688C721.221-320.272,727.235-342.937,716.678-357.604
			z M101.275,224.992c0,0-2.542-32.479-33.638-43.818C67.637,181.174,119.866,157.539,101.275,224.992z"/>
	</g>
	<path display="none" opacity="0.5" fill="#71C8EA" enable-background="new    " d="M1669.823-41.345l3.332,3.333
		c0,0,17-13.666,32.5-11.833c0,0,21-27.999,50-37.833c0,0,17.668-9.834,7.168-30.667c-10.5-20.833-24.328-12.938-31.168-8
		c-9.582,6.916-39.771,40.322-51.5,56.333C1680.155-70.012,1683.655-53.678,1669.823-41.345z"/>
	<g>
		<path d="M27.907,11.884c-0.713-0.021-12.389,6.279-12.853,6.153C14.591,17.911,9.323,4.809,8.921,4.633
			c-0.28-0.122-1.105,0.349-1.499,0.563c-7.056,3.862-9.41,12.606-5.633,19.508c3.777,6.899,12.518,9.29,19.614,5.503
			C31.142,25.011,28.618,11.906,27.907,11.884z"/>
		<path d="M20.808,0.436C16.334-1.015,10.129,1.6,10.096,1.822c-0.07,0.476,5.355,13.463,5.881,13.61S29.195,8.417,29.25,8.038
			C29.282,7.839,25.875,2.079,20.808,0.436z"/>
	</g>
</g>
</svg>
