<?xml version="1.0" encoding="utf-8"?>
<!-- Generator: Adobe Illustrator 16.0.4, SVG Export Plug-In . SVG Version: 6.00 Build 0)  -->
<!DOCTYPE svg PUBLIC "-//W3C//DTD SVG 1.1//EN" "http://www.w3.org/Graphics/SVG/1.1/DTD/svg11.dtd">
<svg version="1.1" fill="rgb(0, 14, 156)" xmlns="http://www.w3.org/2000/svg" xmlns:xlink="http://www.w3.org/1999/xlink" x="0px" y="0px"
	 width="32px" height="30.818px" viewBox="0 0 32 30.818" enable-background="new 0 0 32 30.818" xml:space="preserve">
<g id="Fondo_1_" display="none">
	<rect id="Fondo" x="-161.966" y="-1468.112" display="inline" fill="#FB6E92" width="1000" height="2438.352"/>
</g>
<g id="Guias">
</g>
<g id="Icons">
	<g display="none" opacity="0.2">
		<path display="inline" fill="#FFFFFF" d="M248.043,8.408c-11.281,3.636-35.885,28.28-38.51,36.152
			c-2.621,7.852,12.064,36.154,18.865,37.705c6.793,1.59,56.584-20.436,58.153-28.284C288.123,46.111,259.325,4.729,248.043,8.408z"
			/>
		<path display="inline" fill="#FFFFFF" d="M351.012-71.75c-10.498,0.494-88.546,59.726-88.033,69.146
			c0.519,9.423,29.359,46.629,37.729,47.951c8.363,1.301,70.221-78.341,72.307-88.813C375.1-53.963,361.483-72.289,351.012-71.75z"
			/>
		<path display="inline" fill="#FFFFFF" d="M665.946-358.194c-10.933-15.145-35.498-16.26-56.115-3.016
			c-7.87-4.009-17.023-7.233-27.767-9.215c0,0-391.394,317.515-477.854,378.833c0,0-3.302,7.003-8.776,18.406
			c98.109,68.716,86.957,120.568,86.957,120.568C155.243,80.468,86.507,45.347,86.486,45.347
			C61.859,96.046,17.65,184.653-5.821,217.461c0,0-0.04,18.015,22.025,29.479c0,0,150.071-101.023,193.329-109.639
			c0,0,23.883-23.283,60.697-58.922c-20.121,10.308-43.197,20.062-52.828,20.659c-16.771,1.053-36.152-39.438-34.582-53.776
			c1.57-14.338,153.521-139.574,176.038-137.984c22.54,1.57,29.875,22.519,30.413,37.726c0.205,6.548-13.654,26.546-30.413,48.012
			C472.116-115.653,615.04-250.827,655.942-280.825c0,0,0.414-10.661-3.141-24.688C670.488-320.862,676.501-343.526,665.946-358.194
			z M50.542,224.402c0,0-2.542-32.478-33.638-43.817C16.904,180.584,69.133,156.949,50.542,224.402z"/>
	</g>
	<path display="none" opacity="0.5" fill="#71C8EA" enable-background="new    " d="M1619.089-41.935l3.333,3.333
		c0,0,17-13.666,32.5-11.833c0,0,21-27.999,50-37.833c0,0,17.667-9.834,7.167-30.667s-24.327-12.937-31.167-8
		c-9.583,6.916-39.771,40.322-51.5,56.333C1629.422-70.602,1632.922-54.268,1619.089-41.935z"/>
	<path d="M26.104,0c-0.102-0.007-0.654,0.376-1.531,1.043l2.377,2.623l-0.487,0.486L23.95,1.52c-0.31,0.239-0.644,0.501-1.005,0.786
		l1.234,1.36l-0.488,0.486l-1.323-1.389c-0.308,0.244-0.628,0.502-0.962,0.771l1.234,1.361l-0.488,0.487l-1.321-1.387
		c-0.34,0.274-0.69,0.56-1.052,0.853l2.553,2.816l-0.486,0.486L19.17,5.347c-0.32,0.263-0.648,0.53-0.98,0.803l1.375,1.518
		l-0.487,0.486l-1.46-1.531c-0.312,0.257-0.627,0.517-0.946,0.779l1.354,1.495l-0.486,0.487l-1.44-1.51
		c-0.401,0.332-0.806,0.668-1.213,1.007l2.524,2.785l-0.487,0.486l-2.641-2.77c-0.324,0.27-0.648,0.541-0.973,0.812l1.332,1.471
		l-0.487,0.486l-1.412-1.48c-0.314,0.264-0.627,0.525-0.94,0.79l1.301,1.435l-0.487,0.487l-1.378-1.446
		c-0.346,0.292-0.69,0.583-1.031,0.872l2.589,2.856l-0.487,0.486l-2.703-2.835c-0.324,0.276-0.646,0.551-0.963,0.82l1.384,1.527
		L9.54,16.151l-1.463-1.53c-0.315,0.27-0.625,0.534-0.93,0.799l1.34,1.478L8,17.384l-1.414-1.482
		c-0.349,0.302-0.688,0.597-1.019,0.884l2.612,2.882l-0.487,0.486l-2.72-2.852C2.03,19.872-0.011,21.755,0,21.999
		c0.039,0.857,6.692,8.834,7.487,8.819C8.282,30.807,32,8.269,32,7.499C32,6.729,26.846,0.052,26.104,0z M6.5,25.794
		c-0.956,0-1.731-1.051-1.731-2.346c0-1.297,0.775-2.348,1.731-2.348s1.73,1.051,1.73,2.348C8.23,24.743,7.456,25.794,6.5,25.794z"
		/>
</g>
</svg>
