<?xml version="1.0" encoding="utf-8"?>
<!-- Generator: Adobe Illustrator 16.0.4, SVG Export Plug-In . SVG Version: 6.00 Build 0)  -->
<!DOCTYPE svg PUBLIC "-//W3C//DTD SVG 1.1//EN" "http://www.w3.org/Graphics/SVG/1.1/DTD/svg11.dtd">
<svg version="1.1" fill="rgb(0, 14, 156)" xmlns="http://www.w3.org/2000/svg" xmlns:xlink="http://www.w3.org/1999/xlink" x="0px" y="0px"
	 width="32.203px" height="31.066px" viewBox="0 0 32.203 31.066" enable-background="new 0 0 32.203 31.066" xml:space="preserve">
<g id="Fondo_1_" display="none">
	<rect id="Fondo" x="-213.763" y="-1468.096" display="inline" fill="#FB6E92" width="1000" height="2438.351"/>
</g>
<g id="Guias">
</g>
<g id="Icons">
	<g display="none" opacity="0.2">
		<path display="inline" fill="#FFFFFF" d="M196.246,8.425c-11.282,3.637-35.885,28.281-38.51,36.153
			c-2.621,7.852,12.064,36.154,18.865,37.705c6.793,1.59,56.584-20.436,58.153-28.284C236.326,46.128,207.527,4.746,196.246,8.425z"
			/>
		<path display="inline" fill="#FFFFFF" d="M299.215-71.733c-10.498,0.493-88.546,59.726-88.033,69.146
			c0.519,9.423,29.359,46.629,37.729,47.951c8.363,1.301,70.221-78.341,72.307-88.814C323.303-53.946,309.688-72.272,299.215-71.733
			z"/>
		<path display="inline" fill="#FFFFFF" d="M614.149-358.178c-10.933-15.146-35.498-16.26-56.115-3.016
			c-7.87-4.01-17.023-7.233-27.768-9.216c0,0-391.393,317.516-477.854,378.833c0,0-3.302,7.003-8.776,18.407
			c98.11,68.716,86.959,120.569,86.959,120.569C103.445,80.484,34.71,45.363,34.689,45.363
			C10.063,96.062-34.146,184.67-57.618,217.478c0,0-0.04,18.015,22.025,29.479c0,0,150.071-101.023,193.329-109.639
			c0,0,23.883-23.283,60.697-58.922c-20.121,10.308-43.197,20.062-52.828,20.659c-16.771,1.053-36.152-39.438-34.582-53.776
			c1.569-14.338,153.521-139.574,176.037-137.984c22.54,1.57,29.875,22.519,30.414,37.726c0.205,6.548-13.654,26.546-30.414,48.012
			c113.26-108.67,256.184-243.844,297.086-273.842c0,0,0.413-10.661-3.141-24.688C618.691-320.846,624.704-343.51,614.149-358.178z
			 M-1.255,224.419c0,0-2.542-32.478-33.638-43.817C-34.893,180.601,17.336,156.966-1.255,224.419z"/>
	</g>
	<path display="none" opacity="0.5" fill="#71C8EA" enable-background="new    " d="M1567.292-41.918l3.333,3.333
		c0,0,17-13.666,32.5-11.833c0,0,21-27.999,50-37.833c0,0,17.667-9.834,7.167-30.667s-24.327-12.937-31.167-8
		c-9.583,6.916-39.771,40.322-51.5,56.333C1577.625-70.585,1581.125-54.251,1567.292-41.918z"/>
	<g>
		<path d="M30.839,19.504c-2.194,3.521-11.198,15.279-22.785,4.473c-9.541-8.899-4.01-19.469-1.938-22.848L4.596,0
			c0,0-11.512,14.75,1.902,26.28c15.668,13.468,25.705-5.763,25.705-5.763L30.839,19.504z"/>
		<path d="M4.314,11.023c0.114,0.117,11.572-0.271,11.889-0.88c0.316-0.608-8.776-7.271-8.897-7.264
			c-0.06,0.006-1.12,1.734-1.846,3.69C4.69,8.648,4.256,10.963,4.314,11.023z"/>
		<path d="M4.296,12.991c-0.043,0.104,0.337,2.279,1.122,4.233c0.812,2.023,2.034,3.827,2.201,3.834
			c0.328,0.014,8.086-8.064,8.101-8.379C15.734,12.364,4.385,12.777,4.296,12.991z"/>
		<path d="M9.353,22.901c0.067,0.244,2.269,2.004,4.631,3.012c2.096,0.896,4.375,1.076,4.563,0.897
			c0.4-0.379-0.76-12.201-1.051-12.311C17.206,14.394,9.225,22.439,9.353,22.901z"/>
		<path d="M26.611,22.534c1.343-1.288,2.318-2.821,2.363-3.055c0.114-0.576-9.074-6.868-9.365-6.454
			c-0.293,0.413,1.494,12.693,2.072,13.004C22.025,26.213,24.639,24.428,26.611,22.534z"/>
	</g>
</g>
</svg>
