<?xml version="1.0" encoding="utf-8"?>
<!-- Generator: Adobe Illustrator 16.0.4, SVG Export Plug-In . SVG Version: 6.00 Build 0)  -->
<!DOCTYPE svg PUBLIC "-//W3C//DTD SVG 1.1//EN" "http://www.w3.org/Graphics/SVG/1.1/DTD/svg11.dtd">
<svg version="1.1" fill="rgb(0, 14, 156)" xmlns="http://www.w3.org/2000/svg" xmlns:xlink="http://www.w3.org/1999/xlink" x="0px" y="0px"
	 width="32px" height="22.088px" viewBox="0 0 32 22.088" enable-background="new 0 0 32 22.088" xml:space="preserve">
<g id="Fondo_1_" display="none">
	<rect id="Fondo" x="-265.966" y="-1472.479" display="inline" fill="#FB6E92" width="1000" height="2438.351"/>
</g>
<g id="Guias">
</g>
<g id="Icons">
	<g display="none" opacity="0.2">
		<path display="inline" fill="#FFFFFF" d="M144.043,4.042c-11.281,3.636-35.885,28.281-38.51,36.152
			c-2.621,7.852,12.064,36.154,18.865,37.705c6.793,1.591,56.584-20.436,58.153-28.283C184.123,41.745,155.325,0.363,144.043,4.042z
			"/>
		<path display="inline" fill="#FFFFFF" d="M247.012-76.116c-10.498,0.494-88.546,59.726-88.033,69.146
			c0.519,9.423,29.359,46.629,37.729,47.952c8.363,1.301,70.221-78.341,72.307-88.814C271.1-58.329,257.482-76.655,247.012-76.116z"
			/>
		<path display="inline" fill="#FFFFFF" d="M561.946-362.561c-10.933-15.145-35.498-16.26-56.115-3.016
			c-7.87-4.009-17.023-7.233-27.767-9.215c0,0-391.394,317.515-477.854,378.833c0,0-3.302,7.003-8.776,18.407
			c98.109,68.715,86.957,120.568,86.957,120.568C51.243,76.103-17.493,40.979-17.513,40.979
			c-24.627,50.701-68.836,139.308-92.308,172.115c0,0-0.04,18.016,22.025,29.48c0,0,150.071-101.024,193.329-109.639
			c0,0,23.883-23.283,60.697-58.922c-20.121,10.308-43.197,20.062-52.828,20.658C96.631,95.726,77.25,55.235,78.82,40.897
			S232.342-98.677,254.859-97.087c22.539,1.57,29.875,22.518,30.414,37.725c0.205,6.548-13.655,26.546-30.414,48.012
			c113.258-108.67,256.182-243.843,297.084-273.841c0,0,0.414-10.661-3.141-24.688C566.488-325.229,572.501-347.893,561.946-362.561
			z M-53.458,220.036c0,0-2.542-32.479-33.638-43.818C-87.096,176.218-34.867,152.583-53.458,220.036z"/>
	</g>
	<path display="none" opacity="0.5" fill="#71C8EA" enable-background="new    " d="M1515.089-46.301l3.333,3.333
		c0,0,17-13.666,32.5-11.833c0,0,21-27.999,50-37.833c0,0,17.667-9.834,7.167-30.667s-24.327-12.938-31.167-8
		c-9.583,6.916-39.771,40.322-51.5,56.333C1525.422-74.968,1528.922-58.634,1515.089-46.301z"/>
	<path d="M28.736,10.275c-1.62-0.756-3.437-0.646-4.978,0.136l-2.75-4.859l1.107-3.389c1.103,0.188,2.038,0.283,2.256,0.175
		c0.59-0.296,0.328-1.838,0-2.231S17.615,0.5,17.746,0.959c0.072,0.255,1.921,0.742,3.654,1.074l-1.209,3.132L9.742,5.881
		c-0.04-0.523-0.12-1.252-0.279-1.993C9.161,2.486,4.13,1,3.063,4.258c-1.04,3.173,2.684,3.95,2.684,3.95l0.213-0.66
		c0,0-3.409-0.831-1.996-3.407C5.244,1.806,8.596,3.81,8.69,4.238c0.094,0.428,0.221,2.258,0.221,2.258l0.012,0.002l-1.111,3.505
		c-2.754-0.842-5.854,0.597-7.19,3.465c-1.454,3.12-0.272,6.75,2.641,8.107c2.913,1.357,6.452-0.072,7.906-3.192
		c1.429-3.067,0.31-6.625-2.495-8.034l0.982-2.6l5.331,7.262c-0.051,0.109-0.098,0.223-0.137,0.344
		c-0.414,1.262,0.033,2.541,0.997,2.856c0.954,0.312,2.055-0.437,2.48-1.673l1.888-0.053c0.081,2.166,1.264,4.16,3.258,5.09
		c2.912,1.357,6.452-0.072,7.906-3.192C32.832,15.263,31.65,11.632,28.736,10.275z M22.977,10.882
		c-0.89,0.63-1.643,1.508-2.146,2.586c-0.34,0.73-0.535,1.489-0.599,2.24l-1.741-0.064c0.017-0.511-0.104-0.984-0.337-1.352
		l2.393-7.327L22.977,10.882z M25.523,15.372c-0.106,0.169-0.178,0.347-0.219,0.523l-3.863-0.144c0.05-0.597,0.201-1.2,0.472-1.78
		c0.399-0.859,1-1.551,1.708-2.052l2.031,3.274C25.607,15.252,25.562,15.31,25.523,15.372z M16.949,13.571
		c-0.309-0.012-0.621,0.074-0.911,0.242l-5.879-7.097l9.544-0.283L16.949,13.571z M10.087,17.878
		c-1.155,2.48-3.969,3.617-6.284,2.538c-2.315-1.079-3.255-3.964-2.099-6.444c1.063-2.281,3.53-3.422,5.721-2.749l-1.089,3.434
		c-0.375,0.05-0.765,0.305-1.022,0.716c-0.4,0.638-0.329,1.401,0.158,1.708c0.488,0.307,1.207,0.037,1.607-0.602
		c0.381-0.606,0.331-1.324-0.094-1.656l1.234-3.266C10.361,12.716,11.203,15.483,10.087,17.878z M30.296,17.878
		c-1.155,2.48-3.969,3.617-6.284,2.538c-1.56-0.728-2.49-2.272-2.582-3.964l3.838-0.104c0.028,0.311,0.168,0.578,0.412,0.731
		c0.487,0.306,1.207,0.037,1.607-0.603c0.4-0.638,0.33-1.401-0.158-1.707c-0.266-0.168-0.6-0.158-0.914-0.017l-1.85-3.27
		c1.197-0.565,2.585-0.632,3.83-0.051C30.514,12.513,31.452,15.397,30.296,17.878z"/>
</g>
</svg>
