<?xml version="1.0" encoding="utf-8"?>
<!-- Generator: Adobe Illustrator 16.0.4, SVG Export Plug-In . SVG Version: 6.00 Build 0)  -->
<!DOCTYPE svg PUBLIC "-//W3C//DTD SVG 1.1//EN" "http://www.w3.org/Graphics/SVG/1.1/DTD/svg11.dtd">
<svg version="1.1" fill="rgb(0, 14, 156)" xmlns="http://www.w3.org/2000/svg" xmlns:xlink="http://www.w3.org/1999/xlink" x="0px" y="0px"
	 width="32px" height="32px" viewBox="0 0 32 32" enable-background="new 0 0 32 32" xml:space="preserve">
<g id="Fondo_1_" display="none">
	<rect id="Fondo" x="-370.284" y="-1467.694" display="inline" fill="#FB6E92" width="1000" height="2438.351"/>
</g>
<g id="Guias">
</g>
<g id="Icons">
	<g display="none" opacity="0.2">
		<path display="inline" fill="#FFFFFF" d="M39.725,8.826C28.443,12.462,3.84,37.107,1.215,44.979
			C-1.406,52.83,13.28,81.133,20.08,82.684c6.793,1.59,56.584-20.436,58.154-28.283C79.805,46.529,51.007,5.147,39.725,8.826z"/>
		<path display="inline" fill="#FFFFFF" d="M142.693-71.332C132.195-70.838,54.146-11.606,54.66-2.187
			c0.52,9.423,29.359,46.628,37.729,47.951c8.363,1.301,70.221-78.341,72.307-88.813C166.782-53.545,153.166-71.871,142.693-71.332z
			"/>
		<path display="inline" fill="#FFFFFF" d="M457.628-357.776c-10.932-15.145-35.498-16.26-56.115-3.016
			c-7.87-4.009-17.022-7.233-27.767-9.215c0,0-391.393,317.515-477.854,378.833c0,0-3.302,7.003-8.776,18.406
			c98.109,68.716,86.957,120.568,86.957,120.568c-27.149-66.916-95.885-102.037-95.905-102.037
			c-24.626,50.699-68.835,139.307-92.308,172.114c0,0-0.04,18.015,22.025,29.479c0,0,150.072-101.023,193.329-109.639
			c0,0,23.884-23.283,60.697-58.922C41.792,89.105,18.715,98.859,9.086,99.458c-16.772,1.053-36.153-39.437-34.583-53.776
			c1.57-14.338,153.521-139.574,176.038-137.983c22.54,1.57,29.875,22.518,30.414,37.725c0.205,6.548-13.655,26.546-30.414,48.012
			c113.258-108.669,256.182-243.843,297.084-273.841c0,0,0.414-10.661-3.14-24.688C462.17-320.444,468.183-343.108,457.628-357.776z
			 M-157.776,224.82c0,0-2.542-32.479-33.638-43.818C-191.414,181.002-139.185,157.367-157.776,224.82z"/>
	</g>
	<path display="none" opacity="0.5" fill="#71C8EA" enable-background="new    " d="M1410.771-41.517l3.332,3.333
		c0,0,17-13.666,32.5-11.833c0,0,21-27.999,50-37.833c0,0,17.668-9.834,7.168-30.667s-24.327-12.937-31.168-8
		c-9.582,6.916-39.771,40.322-51.5,56.333C1421.104-70.184,1424.604-53.85,1410.771-41.517z"/>
	<g>
		<path d="M11.588,3.008V0.621C7.352,1.834,3.836,4.748,1.826,8.579l4.55-1.269L11.588,3.008z"/>
		<path d="M23.527,4.159l-0.416-2.492c-0.01-0.005-0.021-0.01-0.03-0.015l-3.05-1.14C18.743,0.179,17.393,0,16,0
			c-1.271,0-2.504,0.152-3.689,0.433v2.271l4.854,2.304L23.527,4.159z"/>
		<polygon points="16.437,11.311 21.285,16.645 26.68,15.703 28.193,9.735 23.77,5.008 17.648,5.796 		"/>
		<path d="M30.917,10.215l-1.996-0.237L27.588,16l1.092,5.734l2.16,0.246C31.586,20.133,32,18.115,32,16
			C32,13.959,31.614,12.01,30.917,10.215z"/>
		<path d="M23.527,26.583l-0.909,3.334c0,0,0.31,0.187,0.567,0.377c3.133-1.577,5.676-4.149,7.211-7.308l-2.203-0.465L23.527,26.583
			z"/>
		<polygon points="9.709,13.25 7.831,19.917 11.588,24.4 18.559,22.825 20.559,17.189 16,12.099 		"/>
		<path d="M18.68,23.979l-6.604,1.453l-1.24,3.445l4.474,3.105C15.539,31.992,15.769,32,16,32c2.023,0,3.956-0.379,5.736-1.062
			l0.882-4.349L18.68,23.979z"/>
		<path d="M7.602,29.618c1.523,0.94,3.216,1.634,5.021,2.021l-3.156-2.39L7.602,29.618z"/>
		<path d="M6.706,8.341L1.435,9.379C0.516,11.397,0,13.638,0,16c0,0.053,0.003,0.105,0.004,0.157l2.736,4.606l3.966-1.029
			L8.68,13.31L6.706,8.341z"/>
		<path d="M0.159,18.239c0.357,2.548,1.313,4.901,2.723,6.917l-0.81-4.088L0.159,18.239z"/>
	</g>
</g>
</svg>
