<?xml version="1.0" encoding="utf-8"?>
<!-- Generator: Adobe Illustrator 16.0.4, SVG Export Plug-In . SVG Version: 6.00 Build 0)  -->
<!DOCTYPE svg PUBLIC "-//W3C//DTD SVG 1.1//EN" "http://www.w3.org/Graphics/SVG/1.1/DTD/svg11.dtd">
<svg version="1.1" fill="rgb(0, 14, 156)" xmlns="http://www.w3.org/2000/svg" xmlns:xlink="http://www.w3.org/1999/xlink" x="0px" y="0px"
	 width="32px" height="32px" viewBox="0 0 32 32" enable-background="new 0 0 32 32" xml:space="preserve">
<g id="Fondo_1_" display="none">
	<rect id="Fondo" x="-422.533" y="-1467.522" display="inline" fill="#FB6E92" width="1000" height="2438.351"/>
</g>
<g id="Guias">
</g>
<g id="Icons">
	<g display="none" opacity="0.2">
		<path display="inline" fill="#FFFFFF" d="M-12.523,8.998c-11.282,3.636-35.885,28.281-38.51,36.152
			c-2.621,7.852,12.065,36.154,18.865,37.705c6.793,1.59,56.584-20.436,58.154-28.283C27.557,46.701-1.241,5.319-12.523,8.998z"/>
		<path display="inline" fill="#FFFFFF" d="M90.445-71.16C79.947-70.666,1.899-11.435,2.411-2.015
			c0.519,9.423,29.36,46.629,37.729,47.951c8.362,1.301,70.221-78.34,72.307-88.813C114.533-53.373,100.917-71.699,90.445-71.16z"/>
		<path display="inline" fill="#FFFFFF" d="M405.38-357.604c-10.932-15.145-35.498-16.26-56.115-3.016
			c-7.87-4.009-17.022-7.233-27.767-9.215c0,0-391.393,317.515-477.854,378.833c0,0-3.302,7.003-8.776,18.407
			c98.109,68.715,86.957,120.567,86.957,120.567C-105.324,81.059-174.06,45.938-174.08,45.938
			c-24.626,50.698-68.835,139.307-92.308,172.113c0,0-0.04,18.016,22.025,29.48c0,0,150.072-101.024,193.329-109.639
			c0,0,23.883-23.283,60.697-58.922c-20.12,10.307-43.196,20.062-52.826,20.659c-16.772,1.054-36.153-39.437-34.583-53.776
			C-76.175,31.516,75.775-93.721,98.293-92.131c22.54,1.57,29.875,22.518,30.414,37.725c0.205,6.548-13.655,26.546-30.414,48.012
			c113.258-108.669,256.182-243.843,297.084-273.841c0,0,0.414-10.661-3.14-24.688C409.922-320.272,415.935-342.937,405.38-357.604z
			 M-210.024,224.992c0,0-2.542-32.479-33.638-43.818C-243.662,181.174-191.434,157.539-210.024,224.992z"/>
	</g>
	<path display="none" opacity="0.5" fill="#71C8EA" enable-background="new    " d="M1358.521-41.345l3.334,3.333
		c0,0,17-13.666,32.5-11.833c0,0,21-27.999,50-37.833c0,0,17.666-9.834,7.166-30.667c-10.5-20.833-24.326-12.938-31.166-8
		c-9.584,6.916-39.771,40.322-51.5,56.333C1368.855-70.012,1372.355-53.678,1358.521-41.345z"/>
	<g>
		<path d="M12.417,15.319c1.077,0.921,2.258,1.802,3.542,2.598l8.77-15.323C22.218,0.955,19.223,0,16,0
			c-0.76,0-1.507,0.057-2.239,0.159C15.294,6.898,14.368,11.79,12.417,15.319z"/>
		<path d="M23.82,21.092c2.22,0.458,4.63,0.608,7.229,0.35C31.664,19.742,32,17.911,32,16c0-0.771-0.059-1.527-0.163-2.269
			C30.104,14.283,25.923,16.087,23.82,21.092z"/>
		<path d="M17.479,18.79c1.512,0.802,3.149,1.478,4.918,1.962c1.351-3.436,4.033-6.749,9.195-8.337
			c-0.808-3.527-2.779-6.61-5.49-8.822L17.479,18.79z"/>
		<path d="M11.202,14.225c2.735-5.403,1.802-11.513,1.291-13.835c-3.224,0.722-6.08,2.414-8.245,4.757
			C5.141,6.805,7.442,10.663,11.202,14.225z"/>
		<path d="M10.185,15.939c-2.444-2.368-4.832-5.466-7.013-9.503C1.18,9.104,0,12.415,0,16c0,2.223,0.454,4.34,1.273,6.264
			C5.601,20.822,8.404,18.529,10.185,15.939z"/>
		<path d="M23.2,22.891c-0.569,2.069-0.798,4.588-0.486,7.633c3.3-1.528,5.99-4.146,7.609-7.395
			C28.634,23.34,26.129,23.441,23.2,22.891z"/>
		<path d="M21.797,22.582c-1.684-0.424-3.479-1.072-5.315-2.036L10.529,31.04C12.236,31.66,14.079,32,16,32
			c1.859,0,3.645-0.32,5.305-0.904C21.136,29.866,20.796,26.327,21.797,22.582z"/>
		<path d="M14.953,19.676c-1.199-0.738-2.408-1.621-3.61-2.669c-2.885,3.94-7.034,5.791-9.433,6.579
			c1.564,2.898,3.999,5.258,6.952,6.732L14.953,19.676z"/>
	</g>
</g>
</svg>
