<?xml version="1.0" encoding="utf-8"?>
<!-- Generator: Adobe Illustrator 16.0.4, SVG Export Plug-In . SVG Version: 6.00 Build 0)  -->
<!DOCTYPE svg PUBLIC "-//W3C//DTD SVG 1.1//EN" "http://www.w3.org/Graphics/SVG/1.1/DTD/svg11.dtd">
<svg version="1.1" fill="rgb(0, 14, 156)" xmlns="http://www.w3.org/2000/svg" xmlns:xlink="http://www.w3.org/1999/xlink" x="0px" y="0px"
	 width="32px" height="28.033px" viewBox="0 0 32 28.033" enable-background="new 0 0 32 28.033" xml:space="preserve">
<g id="Fondo_1_" display="none">
	<rect id="Fondo" x="-473.993" y="-1470.321" display="inline" fill="#FB6E92" width="1000" height="2438.352"/>
</g>
<g id="Guias">
</g>
<g id="Icons">
	<g display="none" opacity="0.2">
		<path display="inline" fill="#FFFFFF" d="M-63.983,6.199c-11.282,3.636-35.885,28.28-38.51,36.153
			c-2.621,7.851,12.065,36.153,18.865,37.705c6.793,1.59,56.584-20.437,58.154-28.285C-23.903,43.901-52.701,2.521-63.983,6.199z"/>
		<path display="inline" fill="#FFFFFF" d="M38.984-73.959C28.486-73.465-49.561-14.233-49.049-4.813
			c0.519,9.423,29.36,46.628,37.729,47.951c8.363,1.301,70.22-78.341,72.306-88.813C63.073-56.172,49.457-74.498,38.984-73.959z"/>
		<path display="inline" fill="#FFFFFF" d="M353.92-360.403c-10.932-15.145-35.498-16.26-56.115-3.016
			c-7.869-4.009-17.022-7.233-27.767-9.215c0,0-391.393,317.515-477.854,378.833c0,0-3.302,7.003-8.776,18.407
			c98.109,68.715,86.957,120.567,86.957,120.567C-156.784,78.259-225.52,43.138-225.54,43.138
			c-24.626,50.699-68.835,139.307-92.308,172.114c0,0-0.04,18.015,22.025,29.479c0,0,150.072-101.023,193.329-109.639
			c0,0,23.883-23.283,60.697-58.922C-61.918,86.479-84.994,96.233-94.624,96.83c-16.772,1.053-36.153-39.437-34.583-53.776
			C-127.635,28.717,24.314-96.52,46.833-94.93c22.54,1.57,29.875,22.518,30.414,37.725c0.205,6.548-13.655,26.546-30.414,48.012
			c113.258-108.669,256.183-243.843,297.084-273.841c0,0,0.414-10.661-3.14-24.688C358.462-323.071,364.475-345.735,353.92-360.403z
			 M-261.484,222.192c0,0-2.542-32.478-33.638-43.817C-295.122,178.375-242.894,154.74-261.484,222.192z"/>
	</g>
	<path display="none" opacity="0.5" fill="#71C8EA" enable-background="new    " d="M1307.062-44.144l3.332,3.333
		c0,0,17-13.666,32.5-11.833c0,0,21-27.999,50-37.833c0,0,17.668-9.834,7.168-30.667s-24.327-12.937-31.168-8
		c-9.582,6.916-39.771,40.322-51.5,56.333C1317.396-72.811,1320.896-56.477,1307.062-44.144z"/>
	<g>
		<path d="M31.943,6.378c0.131-1.776,0.024-3.056-0.228-3.435c-0.293-0.44-1.795-1.241-4.022-1.896
			C29.132,2.3,30.674,4.032,31.943,6.378z"/>
		<path d="M0,21.606c0.042,2.529,0.489,4.377,0.948,4.806c0.417,0.389,1.937,0.901,4.08,1.248C3.376,26.358,1.493,24.415,0,21.606z"
			/>
		<path d="M21.52,0.025C17.277-0.164,12.338,0.668,7.97,3.867c-4.38,3.208-6.515,7.85-7.416,12.097
			c1.264,2.48,4.644,8.372,9.852,12.069c4.508-0.073,9.771-1.126,13.826-4.394c3.715-2.994,5.819-7.875,6.875-12.158
			C29.623,8.708,26.352,3.418,21.52,0.025z M24.779,11.465c0.007,0.396-0.762,1.332-1.103,1.318c-0.1-0.004-0.464-0.347-0.927-0.84
			c-0.548,0.578-1.159,1.174-1.79,1.751c0.312,0.449,0.508,0.782,0.509,0.898c0.008,0.529-1.019,1.782-1.475,1.765
			c-0.12-0.006-0.525-0.377-1.055-0.93c-0.403,0.322-0.795,0.622-1.166,0.889c-0.168,0.119-0.348,0.248-0.535,0.381
			c0.464,0.564,0.767,0.99,0.758,1.105c-0.035,0.455-1.398,1.329-1.924,1.26c-0.139-0.02-0.555-0.354-1.091-0.844
			c-0.561,0.362-1.141,0.725-1.72,1.069c0.503,0.601,0.847,1.063,0.838,1.181c-0.031,0.4-1.232,1.17-1.694,1.108
			c-0.152-0.021-0.687-0.478-1.334-1.091c-1.613,0.787-2.924,1.16-3.284,0.554c-0.303-0.513,0.245-1.537,1.163-2.708
			c-0.563-0.614-0.97-1.104-0.98-1.221c-0.031-0.37,1.078-1.693,1.541-1.633c0.132,0.018,0.565,0.399,1.117,0.946
			c0.425-0.442,0.866-0.879,1.3-1.291c-0.523-0.582-0.883-1.027-0.893-1.146c-0.034-0.419,1.225-1.924,1.75-1.854
			c0.151,0.021,0.654,0.466,1.292,1.098c0.273-0.221,0.517-0.408,0.717-0.549c0.36-0.253,0.734-0.508,1.116-0.76
			c-0.552-0.703-0.933-1.253-0.936-1.405c-0.007-0.529,1.633-1.604,2.045-1.521c0.141,0.027,0.693,0.617,1.364,1.404
			c0.714-0.409,1.423-0.787,2.097-1.116c-0.334-0.438-0.557-0.769-0.559-0.869c-0.006-0.396,1.221-1.2,1.53-1.138
			c0.108,0.022,0.556,0.502,1.087,1.129c1.097-0.382,1.943-0.498,2.329-0.204c0.407,0.31,0.032,1.137-0.765,2.176
			C24.499,10.918,24.777,11.345,24.779,11.465z"/>
	</g>
</g>
</svg>
