<?xml version="1.0" encoding="utf-8"?>
<!-- Generator: Adobe Illustrator 16.0.4, SVG Export Plug-In . SVG Version: 6.00 Build 0)  -->
<!DOCTYPE svg PUBLIC "-//W3C//DTD SVG 1.1//EN" "http://www.w3.org/Graphics/SVG/1.1/DTD/svg11.dtd">
<svg version="1.1" fill="rgb(0, 14, 156)" xmlns="http://www.w3.org/2000/svg" xmlns:xlink="http://www.w3.org/1999/xlink" x="0px" y="0px"
	 width="30.637px" height="32px" viewBox="0 0 30.637 32" enable-background="new 0 0 30.637 32" xml:space="preserve">
<g id="Fondo_1_" display="none">
	<rect id="Fondo" x="-526.644" y="-1467.522" display="inline" fill="#FB6E92" width="1000.001" height="2438.351"/>
</g>
<g id="Guias">
</g>
<g id="Icons">
	<g display="none" opacity="0.2">
		<path display="inline" fill="#FFFFFF" d="M-116.635,8.998c-11.282,3.636-35.886,28.281-38.511,36.152
			c-2.621,7.852,12.065,36.154,18.865,37.705c6.793,1.59,56.584-20.436,58.154-28.283C-76.555,46.701-105.353,5.319-116.635,8.998z"
			/>
		<path display="inline" fill="#FFFFFF" d="M-13.666-71.16c-10.498,0.494-88.546,59.726-88.034,69.146
			c0.519,9.423,29.36,46.629,37.729,47.952c8.363,1.301,70.222-78.341,72.308-88.814C10.422-53.373-3.194-71.699-13.666-71.16z"/>
		<path display="inline" fill="#FFFFFF" d="M301.269-357.604c-10.932-15.145-35.498-16.26-56.115-3.016
			c-7.869-4.009-17.022-7.233-27.767-9.215c0,0-391.393,317.515-477.854,378.833c0,0-3.303,7.003-8.776,18.407
			c98.109,68.715,86.957,120.567,86.957,120.567c-27.149-66.916-95.885-102.037-95.905-102.037
			c-24.626,50.699-68.835,139.308-92.308,172.114c0,0-0.04,18.015,22.024,29.479c0,0,150.072-101.023,193.329-109.639
			c0,0,23.884-23.283,60.697-58.922c-20.121,10.309-43.197,20.062-52.827,20.659c-16.771,1.054-36.152-39.437-34.583-53.776
			C-180.287,31.516-28.336-93.721-5.818-92.131c22.54,1.57,29.875,22.518,30.414,37.725C24.801-47.858,10.94-27.86-5.818-6.395
			C107.44-115.064,250.365-250.238,291.266-280.236c0,0,0.414-10.661-3.14-24.688C305.811-320.272,311.823-342.937,301.269-357.604z
			 M-314.135,224.992c0,0-2.542-32.479-33.639-43.818C-347.773,181.174-295.545,157.539-314.135,224.992z"/>
	</g>
	<path display="none" opacity="0.5" fill="#71C8EA" enable-background="new    " d="M1254.411-41.345l3.333,3.333
		c0,0,17-13.666,32.5-11.833c0,0,21-27.999,50-37.833c0,0,17.667-9.834,7.167-30.667c-10.5-20.833-24.327-12.938-31.167-8
		c-9.583,6.916-39.771,40.322-51.5,56.333C1264.744-70.012,1268.244-53.678,1254.411-41.345z"/>
	<path d="M30.484,14.236c-0.359-1.25-3.521-3.019-4.069-4.024c-0.549-1.007-1.053-8.188-2.104-9.56
		c-0.524-0.687-2.973-1.235-5.534,0.549c-2.592,1.805-3.108,3.659-2.651,4.437c0.457,0.778,3.521,4.894,3.201,6.632
		c-0.32,1.738-8.597,7.044-8.597,7.044s-6.776,0.925-7.217,1.666c-0.101,0.172-0.156,0.428-0.174,0.725
		c2.276-0.43,3.611-0.176,4.823-0.145c-1.537,0.076-6.443,0.364-6.882,0.944c-0.119,0.159-0.203,0.406-0.255,0.7
		c1.225-0.602,5.593-0.438,6.407-0.507c0,0-6.769,0.868-7.227,1.601c-0.457,0.732-0.138,3.036,0.776,3.715
		c0.266,0.194,0.976,0.18,1.849,0.062c-0.437-1.037-0.515-2.063-0.019-2.595c0.736-0.789,2.904-1.137,7.409-1.457
		c0,0-5.396,1.008-6.586,2.281c-1.19,1.272,0.914,5.402,3.385,5.678c2.471,0.274,7.135-2.744,7.135-2.744s3.156,1.007,4.985-0.045
		c1.83-1.053,3.659-7.183,4.3-7.867c0.641-0.688,3.477-0.823,4.711-1.646C29.387,18.855,31.171,16.615,30.484,14.236z
		 M25.178,17.301c0,0,0.555-2.104,0.505-3.064c-0.051-0.96-2.287-4.894-2.287-4.894s3.265,3.339,3.564,4.803
		C27.262,15.608,25.178,17.301,25.178,17.301z"/>
</g>
</svg>
