<?xml version="1.0" encoding="utf-8"?>
<!-- Generator: Adobe Illustrator 16.0.4, SVG Export Plug-In . SVG Version: 6.00 Build 0)  -->
<!DOCTYPE svg PUBLIC "-//W3C//DTD SVG 1.1//EN" "http://www.w3.org/Graphics/SVG/1.1/DTD/svg11.dtd">
<svg version="1.1" fill="rgb(0, 14, 156)" xmlns="http://www.w3.org/2000/svg" xmlns:xlink="http://www.w3.org/1999/xlink" x="0px" y="0px"
	 width="28.977px" height="32px" viewBox="0 0 28.977 32" enable-background="new 0 0 28.977 32" xml:space="preserve">
<g id="Fondo_1_" display="none">
	<rect id="Fondo" x="-579.473" y="-1467.522" display="inline" fill="#FB6E92" width="1000.001" height="2438.351"/>
</g>
<g id="Guias">
</g>
<g id="Icons">
	<g display="none" opacity="0.2">
		<path display="inline" fill="#FFFFFF" d="M-169.464,8.998c-11.282,3.636-35.886,28.281-38.511,36.153
			c-2.621,7.852,12.065,36.154,18.865,37.705c6.793,1.59,56.584-20.436,58.154-28.284C-129.384,46.702-158.182,5.319-169.464,8.998z
			"/>
		<path display="inline" fill="#FFFFFF" d="M-66.495-71.16c-10.498,0.494-88.546,59.726-88.034,69.146
			c0.52,9.423,29.36,46.63,37.729,47.951c8.362,1.301,70.221-78.341,72.307-88.814C-42.407-53.373-56.023-71.699-66.495-71.16z"/>
		<path display="inline" fill="#FFFFFF" d="M248.439-357.604c-10.932-15.145-35.498-16.26-56.114-3.016
			c-7.87-4.009-17.023-7.233-27.768-9.215c0,0-391.393,317.515-477.854,378.833c0,0-3.303,7.003-8.776,18.407
			c98.109,68.715,86.957,120.568,86.957,120.568C-262.264,81.058-331,45.937-331.02,45.937
			c-24.626,50.698-68.835,139.308-92.308,172.114c0,0-0.04,18.015,22.025,29.479c0,0,150.071-101.024,193.328-109.639
			c0,0,23.884-23.283,60.697-58.922c-20.121,10.308-43.197,20.062-52.827,20.659c-16.771,1.053-36.152-39.438-34.583-53.776
			c1.57-14.338,153.521-139.574,176.038-137.984c22.54,1.57,29.875,22.518,30.414,37.725C-28.03-47.858-41.89-27.86-58.649-6.394
			C54.61-115.063,197.534-250.237,238.437-280.235c0,0,0.414-10.661-3.14-24.688C252.981-320.272,258.994-342.937,248.439-357.604z
			 M-366.965,224.993c0,0-2.542-32.479-33.639-43.818C-400.603,181.174-348.374,157.54-366.965,224.993z"/>
	</g>
	<path display="none" opacity="0.5" fill="#71C8EA" enable-background="new    " d="M1201.582-41.345l3.333,3.333
		c0,0,17-13.666,32.5-11.833c0,0,21-27.999,50-37.833c0,0,17.667-9.834,7.167-30.667c-10.5-20.833-24.327-12.938-31.167-8
		c-9.583,6.916-39.771,40.322-51.5,56.333C1211.915-70.012,1215.415-53.678,1201.582-41.345z"/>
	<g>
		<ellipse transform="matrix(-0.9169 -0.399 0.399 -0.9169 26.6391 39.7366)" cx="17.455" cy="17.096" rx="3.491" ry="4.287"/>
		<path d="M27.509,20.947c0.028-0.036,0.059-0.071,0.086-0.11c0.075-0.102,0.146-0.205,0.212-0.311
			c0.075-0.121,0.146-0.248,0.213-0.375c0.021-0.037,0.039-0.074,0.059-0.111c0.05-0.099,0.098-0.197,0.144-0.299
			c0.016-0.035,0.033-0.072,0.049-0.109c0.06-0.135,0.113-0.271,0.164-0.409c0.004-0.013,0.008-0.022,0.012-0.034
			c0.047-0.13,0.09-0.264,0.131-0.396c0.012-0.039,0.021-0.078,0.032-0.117c0.034-0.117,0.065-0.236,0.096-0.358
			c0.007-0.03,0.015-0.062,0.021-0.093c0.036-0.154,0.067-0.311,0.096-0.469c0.002-0.012,0.004-0.021,0.005-0.03
			c0.024-0.147,0.048-0.298,0.065-0.45c0.004-0.031,0.008-0.064,0.012-0.098c0.019-0.148,0.031-0.297,0.043-0.447
			c0.002-0.016,0.003-0.029,0.004-0.043c0.013-0.176,0.021-0.352,0.024-0.53c0-0.001,0-0.003,0-0.005
			c0.004-0.171,0.004-0.344,0.001-0.517c0-0.021-0.001-0.042-0.001-0.063c-0.012-0.543-0.059-1.098-0.138-1.658
			c-0.001-0.009-0.002-0.018-0.003-0.025c-0.082-0.572-0.196-1.151-0.344-1.731c0-0.001,0-0.002-0.002-0.004l0,0
			c-0.868-3.429-2.853-6.9-5.566-9.251c-0.019-0.015-0.036-0.03-0.054-0.046C22.746,2.75,22.624,2.648,22.5,2.55
			c-0.02-0.015-0.036-0.029-0.055-0.044c-0.283-0.225-0.575-0.438-0.874-0.638c-0.005-0.003-0.01-0.006-0.014-0.009
			c-0.138-0.092-0.276-0.181-0.418-0.267c-0.031-0.019-0.062-0.037-0.093-0.055c-0.118-0.071-0.238-0.14-0.358-0.207
			c-0.035-0.019-0.068-0.039-0.104-0.057c-0.132-0.071-0.265-0.14-0.397-0.205c-0.02-0.01-0.039-0.021-0.059-0.03
			c-0.157-0.075-0.315-0.148-0.477-0.217c-0.015-0.006-0.028-0.012-0.044-0.018c-0.139-0.059-0.278-0.114-0.421-0.167
			c-0.045-0.017-0.09-0.032-0.136-0.049c-0.113-0.041-0.229-0.08-0.344-0.117c-0.051-0.016-0.102-0.031-0.151-0.047
			c-0.12-0.036-0.24-0.069-0.361-0.102C18.153,0.312,18.111,0.3,18.068,0.29c-0.163-0.041-0.326-0.078-0.491-0.11
			c-0.021-0.004-0.038-0.007-0.059-0.01c-0.145-0.027-0.291-0.052-0.438-0.072c-0.055-0.008-0.108-0.015-0.163-0.021
			c-0.114-0.015-0.229-0.027-0.346-0.037c-0.061-0.006-0.119-0.011-0.181-0.015c-0.117-0.009-0.234-0.014-0.354-0.018
			c-0.056-0.002-0.109-0.005-0.164-0.006C15.703-0.001,15.531,0,15.357,0.006c-0.229,0.009-0.461,0.027-0.692,0.054
			c-0.097,0.011-0.192,0.028-0.289,0.042c-0.134,0.02-0.27,0.037-0.403,0.062c-0.129,0.023-0.259,0.054-0.388,0.083
			c-0.102,0.022-0.2,0.043-0.301,0.068c-0.153,0.038-0.307,0.083-0.459,0.128C12.75,0.464,12.676,0.486,12.6,0.509
			c-0.173,0.055-0.345,0.115-0.518,0.178c-0.054,0.019-0.104,0.037-0.156,0.058c-0.19,0.071-0.38,0.148-0.569,0.229
			c-0.031,0.014-0.063,0.027-0.097,0.042C11.056,1.105,10.852,1.2,10.648,1.3c-0.015,0.007-0.028,0.015-0.044,0.021
			c-0.216,0.107-0.432,0.221-0.646,0.339c0,0.001,0,0.001,0,0.001l0,0C3.996,4.965-1.186,12.626,0.237,19.333
			c0.033,0.154,0.077,0.305,0.126,0.451c0.012,0.029,0.021,0.059,0.03,0.088c0.051,0.143,0.108,0.279,0.175,0.416
			c0.014,0.025,0.026,0.051,0.04,0.078c0.066,0.129,0.14,0.258,0.22,0.383c0.007,0.012,0.013,0.021,0.02,0.033
			c0.085,0.131,0.18,0.258,0.279,0.383c0.021,0.025,0.042,0.053,0.062,0.078c0.102,0.121,0.207,0.24,0.321,0.356
			c0.019,0.021,0.038,0.038,0.058,0.058c0.11,0.109,0.228,0.217,0.35,0.321c0.015,0.013,0.027,0.026,0.044,0.039
			c0.131,0.11,0.27,0.218,0.413,0.323c0.027,0.021,0.057,0.041,0.086,0.062c0.146,0.104,0.297,0.206,0.454,0.304
			c0.017,0.01,0.032,0.021,0.05,0.03c0.153,0.095,0.312,0.187,0.476,0.274c0.021,0.012,0.042,0.023,0.063,0.035
			c0.172,0.092,0.349,0.18,0.53,0.266c0.03,0.014,0.062,0.027,0.094,0.043c0.187,0.086,0.378,0.17,0.574,0.25
			c0.005,0.002,0.011,0.004,0.015,0.006c0.197,0.08,0.4,0.156,0.605,0.23c0.024,0.009,0.051,0.018,0.074,0.025
			c0.206,0.073,0.416,0.143,0.631,0.209c0.029,0.01,0.061,0.018,0.09,0.027c0.439,0.134,0.896,0.255,1.365,0.363
			c0.029,0.007,0.06,0.015,0.089,0.021c0.231,0.054,0.466,0.103,0.702,0.147c0.012,0.003,0.021,0.006,0.031,0.008
			c-0.612,1.346-1.724,4.285-0.563,5.831c1.534,2.047,11.312,2.274,12.961-0.796c1.032-1.926,0.682-4.006,0.273-5.291
			c1.799-0.43,3.408-1.039,4.668-1.822l0,0c0.004-0.003,0.009-0.006,0.014-0.009c0.312-0.194,0.601-0.4,0.866-0.616
			c0.039-0.031,0.078-0.062,0.116-0.096c0.061-0.051,0.117-0.102,0.174-0.153c0.047-0.042,0.092-0.084,0.138-0.126
			c0.05-0.048,0.098-0.096,0.145-0.145c0.05-0.051,0.098-0.102,0.146-0.152c0.038-0.044,0.078-0.087,0.116-0.133
			C27.41,21.075,27.459,21.01,27.509,20.947z M11.537,23.946c0.153-0.474,0.281-0.967,0.373-1.479
			c0.784-4.438-1.261-8.507-4.567-9.093c-2.286-0.404-4.574,0.965-6.03,3.312C1.285,11.439,5.087,5.958,9.58,3.106
			c-0.496,3.119,1.047,6.25,3.959,7.517c3.483,1.516,7.593-0.208,9.178-3.85C23,6.12,23.18,5.45,23.27,4.781
			c1.964,2.1,3.39,4.848,4.048,7.554c-1.476,0.439-2.849,1.651-3.601,3.382c-0.986,2.265-0.606,4.709,0.787,6.079
			C21.425,23.614,16.224,24.351,11.537,23.946z"/>
	</g>
</g>
</svg>
