<?xml version="1.0" encoding="utf-8"?>
<!-- Generator: Adobe Illustrator 16.0.4, SVG Export Plug-In . SVG Version: 6.00 Build 0)  -->
<!DOCTYPE svg PUBLIC "-//W3C//DTD SVG 1.1//EN" "http://www.w3.org/Graphics/SVG/1.1/DTD/svg11.dtd">
<svg version="1.1" fill="rgb(0, 14, 156)" xmlns="http://www.w3.org/2000/svg" xmlns:xlink="http://www.w3.org/1999/xlink" x="0px" y="0px"
	 width="32px" height="25.871px" viewBox="0 0 32 25.871" enable-background="new 0 0 32 25.871" xml:space="preserve">
<g id="Fondo_1_" display="none">
	<rect id="Fondo" x="-629.959" y="-1470.866" display="inline" fill="#FB6E92" width="1000" height="2438.352"/>
</g>
<g id="Guias">
</g>
<g id="Icons">
	<g display="none" opacity="0.2">
		<path display="inline" fill="#FFFFFF" d="M-219.95,5.654c-11.282,3.636-35.885,28.281-38.51,36.153
			c-2.621,7.851,12.065,36.153,18.865,37.705c6.793,1.59,56.584-20.437,58.154-28.284C-179.87,43.357-208.668,1.976-219.95,5.654z"
			/>
		<path display="inline" fill="#FFFFFF" d="M-116.981-74.504c-10.498,0.494-88.546,59.726-88.034,69.146
			c0.519,9.423,29.36,46.629,37.729,47.951c8.363,1.301,70.221-78.341,72.307-88.814C-92.894-56.717-106.51-75.043-116.981-74.504z"
			/>
		<path display="inline" fill="#FFFFFF" d="M197.953-360.948c-10.932-15.145-35.498-16.26-56.115-3.016
			c-7.87-4.009-17.023-7.233-27.768-9.215c0,0-391.393,317.515-477.854,378.833c0,0-3.302,7.003-8.776,18.407
			c98.109,68.715,86.957,120.567,86.957,120.567c-27.149-66.916-95.885-102.037-95.905-102.037
			c-24.626,50.699-68.835,139.308-92.308,172.115c0,0-0.04,18.015,22.025,29.479c0,0,150.072-101.024,193.329-109.64
			c0,0,23.883-23.282,60.697-58.922c-20.121,10.309-43.197,20.062-52.827,20.66c-16.772,1.053-36.153-39.438-34.583-53.777
			c1.57-14.338,153.521-139.573,176.038-137.983c22.54,1.57,29.875,22.518,30.414,37.725c0.205,6.548-13.655,26.546-30.414,48.012
			C4.124-118.407,147.048-253.581,187.95-283.579c0,0,0.413-10.661-3.14-24.688C202.495-323.616,208.508-346.28,197.953-360.948z
			 M-417.451,221.648c0,0-2.542-32.479-33.638-43.818C-451.089,177.83-398.86,154.195-417.451,221.648z"/>
	</g>
	<path display="none" opacity="0.5" fill="#71C8EA" enable-background="new    " d="M1151.096-44.688l3.333,3.333
		c0,0,17-13.666,32.5-11.833c0,0,21-27.999,50-37.833c0,0,17.667-9.834,7.167-30.667s-24.327-12.937-31.167-8
		c-9.583,6.916-39.771,40.322-51.5,56.333C1161.429-73.355,1164.929-57.021,1151.096-44.688z"/>
	<g>
		<path d="M21.18,1.07c-0.787-0.963-6.128-1.4-7.44-0.787c-0.364,0.17-0.646,0.973-0.865,2.042l8.753,0.873
			C21.523,2.126,21.38,1.315,21.18,1.07z"/>
		<path d="M28.473,7.006C28.02,6.452,24.947,6.2,24.191,6.553c-0.211,0.098-0.373,0.561-0.498,1.176l5.035,0.502
			C28.67,7.614,28.588,7.147,28.473,7.006z"/>
		<path d="M31.822,12.545c-0.129-0.192-1.243-0.468-2.98-0.78c-0.006-0.624-0.021-1.383-0.052-2.112L23.43,9.53
			c-0.049,0.503-0.082,0.992-0.106,1.401c-0.474-0.062-0.958-0.125-1.453-0.188c-0.002-1.172-0.019-3.183-0.099-5.074l-9.319-0.215
			c-0.209,2.199-0.27,4.265-0.27,4.265l0.002,0.001C6.06,9.201,0.761,9.032,0.295,9.751c-1.137,1.747,1.104,10.133,5.208,12.875
			c5.213,3.483,19.507,4.242,23.786,1.885C31.051,23.541,32.521,13.593,31.822,12.545z M7.426,19.365
			c-1.188,0.223-2.409-0.982-2.728-2.689c-0.319-1.707,0.386-3.271,1.573-3.491c1.188-0.223,2.41,0.981,2.729,2.688
			S8.615,19.143,7.426,19.365z M13.58,20.602c-1.349,0.253-2.734-1.114-3.097-3.052c-0.361-1.938,0.438-3.713,1.786-3.963
			c1.35-0.252,2.735,1.113,3.098,3.052C15.729,18.576,14.929,20.351,13.58,20.602z M20.218,21.3
			c-1.349,0.253-2.735-1.114-3.097-3.051c-0.362-1.938,0.438-3.711,1.786-3.965c1.349-0.252,2.735,1.115,3.097,3.053
			C22.366,19.274,21.566,21.048,20.218,21.3z M26.641,21.111c-1.188,0.223-2.41-0.982-2.729-2.689
			c-0.319-1.707,0.386-3.271,1.572-3.491c1.188-0.224,2.412,0.981,2.729,2.688C28.533,19.326,27.829,20.889,26.641,21.111z"/>
	</g>
</g>
</svg>
