<?xml version="1.0" encoding="utf-8"?>
<!-- Generator: Adobe Illustrator 16.0.4, SVG Export Plug-In . SVG Version: 6.00 Build 0)  -->
<!DOCTYPE svg PUBLIC "-//W3C//DTD SVG 1.1//EN" "http://www.w3.org/Graphics/SVG/1.1/DTD/svg11.dtd">
<svg version="1.1" fill="rgb(0, 14, 156)" xmlns="http://www.w3.org/2000/svg" xmlns:xlink="http://www.w3.org/1999/xlink" x="0px" y="0px"
	 width="29.441px" height="32px" viewBox="0 0 29.441 32" enable-background="new 0 0 29.441 32" xml:space="preserve">
<g id="Fondo_1_" display="none">
	<rect id="Fondo" x="-683.237" y="-1467.522" display="inline" fill="#FB6E92" width="999.999" height="2438.351"/>
</g>
<g id="Guias">
</g>
<g id="Icons">
	<g display="none" opacity="0.2">
		<path display="inline" fill="#FFFFFF" d="M-273.228,8.998c-11.282,3.636-35.886,28.281-38.511,36.152
			c-2.62,7.852,12.065,36.154,18.865,37.705c6.793,1.59,56.584-20.436,58.154-28.283C-233.147,46.701-261.945,5.319-273.228,8.998z"
			/>
		<path display="inline" fill="#FFFFFF" d="M-170.259-71.16c-10.498,0.494-88.546,59.726-88.034,69.146
			c0.52,9.423,29.36,46.629,37.729,47.952c8.362,1.301,70.221-78.341,72.307-88.814C-146.171-53.373-159.787-71.699-170.259-71.16z"
			/>
		<path display="inline" fill="#FFFFFF" d="M144.676-357.604c-10.932-15.145-35.497-16.26-56.114-3.016
			c-7.87-4.009-17.023-7.233-27.768-9.215c0,0-391.393,317.515-477.854,378.833c0,0-3.302,7.003-8.776,18.407
			c98.109,68.715,86.957,120.567,86.957,120.567c-27.148-66.916-95.885-102.037-95.905-102.037
			c-24.626,50.699-68.835,139.308-92.308,172.114c0,0-0.04,18.015,22.025,29.479c0,0,150.071-101.023,193.329-109.639
			c0,0,23.883-23.283,60.696-58.922c-20.121,10.309-43.196,20.062-52.827,20.659c-16.771,1.054-36.152-39.437-34.583-53.776
			c1.57-14.338,153.521-139.574,176.038-137.983c22.54,1.57,29.875,22.518,30.414,37.725c0.205,6.548-13.654,26.546-30.414,48.012
			c113.261-108.668,256.185-243.842,297.086-273.84c0,0,0.414-10.661-3.14-24.688C149.218-320.272,155.23-342.937,144.676-357.604z
			 M-470.729,224.992c0,0-2.542-32.479-33.639-43.818C-504.366,181.174-452.138,157.539-470.729,224.992z"/>
	</g>
	<path display="none" opacity="0.5" fill="#71C8EA" enable-background="new    " d="M1097.818-41.345l3.333,3.333
		c0,0,17-13.666,32.5-11.833c0,0,21-27.999,50-37.833c0,0,17.667-9.834,7.167-30.667c-10.5-20.833-24.327-12.938-31.167-8
		c-9.583,6.916-39.771,40.322-51.5,56.333C1108.151-70.012,1111.651-53.678,1097.818-41.345z"/>
	<path d="M27.315,12.382c-0.49-0.049-1.89,0.145-3.799,0.519c-0.262-1.74-1.106-6.899-2.104-7.624
		c-0.407-0.297-1.08-0.363-1.827-0.293c0.102-1.049,0.383-4.386-0.03-4.846c-0.492-0.547-5.356,0.656-5.575,1.422
		c-0.221,0.765,0.164,2.623,0.742,2.951c0.577,0.328,3.273-2.077,3.273-2.077v2.864h0.003c-0.966,0.283-1.849,0.697-2.271,1.071
		c-0.983,0.874-3.332,9.343-3.335,9.354C7.505,17.236,2.967,19.068,1.516,20.8c-3.391,4.046-0.875,10.276,5.355,11.151
		c6.231,0.874,20.68-10.238,21.865-11.917C30.049,18.177,29.502,12.601,27.315,12.382z M10.64,24.786
		c-0.374,1.336-1.541,2.178-2.607,1.879c-1.065-0.298-1.626-1.623-1.253-2.959c0.374-1.336,1.542-2.179,2.607-1.879
		C10.452,22.125,11.014,23.45,10.64,24.786z M16.512,22.424c-0.348,1.24-1.431,2.021-2.421,1.744
		c-0.988-0.275-1.51-1.507-1.162-2.747c0.348-1.239,1.432-2.022,2.42-1.744C16.339,19.953,16.859,21.184,16.512,22.424z
		 M21.828,20.087c-0.323,1.157-1.334,1.886-2.257,1.627c-0.922-0.258-1.407-1.403-1.084-2.562c0.323-1.156,1.334-1.885,2.256-1.627
		C21.666,17.784,22.151,18.932,21.828,20.087z M26.403,17.881c-0.281,1.008-1.161,1.643-1.964,1.417
		c-0.805-0.226-1.228-1.224-0.944-2.229c0.283-1.006,1.162-1.643,1.964-1.417C26.263,15.876,26.686,16.874,26.403,17.881z"/>
</g>
</svg>
