<?xml version="1.0" encoding="utf-8"?>
<!-- Generator: Adobe Illustrator 16.0.4, SVG Export Plug-In . SVG Version: 6.00 Build 0)  -->
<!DOCTYPE svg PUBLIC "-//W3C//DTD SVG 1.1//EN" "http://www.w3.org/Graphics/SVG/1.1/DTD/svg11.dtd">
<svg version="1.1" fill="rgb(0, 14, 156)" xmlns="http://www.w3.org/2000/svg" xmlns:xlink="http://www.w3.org/1999/xlink" x="0px" y="0px"
	 width="32px" height="30.203px" viewBox="0 0 32 30.203" enable-background="new 0 0 32 30.203" xml:space="preserve">
<g id="Fondo_1_" display="none">
	<rect id="Fondo" x="-733.956" y="-1467.855" display="inline" fill="#FB6E92" width="1000" height="2438.351"/>
</g>
<g id="Guias">
</g>
<g id="Icons">
	<g display="none" opacity="0.2">
		<path display="inline" fill="#FFFFFF" d="M-323.946,8.665c-11.282,3.636-35.885,28.28-38.51,36.153
			c-2.621,7.851,12.065,36.154,18.865,37.705c6.793,1.59,56.584-20.437,58.154-28.284C-283.866,46.368-312.664,4.986-323.946,8.665z
			"/>
		<path display="inline" fill="#FFFFFF" d="M-220.978-71.493c-10.498,0.494-88.546,59.726-88.034,69.146
			c0.519,9.423,29.36,46.629,37.729,47.951c8.363,1.301,70.221-78.34,72.307-88.813C-196.89-53.706-210.506-72.032-220.978-71.493z"
			/>
		<path display="inline" fill="#FFFFFF" d="M93.957-357.938c-10.932-15.145-35.498-16.26-56.115-3.016
			c-7.869-4.009-17.022-7.233-27.766-9.215c0,0-391.393,317.515-477.854,378.833c0,0-3.302,7.003-8.776,18.407
			c98.109,68.715,86.957,120.567,86.957,120.567c-27.149-66.916-95.885-102.037-95.905-102.037
			c-24.626,50.699-68.835,139.308-92.308,172.114c0,0-0.04,18.015,22.025,29.479c0,0,150.072-101.023,193.329-109.639
			c0,0,23.883-23.283,60.697-58.922c-20.121,10.309-43.197,20.062-52.827,20.659c-16.772,1.054-36.153-39.437-34.583-53.776
			C-387.6,31.18-235.649-94.056-213.132-92.466c22.54,1.57,29.875,22.518,30.414,37.725c0.205,6.548-13.655,26.546-30.414,48.012
			C-99.872-115.396,43.052-250.57,83.955-280.568c0,0,0.414-10.661-3.141-24.688C98.5-320.605,104.512-343.27,93.957-357.938z
			 M-521.447,224.659c0,0-2.542-32.478-33.638-43.818C-555.085,180.841-502.856,157.206-521.447,224.659z"/>
	</g>
	<path display="none" opacity="0.5" fill="#71C8EA" enable-background="new    " d="M1047.099-41.678l3.334,3.333
		c0,0,17-13.666,32.5-11.833c0,0,21-27.999,50-37.833c0,0,17.666-9.834,7.166-30.667c-10.5-20.833-24.326-12.938-31.166-8
		c-9.584,6.916-39.771,40.322-51.5,56.333C1057.433-70.345,1060.933-54.011,1047.099-41.678z"/>
	<g>
		<path d="M6.339,6.561c-1.922,1.734-2.621,4.092-1.562,5.267c1.061,1.176,3.478,0.724,5.4-1.01C12.1,9.083,12.799,6.725,11.74,5.55
			C10.679,4.375,8.262,4.827,6.339,6.561z M9.003,9.784c-0.9,0.813-2.033,1.024-2.53,0.474c-0.496-0.55-0.169-1.654,0.731-2.467
			c0.9-0.812,2.033-1.023,2.53-0.474C10.23,7.869,9.903,8.973,9.003,9.784z"/>
		<path d="M32,19.943c0-0.879-5.723-6.897-6.181-7.726c-0.459-0.828,0.423-8.305,0.196-9.223c-0.309-1.252-2.979-1.982-4.047-1.486
			c-0.727,0.337-0.692,5.557-1.057,5.623c-0.361,0.067-5.449-5.814-6.636-6.6C13.091-0.253,8.259-0.936,3.307,4.415
			c-5.922,6.396-2.248,10.672-1.436,11.394C2.683,16.529,17.33,29.63,20.101,30.07c1.141,0.181,2.34,0.178,3.52-0.014L11.492,19.268
			l13.5,10.477c0.828-0.246,1.629-0.592,2.379-1.038L15.205,17.749l12.998,10.397c0.633-0.474,1.213-1.028,1.719-1.674
			L18.539,15.136l12.127,10.23c0.426-0.744,0.763-1.579,0.992-2.503l-10.799-9.925l10.98,9.042C31.945,21.341,32,20.662,32,19.943z
			 M11.279,11.577c-2.903,2.619-6.556,3.302-8.156,1.527c-1.602-1.775-0.544-5.338,2.358-7.956c2.904-2.618,6.557-3.302,8.158-1.526
			C15.24,5.396,14.183,8.959,11.279,11.577z"/>
	</g>
</g>
</svg>
