<?xml version="1.0" encoding="utf-8"?>
<!-- Generator: Adobe Illustrator 16.0.4, SVG Export Plug-In . SVG Version: 6.00 Build 0)  -->
<!DOCTYPE svg PUBLIC "-//W3C//DTD SVG 1.1//EN" "http://www.w3.org/Graphics/SVG/1.1/DTD/svg11.dtd">
<svg version="1.1" fill="rgb(0, 14, 156)" xmlns="http://www.w3.org/2000/svg" xmlns:xlink="http://www.w3.org/1999/xlink" x="0px" y="0px"
	 width="12.258px" height="32px" viewBox="0 0 12.258 32" enable-background="new 0 0 12.258 32" xml:space="preserve">
<g id="Fondo_1_" display="none">
	<rect id="Fondo" x="-797.571" y="-1467.523" display="inline" fill="#FB6E92" width="1000.001" height="2438.351"/>
</g>
<g id="Guias">
</g>
<g id="Icons">
	<g display="none" opacity="0.2">
		<path display="inline" fill="#FFFFFF" d="M-387.562,8.997c-11.282,3.636-35.885,28.28-38.51,36.153
			c-2.621,7.851,12.065,36.154,18.865,37.705c6.793,1.59,56.584-20.437,58.154-28.285C-347.481,46.7-376.279,5.318-387.562,8.997z"
			/>
		<path display="inline" fill="#FFFFFF" d="M-284.593-71.161c-10.498,0.494-88.546,59.726-88.034,69.146
			c0.519,9.423,29.36,46.629,37.729,47.951c8.363,1.301,70.221-78.34,72.307-88.813C-260.505-53.374-274.121-71.7-284.593-71.161z"
			/>
		<path display="inline" fill="#FFFFFF" d="M30.342-357.605c-10.932-15.145-35.498-16.26-56.115-3.016
			c-7.87-4.009-17.023-7.233-27.767-9.215c0,0-391.393,317.515-477.854,378.833c0,0-3.302,7.003-8.776,18.407
			c98.109,68.715,86.957,120.568,86.957,120.568c-27.149-66.916-95.885-102.037-95.905-102.037
			c-24.626,50.698-68.835,139.307-92.308,172.113c0,0-0.04,18.016,22.025,29.48c0,0,150.072-101.024,193.329-109.639
			c0,0,23.883-23.283,60.697-58.923c-20.121,10.308-43.197,20.062-52.827,20.659c-16.772,1.053-36.153-39.438-34.583-53.775
			c1.57-14.338,153.521-139.575,176.038-137.984c22.54,1.57,29.875,22.518,30.414,37.725c0.205,6.548-13.655,26.546-30.414,48.012
			c113.26-108.668,256.184-243.842,297.086-273.84c0,0,0.414-10.661-3.14-24.688C34.884-320.273,40.896-342.938,30.342-357.605z
			 M-585.062,224.991c0,0-2.542-32.478-33.638-43.818C-618.7,181.173-566.472,157.538-585.062,224.991z"/>
	</g>
	<path display="none" opacity="0.5" fill="#71C8EA" enable-background="new    " d="M983.484-41.346l3.333,3.333
		c0,0,17-13.666,32.5-11.833c0,0,21-27.999,50-37.833c0,0,17.667-9.834,7.167-30.667s-24.327-12.937-31.167-8
		c-9.583,6.916-39.771,40.322-51.5,56.333C993.817-70.013,997.317-53.679,983.484-41.346z"/>
	<g>
		<path d="M7.609,16.961c-0.389-0.291-5.207,1.363-5.207,1.801c0,0.438,0,0.926,0,0.926l5.207-1.217
			C7.609,18.471,8,17.254,7.609,16.961z"/>
		<path d="M6.129,16.426c0,0,0.313-15.378,0-15.864C5.814,0.074,3.475-0.314,2.987,0.366C2.501,1.048,4.106,16.928,4.106,16.928
			L6.129,16.426z"/>
		<path d="M7.951,19.055c-0.348-0.306-5.382,0.995-6.034,1.557c-1.752,1.509-2.385,9.685-1.558,10.316
			c0.209,0.16,0.888,0.41,1.829,0.629c0.075-3.236,0.62-8.854,0.942-8.805c0.285,0.045,0.451,6.434,0.508,9.073
			C4.377,31.932,5.185,32,6.009,32c-0.156-2.297-0.617-9.425-0.321-9.498c0.342-0.085,1.528,6.406,1.789,9.418
			c0.783-0.09,1.551-0.259,2.258-0.537c-0.623-2.392-2.312-8.974-2.041-9.099c0.302-0.14,2.428,5.317,3.354,8.384
			c0.435-0.314,0.82-0.691,1.138-1.15C12.656,28.835,10.773,21.535,7.951,19.055z"/>
	</g>
</g>
</svg>
