<?xml version="1.0" encoding="utf-8"?>
<!-- Generator: Adobe Illustrator 16.0.4, SVG Export Plug-In . SVG Version: 6.00 Build 0)  -->
<!DOCTYPE svg PUBLIC "-//W3C//DTD SVG 1.1//EN" "http://www.w3.org/Graphics/SVG/1.1/DTD/svg11.dtd">
<svg version="1.1" fill="rgb(0, 14, 156)" xmlns="http://www.w3.org/2000/svg" xmlns:xlink="http://www.w3.org/1999/xlink" x="0px" y="0px"
	 width="32px" height="30.479px" viewBox="0 0 32 30.479" enable-background="new 0 0 32 30.479" xml:space="preserve">
<g id="Fondo_1_" display="none">
	<rect id="Fondo" x="-838.014" y="-1468.283" display="inline" fill="#FB6E92" width="1000" height="2438.352"/>
</g>
<g id="Guias">
</g>
<g id="Icons">
	<g display="none" opacity="0.2">
		<path display="inline" fill="#FFFFFF" d="M-428.005,8.237c-11.282,3.637-35.885,28.281-38.51,36.153
			c-2.621,7.852,12.065,36.154,18.865,37.705c6.793,1.59,56.584-20.436,58.154-28.284C-387.925,45.94-416.723,4.559-428.005,8.237z"
			/>
		<path display="inline" fill="#FFFFFF" d="M-325.036-71.921c-10.498,0.494-88.546,59.726-88.034,69.146
			c0.519,9.423,29.36,46.629,37.729,47.951c8.363,1.301,70.221-78.341,72.307-88.814C-300.948-54.134-314.564-72.46-325.036-71.921z
			"/>
		<path display="inline" fill="#FFFFFF" d="M-10.102-358.365c-10.932-15.145-35.498-16.26-56.115-3.016
			c-7.87-4.01-17.023-7.233-27.767-9.215c0,0-391.393,317.515-477.854,378.832c0,0-3.302,7.004-8.776,18.407
			c98.109,68.715,86.957,120.568,86.957,120.568c-27.149-66.916-95.885-102.037-95.905-102.037
			c-24.626,50.699-68.835,139.307-92.308,172.114c0,0-0.04,18.015,22.025,29.479c0,0,150.072-101.023,193.329-109.639
			c0,0,23.883-23.283,60.697-58.922c-20.121,10.308-43.197,20.062-52.827,20.659c-16.772,1.053-36.153-39.438-34.583-53.776
			c1.57-14.338,153.521-139.574,176.038-137.984c22.54,1.57,29.875,22.519,30.414,37.726c0.205,6.548-13.655,26.546-30.414,48.012
			c113.26-108.668,256.184-243.842,297.087-273.84c0,0,0.414-10.661-3.14-24.688C-5.56-321.033,0.453-343.697-10.102-358.365z
			 M-625.506,224.231c0,0-2.542-32.478-33.638-43.817C-659.144,180.413-606.915,156.778-625.506,224.231z"/>
	</g>
	<path display="none" opacity="0.5" fill="#71C8EA" enable-background="new    " d="M943.041-42.105l3.333,3.333
		c0,0,17-13.666,32.5-11.833c0,0,21-27.999,50-37.833c0,0,17.667-9.834,7.167-30.667s-24.327-12.937-31.167-8
		c-9.583,6.916-39.771,40.322-51.5,56.333C953.374-70.772,956.874-54.438,943.041-42.105z"/>
	<path d="M6.896,23.961c0,0-5.817,0.97-6.639,0c-0.82-0.97,0.522-6.415,1.119-7.311c0.597-0.895,5.52,1.865,5.52,1.865l13.799-10.89
		c0,0-3.387-5.015-2.536-6.041c1.79-2.163,7.086-1.716,7.758-0.97c0.671,0.744,0,5.669,0,5.669s5.295-0.522,5.892,0.446
		c0.599,0.971-0.298,5.894-1.416,6.563c-1.119,0.671-5.222-2.163-5.222-2.163L12.118,22.917c0,0,1.491,4.624,1.268,5.37
		c-0.223,0.746-3.953,2.514-5.445,2.141C6.449,30.056,6.896,23.961,6.896,23.961z"/>
</g>
</svg>
