<?xml version="1.0" encoding="utf-8"?>
<!-- Generator: Adobe Illustrator 16.0.4, SVG Export Plug-In . SVG Version: 6.00 Build 0)  -->
<!DOCTYPE svg PUBLIC "-//W3C//DTD SVG 1.1//EN" "http://www.w3.org/Graphics/SVG/1.1/DTD/svg11.dtd">
<svg version="1.1" fill="rgb(0, 14, 156)" xmlns="http://www.w3.org/2000/svg" xmlns:xlink="http://www.w3.org/1999/xlink" x="0px" y="0px"
	 width="29.48px" height="32px" viewBox="0 0 29.48 32" enable-background="new 0 0 29.48 32" xml:space="preserve">
<g id="Fondo_1_" display="none">
	<rect id="Fondo" x="-111.226" y="-1531.522" display="inline" fill="#FB6E92" width="1000" height="2438.351"/>
</g>
<g id="Guias">
</g>
<g id="Icons">
	<g display="none" opacity="0.2">
		<path display="inline" fill="#FFFFFF" d="M298.783-55.002c-11.282,3.636-35.885,28.281-38.51,36.153
			c-2.621,7.851,12.064,36.154,18.865,37.705c6.793,1.59,56.583-20.436,58.153-28.284C338.863-17.299,310.065-58.681,298.783-55.002
			z"/>
		<path display="inline" fill="#FFFFFF" d="M401.752-135.16c-10.498,0.494-88.546,59.726-88.034,69.146
			c0.52,9.423,29.36,46.629,37.729,47.951c8.362,1.301,70.221-78.341,72.307-88.814C425.84-117.373,412.223-135.699,401.752-135.16z
			"/>
		<path display="inline" fill="#FFFFFF" d="M716.687-421.604c-10.933-15.145-35.498-16.26-56.115-3.016
			c-7.87-4.009-17.023-7.233-27.768-9.215c0,0-391.393,317.515-477.854,378.833c0,0-3.302,7.003-8.776,18.407
			c98.109,68.714,86.957,120.568,86.957,120.568c-27.148-66.916-95.885-102.037-95.904-102.037
			c-24.626,50.699-68.835,139.307-92.309,172.113c0,0-0.04,18.016,22.025,29.48c0,0,150.072-101.023,193.329-109.639
			c0,0,23.883-23.283,60.696-58.922c-20.12,10.308-43.196,20.062-52.826,20.658c-16.772,1.054-36.153-39.437-34.583-53.775
			c1.569-14.338,153.521-139.574,176.037-137.984c22.54,1.57,29.875,22.518,30.414,37.725c0.205,6.548-13.654,26.546-30.414,48.012
			C522.855-179.064,665.78-314.238,706.681-344.236c0,0,0.414-10.661-3.14-24.688C721.228-384.272,727.241-406.937,716.687-421.604z
			 M101.282,160.993c0,0-2.542-32.479-33.638-43.818C67.645,117.174,119.873,93.54,101.282,160.993z"/>
	</g>
	<path display="none" opacity="0.5" fill="#71C8EA" enable-background="new    " d="M1669.829-105.345l3.333,3.333
		c0,0,17-13.666,32.5-11.833c0,0,21-27.999,50-37.833c0,0,17.667-9.834,7.167-30.667c-10.5-20.833-24.327-12.938-31.167-8
		c-9.583,6.916-39.771,40.322-51.5,56.333C1680.162-134.012,1683.662-117.678,1669.829-105.345z"/>
	<g>
		<path d="M12.922,16.872c-5.188,5.793-5.206,12.043,0.52,14.267c7.349,2.854,15.996-1.47,13.142-11.5
			C25.326,15.217,18.11,11.078,12.922,16.872z"/>
		<ellipse transform="matrix(-0.801 0.5987 -0.5987 -0.801 17.8629 32.3465)" cx="3.555" cy="19.142" rx="3.026" ry="4.341"/>
		<ellipse transform="matrix(-0.314 -0.9494 0.9494 -0.314 1.3539 19.4718)" cx="7.711" cy="9.247" rx="5.885" ry="3.756"/>
		<ellipse transform="matrix(0.9997 0.0227 -0.0227 0.9997 0.1278 -0.3774)" cx="16.711" cy="5.449" rx="3.479" ry="5.451"/>
		<ellipse transform="matrix(-0.9458 -0.3248 0.3248 -0.9458 47.5276 24.547)" cx="25.813" cy="8.306" rx="3.479" ry="4.988"/>
	</g>
</g>
</svg>
