<?xml version="1.0" encoding="utf-8"?>
<!-- Generator: Adobe Illustrator 16.0.4, SVG Export Plug-In . SVG Version: 6.00 Build 0)  -->
<!DOCTYPE svg PUBLIC "-//W3C//DTD SVG 1.1//EN" "http://www.w3.org/Graphics/SVG/1.1/DTD/svg11.dtd">
<svg version="1.1" fill="rgb(0, 14, 156)" xmlns="http://www.w3.org/2000/svg" xmlns:xlink="http://www.w3.org/1999/xlink" x="0px" y="0px"
	 width="32px" height="25.186px" viewBox="0 0 32 25.186" enable-background="new 0 0 32 25.186" xml:space="preserve">
<g id="Fondo_1_" display="none">
	<rect id="Fondo" x="-161.966" y="-1534.886" display="inline" fill="#FB6E92" width="1000" height="2438.351"/>
</g>
<g id="Guias">
</g>
<g id="Icons">
	<g display="none" opacity="0.2">
		<path display="inline" fill="#FFFFFF" d="M248.043-58.366c-11.281,3.636-35.885,28.281-38.51,36.153
			c-2.621,7.851,12.064,36.153,18.865,37.705c6.793,1.59,56.584-20.437,58.153-28.284C288.123-20.663,259.325-62.045,248.043-58.366
			z"/>
		<path display="inline" fill="#FFFFFF" d="M351.012-138.524c-10.498,0.494-88.546,59.727-88.033,69.146
			c0.519,9.423,29.359,46.629,37.729,47.951c8.363,1.301,70.221-78.342,72.307-88.814
			C375.1-120.737,361.483-139.063,351.012-138.524z"/>
		<path display="inline" fill="#FFFFFF" d="M665.946-424.969c-10.933-15.146-35.498-16.261-56.115-3.017
			c-7.87-4.009-17.023-7.232-27.767-9.215c0,0-391.394,317.515-477.854,378.833c0,0-3.302,7.003-8.776,18.407
			c98.109,68.715,86.957,120.567,86.957,120.567C155.243,13.693,86.507-21.428,86.486-21.428
			C61.859,29.271,17.65,117.879-5.821,150.687c0,0-0.04,18.016,22.025,29.48c0,0,150.071-101.024,193.329-109.64
			c0,0,23.883-23.282,60.697-58.922c-20.121,10.309-43.197,20.062-52.828,20.659c-16.771,1.053-36.152-39.437-34.582-53.776
			c1.57-14.338,153.521-139.573,176.038-137.983c22.54,1.57,29.875,22.518,30.413,37.725c0.205,6.548-13.654,26.546-30.413,48.013
			C472.117-182.427,615.041-317.602,655.943-347.6c0,0,0.414-10.66-3.141-24.688C670.488-387.636,676.501-410.301,665.946-424.969z
			 M50.542,157.628c0,0-2.542-32.479-33.638-43.818C16.904,113.81,69.133,90.175,50.542,157.628z"/>
	</g>
	<path display="none" opacity="0.5" fill="#71C8EA" enable-background="new    " d="M1619.089-108.709l3.333,3.333
		c0,0,17-13.666,32.5-11.833c0,0,21-27.999,50-37.833c0,0,17.667-9.834,7.167-30.667s-24.327-12.938-31.167-8
		c-9.583,6.916-39.771,40.322-51.5,56.333C1629.422-137.376,1632.922-121.042,1619.089-108.709z"/>
	<path d="M31.917,17.748c-0.328-1.229-11.958-6.227-15.773-7.837c-0.017-0.335,0.002-0.79,0.176-1.092
		c0.305-0.528,2.252-1.926,2.677-3.278c0.44-1.41,0.463-5.021-3.184-5.491c-4.444-0.574-6.255,4.024-6.202,4.398
		c0.054,0.373,1.184,0.965,1.48,0.867c0.297-0.099,1.242-3.683,4.102-3.434s2.336,2.562,2.09,3.403
		c-0.245,0.841-2.831,3.126-3.017,3.603c-0.098,0.251-0.08,0.65-0.041,0.971c-2.948,1.866-14.03,8.955-14.2,10.146
		c-0.196,1.373,0.687,4.611,1.57,5.102c0.883,0.491,27.867-1.472,28.75-2.257C31.23,22.065,32.311,19.221,31.917,17.748z
		 M29.169,21.526c-0.696,0.542-25.748,2.351-26.444,2.012c-0.696-0.338-1.136-2.191-0.981-3.141
		c0.154-0.947,12.722-8.744,13.59-8.88c0.868-0.135,14.654,5.902,14.963,6.918C30.607,19.451,29.866,20.984,29.169,21.526z"/>
</g>
</svg>
