<?xml version="1.0" encoding="utf-8"?>
<!-- Generator: Adobe Illustrator 16.0.4, SVG Export Plug-In . SVG Version: 6.00 Build 0)  -->
<!DOCTYPE svg PUBLIC "-//W3C//DTD SVG 1.1//EN" "http://www.w3.org/Graphics/SVG/1.1/DTD/svg11.dtd">
<svg version="1.1" fill="rgb(0, 14, 156)" xmlns="http://www.w3.org/2000/svg" xmlns:xlink="http://www.w3.org/1999/xlink" x="0px" y="0px"
	 width="15.008px" height="32px" viewBox="0 0 15.008 32" enable-background="new 0 0 15.008 32" xml:space="preserve">
<g id="Fondo_1_" display="none">
	<rect id="Fondo" x="-221.871" y="-1531.522" display="inline" fill="#FB6E92" width="1000" height="2438.351"/>
</g>
<g id="Guias">
</g>
<g id="Icons">
	<g display="none" opacity="0.2">
		<path display="inline" fill="#FFFFFF" d="M188.139-55.002c-11.283,3.636-35.886,28.281-38.511,36.153
			c-2.621,7.851,12.065,36.154,18.865,37.705c6.793,1.59,56.584-20.436,58.153-28.284C228.218-17.299,199.42-58.681,188.139-55.002z
			"/>
		<path display="inline" fill="#FFFFFF" d="M291.107-135.16c-10.498,0.494-88.547,59.726-88.034,69.146
			c0.519,9.423,29.36,46.629,37.729,47.951c8.363,1.301,70.222-78.341,72.308-88.814
			C315.195-117.373,301.579-135.699,291.107-135.16z"/>
		<path display="inline" fill="#FFFFFF" d="M606.042-421.604c-10.932-15.145-35.498-16.26-56.115-3.016
			c-7.87-4.009-17.022-7.233-27.767-9.215c0,0-391.393,317.515-477.854,378.833c0,0-3.303,7.003-8.777,18.407
			c98.109,68.715,86.957,120.567,86.957,120.567C95.338,17.059,26.602-18.063,26.582-18.063
			C1.956,32.636-42.253,121.243-65.726,154.051c0,0-0.04,18.016,22.025,29.48c0,0,150.072-101.024,193.329-109.639
			c0,0,23.883-23.283,60.697-58.922c-20.121,10.307-43.197,20.062-52.827,20.659c-16.771,1.053-36.152-39.437-34.583-53.776
			c1.569-14.338,153.521-139.574,176.038-137.984c22.54,1.57,29.875,22.518,30.414,37.725c0.205,6.548-13.655,26.546-30.414,48.012
			c113.258-108.669,256.182-243.843,297.084-273.841c0,0,0.414-10.661-3.141-24.688
			C610.583-384.272,616.596-406.937,606.042-421.604z M-9.363,160.992c0,0-2.542-32.479-33.638-43.818
			C-43,117.174,9.229,93.539-9.363,160.992z"/>
	</g>
	<path display="none" opacity="0.5" fill="#71C8EA" enable-background="new    " d="M1559.184-105.345l3.333,3.333
		c0,0,17-13.666,32.5-11.833c0,0,21-27.999,50-37.833c0,0,17.667-9.834,7.167-30.667c-10.5-20.833-24.326-12.938-31.167-8
		c-9.583,6.916-39.771,40.322-51.5,56.333C1569.517-134.012,1573.017-117.678,1559.184-105.345z"/>
	<path d="M12.918,1.815c-2.87-2.712-7.621-2.344-10.611,0.821c-2.99,3.166-3.087,7.93-0.217,10.641
		c0.859,0.812,1.888,1.341,2.986,1.608c-0.02,2.727-0.11,15.346,0.015,15.583C5.231,30.732,8.197,32,8.503,32
		c0.308,0,1.479-1.812,1.479-2.109c0-0.298-1.479-1.734-1.479-1.734s0.917-0.721,0.917-0.985s-0.917-0.983-0.917-0.983
		s1.011-0.672,1.011-0.938s-1.011-0.983-1.011-0.983s1.479-1.299,1.479-1.549s-1.479-1.734-1.479-1.734s0.964-0.767,0.964-0.984
		c0-0.219-0.964-1.172-0.964-1.172v-1.359c0,0,1.479-0.656,1.479-0.892c0-0.177-0.838-1.229-1.254-1.739
		c1.445-0.38,2.836-1.176,3.972-2.379C15.691,9.29,15.788,4.526,12.918,1.815z M9.047,6.117c-0.888,0.94-2.298,1.049-3.15,0.244
		C5.045,5.556,5.074,4.143,5.961,3.203c0.888-0.94,2.298-1.049,3.15-0.244C9.963,3.764,9.936,5.178,9.047,6.117z"/>
</g>
</svg>
