<?xml version="1.0" encoding="utf-8"?>
<!-- Generator: Adobe Illustrator 16.0.4, SVG Export Plug-In . SVG Version: 6.00 Build 0)  -->
<!DOCTYPE svg PUBLIC "-//W3C//DTD SVG 1.1//EN" "http://www.w3.org/Graphics/SVG/1.1/DTD/svg11.dtd">
<svg version="1.1" fill="rgb(0, 14, 156)" xmlns="http://www.w3.org/2000/svg" xmlns:xlink="http://www.w3.org/1999/xlink" x="0px" y="0px"
	 width="32px" height="30.072px" viewBox="0 0 32 30.072" enable-background="new 0 0 32 30.072" xml:space="preserve">
<g id="Fondo_1_" display="none">
	<rect id="Fondo" x="-265.55" y="-1532.982" display="inline" fill="#FB6E92" width="1000" height="2438.351"/>
</g>
<g id="Guias">
</g>
<g id="Icons">
	<g display="none" opacity="0.2">
		<path display="inline" fill="#FFFFFF" d="M144.459-56.462c-11.282,3.636-35.885,28.281-38.51,36.153
			c-2.621,7.851,12.064,36.154,18.865,37.705c6.793,1.59,56.584-20.437,58.153-28.284C184.539-18.759,155.741-60.141,144.459-56.462
			z"/>
		<path display="inline" fill="#FFFFFF" d="M247.428-136.62c-10.498,0.494-88.546,59.727-88.033,69.146
			c0.519,9.423,29.359,46.629,37.729,47.951c8.363,1.301,70.221-78.342,72.307-88.814
			C271.516-118.833,257.898-137.159,247.428-136.62z"/>
		<path display="inline" fill="#FFFFFF" d="M562.362-423.064c-10.933-15.146-35.498-16.261-56.115-3.017
			c-7.87-4.009-17.023-7.232-27.767-9.215c0,0-391.394,317.516-477.854,378.833c0,0-3.302,7.003-8.776,18.407
			C89.96,30.66,78.809,82.514,78.809,82.514C51.659,15.598-17.077-19.523-17.097-19.523
			c-24.626,50.698-68.835,139.307-92.308,172.113c0,0-0.04,18.016,22.025,29.48c0,0,150.071-101.024,193.329-109.639
			c0,0,23.883-23.283,60.697-58.923c-20.121,10.309-43.197,20.062-52.828,20.659C97.047,35.223,77.667-5.267,79.236-19.606
			c1.57-14.338,153.521-139.574,176.039-137.984c22.539,1.57,29.875,22.518,30.414,37.725c0.205,6.549-13.655,26.547-30.414,48.013
			c113.258-108.669,256.182-243.843,297.084-273.841c0,0,0.414-10.661-3.141-24.688
			C566.904-385.732,572.917-408.396,562.362-423.064z M-53.042,159.532c0,0-2.542-32.478-33.638-43.818
			C-86.68,115.714-34.451,92.079-53.042,159.532z"/>
	</g>
	<path display="none" opacity="0.5" fill="#71C8EA" enable-background="new    " d="M1515.505-106.805l3.333,3.333
		c0,0,17-13.666,32.5-11.833c0,0,21-27.999,50-37.833c0,0,17.667-9.834,7.167-30.667s-24.327-12.938-31.167-8
		c-9.583,6.916-39.771,40.322-51.5,56.333C1525.838-135.472,1529.338-119.138,1515.505-106.805z"/>
	<g>
		<path d="M26.658,11.238c0.302-1.377-1.217-6.149-6.133-6.605l-0.166-2.158c0.709-0.521,0.992-1.368,0.619-1.951
			c-0.393-0.614-1.36-0.7-2.162-0.188c-0.803,0.513-1.133,1.427-0.739,2.039c0.159,0.25,0.425,0.389,0.723,0.459l-0.213,1.849
			c-0.205,0.024-0.401,0.035-0.614,0.074c-6.959,1.256-10.412,7.7-9.681,10.047C9.548,18.83,25.141,18.176,26.658,11.238z"/>
		<path d="M27.906,10.882c0.058,0.426,0.057,0.786,0,1.047c-1.818,8.31-20.497,9.095-22.001,4.269
			c-0.344-1.102,0.087-2.96,1.236-4.901c-4.791,3.723-6.762,9.312-7.115,12.717C-0.968,33.586,26.814,32.226,31.891,17
			C32.461,15.287,30.753,12.848,27.906,10.882z M3.394,20.445c-0.609-0.366-0.679-1.366-0.158-2.234
			c0.521-0.869,1.438-1.275,2.047-0.91c0.608,0.365,0.679,1.366,0.158,2.234C4.919,20.402,4.002,20.811,3.394,20.445z M8.548,24.598
			c-0.855,1.423-2.357,2.092-3.355,1.491c-0.998-0.6-1.114-2.239-0.259-3.663c0.855-1.423,2.357-2.091,3.355-1.49
			C9.287,21.534,9.403,23.175,8.548,24.598z M16.099,24.543c-0.442,1.603-1.709,2.647-2.832,2.339
			c-1.122-0.31-1.674-1.857-1.232-3.459c0.442-1.601,1.709-2.646,2.832-2.338C15.988,21.395,16.541,22.943,16.099,24.543z
			 M20.773,24.762c-0.949,0.069-1.801-0.972-1.901-2.323c-0.103-1.354,0.586-2.509,1.535-2.58c0.948-0.071,1.801,0.97,1.901,2.322
			C22.41,23.534,21.723,24.689,20.773,24.762z M26.109,21.619c-0.948,0.071-1.791-0.841-1.879-2.036
			c-0.09-1.194,0.606-2.222,1.556-2.293c0.948-0.071,1.792,0.841,1.881,2.036S27.059,21.548,26.109,21.619z"/>
	</g>
</g>
</svg>
