<?xml version="1.0" encoding="utf-8"?>
<!-- Generator: Adobe Illustrator 16.0.4, SVG Export Plug-In . SVG Version: 6.00 Build 0)  -->
<!DOCTYPE svg PUBLIC "-//W3C//DTD SVG 1.1//EN" "http://www.w3.org/Graphics/SVG/1.1/DTD/svg11.dtd">
<svg version="1.1" fill="rgb(0, 14, 156)" xmlns="http://www.w3.org/2000/svg" xmlns:xlink="http://www.w3.org/1999/xlink" x="0px" y="0px"
	 width="32px" height="31.311px" viewBox="0 0 32 31.311" enable-background="new 0 0 32 31.311" xml:space="preserve">
<g id="Fondo_1_" display="none">
	<rect id="Fondo" x="-317.966" y="-1531.867" display="inline" fill="#FB6E92" width="1000" height="2438.352"/>
</g>
<g id="Guias">
</g>
<g id="Icons">
	<g display="none" opacity="0.2">
		<path display="inline" fill="#FFFFFF" d="M92.043-55.347c-11.281,3.637-35.885,28.281-38.51,36.153
			c-2.621,7.852,12.064,36.154,18.865,37.705c6.793,1.59,56.584-20.436,58.153-28.284C132.124-17.644,103.326-59.025,92.043-55.347z
			"/>
		<path display="inline" fill="#FFFFFF" d="M195.012-135.505c-10.498,0.494-88.546,59.726-88.033,69.146
			c0.519,9.423,29.359,46.629,37.729,47.951c8.363,1.301,70.221-78.341,72.307-88.814
			C219.1-117.718,205.484-136.044,195.012-135.505z"/>
		<path display="inline" fill="#FFFFFF" d="M509.947-421.949c-10.933-15.145-35.498-16.26-56.115-3.016
			c-7.87-4.01-17.023-7.233-27.767-9.216c0,0-391.394,317.516-477.854,378.833c0,0-3.302,7.004-8.776,18.407
			C37.544,31.775,26.393,83.629,26.393,83.629C-0.757,16.713-69.493-18.408-69.513-18.408
			c-24.626,50.699-68.835,139.307-92.308,172.114c0,0-0.04,18.015,22.025,29.479c0,0,150.072-101.023,193.329-109.639
			c0,0,23.883-23.283,60.697-58.922c-20.121,10.309-43.196,20.062-52.826,20.66C44.632,36.338,25.251-4.151,26.822-18.491
			c1.57-14.338,153.521-139.574,176.037-137.984c22.541,1.57,29.875,22.519,30.414,37.726c0.205,6.548-13.654,26.546-30.414,48.012
			c113.259-108.67,256.183-243.844,297.085-273.842c0,0,0.414-10.661-3.141-24.688C514.489-384.617,520.501-407.281,509.947-421.949
			z M-105.458,160.647c0,0-2.542-32.478-33.638-43.817C-139.095,116.829-86.867,93.194-105.458,160.647z"/>
	</g>
	<path display="none" opacity="0.5" fill="#71C8EA" enable-background="new    " d="M1463.089-105.689l3.333,3.333
		c0,0,17-13.666,32.5-11.833c0,0,21-27.999,50-37.833c0,0,17.667-9.834,7.167-30.667s-24.327-12.937-31.167-8
		c-9.583,6.916-39.771,40.322-51.5,56.333C1473.422-134.356,1476.922-118.022,1463.089-105.689z"/>
	<g>
		<path d="M13.132,16.682c0-1.312,13.806-9.98,13.989-10.674c0.171-0.644-2.503-3.174-4.303-4.242
			C16.113-2.211,7.008,0.755,2.481,8.389S-0.171,25.257,6.425,29.41c9.992,6.291,20.265-4.97,19.834-5.826
			C25.829,22.727,13.132,18,13.132,16.682z M12.106,8.915c-1.103-1.021-1.089-2.827,0.03-4.037c1.119-1.209,2.919-1.363,4.021-0.344
			c1.102,1.019,1.088,2.826-0.03,4.035C15.009,9.78,13.208,9.935,12.106,8.915z"/>
		<ellipse transform="matrix(-0.7341 -0.679 0.679 -0.7341 39.0009 44.9103)" cx="28.293" cy="14.82" rx="3.544" ry="3.888"/>
	</g>
</g>
</svg>
