<?xml version="1.0" encoding="utf-8"?>
<!-- Generator: Adobe Illustrator 16.0.4, SVG Export Plug-In . SVG Version: 6.00 Build 0)  -->
<!DOCTYPE svg PUBLIC "-//W3C//DTD SVG 1.1//EN" "http://www.w3.org/Graphics/SVG/1.1/DTD/svg11.dtd">
<svg version="1.1" fill="rgb(0, 14, 156)" xmlns="http://www.w3.org/2000/svg" xmlns:xlink="http://www.w3.org/1999/xlink" x="0px" y="0px"
	 width="29.998px" height="32px" viewBox="0 0 29.998 32" enable-background="new 0 0 29.998 32" xml:space="preserve">
<g id="Fondo_1_" display="none">
	<rect id="Fondo" x="-370.862" y="-1531.522" display="inline" fill="#FB6E92" width="1000" height="2438.351"/>
</g>
<g id="Guias">
</g>
<g id="Icons">
	<g display="none" opacity="0.2">
		<path display="inline" fill="#FFFFFF" d="M39.147-55.002C27.865-51.366,3.262-26.721,0.637-18.849
			c-2.621,7.851,12.065,36.154,18.865,37.705c6.793,1.59,56.584-20.436,58.154-28.284C79.228-17.299,50.429-58.681,39.147-55.002z"
			/>
		<path display="inline" fill="#FFFFFF" d="M142.116-135.16c-10.498,0.494-88.547,59.726-88.034,69.146
			c0.519,9.423,29.36,46.629,37.729,47.951c8.362,1.301,70.221-78.341,72.307-88.814
			C166.204-117.373,152.587-135.699,142.116-135.16z"/>
		<path display="inline" fill="#FFFFFF" d="M457.05-421.604c-10.932-15.145-35.498-16.26-56.115-3.016
			c-7.869-4.009-17.022-7.233-27.767-9.215c0,0-391.393,317.515-477.854,378.833c0,0-3.302,7.003-8.776,18.407
			C-15.352,32.12-26.504,83.975-26.504,83.975c-27.149-66.916-95.885-102.038-95.905-102.038
			c-24.626,50.699-68.835,139.307-92.308,172.114c0,0-0.04,18.016,22.025,29.48c0,0,150.072-101.024,193.329-109.639
			c0,0,23.883-23.283,60.697-58.922C41.213,25.277,18.138,35.032,8.508,35.63C-8.265,36.684-27.645-3.807-26.075-18.146
			c1.57-14.338,153.521-139.574,176.038-137.984c22.54,1.57,29.875,22.518,30.414,37.725c0.205,6.548-13.655,26.546-30.414,48.012
			c113.259-108.669,256.182-243.843,297.084-273.841c0,0,0.414-10.661-3.14-24.688C461.592-384.272,467.605-406.937,457.05-421.604z
			 M-158.354,160.992c0,0-2.542-32.479-33.638-43.818C-191.992,117.174-139.763,93.539-158.354,160.992z"/>
	</g>
	<path display="none" opacity="0.5" fill="#71C8EA" enable-background="new    " d="M1410.193-105.345l3.333,3.333
		c0,0,17-13.666,32.5-11.833c0,0,21-27.999,50-37.833c0,0,17.667-9.834,7.167-30.667c-10.5-20.833-24.327-12.938-31.167-8
		c-9.583,6.916-39.771,40.322-51.5,56.333C1420.526-134.012,1424.026-117.678,1410.193-105.345z"/>
	<g>
		<path d="M13,0L8.992,2.02C9.599,3.254,9.001,4.804,7.64,5.494C6.276,6.186,4.666,5.747,4.033,4.519L0,6.551L12.724,32l6.007-3.23
			c-0.004-0.006-0.008-0.011-0.01-0.016c-0.793-1.441-0.143-3.318,1.451-4.193s3.527-0.418,4.319,1.025
			c0.012,0.021,0.017,0.046,0.028,0.068l5.478-2.947L13,0z M12.942,24.719L4.863,9.863l9.241-4.601l9.594,13.683L12.942,24.719z"/>
		<polygon points="5.827,10.167 13.113,23.531 22.571,18.488 13.921,6.138 		"/>
	</g>
</g>
</svg>
