<?xml version="1.0" encoding="utf-8"?>
<!-- Generator: Adobe Illustrator 16.0.4, SVG Export Plug-In . SVG Version: 6.00 Build 0)  -->
<!DOCTYPE svg PUBLIC "-//W3C//DTD SVG 1.1//EN" "http://www.w3.org/Graphics/SVG/1.1/DTD/svg11.dtd">
<svg version="1.1" fill="rgb(0, 14, 156)" xmlns="http://www.w3.org/2000/svg" xmlns:xlink="http://www.w3.org/1999/xlink" x="0px" y="0px"
	 width="32px" height="22.246px" viewBox="0 0 32 22.246" enable-background="new 0 0 32 22.246" xml:space="preserve">
<g id="Fondo_1_" display="none">
	<rect id="Fondo" x="-421.966" y="-1536.399" display="inline" fill="#FB6E92" width="1000" height="2438.351"/>
</g>
<g id="Guias">
</g>
<g id="Icons">
	<g display="none" opacity="0.2">
		<path display="inline" fill="#FFFFFF" d="M-11.957-59.879c-11.282,3.636-35.885,28.281-38.51,36.153
			c-2.621,7.851,12.065,36.154,18.865,37.705c6.793,1.59,56.584-20.436,58.154-28.284C28.123-22.176-0.675-63.558-11.957-59.879z"/>
		<path display="inline" fill="#FFFFFF" d="M91.012-140.037C80.514-139.543,2.465-80.312,2.978-70.892
			c0.519,9.423,29.36,46.629,37.729,47.951c8.363,1.301,70.221-78.341,72.307-88.814C115.1-122.25,101.482-140.576,91.012-140.037z"
			/>
		<path display="inline" fill="#FFFFFF" d="M405.946-426.481c-10.933-15.145-35.498-16.26-56.115-3.016
			c-7.87-4.009-17.023-7.233-27.767-9.215c0,0-391.394,317.515-477.854,378.833c0,0-3.302,7.003-8.776,18.407
			c98.11,68.715,86.958,120.57,86.958,120.57C-104.757,12.182-173.493-22.94-173.513-22.94
			c-24.626,50.699-68.835,139.307-92.308,172.114c0,0-0.04,18.016,22.025,29.48c0,0,150.072-101.024,193.329-109.639
			c0,0,23.883-23.283,60.697-58.923C-9.891,20.4-32.967,30.154-42.596,30.753c-16.772,1.054-36.153-39.437-34.583-53.776
			c1.57-14.338,153.521-139.574,176.039-137.984c22.539,1.57,29.875,22.518,30.414,37.725c0.205,6.548-13.655,26.546-30.414,48.012
			c113.258-108.67,256.182-243.844,297.084-273.842c0,0,0.414-10.661-3.141-24.688C410.488-389.149,416.501-411.813,405.946-426.481
			z M-209.458,156.115c0,0-2.542-32.479-33.638-43.818C-243.096,112.297-190.867,88.662-209.458,156.115z"/>
	</g>
	<path display="none" opacity="0.5" fill="#71C8EA" enable-background="new    " d="M1359.089-110.222l3.333,3.333
		c0,0,17-13.666,32.5-11.833c0,0,21-27.999,50-37.833c0,0,17.667-9.834,7.167-30.667s-24.327-12.937-31.167-8
		c-9.583,6.916-39.771,40.322-51.5,56.333C1369.422-138.889,1372.922-122.555,1359.089-110.222z"/>
	<g>
		<polygon points="2.553,3.557 2.638,5.193 30.541,1.824 30.541,18.891 32,18.964 32,0 		"/>
		<path d="M0.729,20.787l28.716,1.459V3.282L0,6.838L0.729,20.787z M21.746,12.312c0.309-1.428,1.495-2.382,2.65-2.133
			c1.156,0.249,1.846,1.608,1.537,3.035c-0.308,1.429-1.494,2.384-2.65,2.134C22.127,15.1,21.438,13.74,21.746,12.312z
			 M11.462,12.641l-0.77,0.024c0.149-0.828,0.352-1.045,0.737-1.058c0.018,0,0.105-0.003,0.157-0.005
			c0.437-2.238,1.993-3.97,4.424-4.047c1.033-0.033,1.725,0.242,2.065,0.512c0.077,0.226,0.069,0.523-0.03,0.702
			c-0.062,0.229-0.25,0.393-0.493,0.453c-0.354-0.182-0.937-0.285-1.322-0.273c-1.348,0.043-2.244,1.018-2.526,2.586l3.69-0.118
			c-0.18,0.951-0.422,1.047-0.999,1.065l-2.817,0.09c-0.008,0.298,0.003,0.631,0.029,0.928l3.342-0.107
			c-0.197,0.936-0.404,1.047-1.017,1.066l-2.135,0.068c0.439,1.685,1.514,2.402,2.86,2.358c0.595-0.019,1.306-0.251,1.65-0.401
			l0.07,0.016c-0.05,0.614-0.195,1.021-0.396,1.309c-0.289,0.256-0.982,0.469-1.821,0.496c-2.45,0.078-4.032-1.201-4.532-3.707
			l-1.225,0.038c0.181-0.917,0.439-1.048,0.877-1.062l0.21-0.008C11.464,13.271,11.454,12.938,11.462,12.641z M3.555,13.141
			c0.249-1.154,1.208-1.927,2.144-1.726c0.935,0.202,1.492,1.301,1.243,2.455c-0.249,1.153-1.208,1.927-2.144,1.726
			S3.306,14.295,3.555,13.141z"/>
	</g>
</g>
</svg>
