<?xml version="1.0" encoding="utf-8"?>
<!-- Generator: Adobe Illustrator 16.0.4, SVG Export Plug-In . SVG Version: 6.00 Build 0)  -->
<!DOCTYPE svg PUBLIC "-//W3C//DTD SVG 1.1//EN" "http://www.w3.org/Graphics/SVG/1.1/DTD/svg11.dtd">
<svg version="1.1" fill="rgb(0, 14, 156)" xmlns="http://www.w3.org/2000/svg" xmlns:xlink="http://www.w3.org/1999/xlink" x="0px" y="0px"
	 width="32px" height="17.582px" viewBox="0 0 32 17.582" enable-background="new 0 0 32 17.582" xml:space="preserve">
<g id="Fondo_1_" display="none">
	<rect id="Fondo" x="-473.965" y="-1538.731" display="inline" fill="#FB6E92" width="1000" height="2438.351"/>
</g>
<g id="Guias">
</g>
<g id="Icons">
	<g display="none" opacity="0.2">
		<path display="inline" fill="#FFFFFF" d="M-63.956-62.211c-11.282,3.636-35.885,28.281-38.51,36.153
			c-2.621,7.851,12.065,36.154,18.865,37.705c6.793,1.59,56.584-20.436,58.154-28.284C-23.876-24.508-52.674-65.89-63.956-62.211z"
			/>
		<path display="inline" fill="#FFFFFF" d="M39.014-142.369c-10.498,0.494-88.547,59.726-88.035,69.146
			c0.519,9.423,29.36,46.629,37.729,47.951c8.363,1.301,70.222-78.341,72.308-88.814C63.102-124.582,49.484-142.908,39.014-142.369z
			"/>
		<path display="inline" fill="#FFFFFF" d="M353.947-428.813c-10.933-15.145-35.498-16.26-56.115-3.016
			c-7.87-4.009-17.023-7.233-27.768-9.215c0,0-391.393,317.515-477.854,378.833c0,0-3.302,7.003-8.776,18.407
			c98.109,68.715,86.957,120.567,86.957,120.567c-27.149-66.916-95.885-102.037-95.905-102.037
			c-24.626,50.699-68.835,139.307-92.308,172.114c0,0-0.04,18.015,22.025,29.479c0,0,150.072-101.023,193.329-109.639
			c0,0,23.883-23.283,60.697-58.921c-20.12,10.308-43.196,20.063-52.825,20.661c-16.772,1.054-36.153-39.437-34.583-53.776
			c1.57-14.338,153.521-139.575,176.038-137.985c22.541,1.57,29.875,22.518,30.414,37.725c0.205,6.548-13.654,26.546-30.414,48.012
			c113.259-108.669,256.183-243.843,297.085-273.841c0,0,0.414-10.661-3.141-24.688
			C358.489-391.481,364.502-414.146,353.947-428.813z M-261.457,153.783c0,0-2.542-32.479-33.638-43.818
			C-295.095,109.965-242.866,86.33-261.457,153.783z"/>
	</g>
	<path display="none" opacity="0.5" fill="#71C8EA" enable-background="new    " d="M1307.09-112.554l3.333,3.333
		c0,0,17-13.666,32.5-11.833c0,0,21-27.999,50-37.833c0,0,17.667-9.834,7.167-30.667c-10.5-20.833-24.327-12.938-31.167-8
		c-9.583,6.916-39.771,40.322-51.5,56.333C1317.423-141.221,1320.923-124.887,1307.09-112.554z"/>
	<g>
		<path d="M31.287,4.385C31.089,3.9,29.41,4.412,28.375,4.781c-0.324-2.486-1.09-4.283-1.771-4.739
			C25.973-0.383,2.213,2.519,1.773,3.111c-4.161,5.628,0.205,13.03,0.955,13.303c0.75,0.271,22.633,1.604,22.989,1.021
			c0.979-1.595,1.651-3.242,2.098-4.857c0.881,0.223,2.582,0.607,2.883,0.355C31.107,12.594,33.018,8.606,31.287,4.385z
			 M24.318,16.068c-0.315,0.478-19.718-0.614-20.383-0.84C3.271,15.006-0.601,8.938,3.089,4.324
			c0.389-0.486,21.455-2.865,22.017-2.517C26.548,2.702,28.432,9.861,24.318,16.068z"/>
	</g>
</g>
</svg>
