<?xml version="1.0" encoding="utf-8"?>
<!-- Generator: Adobe Illustrator 16.0.4, SVG Export Plug-In . SVG Version: 6.00 Build 0)  -->
<!DOCTYPE svg PUBLIC "-//W3C//DTD SVG 1.1//EN" "http://www.w3.org/Graphics/SVG/1.1/DTD/svg11.dtd">
<svg version="1.1" fill="rgb(0, 14, 156)" xmlns="http://www.w3.org/2000/svg" xmlns:xlink="http://www.w3.org/1999/xlink" x="0px" y="0px"
	 width="32px" height="22.511px" viewBox="0 0 32 22.511" enable-background="new 0 0 32 22.511" xml:space="preserve">
<g id="Fondo_1_" display="none">
	<rect id="Fondo" x="-526.129" y="-1536.268" display="inline" fill="#FB6E92" width="1000" height="2438.352"/>
</g>
<g id="Guias">
</g>
<g id="Icons">
	<g display="none" opacity="0.2">
		<path display="inline" fill="#FFFFFF" d="M-116.12-59.747c-11.282,3.636-35.885,28.281-38.51,36.153
			c-2.621,7.851,12.065,36.154,18.865,37.705c6.793,1.59,56.584-20.436,58.154-28.284C-76.04-22.044-104.838-63.426-116.12-59.747z"
			/>
		<path display="inline" fill="#FFFFFF" d="M-13.151-139.905c-10.498,0.494-88.546,59.726-88.034,69.146
			c0.519,9.423,29.36,46.629,37.729,47.951c8.363,1.301,70.221-78.341,72.307-88.814C10.937-122.118-2.68-140.444-13.151-139.905z"
			/>
		<path display="inline" fill="#FFFFFF" d="M301.783-426.35c-10.932-15.145-35.498-16.26-56.115-3.016
			c-7.87-4.009-17.023-7.233-27.768-9.215c0,0-391.393,317.515-477.854,378.833c0,0-3.302,7.003-8.776,18.407
			c98.109,68.715,86.957,120.568,86.957,120.568C-208.921,12.311-277.657-22.81-277.677-22.81
			c-24.626,50.699-68.835,139.308-92.308,172.114c0,0-0.04,18.015,22.025,29.48c0,0,150.072-101.025,193.329-109.64
			c0,0,23.883-23.283,60.697-58.922c-20.121,10.308-43.197,20.062-52.827,20.659c-16.772,1.053-36.153-39.438-34.583-53.776
			c1.57-14.338,153.521-139.574,176.038-137.984c22.541,1.57,29.875,22.518,30.414,37.725c0.205,6.548-13.654,26.546-30.414,48.012
			c113.26-108.668,256.184-243.841,297.085-273.839c0,0,0.414-10.661-3.139-24.688C306.325-389.018,312.338-411.682,301.783-426.35z
			 M-313.621,156.248c0,0-2.542-32.479-33.638-43.818C-347.259,112.429-295.03,88.794-313.621,156.248z"/>
	</g>
	<path display="none" opacity="0.5" fill="#71C8EA" enable-background="new    " d="M1254.926-110.09l3.333,3.333
		c0,0,17-13.666,32.5-11.833c0,0,21-27.999,50-37.833c0,0,17.667-9.834,7.167-30.667s-24.327-12.937-31.167-8
		c-9.583,6.916-39.771,40.322-51.5,56.333C1265.259-138.757,1268.759-122.423,1254.926-110.09z"/>
	<path d="M31.287,7.444C31.09,6.96,29.41,7.472,28.375,7.841c-0.324-2.486-1.09-4.283-1.77-4.739
		c-0.227-0.15-3.375,0.119-7.357,0.556c0.389-1.112,0.605-1.839,0.561-1.948c-0.256-0.61-3.425-1.89-4.176-1.689
		c-0.214,0.058-0.846,1.789-1.63,4.247C7.968,5.012,1.992,5.876,1.773,6.171c-4.16,5.627,0.205,13.03,0.955,13.303
		c0.268,0.097,3.211,0.328,6.904,0.561c-0.193,0.904-0.277,1.479-0.211,1.57c0.434,0.586,1.304,1.128,2.016,0.814
		c0.143-0.062,0.574-0.906,1.166-2.211c6.146,0.347,12.918,0.608,13.115,0.287c0.978-1.595,1.65-3.242,2.097-4.857
		c0.881,0.223,2.582,0.607,2.883,0.355C31.107,15.653,33.018,11.666,31.287,7.444z M3.936,18.289
		C3.271,18.065-0.6,11.998,3.09,7.384C3.277,7.148,8.3,6.472,13.501,5.873c-1.282,4.171-2.792,9.597-3.573,12.867
		C6.713,18.554,4.17,18.369,3.936,18.289z M24.318,19.128c-0.168,0.256-5.826,0.062-11.142-0.211
		c1.653-3.783,4.058-9.773,5.474-13.603c3.498-0.354,6.258-0.571,6.455-0.448C26.549,5.762,28.432,12.921,24.318,19.128z"/>
</g>
</svg>
