<?xml version="1.0" encoding="utf-8"?>
<!-- Generator: Adobe Illustrator 16.0.4, SVG Export Plug-In . SVG Version: 6.00 Build 0)  -->
<!DOCTYPE svg PUBLIC "-//W3C//DTD SVG 1.1//EN" "http://www.w3.org/Graphics/SVG/1.1/DTD/svg11.dtd">
<svg version="1.1" fill="rgb(0, 14, 156)" xmlns="http://www.w3.org/2000/svg" xmlns:xlink="http://www.w3.org/1999/xlink" x="0px" y="0px"
	 width="32px" height="17.582px" viewBox="0 0 32 17.582" enable-background="new 0 0 32 17.582" xml:space="preserve">
<g id="Fondo_1_" display="none">
	<rect id="Fondo" x="-629.959" y="-1539.188" display="inline" fill="#FB6E92" width="1000" height="2438.351"/>
</g>
<g id="Guias">
</g>
<g id="Icons">
	<g display="none" opacity="0.2">
		<path display="inline" fill="#FFFFFF" d="M-219.95-62.668c-11.282,3.636-35.885,28.281-38.51,36.153
			c-2.621,7.851,12.065,36.154,18.865,37.705c6.793,1.59,56.584-20.436,58.154-28.283C-179.87-24.965-208.668-66.347-219.95-62.668z
			"/>
		<path display="inline" fill="#FFFFFF" d="M-116.981-142.826c-10.498,0.494-88.546,59.726-88.034,69.146
			c0.519,9.423,29.36,46.629,37.729,47.951c8.363,1.301,70.221-78.341,72.307-88.814
			C-92.894-125.039-106.51-143.365-116.981-142.826z"/>
		<path display="inline" fill="#FFFFFF" d="M197.953-429.271c-10.932-15.145-35.498-16.26-56.115-3.016
			c-7.87-4.009-17.023-7.233-27.768-9.215c0,0-391.393,317.515-477.854,378.833c0,0-3.302,7.003-8.776,18.407
			c98.109,68.715,86.957,120.568,86.957,120.568C-312.75,9.393-381.486-25.729-381.506-25.729
			c-24.626,50.7-68.835,139.307-92.308,172.114c0,0-0.04,18.016,22.025,29.48c0,0,150.072-101.024,193.329-109.639
			c0,0,23.883-23.283,60.697-58.922c-20.121,10.307-43.197,20.062-52.827,20.659c-16.772,1.053-36.153-39.437-34.583-53.776
			c1.57-14.338,153.521-139.574,176.038-137.984c22.54,1.57,29.875,22.518,30.414,37.725c0.205,6.548-13.655,26.546-30.414,48.012
			C4.124-186.729,147.048-321.903,187.95-351.901c0,0,0.413-10.661-3.14-24.688C202.495-391.938,208.508-414.603,197.953-429.271z
			 M-417.451,153.326c0,0-2.542-32.479-33.638-43.818C-451.089,109.508-398.86,85.873-417.451,153.326z"/>
	</g>
	<path display="none" opacity="0.5" fill="#71C8EA" enable-background="new    " d="M1151.096-113.011l3.333,3.333
		c0,0,17-13.666,32.5-11.833c0,0,21-27.999,50-37.833c0,0,17.667-9.834,7.167-30.667s-24.327-12.938-31.167-8
		c-9.583,6.916-39.771,40.322-51.5,56.333C1161.429-141.678,1164.929-125.344,1151.096-113.011z"/>
	<g>
		<path d="M31.287,4.385C31.089,3.9,29.41,4.412,28.375,4.781c-0.324-2.486-1.09-4.283-1.771-4.739
			C25.973-0.383,2.213,2.519,1.773,3.111c-4.161,5.628,0.205,13.03,0.955,13.303c0.75,0.271,22.633,1.604,22.989,1.021
			c0.979-1.595,1.651-3.242,2.098-4.857c0.881,0.223,2.582,0.607,2.883,0.355C31.107,12.594,33.018,8.606,31.287,4.385z
			 M24.318,16.068c-0.315,0.478-19.718-0.614-20.383-0.84C3.271,15.006-0.601,8.938,3.089,4.324
			c0.389-0.486,21.455-2.865,22.017-2.517C26.548,2.702,28.432,9.861,24.318,16.068z"/>
		<path d="M4.161,5.771c-1.842,1.501-0.75,7.709,0.478,7.981s10.113,0.645,10.832,0.027c3.343-2.865,2.847-8.295,1.688-9.812
			C16.711,3.383,4.834,5.224,4.161,5.771z"/>
	</g>
</g>
</svg>
