<?xml version="1.0" encoding="utf-8"?>
<!-- Generator: Adobe Illustrator 16.0.4, SVG Export Plug-In . SVG Version: 6.00 Build 0)  -->
<!DOCTYPE svg PUBLIC "-//W3C//DTD SVG 1.1//EN" "http://www.w3.org/Graphics/SVG/1.1/DTD/svg11.dtd">
<svg version="1.1" fill="rgb(0, 14, 156)" xmlns="http://www.w3.org/2000/svg" xmlns:xlink="http://www.w3.org/1999/xlink" x="0px" y="0px"
	 width="32px" height="17.582px" viewBox="0 0 32 17.582" enable-background="new 0 0 32 17.582" xml:space="preserve">
<g id="Fondo_1_" display="none">
	<rect id="Fondo" x="-681.958" y="-1539.383" display="inline" fill="#FB6E92" width="1000" height="2438.351"/>
</g>
<g id="Guias">
</g>
<g id="Icons">
	<g display="none" opacity="0.2">
		<path display="inline" fill="#FFFFFF" d="M-271.948-62.862c-11.282,3.636-35.885,28.281-38.51,36.153
			c-2.621,7.851,12.065,36.154,18.865,37.705c6.793,1.59,56.584-20.436,58.154-28.284
			C-231.868-25.159-260.666-66.541-271.948-62.862z"/>
		<path display="inline" fill="#FFFFFF" d="M-168.979-143.021c-10.498,0.494-88.546,59.726-88.034,69.146
			c0.519,9.423,29.36,46.629,37.729,47.951c8.363,1.301,70.221-78.341,72.307-88.814
			C-144.892-125.233-158.508-143.56-168.979-143.021z"/>
		<path display="inline" fill="#FFFFFF" d="M145.955-429.465c-10.932-15.145-35.498-16.26-56.115-3.016
			c-7.869-4.009-17.023-7.233-27.767-9.215c0,0-391.393,317.515-477.854,378.833c0,0-3.302,7.003-8.776,18.407
			C-326.447,24.26-337.6,76.113-337.6,76.113c-27.149-66.917-95.885-102.037-95.905-102.037
			c-24.626,50.699-68.835,139.307-92.308,172.113c0,0-0.04,18.016,22.025,29.48c0,0,150.072-101.023,193.329-109.639
			c0,0,23.883-23.283,60.697-58.922c-20.121,10.308-43.197,20.062-52.827,20.659c-16.772,1.053-36.153-39.437-34.583-53.775
			c1.57-14.338,153.521-139.574,176.038-137.984c22.54,1.57,29.875,22.518,30.414,37.725c0.205,6.548-13.655,26.546-30.414,48.012
			C-47.874-186.924,95.05-322.098,135.952-352.096c0,0,0.414-10.661-3.14-24.688C150.497-392.133,156.51-414.797,145.955-429.465z
			 M-469.449,153.132c0,0-2.542-32.478-33.638-43.817C-503.087,109.312-450.858,85.68-469.449,153.132z"/>
	</g>
	<path display="none" opacity="0.5" fill="#71C8EA" enable-background="new    " d="M1099.098-113.205l3.333,3.333
		c0,0,17-13.666,32.5-11.833c0,0,21-27.999,50-37.833c0,0,17.667-9.834,7.167-30.667s-24.326-12.937-31.167-8
		c-9.583,6.916-39.771,40.322-51.5,56.333C1109.431-141.872,1112.931-125.538,1099.098-113.205z"/>
	<g>
		<path d="M31.287,4.385C31.089,3.9,29.41,4.412,28.375,4.781c-0.324-2.486-1.09-4.283-1.771-4.739
			C25.973-0.383,2.213,2.519,1.773,3.111c-4.161,5.628,0.205,13.03,0.955,13.303c0.75,0.271,22.633,1.604,22.989,1.021
			c0.979-1.595,1.651-3.242,2.098-4.857c0.881,0.223,2.582,0.607,2.883,0.355C31.107,12.594,33.018,8.606,31.287,4.385z
			 M24.318,16.068c-0.315,0.478-19.718-0.614-20.383-0.84C3.271,15.006-0.601,8.938,3.089,4.324
			c0.389-0.486,21.455-2.865,22.017-2.517C26.548,2.702,28.432,9.861,24.318,16.068z"/>
		<path d="M4.161,5.771c-1.842,1.501-0.75,7.709,0.478,7.981s18.167,1.092,18.771,0.362c2.562-3.093,2.299-9.061,1.139-10.578
			C24.102,2.952,4.834,5.224,4.161,5.771z"/>
	</g>
</g>
</svg>
