<?xml version="1.0" encoding="utf-8"?>
<!-- Generator: Adobe Illustrator 16.0.4, SVG Export Plug-In . SVG Version: 6.00 Build 0)  -->
<!DOCTYPE svg PUBLIC "-//W3C//DTD SVG 1.1//EN" "http://www.w3.org/Graphics/SVG/1.1/DTD/svg11.dtd">
<svg version="1.1" fill="rgb(0, 14, 156)" xmlns="http://www.w3.org/2000/svg" xmlns:xlink="http://www.w3.org/1999/xlink" x="0px" y="0px"
	 width="32px" height="24.305px" viewBox="0 0 32 24.305" enable-background="new 0 0 32 24.305" xml:space="preserve">
<g id="Fondo_1_" display="none">
	<rect id="Fondo" x="-733.776" y="-1535.827" display="inline" fill="#FB6E92" width="1000" height="2438.352"/>
</g>
<g id="Guias">
</g>
<g id="Icons">
	<g display="none" opacity="0.2">
		<path display="inline" fill="#FFFFFF" d="M-323.767-59.307c-11.282,3.637-35.885,28.281-38.51,36.153
			c-2.621,7.851,12.065,36.154,18.865,37.705c6.793,1.59,56.584-20.436,58.154-28.284
			C-283.687-21.604-312.484-62.985-323.767-59.307z"/>
		<path display="inline" fill="#FFFFFF" d="M-220.798-139.465c-10.498,0.493-88.546,59.726-88.034,69.146
			c0.519,9.423,29.36,46.629,37.729,47.951c8.363,1.301,70.221-78.341,72.307-88.814
			C-196.71-121.677-210.326-140.004-220.798-139.465z"/>
		<path display="inline" fill="#FFFFFF" d="M94.137-425.909c-10.932-15.145-35.498-16.26-56.115-3.016
			c-7.869-4.01-17.022-7.233-27.767-9.216c0,0-391.393,317.516-477.854,378.833c0,0-3.302,7.003-8.776,18.407
			c98.109,68.715,86.957,120.568,86.957,120.568c-27.149-66.916-95.885-102.037-95.905-102.037
			c-24.626,50.699-68.835,139.307-92.308,172.114c0,0-0.04,18.015,22.025,29.479c0,0,150.072-101.023,193.329-109.639
			c0,0,23.883-23.283,60.697-58.922c-20.121,10.308-43.197,20.062-52.827,20.659c-16.771,1.053-36.153-39.438-34.583-53.776
			c1.57-14.338,153.521-139.574,176.038-137.984c22.54,1.57,29.875,22.519,30.414,37.726c0.205,6.548-13.655,26.546-30.414,48.012
			C-99.692-183.368,43.23-318.542,84.134-348.54c0,0,0.414-10.661-3.14-24.688C98.68-388.577,104.691-411.241,94.137-425.909z
			 M-521.268,156.688c0,0-2.542-32.478-33.638-43.817C-554.905,112.869-502.677,89.234-521.268,156.688z"/>
	</g>
	<path display="none" opacity="0.5" fill="#71C8EA" enable-background="new    " d="M1047.279-109.649l3.333,3.333
		c0,0,17-13.666,32.5-11.833c0,0,21-27.999,50-37.833c0,0,17.667-9.834,7.167-30.667s-24.327-12.937-31.167-8
		c-9.583,6.916-39.771,40.322-51.5,56.333C1057.612-138.316,1061.112-121.982,1047.279-109.649z"/>
	<g>
		<path d="M31.287,4.385C31.089,3.9,29.41,4.412,28.375,4.781c-0.324-2.486-1.09-4.283-1.771-4.739
			C25.973-0.383,2.213,2.519,1.773,3.111C-2.388,8.74,1.978,16.14,2.728,16.414c0.257,0.094,2.997,0.312,6.502,0.534l0.252-1.294
			c-3.001-0.179-5.324-0.351-5.547-0.426C3.271,15.006-0.601,8.938,3.089,4.324c0.389-0.486,21.455-2.865,22.017-2.518
			c1.442,0.896,3.326,8.054-0.787,14.262c-0.094,0.143-1.889,0.146-4.37,0.072l-1.15,1.312c3.79,0.151,6.791,0.194,6.921-0.018
			c0.979-1.595,1.651-3.242,2.098-4.857c0.881,0.223,2.582,0.606,2.883,0.355C31.107,12.594,33.018,8.606,31.287,4.385z"/>
		<path d="M18.782,8.404l-3.599,5.936c4.125,0.12,7.945,0.116,8.227-0.224c2.562-3.093,2.299-9.062,1.139-10.578
			C24.102,2.952,4.834,5.224,4.161,5.771c-1.842,1.501-0.75,7.709,0.478,7.981c0.402,0.089,2.495,0.237,5.144,0.37l1.117-5.72
			L18.782,8.404L18.782,8.404z"/>
		<polygon points="16.35,9.284 11.85,9.201 10.225,18.93 14.563,18.789 12.037,24.305 18.412,16.367 13.433,16.159 		"/>
	</g>
</g>
</svg>
