<?xml version="1.0" encoding="utf-8"?>
<!-- Generator: Adobe Illustrator 16.0.4, SVG Export Plug-In . SVG Version: 6.00 Build 0)  -->
<!DOCTYPE svg PUBLIC "-//W3C//DTD SVG 1.1//EN" "http://www.w3.org/Graphics/SVG/1.1/DTD/svg11.dtd">
<svg version="1.1" fill="rgb(0, 14, 156)" xmlns="http://www.w3.org/2000/svg" xmlns:xlink="http://www.w3.org/1999/xlink" x="0px" y="0px"
	 width="28.602px" height="32px" viewBox="0 0 28.602 32" enable-background="new 0 0 28.602 32" xml:space="preserve">
<g id="Fondo_1_" display="none">
	<rect id="Fondo" x="-787.852" y="-1531.522" display="inline" fill="#FB6E92" width="1000" height="2438.351"/>
</g>
<g id="Guias">
</g>
<g id="Icons">
	<g display="none" opacity="0.2">
		<path display="inline" fill="#FFFFFF" d="M-377.843-55.002c-11.282,3.636-35.886,28.281-38.511,36.153
			c-2.621,7.851,12.065,36.154,18.865,37.705c6.793,1.59,56.584-20.436,58.154-28.284
			C-337.763-17.299-366.561-58.681-377.843-55.002z"/>
		<path display="inline" fill="#FFFFFF" d="M-274.874-135.16c-10.498,0.494-88.546,59.726-88.034,69.146
			c0.519,9.423,29.36,46.629,37.729,47.951c8.362,1.301,70.221-78.341,72.307-88.814
			C-250.786-117.373-264.402-135.699-274.874-135.16z"/>
		<path display="inline" fill="#FFFFFF" d="M40.061-421.604c-10.932-15.145-35.498-16.26-56.115-3.016
			c-7.869-4.009-17.022-7.233-27.767-9.215c0,0-391.393,317.515-477.854,378.833c0,0-3.303,7.003-8.776,18.407
			c98.109,68.715,86.957,120.567,86.957,120.567c-27.149-66.916-95.885-102.037-95.905-102.037
			c-24.626,50.699-68.835,139.307-92.308,172.114c0,0-0.04,18.015,22.024,29.479c0,0,150.072-101.023,193.329-109.639
			c0,0,23.884-23.283,60.697-58.921c-20.121,10.308-43.197,20.062-52.827,20.659c-16.771,1.054-36.152-39.437-34.583-53.776
			c1.57-14.338,153.521-139.574,176.038-137.984c22.54,1.57,29.875,22.518,30.414,37.725c0.205,6.548-13.655,26.546-30.414,48.012
			c113.259-108.668,256.183-243.842,297.086-273.84c0,0,0.414-10.661-3.14-24.688C44.603-384.272,50.615-406.937,40.061-421.604z
			 M-575.344,160.992c0,0-2.542-32.479-33.639-43.818C-608.981,117.174-556.753,93.539-575.344,160.992z"/>
	</g>
	<path display="none" opacity="0.5" fill="#71C8EA" enable-background="new    " d="M993.203-105.345l3.333,3.333
		c0,0,17-13.666,32.5-11.833c0,0,21-27.999,50-37.833c0,0,17.667-9.834,7.167-30.667c-10.5-20.833-24.327-12.938-31.167-8
		c-9.583,6.916-39.771,40.322-51.5,56.333C1003.536-134.012,1007.036-117.678,993.203-105.345z"/>
	<path d="M23.227,9.217c0.069-2.248,0.213-7.774-0.03-8.115c-0.307-0.429-3.854-0.49-4.16,0c-0.188,0.301-0.146,2.148-0.084,3.529
		C16.444,2.015,14.349-0.023,14.03,0C13.159,0.061-0.182,17.195,0.002,17.809c0.047,0.155,1.871,0.131,4.577-0.002
		C3.622,22.45,1.827,31.506,2.327,31.824c0.237,0.15,3.168,0.195,6.881,0.169c0.075-2.159,0.312-7.911,0.708-8.31
		c0.488-0.488,7.038-1.291,7.467-0.799c0.334,0.385,0.146,6.35,0.048,8.957c4.405-0.125,8.115-0.312,8.336-0.508
		c0.413-0.367-1.722-10.064-2.813-14.89c3.231-0.307,5.52-0.579,5.64-0.716C28.777,15.517,26.237,12.53,23.227,9.217z"/>
</g>
</svg>
