<?xml version="1.0" encoding="utf-8"?>
<!-- Generator: Adobe Illustrator 16.0.4, SVG Export Plug-In . SVG Version: 6.00 Build 0)  -->
<!DOCTYPE svg PUBLIC "-//W3C//DTD SVG 1.1//EN" "http://www.w3.org/Graphics/SVG/1.1/DTD/svg11.dtd">
<svg version="1.1" fill="rgb(0, 14, 156)" xmlns="http://www.w3.org/2000/svg" xmlns:xlink="http://www.w3.org/1999/xlink" x="0px" y="0px"
	 width="32px" height="28.665px" viewBox="0 0 32 28.665" enable-background="new 0 0 32 28.665" xml:space="preserve">
<g id="Fondo_1_" display="none">
	<rect id="Fondo" x="-838.014" y="-1533.814" display="inline" fill="#FB6E92" width="1000" height="2438.352"/>
</g>
<g id="Guias">
</g>
<g id="Icons">
	<g display="none" opacity="0.2">
		<path display="inline" fill="#FFFFFF" d="M-428.005-57.294c-11.282,3.636-35.885,28.281-38.51,36.153
			c-2.621,7.851,12.065,36.154,18.865,37.705c6.793,1.59,56.584-20.436,58.154-28.284
			C-387.925-19.591-416.723-60.973-428.005-57.294z"/>
		<path display="inline" fill="#FFFFFF" d="M-325.036-137.452c-10.498,0.494-88.546,59.726-88.034,69.146
			c0.519,9.423,29.36,46.629,37.729,47.951c8.363,1.301,70.221-78.341,72.307-88.814
			C-300.948-119.665-314.564-137.991-325.036-137.452z"/>
		<path display="inline" fill="#FFFFFF" d="M-10.102-423.896c-10.932-15.145-35.498-16.26-56.115-3.016
			c-7.87-4.009-17.023-7.233-27.767-9.215c0,0-391.393,317.515-477.854,378.833c0,0-3.302,7.003-8.776,18.407
			c98.109,68.715,86.957,120.568,86.957,120.568c-27.149-66.916-95.885-102.037-95.905-102.037
			c-24.626,50.698-68.835,139.308-92.308,172.114c0,0-0.04,18.015,22.025,29.479c0,0,150.072-101.024,193.329-109.639
			c0,0,23.883-23.283,60.697-58.922c-20.121,10.308-43.197,20.062-52.827,20.659c-16.772,1.053-36.153-39.438-34.583-53.776
			c1.57-14.338,153.521-139.574,176.038-137.984c22.54,1.57,29.875,22.518,30.414,37.725c0.205,6.548-13.655,26.546-30.414,48.012
			c113.26-108.668,256.184-243.842,297.087-273.84c0,0,0.414-10.661-3.14-24.688C-5.56-386.564,0.453-409.229-10.102-423.896z
			 M-625.506,158.7c0,0-2.542-32.478-33.638-43.818C-659.144,114.881-606.915,91.247-625.506,158.7z"/>
	</g>
	<path display="none" opacity="0.5" fill="#71C8EA" enable-background="new    " d="M943.041-107.637l3.333,3.333
		c0,0,17-13.666,32.5-11.833c0,0,21-27.999,50-37.833c0,0,17.667-9.834,7.167-30.667c-10.5-20.833-24.327-12.938-31.167-8
		c-9.583,6.916-39.771,40.322-51.5,56.333C953.374-136.304,956.874-119.97,943.041-107.637z"/>
	<path d="M13.354,27.937c0,0-0.176-1.454,0.529-2.336l16.963-8.724c0,0,2.6-0.881,0-3.524c-2.6-2.644-12.25-12.822-12.25-12.822
		S17.95-0.57,15.475,0.399C13.001,1.368,0.621,6.215,0.621,6.215s-0.97,0.75-0.485,3.393c0.485,2.644,12.513,18.549,12.513,18.549
		s0.518,1.146,2.732,0c2.678-1.385,14.672-7.666,14.672-7.666s1.586-0.926,0.309-2.732l-0.309,1.632L13.354,27.937z"/>
</g>
</svg>
