<?xml version="1.0" encoding="utf-8"?>
<!-- Generator: Adobe Illustrator 16.0.4, SVG Export Plug-In . SVG Version: 6.00 Build 0)  -->
<!DOCTYPE svg PUBLIC "-//W3C//DTD SVG 1.1//EN" "http://www.w3.org/Graphics/SVG/1.1/DTD/svg11.dtd">
<svg version="1.1" fill="rgb(0, 14, 156)" xmlns="http://www.w3.org/2000/svg" xmlns:xlink="http://www.w3.org/1999/xlink" x="0px" y="0px"
	 width="32px" height="30.55px" viewBox="0 0 32 30.55" enable-background="new 0 0 32 30.55" xml:space="preserve">
<g id="Fondo_1_" display="none">
	<rect id="Fondo" x="-109.971" y="-1596.251" display="inline" fill="#FB6E92" width="1000" height="2438.35"/>
</g>
<g id="Guias" display="none">
</g>
<g id="Icons">
	<g display="none" opacity="0.2">
		<path display="inline" fill="#FFFFFF" d="M300.038-119.73c-11.282,3.636-35.886,28.281-38.511,36.153
			c-2.62,7.851,12.065,36.154,18.865,37.705c6.793,1.59,56.584-20.436,58.154-28.284C340.118-82.027,311.32-123.409,300.038-119.73z
			"/>
		<path display="inline" fill="#FFFFFF" d="M403.007-199.889c-10.498,0.494-88.546,59.726-88.034,69.146
			c0.52,9.423,29.36,46.629,37.729,47.951c8.363,1.301,70.221-78.341,72.307-88.814
			C427.095-182.102,413.479-200.428,403.007-199.889z"/>
		<path display="inline" fill="#FFFFFF" d="M717.941-486.333c-10.933-15.145-35.498-16.26-56.115-3.016
			c-7.87-4.009-17.023-7.233-27.768-9.215c0,0-391.393,317.515-477.854,378.833c0,0-3.303,7.003-8.776,18.407
			c98.109,68.715,86.957,120.568,86.957,120.568C207.236-47.672,138.501-82.793,138.48-82.793
			c-24.625,50.7-68.834,139.308-92.307,172.115c0,0-0.04,18.016,22.025,29.48c0,0,150.072-101.024,193.328-109.639
			c0,0,23.884-23.283,60.697-58.922c-20.121,10.308-43.197,20.062-52.826,20.659c-16.772,1.053-36.153-39.437-34.584-53.776
			c1.57-14.338,153.521-139.574,176.038-137.984c22.54,1.57,29.875,22.518,30.414,37.725c0.205,6.548-13.654,26.546-30.414,48.012
			c113.259-108.669,256.183-243.843,297.085-273.841c0,0,0.413-10.661-3.141-24.688
			C722.483-449.001,728.496-471.665,717.941-486.333z M102.537,96.264c0,0-2.542-32.478-33.639-43.818
			C68.898,52.445,121.128,28.811,102.537,96.264z"/>
	</g>
	<path display="none" opacity="0.5" fill="#71C8EA" enable-background="new    " d="M1671.084-170.073l3.333,3.333
		c0,0,17-13.666,32.5-11.833c0,0,21-27.999,50-37.833c0,0,17.667-9.834,7.167-30.667s-24.327-12.937-31.167-8
		c-9.583,6.916-39.771,40.322-51.5,56.333C1681.417-198.74,1684.917-182.406,1671.084-170.073z"/>
	<path d="M30.93,0.002C30.007-0.231,0.345,17.179,0.106,17.841c-0.239,0.662,0,2.563,0,2.563s13.321,9.442,31.089,10.146
		C31.965,30.582,31.99,27,31.99,27S32.173,0.315,30.93,0.002z M15.451,17.74c0,0-2.128,2.165-4.038,1.396
		c-1.909-0.77-1.849-2.922-1.511-3.943c0.336-1.021,1.756-1.58,2.904-1.688c0.695-0.064,1.707-0.219,3.064,0.776
		C17.65,15.588,15.451,17.74,15.451,17.74z M20.219,13.235c-0.14-1.064,0.896-2.185,1.883-2.781c0.6-0.36,1.442-0.938,3.1-0.63
		c2.169,0.401,1.123,3.297,1.123,3.297s-0.979,2.875-3.031,3.009C21.239,16.269,20.359,14.302,20.219,13.235z M28.438,22.333
		c-0.51,0.945-2.004,1.25-3.154,1.154c-0.696-0.058-1.719-0.082-2.883-1.301c-1.523-1.596,1.019-3.332,1.019-3.332
		s2.474-1.759,4.22-0.668C29.383,19.279,28.947,21.387,28.438,22.333z M28.537,7.998c-0.492,0.181-1.194,0.486-2.37,0.025
		c-1.539-0.604-0.358-2.586-0.358-2.586s1.127-1.978,2.658-1.786c1.533,0.191,1.9,1.763,1.852,2.567
		C30.271,7.022,29.348,7.699,28.537,7.998z"/>
</g>
</svg>
