<?xml version="1.0" encoding="utf-8"?>
<!-- Generator: Adobe Illustrator 16.0.4, SVG Export Plug-In . SVG Version: 6.00 Build 0)  -->
<!DOCTYPE svg PUBLIC "-//W3C//DTD SVG 1.1//EN" "http://www.w3.org/Graphics/SVG/1.1/DTD/svg11.dtd">
<svg version="1.1" fill="rgb(0, 14, 156)" xmlns="http://www.w3.org/2000/svg" xmlns:xlink="http://www.w3.org/1999/xlink" x="0px" y="0px"
	 width="32px" height="29.547px" viewBox="0 0 32 29.547" enable-background="new 0 0 32 29.547" xml:space="preserve">
<g id="Fondo_1_" display="none">
	<rect id="Fondo" x="-161.966" y="-1597.077" display="inline" fill="#FB6E92" width="1000" height="2438.351"/>
</g>
<g id="Guias" display="none">
</g>
<g id="Icons">
	<g display="none" opacity="0.2">
		<path display="inline" fill="#FFFFFF" d="M248.043-120.557c-11.281,3.636-35.885,28.281-38.51,36.153
			c-2.621,7.851,12.064,36.154,18.865,37.705c6.793,1.59,56.584-20.436,58.153-28.284
			C288.123-82.854,259.325-124.235,248.043-120.557z"/>
		<path display="inline" fill="#FFFFFF" d="M351.012-200.715c-10.498,0.494-88.546,59.726-88.033,69.146
			c0.519,9.423,29.359,46.629,37.729,47.951c8.363,1.301,70.221-78.341,72.307-88.814
			C375.1-182.928,361.483-201.254,351.012-200.715z"/>
		<path display="inline" fill="#FFFFFF" d="M665.946-487.159c-10.933-15.145-35.498-16.26-56.115-3.016
			c-7.87-4.009-17.023-7.233-27.767-9.215c0,0-391.394,317.515-477.854,378.833c0,0-3.302,7.003-8.776,18.407
			c98.109,68.715,86.957,120.568,86.957,120.568C155.243-48.497,86.507-83.618,86.486-83.618
			C61.859-32.919,17.65,55.688-5.821,88.497c0,0-0.04,18.014,22.025,29.479c0,0,150.071-101.024,193.329-109.639
			c0,0,23.883-23.283,60.697-58.922c-20.121,10.308-43.197,20.062-52.828,20.659c-16.771,1.053-36.152-39.437-34.582-53.776
			c1.57-14.338,153.521-139.574,176.038-137.984c22.54,1.57,29.875,22.518,30.413,37.725c0.205,6.548-13.654,26.546-30.413,48.012
			C472.117-244.618,615.041-379.792,655.943-409.79c0,0,0.414-10.661-3.141-24.688C670.488-449.827,676.501-472.491,665.946-487.159
			z M50.542,95.438c0,0-2.542-32.479-33.638-43.818C16.904,51.62,69.133,27.984,50.542,95.438z"/>
	</g>
	<path display="none" opacity="0.5" fill="#71C8EA" enable-background="new    " d="M1619.089-170.899l3.333,3.333
		c0,0,17-13.666,32.5-11.833c0,0,21-27.999,50-37.833c0,0,17.667-9.834,7.167-30.667s-24.327-12.937-31.167-8
		c-9.583,6.916-39.771,40.322-51.5,56.333C1629.422-199.566,1632.922-183.232,1619.089-170.899z"/>
	<g>
		<path d="M15.686,0C2.133,0,0,8.477,0,11.476s3.171,6.344,7.439,1.441c0,0,0.519,5.132,4.152,5.132
			c3.633,0,4.409-3.748,4.409-3.748s1.762,4.441,5.568,4.094c3.806-0.347,4.671-5.882,4.671-5.882s2.479,4.498,5.075,1.326
			C33.91,10.668,29.236,0,15.686,0z"/>
		<path d="M26.239,14.359c0,0-0.865,5.536-4.671,5.882C17.762,20.586,16,16.146,16,16.146s-0.776,3.749-4.409,3.749
			c-3.633,0-4.152-5.133-4.152-5.133c-2.591,2.977-4.774,2.904-6.092,1.724c0,0,1.767,8.312,2.69,9.521
			c0.433,0.57,1.438,1.506,3.295,2.273l-1.623-8.848c0,0,2.048,6.818,2.834,9.285c0.601,0.187,1.279,0.347,2.022,0.479l-0.609-8.056
			c0,0,0.966,5.136,1.571,8.204c0.834,0.108,1.752,0.179,2.755,0.2l-0.635-8.404c0,0,1.009,5.365,1.61,8.404
			c0.668-0.006,1.358-0.025,2.101-0.08c0.146-0.01,0.272-0.022,0.414-0.033c0.23-3.145,0.543-7.904,0.543-7.904l0.353,7.831
			c1.026-0.094,1.946-0.204,2.767-0.327c0.229-3.145,0.545-7.947,0.545-7.947l0.352,7.799c0.738-0.131,1.389-0.273,1.958-0.424
			c0.481-2.527,1.703-9.58,1.703-9.58l-0.564,9.242c2.093-0.726,2.783-1.559,3.235-2.172c0.809-1.097,2.516-10.121,2.516-10.121
			C28.632,18.683,26.239,14.359,26.239,14.359z"/>
	</g>
</g>
</svg>
