<?xml version="1.0" encoding="utf-8"?>
<!-- Generator: Adobe Illustrator 16.0.4, SVG Export Plug-In . SVG Version: 6.00 Build 0)  -->
<!DOCTYPE svg PUBLIC "-//W3C//DTD SVG 1.1//EN" "http://www.w3.org/Graphics/SVG/1.1/DTD/svg11.dtd">
<svg version="1.1" fill="rgb(0, 14, 156)" xmlns="http://www.w3.org/2000/svg" xmlns:xlink="http://www.w3.org/1999/xlink" x="0px" y="0px"
	 width="32px" height="33.658px" viewBox="0 0 32 33.658" enable-background="new 0 0 32 33.658" xml:space="preserve">
<g id="Fondo_1_" display="none">
	<rect id="Fondo" x="-213.966" y="-1592.972" display="inline" fill="#FB6E92" width="1000" height="2438.351"/>
</g>
<g id="Guias" display="none">
</g>
<g id="Icons">
	<g display="none" opacity="0.2">
		<path display="inline" fill="#FFFFFF" d="M196.043-116.451c-11.281,3.636-35.885,28.281-38.51,36.153
			c-2.621,7.851,12.064,36.154,18.865,37.705c6.793,1.59,56.584-20.436,58.153-28.284
			C236.123-78.748,207.325-120.13,196.043-116.451z"/>
		<path display="inline" fill="#FFFFFF" d="M299.012-196.609c-10.498,0.494-88.546,59.726-88.033,69.146
			c0.519,9.423,29.359,46.629,37.729,47.951c8.363,1.301,70.221-78.341,72.307-88.814
			C323.1-178.822,309.483-197.148,299.012-196.609z"/>
		<path display="inline" fill="#FFFFFF" d="M613.946-483.054c-10.933-15.146-35.498-16.26-56.115-3.016
			c-7.87-4.009-17.023-7.233-27.767-9.215c0,0-391.394,317.515-477.854,378.833c0,0-3.302,7.003-8.776,18.407
			c98.109,68.715,86.957,120.567,86.957,120.567C103.243-44.392,34.507-79.513,34.486-79.513
			C9.86-28.813-34.349,59.794-57.821,92.603c0,0-0.04,18.015,22.025,29.479c0,0,150.071-101.024,193.329-109.639
			c0,0,23.883-23.283,60.697-58.922c-20.121,10.308-43.197,20.062-52.828,20.659c-16.771,1.053-36.152-39.437-34.582-53.776
			c1.57-14.338,153.521-139.574,176.038-137.984c22.54,1.57,29.875,22.518,30.413,37.725c0.205,6.548-13.654,26.546-30.413,48.012
			C420.116-240.512,563.04-375.686,603.942-405.684c0,0,0.414-10.661-3.141-24.688C618.488-445.722,624.501-468.386,613.946-483.054
			z M-1.458,99.543c0,0-2.542-32.478-33.638-43.817C-35.096,55.726,17.133,32.09-1.458,99.543z"/>
	</g>
	<path display="none" opacity="0.5" fill="#71C8EA" enable-background="new    " d="M1567.089-166.794l3.333,3.333
		c0,0,17-13.666,32.5-11.833c0,0,21-27.999,50-37.833c0,0,17.667-9.834,7.167-30.667s-24.327-12.937-31.167-8
		c-9.583,6.916-39.771,40.322-51.5,56.333C1577.422-195.461,1580.922-179.127,1567.089-166.794z"/>
	<path d="M2.71,24.5c0,0-1.271,8.343-0.889,8.81c0.229,0.279,9.833,0.392,17.554,0.334c0.084-1.687,0.413-7.853,0.741-8.254
		c0.381-0.467,5.209-0.721,5.252-0.211c0.034,0.411,0.711,6.188,0.964,8.344c1.557-0.056,2.548-0.127,2.636-0.213
		c0.466-0.467-0.847-10.674-0.847-10.674L2.71,24.5z M15.409,31.403c-0.458,0.339-10.919,0.508-11.216,0.211
		c-0.296-0.297-0.254-4.531,0.254-4.997c0.508-0.466,11.096-1.821,11.35-1.482S15.868,31.063,15.409,31.403z"/>
	<g>
		<path d="M31.907,17.385c-0.238-1.538-2.063-13.174-2.854-13.807c-0.164-0.131-1.246-0.16-2.884-0.116
			c-0.015,2.325-0.262,4.666-0.747,5.127c-1,0.949-18.333,2.282-19.5,1.449C5.175,9.504,4.703,7.203,4.679,5.22
			C3.2,5.431,2.242,5.625,2.118,5.78C1.521,6.525,0.336,17.362,0.059,19.96c-0.033,0.17-0.05,0.344-0.055,0.516
			C0.001,20.504,0,20.519,0,20.519h0.002c-0.008,0.621,0.167,1.246,0.544,1.793c0.977,1.414,2.93,1.758,4.362,0.768
			c0.892-0.617,1.371-1.605,1.37-2.605c0.085,0.366,0.236,0.723,0.462,1.049c0.977,1.414,2.93,1.756,4.362,0.768
			c0.801-0.555,1.269-1.407,1.355-2.299c0.092,0.398,0.257,0.789,0.504,1.146c1.064,1.539,3.191,1.913,4.751,0.834
			c0.851-0.588,1.354-1.486,1.466-2.432c0.079,0.404,0.24,0.799,0.489,1.158c0.978,1.412,2.929,1.756,4.36,0.767
			c0.716-0.493,1.164-1.226,1.314-2.011c0.09,0.305,0.229,0.598,0.417,0.871c1.019,1.473,3.119,1.785,4.693,0.697
			C31.693,20.163,32.232,18.692,31.907,17.385z"/>
		<path d="M7.457,9.096C8.43,9.744,22.884,8.708,23.719,7.968c0.834-0.738,0.834-7.689,0-7.948
			C22.884-0.239,7.457,2.094,6.761,3.271C6.066,4.449,6.484,8.447,7.457,9.096z"/>
	</g>
</g>
</svg>
