<?xml version="1.0" encoding="utf-8"?>
<!-- Generator: Adobe Illustrator 16.0.4, SVG Export Plug-In . SVG Version: 6.00 Build 0)  -->
<!DOCTYPE svg PUBLIC "-//W3C//DTD SVG 1.1//EN" "http://www.w3.org/Graphics/SVG/1.1/DTD/svg11.dtd">
<svg version="1.1" fill="rgb(0, 14, 156)" xmlns="http://www.w3.org/2000/svg" xmlns:xlink="http://www.w3.org/1999/xlink" x="0px" y="0px"
	 width="32px" height="31.775px" viewBox="0 0 32 31.775" enable-background="new 0 0 32 31.775" xml:space="preserve">
<g id="Fondo_1_" display="none">
	<rect id="Fondo" x="-265.966" y="-1595.635" display="inline" fill="#FB6E92" width="1000" height="2438.351"/>
</g>
<g id="Guias" display="none">
</g>
<g id="Icons">
	<g display="none" opacity="0.2">
		<path display="inline" fill="#FFFFFF" d="M144.043-119.115c-11.281,3.637-35.885,28.281-38.51,36.153
			c-2.621,7.852,12.064,36.154,18.865,37.705c6.793,1.59,56.584-20.436,58.153-28.284
			C184.123-81.411,155.325-122.793,144.043-119.115z"/>
		<path display="inline" fill="#FFFFFF" d="M247.012-199.272c-10.498,0.494-88.546,59.726-88.033,69.146
			c0.519,9.423,29.359,46.629,37.729,47.951c8.363,1.301,70.221-78.341,72.307-88.814
			C271.1-181.485,257.482-199.812,247.012-199.272z"/>
		<path display="inline" fill="#FFFFFF" d="M561.946-485.717c-10.933-15.145-35.498-16.26-56.115-3.016
			c-7.87-4.01-17.023-7.233-27.767-9.216c0,0-391.394,317.516-477.854,378.833c0,0-3.302,7.004-8.776,18.407
			C89.544-31.992,78.393,19.861,78.393,19.861C51.243-47.055-17.493-82.176-17.513-82.176
			C-42.14-31.477-86.349,57.131-109.821,89.938c0,0-0.04,18.015,22.025,29.479c0,0,150.071-101.023,193.329-109.639
			c0,0,23.883-23.283,60.697-58.922c-20.121,10.308-43.197,20.062-52.828,20.659C96.631-27.43,77.251-67.919,78.82-82.259
			c1.57-14.338,153.521-139.574,176.039-137.984c22.539,1.57,29.875,22.519,30.414,37.726c0.205,6.548-13.655,26.546-30.414,48.012
			c113.258-108.67,256.182-243.844,297.084-273.842c0,0,0.414-10.661-3.141-24.688C566.488-448.385,572.501-471.049,561.946-485.717
			z M-53.458,96.88c0,0-2.542-32.478-33.638-43.817C-87.096,53.062-34.867,29.427-53.458,96.88z"/>
	</g>
	<path display="none" opacity="0.5" fill="#71C8EA" enable-background="new    " d="M1515.089-169.457l3.333,3.333
		c0,0,17-13.666,32.5-11.833c0,0,21-27.999,50-37.833c0,0,17.667-9.834,7.167-30.667s-24.327-12.937-31.167-8
		c-9.583,6.916-39.771,40.322-51.5,56.333C1525.422-198.124,1528.922-181.79,1515.089-169.457z"/>
	<g>
		<path d="M28.225,4.77C22.523-1.498,12.43-1.601,5.678,4.54c-6.752,6.142-7.603,16.2-1.902,22.467
			c5.701,6.269,15.794,6.371,22.547,0.23C33.075,21.096,33.925,11.035,28.225,4.77z M24.136,25.076
			c-5.485,4.988-13.688,4.904-18.319-0.188c-4.632-5.093-3.94-13.267,1.545-18.255c5.485-4.989,13.688-4.904,18.32,0.188
			C30.312,11.913,29.621,20.087,24.136,25.076z"/>
		<path d="M23.389,8.906c-3.562-3.917-9.873-3.982-14.092-0.144C5.078,12.6,4.545,18.887,8.108,22.804
			c3.562,3.917,9.873,3.98,14.092,0.145C26.42,19.11,26.952,12.822,23.389,8.906z M20.266,20.82
			c-2.953,2.686-7.372,2.641-9.865-0.103c-2.494-2.741-2.122-7.143,0.833-9.827c2.953-2.688,7.37-2.643,9.864,0.1
			C23.591,13.732,23.219,18.134,20.266,20.82z"/>
		<ellipse transform="matrix(-0.7398 0.6728 -0.6728 -0.7398 38.0664 16.9882)" cx="15.748" cy="15.855" rx="4.13" ry="3.836"/>
	</g>
</g>
</svg>
