<?xml version="1.0" encoding="utf-8"?>
<!-- Generator: Adobe Illustrator 16.0.4, SVG Export Plug-In . SVG Version: 6.00 Build 0)  -->
<!DOCTYPE svg PUBLIC "-//W3C//DTD SVG 1.1//EN" "http://www.w3.org/Graphics/SVG/1.1/DTD/svg11.dtd">
<svg version="1.1" fill="rgb(0, 14, 156)" xmlns="http://www.w3.org/2000/svg" xmlns:xlink="http://www.w3.org/1999/xlink" x="0px" y="0px"
	 width="28.861px" height="32px" viewBox="0 0 28.861 32" enable-background="new 0 0 28.861 32" xml:space="preserve">
<g id="Fondo_1_" display="none">
	<rect id="Fondo" x="-320.104" y="-1595.533" display="inline" fill="#FB6E92" width="1000" height="2438.352"/>
</g>
<g id="Guias" display="none">
</g>
<g id="Icons">
	<g display="none" opacity="0.2">
		<path display="inline" fill="#FFFFFF" d="M89.905-119.013c-11.282,3.636-35.885,28.281-38.51,36.153
			C48.774-75.009,63.46-46.705,70.26-45.154c6.794,1.59,56.584-20.436,58.154-28.284C129.985-81.31,101.187-122.691,89.905-119.013z
			"/>
		<path display="inline" fill="#FFFFFF" d="M192.874-199.171c-10.498,0.494-88.546,59.726-88.034,69.146
			c0.52,9.423,29.36,46.629,37.729,47.951c8.363,1.301,70.221-78.341,72.307-88.814C216.961-181.384,203.345-199.71,192.874-199.171
			z"/>
		<path display="inline" fill="#FFFFFF" d="M507.807-485.615c-10.932-15.145-35.498-16.26-56.114-3.016
			c-7.87-4.009-17.023-7.233-27.768-9.215c0,0-391.393,317.515-477.854,378.833c0,0-3.302,7.003-8.776,18.407
			C35.406-31.891,24.253,19.963,24.253,19.963C-2.896-46.953-71.631-82.074-71.651-82.074
			C-96.278-31.375-140.487,57.232-163.959,90.04c0,0-0.04,18.015,22.025,29.479c0,0,150.072-101.023,193.329-109.639
			c0,0,23.883-23.283,60.696-58.922c-20.12,10.309-43.196,20.062-52.825,20.66c-16.772,1.053-36.153-39.437-34.583-53.776
			c1.569-14.338,153.521-139.574,176.038-137.984c22.539,1.57,29.875,22.518,30.413,37.725c0.205,6.548-13.654,26.546-30.413,48.012
			c113.257-108.669,256.182-243.843,297.083-273.841c0,0,0.414-10.661-3.14-24.688C512.349-448.283,518.363-470.947,507.807-485.615
			z M-107.596,96.98c0,0-2.542-32.478-33.638-43.817C-141.234,53.163-89.005,29.527-107.596,96.98z"/>
	</g>
	<path display="none" opacity="0.5" fill="#71C8EA" enable-background="new    " d="M1460.951-169.355l3.333,3.333
		c0,0,17-13.666,32.5-11.833c0,0,21-27.999,50-37.833c0,0,17.667-9.834,7.167-30.667s-24.327-12.937-31.167-8
		c-9.583,6.916-39.771,40.322-51.5,56.333C1471.284-198.022,1474.784-181.688,1460.951-169.355z"/>
	<path d="M19.696,9.685l1.478-2.189c1.033,0.061,2.288,0.118,2.566,0.062c0.488-0.099,5.262-5.544,5.119-6.109
		c-0.144-0.566-5.514,0.942-5.514,0.942s-1.613-2.434-1.933-2.389c-0.317,0.045-2.503,3.733-2.438,4.531
		c0.033,0.421,0.241,1.193,0.43,1.831l-1.376,2.381C13.735,6.778,8.294,7.567,4.345,11.16c-5.166,4.698-5.818,12.396-1.456,17.189
		c4.361,4.797,12.086,4.875,17.252,0.178c5.166-4.698,5.816-12.396,1.456-17.19C21.019,10.7,20.378,10.153,19.696,9.685z
		 M18.468,26.874c-4.196,3.817-10.474,3.753-14.017-0.144c-3.544-3.896-3.015-10.149,1.183-13.967
		c3.23-2.938,7.688-3.567,11.188-1.93l-1.177,2.036c-2.682-1.215-6.069-0.718-8.53,1.521c-3.229,2.937-3.636,7.747-0.91,10.744
		c2.727,2.997,7.555,3.048,10.783,0.11s3.636-7.748,0.91-10.744c-0.279-0.307-0.583-0.573-0.902-0.817l1.327-1.965
		c0.473,0.347,0.921,0.739,1.329,1.188C23.195,16.803,22.665,23.057,18.468,26.874z M10.076,17.648
		c-1.292,1.174-1.455,3.098-0.364,4.297c1.09,1.199,3.021,1.219,4.312,0.045c1.292-1.176,1.455-3.1,0.364-4.299
		c-0.02-0.021-0.042-0.035-0.062-0.055l1.342-1.989c0.165,0.139,0.325,0.285,0.475,0.448c1.907,2.097,1.624,5.466-0.638,7.521
		c-2.26,2.055-5.64,2.021-7.548-0.078c-1.908-2.098-1.623-5.465,0.637-7.52c1.692-1.539,4.012-1.906,5.872-1.113l-1.189,2.057
		C12.242,16.591,10.998,16.811,10.076,17.648z"/>
</g>
</svg>
