<?xml version="1.0" encoding="utf-8"?>
<!-- Generator: Adobe Illustrator 16.0.4, SVG Export Plug-In . SVG Version: 6.00 Build 0)  -->
<!DOCTYPE svg PUBLIC "-//W3C//DTD SVG 1.1//EN" "http://www.w3.org/Graphics/SVG/1.1/DTD/svg11.dtd">
<svg version="1.1" fill="rgb(0, 14, 156)" xmlns="http://www.w3.org/2000/svg" xmlns:xlink="http://www.w3.org/1999/xlink" x="0px" y="0px"
	 width="31.32px" height="32px" viewBox="0 0 31.32 32" enable-background="new 0 0 31.32 32" xml:space="preserve">
<g id="Fondo_1_" display="none">
	<rect id="Fondo" x="-370.306" y="-1595.522" display="inline" fill="#FB6E92" width="1000" height="2438.351"/>
</g>
<g id="Guias" display="none">
</g>
<g id="Icons">
	<g display="none" opacity="0.2">
		<path display="inline" fill="#FFFFFF" d="M39.704-119.002c-11.282,3.636-35.885,28.281-38.51,36.153
			c-2.621,7.851,12.064,36.154,18.865,37.705c6.793,1.59,56.584-20.436,58.153-28.284C79.784-81.299,50.986-122.681,39.704-119.002z
			"/>
		<path display="inline" fill="#FFFFFF" d="M142.672-199.16c-10.498,0.494-88.546,59.726-88.033,69.146
			c0.519,9.423,29.359,46.629,37.729,47.951c8.363,1.301,70.221-78.341,72.307-88.814
			C166.76-181.373,153.144-199.699,142.672-199.16z"/>
		<path display="inline" fill="#FFFFFF" d="M457.607-485.604c-10.933-15.145-35.498-16.26-56.115-3.016
			c-7.87-4.009-17.023-7.233-27.768-9.215c0,0-391.393,317.515-477.854,378.833c0,0-3.302,7.003-8.775,18.407
			C-14.795-31.88-25.948,19.975-25.948,19.975c-27.148-66.917-95.885-102.038-95.904-102.038
			c-24.626,50.699-68.835,139.307-92.309,172.114c0,0-0.04,18.016,22.025,29.48c0,0,150.072-101.024,193.329-109.639
			c0,0,23.883-23.283,60.697-58.922C41.77-38.722,18.694-28.968,9.064-28.37c-16.772,1.053-36.153-39.437-34.583-53.776
			c1.569-14.338,153.521-139.574,176.038-137.984c22.54,1.57,29.875,22.518,30.414,37.725c0.205,6.548-13.655,26.546-30.414,48.012
			c113.258-108.669,256.182-243.843,297.084-273.841c0,0,0.413-10.661-3.141-24.688
			C462.149-448.272,468.162-470.937,457.607-485.604z M-157.797,96.992c0,0-2.542-32.479-33.638-43.818
			C-191.435,53.174-139.207,29.539-157.797,96.992z"/>
	</g>
	<path display="none" opacity="0.5" fill="#71C8EA" enable-background="new    " d="M1410.75-169.345l3.333,3.333
		c0,0,17-13.666,32.5-11.833c0,0,21-27.999,50-37.833c0,0,17.667-9.834,7.167-30.667c-10.5-20.833-24.327-12.938-31.167-8
		c-9.583,6.916-39.771,40.322-51.5,56.333C1421.083-198.012,1424.583-181.678,1410.75-169.345z"/>
	<g>
		<path d="M27.341,3.07c-5.76-5.204-15.659-3.634-22.11,3.507c-6.451,7.142-7.013,17.149-1.251,22.354
			c5.76,5.202,15.66,3.633,22.109-3.509C32.541,18.281,33.101,8.273,27.341,3.07z M24.118,18.874
			c-2.847,3.151-7.215,3.845-9.757,1.549c-2.542-2.297-2.295-6.713,0.552-9.865c2.847-3.151,7.216-3.844,9.757-1.547
			C27.212,11.307,26.965,15.724,24.118,18.874z"/>
		<path d="M22.541,10.581c-1.094-0.849-2.973-0.593-4.197,0.572c-0.903,0.86-1.196,1.976-0.848,2.842
			c-0.229,0.153-0.449,0.325-0.653,0.519c-1.513,1.44-1.645,3.457-0.294,4.505c1.352,1.049,3.673,0.731,5.186-0.707
			c1.363-1.297,1.601-3.062,0.646-4.165C23.528,12.989,23.609,11.41,22.541,10.581z M20.764,17.547
			c-0.79,0.821-2.002,1.001-2.708,0.403c-0.705-0.599-0.637-1.75,0.152-2.572c0.79-0.821,2.002-1.001,2.708-0.403
			S21.553,16.727,20.764,17.547z M21.402,13.417c-0.626,0.596-1.586,0.727-2.146,0.292c-0.559-0.434-0.504-1.269,0.122-1.864
			c0.626-0.596,1.587-0.727,2.146-0.293C22.083,11.986,22.029,12.821,21.402,13.417z"/>
	</g>
</g>
</svg>
