<?xml version="1.0" encoding="utf-8"?>
<!-- Generator: Adobe Illustrator 16.0.4, SVG Export Plug-In . SVG Version: 6.00 Build 0)  -->
<!DOCTYPE svg PUBLIC "-//W3C//DTD SVG 1.1//EN" "http://www.w3.org/Graphics/SVG/1.1/DTD/svg11.dtd">
<svg version="1.1" fill="rgb(0, 14, 156)" xmlns="http://www.w3.org/2000/svg" xmlns:xlink="http://www.w3.org/1999/xlink" x="0px" y="0px"
	 width="28.533px" height="31.979px" viewBox="0 0 28.533 31.979" enable-background="new 0 0 28.533 31.979" xml:space="preserve">
<g id="Fondo_1_" display="none">
	<rect id="Fondo" x="-423.378" y="-1595.544" display="inline" fill="#FB6E92" width="1000" height="2438.351"/>
</g>
<g id="Guias" display="none">
</g>
<g id="Icons">
	<g display="none" opacity="0.2">
		<path display="inline" fill="#FFFFFF" d="M-13.369-119.023c-11.282,3.636-35.885,28.281-38.51,36.153
			c-2.621,7.85,12.066,36.154,18.865,37.705c6.793,1.59,56.583-20.437,58.154-28.284C26.711-81.32-2.087-122.702-13.369-119.023z"/>
		<path display="inline" fill="#FFFFFF" d="M89.601-199.182c-10.498,0.494-88.546,59.727-88.035,69.146
			c0.519,9.423,29.36,46.629,37.729,47.951c8.363,1.301,70.222-78.341,72.308-88.814
			C113.688-181.395,100.071-199.721,89.601-199.182z"/>
		<path display="inline" fill="#FFFFFF" d="M404.534-485.626c-10.933-15.146-35.498-16.26-56.115-3.017
			c-7.87-4.009-17.022-7.232-27.767-9.215c0,0-391.394,317.516-477.854,378.833c0,0-3.302,7.003-8.776,18.407
			c98.11,68.716,86.957,120.569,86.957,120.569c-27.149-66.916-95.885-102.037-95.905-102.037
			c-24.626,50.698-68.835,139.307-92.308,172.113c0,0-0.04,18.016,22.025,29.48c0,0,150.072-101.024,193.329-109.639
			c0,0,23.883-23.283,60.697-58.922C-11.304-38.744-34.38-28.99-44.01-28.393C-60.782-27.34-80.163-67.83-78.593-82.169
			c1.57-14.338,153.521-139.574,176.037-137.984c22.541,1.57,29.875,22.519,30.414,37.726c0.205,6.548-13.654,26.546-30.414,48.012
			c113.259-108.669,256.183-243.843,297.085-273.841c0,0,0.414-10.661-3.141-24.688
			C409.076-448.294,415.089-470.958,404.534-485.626z M-210.87,96.971c0,0-2.542-32.478-33.638-43.818
			C-244.508,53.152-192.279,29.518-210.87,96.971z"/>
	</g>
	<path display="none" opacity="0.5" fill="#71C8EA" enable-background="new    " d="M1357.677-169.366l3.333,3.333
		c0,0,17-13.666,32.5-11.833c0,0,21-27.999,50-37.833c0,0,17.667-9.834,7.167-30.667s-24.327-12.937-31.167-8
		c-9.583,6.916-39.771,40.322-51.5,56.333C1368.01-198.033,1371.51-181.699,1357.677-169.366z"/>
	<path d="M26.675,3.626c-4.05-5.012-12.744-4.825-19.571,0.54C0.276,9.53-2.031,17.987,1.951,23.054
		c3.254,4.142,9.701,4.734,15.675,1.885c2.575,2.404,8.091,7.398,9.1,7.021c0.895-0.335-2.104-6.467-3.383-11.158
		C27.765,15.615,30.587,8.467,26.675,3.626z M14.587,21.133c-7.923,4-10.911-5.154-10.911-5.154c8.333,5.68,21-5.92,21-5.92
		S22.51,17.133,14.587,21.133z"/>
</g>
</svg>
