<?xml version="1.0" encoding="utf-8"?>
<!-- Generator: Adobe Illustrator 16.0.4, SVG Export Plug-In . SVG Version: 6.00 Build 0)  -->
<!DOCTYPE svg PUBLIC "-//W3C//DTD SVG 1.1//EN" "http://www.w3.org/Graphics/SVG/1.1/DTD/svg11.dtd">
<svg version="1.1" fill="rgb(0, 14, 156)" xmlns="http://www.w3.org/2000/svg" xmlns:xlink="http://www.w3.org/1999/xlink" x="0px" y="0px"
	 width="25.66px" height="32px" viewBox="0 0 25.66 32" enable-background="new 0 0 25.66 32" xml:space="preserve">
<g id="Fondo_1_" display="none">
	<rect id="Fondo" x="-476.662" y="-1595.522" display="inline" fill="#FB6E92" width="1000" height="2438.351"/>
</g>
<g id="Guias" display="none">
</g>
<g id="Icons">
	<g display="none" opacity="0.2">
		<path display="inline" fill="#FFFFFF" d="M-66.653-119.002c-11.282,3.636-35.885,28.281-38.51,36.153
			c-2.621,7.851,12.065,36.154,18.865,37.705c6.793,1.59,56.584-20.436,58.154-28.284C-26.573-81.299-55.371-122.681-66.653-119.002
			z"/>
		<path display="inline" fill="#FFFFFF" d="M36.316-199.16c-10.498,0.494-88.546,59.726-88.034,69.146
			c0.519,9.423,29.36,46.629,37.729,47.951c8.363,1.301,70.221-78.341,72.307-88.814C60.404-181.373,46.789-199.699,36.316-199.16z"
			/>
		<path display="inline" fill="#FFFFFF" d="M351.25-485.604c-10.932-15.145-35.498-16.26-56.115-3.016
			c-7.869-4.009-17.022-7.233-27.766-9.215c0,0-391.394,317.515-477.854,378.833c0,0-3.302,7.003-8.776,18.407
			c98.109,68.715,86.957,120.567,86.957,120.567C-159.454-46.943-228.19-82.064-228.21-82.064
			c-24.626,50.699-68.835,139.307-92.308,172.114c0,0-0.04,18.015,22.025,29.48c0,0,150.072-101.024,193.329-109.639
			c0,0,23.883-23.283,60.697-58.922C-64.586-38.722-87.663-28.968-97.292-28.37c-16.772,1.053-36.153-39.437-34.583-53.776
			c1.57-14.338,153.521-139.574,176.039-137.984c22.539,1.57,29.875,22.518,30.414,37.725c0.205,6.548-13.656,26.546-30.414,48.012
			c113.258-108.669,256.182-243.843,297.084-273.841c0,0,0.414-10.661-3.141-24.688C355.792-448.272,361.804-470.937,351.25-485.604
			z M-264.154,96.992c0,0-2.542-32.479-33.638-43.818C-297.792,53.174-245.563,29.539-264.154,96.992z"/>
	</g>
	<path display="none" opacity="0.5" fill="#71C8EA" enable-background="new    " d="M1304.392-169.345l3.334,3.333
		c0,0,17-13.666,32.5-11.833c0,0,21-27.999,50-37.833c0,0,17.666-9.834,7.166-30.667c-10.5-20.833-24.326-12.938-31.166-8
		c-9.584,6.916-39.771,40.322-51.5,56.333C1314.726-198.012,1318.226-181.678,1304.392-169.345z"/>
	<g>
		<path d="M25.505,14.834c-0.139-0.217-1.365-0.16-3.187,0.065l-2.194,5.112l5.429-0.62C25.692,17.016,25.71,15.153,25.505,14.834z"
			/>
		<path d="M6.642,17.771C4.634,18.223,3.103,18.609,2.5,18.84c0.6-0.324,2.123-1.148,4.103-2.229l-3.737-2.795
			C1.136,15.346,0,16.435,0,16.636c0,0.832,2.218,2.356,2.218,2.356c-0.086,0.193-0.112,1.439-0.095,3.078l3.342-0.383L6.642,17.771
			z"/>
		<path d="M10.099,21.159l4.848-0.556l1.936-4.863c-1.69,0.296-3.473,0.63-5.189,0.971L10.099,21.159z"/>
		<path d="M15.875,11.492l-5.479-4.058c-1.229,1.011-2.465,2.04-3.634,3.026l4.421,3.639C12.735,13.242,14.341,12.351,15.875,11.492
			z"/>
		<path d="M24.121,6.517c0.068-0.693-3.259-6.377-4.021-6.516c-0.231-0.042-2.181,1.402-4.779,3.455l6.191,4.805
			C23.091,7.321,24.105,6.665,24.121,6.517z"/>
		<path d="M2.703,31.605c0.416,0.416,20.862,0.625,21.417,0c0.334-0.375,0.994-6.016,1.33-10.662L2.137,22.96
			C2.202,26.562,2.438,31.342,2.703,31.605z M6.308,24.215h15.133v1.247H6.308V24.215z M6.308,26.71h15.133v1.247H6.308V26.71z
			 M6.308,29.205h15.133v1.247H6.308V29.205z"/>
	</g>
</g>
</svg>
