<?xml version="1.0" encoding="utf-8"?>
<!-- Generator: Adobe Illustrator 16.0.4, SVG Export Plug-In . SVG Version: 6.00 Build 0)  -->
<!DOCTYPE svg PUBLIC "-//W3C//DTD SVG 1.1//EN" "http://www.w3.org/Graphics/SVG/1.1/DTD/svg11.dtd">
<svg version="1.1" fill="rgb(0, 14, 156)" xmlns="http://www.w3.org/2000/svg" xmlns:xlink="http://www.w3.org/1999/xlink" x="0px" y="0px"
	 width="32px" height="27.527px" viewBox="0 0 32 27.527" enable-background="new 0 0 32 27.527" xml:space="preserve">
<g id="Fondo_1_" display="none">
	<rect id="Fondo" x="-525.962" y="-1597.759" display="inline" fill="#FB6E92" width="1000" height="2438.351"/>
</g>
<g id="Guias" display="none">
</g>
<g id="Icons">
	<g display="none" opacity="0.2">
		<path display="inline" fill="#FFFFFF" d="M-115.953-121.238c-11.282,3.636-35.885,28.281-38.51,36.153
			c-2.621,7.851,12.065,36.153,18.865,37.705c6.793,1.59,56.584-20.437,58.154-28.284
			C-75.873-83.535-104.671-124.917-115.953-121.238z"/>
		<path display="inline" fill="#FFFFFF" d="M-12.984-201.396c-10.498,0.494-88.546,59.727-88.034,69.146
			c0.519,9.423,29.36,46.629,37.729,47.951c8.363,1.301,70.221-78.342,72.307-88.814C11.104-183.609-2.513-201.936-12.984-201.396z"
			/>
		<path display="inline" fill="#FFFFFF" d="M301.95-487.841c-10.933-15.146-35.498-16.261-56.115-3.017
			c-7.87-4.009-17.022-7.232-27.767-9.215c0,0-391.394,317.515-477.854,378.833c0,0-3.302,7.003-8.776,18.407
			c98.109,68.715,86.957,120.567,86.957,120.567C-208.753-49.179-277.489-84.3-277.509-84.3
			c-24.626,50.698-68.835,139.307-92.308,172.113c0,0-0.04,18.016,22.025,29.48c0,0,150.072-101.024,193.329-109.64
			c0,0,23.883-23.282,60.697-58.922c-20.121,10.309-43.197,20.062-52.827,20.659c-16.772,1.053-36.153-39.437-34.583-53.775
			c1.57-14.339,153.521-139.574,176.038-137.984c22.541,1.57,29.875,22.518,30.414,37.725c0.205,6.549-13.654,26.546-30.414,48.013
			C108.121-245.3,251.045-380.474,291.947-410.472c0,0,0.414-10.66-3.141-24.688C306.492-450.509,312.505-473.173,301.95-487.841z
			 M-313.454,94.756c0,0-2.542-32.479-33.638-43.818C-347.092,50.938-294.863,27.303-313.454,94.756z"/>
	</g>
	<path display="none" opacity="0.5" fill="#71C8EA" enable-background="new    " d="M1255.093-171.581l3.333,3.333
		c0,0,17-13.666,32.5-11.833c0,0,21-27.999,50-37.833c0,0,17.667-9.834,7.167-30.667s-24.327-12.938-31.167-8
		c-9.583,6.916-39.771,40.322-51.5,56.333C1265.426-200.248,1268.926-183.914,1255.093-171.581z"/>
	<path d="M26.016,0.003c-0.605,0.172-1.75,4.89-1.582,6.574l-2.524,1.647c-1.013-1.129-2.454-2.353-2.554-2.282
		c-0.104,0.072,0.188,1.616,1.191,3.173l-1.818,1.188c-1.164-1.321-2.903-2.804-3.021-2.721c-0.12,0.084,0.233,1.93,1.443,3.751
		l-1.798,1.175c-1.273-1.398-3.015-2.874-3.139-2.787c-0.127,0.09,0.226,1.971,1.438,3.898l-2.058,1.343
		c-1.961-2.704-4.248-4.813-5.649-4.464c-2.476,0.619-7.508,10.352-5.467,15.09s14.652-0.49,14.798-2.113
		c0.14-1.55-0.907-4.121-2.392-6.571l2.053-1.605c1.589,1.773,3.406,3.035,3.565,2.893c0.155-0.141-0.894-2.496-1.96-4.149
		l1.697-1.328c1.43,1.578,3.037,2.691,3.18,2.562c0.139-0.126-0.781-2.197-1.732-3.694l1.717-1.346
		c1.285,1.472,2.805,2.533,2.935,2.417c0.127-0.114-0.769-2.113-1.644-3.427l2.304-1.804c1.616,1.022,6.782,2.629,6.996,1.813
		C32.234,8.312,26.695-0.191,26.016,0.003z M7.605,20.954c-1.152,0.23-2.356-0.923-2.688-2.577s0.333-3.184,1.486-3.414
		c1.152-0.231,2.355,0.922,2.688,2.576C9.424,19.193,8.759,20.723,7.605,20.954z"/>
</g>
</svg>
