<?xml version="1.0" encoding="utf-8"?>
<!-- Generator: Adobe Illustrator 16.0.4, SVG Export Plug-In . SVG Version: 6.00 Build 0)  -->
<!DOCTYPE svg PUBLIC "-//W3C//DTD SVG 1.1//EN" "http://www.w3.org/Graphics/SVG/1.1/DTD/svg11.dtd">
<svg version="1.1" fill="rgb(0, 14, 156)" xmlns="http://www.w3.org/2000/svg" xmlns:xlink="http://www.w3.org/1999/xlink" x="0px" y="0px"
	 width="24.25px" height="32px" viewBox="0 0 24.25 32" enable-background="new 0 0 24.25 32" xml:space="preserve">
<g id="Fondo_1_" display="none">
	<rect id="Fondo" x="-581.836" y="-1595.522" display="inline" fill="#FB6E92" width="1000" height="2438.351"/>
</g>
<g id="Guias" display="none">
</g>
<g id="Icons">
	<g display="none" opacity="0.2">
		<path display="inline" fill="#FFFFFF" d="M-171.827-119.002c-11.282,3.636-35.885,28.281-38.51,36.153
			c-2.621,7.851,12.065,36.154,18.865,37.705c6.793,1.59,56.584-20.436,58.154-28.284
			C-131.747-81.299-160.545-122.681-171.827-119.002z"/>
		<path display="inline" fill="#FFFFFF" d="M-68.858-199.16c-10.498,0.494-88.546,59.726-88.034,69.146
			c0.519,9.423,29.36,46.629,37.729,47.951c8.363,1.301,70.221-78.341,72.307-88.814C-44.771-181.373-58.387-199.699-68.858-199.16z
			"/>
		<path display="inline" fill="#FFFFFF" d="M246.076-485.604c-10.932-15.145-35.498-16.26-56.115-3.016
			c-7.869-4.009-17.022-7.233-27.767-9.215c0,0-391.393,317.515-477.854,378.833c0,0-3.302,7.003-8.776,18.407
			c98.109,68.715,86.957,120.567,86.957,120.567c-27.149-66.916-95.885-102.037-95.905-102.037
			C-358.01-31.365-402.219,57.243-425.692,90.05c0,0-0.04,18.015,22.025,29.48c0,0,150.072-101.024,193.329-109.639
			c0,0,23.883-23.283,60.697-58.922c-20.121,10.308-43.197,20.062-52.827,20.659c-16.772,1.053-36.153-39.437-34.583-53.776
			c1.57-14.338,153.521-139.574,176.038-137.984c22.54,1.57,29.875,22.518,30.414,37.725c0.205,6.548-13.655,26.546-30.414,48.012
			c113.261-108.668,256.185-243.842,297.087-273.84c0,0,0.413-10.661-3.141-24.688C250.619-448.272,256.63-470.937,246.076-485.604z
			 M-369.328,96.992c0,0-2.542-32.479-33.638-43.818C-402.966,53.174-350.737,29.539-369.328,96.992z"/>
	</g>
	<path display="none" opacity="0.5" fill="#71C8EA" enable-background="new    " d="M1199.218-169.345l3.334,3.333
		c0,0,17-13.666,32.5-11.833c0,0,21-27.999,50-37.833c0,0,17.666-9.834,7.166-30.667c-10.5-20.833-24.326-12.938-31.166-8
		c-9.584,6.916-39.771,40.322-51.5,56.333C1209.552-198.012,1213.052-181.678,1199.218-169.345z"/>
	<g>
		<path d="M14.841,13.561C14.474,12.412,16.724,1.283,16.199,0.5C15.675-0.284,7.58-0.337,6.272,1.754
			C5.734,2.614,8.52,12.516,8.467,13.875c-0.054,1.358-8.679,9.482-8.464,10.553c0.709,3.551,7.989,11.071,20.011,5.695
			c1.985-0.889,3.813-3.344,4.229-5.695C24.464,23.189,15.208,14.71,14.841,13.561z M18.31,29.09
			c-9.742,4.443-15.642-1.773-16.217-4.707c-0.174-0.885,7.534-8.812,7.577-9.935C9.713,13.324,7.405,3.613,7.841,2.902
			c1.06-1.729,6.264-1.432,6.688-0.784c0.426,0.647-1.042,11.11-0.744,12.06c0.297,0.95,8.133,9.181,7.955,10.205
			C21.4,26.325,19.919,28.355,18.31,29.09z"/>
		<path d="M3.731,24.141C4.212,26.6,9.16,31.812,17.33,28.086c1.351-0.615,2.592-2.316,2.875-3.945
			c0.094-0.539-2.451-3.451-4.428-5.746L9.04,17.424C7.209,19.729,3.622,23.585,3.731,24.141z"/>
	</g>
</g>
</svg>
