<?xml version="1.0" encoding="utf-8"?>
<!-- Generator: Adobe Illustrator 16.0.4, SVG Export Plug-In . SVG Version: 6.00 Build 0)  -->
<!DOCTYPE svg PUBLIC "-//W3C//DTD SVG 1.1//EN" "http://www.w3.org/Graphics/SVG/1.1/DTD/svg11.dtd">
<svg version="1.1" fill="rgb(0, 14, 156)" xmlns="http://www.w3.org/2000/svg" xmlns:xlink="http://www.w3.org/1999/xlink" x="0px" y="0px"
	 width="26.521px" height="32px" viewBox="0 0 26.521 32" enable-background="new 0 0 26.521 32" xml:space="preserve">
<g id="Fondo_1_" display="none">
	<rect id="Fondo" x="-632.699" y="-1595.522" display="inline" fill="#FB6E92" width="1000" height="2438.351"/>
</g>
<g id="Guias" display="none">
</g>
<g id="Icons">
	<g display="none" opacity="0.2">
		<path display="inline" fill="#FFFFFF" d="M-222.689-119.002c-11.282,3.636-35.886,28.281-38.511,36.153
			c-2.62,7.851,12.065,36.154,18.865,37.705c6.793,1.59,56.584-20.436,58.154-28.284
			C-182.609-81.299-211.407-122.681-222.689-119.002z"/>
		<path display="inline" fill="#FFFFFF" d="M-119.721-199.16c-10.498,0.494-88.546,59.726-88.034,69.146
			c0.52,9.423,29.36,46.629,37.729,47.951c8.362,1.301,70.221-78.341,72.307-88.814C-95.633-181.373-109.249-199.699-119.721-199.16
			z"/>
		<path display="inline" fill="#FFFFFF" d="M195.214-485.604c-10.932-15.145-35.498-16.26-56.114-3.016
			c-7.87-4.009-17.023-7.233-27.768-9.215c0,0-391.393,317.515-477.854,378.833c0,0-3.303,7.003-8.776,18.407
			c98.109,68.715,86.957,120.567,86.957,120.567c-27.149-66.916-95.885-102.037-95.905-102.037
			c-24.626,50.699-68.835,139.307-92.308,172.114c0,0-0.04,18.015,22.024,29.48c0,0,150.072-101.024,193.329-109.639
			c0,0,23.884-23.283,60.697-58.922c-20.121,10.308-43.197,20.062-52.827,20.659c-16.771,1.053-36.152-39.437-34.583-53.776
			c1.57-14.338,153.521-139.574,176.038-137.984c22.54,1.57,29.875,22.518,30.414,37.725c0.205,6.548-13.655,26.546-30.414,48.012
			c113.26-108.668,256.185-243.842,297.086-273.84c0,0,0.414-10.661-3.14-24.688C199.756-448.272,205.769-470.937,195.214-485.604z
			 M-420.19,96.992c0,0-2.542-32.479-33.639-43.818C-453.828,53.174-401.6,29.539-420.19,96.992z"/>
	</g>
	<path display="none" opacity="0.5" fill="#71C8EA" enable-background="new    " d="M1148.355-169.345l3.334,3.333
		c0,0,17-13.666,32.5-11.833c0,0,21-27.999,50-37.833c0,0,17.666-9.834,7.166-30.667c-10.5-20.833-24.326-12.938-31.166-8
		c-9.584,6.916-39.771,40.322-51.5,56.333C1158.689-198.012,1162.189-181.678,1148.355-169.345z"/>
	<path d="M23.894,23.902c-0.035-0.01-0.069-0.014-0.104-0.021c0.806-0.492,1.435-1.309,1.688-2.322
		c0.497-1.986-0.626-3.979-2.511-4.451l0,0c0.238-0.379,0.427-0.803,0.542-1.267c0.562-2.24-0.705-4.486-2.829-5.018
		c-1.412-0.354-2.846,0.144-3.812,1.173c-0.453-1.168-1.409-2.093-2.672-2.408c-1.673-0.419-3.375,0.354-4.298,1.795
		C9.383,7.366,8.561,1.443,8.09,0.703c-0.721-1.132-5.865-0.72-6.277,0C1.4,1.424,6.546,13.981,6.546,13.981
		S1.194,11.51,0.37,12.025c-0.823,0.516-0.103,2.368,0.515,3.088c0.428,0.497,4.183,0.7,6.473,0.778
		c-1.299,0.781-2.179,2.282-2.179,4.009c0,2.426,1.738,4.406,3.938,4.563c-0.312,0.341-0.596,0.729-0.834,1.166
		c-1.209,2.222-0.807,4.774,0.898,5.703c1.314,0.716,3.021,0.252,4.286-1.019c0.431,0.805,1.099,1.393,1.938,1.603
		c1.716,0.431,3.544-0.868,4.321-2.957c0.4,1.034,1.249,1.854,2.368,2.134c1.884,0.473,3.812-0.757,4.311-2.742
		C26.902,26.365,25.777,24.373,23.894,23.902z"/>
</g>
</svg>
