<?xml version="1.0" encoding="utf-8"?>
<!-- Generator: Adobe Illustrator 16.0.4, SVG Export Plug-In . SVG Version: 6.00 Build 0)  -->
<!DOCTYPE svg PUBLIC "-//W3C//DTD SVG 1.1//EN" "http://www.w3.org/Graphics/SVG/1.1/DTD/svg11.dtd">
<svg version="1.1" fill="rgb(0, 14, 156)" xmlns="http://www.w3.org/2000/svg" xmlns:xlink="http://www.w3.org/1999/xlink" x="0px" y="0px"
	 width="32px" height="20.24px" viewBox="0 0 32 20.24" enable-background="new 0 0 32 20.24" xml:space="preserve">
<g id="Fondo_1_" display="none">
	<rect id="Fondo" x="-733.955" y="-1603.217" display="inline" fill="#FB6E92" width="1000" height="2438.351"/>
</g>
<g id="Guias" display="none">
</g>
<g id="Icons">
	<g display="none" opacity="0.2">
		<path display="inline" fill="#FFFFFF" d="M-323.945-126.696c-11.282,3.636-35.885,28.281-38.51,36.153
			c-2.621,7.851,12.065,36.154,18.865,37.705c6.793,1.59,56.584-20.436,58.154-28.284
			C-283.865-88.993-312.663-130.375-323.945-126.696z"/>
		<path display="inline" fill="#FFFFFF" d="M-220.977-206.854c-10.498,0.494-88.546,59.726-88.034,69.146
			c0.519,9.423,29.36,46.629,37.729,47.951c8.363,1.301,70.221-78.341,72.307-88.814
			C-196.889-189.067-210.505-207.394-220.977-206.854z"/>
		<path display="inline" fill="#FFFFFF" d="M93.958-493.299c-10.933-15.145-35.498-16.26-56.115-3.016
			c-7.87-4.009-17.023-7.233-27.767-9.215c0,0-391.393,317.515-477.854,378.833c0,0-3.302,7.003-8.776,18.407
			c98.109,68.715,86.957,120.568,86.957,120.568c-27.149-66.917-95.885-102.037-95.905-102.037
			C-510.128-39.06-554.337,49.548-577.81,82.354c0,0-0.04,18.016,22.025,29.48c0,0,150.072-101.023,193.329-109.639
			c0,0,23.883-23.283,60.697-58.922c-20.121,10.308-43.197,20.062-52.827,20.659c-16.772,1.053-36.153-39.437-34.583-53.776
			c1.57-14.338,153.521-139.574,176.038-137.984c22.54,1.57,29.875,22.518,30.414,37.725c0.205,6.548-13.655,26.546-30.414,48.012
			C-99.871-250.758,43.053-385.932,83.955-415.93c0,0,0.414-10.661-3.14-24.688C98.5-455.967,104.513-478.631,93.958-493.299z
			 M-521.446,89.298c0,0-2.542-32.479-33.638-43.818C-555.084,45.479-502.855,21.845-521.446,89.298z"/>
	</g>
	<path display="none" opacity="0.5" fill="#71C8EA" enable-background="new    " d="M1047.101-177.039l3.332,3.333
		c0,0,17-13.666,32.5-11.833c0,0,21-27.999,50-37.833c0,0,17.668-9.834,7.168-30.667s-24.328-12.937-31.168-8
		c-9.582,6.916-39.77,40.322-51.5,56.333C1057.433-205.706,1060.933-189.372,1047.101-177.039z"/>
	<path d="M31.796,6.527c-0.354-0.518-2.248-0.562-2.881-0.131c-0.236,0.161-0.377,0.992-0.442,1.992C26.761,5.308,21.386,0,13.851,0
		C3.476,0,0,7.649,0,9.531c0,1.465,2.472,5.247,7.414,6.851c0.326,0.797,1.207,2.855,1.839,3.385
		c0.788,0.659,8.134,0.586,8.909,0.053c0.621-0.426,1.33-3.023,1.588-4.039c4.151-1.413,7.545-3.652,8.682-5.252
		c0.021,0.989,0.1,1.801,0.209,1.946c0.296,0.389,2.369,0.357,2.882,0.131C32.033,12.375,32.149,7.045,31.796,6.527z M11.272,19.446
		c-0.591,0.064-1.13-0.453-1.206-1.155c-0.076-0.702,0.341-1.323,0.932-1.388c0.59-0.063,1.13,0.455,1.205,1.156
		C12.279,18.763,11.862,19.384,11.272,19.446z M14.031,19.446c-0.591,0.064-1.13-0.453-1.206-1.155
		c-0.076-0.702,0.341-1.323,0.932-1.388c0.59-0.063,1.13,0.455,1.206,1.156C15.038,18.763,14.621,19.384,14.031,19.446z
		 M16.791,19.446c-0.591,0.064-1.13-0.453-1.207-1.155s0.341-1.323,0.932-1.388c0.59-0.063,1.13,0.455,1.205,1.156
		C17.796,18.763,17.38,19.384,16.791,19.446z"/>
</g>
</svg>
