<?xml version="1.0" encoding="utf-8"?>
<!-- Generator: Adobe Illustrator 16.0.4, SVG Export Plug-In . SVG Version: 6.00 Build 0)  -->
<!DOCTYPE svg PUBLIC "-//W3C//DTD SVG 1.1//EN" "http://www.w3.org/Graphics/SVG/1.1/DTD/svg11.dtd">
<svg version="1.1" fill="rgb(0, 14, 156)" xmlns="http://www.w3.org/2000/svg" xmlns:xlink="http://www.w3.org/1999/xlink" x="0px" y="0px"
	 width="16.621px" height="32.102px" viewBox="0 0 16.621 32.102" enable-background="new 0 0 16.621 32.102" xml:space="preserve">
<g id="Fondo_1_" display="none">
	<rect id="Fondo" x="-793.64" y="-1595.522" display="inline" fill="#FB6E92" width="1000" height="2438.351"/>
</g>
<g id="Guias" display="none">
</g>
<g id="Icons">
	<g display="none" opacity="0.2">
		<path display="inline" fill="#FFFFFF" d="M-383.631-119.002c-11.282,3.636-35.885,28.281-38.51,36.153
			c-2.621,7.851,12.065,36.154,18.865,37.705c6.793,1.59,56.584-20.437,58.154-28.284
			C-343.551-81.299-372.349-122.681-383.631-119.002z"/>
		<path display="inline" fill="#FFFFFF" d="M-280.662-199.16c-10.498,0.494-88.546,59.727-88.034,69.146
			c0.519,9.423,29.36,46.629,37.729,47.951c8.363,1.301,70.221-78.341,72.307-88.814
			C-256.574-181.373-270.19-199.699-280.662-199.16z"/>
		<path display="inline" fill="#FFFFFF" d="M34.272-485.604c-10.933-15.146-35.498-16.261-56.115-3.017
			c-7.87-4.009-17.023-7.232-27.767-9.215c0,0-391.393,317.516-477.854,378.833c0,0-3.302,7.003-8.776,18.407
			c98.109,68.715,86.957,120.568,86.957,120.568c-27.149-66.916-95.885-102.037-95.905-102.037
			c-24.626,50.698-68.835,139.307-92.308,172.113c0,0-0.04,18.016,22.025,29.48c0,0,150.072-101.024,193.329-109.639
			c0,0,23.883-23.283,60.697-58.922c-20.121,10.308-43.197,20.062-52.827,20.658c-16.772,1.054-36.153-39.437-34.583-53.775
			c1.57-14.338,153.521-139.574,176.038-137.984c22.54,1.57,29.875,22.518,30.414,37.725c0.205,6.549-13.655,26.547-30.414,48.013
			c113.26-108.668,256.184-243.842,297.087-273.84c0,0,0.414-10.661-3.14-24.688C38.814-448.272,44.828-470.937,34.272-485.604z
			 M-581.132,96.992c0,0-2.542-32.478-33.638-43.818C-614.77,53.174-562.541,29.539-581.132,96.992z"/>
	</g>
	<path display="none" opacity="0.5" fill="#71C8EA" enable-background="new    " d="M987.416-169.345l3.332,3.333
		c0,0,17-13.666,32.5-11.833c0,0,21-27.999,50-37.833c0,0,17.668-9.834,7.168-30.667s-24.328-12.938-31.168-8
		c-9.582,6.916-39.771,40.322-51.5,56.333C997.748-198.012,1001.248-181.678,987.416-169.345z"/>
	<path d="M15.771,7.965c0-0.326,0.066-0.638,0.188-0.921c-1.109-0.19-1.955-1.155-1.955-2.32c0-0.748,0.349-1.413,0.892-1.846
		c-1.021-0.26-1.774-1.182-1.774-2.281c0-0.203,0.027-0.398,0.075-0.588C10.64-0.108,7.759,0.917,6.149,3.274
		c-3.188,4.664-6.03,17.688-5.268,18.4c0.273,0.256,1.185,0.663,2.279,1.063l-0.01-0.003c0,0-3.521,7.162-3.119,8.208
		C0.434,31.991,2.958,32.279,3.298,32c0.208-0.171,2.363-8.462,2.363-8.462L5.66,23.537c1.196,0.326,2.23,0.513,2.555,0.367
		c0.633-0.284,5.697-8.037,8.406-14.128C16.102,9.344,15.771,8.692,15.771,7.965z M4.71,19.437
		c-0.667,0.167-2.083-0.667-2.083-0.667s1.125-0.091,1.666-0.5c0.552-0.417,6.667-13,6.667-13S5.377,19.27,4.71,19.437z
		 M8.71,21.397c0,0-1.573-0.474-1.904-1.075C6.475,19.718,12.96,6.113,12.96,6.113S7.877,19.147,7.945,19.835
		C8.013,20.51,8.71,21.397,8.71,21.397z"/>
</g>
</svg>
