<?xml version="1.0" encoding="utf-8"?>
<!-- Generator: Adobe Illustrator 16.0.4, SVG Export Plug-In . SVG Version: 6.00 Build 0)  -->
<!DOCTYPE svg PUBLIC "-//W3C//DTD SVG 1.1//EN" "http://www.w3.org/Graphics/SVG/1.1/DTD/svg11.dtd">
<svg version="1.1" fill="rgb(0, 14, 156)" xmlns="http://www.w3.org/2000/svg" xmlns:xlink="http://www.w3.org/1999/xlink" x="0px" y="0px"
	 width="24.754px" height="32px" viewBox="0 0 24.754 32" enable-background="new 0 0 24.754 32" xml:space="preserve">
<g id="Fondo_1_" display="none">
	<rect id="Fondo" x="-842.975" y="-1595.522" display="inline" fill="#FB6E92" width="1000" height="2438.351"/>
</g>
<g id="Guias" display="none">
</g>
<g id="Icons">
	<g display="none" opacity="0.2">
		<path display="inline" fill="#FFFFFF" d="M-432.966-119.002c-11.282,3.636-35.885,28.281-38.51,36.153
			c-2.621,7.851,12.065,36.154,18.865,37.705c6.793,1.59,56.584-20.436,58.154-28.284
			C-392.886-81.299-421.684-122.681-432.966-119.002z"/>
		<path display="inline" fill="#FFFFFF" d="M-329.997-199.16c-10.498,0.494-88.546,59.726-88.034,69.146
			c0.52,9.423,29.36,46.629,37.729,47.951c8.363,1.301,70.221-78.341,72.307-88.814
			C-305.909-181.373-319.525-199.699-329.997-199.16z"/>
		<path display="inline" fill="#FFFFFF" d="M-15.062-485.604c-10.932-15.145-35.498-16.26-56.115-3.016
			c-7.87-4.009-17.023-7.233-27.767-9.215c0,0-391.393,317.515-477.854,378.833c0,0-3.302,7.003-8.776,18.407
			c98.109,68.715,86.957,120.567,86.957,120.567c-27.149-66.916-95.885-102.037-95.905-102.037
			C-619.148-31.365-663.357,57.243-686.83,90.05c0,0-0.04,18.015,22.025,29.48c0,0,150.072-101.024,193.329-109.639
			c0,0,23.883-23.283,60.697-58.922c-20.121,10.308-43.197,20.062-52.827,20.659c-16.772,1.053-36.153-39.437-34.583-53.776
			c1.57-14.338,153.521-139.574,176.038-137.984c22.54,1.57,29.875,22.518,30.414,37.725c0.205,6.548-13.655,26.546-30.414,48.012
			c113.259-108.668,256.183-243.842,297.086-273.84c0,0,0.414-10.661-3.14-24.688C-10.521-448.272-4.508-470.937-15.062-485.604z
			 M-630.467,96.992c0,0-2.542-32.479-33.638-43.818C-664.104,53.174-611.876,29.539-630.467,96.992z"/>
	</g>
	<path display="none" opacity="0.5" fill="#71C8EA" enable-background="new    " d="M938.081-169.345l3.332,3.333
		c0,0,17-13.666,32.5-11.833c0,0,21-27.999,50-37.833c0,0,17.668-9.834,7.168-30.667c-10.5-20.833-24.328-12.938-31.168-8
		c-9.582,6.916-39.77,40.322-51.5,56.333C948.413-198.012,951.913-181.678,938.081-169.345z"/>
	<path d="M23.892,5.779c-2.286-5.037-8.394-7.19-13.644-4.809C8.32,1.844,6.778,3.21,5.709,4.836
		C4.875,5.668,3.072,6.712,2.06,7.267C1.802,7.361,1.559,7.492,1.334,7.653L1.332,7.654l0,0c-0.406,0.294-0.747,0.691-0.973,1.18
		c-0.698,1.513-0.038,3.305,1.475,4.004c0.312,0.144,0.638,0.226,0.962,0.258c-0.201,0.087-0.395,0.19-0.573,0.319
		c-0.001,0-0.002,0.001-0.002,0.001l0,0c-0.407,0.294-0.747,0.691-0.973,1.179C0.549,16.108,1.209,17.9,2.722,18.6
		c0.147,0.067,0.299,0.118,0.45,0.161c-1.309,4.784-3.039,11.173-3.158,11.907c-0.2,1.23,1.888,1.664,2.577,1.066
		c0.504-0.438,8.165-7.084,12.238-10.617c0.088,0.549,0.321,1.08,0.719,1.525c1.105,1.246,3.013,1.359,4.259,0.254
		c0.401-0.356,0.685-0.799,0.848-1.271l0.001-0.002c0.09-0.262,0.145-0.533,0.16-0.807c0.241-1.143,0.727-3.197,1.288-4.227
		C24.725,13.665,25.562,9.462,23.892,5.779z M18.157,7.936c-0.002,0.003-0.003,0.006-0.004,0.01
		c-0.018,0.002-0.035,0.006-0.061,0.012C18.133,7.942,18.157,7.936,18.157,7.936z M18.45,15.226
		c-0.697,1.513-2.49,2.172-4.004,1.475c-0.572-0.265-1.021-0.688-1.322-1.192c0.033,0.023,0.063,0.051,0.1,0.073
		c1.303,0.832,3.102,0.441,4.015-0.872c0.294-0.422,0.459-0.891,0.507-1.357V13.35c0.025-0.258,0.019-0.515-0.029-0.764
		c-0.03-1.197-0.028-3.47,0.367-4.418c-0.244,1.041,0.194,3.476,0.459,4.748c0.096,0.256,0.153,0.527,0.176,0.803v0.002
		C18.756,14.221,18.676,14.738,18.45,15.226z"/>
</g>
</svg>
