<?xml version="1.0" encoding="utf-8"?>
<!-- Generator: Adobe Illustrator 16.0.4, SVG Export Plug-In . SVG Version: 6.00 Build 0)  -->
<!DOCTYPE svg PUBLIC "-//W3C//DTD SVG 1.1//EN" "http://www.w3.org/Graphics/SVG/1.1/DTD/svg11.dtd">
<svg version="1.1" fill="rgb(0, 14, 156)" xmlns="http://www.w3.org/2000/svg" xmlns:xlink="http://www.w3.org/1999/xlink" x="0px" y="0px"
	 width="32px" height="31.434px" viewBox="0 0 32 31.434" enable-background="new 0 0 32 31.434" xml:space="preserve">
<g id="Fondo_1_" display="none">
	<rect id="Fondo" x="-109.966" y="-1659.791" display="inline" fill="#FB6E92" width="1000" height="2438.352"/>
</g>
<g id="Guias" display="none">
</g>
<g id="Icons">
	<g display="none" opacity="0.2">
		<path display="inline" fill="#FFFFFF" d="M300.043-183.271c-11.282,3.636-35.885,28.28-38.51,36.152
			c-2.621,7.852,12.064,36.154,18.865,37.705c6.793,1.59,56.584-20.436,58.153-28.284
			C340.123-145.567,311.325-186.949,300.043-183.271z"/>
		<path display="inline" fill="#FFFFFF" d="M403.012-263.429c-10.498,0.494-88.546,59.726-88.034,69.146
			c0.52,9.424,29.36,46.63,37.729,47.951c8.363,1.301,70.221-78.341,72.307-88.813C427.1-245.642,413.483-263.968,403.012-263.429z"
			/>
		<path display="inline" fill="#FFFFFF" d="M717.946-549.873c-10.933-15.145-35.498-16.26-56.115-3.016
			c-7.87-4.009-17.023-7.233-27.767-9.215c0,0-391.394,317.515-477.854,378.833c0,0-3.302,7.003-8.776,18.406
			c98.109,68.716,86.957,120.568,86.957,120.568c-27.148-66.916-95.885-102.037-95.904-102.037
			C113.859-95.633,69.65-7.025,46.18,25.782c0,0-0.041,18.015,22.024,29.48c0,0,150.071-101.024,193.329-109.64
			c0,0,23.883-23.283,60.697-58.922c-20.121,10.308-43.197,20.062-52.828,20.659c-16.771,1.053-36.152-39.438-34.582-53.776
			c1.57-14.338,153.521-139.574,176.038-137.983c22.54,1.569,29.875,22.518,30.413,37.725c0.205,6.548-13.654,26.546-30.413,48.012
			C524.116-307.332,667.04-442.506,707.942-472.504c0,0,0.414-10.661-3.141-24.688C722.488-512.541,728.501-535.205,717.946-549.873
			z M102.542,32.724c0,0-2.542-32.479-33.638-43.818C68.904-11.095,121.133-34.729,102.542,32.724z"/>
	</g>
	<path display="none" opacity="0.5" fill="#71C8EA" enable-background="new    " d="M1671.089-233.614l3.333,3.333
		c0,0,17-13.666,32.5-11.833c0,0,21-27.998,50-37.833c0,0,17.667-9.834,7.167-30.667c-10.5-20.832-24.327-12.937-31.167-8
		c-9.583,6.916-39.771,40.322-51.5,56.333C1681.422-262.281,1684.922-245.946,1671.089-233.614z"/>
	<path d="M30.379,9.595c-0.352-1.53-8.797,1.703-8.797,1.703s1.891-3.675,1.072-7.519c-0.436-2.048-6.113-4.896-7.747-3.329
		c-1.635,1.563,1.078,9.422,0.521,10.222c-0.556,0.802-3.418,2.34-3.731,4.147s1.159,5.345,1.159,5.345l-1.888-0.021
		c-0.187-3.255-0.516-6.127-0.906-6.305c-0.899-0.408-8.914,1.31-9.813,2.535c-0.899,1.227,0.899,12.92,1.39,13.329
		c0.491,0.409,8.423,0.748,9.159,0c0.266-0.27,0.36-2.363,0.331-4.942l2.422-0.353c0,0-0.087,4.636,0.73,5.511
		c1.513,1.617,16.135,2.018,16.934,0.816C32.014,29.537,32.789,20.053,30.379,9.595z"/>
</g>
</svg>
