<?xml version="1.0" encoding="utf-8"?>
<!-- Generator: Adobe Illustrator 16.0.4, SVG Export Plug-In . SVG Version: 6.00 Build 0)  -->
<!DOCTYPE svg PUBLIC "-//W3C//DTD SVG 1.1//EN" "http://www.w3.org/Graphics/SVG/1.1/DTD/svg11.dtd">
<svg version="1.1" fill="rgb(0, 14, 156)" xmlns="http://www.w3.org/2000/svg" xmlns:xlink="http://www.w3.org/1999/xlink" x="0px" y="0px"
	 width="32px" height="31.434px" viewBox="0 0 32 31.434" enable-background="new 0 0 32 31.434" xml:space="preserve">
<g id="Fondo_1_" display="none">
	<rect id="Fondo" x="-161.966" y="-1659.806" display="inline" fill="#FB6E92" width="1000" height="2438.351"/>
</g>
<g id="Guias" display="none">
</g>
<g id="Icons">
	<g display="none" opacity="0.2">
		<path display="inline" fill="#FFFFFF" d="M248.043-183.285c-11.281,3.637-35.885,28.281-38.51,36.153
			c-2.621,7.851,12.064,36.154,18.865,37.705c6.793,1.59,56.584-20.437,58.153-28.284
			C288.123-145.582,259.325-186.964,248.043-183.285z"/>
		<path display="inline" fill="#FFFFFF" d="M351.012-263.443c-10.498,0.493-88.546,59.726-88.033,69.146
			c0.519,9.423,29.359,46.629,37.729,47.951c8.363,1.301,70.221-78.341,72.307-88.814
			C375.1-245.656,361.483-263.982,351.012-263.443z"/>
		<path display="inline" fill="#FFFFFF" d="M665.946-549.888c-10.933-15.146-35.498-16.26-56.115-3.016
			c-7.87-4.01-17.023-7.233-27.767-9.216c0,0-391.394,317.516-477.854,378.833c0,0-3.302,7.003-8.776,18.407
			c98.11,68.716,86.959,120.569,86.959,120.569c-27.149-66.916-95.886-102.037-95.906-102.037
			C61.859-95.647,17.65-7.04-5.821,25.768c0,0-0.04,18.015,22.025,29.479c0,0,150.071-101.023,193.329-109.639
			c0,0,23.883-23.283,60.697-58.922c-20.121,10.308-43.197,20.062-52.828,20.659c-16.771,1.053-36.152-39.438-34.582-53.776
			c1.57-14.338,153.521-139.574,176.038-137.984c22.54,1.57,29.875,22.519,30.413,37.726c0.205,6.548-13.654,26.546-30.413,48.012
			C472.116-307.346,615.04-442.52,655.942-472.518c0,0,0.414-10.661-3.141-24.688C670.488-512.556,676.501-535.22,665.946-549.888z
			 M50.542,32.709c0,0-2.542-32.478-33.638-43.817C16.904-11.109,69.133-34.744,50.542,32.709z"/>
	</g>
	<path display="none" opacity="0.5" fill="#71C8EA" enable-background="new    " d="M1619.089-233.628l3.333,3.333
		c0,0,17-13.666,32.5-11.833c0,0,21-27.999,50-37.833c0,0,17.667-9.834,7.167-30.667s-24.327-12.937-31.167-8
		c-9.583,6.916-39.771,40.322-51.5,56.333C1629.422-262.295,1632.922-245.961,1619.089-233.628z"/>
	<path d="M30.379,21.838c-0.352,1.53-8.797-1.704-8.797-1.704s1.891,3.676,1.072,7.52c-0.436,2.048-6.113,4.895-7.747,3.329
		c-1.635-1.563,1.078-9.422,0.521-10.223c-0.556-0.801-3.418-2.339-3.731-4.146s1.159-5.345,1.159-5.345l-1.888,0.021
		c-0.187,3.255-0.516,6.127-0.906,6.304c-0.899,0.409-8.914-1.309-9.813-2.534C-0.65,13.833,1.148,2.139,1.639,1.73
		c0.491-0.409,8.423-0.748,9.159,0c0.266,0.27,0.36,2.362,0.331,4.941l2.422,0.354c0,0-0.087-4.636,0.73-5.511
		c1.513-1.617,16.135-2.018,16.934-0.816C32.014,1.896,32.789,11.38,30.379,21.838z"/>
</g>
</svg>
