<?xml version="1.0" encoding="utf-8"?>
<!-- Generator: Adobe Illustrator 16.0.4, SVG Export Plug-In . SVG Version: 6.00 Build 0)  -->
<!DOCTYPE svg PUBLIC "-//W3C//DTD SVG 1.1//EN" "http://www.w3.org/Graphics/SVG/1.1/DTD/svg11.dtd">
<svg version="1.1" fill="rgb(0, 14, 156)" xmlns="http://www.w3.org/2000/svg" xmlns:xlink="http://www.w3.org/1999/xlink" x="0px" y="0px"
	 width="32px" height="25.346px" viewBox="0 0 32 25.346" enable-background="new 0 0 32 25.346" xml:space="preserve">
<g id="Fondo_1_" display="none">
	<rect id="Fondo" x="-213.966" y="-1662.233" display="inline" fill="#FB6E92" width="1000" height="2438.351"/>
</g>
<g id="Guias" display="none">
</g>
<g id="Icons">
	<g display="none" opacity="0.2">
		<path display="inline" fill="#FFFFFF" d="M196.043-185.713c-11.281,3.636-35.885,28.281-38.51,36.153
			c-2.621,7.851,12.064,36.153,18.865,37.705c6.793,1.59,56.584-20.437,58.153-28.284
			C236.123-148.01,207.325-189.392,196.043-185.713z"/>
		<path display="inline" fill="#FFFFFF" d="M299.012-265.871c-10.498,0.494-88.546,59.727-88.033,69.146
			c0.519,9.423,29.359,46.629,37.729,47.951c8.363,1.301,70.221-78.342,72.307-88.814C323.1-248.084,309.483-266.41,299.012-265.871
			z"/>
		<path display="inline" fill="#FFFFFF" d="M613.946-552.315c-10.933-15.146-35.498-16.261-56.115-3.017
			c-7.87-4.009-17.023-7.232-27.767-9.215c0,0-391.394,317.515-477.854,378.833c0,0-3.302,7.003-8.776,18.407
			c98.109,68.715,86.957,120.568,86.957,120.568c-27.148-66.916-95.885-102.037-95.904-102.037
			C9.86-98.075-34.349-9.468-57.821,23.34c0,0-0.04,18.016,22.025,29.48c0,0,150.071-101.024,193.329-109.639
			c0,0,23.883-23.283,60.697-58.923c-20.121,10.309-43.197,20.062-52.828,20.659c-16.771,1.054-36.152-39.437-34.582-53.775
			c1.57-14.338,153.521-139.574,176.038-137.984c22.54,1.57,29.875,22.518,30.413,37.725c0.205,6.549-13.654,26.547-30.413,48.013
			C420.116-309.774,563.04-444.948,603.942-474.946c0,0,0.414-10.661-3.141-24.688C618.488-514.983,624.501-537.647,613.946-552.315
			z M-1.458,30.281c0,0-2.542-32.478-33.638-43.818C-35.096-13.537,17.133-37.172-1.458,30.281z"/>
	</g>
	<path display="none" opacity="0.5" fill="#71C8EA" enable-background="new    " d="M1567.089-236.056l3.333,3.333
		c0,0,17-13.666,32.5-11.833c0,0,21-27.999,50-37.833c0,0,17.667-9.834,7.167-30.667s-24.327-12.938-31.167-8
		c-9.583,6.916-39.771,40.322-51.5,56.333C1577.422-264.723,1580.922-248.389,1567.089-236.056z"/>
	<path d="M31.96,13.633c-0.104-0.264-4.185-4.703-7.896-8.445c-0.645,0.904-1.705,1.32-2.592,0.938
		c-1.052-0.454-1.457-1.858-0.904-3.139c0.123-0.284,0.285-0.536,0.471-0.754c-1.375-1.286-2.439-2.166-2.821-2.226
		c-1.303-0.199-12.53,3.738-16.07,5.8c1.637,0.437,5.184,1.385,9.227,2.479c0.056-0.224,0.13-0.447,0.225-0.667
		c0.797-1.844,2.701-2.795,4.252-2.125c1.507,0.652,2.125,2.597,1.425,4.398c6.715,1.842,12.978,3.609,12.951,3.798
		c-0.027,0.188-6.629-1.134-13.658-2.599c-0.945,1.127-2.382,1.606-3.604,1.079c-0.881-0.381-1.458-1.204-1.647-2.182
		C6.481,8.968,2.2,8.047,0.627,7.709C0.241,8.84,0.05,10.264,0,11.814c0.674-0.244,1.395-0.255,2.053,0.028
		c1.551,0.672,2.163,2.709,1.366,4.555c-0.582,1.345-1.751,2.21-2.943,2.323c0.494,3.293,1.245,6.01,1.694,6.459
		c0.438,0.437,5.634-0.053,11.526-0.788c-0.068-0.657,0.033-1.367,0.329-2.052c0.797-1.845,2.702-2.795,4.252-2.125
		c1.214,0.525,1.849,1.89,1.687,3.342c6.03-0.848,11.298-1.705,11.419-1.843C31.665,21.397,32.141,14.087,31.96,13.633z
		 M12.31,18.476c-0.797,1.844-2.701,2.795-4.252,2.124c-1.551-0.67-2.163-2.708-1.365-4.553c0.797-1.845,2.701-2.795,4.251-2.125
		C12.496,14.594,13.107,16.632,12.31,18.476z M22.531,16.583c-0.553,1.279-1.854,1.946-2.905,1.492s-1.457-1.859-0.903-3.138
		c0.553-1.279,1.854-1.947,2.904-1.492C22.68,13.899,23.084,15.305,22.531,16.583z"/>
</g>
</svg>
