<?xml version="1.0" encoding="utf-8"?>
<!-- Generator: Adobe Illustrator 16.0.4, SVG Export Plug-In . SVG Version: 6.00 Build 0)  -->
<!DOCTYPE svg PUBLIC "-//W3C//DTD SVG 1.1//EN" "http://www.w3.org/Graphics/SVG/1.1/DTD/svg11.dtd">
<svg version="1.1" fill="rgb(0, 14, 156)" xmlns="http://www.w3.org/2000/svg" xmlns:xlink="http://www.w3.org/1999/xlink" x="0px" y="0px"
	 width="32px" height="27.57px" viewBox="0 0 32 27.57" enable-background="new 0 0 32 27.57" xml:space="preserve">
<g id="Fondo_1_" display="none">
	<rect id="Fondo" x="-265.966" y="-1662.099" display="inline" fill="#FB6E92" width="1000" height="2438.352"/>
</g>
<g id="Guias" display="none">
</g>
<g id="Icons">
	<g display="none" opacity="0.2">
		<path display="inline" fill="#FFFFFF" d="M144.043-185.578c-11.281,3.636-35.885,28.281-38.51,36.153
			c-2.621,7.851,12.064,36.153,18.865,37.705c6.793,1.59,56.584-20.437,58.153-28.284
			C184.123-147.875,155.325-189.257,144.043-185.578z"/>
		<path display="inline" fill="#FFFFFF" d="M247.012-265.736c-10.498,0.494-88.546,59.727-88.033,69.146
			c0.519,9.423,29.359,46.629,37.729,47.95c8.363,1.302,70.221-78.341,72.307-88.813C271.1-247.949,257.482-266.275,247.012-265.736
			z"/>
		<path display="inline" fill="#FFFFFF" d="M561.946-552.181c-10.933-15.145-35.498-16.26-56.115-3.016
			c-7.87-4.009-17.023-7.233-27.767-9.215c0,0-391.394,317.515-477.854,378.833c0,0-3.302,7.003-8.776,18.407
			C89.544-98.456,78.393-46.603,78.393-46.603C51.243-113.519-17.493-148.64-17.513-148.64
			C-42.14-97.94-86.349-9.333-109.821,23.475c0,0-0.04,18.016,22.025,29.48c0,0,150.071-101.024,193.329-109.64
			c0,0,23.883-23.282,60.697-58.922c-20.121,10.309-43.197,20.062-52.828,20.659c-16.771,1.053-36.152-39.437-34.582-53.776
			c1.57-14.338,153.521-139.573,176.037-137.983c22.541,1.57,29.875,22.518,30.414,37.725c0.205,6.548-13.654,26.546-30.414,48.013
			c113.26-108.671,256.184-243.844,297.086-273.843c0,0,0.414-10.661-3.141-24.688C566.488-514.849,572.501-537.513,561.946-552.181
			z M-53.458,30.416c0,0-2.542-32.479-33.638-43.818C-87.096-13.402-34.867-37.037-53.458,30.416z"/>
	</g>
	<path display="none" opacity="0.5" fill="#71C8EA" enable-background="new    " d="M1515.089-235.921l3.333,3.333
		c0,0,17-13.666,32.5-11.833c0,0,21-27.999,50-37.833c0,0,17.667-9.834,7.167-30.667s-24.327-12.938-31.167-8
		c-9.583,6.916-39.771,40.321-51.5,56.333C1525.422-264.588,1528.922-248.254,1515.089-235.921z"/>
	<path d="M30.945,7.775H30.9C30.333,3.429,23.807,0,15.833,0C7.861,0,1.334,3.429,0.768,7.775H0.723c0,0-0.723,3.264-0.723,6.293
		c0,3.03,0.723,5.68,0.723,5.68c1.054,4.248,6.225,7.061,6.983,7.028c0.758-0.031,7.054-6.876,7.718-6.876s5.398,7.403,6.062,7.655
		s9.164-2.521,9.93-7.731c0,0,0.583-1.995,0.583-5.756C32,11.305,30.945,7.775,30.945,7.775z M21.104,16.217
		c-0.931,0.078-4.912-7.137-5.755-7.291c-0.844-0.153-5.912,5.926-7.213,5.68C3.76,13.777,1.688,8.159,1.688,8.159
		s3.453,4.526,6.522,4.526c1.161,0,6.258-5.45,6.983-5.468c0.806-0.021,6.019,7.218,6.522,7.232
		c2.609,0.076,7.751-4.682,7.751-4.682S26.552,15.756,21.104,16.217z"/>
</g>
</svg>
