<?xml version="1.0" encoding="utf-8"?>
<!-- Generator: Adobe Illustrator 16.0.4, SVG Export Plug-In . SVG Version: 6.00 Build 0)  -->
<!DOCTYPE svg PUBLIC "-//W3C//DTD SVG 1.1//EN" "http://www.w3.org/Graphics/SVG/1.1/DTD/svg11.dtd">
<svg version="1.1" fill="rgb(0, 14, 156)" xmlns="http://www.w3.org/2000/svg" xmlns:xlink="http://www.w3.org/1999/xlink" x="0px" y="0px"
	 width="32px" height="25.945px" viewBox="0 0 32 25.945" enable-background="new 0 0 32 25.945" xml:space="preserve">
<g id="Fondo_1_" display="none">
	<rect id="Fondo" x="-317.966" y="-1662.911" display="inline" fill="#FB6E92" width="1000" height="2438.352"/>
</g>
<g id="Guias" display="none">
</g>
<g id="Icons">
	<g display="none" opacity="0.2">
		<path display="inline" fill="#FFFFFF" d="M92.043-186.391c-11.281,3.636-35.885,28.281-38.51,36.152
			c-2.621,7.852,12.064,36.154,18.865,37.705c6.793,1.591,56.584-20.436,58.153-28.283
			C132.124-148.688,103.326-190.069,92.043-186.391z"/>
		<path display="inline" fill="#FFFFFF" d="M195.012-266.549c-10.498,0.494-88.546,59.726-88.033,69.146
			c0.519,9.423,29.359,46.629,37.729,47.95c8.363,1.302,70.221-78.341,72.307-88.813C219.1-248.762,205.484-267.088,195.012-266.549
			z"/>
		<path display="inline" fill="#FFFFFF" d="M509.947-552.993c-10.933-15.145-35.498-16.26-56.115-3.016
			c-7.87-4.009-17.023-7.233-27.767-9.215c0,0-391.394,317.515-477.854,378.833c0,0-3.302,7.003-8.776,18.407
			C37.544-99.269,26.393-47.415,26.393-47.415c-27.149-66.916-95.886-102.037-95.906-102.037
			c-24.626,50.699-68.835,139.308-92.308,172.114c0,0-0.04,18.015,22.025,29.48c0,0,150.072-101.024,193.329-109.64
			c0,0,23.883-23.282,60.697-58.922c-20.121,10.31-43.196,20.063-52.826,20.66c-16.772,1.053-36.153-39.437-34.584-53.776
			c1.57-14.338,153.521-139.573,176.039-137.983c22.539,1.569,29.875,22.518,30.414,37.725c0.205,6.548-13.655,26.546-30.414,48.012
			c113.258-108.669,256.182-243.843,297.084-273.841c0,0,0.414-10.661-3.141-24.688
			C514.489-515.661,520.501-538.325,509.947-552.993z M-105.458,29.604c0,0-2.542-32.479-33.638-43.818
			C-139.095-14.215-86.867-37.85-105.458,29.604z"/>
	</g>
	<path display="none" opacity="0.5" fill="#71C8EA" enable-background="new    " d="M1463.089-236.733l3.333,3.333
		c0,0,17-13.666,32.5-11.833c0,0,21-27.999,50-37.833c0,0,17.667-9.834,7.167-30.667s-24.327-12.938-31.167-8
		c-9.583,6.916-39.771,40.321-51.5,56.333C1473.422-265.4,1476.922-249.066,1463.089-236.733z"/>
	<path d="M30.214,2.674c-0.297-0.139-1.677-0.815-3.703-1.455c0.71,2.488,0.035,4.071-0.257,4.106
		c-0.824,0.099-1.646-2.562-3.424-4.997c-1.614-0.271-3.389-0.41-5.221-0.276c5.072,4.315,4.347,8.256,3.91,8.385
		c-0.973,0.286-2.619-3.474-5.756-5.649c-1.014-0.703-2.138-1.224-3.161-1.601c-1.675,0.673-3.318,1.675-4.85,3.109
		c9.178,3.562,9.199,8.997,8.721,9.233c-0.908,0.448-3.174-2.973-6.638-4.58C8.141,8.162,6.268,7.832,4.92,7.695
		c-0.745,1.128-1.44,2.408-2.072,3.858c7.172,1.74,8.225,5.963,7.864,6.271c-0.769,0.659-3.812-2.094-7.566-2.792
		c-0.509-0.095-1.023-0.152-1.528-0.181c-0.636,2.005-1.172,4.26-1.584,6.803c-0.432,2.666,3.413,4.288,4.845,4.289
		c4.924,0.003,25.553-15.133,26.607-17.553C32.695,5.613,31.564,3.31,30.214,2.674z"/>
</g>
</svg>
