<?xml version="1.0" encoding="utf-8"?>
<!-- Generator: Adobe Illustrator 16.0.4, SVG Export Plug-In . SVG Version: 6.00 Build 0)  -->
<!DOCTYPE svg PUBLIC "-//W3C//DTD SVG 1.1//EN" "http://www.w3.org/Graphics/SVG/1.1/DTD/svg11.dtd">
<svg version="1.1" fill="rgb(0, 14, 156)" xmlns="http://www.w3.org/2000/svg" xmlns:xlink="http://www.w3.org/1999/xlink" x="0px" y="0px"
	 width="21.786px" height="32.003px" viewBox="0 0 21.786 32.003" enable-background="new 0 0 21.786 32.003" xml:space="preserve">
<g id="Fondo_1_" display="none">
	<rect id="Fondo" x="-375.028" y="-1659.521" display="inline" fill="#FB6E92" width="999.999" height="2438.351"/>
</g>
<g id="Guias" display="none">
</g>
<g id="Icons">
	<g display="none" opacity="0.2">
		<path display="inline" fill="#FFFFFF" d="M34.981-183.001C23.7-179.365-0.904-154.72-3.529-146.848
			c-2.621,7.851,12.065,36.154,18.865,37.705c6.793,1.59,56.584-20.436,58.154-28.284C75.061-145.298,46.263-186.68,34.981-183.001z
			"/>
		<path display="inline" fill="#FFFFFF" d="M137.95-263.159c-10.498,0.494-88.546,59.726-88.033,69.146
			c0.519,9.423,29.359,46.629,37.729,47.951c8.363,1.301,70.221-78.341,72.307-88.814
			C162.038-245.372,148.42-263.698,137.95-263.159z"/>
		<path display="inline" fill="#FFFFFF" d="M452.883-549.604c-10.932-15.145-35.498-16.26-56.115-3.016
			c-7.869-4.009-17.021-7.233-27.766-9.215c0,0-391.394,317.515-477.854,378.833c0,0-3.302,7.003-8.776,18.407
			c98.11,68.716,86.958,120.57,86.958,120.57c-27.149-66.916-95.885-102.037-95.905-102.037
			C-151.201-95.363-195.41-6.755-218.883,26.052c0,0-0.04,18.015,22.025,29.48c0,0,150.072-101.025,193.329-109.64
			c0,0,23.883-23.283,60.697-58.922c-20.121,10.308-43.197,20.062-52.827,20.66c-16.772,1.053-36.153-39.437-34.583-53.776
			c1.57-14.338,153.521-139.574,176.039-137.984c22.539,1.57,29.875,22.518,30.414,37.725c0.205,6.548-13.655,26.546-30.414,48.012
			c113.258-108.669,256.182-243.843,297.084-273.841c0,0,0.414-10.661-3.141-24.688C457.426-512.271,463.44-534.936,452.883-549.604
			z M-162.52,32.994c0,0-2.542-32.479-33.638-43.819C-196.158-10.825-143.929-34.46-162.52,32.994z"/>
	</g>
	<path display="none" opacity="0.5" fill="#71C8EA" enable-background="new    " d="M1406.028-233.344l3.332,3.333
		c0,0,17-13.666,32.5-11.833c0,0,21-27.999,50-37.833c0,0,17.668-9.834,7.168-30.667s-24.328-12.938-31.168-8
		c-9.582,6.916-39.771,40.322-51.5,56.333C1416.36-262.011,1419.86-245.677,1406.028-233.344z"/>
	<g>
		<path d="M4.644,31.574c0.44,0.615,12.405,0.527,13.11,0c0.295-0.223,0.885-4.117,1.47-8.562L3.378,24.078
			C3.954,28.042,4.475,31.337,4.644,31.574z"/>
		<path d="M18.545,0.073c-0.26-0.148-2.713-0.057-5.715,0.145c-0.068,0.379-0.203,1.132-0.373,1.2
			c-0.328,0.132-3.58,0.545-3.843,0.281C8.491,1.576,8.296,0.823,8.322,0.567c-2.581,0.232-4.7,0.484-4.944,0.65
			c-0.5,0.338-0.819,2.344-0.94,3.254l17.296-1.526L18.545,0.073z"/>
		<path d="M2.141,15.258l17.671,3.113c0.333-2.72,0.627-5.245,0.813-6.867L1.522,10.673C1.654,11.662,1.874,13.301,2.141,15.258z"/>
		<path d="M20.146,4.393c0,0-0.591,0.012-1.073,0.006c-3.832,0.06-12.831,0.8-16.691,1.121c-1.006,0.084-1.165,0.1-1.289,0.107
			C0.375,5.668-0.391,9.549,0.225,9.782c0.105,0.039,0,0,1.181,0.039c0,0,12.621,0.246,18.399,0.105
			c1.425-0.048,1.847-0.009,1.915-0.112C22.072,9.271,20.938,4.936,20.146,4.393z"/>
	</g>
</g>
</svg>
