<?xml version="1.0" encoding="utf-8"?>
<!-- Generator: Adobe Illustrator 16.0.4, SVG Export Plug-In . SVG Version: 6.00 Build 0)  -->
<!DOCTYPE svg PUBLIC "-//W3C//DTD SVG 1.1//EN" "http://www.w3.org/Graphics/SVG/1.1/DTD/svg11.dtd">
<svg version="1.1" fill="rgb(0, 14, 156)" xmlns="http://www.w3.org/2000/svg" xmlns:xlink="http://www.w3.org/1999/xlink" x="0px" y="0px"
	 width="20.617px" height="32px" viewBox="0 0 20.617 32" enable-background="new 0 0 20.617 32" xml:space="preserve">
<g id="Fondo_1_" display="none">
	<rect id="Fondo" x="-427.657" y="-1659.594" display="inline" fill="#FB6E92" width="1000" height="2438.351"/>
</g>
<g id="Guias" display="none">
</g>
<g id="Icons">
	<g display="none" opacity="0.2">
		<path display="inline" fill="#FFFFFF" d="M-17.648-183.073c-11.282,3.636-35.885,28.281-38.51,36.153
			c-2.621,7.851,12.065,36.154,18.865,37.705c6.793,1.59,56.584-20.436,58.154-28.284C22.432-145.37-6.366-186.752-17.648-183.073z"
			/>
		<path display="inline" fill="#FFFFFF" d="M85.32-263.231c-10.497,0.494-88.545,59.726-88.033,69.146
			c0.519,9.423,29.359,46.629,37.729,47.951c8.363,1.301,70.221-78.341,72.308-88.814C109.409-245.444,95.792-263.771,85.32-263.231
			z"/>
		<path display="inline" fill="#FFFFFF" d="M400.255-549.676c-10.932-15.146-35.498-16.26-56.115-3.016
			c-7.87-4.009-17.022-7.233-27.767-9.215c0,0-391.393,317.515-477.854,378.833c0,0-3.302,7.003-8.776,18.407
			c98.11,68.716,86.958,120.569,86.958,120.569c-27.149-66.916-95.885-102.037-95.905-102.037
			C-203.831-95.436-248.04-6.828-271.512,25.979c0,0-0.04,18.016,22.025,29.48c0,0,150.072-101.024,193.329-109.639
			c0,0,23.883-23.283,60.697-58.922c-20.121,10.308-43.197,20.062-52.827,20.659c-16.772,1.053-36.153-39.437-34.583-53.776
			c1.57-14.338,153.521-139.574,176.038-137.984c22.54,1.57,29.875,22.518,30.414,37.725c0.205,6.548-13.655,26.546-30.414,48.012
			C206.426-307.135,349.35-442.309,390.252-472.307c0,0,0.414-10.661-3.14-24.688C404.797-512.344,410.81-535.008,400.255-549.676z
			 M-215.149,32.921c0,0-2.542-32.478-33.638-43.818C-248.787-10.897-196.558-34.532-215.149,32.921z"/>
	</g>
	<path display="none" opacity="0.5" fill="#71C8EA" enable-background="new    " d="M1353.398-233.416l3.332,3.333
		c0,0,17-13.666,32.5-11.833c0,0,21-27.999,50-37.833c0,0,17.668-9.834,7.168-30.667s-24.327-12.937-31.168-8
		c-9.582,6.916-39.771,40.322-51.5,56.333C1363.73-262.083,1367.23-245.749,1353.398-233.416z"/>
	<g>
		<path d="M11.708,15.737c0,0,9.093-14.2,8.906-14.948c-0.188-0.747-0.935-0.871-1.62-0.747c-0.684,0.125-9.556,14.491-9.556,14.491
			S11.365,13.246,11.708,15.737z"/>
		<path d="M11.866,15.963c-0.023-0.066-0.08-0.145-0.159-0.227l0.001,0.001c0,0-0.617-1.193-2.27-1.204l0.002,0.001
			c-0.207-0.052-0.394-0.076-0.541-0.062c-0.676,0.062-1.996,2.958-2.427,3.945c0,0,3.075-2.129,3.33,1.819
			c0,0-0.409-1.506-3.33-1.819c0,0.001,0,0.001-0.001,0.002c-0.019-0.001-0.041-0.005-0.056-0.005c-1.432,0-5.574,4.982-5.574,4.982
			C1.931,27.507,0,31.119,0,31.119s0.11,0.238,0.384,0.467L3.8,25.37c-0.167-0.121-0.304-0.278-0.394-0.472
			c-0.331-0.703,0.075-1.592,0.908-1.983s1.776-0.138,2.108,0.565c0.331,0.705-0.076,1.594-0.908,1.984
			c-0.299,0.141-0.612,0.196-0.906,0.18l-3.344,6.328c0.365,0.057,0.652,0.006,0.652,0.006c2.305-3.986,6.742-4.535,6.742-4.535
			s1.375-5.299,1.144-7.207C10.352,19.484,12.182,16.885,11.866,15.963z"/>
	</g>
</g>
</svg>
