<?xml version="1.0" encoding="utf-8"?>
<!-- Generator: Adobe Illustrator 16.0.4, SVG Export Plug-In . SVG Version: 6.00 Build 0)  -->
<!DOCTYPE svg PUBLIC "-//W3C//DTD SVG 1.1//EN" "http://www.w3.org/Graphics/SVG/1.1/DTD/svg11.dtd">
<svg version="1.1" fill="rgb(0, 14, 156)" xmlns="http://www.w3.org/2000/svg" xmlns:xlink="http://www.w3.org/1999/xlink" x="0px" y="0px"
	 width="19.82px" height="32px" viewBox="0 0 19.82 32" enable-background="new 0 0 19.82 32" xml:space="preserve">
<g id="Fondo_1_" display="none">
	<rect id="Fondo" x="-480.056" y="-1659.593" display="inline" fill="#FB6E92" width="1000" height="2438.351"/>
</g>
<g id="Guias" display="none">
</g>
<g id="Icons">
	<g display="none" opacity="0.2">
		<path display="inline" fill="#FFFFFF" d="M-70.046-183.072c-11.282,3.636-35.885,28.281-38.51,36.153
			c-2.621,7.851,12.064,36.154,18.865,37.705c6.793,1.59,56.584-20.436,58.153-28.284
			C-29.966-145.369-58.764-186.751-70.046-183.072z"/>
		<path display="inline" fill="#FFFFFF" d="M32.922-263.23c-10.498,0.494-88.546,59.726-88.033,69.146
			c0.519,9.423,29.359,46.629,37.729,47.951c8.363,1.301,70.221-78.341,72.307-88.814C57.01-245.443,43.394-263.77,32.922-263.23z"
			/>
		<path display="inline" fill="#FFFFFF" d="M347.857-549.675c-10.933-15.145-35.498-16.26-56.115-3.016
			c-7.87-4.009-17.023-7.233-27.767-9.215c0,0-391.394,317.515-477.854,378.833c0,0-3.302,7.003-8.776,18.407
			c98.109,68.715,86.957,120.568,86.957,120.568c-27.148-66.916-95.885-102.037-95.904-102.037
			c-24.626,50.7-68.835,139.308-92.309,172.115c0,0-0.04,18.015,22.025,29.479c0,0,150.072-101.023,193.329-109.639
			c0,0,23.883-23.283,60.697-58.922c-20.121,10.308-43.197,20.062-52.827,20.659c-16.772,1.053-36.153-39.437-34.583-53.776
			c1.569-14.338,153.521-139.574,176.038-137.984c22.54,1.57,29.875,22.518,30.414,37.725c0.205,6.548-13.655,26.546-30.414,48.012
			C154.026-307.134,296.95-442.308,337.851-472.306c0,0,0.414-10.661-3.14-24.688C352.399-512.343,358.412-535.007,347.857-549.675z
			 M-267.547,32.922c0,0-2.542-32.479-33.638-43.818C-301.185-10.896-248.957-34.531-267.547,32.922z"/>
	</g>
	<path display="none" opacity="0.5" fill="#71C8EA" enable-background="new    " d="M1301-233.415l3.333,3.333
		c0,0,17-13.666,32.5-11.833c0,0,21-27.999,50-37.833c0,0,17.667-9.834,7.167-30.667s-24.327-12.937-31.167-8
		c-9.583,6.916-39.771,40.322-51.5,56.333C1311.333-262.082,1314.833-245.748,1301-233.415z"/>
	<path d="M15.838,15.199c0,0,4.04,0.879,3.981,0.533c-0.546-3.212-8.104-7.216-8.104-7.216s3.721,0.117,3.696-0.214
		c-0.021-0.331-5.296-9.478-13.224-8.176C-2.575,0.909,1.5,11.668,4.392,12.711c0.271,0.098,2.631-3.555,2.631-3.555
		s-1.73,5.972-0.355,9.739c0.102,0.275,2.772-2.559,2.772-2.559S8.115,20.34,8.516,21.17c1.042,2.156,4.763,4.904,4.763,4.904
		s-0.782,3.365-0.568,3.77C12.924,30.247,14.677,32,15.151,32c0.474,0,2.701-3.318,2.678-3.793c-0.022-0.473-0.853-3.91-0.853-3.91
		s2.844-2.914,2.844-3.482C19.82,18.729,15.838,15.199,15.838,15.199z M3.824,3.61c9.526,0,11.872,24.387,11.872,24.387
		C9.911,5.317,3.824,3.61,3.824,3.61z"/>
</g>
</svg>
