<?xml version="1.0" encoding="utf-8"?>
<!-- Generator: Adobe Illustrator 16.0.4, SVG Export Plug-In . SVG Version: 6.00 Build 0)  -->
<!DOCTYPE svg PUBLIC "-//W3C//DTD SVG 1.1//EN" "http://www.w3.org/Graphics/SVG/1.1/DTD/svg11.dtd">
<svg version="1.1" fill="rgb(0, 14, 156)" xmlns="http://www.w3.org/2000/svg" xmlns:xlink="http://www.w3.org/1999/xlink" x="0px" y="0px"
	 width="30.291px" height="32px" viewBox="0 0 30.291 32" enable-background="new 0 0 30.291 32" xml:space="preserve">
<g id="Fondo_1_" display="none">
	<rect id="Fondo" x="-526.817" y="-1659.594" display="inline" fill="#FB6E92" width="1000" height="2438.351"/>
</g>
<g id="Guias" display="none">
</g>
<g id="Icons">
	<g display="none" opacity="0.2">
		<path display="inline" fill="#FFFFFF" d="M-116.808-183.073c-11.282,3.636-35.885,28.281-38.51,36.153
			c-2.621,7.851,12.065,36.154,18.865,37.705c6.793,1.59,56.584-20.436,58.154-28.284
			C-76.728-145.37-105.525-186.752-116.808-183.073z"/>
		<path display="inline" fill="#FFFFFF" d="M-13.839-263.231c-10.498,0.494-88.546,59.726-88.034,69.146
			c0.519,9.423,29.36,46.629,37.729,47.951c8.363,1.301,70.221-78.341,72.307-88.814C10.249-245.444-3.367-263.771-13.839-263.231z"
			/>
		<path display="inline" fill="#FFFFFF" d="M301.097-549.676c-10.933-15.146-35.498-16.26-56.115-3.016
			c-7.871-4.009-17.023-7.233-27.768-9.215c0,0-391.393,317.515-477.854,378.833c0,0-3.302,7.003-8.776,18.407
			c98.109,68.715,86.957,120.568,86.957,120.568c-27.149-66.916-95.885-102.037-95.905-102.037
			c-24.626,50.7-68.835,139.308-92.308,172.115c0,0-0.04,18.016,22.025,29.48c0,0,150.072-101.024,193.329-109.639
			c0,0,23.883-23.283,60.697-58.922c-20.121,10.308-43.197,20.062-52.827,20.659c-16.772,1.053-36.153-39.437-34.583-53.776
			c1.57-14.338,153.521-139.574,176.038-137.984c22.54,1.57,29.875,22.518,30.414,37.725c0.205,6.548-13.655,26.546-30.414,48.012
			c113.26-108.669,256.184-243.843,297.086-273.841c0,0,0.414-10.661-3.14-24.688C305.638-512.344,311.65-535.008,301.097-549.676z
			 M-314.309,32.921c0,0-2.542-32.478-33.638-43.818C-347.946-10.897-295.718-34.532-314.309,32.921z"/>
	</g>
	<path display="none" opacity="0.5" fill="#71C8EA" enable-background="new    " d="M1254.238-233.416l3.333,3.333
		c0,0,17-13.666,32.5-11.833c0,0,21-27.999,50-37.833c0,0,17.667-9.834,7.167-30.667s-24.327-12.937-31.167-8
		c-9.583,6.916-39.771,40.322-51.5,56.333C1264.571-262.083,1268.071-245.749,1254.238-233.416z"/>
	<path d="M30.024,16.023c-1.643-3.283-10.793-5.416-10.793-5.416s3.447-0.328,4.268-1.642s4.011-6.355-1.98-8.042
		C11.025-2.031,6.922,2.893,6.43,4.698c-0.492,1.805-0.82,4.924,0,5.745c0.82,0.82,3.775,1.148,3.775,1.148
		s-8.207,3.118-9.684,6.072c-1.478,2.955,0.328,11.144,3.61,12.948c3.282,1.805,17.562,2.152,21.009-0.803
		C28.587,26.855,31.146,18.264,30.024,16.023z M9.381,5.341c-0.058-1.176,2.539-2.259,5.8-2.417c3.259-0.159,5.95,0.664,6.007,1.841
		c0.059,1.176-2.539,2.259-5.799,2.418C12.128,7.342,9.438,6.518,9.381,5.341z"/>
</g>
</svg>
