<?xml version="1.0" encoding="utf-8"?>
<!-- Generator: Adobe Illustrator 16.0.4, SVG Export Plug-In . SVG Version: 6.00 Build 0)  -->
<!DOCTYPE svg PUBLIC "-//W3C//DTD SVG 1.1//EN" "http://www.w3.org/Graphics/SVG/1.1/DTD/svg11.dtd">
<svg version="1.1" fill="rgb(0, 14, 156)" xmlns="http://www.w3.org/2000/svg" xmlns:xlink="http://www.w3.org/1999/xlink" x="0px" y="0px"
	 width="32px" height="31.516px" viewBox="0 0 32 31.516" enable-background="new 0 0 32 31.516" xml:space="preserve">
<g id="Fondo_1_" display="none">
	<rect id="Fondo" x="-577.804" y="-1659.837" display="inline" fill="#FB6E92" width="1000" height="2438.351"/>
</g>
<g id="Guias" display="none">
</g>
<g id="Icons">
	<g display="none" opacity="0.2">
		<path display="inline" fill="#FFFFFF" d="M-167.795-183.316c-11.282,3.636-35.885,28.28-38.51,36.152
			c-2.621,7.852,12.065,36.154,18.865,37.705c6.793,1.59,56.584-20.436,58.154-28.284
			C-127.715-145.614-156.513-186.995-167.795-183.316z"/>
		<path display="inline" fill="#FFFFFF" d="M-64.826-263.475c-10.498,0.494-88.546,59.726-88.034,69.146
			c0.519,9.423,29.36,46.629,37.729,47.951c8.363,1.301,70.221-78.341,72.307-88.813C-40.738-245.688-54.354-264.014-64.826-263.475
			z"/>
		<path display="inline" fill="#FFFFFF" d="M250.107-549.919c-10.932-15.145-35.498-16.26-56.114-3.016
			c-7.87-4.009-17.022-7.233-27.767-9.215c0,0-391.394,317.515-477.854,378.833c0,0-3.302,7.003-8.776,18.406
			c98.109,68.716,86.957,120.568,86.957,120.568c-27.148-66.916-95.885-102.037-95.905-102.037
			C-353.978-95.68-398.187-7.073-421.66,25.735c0,0-0.04,18.015,22.025,29.479c0,0,150.072-101.023,193.329-109.639
			c0,0,23.883-23.283,60.697-58.922c-20.121,10.308-43.197,20.062-52.827,20.659c-16.772,1.053-36.153-39.438-34.583-53.776
			c1.57-14.338,153.521-139.574,176.038-137.984c22.54,1.57,29.875,22.519,30.414,37.726c0.205,6.548-13.655,26.546-30.414,48.012
			c113.26-108.668,256.184-243.842,297.086-273.84c0,0,0.414-10.661-3.141-24.688C254.65-512.587,260.663-535.251,250.107-549.919z
			 M-365.296,32.678c0,0-2.542-32.479-33.638-43.818C-398.934-11.141-346.705-34.775-365.296,32.678z"/>
	</g>
	<path display="none" opacity="0.5" fill="#71C8EA" enable-background="new    " d="M1203.251-233.659l3.333,3.333
		c0,0,17-13.666,32.5-11.833c0,0,21-27.999,50-37.833c0,0,17.667-9.834,7.167-30.667s-24.327-12.937-31.167-8
		c-9.583,6.916-39.771,40.322-51.5,56.333C1213.584-262.326,1217.084-245.992,1203.251-233.659z"/>
	<g>
		<path d="M27.704,4.673c1.098,1.424,2.495,6.397-1.263,7.945c0,0-4.346,0.931-5.09,2.607c-0.746,1.676,2.143,4.656,2.143,4.656
			s2.328,1.771-0.373,3.261c-2.7,1.489-2.03,3.778-0.598,6.08c1.021-0.58,2.004-1.269,2.933-2.069C28.16,24.816,32,21.373,32,16.405
			C32,9.996,28.604,5.699,27.704,4.673z"/>
		<path d="M25.282,2.595c-5.566-4.265-13.03-3.094-19.148,2.193c-1.632,1.41-2.945,3.038-3.936,4.782
			c0.08-0.053,4.093-2.692,6.859,0.812c2.794,3.539,7.823,5.312,9.779-1.813C20.721,1.703,23.984,1.671,25.282,2.595z"/>
		<path d="M15.111,23.329c-3.167-1.49-2.98,1.024-5.588,0.56c-2.608-0.467-2.515-4.006-2.515-4.006s0.093-4.528-3.167-3.567
			c-3.251,0.958-3.13-3.28-3.129-3.303c-1.472,4.805-0.688,9.969,2.584,13.757c3.495,4.046,8.959,5.515,14.252,4.37
			C17.55,31.134,18.275,24.818,15.111,23.329z"/>
	</g>
</g>
</svg>
