<?xml version="1.0" encoding="utf-8"?>
<!-- Generator: Adobe Illustrator 16.0.4, SVG Export Plug-In . SVG Version: 6.00 Build 0)  -->
<!DOCTYPE svg PUBLIC "-//W3C//DTD SVG 1.1//EN" "http://www.w3.org/Graphics/SVG/1.1/DTD/svg11.dtd">
<svg version="1.1" fill="rgb(0, 14, 156)" xmlns="http://www.w3.org/2000/svg" xmlns:xlink="http://www.w3.org/1999/xlink" x="0px" y="0px"
	 width="26.262px" height="32px" viewBox="0 0 26.262 32" enable-background="new 0 0 26.262 32" xml:space="preserve">
<g id="Fondo_1_" display="none">
	<rect id="Fondo" x="-632.829" y="-1659.594" display="inline" fill="#FB6E92" width="1000" height="2438.351"/>
</g>
<g id="Guias" display="none">
</g>
<g id="Icons">
	<g display="none" opacity="0.2">
		<path display="inline" fill="#FFFFFF" d="M-222.819-183.073c-11.282,3.636-35.885,28.281-38.51,36.153
			c-2.621,7.851,12.064,36.154,18.865,37.705c6.793,1.59,56.584-20.436,58.153-28.284
			C-182.739-145.37-211.537-186.752-222.819-183.073z"/>
		<path display="inline" fill="#FFFFFF" d="M-119.851-263.231c-10.498,0.494-88.546,59.726-88.033,69.146
			c0.519,9.423,29.359,46.629,37.729,47.951c8.363,1.301,70.221-78.341,72.307-88.814
			C-95.763-245.444-109.379-263.771-119.851-263.231z"/>
		<path display="inline" fill="#FFFFFF" d="M195.084-549.676c-10.933-15.146-35.498-16.26-56.115-3.016
			c-7.87-4.009-17.023-7.233-27.767-9.215c0,0-391.394,317.515-477.854,378.833c0,0-3.302,7.003-8.775,18.407
			c98.108,68.715,86.956,120.568,86.956,120.568c-27.148-66.916-95.885-102.037-95.904-102.037
			c-24.626,50.699-68.835,139.307-92.309,172.115c0,0-0.04,18.015,22.025,29.479c0,0,150.072-101.024,193.329-109.639
			c0,0,23.883-23.283,60.697-58.922c-20.121,10.308-43.197,20.062-52.827,20.659c-16.772,1.053-36.153-39.437-34.583-53.776
			c1.569-14.338,153.521-139.574,176.038-137.984c22.54,1.57,29.875,22.518,30.414,37.725c0.204,6.548-13.655,26.546-30.414,48.012
			c113.26-108.668,256.184-243.842,297.086-273.84c0,0,0.414-10.661-3.141-24.688C199.626-512.344,205.639-535.008,195.084-549.676z
			 M-420.32,32.921c0,0-2.542-32.478-33.638-43.818C-453.958-10.897-401.729-34.532-420.32,32.921z"/>
	</g>
	<path display="none" opacity="0.5" fill="#71C8EA" enable-background="new    " d="M1148.227-233.416l3.334,3.333
		c0,0,17-13.666,32.5-11.833c0,0,21-27.999,50-37.833c0,0,17.666-9.834,7.166-30.667s-24.326-12.937-31.166-8
		c-9.584,6.916-39.771,40.322-51.5,56.333C1158.561-262.083,1162.061-245.749,1148.227-233.416z"/>
	<path d="M18.638,12.78c2.368,0.985,5.455-1.021,6.896-4.48c1.438-3.46,0.685-7.064-1.685-8.049s-5.455,1.02-6.895,4.48
		c-0.434,1.04-0.663,2.091-0.717,3.081l-7.772,6.267c-0.367-0.617-0.873-1.095-1.511-1.36c-2.16-0.898-4.977,0.931-6.288,4.088
		c-1.312,3.154-0.625,6.44,1.535,7.34c1.756,0.729,3.942-0.34,5.404-2.461l7.004,4.203c-0.424,2.678,0.436,5.084,2.304,5.86
		c2.369,0.985,5.455-1.021,6.895-4.479c1.44-3.459,0.686-7.064-1.684-8.049c-2.245-0.936-5.133,0.82-6.653,3.952l-6.714-3.854
		c0.262-0.826,0.39-1.646,0.393-2.418l7.667-5.913C17.227,11.812,17.837,12.447,18.638,12.78z"/>
</g>
</svg>
