<?xml version="1.0" encoding="utf-8"?>
<!-- Generator: Adobe Illustrator 16.0.4, SVG Export Plug-In . SVG Version: 6.00 Build 0)  -->
<!DOCTYPE svg PUBLIC "-//W3C//DTD SVG 1.1//EN" "http://www.w3.org/Graphics/SVG/1.1/DTD/svg11.dtd">
<svg version="1.1" fill="rgb(0, 14, 156)" xmlns="http://www.w3.org/2000/svg" xmlns:xlink="http://www.w3.org/1999/xlink" x="0px" y="0px"
	 width="28.546px" height="32px" viewBox="0 0 28.546 32" enable-background="new 0 0 28.546 32" xml:space="preserve">
<g id="Fondo_1_" display="none">
	<rect id="Fondo" x="-683.685" y="-1659.522" display="inline" fill="#FB6E92" width="1000.001" height="2438.351"/>
</g>
<g id="Guias" display="none">
</g>
<g id="Icons">
	<g display="none" opacity="0.2">
		<path display="inline" fill="#FFFFFF" d="M-273.676-183.002c-11.282,3.636-35.885,28.281-38.51,36.153
			c-2.621,7.851,12.065,36.154,18.865,37.705c6.793,1.59,56.584-20.436,58.154-28.284
			C-233.596-145.299-262.394-186.681-273.676-183.002z"/>
		<path display="inline" fill="#FFFFFF" d="M-170.707-263.16c-10.498,0.494-88.546,59.726-88.034,69.146
			c0.519,9.423,29.36,46.629,37.729,47.951c8.363,1.301,70.221-78.341,72.307-88.814
			C-146.619-245.373-160.235-263.699-170.707-263.16z"/>
		<path display="inline" fill="#FFFFFF" d="M144.228-549.604c-10.932-15.145-35.498-16.26-56.115-3.016
			c-7.869-4.009-17.023-7.233-27.767-9.215c0,0-391.393,317.515-477.854,378.833c0,0-3.302,7.003-8.776,18.407
			c98.109,68.715,86.957,120.568,86.957,120.568c-27.149-66.916-95.885-102.037-95.905-102.037
			c-24.626,50.7-68.835,139.307-92.308,172.115c0,0-0.04,18.016,22.025,29.48c0,0,150.072-101.024,193.329-109.639
			c0,0,23.883-23.283,60.697-58.922c-20.121,10.308-43.197,20.062-52.827,20.659c-16.772,1.053-36.153-39.437-34.583-53.776
			c1.57-14.338,153.521-139.574,176.038-137.984c22.54,1.57,29.875,22.518,30.414,37.725c0.205,6.548-13.655,26.546-30.414,48.012
			C-49.602-307.063,93.322-442.237,134.225-472.235c0,0,0.414-10.661-3.14-24.688C148.77-512.272,154.783-534.937,144.228-549.604z
			 M-471.177,32.992c0,0-2.542-32.478-33.638-43.818C-504.814-10.826-452.586-34.461-471.177,32.992z"/>
	</g>
	<path display="none" opacity="0.5" fill="#71C8EA" enable-background="new    " d="M1097.371-233.345l3.332,3.333
		c0,0,17-13.666,32.5-11.833c0,0,21-27.999,50-37.833c0,0,17.668-9.834,7.168-30.667c-10.5-20.833-24.328-12.938-31.168-8
		c-9.582,6.916-39.771,40.322-51.5,56.333C1107.703-262.012,1111.203-245.678,1097.371-233.345z"/>
	<path d="M25.501,6.476c-3.057-3.576-7.729-5.031-12.32-4.309c-1.438-2.2-4.523-2.836-7.034-1.393
		c-2.477,1.422-3.49,4.344-2.391,6.68c-4.651,5.358-5.092,13.09-0.711,18.215c3.084,3.608,7.815,5.056,12.445,4.286
		c1.473,2.102,4.49,2.688,6.954,1.271c2.456-1.41,3.476-4.297,2.421-6.623C29.445,19.247,29.858,11.573,25.501,6.476z M20.89,12.725
		c-1.512,0.095-4.346-3.684-5.762-1.417c-0.628,1.004,3.205,3.501,4.156,4.65c0.93,1.125,2.646,5.826-2.929,8.668
		C11.539,27.082,7.05,23.25,6.25,21.698c-0.794-1.539-0.791-3.778,1.605-3.778c1.417,0,5.945,5.137,7.417,1.38
		c1.272-3.247-8.25-4.051-4.111-10.259c2.078-3.117,8.217-3.684,11.334,0.661C23.234,10.731,22.401,12.63,20.89,12.725z"/>
</g>
</svg>
