<?xml version="1.0" encoding="utf-8"?>
<!-- Generator: Adobe Illustrator 16.0.4, SVG Export Plug-In . SVG Version: 6.00 Build 0)  -->
<!DOCTYPE svg PUBLIC "-//W3C//DTD SVG 1.1//EN" "http://www.w3.org/Graphics/SVG/1.1/DTD/svg11.dtd">
<svg version="1.1" fill="rgb(0, 14, 156)" xmlns="http://www.w3.org/2000/svg" xmlns:xlink="http://www.w3.org/1999/xlink" x="0px" y="0px"
	 width="27.48px" height="32px" viewBox="0 0 27.48 32" enable-background="new 0 0 27.48 32" xml:space="preserve">
<g id="Fondo_1_" display="none">
	<rect id="Fondo" x="-736.213" y="-1659.594" display="inline" fill="#FB6E92" width="1000" height="2438.351"/>
</g>
<g id="Guias" display="none">
</g>
<g id="Icons">
	<g display="none" opacity="0.2">
		<path display="inline" fill="#FFFFFF" d="M-326.204-183.073c-11.282,3.636-35.885,28.281-38.51,36.153
			c-2.621,7.851,12.064,36.154,18.864,37.705c6.793,1.59,56.584-20.436,58.154-28.284
			C-286.124-145.37-314.922-186.752-326.204-183.073z"/>
		<path display="inline" fill="#FFFFFF" d="M-223.235-263.231c-10.498,0.494-88.546,59.726-88.034,69.146
			c0.52,9.423,29.36,46.629,37.729,47.951c8.363,1.301,70.221-78.341,72.307-88.814
			C-199.147-245.444-212.764-263.771-223.235-263.231z"/>
		<path display="inline" fill="#FFFFFF" d="M91.699-549.676c-10.933-15.146-35.498-16.26-56.115-3.016
			c-7.87-4.009-17.023-7.233-27.768-9.215c0,0-391.393,317.515-477.854,378.833c0,0-3.302,7.003-8.776,18.407
			c98.109,68.715,86.957,120.568,86.957,120.568c-27.148-66.916-95.885-102.037-95.904-102.037
			c-24.627,50.699-68.836,139.307-92.309,172.115c0,0-0.04,18.015,22.025,29.479c0,0,150.071-101.024,193.329-109.639
			c0,0,23.883-23.283,60.696-58.922c-20.121,10.308-43.196,20.062-52.827,20.659c-16.771,1.053-36.152-39.437-34.583-53.776
			c1.57-14.338,153.521-139.574,176.038-137.984c22.54,1.57,29.875,22.518,30.414,37.725c0.205,6.548-13.654,26.546-30.414,48.012
			C-102.13-307.135,40.794-442.309,81.696-472.307c0,0,0.414-10.661-3.14-24.688C96.241-512.344,102.254-535.008,91.699-549.676z
			 M-523.705,32.921c0,0-2.542-32.478-33.638-43.818C-557.343-10.897-505.114-34.532-523.705,32.921z"/>
	</g>
	<path display="none" opacity="0.5" fill="#71C8EA" enable-background="new    " d="M1044.842-233.416l3.333,3.333
		c0,0,17-13.666,32.5-11.833c0,0,21-27.999,50-37.833c0,0,17.667-9.834,7.167-30.667s-24.327-12.937-31.167-8
		c-9.583,6.916-39.771,40.322-51.5,56.333C1055.175-262.083,1058.675-245.749,1044.842-233.416z"/>
	<path d="M27.194,2.355C14.795-3.472,1.031,3.224,0.163,4.216c-0.868,0.991,1.983,21.45,2.729,22.442s9.051,5.58,10.291,5.332
		s10.54-3.969,11.035-5.084C24.714,25.791,28.545,2.99,27.194,2.355z M21.622,9.68c-0.868,0.495-12.725,0.606-12.987,1.008
		c-0.265,0.402-0.047,1.674,0.216,1.844c0.265,0.17,12.245,0.249,12.771,0.744c0.525,0.494-0.991,10.06-1.363,10.416
		c-0.373,0.354-6.882,4.248-7.564,4.216c-0.682-0.032-7.129-4.943-7.314-5.456c-0.187-0.514-0.278-2.649,0-2.977
		c0.279-0.326,3.534-0.51,3.844,0c0.311,0.512-0.03,2.047,0.372,2.232s6.665,0.188,6.944-0.124c0.277-0.312,0.558-5.036,0.247-5.519
		c-0.312-0.481-10.709,0.343-11.159,0c-0.45-0.342-1.611-7.253-0.868-8.245c0.744-0.992,16.987-4.34,17.855-3.596
		C23.483,4.967,22.49,9.184,21.622,9.68z"/>
</g>
</svg>
