<?xml version="1.0" encoding="utf-8"?>
<!-- Generator: Adobe Illustrator 16.0.4, SVG Export Plug-In . SVG Version: 6.00 Build 0)  -->
<!DOCTYPE svg PUBLIC "-//W3C//DTD SVG 1.1//EN" "http://www.w3.org/Graphics/SVG/1.1/DTD/svg11.dtd">
<svg version="1.1" fill="rgb(0, 14, 156)" xmlns="http://www.w3.org/2000/svg" xmlns:xlink="http://www.w3.org/1999/xlink" x="0px" y="0px"
	 width="32px" height="26.086px" viewBox="0 0 32 26.086" enable-background="new 0 0 32 26.086" xml:space="preserve">
<g id="Fondo_1_" display="none">
	<rect id="Fondo" x="-785.951" y="-1662.479" display="inline" fill="#FB6E92" width="1000" height="2438.351"/>
</g>
<g id="Guias" display="none">
</g>
<g id="Icons">
	<g display="none" opacity="0.2">
		<path display="inline" fill="#FFFFFF" d="M-375.941-185.958c-11.282,3.636-35.885,28.281-38.51,36.153
			c-2.621,7.851,12.065,36.154,18.865,37.705c6.793,1.59,56.584-20.436,58.154-28.284
			C-335.861-148.255-364.659-189.637-375.941-185.958z"/>
		<path display="inline" fill="#FFFFFF" d="M-272.973-266.116c-10.498,0.494-88.546,59.726-88.034,69.146
			c0.519,9.423,29.36,46.629,37.729,47.951c8.363,1.301,70.221-78.341,72.307-88.814
			C-248.885-248.329-262.501-266.655-272.973-266.116z"/>
		<path display="inline" fill="#FFFFFF" d="M41.962-552.561c-10.933-15.145-35.498-16.26-56.115-3.016
			c-7.87-4.009-17.023-7.233-27.767-9.215c0,0-391.393,317.515-477.854,378.833c0,0-3.302,7.003-8.776,18.407
			c98.109,68.715,86.957,120.568,86.957,120.568c-27.149-66.916-95.885-102.037-95.905-102.037
			C-562.124-98.32-606.333-9.713-629.806,23.095c0,0-0.04,18.015,22.025,29.479c0,0,150.072-101.024,193.329-109.639
			c0,0,23.883-23.283,60.697-58.922c-20.121,10.308-43.197,20.062-52.827,20.659c-16.772,1.053-36.153-39.437-34.583-53.776
			c1.57-14.338,153.521-139.574,176.038-137.984c22.54,1.57,29.875,22.518,30.414,37.725c0.205,6.548-13.655,26.546-30.414,48.012
			C-151.867-310.02-8.943-445.193,31.959-475.191c0,0,0.414-10.661-3.141-24.688C46.504-515.229,52.518-537.893,41.962-552.561z
			 M-573.442,30.036c0,0-2.542-32.478-33.638-43.818C-607.08-13.782-554.852-37.417-573.442,30.036z"/>
	</g>
	<path display="none" opacity="0.5" fill="#71C8EA" enable-background="new    " d="M995.104-236.301l3.334,3.333
		c0,0,17-13.666,32.5-11.833c0,0,21-27.999,50-37.833c0,0,17.666-9.834,7.166-30.667s-24.326-12.938-31.166-8
		c-9.584,6.916-39.771,40.322-51.5,56.333C1005.438-264.968,1008.938-248.634,995.104-236.301z"/>
	<path d="M31.938,0.011C31.109-0.404-0.165,11.625,0.001,12.537c0.062,0.341,3.326,2.01,7.436,3.961
		C7.44,16.497,28.62,2.5,29.201,2.831c0.58,0.332-16.06,15.693-16.276,16.212c-0.216,0.521-1.31,3.945-1.642,3.945
		s-2.932-4.3-3.208-4.201c-0.276,0.096,2.379,7.203,2.876,7.299c0,0,5.31-5.295,5.641-5.42c0.332-0.125,7.549,3.069,7.549,3.069
		C24.971,23.57,32.768,0.426,31.938,0.011z"/>
</g>
</svg>
