<?xml version="1.0" encoding="utf-8"?>
<!-- Generator: Adobe Illustrator 16.0.4, SVG Export Plug-In . SVG Version: 6.00 Build 0)  -->
<!DOCTYPE svg PUBLIC "-//W3C//DTD SVG 1.1//EN" "http://www.w3.org/Graphics/SVG/1.1/DTD/svg11.dtd">
<svg version="1.1" fill="rgb(0, 14, 156)" xmlns="http://www.w3.org/2000/svg" xmlns:xlink="http://www.w3.org/1999/xlink" x="0px" y="0px"
	 width="25.461px" height="32px" viewBox="0 0 25.461 32" enable-background="new 0 0 25.461 32" xml:space="preserve">
<g id="Fondo_1_" display="none">
	<rect id="Fondo" x="-841.083" y="-1659.522" display="inline" fill="#FB6E92" width="1000" height="2438.351"/>
</g>
<g id="Guias" display="none">
</g>
<g id="Icons">
	<g display="none" opacity="0.2">
		<path display="inline" fill="#FFFFFF" d="M-431.074-183.002c-11.282,3.636-35.885,28.281-38.51,36.153
			c-2.621,7.851,12.065,36.154,18.865,37.705c6.793,1.59,56.584-20.436,58.154-28.284
			C-390.994-145.299-419.792-186.681-431.074-183.002z"/>
		<path display="inline" fill="#FFFFFF" d="M-328.105-263.16c-10.498,0.494-88.546,59.726-88.034,69.146
			c0.519,9.423,29.36,46.629,37.729,47.951c8.363,1.301,70.221-78.341,72.307-88.814
			C-304.018-245.373-317.634-263.699-328.105-263.16z"/>
		<path display="inline" fill="#FFFFFF" d="M-13.171-549.604c-10.932-15.145-35.498-16.26-56.115-3.016
			c-7.87-4.009-17.023-7.233-27.767-9.215c0,0-391.393,317.515-477.854,378.833c0,0-3.302,7.003-8.776,18.407
			c98.109,68.715,86.957,120.568,86.957,120.568c-27.149-66.916-95.885-102.037-95.905-102.037
			C-617.257-95.365-661.466-6.757-684.939,26.05c0,0-0.04,18.015,22.025,29.479c0,0,150.072-101.023,193.329-109.638
			c0,0,23.883-23.283,60.697-58.922c-20.121,10.308-43.197,20.062-52.827,20.659c-16.772,1.053-36.153-39.437-34.583-53.776
			c1.57-14.338,153.521-139.574,176.038-137.984c22.54,1.57,29.875,22.518,30.414,37.725c0.205,6.548-13.655,26.546-30.414,48.012
			C-207-307.063-64.076-442.237-23.174-472.235c0,0,0.414-10.661-3.14-24.688C-8.629-512.272-2.616-534.937-13.171-549.604z
			 M-628.575,32.992c0,0-2.542-32.478-33.638-43.818C-662.213-10.826-609.984-34.461-628.575,32.992z"/>
	</g>
	<path display="none" opacity="0.5" fill="#71C8EA" enable-background="new    " d="M939.971-233.345l3.334,3.333
		c0,0,17-13.666,32.5-11.833c0,0,21-27.999,50-37.833c0,0,17.666-9.834,7.166-30.667c-10.5-20.833-24.326-12.938-31.166-8
		c-9.584,6.916-39.771,40.322-51.5,56.333C950.305-262.012,953.805-245.678,939.971-233.345z"/>
	<path d="M24.89,0.294C23.817-1.03,0.606,2.501,0.103,3.321C-0.4,4.141,1.049,30.189,2.374,31.324
		c1.324,1.136,22.138,0.631,22.517,0C25.269,30.693,25.961,1.618,24.89,0.294z M12.385,2.154c0.3-0.249,0.699-0.266,0.891-0.035
		c0.189,0.229,0.102,0.619-0.198,0.869c-0.301,0.249-0.7,0.265-0.892,0.035C11.995,2.794,12.084,2.403,12.385,2.154z M13.459,31.055
		c-0.771,0.477-1.722,0.334-2.124-0.318c-0.403-0.651-0.105-1.565,0.666-2.043c0.771-0.476,1.722-0.332,2.124,0.318
		C14.528,29.664,14.23,30.578,13.459,31.055z M21.825,26.42c-0.346,0.525-15.328,0.947-16.535,0
		C4.081,25.473,2.759,7.736,3.219,7.052c0.46-0.684,17.629-3.632,18.606-2.527C22.803,5.63,22.17,25.895,21.825,26.42z"/>
</g>
</svg>
