<?xml version="1.0" encoding="utf-8"?>
<!-- Generator: Adobe Illustrator 16.0.4, SVG Export Plug-In . SVG Version: 6.00 Build 0)  -->
<!DOCTYPE svg PUBLIC "-//W3C//DTD SVG 1.1//EN" "http://www.w3.org/Graphics/SVG/1.1/DTD/svg11.dtd">
<svg version="1.1" fill="rgb(0, 14, 156)" xmlns="http://www.w3.org/2000/svg" xmlns:xlink="http://www.w3.org/1999/xlink" x="0px" y="0px"
	 width="30.843px" height="32px" viewBox="0 0 30.843 32" enable-background="new 0 0 30.843 32" xml:space="preserve">
<g id="Fondo_1_" display="none">
	<rect id="Fondo" x="-110.549" y="-1723.522" display="inline" fill="#FB6E92" width="1000" height="2438.351"/>
</g>
<g id="Guias" display="none">
</g>
<g id="Icons">
	<g display="none" opacity="0.2">
		<path display="inline" fill="#FFFFFF" d="M299.46-247.002c-11.283,3.636-35.885,28.281-38.51,36.153
			c-2.621,7.851,12.064,36.154,18.864,37.705c6.793,1.59,56.585-20.436,58.153-28.284
			C339.541-209.299,310.742-250.681,299.46-247.002z"/>
		<path display="inline" fill="#FFFFFF" d="M402.429-327.16c-10.498,0.494-88.547,59.726-88.035,69.146
			c0.52,9.423,29.361,46.629,37.73,47.951c8.363,1.301,70.221-78.341,72.307-88.814C426.517-309.373,412.9-327.699,402.429-327.16z"
			/>
		<path display="inline" fill="#FFFFFF" d="M717.363-613.604c-10.932-15.145-35.498-16.26-56.115-3.016
			c-7.869-4.009-17.023-7.233-27.768-9.215c0,0-391.393,317.515-477.854,378.833c0,0-3.301,7.003-8.775,18.407
			c98.109,68.715,86.957,120.568,86.957,120.568c-27.148-66.916-95.885-102.037-95.905-102.037
			c-24.626,50.7-68.835,139.307-92.307,172.115c0,0-0.04,18.015,22.024,29.48c0,0,150.072-101.024,193.33-109.639
			c0,0,23.883-23.283,60.697-58.922c-20.122,10.308-43.197,20.062-52.828,20.659c-16.771,1.053-36.152-39.437-34.583-53.776
			c1.57-14.338,153.521-139.574,176.038-137.984c22.541,1.57,29.875,22.518,30.414,37.725c0.205,6.548-13.654,26.546-30.414,48.012
			c113.26-108.669,256.184-243.843,297.086-273.841c0,0,0.414-10.661-3.141-24.688C721.906-576.272,727.917-598.937,717.363-613.604
			z M101.958-31.008c0,0-2.541-32.478-33.638-43.818C68.321-74.826,120.55-98.461,101.958-31.008z"/>
	</g>
	<path display="none" opacity="0.5" fill="#71C8EA" enable-background="new    " d="M1670.505-297.345l3.334,3.333
		c0,0,17-13.666,32.5-11.833c0,0,21-27.999,50-37.833c0,0,17.666-9.834,7.166-30.667c-10.5-20.833-24.326-12.938-31.166-8
		c-9.584,6.916-39.771,40.322-51.5,56.333C1680.839-326.012,1684.339-309.678,1670.505-297.345z"/>
	<g>
		<path d="M5.792,20.867c-0.307,0.578,0.426,8.26,0.71,11.109c4.091,0.133,11-0.319,15.703-1.312
			c0.342-3.478,1.209-12.772,0.75-13.294C22.389,16.73,6.17,20.156,5.792,20.867z"/>
		<path d="M30.562,1.771c-1.35-1.268-4.061-1.776-7.33-1.771c-0.268,3.303-1.113,12.924-1.908,13.596
			c-0.959,0.813-14.41,3.177-15,2.404C5.814,15.334,6.182,5.712,6.293,3.049C3.356,4.066,1.138,5.196,0.411,6.206
			c-1.617,2.245,2.006,24.879,2.882,25.349c0.323,0.172,1.053,0.295,2.066,0.367c-0.287-2.51-1.264-11.336-0.884-11.971
			c0.443-0.738,19.51-4.296,20.175-3.631c0.549,0.549-0.512,10.51-0.898,13.977c1.474-0.4,2.592-0.867,3.117-1.402
			C28.076,27.662,31.9,3.029,30.562,1.771z"/>
		<path d="M12.826,11.231c0.287-0.401,0.751-7.165,0.945-10.176c-1.468,0.293-2.912,0.635-4.279,1.009
			c-0.181,2.852-0.579,9.615-0.288,9.906C9.575,12.34,12.456,11.748,12.826,11.231z"/>
	</g>
</g>
</svg>
