<?xml version="1.0" encoding="utf-8"?>
<!-- Generator: Adobe Illustrator 16.0.4, SVG Export Plug-In . SVG Version: 6.00 Build 0)  -->
<!DOCTYPE svg PUBLIC "-//W3C//DTD SVG 1.1//EN" "http://www.w3.org/Graphics/SVG/1.1/DTD/svg11.dtd">
<svg version="1.1" fill="rgb(0, 14, 156)" xmlns="http://www.w3.org/2000/svg" xmlns:xlink="http://www.w3.org/1999/xlink" x="0px" y="0px"
	 width="27.447px" height="32px" viewBox="0 0 27.447 32" enable-background="new 0 0 27.447 32" xml:space="preserve">
<g id="Fondo_1_" display="none">
	<rect id="Fondo" x="-164.243" y="-1723.25" display="inline" fill="#FB6E92" width="1000" height="2438.352"/>
</g>
<g id="Guias" display="none">
</g>
<g id="Icons">
	<g display="none" opacity="0.2">
		<path display="inline" fill="#FFFFFF" d="M245.767-246.729c-11.282,3.636-35.886,28.281-38.511,36.153
			c-2.62,7.851,12.065,36.154,18.865,37.705c6.793,1.59,56.584-20.436,58.154-28.284
			C285.847-209.026,257.049-250.408,245.767-246.729z"/>
		<path display="inline" fill="#FFFFFF" d="M348.735-326.888c-10.498,0.494-88.546,59.726-88.034,69.146
			c0.52,9.423,29.36,46.629,37.729,47.951c8.362,1.301,70.221-78.341,72.307-88.814
			C372.823-309.101,359.207-327.427,348.735-326.888z"/>
		<path display="inline" fill="#FFFFFF" d="M663.67-613.332c-10.932-15.145-35.498-16.26-56.115-3.016
			c-7.87-4.009-17.022-7.233-27.767-9.215c0,0-391.393,317.515-477.854,378.833c0,0-3.303,7.003-8.776,18.407
			c98.109,68.715,86.957,120.568,86.957,120.568C152.966-174.67,84.23-209.791,84.21-209.791
			C59.584-159.092,15.375-70.484-8.098-37.677c0,0-0.04,18.015,22.024,29.48c0,0,150.072-101.024,193.329-109.639
			c0,0,23.884-23.283,60.697-58.922c-20.121,10.308-43.197,20.062-52.827,20.659c-16.771,1.053-36.152-39.437-34.583-53.776
			c1.57-14.338,153.521-139.574,176.038-137.984c22.54,1.57,29.875,22.518,30.414,37.725c0.205,6.548-13.655,26.546-30.414,48.012
			c113.258-108.669,256.182-243.843,297.084-273.841c0,0,0.414-10.661-3.14-24.688C668.212-576,674.224-598.664,663.67-613.332z
			 M48.266-30.735c0,0-2.542-32.478-33.639-43.818C14.628-74.554,66.856-98.188,48.266-30.735z"/>
	</g>
	<path display="none" opacity="0.5" fill="#71C8EA" enable-background="new    " d="M1616.812-297.072l3.332,3.333
		c0,0,17-13.666,32.5-11.833c0,0,21-27.999,50-37.833c0,0,17.668-9.834,7.168-30.667c-10.5-20.833-24.327-12.937-31.168-8
		c-9.582,6.916-39.771,40.322-51.5,56.333C1627.146-325.739,1630.646-309.405,1616.812-297.072z"/>
	<g>
		<path d="M5.382,15.107c-0.497,0.438-0.942,0.912-1.344,1.413c-0.194-0.126-0.707-0.412-1.145-0.228
			c-0.714,0.304-2.969,5.646-2.893,6.451c0.033,0.339,0.5,0.575,1.03,0.739c-0.178,1.033-0.209,1.841-0.154,2.226
			c0.184,1.269,1.686,4.748,6.543,3.808c2.404-0.466,3.464-13.467,2.811-14.409C9.578,14.167,6.348,14.259,5.382,15.107z"/>
		<path d="M24.646,18.324c-0.169-0.09-0.354-0.1-0.526-0.066c-0.476-1.062-1.063-2.043-1.792-2.844
			c-0.865-0.951-3.827,0.539-4.581,1.4c-0.755,0.862-1.488,13.021,0.754,14.283c4.689,2.642,7.007-1.24,7.331-2.479
			c0.077-0.297,0.118-0.989,0.088-1.919c0.648-0.154,1.312-0.425,1.367-0.884C27.396,24.9,25.349,18.702,24.646,18.324z"/>
		<path d="M25.349,17.409c0.213,0.323,1.236,0.483,1.561,0.269C27.233,17.462,30.81,0,14.048,0C-1.259,0,0.45,14.893,0.853,15.107
			c0.401,0.216,0.885,0.232,1.209,0C2.385,14.875,0.716,1.734,13.597,1.778C29.174,1.832,25.135,17.085,25.349,17.409z"/>
	</g>
</g>
</svg>
