<?xml version="1.0" encoding="utf-8"?>
<!-- Generator: Adobe Illustrator 16.0.4, SVG Export Plug-In . SVG Version: 6.00 Build 0)  -->
<!DOCTYPE svg PUBLIC "-//W3C//DTD SVG 1.1//EN" "http://www.w3.org/Graphics/SVG/1.1/DTD/svg11.dtd">
<svg version="1.1" fill="rgb(0, 14, 156)" xmlns="http://www.w3.org/2000/svg" xmlns:xlink="http://www.w3.org/1999/xlink" x="0px" y="0px"
	 width="32px" height="28.641px" viewBox="0 0 32 28.641" enable-background="new 0 0 32 28.641" xml:space="preserve">
<g id="Fondo_1_" display="none">
	<rect id="Fondo" x="-213.346" y="-1725.037" display="inline" fill="#FB6E92" width="1000" height="2438.352"/>
</g>
<g id="Guias" display="none">
</g>
<g id="Icons">
	<g display="none" opacity="0.2">
		<path display="inline" fill="#FFFFFF" d="M196.663-248.517c-11.282,3.637-35.886,28.281-38.511,36.153
			c-2.62,7.851,12.065,36.154,18.865,37.705c6.793,1.59,56.584-20.436,58.154-28.284
			C236.743-210.813,207.945-252.195,196.663-248.517z"/>
		<path display="inline" fill="#FFFFFF" d="M299.632-328.675c-10.498,0.493-88.546,59.726-88.034,69.146
			c0.52,9.423,29.36,46.629,37.729,47.951c8.362,1.301,70.221-78.341,72.307-88.814C323.72-310.888,310.104-329.214,299.632-328.675
			z"/>
		<path display="inline" fill="#FFFFFF" d="M614.566-615.119c-10.933-15.146-35.498-16.26-56.115-3.016
			c-7.87-4.01-17.023-7.233-27.768-9.216c0,0-391.393,317.516-477.854,378.833c0,0-3.303,7.003-8.776,18.407
			c98.109,68.715,86.957,120.568,86.957,120.568c-27.149-66.916-95.885-102.037-95.905-102.037
			C10.48-160.879-33.729-72.271-57.201-39.464c0,0-0.04,18.015,22.025,29.479c0,0,150.072-101.023,193.328-109.639
			c0,0,23.884-23.283,60.697-58.922c-20.121,10.308-43.197,20.062-52.826,20.659c-16.772,1.053-36.153-39.438-34.584-53.776
			C133.01-226,284.961-351.236,307.478-349.646c22.54,1.57,29.875,22.519,30.414,37.726c0.205,6.548-13.654,26.546-30.414,48.012
			c113.26-108.669,256.184-243.843,297.085-273.841c0,0,0.414-10.661-3.14-24.688C619.108-577.787,625.121-600.451,614.566-615.119z
			 M-0.838-32.522c0,0-2.542-32.478-33.638-43.817C-34.476-76.341,17.753-99.976-0.838-32.522z"/>
	</g>
	<g>
		<path d="M31.934,14.267h0.002c0,0-0.004-0.013-0.008-0.019c-0.023-0.085-0.052-0.158-0.089-0.21
			c-0.754-1.763-5.821-13.521-6.979-13.984C23.605-0.447,5.823,2.684,4.822,3.561C3.915,4.354,0.693,17.15,0.096,19.548
			c-0.011,0.015-0.027,0.029-0.033,0.042c-0.036,0.079-0.054,0.193-0.06,0.331C0.001,19.929,0,19.935,0,19.935l0.003-0.002
			c-0.064,1.812,2.253,8.084,3.065,8.549c0.876,0.501,25.046-0.251,25.922-1.253C29.802,26.301,32.454,16.225,31.934,14.267z
			 M22.455,13.488c-0.296,1.979-0.801,4.75-1.354,5.226c-0.875,0.752-11.146,2.755-12.021,2.188
			c-0.542-0.351-1.755-4.069-1.755-4.069l-4.512,0.853c0,0,2.048-11.832,2.713-12.414c0.937-0.82,17.583-3.752,18.756-3.283
			c0.792,0.317,4.872,10.443,4.872,10.443S25.475,13.111,22.455,13.488z"/>
		<polygon points="4.383,15.395 24.173,12.449 24.173,10.383 4.383,13.944 		"/>
		<polygon points="4.759,12.057 25.859,8.692 25.859,6.627 4.759,10.606 		"/>
		<polygon points="22.982,3.245 5.886,6.807 5.886,8.256 22.982,5.312 		"/>
	</g>
</g>
</svg>
