<?xml version="1.0" encoding="utf-8"?>
<!-- Generator: Adobe Illustrator 16.0.4, SVG Export Plug-In . SVG Version: 6.00 Build 0)  -->
<!DOCTYPE svg PUBLIC "-//W3C//DTD SVG 1.1//EN" "http://www.w3.org/Graphics/SVG/1.1/DTD/svg11.dtd">
<svg version="1.1" fill="rgb(0, 14, 156)" xmlns="http://www.w3.org/2000/svg" xmlns:xlink="http://www.w3.org/1999/xlink" x="0px" y="0px"
	 width="32px" height="28.641px" viewBox="0 0 32 28.641" enable-background="new 0 0 32 28.641" xml:space="preserve">
<g id="Fondo_1_" display="none">
	<rect id="Fondo" x="-265.715" y="-1725.111" display="inline" fill="#FB6E92" width="1000" height="2438.352"/>
</g>
<g id="Guias" display="none">
</g>
<g id="Icons">
	<g display="none" opacity="0.2">
		<path display="inline" fill="#FFFFFF" d="M144.294-248.591c-11.282,3.636-35.885,28.28-38.51,36.152
			c-2.621,7.852,12.065,36.154,18.864,37.705c6.793,1.59,56.584-20.436,58.154-28.284
			C184.375-210.888,155.577-252.27,144.294-248.591z"/>
		<path display="inline" fill="#FFFFFF" d="M247.264-328.749c-10.498,0.494-88.547,59.726-88.035,69.146
			c0.52,9.423,29.36,46.629,37.729,47.951c8.362,1.301,70.222-78.341,72.308-88.813
			C271.352-310.962,257.734-329.288,247.264-328.749z"/>
		<path display="inline" fill="#FFFFFF" d="M562.198-615.193c-10.933-15.145-35.498-16.26-56.115-3.016
			c-7.87-4.009-17.023-7.233-27.767-9.215c0,0-391.394,317.515-477.854,378.833c0,0-3.302,7.003-8.776,18.406
			c98.109,68.716,86.957,120.568,86.957,120.568c-27.148-66.916-95.885-102.037-95.905-102.037
			c-24.626,50.7-68.835,139.307-92.308,172.115c0,0-0.04,18.015,22.025,29.479c0,0,150.072-101.023,193.329-109.639
			c0,0,23.883-23.283,60.696-58.922c-20.121,10.308-43.196,20.062-52.826,20.659c-16.772,1.053-36.153-39.438-34.584-53.776
			c1.57-14.338,153.521-139.574,176.039-137.983c22.539,1.569,29.875,22.518,30.414,37.725c0.205,6.548-13.655,26.546-30.414,48.012
			c113.258-108.669,256.182-243.843,297.084-273.841c0,0,0.414-10.661-3.141-24.688C566.74-577.861,572.752-600.525,562.198-615.193
			z M-53.207-32.597c0,0-2.542-32.478-33.638-43.817C-86.844-76.415-34.616-100.05-53.207-32.597z"/>
	</g>
	<path d="M31.934,14.267h0.002c0,0-0.004-0.013-0.008-0.019c-0.023-0.085-0.052-0.158-0.089-0.21
		c-0.754-1.763-5.821-13.521-6.979-13.984C23.605-0.447,5.823,2.684,4.822,3.561C3.915,4.354,0.693,17.15,0.096,19.549
		c-0.011,0.014-0.027,0.028-0.033,0.041c-0.036,0.079-0.054,0.193-0.06,0.331C0.001,19.929,0,19.935,0,19.935l0.003-0.002
		c-0.064,1.812,2.253,8.084,3.065,8.549c0.876,0.501,25.046-0.251,25.922-1.253C29.802,26.301,32.454,16.225,31.934,14.267z
		 M22.455,13.488c-0.296,1.979-0.801,4.75-1.354,5.226c-0.875,0.752-11.146,2.755-12.021,2.188
		c-0.542-0.351-1.755-4.069-1.755-4.069l-4.512,0.853c0,0,2.048-11.832,2.713-12.414c0.938-0.82,17.583-3.752,18.756-3.283
		c0.792,0.317,4.872,10.443,4.872,10.443S25.475,13.111,22.455,13.488z"/>
</g>
</svg>
