<?xml version="1.0" encoding="utf-8"?>
<!-- Generator: Adobe Illustrator 16.0.4, SVG Export Plug-In . SVG Version: 6.00 Build 0)  -->
<!DOCTYPE svg PUBLIC "-//W3C//DTD SVG 1.1//EN" "http://www.w3.org/Graphics/SVG/1.1/DTD/svg11.dtd">
<svg version="1.1" fill="rgb(0, 14, 156)" xmlns="http://www.w3.org/2000/svg" xmlns:xlink="http://www.w3.org/1999/xlink" x="0px" y="0px"
	 width="29.23px" height="32px" viewBox="0 0 29.23 32" enable-background="new 0 0 29.23 32" xml:space="preserve">
<g id="Fondo_1_" display="none">
	<rect id="Fondo" x="-319.735" y="-1723.521" display="inline" fill="#FB6E92" width="1000" height="2438.352"/>
</g>
<g id="Guias" display="none">
</g>
<g id="Icons">
	<g display="none" opacity="0.2">
		<path display="inline" fill="#FFFFFF" d="M90.274-247.001c-11.281,3.636-35.885,28.281-38.51,36.153
			c-2.621,7.851,12.065,36.154,18.865,37.705c6.793,1.59,56.584-20.436,58.154-28.284
			C130.354-209.298,101.557-250.68,90.274-247.001z"/>
		<path display="inline" fill="#FFFFFF" d="M193.243-327.159c-10.498,0.494-88.547,59.726-88.034,69.146
			c0.519,9.423,29.359,46.629,37.729,47.951c8.363,1.301,70.222-78.341,72.308-88.814
			C217.331-309.372,203.715-327.698,193.243-327.159z"/>
		<path display="inline" fill="#FFFFFF" d="M508.178-613.604c-10.932-15.145-35.498-16.26-56.114-3.016
			c-7.87-4.009-17.023-7.233-27.768-9.215c0,0-391.394,317.515-477.854,378.833c0,0-3.302,7.003-8.775,18.407
			c98.108,68.715,86.957,120.568,86.957,120.568c-27.149-66.916-95.886-102.037-95.905-102.037
			C-95.908-159.365-140.117-70.757-163.59-37.95c0,0-0.04,18.015,22.024,29.48c0,0,150.072-101.024,193.329-109.639
			c0,0,23.883-23.283,60.697-58.922c-20.121,10.308-43.197,20.062-52.827,20.659c-16.772,1.053-36.153-39.437-34.583-53.776
			c1.57-14.338,153.521-139.574,176.038-137.984c22.54,1.57,29.875,22.518,30.414,37.725c0.205,6.548-13.655,26.546-30.414,48.012
			c113.258-108.669,256.183-243.843,297.084-273.841c0,0,0.414-10.661-3.14-24.688C512.72-576.271,518.733-598.936,508.178-613.604z
			 M-107.227-31.007c0,0-2.542-32.478-33.638-43.818C-140.864-74.825-88.635-98.46-107.227-31.007z"/>
	</g>
	<path display="none" opacity="0.5" fill="#71C8EA" enable-background="new    " d="M1461.321-297.344l3.333,3.333
		c0,0,17-13.666,32.5-11.833c0,0,21-27.999,50-37.833c0,0,17.667-9.834,7.167-30.667s-24.327-12.938-31.167-8
		c-9.583,6.916-39.771,40.322-51.5,56.333C1471.654-326.011,1475.154-309.677,1461.321-297.344z"/>
	<path d="M16.663,3.527C15.847,2.899,6.169-0.18,5.353,0.009C4.538,0.198,0.39,3.779,0.076,4.47
		c-0.313,0.691,0.438,9.738,0.502,10.618c0.062,0.88,11.458,16.592,12.716,16.907c1.258,0.313,15.745-10.938,15.935-11.881
		C29.418,19.172,17.479,4.155,16.663,3.527z M5.596,9.427c-0.479-2.132,0.45-4.159,2.075-4.522C9.295,4.54,11,5.974,11.479,8.107
		c0.479,2.133-0.45,4.158-2.074,4.523C7.78,12.995,6.075,11.561,5.596,9.427z M8.634,18.424l9.923-7.697l2.079,2.683l-9.922,7.696
		L8.634,18.424z M14.481,26.038l-2.08-2.682l9.924-7.697l2.079,2.681L14.481,26.038z"/>
</g>
</svg>
