<?xml version="1.0" encoding="utf-8"?>
<!-- Generator: Adobe Illustrator 16.0.4, SVG Export Plug-In . SVG Version: 6.00 Build 0)  -->
<!DOCTYPE svg PUBLIC "-//W3C//DTD SVG 1.1//EN" "http://www.w3.org/Graphics/SVG/1.1/DTD/svg11.dtd">
<svg version="1.1" fill="rgb(0, 14, 156)" xmlns="http://www.w3.org/2000/svg" xmlns:xlink="http://www.w3.org/1999/xlink" x="0px" y="0px"
	 width="32px" height="22.432px" viewBox="0 0 32 22.432" enable-background="new 0 0 32 22.432" xml:space="preserve">
<g id="Fondo_1_" display="none">
	<rect id="Fondo" x="-369.965" y="-1728.307" display="inline" fill="#FB6E92" width="1000" height="2438.351"/>
</g>
<g id="Guias" display="none">
</g>
<g id="Icons">
	<g display="none" opacity="0.2">
		<path display="inline" fill="#FFFFFF" d="M40.044-251.786c-11.282,3.637-35.885,28.281-38.51,36.153
			c-2.621,7.851,12.065,36.154,18.864,37.705c6.793,1.59,56.584-20.437,58.154-28.284C80.124-214.083,51.326-255.465,40.044-251.786
			z"/>
		<path display="inline" fill="#FFFFFF" d="M143.014-331.944c-10.498,0.493-88.547,59.726-88.035,69.146
			c0.52,9.423,29.36,46.629,37.729,47.951c8.362,1.301,70.222-78.341,72.308-88.814
			C167.102-314.157,153.484-332.483,143.014-331.944z"/>
		<path display="inline" fill="#FFFFFF" d="M457.947-618.389c-10.933-15.146-35.498-16.26-56.115-3.017
			c-7.87-4.009-17.023-7.232-27.767-9.215c0,0-391.394,317.516-477.854,378.833c0,0-3.302,7.003-8.776,18.407
			c98.109,68.715,86.957,120.568,86.957,120.568c-27.149-66.916-95.885-102.037-95.905-102.037
			c-24.626,50.699-68.835,139.307-92.308,172.114c0,0-0.04,18.015,22.025,29.479c0,0,150.072-101.023,193.329-109.639
			c0,0,23.883-23.283,60.697-58.922c-20.121,10.308-43.197,20.062-52.828,20.658c-16.772,1.054-36.153-39.437-34.583-53.775
			c1.57-14.338,153.521-139.574,176.038-137.984c22.541,1.57,29.875,22.519,30.414,37.726c0.205,6.548-13.654,26.546-30.414,48.012
			c113.261-108.668,256.185-243.841,297.087-273.84c0,0,0.414-10.661-3.141-24.688C462.489-581.057,468.502-603.721,457.947-618.389
			z M-157.457-35.792c0,0-2.542-32.478-33.638-43.817C-191.095-79.61-138.866-103.245-157.457-35.792z"/>
	</g>
	<path display="none" opacity="0.5" fill="#71C8EA" enable-background="new    " d="M1411.09-302.129l3.333,3.333
		c0,0,17-13.666,32.5-11.833c0,0,21-27.999,50-37.833c0,0,17.667-9.834,7.167-30.667s-24.327-12.937-31.167-8
		c-9.583,6.916-39.771,40.322-51.5,56.333C1421.423-330.796,1424.923-314.462,1411.09-302.129z"/>
	<g>
		<path d="M19.016,21.225c0.688-2.211-0.217-4.458-2.018-5.019c-1.803-0.561-3.82,0.778-4.507,2.99
			c-0.357,1.148-0.282,2.307,0.123,3.233c1.872-0.062,3.933-0.255,6.157-0.581C18.864,21.649,18.948,21.443,19.016,21.225z"/>
		<path d="M31.991,14.754c-0.29-4.548-4.599-4.26-5.565-3.29c0,0,2.42-3.39-0.389-5.81C23.23,3.237,20.52,5.461,19.648,7.3
			c0,0,2.178-7.938-5.711-7.26C6.5,0.68,3.775,6.43,5.711,12.237c0,0-5.711-0.773-5.711,4.646c0,2.674,2.38,4.496,6.669,5.221
			l-0.095-1.358l2.284-0.494v0.002c0.062-0.686,0.216-1.376,0.467-2.054l-0.001,0.002l-1.372-2.022l1.104-1.85l2.249,0.856
			c0.467-0.441,0.98-0.815,1.527-1.119l-0.003,0.001l0.385-2.772l2.681-0.703l0.886,2.581l-0.006,0.002
			c0.68,0.053,1.355,0.206,2.015,0.479l1.829-1.459l2.486,1.944l-1.188,2.159l-0.001-0.001c0.396,0.632,0.694,1.325,0.883,2.06
			v-0.002l2.196,0.643l0.113,1.645c0.117-0.026,0.23-0.052,0.348-0.078C25.457,20.562,32.282,19.306,31.991,14.754z"/>
	</g>
</g>
</svg>
