<?xml version="1.0" encoding="utf-8"?>
<!-- Generator: Adobe Illustrator 16.0.4, SVG Export Plug-In . SVG Version: 6.00 Build 0)  -->
<!DOCTYPE svg PUBLIC "-//W3C//DTD SVG 1.1//EN" "http://www.w3.org/Graphics/SVG/1.1/DTD/svg11.dtd">
<svg version="1.1" fill="rgb(0, 14, 156)" xmlns="http://www.w3.org/2000/svg" xmlns:xlink="http://www.w3.org/1999/xlink" x="0px" y="0px"
	 width="32px" height="22.453px" viewBox="0 0 32 22.453" enable-background="new 0 0 32 22.453" xml:space="preserve">
<g id="Fondo_1_" display="none">
	<rect id="Fondo" x="-473.966" y="-1728.131" display="inline" fill="#FB6E92" width="1000" height="2438.351"/>
</g>
<g id="Guias" display="none">
</g>
<g id="Icons">
	<g display="none" opacity="0.2">
		<path display="inline" fill="#FFFFFF" d="M-63.957-251.61c-11.282,3.636-35.885,28.281-38.51,36.153
			c-2.621,7.851,12.065,36.154,18.865,37.705c6.793,1.59,56.584-20.436,58.154-28.284C-23.876-213.907-52.674-255.289-63.957-251.61
			z"/>
		<path display="inline" fill="#FFFFFF" d="M39.012-331.769c-10.498,0.494-88.546,59.726-88.034,69.146
			c0.519,9.423,29.36,46.629,37.729,47.951c8.363,1.301,70.221-78.341,72.307-88.814C63.1-313.981,49.484-332.308,39.012-331.769z"
			/>
		<path display="inline" fill="#FFFFFF" d="M353.947-618.213c-10.933-15.145-35.498-16.26-56.115-3.016
			c-7.87-4.009-17.023-7.233-27.768-9.215c0,0-391.393,317.515-477.854,378.833c0,0-3.302,7.003-8.776,18.407
			c98.109,68.715,86.957,120.568,86.957,120.568c-27.149-66.916-95.885-102.037-95.905-102.037
			c-24.626,50.699-68.835,139.307-92.308,172.114c0,0-0.04,18.015,22.025,29.48c0,0,150.072-101.024,193.329-109.639
			c0,0,23.883-23.283,60.697-58.922c-20.121,10.308-43.197,20.062-52.827,20.659c-16.772,1.053-36.153-39.437-34.583-53.776
			c1.57-14.338,153.521-139.574,176.038-137.984c22.541,1.57,29.875,22.518,30.414,37.725c0.205,6.548-13.654,26.546-30.414,48.012
			C160.116-375.673,303.04-510.847,343.942-540.845c0,0,0.414-10.661-3.141-24.688C358.489-580.881,364.501-603.545,353.947-618.213
			z M-261.458-35.616c0,0-2.542-32.478-33.638-43.818C-295.095-79.435-242.867-103.069-261.458-35.616z"/>
	</g>
	<path display="none" opacity="0.5" fill="#71C8EA" enable-background="new    " d="M1307.089-301.953l3.333,3.333
		c0,0,17-13.666,32.5-11.833c0,0,21-27.999,50-37.833c0,0,17.667-9.834,7.167-30.667s-24.327-12.937-31.167-8
		c-9.583,6.916-39.771,40.322-51.5,56.333C1317.422-330.62,1320.922-314.286,1307.089-301.953z"/>
	<path d="M31.991,14.753c-0.29-4.548-4.599-4.259-5.565-3.291c0,0,2.42-3.389-0.388-5.809C23.23,3.236,20.52,5.461,19.648,7.3
		c0,0,2.178-7.938-5.71-7.26C6.5,0.68,3.774,6.43,5.711,12.236c0,0-5.711-0.773-5.711,4.646c0,5.422,9.775,7.357,25.458,3.678
		C25.458,20.561,32.282,19.305,31.991,14.753z M16.388,19.3c-0.645-0.006-1.295-0.127-1.917-0.354l1.079-1.813
		c0.363,0.08,0.729,0.107,1.085,0.076L16.388,19.3z M21.387,13.285c-0.279,0.143-4.672-0.51-4.732-0.775
		c-0.023-0.104,0.625-0.747,1.443-1.499c-1.389-1.411-3.46-1.707-4.811-0.619c-1.453,1.172-1.519,3.503-0.144,5.207
		c0.376,0.467,0.822,0.836,1.3,1.104l-1.311,1.549c-0.485-0.334-0.933-0.742-1.324-1.229c-2.025-2.514-1.78-6.069,0.548-7.947
		c2.126-1.714,5.251-1.433,7.322,0.541c0.844-0.715,1.562-1.273,1.658-1.24C21.588,8.461,21.667,13.143,21.387,13.285z"/>
</g>
</svg>
