<?xml version="1.0" encoding="utf-8"?>
<!-- Generator: Adobe Illustrator 16.0.4, SVG Export Plug-In . SVG Version: 6.00 Build 0)  -->
<!DOCTYPE svg PUBLIC "-//W3C//DTD SVG 1.1//EN" "http://www.w3.org/Graphics/SVG/1.1/DTD/svg11.dtd">
<svg version="1.1" fill="rgb(0, 14, 156)" xmlns="http://www.w3.org/2000/svg" xmlns:xlink="http://www.w3.org/1999/xlink" x="0px" y="0px"
	 width="32px" height="22.453px" viewBox="0 0 32 22.453" enable-background="new 0 0 32 22.453" xml:space="preserve">
<g id="Fondo_1_" display="none">
	<rect id="Fondo" x="-525.962" y="-1727.199" display="inline" fill="#FB6E92" width="1000" height="2438.351"/>
</g>
<g id="Guias" display="none">
</g>
<g id="Icons">
	<g display="none" opacity="0.2">
		<path display="inline" fill="#FFFFFF" d="M-115.953-250.679c-11.282,3.636-35.885,28.281-38.51,36.153
			c-2.621,7.851,12.065,36.154,18.865,37.705c6.793,1.59,56.584-20.436,58.154-28.284
			C-75.873-212.976-104.671-254.357-115.953-250.679z"/>
		<path display="inline" fill="#FFFFFF" d="M-12.984-330.837c-10.498,0.494-88.546,59.726-88.034,69.146
			c0.519,9.423,29.36,46.629,37.729,47.951c8.363,1.301,70.221-78.341,72.307-88.814C11.104-313.05-2.513-331.376-12.984-330.837z"
			/>
		<path display="inline" fill="#FFFFFF" d="M301.95-617.281c-10.933-15.145-35.498-16.26-56.115-3.016
			c-7.87-4.009-17.022-7.233-27.767-9.215c0,0-391.394,317.515-477.854,378.833c0,0-3.302,7.003-8.776,18.407
			c98.109,68.715,86.957,120.568,86.957,120.568c-27.149-66.916-95.885-102.037-95.905-102.037
			c-24.626,50.699-68.835,139.307-92.308,172.114c0,0-0.04,18.015,22.025,29.48c0,0,150.072-101.024,193.329-109.639
			c0,0,23.883-23.283,60.697-58.922c-20.121,10.308-43.197,20.062-52.827,20.659c-16.772,1.053-36.153-39.437-34.583-53.776
			c1.57-14.338,153.521-139.574,176.038-137.984c22.54,1.57,29.875,22.518,30.415,37.725c0.205,6.548-13.655,26.546-30.415,48.012
			c113.26-108.668,256.184-243.842,297.086-273.84c0,0,0.414-10.661-3.141-24.688C306.492-579.949,312.505-602.613,301.95-617.281z
			 M-313.454-34.685c0,0-2.542-32.478-33.638-43.818C-347.092-78.503-294.863-102.138-313.454-34.685z"/>
	</g>
	<path display="none" opacity="0.5" fill="#71C8EA" enable-background="new    " d="M1255.093-301.021l3.333,3.333
		c0,0,17-13.666,32.5-11.833c0,0,21-27.999,50-37.833c0,0,17.667-9.834,7.167-30.667s-24.327-12.937-31.167-8
		c-9.583,6.916-39.771,40.322-51.5,56.333C1265.426-329.688,1268.926-313.354,1255.093-301.021z"/>
	<g>
		<path d="M31.991,14.753c-0.29-4.548-4.599-4.259-5.565-3.291c0,0,2.42-3.389-0.388-5.809C23.23,3.236,20.52,5.461,19.648,7.3
			c0,0,2.179-7.938-5.71-7.26C6.501,0.68,3.774,6.43,5.712,12.236c0,0-5.712-0.773-5.712,4.646c0,5.422,9.776,7.357,25.458,3.678
			C25.458,20.561,32.282,19.305,31.991,14.753z M20.198,19.292c-0.146,0-2.79-3.498-2.79-3.498c-2.18,1.246-5.026,0.363-6.359-1.971
			c-1.332-2.333-0.646-5.233,1.534-6.479c2.179-1.244,5.026-0.362,6.358,1.971c0.97,1.697,0.869,3.691-0.094,5.135l0.002-0.002
			c0,0,2.789,2.98,2.78,3.096C21.622,17.66,20.344,19.292,20.198,19.292z"/>
		<ellipse transform="matrix(-0.8684 0.4959 -0.4959 -0.8684 33.8749 13.9604)" cx="15.085" cy="11.476" rx="3.419" ry="3.661"/>
	</g>
</g>
</svg>
