<?xml version="1.0" encoding="utf-8"?>
<!-- Generator: Adobe Illustrator 16.0.4, SVG Export Plug-In . SVG Version: 6.00 Build 0)  -->
<!DOCTYPE svg PUBLIC "-//W3C//DTD SVG 1.1//EN" "http://www.w3.org/Graphics/SVG/1.1/DTD/svg11.dtd">
<svg version="1.1" fill="rgb(0, 14, 156)" xmlns="http://www.w3.org/2000/svg" xmlns:xlink="http://www.w3.org/1999/xlink" x="0px" y="0px"
	 width="32px" height="22.453px" viewBox="0 0 32 22.453" enable-background="new 0 0 32 22.453" xml:space="preserve">
<g id="Fondo_1_" display="none">
	<rect id="Fondo" x="-577.961" y="-1728.131" display="inline" fill="#FB6E92" width="1000" height="2438.351"/>
</g>
<g id="Guias" display="none">
</g>
<g id="Icons">
	<g display="none" opacity="0.2">
		<path display="inline" fill="#FFFFFF" d="M-167.952-251.61c-11.282,3.636-35.885,28.281-38.51,36.153
			c-2.621,7.851,12.065,36.154,18.865,37.705c6.793,1.59,56.584-20.436,58.154-28.284
			C-127.872-213.907-156.67-255.289-167.952-251.61z"/>
		<path display="inline" fill="#FFFFFF" d="M-64.983-331.769c-10.498,0.494-88.546,59.726-88.034,69.146
			c0.519,9.423,29.36,46.629,37.729,47.951c8.363,1.301,70.221-78.341,72.307-88.814C-40.896-313.981-54.512-332.308-64.983-331.769
			z"/>
		<path display="inline" fill="#FFFFFF" d="M249.951-618.213c-10.932-15.145-35.498-16.26-56.115-3.016
			c-7.87-4.009-17.023-7.233-27.768-9.215c0,0-391.393,317.515-477.854,378.833c0,0-3.302,7.003-8.776,18.407
			c98.109,68.715,86.957,120.568,86.957,120.568c-27.149-66.916-95.885-102.037-95.905-102.037
			c-24.626,50.699-68.835,139.307-92.308,172.114c0,0-0.04,18.015,22.025,29.48c0,0,150.072-101.024,193.329-109.639
			c0,0,23.883-23.283,60.697-58.922c-20.121,10.308-43.197,20.062-52.827,20.659c-16.772,1.053-36.153-39.437-34.583-53.776
			c1.57-14.338,153.521-139.574,176.038-137.984c22.54,1.57,29.875,22.518,30.414,37.725c0.205,6.548-13.655,26.546-30.414,48.012
			c113.26-108.668,256.184-243.842,297.086-273.84c0,0,0.413-10.661-3.14-24.688C254.493-580.881,260.506-603.545,249.951-618.213z
			 M-365.453-35.616c0,0-2.542-32.478-33.638-43.818C-399.091-79.435-346.862-103.069-365.453-35.616z"/>
	</g>
	<path display="none" opacity="0.5" fill="#71C8EA" enable-background="new    " d="M1203.094-301.953l3.333,3.333
		c0,0,17-13.666,32.5-11.833c0,0,21-27.999,50-37.833c0,0,17.667-9.834,7.167-30.667s-24.327-12.937-31.167-8
		c-9.583,6.916-39.771,40.322-51.5,56.333C1213.427-330.62,1216.927-314.286,1203.094-301.953z"/>
	<path d="M31.991,14.753c-0.29-4.548-4.599-4.259-5.565-3.291c0,0,2.42-3.389-0.388-5.809C23.23,3.236,20.52,5.461,19.648,7.3
		c0,0,2.179-7.938-5.71-7.26C6.501,0.68,3.774,6.43,5.712,12.236c0,0-5.712-0.773-5.712,4.646c0,5.422,9.776,7.357,25.458,3.678
		C25.458,20.561,32.282,19.305,31.991,14.753z M20.223,11.779c-0.082,0.189-1.382,0.557-2.945,0.848l1.02,6.283l-4.111,0.576
		l0.789-6.523c-1.434,0.146-2.717,0.133-3.164-0.219c-0.448-0.352,3.307-7.128,4.044-7.194C16.594,5.486,20.415,11.33,20.223,11.779
		z"/>
</g>
</svg>
