<?xml version="1.0" encoding="utf-8"?>
<!-- Generator: Adobe Illustrator 16.0.4, SVG Export Plug-In . SVG Version: 6.00 Build 0)  -->
<!DOCTYPE svg PUBLIC "-//W3C//DTD SVG 1.1//EN" "http://www.w3.org/Graphics/SVG/1.1/DTD/svg11.dtd">
<svg version="1.1" fill="rgb(0, 14, 156)" xmlns="http://www.w3.org/2000/svg" xmlns:xlink="http://www.w3.org/1999/xlink" x="0px" y="0px"
	 width="32px" height="22.453px" viewBox="0 0 32 22.453" enable-background="new 0 0 32 22.453" xml:space="preserve">
<g id="Fondo_1_" display="none">
	<rect id="Fondo" x="-629.959" y="-1728.131" display="inline" fill="#FB6E92" width="1000" height="2438.351"/>
</g>
<g id="Guias" display="none">
</g>
<g id="Icons">
	<g display="none" opacity="0.2">
		<path display="inline" fill="#FFFFFF" d="M-219.95-251.61c-11.282,3.636-35.885,28.281-38.51,36.153
			c-2.621,7.851,12.065,36.154,18.865,37.705c6.793,1.59,56.584-20.436,58.154-28.284
			C-179.87-213.907-208.668-255.289-219.95-251.61z"/>
		<path display="inline" fill="#FFFFFF" d="M-116.981-331.769c-10.498,0.494-88.546,59.726-88.034,69.146
			c0.519,9.423,29.36,46.629,37.729,47.951c8.363,1.301,70.221-78.341,72.307-88.814
			C-92.894-313.981-106.51-332.308-116.981-331.769z"/>
		<path display="inline" fill="#FFFFFF" d="M197.953-618.213c-10.932-15.145-35.498-16.26-56.115-3.016
			c-7.87-4.009-17.023-7.233-27.768-9.215c0,0-391.393,317.515-477.854,378.833c0,0-3.302,7.003-8.776,18.407
			c98.109,68.715,86.957,120.568,86.957,120.568c-27.149-66.916-95.885-102.037-95.905-102.037
			c-24.626,50.699-68.835,139.307-92.308,172.114c0,0-0.04,18.015,22.025,29.48c0,0,150.072-101.024,193.329-109.639
			c0,0,23.883-23.283,60.697-58.922c-20.121,10.308-43.197,20.062-52.827,20.659c-16.772,1.053-36.153-39.437-34.583-53.776
			c1.57-14.338,153.521-139.574,176.038-137.984c22.54,1.57,29.875,22.518,30.414,37.725c0.205,6.548-13.655,26.546-30.414,48.012
			C4.124-375.672,147.048-510.846,187.95-540.844c0,0,0.413-10.661-3.14-24.688C202.495-580.881,208.508-603.545,197.953-618.213z
			 M-417.451-35.616c0,0-2.542-32.478-33.638-43.818C-451.089-79.435-398.86-103.069-417.451-35.616z"/>
	</g>
	<path display="none" opacity="0.5" fill="#71C8EA" enable-background="new    " d="M1151.096-301.953l3.333,3.333
		c0,0,17-13.666,32.5-11.833c0,0,21-27.999,50-37.833c0,0,17.667-9.834,7.167-30.667s-24.327-12.937-31.167-8
		c-9.583,6.916-39.771,40.322-51.5,56.333C1161.429-330.62,1164.929-314.286,1151.096-301.953z"/>
	<path d="M31.991,14.753c-0.29-4.548-4.599-4.259-5.565-3.291c0,0,2.42-3.389-0.388-5.809C23.23,3.236,20.52,5.461,19.648,7.3
		c0,0,2.179-7.938-5.71-7.26C6.501,0.68,3.774,6.43,5.712,12.236c0,0-5.712-0.773-5.712,4.646c0,5.422,9.776,7.357,25.458,3.678
		C25.458,20.561,32.282,19.305,31.991,14.753z M14.939,19.485c-0.74,0.063-4.561-5.78-4.367-6.229
		c0.081-0.189,1.381-0.557,2.945-0.848l-1.02-6.282l4.11-0.577l-0.789,6.523c1.434-0.145,2.716-0.132,3.164,0.221
		C19.434,12.643,15.678,19.419,14.939,19.485z"/>
</g>
</svg>
