<?xml version="1.0" encoding="utf-8"?>
<!-- Generator: Adobe Illustrator 16.0.4, SVG Export Plug-In . SVG Version: 6.00 Build 0)  -->
<!DOCTYPE svg PUBLIC "-//W3C//DTD SVG 1.1//EN" "http://www.w3.org/Graphics/SVG/1.1/DTD/svg11.dtd">
<svg version="1.1" fill="rgb(0, 14, 156)" xmlns="http://www.w3.org/2000/svg" xmlns:xlink="http://www.w3.org/1999/xlink" x="0px" y="0px"
	 width="32px" height="22.453px" viewBox="0 0 32 22.453" enable-background="new 0 0 32 22.453" xml:space="preserve">
<g id="Fondo_1_" display="none">
	<rect id="Fondo" x="-681.958" y="-1728.132" display="inline" fill="#FB6E92" width="1000" height="2438.35"/>
</g>
<g id="Guias" display="none">
</g>
<g id="Icons">
	<g display="none" opacity="0.2">
		<path display="inline" fill="#FFFFFF" d="M-271.948-251.611c-11.282,3.636-35.885,28.281-38.51,36.153
			c-2.621,7.851,12.065,36.154,18.865,37.705c6.793,1.59,56.584-20.436,58.154-28.284
			C-231.868-213.908-260.666-255.29-271.948-251.611z"/>
		<path display="inline" fill="#FFFFFF" d="M-168.979-331.77c-10.498,0.494-88.546,59.726-88.034,69.146
			c0.519,9.423,29.36,46.629,37.729,47.951c8.363,1.301,70.221-78.341,72.307-88.814
			C-144.892-313.982-158.508-332.309-168.979-331.77z"/>
		<path display="inline" fill="#FFFFFF" d="M145.955-618.214c-10.932-15.145-35.498-16.26-56.115-3.016
			c-7.869-4.009-17.022-7.233-27.766-9.215c0,0-391.394,317.515-477.855,378.833c0,0-3.302,7.003-8.776,18.407
			c98.109,68.715,86.957,120.568,86.957,120.568c-27.149-66.916-95.885-102.037-95.905-102.037
			c-24.626,50.699-68.835,139.307-92.308,172.114c0,0-0.04,18.015,22.025,29.48c0,0,150.072-101.024,193.329-109.639
			c0,0,23.883-23.283,60.697-58.922c-20.121,10.308-43.197,20.062-52.827,20.659c-16.772,1.053-36.153-39.437-34.583-53.776
			c1.57-14.338,153.521-139.574,176.038-137.984c22.54,1.57,29.875,22.518,30.414,37.725c0.205,6.548-13.655,26.546-30.414,48.012
			c113.26-108.668,256.184-243.842,297.086-273.84c0,0,0.414-10.661-3.141-24.688C150.498-580.882,156.509-603.546,145.955-618.214z
			 M-469.449-35.617c0,0-2.542-32.478-33.638-43.818C-503.087-79.436-450.858-103.07-469.449-35.617z"/>
	</g>
	<path display="none" opacity="0.5" fill="#71C8EA" enable-background="new    " d="M1099.097-301.954l3.334,3.333
		c0,0,17-13.666,32.5-11.833c0,0,21-27.999,50-37.833c0,0,17.666-9.834,7.166-30.667s-24.326-12.937-31.166-8
		c-9.584,6.916-39.771,40.322-51.5,56.333C1109.431-330.621,1112.931-314.287,1099.097-301.954z"/>
	<g>
		<path d="M26.425,11.463c0,0,2.42-3.389-0.389-5.809C23.23,3.236,20.519,5.461,19.648,7.3c0,0,2.178-7.938-5.711-7.26
			C6.5,0.68,3.774,6.43,5.711,12.236c0,0-5.711-0.773-5.711,4.646c0,5.422,9.775,7.357,25.457,3.678c0,0,6.824-1.256,6.533-5.807
			C31.701,10.205,27.393,10.494,26.425,11.463z M20.58,14.445l-1.537,0.633l0,0c-0.063,0.182-0.139,0.363-0.227,0.539
			c-0.123,0.25-0.266,0.481-0.42,0.699l0.646,1.127l-0.996,1.049l-1.236-0.76c-0.338,0.186-0.695,0.328-1.062,0.422l-0.291,1.822
			h-1.515l-0.677-1.928c-0.144-0.051-0.286-0.11-0.426-0.18c-0.094-0.048-0.186-0.099-0.273-0.15l-1.204,0.919l-1.204-1.106
			l0.986-1.215c-0.179-0.291-0.322-0.604-0.431-0.932L9.109,14.88v-1.514l1.434-0.207v0.002c0.068-0.422,0.193-0.843,0.378-1.25
			H10.92L10.158,10.6l0.762-1.096l1.354,0.627c0.308-0.253,0.641-0.462,0.991-0.627l0.356-1.698l1.688-0.32l0.438,1.635
			l-0.003,0.001c0.417,0.061,0.83,0.187,1.224,0.382l1.195-0.824l1.455,1.31l-0.828,1.285l0,0c0.219,0.407,0.373,0.85,0.457,1.312
			l0.002-0.002l1.33,0.492V14.445L20.58,14.445z"/>
		<ellipse transform="matrix(-0.9322 -0.362 0.362 -0.9322 23.7559 31.314)" cx="14.811" cy="13.432" rx="2.119" ry="2.599"/>
	</g>
</g>
</svg>
