<?xml version="1.0" encoding="utf-8"?>
<!-- Generator: Adobe Illustrator 16.0.4, SVG Export Plug-In . SVG Version: 6.00 Build 0)  -->
<!DOCTYPE svg PUBLIC "-//W3C//DTD SVG 1.1//EN" "http://www.w3.org/Graphics/SVG/1.1/DTD/svg11.dtd">
<svg version="1.1" fill="rgb(0, 14, 156)" xmlns="http://www.w3.org/2000/svg" xmlns:xlink="http://www.w3.org/1999/xlink" x="0px" y="0px"
	 width="32px" height="26.682px" viewBox="0 0 32 26.682" enable-background="new 0 0 32 26.682" xml:space="preserve">
<g id="Fondo_1_" display="none">
	<rect id="Fondo" x="-733.954" y="-1726.182" display="inline" fill="#FB6E92" width="1000" height="2438.352"/>
</g>
<g id="Guias" display="none">
</g>
<g id="Icons">
	<g display="none" opacity="0.2">
		<path display="inline" fill="#FFFFFF" d="M-323.944-249.661c-11.282,3.636-35.885,28.281-38.51,36.153
			c-2.621,7.851,12.065,36.153,18.865,37.705c6.793,1.59,56.584-20.437,58.154-28.284
			C-283.864-211.958-312.662-253.34-323.944-249.661z"/>
		<path display="inline" fill="#FFFFFF" d="M-220.976-329.819c-10.498,0.494-88.546,59.727-88.034,69.146
			c0.519,9.423,29.36,46.629,37.729,47.95c8.363,1.302,70.221-78.341,72.307-88.813
			C-196.888-312.032-210.504-330.358-220.976-329.819z"/>
		<path display="inline" fill="#FFFFFF" d="M93.959-616.264c-10.932-15.145-35.498-16.26-56.115-3.016
			c-7.869-4.009-17.023-7.232-27.767-9.215c0,0-391.393,317.515-477.854,378.833c0,0-3.302,7.003-8.776,18.407
			c98.109,68.715,86.957,120.567,86.957,120.567c-27.149-66.916-95.885-102.037-95.905-102.037
			c-24.626,50.699-68.835,139.308-92.308,172.114c0,0-0.04,18.015,22.025,29.48c0,0,150.072-101.024,193.329-109.64
			c0,0,23.883-23.282,60.697-58.922c-20.121,10.309-43.197,20.062-52.827,20.659c-16.772,1.053-36.153-39.437-34.583-53.776
			c1.57-14.338,153.521-139.573,176.038-137.983c22.54,1.569,29.875,22.518,30.414,37.725c0.205,6.548-13.655,26.546-30.414,48.012
			C-99.87-373.723,43.055-508.896,83.956-538.895c0,0,0.414-10.661-3.14-24.688C98.501-578.932,104.514-601.596,93.959-616.264z
			 M-521.445-33.667c0,0-2.542-32.479-33.638-43.818C-555.083-77.485-502.854-101.12-521.445-33.667z"/>
	</g>
	<path display="none" opacity="0.5" fill="#71C8EA" enable-background="new    " d="M1047.102-300.004l3.334,3.333
		c0,0,17-13.666,32.5-11.833c0,0,21-27.999,50-37.833c0,0,17.666-9.834,7.166-30.667s-24.326-12.938-31.166-8
		c-9.584,6.916-39.771,40.321-51.5,56.333C1057.436-328.671,1060.936-312.337,1047.102-300.004z"/>
	<g>
		<path d="M31.462,0.159C25.7-1.161,0.849,6.162,0.129,7.002c-0.243,0.283-0.118,2.536,0.187,5.42l31.677-3.595
			C31.953,4.129,31.791,0.234,31.462,0.159z M17.277,7.328c-0.43,1.148-1.483,1.815-2.354,1.489c-0.87-0.325-1.225-1.521-0.794-2.67
			c0.431-1.148,1.484-1.814,2.354-1.489C17.354,4.985,17.709,6.18,17.277,7.328z M22.838,6.49c-0.488,1.3-1.681,2.055-2.664,1.685
			c-0.982-0.368-1.386-1.721-0.896-3.021c0.486-1.3,1.679-2.054,2.662-1.686C22.923,3.838,23.324,5.19,22.838,6.49z M29.211,5.703
			c-0.561,1.491-1.929,2.358-3.059,1.936c-1.129-0.424-1.592-1.977-1.031-3.47c0.561-1.492,1.929-2.358,3.059-1.936
			C29.309,2.658,29.771,4.211,29.211,5.703z"/>
		<path d="M32,10.706L0.406,13.26c0.631,5.617,1.833,13.008,2.364,13.31c0.841,0.48,28.091-0.72,28.692-1.319
			C31.792,24.92,32.01,17.42,32,10.706z M7.301,20.184l-4.322-1.439l-0.42-1.44l3.962-3.001l0.78,1.32l-3.181,2.04l3.421,1.021
			L7.301,20.184z M10.603,20.184l-1.381-0.3l1.621-5.582l1.529,0.287L10.603,20.184z"/>
	</g>
</g>
</svg>
