<?xml version="1.0" encoding="utf-8"?>
<!-- Generator: Adobe Illustrator 16.0.4, SVG Export Plug-In . SVG Version: 6.00 Build 0)  -->
<!DOCTYPE svg PUBLIC "-//W3C//DTD SVG 1.1//EN" "http://www.w3.org/Graphics/SVG/1.1/DTD/svg11.dtd">
<svg version="1.1" fill="rgb(0, 14, 156)" xmlns="http://www.w3.org/2000/svg" xmlns:xlink="http://www.w3.org/1999/xlink" x="0px" y="0px"
	 width="13.012px" height="32px" viewBox="0 0 13.012 32" enable-background="new 0 0 13.012 32" xml:space="preserve">
<g id="Fondo_1_" display="none">
	<rect id="Fondo" x="-795.445" y="-1723.356" display="inline" fill="#FB6E92" width="1000" height="2438.351"/>
</g>
<g id="Guias" display="none">
</g>
<g id="Icons">
	<g display="none" opacity="0.2">
		<path display="inline" fill="#FFFFFF" d="M-385.436-246.836c-11.281,3.636-35.885,28.281-38.51,36.153
			c-2.621,7.851,12.065,36.154,18.865,37.705c6.793,1.59,56.584-20.436,58.154-28.284
			C-345.355-209.133-374.153-250.515-385.436-246.836z"/>
		<path display="inline" fill="#FFFFFF" d="M-282.467-326.994c-10.498,0.494-88.547,59.726-88.034,69.146
			c0.519,9.423,29.359,46.629,37.729,47.951c8.363,1.301,70.222-78.341,72.308-88.814
			C-258.379-309.207-271.995-327.533-282.467-326.994z"/>
		<path display="inline" fill="#FFFFFF" d="M32.468-613.438c-10.932-15.145-35.498-16.26-56.115-3.016
			c-7.87-4.009-17.022-7.233-27.767-9.215c0,0-391.394,317.515-477.854,378.833c0,0-3.302,7.003-8.775,18.407
			c98.108,68.715,86.957,120.568,86.957,120.568c-27.149-66.916-95.886-102.037-95.905-102.037
			c-24.626,50.699-68.835,139.307-92.308,172.114c0,0-0.04,18.015,22.024,29.48c0,0,150.072-101.024,193.329-109.639
			c0,0,23.883-23.283,60.697-58.922c-20.121,10.308-43.197,20.062-52.827,20.659c-16.772,1.053-36.153-39.437-34.583-53.776
			c1.57-14.338,153.521-139.574,176.038-137.984c22.54,1.57,29.875,22.518,30.414,37.725c0.205,6.548-13.655,26.546-30.414,48.012
			c113.26-108.668,256.183-243.842,297.086-273.84c0,0,0.414-10.661-3.14-24.688C37.01-576.106,43.022-598.771,32.468-613.438z
			 M-582.937-30.842c0,0-2.542-32.478-33.638-43.818C-616.574-74.66-564.346-98.295-582.937-30.842z"/>
	</g>
	<path display="none" opacity="0.5" fill="#71C8EA" enable-background="new    " d="M985.611-297.179l3.333,3.333
		c0,0,17-13.666,32.5-11.833c0,0,21-27.999,50-37.833c0,0,17.667-9.834,7.167-30.667c-10.5-20.833-24.327-12.938-31.167-8
		c-9.583,6.916-39.771,40.322-51.5,56.333C995.944-325.846,999.444-309.512,985.611-297.179z"/>
	<g>
		<path d="M4.861,7.735c-0.28,0.969-0.719,2.491-1.221,4.271l6.033-1.934C9.486,9.238,9.322,8.515,9.195,7.946
			c1.05-0.406,2.138-0.959,2.275-1.328c0.242-0.645-1.369-5.882-1.773-6.285c-0.401-0.402-4.512-0.483-5.155,0
			C3.897,0.816,2.607,5.731,3.01,6.538C3.199,6.916,3.994,7.364,4.861,7.735z"/>
		<path d="M10.393,13.289l-7.791,2.443c-0.395,1.444-0.791,2.917-1.151,4.3l9.766-2.998C10.939,15.77,10.66,14.494,10.393,13.289z"
			/>
		<path d="M12.303,22.197L0.17,25.425c-0.152,0.808-0.211,1.347-0.142,1.499C0.512,27.973,5.83,32,6.877,32
			c1.049,0,5.883-4.824,6.125-5.596C13.07,26.188,12.77,24.5,12.303,22.197z"/>
	</g>
</g>
</svg>
