<?xml version="1.0" encoding="utf-8"?>
<!-- Generator: Adobe Illustrator 16.0.4, SVG Export Plug-In . SVG Version: 6.00 Build 0)  -->
<!DOCTYPE svg PUBLIC "-//W3C//DTD SVG 1.1//EN" "http://www.w3.org/Graphics/SVG/1.1/DTD/svg11.dtd">
<svg version="1.1" fill="rgb(0, 14, 156)" xmlns="http://www.w3.org/2000/svg" xmlns:xlink="http://www.w3.org/1999/xlink" x="0px" y="0px"
	 width="32px" height="14.021px" viewBox="0 0 32 14.021" enable-background="new 0 0 32 14.021" xml:space="preserve">
<g id="Fondo_1_" display="none">
	<rect id="Fondo" x="-837.949" y="-1734.378" display="inline" fill="#FB6E92" width="1000" height="2438.351"/>
</g>
<g id="Guias" display="none">
</g>
<g id="Icons">
	<g display="none" opacity="0.2">
		<path display="inline" fill="#FFFFFF" d="M-427.939-257.857c-11.282,3.636-35.885,28.28-38.51,36.152
			c-2.621,7.852,12.065,36.154,18.865,37.705c6.793,1.59,56.584-20.436,58.154-28.284
			C-387.859-220.154-416.657-261.536-427.939-257.857z"/>
		<path display="inline" fill="#FFFFFF" d="M-324.971-338.016c-10.498,0.494-88.546,59.726-88.034,69.146
			c0.519,9.423,29.36,46.629,37.729,47.951c8.363,1.301,70.221-78.341,72.307-88.813
			C-300.883-320.229-314.499-338.555-324.971-338.016z"/>
		<path display="inline" fill="#FFFFFF" d="M-10.036-624.46c-10.932-15.145-35.498-16.26-56.115-3.016
			c-7.87-4.009-17.023-7.233-27.767-9.215c0,0-391.393,317.515-477.854,378.833c0,0-3.302,7.003-8.776,18.406
			c98.109,68.716,86.957,120.568,86.957,120.568c-27.149-66.916-95.885-102.037-95.905-102.037
			c-24.626,50.699-68.835,139.307-92.308,172.114c0,0-0.04,18.015,22.025,29.479c0,0,150.072-101.023,193.329-109.639
			c0,0,23.883-23.283,60.697-58.922c-20.121,10.308-43.197,20.062-52.827,20.659c-16.772,1.053-36.153-39.438-34.583-53.776
			c1.57-14.338,153.521-139.574,176.038-137.984c22.54,1.57,29.875,22.519,30.414,37.726c0.205,6.548-13.655,26.546-30.414,48.012
			c113.26-108.668,256.184-243.842,297.086-273.84c0,0,0.414-10.661-3.14-24.688C-5.494-587.128,0.519-609.792-10.036-624.46z
			 M-625.44-41.863c0,0-2.542-32.479-33.638-43.818C-659.078-85.682-606.85-109.316-625.44-41.863z"/>
	</g>
	<path display="none" opacity="0.5" fill="#71C8EA" enable-background="new    " d="M943.106-308.2l3.334,3.333
		c0,0,17-13.666,32.5-11.833c0,0,21-27.999,50-37.833c0,0,17.666-9.834,7.166-30.667s-24.326-12.937-31.166-8
		c-9.584,6.916-39.771,40.322-51.5,56.333C953.44-336.867,956.94-320.533,943.106-308.2z"/>
	<g>
		<path d="M20.018,1.435c-0.475-0.711-7.947-0.594-8.422,0.475c-0.476,1.068,0.355,7.947,1.067,8.422
			c0.712,0.476,4.507,0.831,5.218,0C18.594,9.501,20.491,2.146,20.018,1.435z"/>
		<path d="M0.445,0.249c-0.613,0.768-0.582,5.695,0.029,9.342l7.681-1.156l-7.347,2.777c0.309,1.203,0.702,2.084,1.179,2.322
			c1.594,0.797,7.871-2.266,9.842-3.268c-0.571-1.633-1.097-5.713-1.084-8.009C8.408,1.496,1.238-0.742,0.445,0.249z"/>
		<path d="M31.491,0.604c-0.789-0.863-7.109,0.724-10.494,1.65c-0.43,2.701-1.666,7.191-2.353,8.441
			c2.422,1.07,9.306,3.971,11.084,3.192c0.681-0.298,1.214-1.601,1.593-3.281l-7.168-1.569l7.458,0.026
			C32.159,5.551,32.138,1.312,31.491,0.604z"/>
	</g>
</g>
</svg>
