<?xml version="1.0" encoding="utf-8"?>
<!-- Generator: Adobe Illustrator 16.0.4, SVG Export Plug-In . SVG Version: 6.00 Build 0)  -->
<!DOCTYPE svg PUBLIC "-//W3C//DTD SVG 1.1//EN" "http://www.w3.org/Graphics/SVG/1.1/DTD/svg11.dtd">
<svg version="1.1" fill="rgb(0, 14, 156)" xmlns="http://www.w3.org/2000/svg" xmlns:xlink="http://www.w3.org/1999/xlink" x="0px" y="0px"
	 width="15.844px" height="32px" viewBox="0 0 15.844 32" enable-background="new 0 0 15.844 32" xml:space="preserve">
<g id="Fondo_1_" display="none">
	<rect id="Fondo" x="-118.049" y="-1787.523" display="inline" fill="#FB6E92" width="1000" height="2438.351"/>
</g>
<g id="Guias" display="none">
</g>
<g id="Icons">
	<g display="none" opacity="0.2">
		<path display="inline" fill="#FFFFFF" d="M291.96-311.003c-11.282,3.636-35.885,28.281-38.51,36.153
			c-2.621,7.851,12.065,36.154,18.864,37.705c6.793,1.59,56.585-20.436,58.154-28.284C332.041-273.3,303.243-314.682,291.96-311.003
			z"/>
		<path display="inline" fill="#FFFFFF" d="M394.929-391.161c-10.498,0.494-88.546,59.726-88.034,69.146
			c0.52,9.423,29.36,46.629,37.729,47.951c8.363,1.301,70.221-78.341,72.307-88.814C419.017-373.374,405.401-391.7,394.929-391.161z
			"/>
		<path display="inline" fill="#FFFFFF" d="M709.864-677.605c-10.933-15.145-35.498-16.26-56.115-3.016
			c-7.87-4.009-17.023-7.233-27.767-9.215c0,0-391.394,317.515-477.854,378.833c0,0-3.302,7.003-8.776,18.407
			c98.109,68.715,86.957,120.568,86.957,120.568c-27.148-66.916-95.885-102.037-95.904-102.037
			c-24.627,50.699-68.836,139.307-92.309,172.114c0,0-0.039,18.015,22.025,29.48c0,0,150.072-101.024,193.329-109.639
			c0,0,23.883-23.283,60.696-58.922c-20.121,10.308-43.196,20.062-52.826,20.659c-16.772,1.053-36.153-39.437-34.584-53.776
			c1.57-14.338,153.521-139.574,176.039-137.984c22.54,1.57,29.875,22.518,30.414,37.725c0.204,6.548-13.655,26.546-30.414,48.012
			c113.258-108.669,256.182-243.843,297.084-273.841c0,0,0.414-10.661-3.141-24.688
			C714.406-640.273,720.418-662.938,709.864-677.605z M94.459-95.009c0,0-2.542-32.478-33.639-43.818
			C60.822-138.827,113.05-162.462,94.459-95.009z"/>
	</g>
	<path display="none" opacity="0.5" fill="#71C8EA" enable-background="new    " d="M1663.006-361.346l3.333,3.333
		c0,0,17-13.666,32.5-11.833c0,0,21-27.999,50-37.833c0,0,17.667-9.834,7.167-30.667s-24.327-12.937-31.167-8
		c-9.583,6.916-39.771,40.322-51.5,56.333C1673.339-390.013,1676.839-373.679,1663.006-361.346z"/>
	<g>
		<path d="M13.163,9.006c-0.406-0.244-9.771,1.036-10.238,1.381c-0.467,0.346-0.568,1.706-0.568,1.706l11.375-0.894
			C13.73,11.199,13.568,9.249,13.163,9.006z"/>
		<path d="M14.788,11.769c-0.427-0.224-13.467,0.589-13.812,0.894C0.631,12.968,0,16.968,0,16.968l15.844-1.137
			C15.844,15.831,15.214,11.991,14.788,11.769z"/>
		<path d="M13.73,0.23c-0.102-0.366-3.494-0.244-3.899,0C9.425,0.474,7.1,9.168,7.1,9.168l1.828-0.193
			C8.927,8.975,13.833,0.596,13.73,0.23z"/>
		<polygon points="2.263,22.77 13.949,20.195 14.625,16.562 1.381,17.537 		"/>
		<path d="M3.737,31.512c0.203,0.284,6.175,1.342,8.289-0.975c0.214-0.234,0.883-4.744,0.883-4.744L2.876,26.402
			C2.876,26.402,3.534,31.229,3.737,31.512z"/>
	</g>
</g>
</svg>
