<?xml version="1.0" encoding="utf-8"?>
<!-- Generator: Adobe Illustrator 16.0.4, SVG Export Plug-In . SVG Version: 6.00 Build 0)  -->
<!DOCTYPE svg PUBLIC "-//W3C//DTD SVG 1.1//EN" "http://www.w3.org/Graphics/SVG/1.1/DTD/svg11.dtd">
<svg version="1.1" fill="rgb(0, 14, 156)" xmlns="http://www.w3.org/2000/svg" xmlns:xlink="http://www.w3.org/1999/xlink" x="0px" y="0px"
	 width="32px" height="20px" viewBox="0 0 32 20" enable-background="new 0 0 32 20" xml:space="preserve">
<g id="Fondo_1_" display="none">
	<rect id="Fondo" x="-161.966" y="-1794.491" display="inline" fill="#FB6E92" width="1000" height="2438.351"/>
</g>
<g id="Guias" display="none">
</g>
<g id="Icons">
	<g display="none" opacity="0.2">
		<path display="inline" fill="#FFFFFF" d="M248.043-317.971c-11.281,3.636-35.885,28.281-38.51,36.153
			c-2.621,7.851,12.064,36.154,18.865,37.705c6.793,1.59,56.584-20.436,58.153-28.284
			C288.123-280.268,259.325-321.649,248.043-317.971z"/>
		<path display="inline" fill="#FFFFFF" d="M351.012-398.129c-10.498,0.494-88.546,59.726-88.033,69.146
			c0.519,9.423,29.359,46.629,37.729,47.951c8.363,1.301,70.221-78.341,72.307-88.814
			C375.1-380.342,361.483-398.668,351.012-398.129z"/>
		<path display="inline" fill="#FFFFFF" d="M665.946-684.573c-10.933-15.145-35.498-16.26-56.115-3.016
			c-7.87-4.009-17.023-7.233-27.767-9.215c0,0-391.394,317.515-477.854,378.833c0,0-3.302,7.003-8.776,18.407
			c98.109,68.715,86.957,120.568,86.957,120.568c-27.148-66.916-95.885-102.037-95.904-102.037
			c-24.627,50.7-68.836,139.307-92.307,172.115c0,0-0.04,18.015,22.025,29.48c0,0,150.071-101.024,193.329-109.639
			c0,0,23.883-23.283,60.697-58.922c-20.121,10.308-43.197,20.062-52.828,20.659c-16.771,1.053-36.152-39.437-34.582-53.776
			c1.57-14.338,153.521-139.574,176.038-137.984c22.54,1.57,29.875,22.518,30.413,37.725c0.205,6.548-13.654,26.546-30.413,48.012
			C472.116-442.032,615.04-577.206,655.942-607.204c0,0,0.414-10.661-3.141-24.688C670.488-647.241,676.501-669.905,665.946-684.573
			z M50.542-101.977c0,0-2.542-32.478-33.638-43.818C16.904-145.795,69.133-169.43,50.542-101.977z"/>
	</g>
	<path display="none" opacity="0.5" fill="#71C8EA" enable-background="new    " d="M1619.089-368.313l3.333,3.333
		c0,0,17-13.666,32.5-11.833c0,0,21-27.999,50-37.833c0,0,17.667-9.834,7.167-30.667s-24.327-12.937-31.167-8
		c-9.583,6.916-39.771,40.322-51.5,56.333C1629.422-396.98,1632.922-380.646,1619.089-368.313z"/>
	<path d="M31.275,3.366L32,2.879l-1.396-2.778L30.564,0l-0.008,0.009L30.552,0l-0.096,0.113l-7.22,7.58L2.372,10.87l5.223-5.724
		l1.034,0.987l0.724-0.488L7.904,2.768L0,11.463c0,0-0.08,9.396,6.507,8.475c6.68-0.936,5.086-8.273,5.086-8.273l2.306-0.268
		c0,0-0.354,7.434,5.335,7.443c7.847,0.014,5.27-8.761,5.27-9.946l5.928-6.333L31.275,3.366z"/>
</g>
</svg>
