<?xml version="1.0" encoding="utf-8"?>
<!-- Generator: Adobe Illustrator 16.0.4, SVG Export Plug-In . SVG Version: 6.00 Build 0)  -->
<!DOCTYPE svg PUBLIC "-//W3C//DTD SVG 1.1//EN" "http://www.w3.org/Graphics/SVG/1.1/DTD/svg11.dtd">
<svg version="1.1" fill="rgb(0, 14, 156)" xmlns="http://www.w3.org/2000/svg" xmlns:xlink="http://www.w3.org/1999/xlink" x="0px" y="0px"
	 width="32px" height="25.236px" viewBox="0 0 32 25.236" enable-background="new 0 0 32 25.236" xml:space="preserve">
<g id="Fondo_1_" display="none">
	<rect id="Fondo" x="-213.966" y="-1791.874" display="inline" fill="#FB6E92" width="1000" height="2438.351"/>
</g>
<g id="Guias" display="none">
</g>
<g id="Icons">
	<g display="none" opacity="0.2">
		<path display="inline" fill="#FFFFFF" d="M196.043-315.354c-11.281,3.637-35.885,28.281-38.51,36.153
			c-2.621,7.851,12.064,36.154,18.865,37.705c6.793,1.59,56.584-20.437,58.153-28.284
			C236.123-277.65,207.325-319.032,196.043-315.354z"/>
		<path display="inline" fill="#FFFFFF" d="M299.012-395.511c-10.498,0.493-88.546,59.726-88.033,69.146
			c0.519,9.423,29.359,46.629,37.729,47.951c8.363,1.301,70.221-78.341,72.307-88.814
			C323.1-377.725,309.483-396.051,299.012-395.511z"/>
		<path display="inline" fill="#FFFFFF" d="M613.946-681.956c-10.933-15.146-35.498-16.26-56.115-3.016
			c-7.87-4.01-17.023-7.233-27.767-9.216c0,0-391.394,317.516-477.854,378.833c0,0-3.302,7.003-8.776,18.407
			c98.109,68.715,86.957,120.568,86.957,120.568c-27.148-66.916-95.885-102.037-95.904-102.037
			c-24.626,50.7-68.835,139.308-92.307,172.115c0,0-0.04,18.015,22.025,29.479c0,0,150.071-101.023,193.329-109.639
			c0,0,23.883-23.283,60.697-58.922c-20.121,10.308-43.197,20.062-52.828,20.658c-16.771,1.054-36.152-39.437-34.582-53.775
			c1.57-14.338,153.521-139.574,176.038-137.984c22.54,1.57,29.875,22.519,30.413,37.726c0.205,6.548-13.654,26.546-30.413,48.012
			C420.116-439.415,563.04-574.589,603.942-604.587c0,0,0.414-10.661-3.141-24.688C618.488-644.624,624.501-667.288,613.946-681.956
			z M-1.458-99.359c0,0-2.542-32.478-33.638-43.817C-35.096-143.177,17.133-166.812-1.458-99.359z"/>
	</g>
	<path display="none" opacity="0.5" fill="#71C8EA" enable-background="new    " d="M1567.089-365.696l3.333,3.333
		c0,0,17-13.666,32.5-11.833c0,0,21-27.999,50-37.833c0,0,17.667-9.834,7.167-30.667s-24.327-12.937-31.167-8
		c-9.583,6.916-39.771,40.322-51.5,56.333C1577.422-394.363,1580.922-378.029,1567.089-365.696z"/>
	<g>
		<path d="M16.461,12.236C14.357,8.973,9.951,7.98,6.098,9.688L6.101,9.68c0,0,0.69-4.938,5.094-9.68H7.468
			c0,0-10.387,11.216-6.661,20.396v-0.001c0.18,0.505,0.417,0.994,0.717,1.461c2.357,3.66,7.612,4.475,11.736,1.817
			C17.386,21.018,18.818,15.897,16.461,12.236z"/>
		<path d="M30.865,12.236C28.762,8.972,24.354,7.979,20.5,9.688l0.006-0.009c0,0,1.367-6.18,5.094-9.68h-4.178
			c0,0-3.666,3.921-5.722,8.855c1.196,0.615,2.233,1.514,2.991,2.688c2.252,3.497,1.308,8.224-2.012,11.266
			c2.598,2.822,7.252,3.271,10.986,0.864C31.791,21.018,33.223,15.897,30.865,12.236z"/>
	</g>
</g>
</svg>
