<?xml version="1.0" encoding="utf-8"?>
<!-- Generator: Adobe Illustrator 16.0.4, SVG Export Plug-In . SVG Version: 6.00 Build 0)  -->
<!DOCTYPE svg PUBLIC "-//W3C//DTD SVG 1.1//EN" "http://www.w3.org/Graphics/SVG/1.1/DTD/svg11.dtd">
<svg version="1.1" fill="rgb(0, 14, 156)" xmlns="http://www.w3.org/2000/svg" xmlns:xlink="http://www.w3.org/1999/xlink" x="0px" y="0px"
	 width="32px" height="25.236px" viewBox="0 0 32 25.236" enable-background="new 0 0 32 25.236" xml:space="preserve">
<g id="Fondo_1_" display="none">
	<rect id="Fondo" x="-265.966" y="-1792.374" display="inline" fill="#FB6E92" width="1000" height="2438.351"/>
</g>
<g id="Guias" display="none">
</g>
<g id="Icons">
	<g display="none" opacity="0.2">
		<path display="inline" fill="#FFFFFF" d="M144.043-315.854c-11.281,3.637-35.885,28.281-38.51,36.153
			c-2.621,7.851,12.064,36.154,18.865,37.705c6.793,1.59,56.584-20.437,58.153-28.284
			C184.123-278.15,155.325-319.532,144.043-315.854z"/>
		<path display="inline" fill="#FFFFFF" d="M247.012-396.011c-10.498,0.493-88.546,59.726-88.033,69.146
			c0.519,9.423,29.359,46.629,37.729,47.951c8.363,1.301,70.221-78.341,72.307-88.814
			C271.1-378.225,257.482-396.551,247.012-396.011z"/>
		<path display="inline" fill="#FFFFFF" d="M561.946-682.456c-10.933-15.146-35.498-16.26-56.115-3.016
			c-7.87-4.01-17.023-7.233-27.767-9.216c0,0-391.394,317.516-477.854,378.833c0,0-3.302,7.003-8.776,18.407
			c98.109,68.715,86.957,120.568,86.957,120.568c-27.148-66.916-95.885-102.037-95.905-102.037
			c-24.626,50.699-68.835,139.307-92.308,172.114c0,0-0.04,18.015,22.025,29.479c0,0,150.072-101.024,193.329-109.639
			c0,0,23.883-23.283,60.696-58.922c-20.121,10.308-43.196,20.062-52.826,20.658C96.63-224.171,77.249-264.661,78.818-279
			c1.57-14.338,153.521-139.574,176.039-137.984c22.539,1.57,29.875,22.519,30.414,37.726c0.205,6.548-13.655,26.546-30.414,48.012
			C368.115-439.916,511.039-575.09,551.941-605.088c0,0,0.414-10.661-3.141-24.688C566.488-645.124,572.501-667.788,561.946-682.456
			z M-53.458-99.859c0,0-2.542-32.478-33.638-43.817C-87.096-143.677-34.867-167.312-53.458-99.859z"/>
	</g>
	<path display="none" opacity="0.5" fill="#71C8EA" enable-background="new    " d="M1515.089-366.196l3.333,3.333
		c0,0,17-13.666,32.5-11.833c0,0,21-27.999,50-37.833c0,0,17.667-9.834,7.167-30.667s-24.327-12.937-31.167-8
		c-9.583,6.916-39.771,40.322-51.5,56.333C1525.422-394.863,1528.922-378.529,1515.089-366.196z"/>
	<g>
		<path d="M15.54,13.001c2.104,3.264,6.51,4.256,10.362,2.549L25.9,15.558c0,0-0.69,4.938-5.094,9.68h3.726
			c0,0,10.387-11.217,6.661-20.397v0.002c-0.18-0.506-0.418-0.994-0.717-1.461c-2.357-3.66-7.612-4.475-11.736-1.818
			C14.615,4.22,13.183,9.339,15.54,13.001z"/>
		<path d="M1.135,13.001c2.104,3.264,6.511,4.256,10.366,2.547l-0.006,0.01c0,0-1.367,6.18-5.093,9.68h4.177
			c0,0,3.666-3.922,5.722-8.856c-1.196-0.615-2.233-1.512-2.991-2.688c-2.253-3.498-1.308-8.225,2.011-11.266
			C12.723-0.395,8.07-0.843,4.335,1.562C0.21,4.22-1.222,9.339,1.135,13.001z"/>
	</g>
</g>
</svg>
