<?xml version="1.0" encoding="utf-8"?>
<!-- Generator: Adobe Illustrator 16.0.4, SVG Export Plug-In . SVG Version: 6.00 Build 0)  -->
<!DOCTYPE svg PUBLIC "-//W3C//DTD SVG 1.1//EN" "http://www.w3.org/Graphics/SVG/1.1/DTD/svg11.dtd">
<svg version="1.1" fill="rgb(0, 14, 156)" xmlns="http://www.w3.org/2000/svg" xmlns:xlink="http://www.w3.org/1999/xlink" x="0px" y="0px"
	 width="32px" height="25.025px" viewBox="0 0 32 25.025" enable-background="new 0 0 32 25.025" xml:space="preserve">
<g id="Fondo_1_" display="none">
	<rect id="Fondo" x="-317.966" y="-1792.374" display="inline" fill="#FB6E92" width="1000" height="2438.351"/>
</g>
<g id="Guias" display="none">
</g>
<g id="Icons">
	<g display="none" opacity="0.2">
		<path display="inline" fill="#FFFFFF" d="M92.043-315.854c-11.281,3.637-35.885,28.281-38.51,36.153
			c-2.621,7.851,12.064,36.154,18.865,37.705c6.793,1.59,56.584-20.437,58.153-28.284
			C132.124-278.15,103.326-319.532,92.043-315.854z"/>
		<path display="inline" fill="#FFFFFF" d="M195.012-396.011c-10.498,0.493-88.546,59.726-88.033,69.146
			c0.519,9.423,29.359,46.629,37.729,47.951c8.363,1.301,70.221-78.341,72.307-88.814
			C219.1-378.225,205.484-396.551,195.012-396.011z"/>
		<path display="inline" fill="#FFFFFF" d="M509.947-682.456c-10.933-15.146-35.498-16.26-56.115-3.016
			c-7.87-4.01-17.023-7.233-27.767-9.216c0,0-391.394,317.516-477.854,378.833c0,0-3.302,7.003-8.776,18.407
			c98.109,68.715,86.958,120.568,86.958,120.568c-27.149-66.916-95.886-102.037-95.906-102.037
			c-24.626,50.699-68.835,139.307-92.308,172.114c0,0-0.04,18.015,22.025,29.479c0,0,150.072-101.024,193.329-109.639
			c0,0,23.883-23.283,60.697-58.922c-20.121,10.308-43.197,20.062-52.828,20.658C44.631-224.171,25.25-264.661,26.82-279
			c1.57-14.338,153.521-139.574,176.037-137.984c22.541,1.57,29.875,22.519,30.414,37.726c0.205,6.548-13.654,26.546-30.414,48.012
			C316.116-439.916,459.04-575.09,499.942-605.088c0,0,0.414-10.661-3.141-24.688C514.489-645.124,520.501-667.788,509.947-682.456z
			 M-105.458-99.859c0,0-2.542-32.478-33.638-43.817C-139.095-143.677-86.867-167.312-105.458-99.859z"/>
	</g>
	<path display="none" opacity="0.5" fill="#71C8EA" enable-background="new    " d="M1463.089-366.196l3.333,3.333
		c0,0,17-13.666,32.5-11.833c0,0,21-27.999,50-37.833c0,0,17.667-9.834,7.167-30.667s-24.327-12.937-31.167-8
		c-9.583,6.916-39.771,40.322-51.5,56.333C1473.422-394.863,1476.922-378.529,1463.089-366.196z"/>
	<path d="M8.408,24.953c1.755-0.325,4.173-2.075,6.462-4.229c1.218,0.771,2.571,1.178,3.911,0.93
		c4.365-0.811,12.844-10.429,13.201-13.202c0.358-2.774-5.309-9.249-8.369-8.369c-1.332,0.383-3.908,2.355-6.436,4.714
		c-1.381-1.085-2.83-1.731-3.938-1.413C10.181,4.261,0.545,13.543,0.039,16.584C-0.467,19.624,4.042,25.763,8.408,24.953z
		 M14.241,12.522c0.111-0.665,0.902-1.795,1.974-3.02c0.961,1.12,1.645,2.405,1.54,3.209c-0.087,0.673-0.916,1.971-2.065,3.354
		C14.695,14.912,14.082,13.479,14.241,12.522z M17.796,17.674c2.095-2.407,3.665-4.764,3.813-5.923
		c0.166-1.285-0.963-3.365-2.524-5.14c1.462-1.313,2.883-2.366,3.654-2.589c1.97-0.565,5.618,3.604,5.388,5.389
		s-5.688,7.979-8.5,8.5C19.011,18.025,18.389,17.923,17.796,17.674z M3.868,15.823c0.325-1.957,6.529-7.934,8.499-8.499
		c0.533-0.153,1.188,0.042,1.856,0.439c-2.035,2.209-3.615,4.336-3.812,5.52c-0.257,1.546,0.783,3.892,2.44,5.719
		c-1.298,1.144-2.61,2.025-3.597,2.209C6.445,21.733,3.542,17.78,3.868,15.823z"/>
</g>
</svg>
