<?xml version="1.0" encoding="utf-8"?>
<!-- Generator: Adobe Illustrator 16.0.4, SVG Export Plug-In . SVG Version: 6.00 Build 0)  -->
<!DOCTYPE svg PUBLIC "-//W3C//DTD SVG 1.1//EN" "http://www.w3.org/Graphics/SVG/1.1/DTD/svg11.dtd">
<svg version="1.1" fill="rgb(0, 14, 156)" xmlns="http://www.w3.org/2000/svg" xmlns:xlink="http://www.w3.org/1999/xlink" x="0px" y="0px"
	 width="32px" height="31.227px" viewBox="0 0 32 31.227" enable-background="new 0 0 32 31.227" xml:space="preserve">
<g id="Fondo_1_" display="none">
	<rect id="Fondo" x="-369.921" y="-1787.91" display="inline" fill="#FB6E92" width="1000" height="2438.352"/>
</g>
<g id="Guias" display="none">
</g>
<g id="Icons">
	<g display="none" opacity="0.2">
		<path display="inline" fill="#FFFFFF" d="M40.088-311.39c-11.281,3.636-35.885,28.281-38.51,36.153
			c-2.621,7.851,12.065,36.153,18.865,37.704c6.793,1.591,56.584-20.436,58.154-28.283C80.168-273.687,51.37-315.068,40.088-311.39z
			"/>
		<path display="inline" fill="#FFFFFF" d="M143.057-391.548c-10.498,0.494-88.545,59.726-88.033,69.146
			c0.519,9.423,29.359,46.629,37.729,47.95c8.363,1.302,70.221-78.341,72.307-88.813
			C167.145-373.761,153.527-392.087,143.057-391.548z"/>
		<path display="inline" fill="#FFFFFF" d="M457.991-677.992c-10.933-15.145-35.498-16.26-56.115-3.016
			c-7.87-4.009-17.023-7.233-27.767-9.215c0,0-391.394,317.515-477.854,378.833c0,0-3.302,7.003-8.776,18.407
			c98.109,68.715,86.957,120.567,86.957,120.567c-27.149-66.916-95.885-102.037-95.905-102.037
			c-24.626,50.699-68.835,139.308-92.308,172.114c0,0-0.04,18.015,22.025,29.48c0,0,150.072-101.024,193.329-109.64
			c0,0,23.883-23.283,60.696-58.922c-20.121,10.309-43.196,20.062-52.827,20.659c-16.772,1.053-36.153-39.438-34.583-53.776
			c1.57-14.338,153.521-139.573,176.039-137.983c22.539,1.569,29.875,22.518,30.414,37.725c0.205,6.548-13.655,26.546-30.414,48.012
			C264.16-435.452,407.084-570.626,447.986-600.624c0,0,0.414-10.661-3.141-24.688C462.533-640.66,468.546-663.324,457.991-677.992z
			 M-157.413-95.396c0,0-2.542-32.479-33.638-43.818C-191.051-139.214-138.822-162.849-157.413-95.396z"/>
	</g>
	<path display="none" opacity="0.5" fill="#71C8EA" enable-background="new    " d="M1411.134-361.732l3.333,3.333
		c0,0,17-13.666,32.5-11.833c0,0,21-27.999,50-37.833c0,0,17.667-9.834,7.167-30.667s-24.327-12.938-31.167-8
		c-9.583,6.916-39.771,40.321-51.5,56.333C1421.467-390.399,1424.967-374.065,1411.134-361.732z"/>
	<path d="M31.729,21.961c-0.107-0.089-1.938,0.296-4.541,0.9c-0.664-4.94-1.545-11.084-1.984-14.125
		c2.828-3.369,4.867-5.851,4.877-6.007c0.035-0.517-3.28-2.833-3.773-2.727c-0.166,0.037-2.531,3.07-5.606,7.094
		c-3.444,0.202-8.401,0.5-12.57,0.771C8.102,5.357,8.014,3.622,7.827,3.554C7.123,3.296,3.707,3.846,3.432,4.24
		C3.366,4.334,3.4,5.881,3.497,8.188C1.592,8.329,0.341,8.441,0.272,8.499c-0.31,0.257-0.412,4.344,0,4.67
		c0.101,0.08,1.458-0.095,3.445-0.403c0.411,7.803,1.106,18.174,1.397,18.398c0.27,0.211,9.144-0.838,16.573-1.811
		c0.029,1.082,0.078,1.758,0.151,1.811c0.429,0.311,5.907-0.635,6.183-0.961c0.043-0.052-0.006-0.68-0.119-1.697
		c2.25-0.321,3.75-0.564,3.828-0.639C32.055,27.559,32.124,22.287,31.729,21.961z M21.65,24.191
		c-4.631,1.134-9.641,2.401-12.167,3.046c2.358-2.757,7.661-8.962,12.295-14.44C21.73,15.788,21.663,20.357,21.65,24.191z
		 M18.302,10.242c-3.725,4.901-7.874,10.411-10.377,13.744c0.078-3.167,0.178-7.857,0.207-11.949
		C11.621,11.443,15.547,10.741,18.302,10.242z"/>
</g>
</svg>
