<?xml version="1.0" encoding="utf-8"?>
<!-- Generator: Adobe Illustrator 16.0.4, SVG Export Plug-In . SVG Version: 6.00 Build 0)  -->
<!DOCTYPE svg PUBLIC "-//W3C//DTD SVG 1.1//EN" "http://www.w3.org/Graphics/SVG/1.1/DTD/svg11.dtd">
<svg version="1.1" fill="rgb(0, 14, 156)" xmlns="http://www.w3.org/2000/svg" xmlns:xlink="http://www.w3.org/1999/xlink" x="0px" y="0px"
	 width="32px" height="12.329px" viewBox="0 0 32 12.329" enable-background="new 0 0 32 12.329" xml:space="preserve">
<g id="Fondo_1_" display="none">
	<rect id="Fondo" x="-421.966" y="-1798.723" display="inline" fill="#FB6E92" width="1000" height="2438.351"/>
</g>
<g id="Guias" display="none">
</g>
<g id="Icons">
	<g display="none" opacity="0.2">
		<path display="inline" fill="#FFFFFF" d="M-11.957-322.202c-11.282,3.636-35.885,28.281-38.51,36.153
			c-2.621,7.851,12.065,36.154,18.865,37.705c6.793,1.59,56.584-20.437,58.154-28.284C28.124-284.499-0.674-325.881-11.957-322.202z
			"/>
		<path display="inline" fill="#FFFFFF" d="M91.012-402.36c-10.498,0.494-88.546,59.726-88.034,69.146
			c0.519,9.423,29.36,46.629,37.729,47.951c8.363,1.301,70.221-78.341,72.307-88.814C115.1-384.573,101.484-402.899,91.012-402.36z"
			/>
		<path display="inline" fill="#FFFFFF" d="M405.947-688.805c-10.933-15.146-35.498-16.26-56.115-3.017
			c-7.87-4.009-17.023-7.232-27.767-9.215c0,0-391.394,317.515-477.854,378.833c0,0-3.302,7.003-8.776,18.407
			c98.109,68.715,86.957,120.568,86.957,120.568c-27.149-66.916-95.885-102.037-95.905-102.037
			c-24.626,50.699-68.835,139.307-92.308,172.114c0,0-0.04,18.015,22.025,29.48c0,0,150.072-101.024,193.329-109.639
			c0,0,23.883-23.283,60.697-58.922c-20.121,10.308-43.197,20.062-52.827,20.659c-16.772,1.053-36.153-39.437-34.583-53.776
			c1.57-14.338,153.521-139.574,176.038-137.984c22.541,1.57,29.875,22.518,30.414,37.725c0.205,6.548-13.654,26.546-30.414,48.012
			C212.116-446.265,355.04-581.439,395.942-611.437c0,0,0.414-10.661-3.141-24.688C410.489-651.473,416.501-674.137,405.947-688.805
			z M-209.458-106.208c0,0-2.542-32.478-33.638-43.818C-243.095-150.026-190.867-173.661-209.458-106.208z"/>
	</g>
	<path display="none" opacity="0.5" fill="#71C8EA" enable-background="new    " d="M1359.089-372.545l3.333,3.333
		c0,0,17-13.666,32.5-11.833c0,0,21-27.999,50-37.833c0,0,17.667-9.834,7.167-30.667s-24.327-12.937-31.167-8
		c-9.583,6.916-39.771,40.322-51.5,56.333C1369.422-401.212,1372.922-384.878,1359.089-372.545z"/>
	<g>
		<ellipse transform="matrix(-0.937 -0.3493 0.3493 -0.937 4.9778 13.2271)" cx="3.681" cy="6.165" rx="3.5" ry="4.779"/>
		<ellipse transform="matrix(-0.937 -0.3493 0.3493 -0.937 52.7027 21.8344)" cx="28.32" cy="6.165" rx="3.5" ry="4.779"/>
		<ellipse transform="matrix(-0.937 -0.3493 0.3493 -0.937 28.9906 17.5579)" cx="16.078" cy="6.165" rx="4.648" ry="6.346"/>
	</g>
</g>
</svg>
