<?xml version="1.0" encoding="utf-8"?>
<!-- Generator: Adobe Illustrator 16.0.4, SVG Export Plug-In . SVG Version: 6.00 Build 0)  -->
<!DOCTYPE svg PUBLIC "-//W3C//DTD SVG 1.1//EN" "http://www.w3.org/Graphics/SVG/1.1/DTD/svg11.dtd">
<svg version="1.1" fill="rgb(0, 14, 156)" xmlns="http://www.w3.org/2000/svg" xmlns:xlink="http://www.w3.org/1999/xlink" x="0px" y="0px"
	 width="32px" height="26.344px" viewBox="0 0 32 26.344" enable-background="new 0 0 32 26.344" xml:space="preserve">
<g id="Fondo_1_" display="none">
	<rect id="Fondo" x="-474.153" y="-1791.822" display="inline" fill="#FB6E92" width="1000" height="2438.352"/>
</g>
<g id="Guias" display="none">
</g>
<g id="Icons">
	<g display="none" opacity="0.2">
		<path display="inline" fill="#FFFFFF" d="M-64.144-315.302c-11.282,3.636-35.885,28.281-38.51,36.153
			c-2.621,7.851,12.065,36.154,18.865,37.705c6.793,1.59,56.584-20.436,58.154-28.284C-24.063-277.599-52.861-318.98-64.144-315.302
			z"/>
		<path display="inline" fill="#FFFFFF" d="M38.825-395.46c-10.498,0.494-88.546,59.726-88.034,69.146
			c0.519,9.423,29.36,46.629,37.729,47.951c8.363,1.301,70.221-78.341,72.307-88.813C62.913-377.673,49.297-395.999,38.825-395.46z"
			/>
		<path display="inline" fill="#FFFFFF" d="M353.76-681.904c-10.932-15.145-35.498-16.26-56.115-3.016
			c-7.869-4.009-17.022-7.233-27.767-9.215c0,0-391.393,317.515-477.854,378.833c0,0-3.302,7.003-8.776,18.407
			c98.109,68.715,86.957,120.568,86.957,120.568c-27.149-66.916-95.885-102.037-95.905-102.037
			c-24.626,50.699-68.835,139.307-92.308,172.114c0,0-0.04,18.015,22.025,29.48c0,0,150.072-101.024,193.329-109.639
			c0,0,23.883-23.283,60.697-58.922c-20.121,10.308-43.197,20.062-52.827,20.659c-16.772,1.053-36.153-39.437-34.583-53.776
			c1.57-14.338,153.521-139.574,176.038-137.984c22.54,1.57,29.875,22.518,30.414,37.725c0.205,6.548-13.655,26.546-30.414,48.012
			C159.93-439.364,302.854-574.538,343.755-604.536c0,0,0.414-10.661-3.14-24.688C358.302-644.572,364.314-667.236,353.76-681.904z
			 M-261.645-99.308c0,0-2.542-32.478-33.638-43.818C-295.282-143.126-243.054-166.761-261.645-99.308z"/>
	</g>
	<path display="none" opacity="0.5" fill="#71C8EA" enable-background="new    " d="M1306.902-365.645l3.333,3.333
		c0,0,17-13.666,32.5-11.833c0,0,21-27.999,50-37.833c0,0,17.667-9.834,7.167-30.667s-24.327-12.937-31.167-8
		c-9.583,6.916-39.771,40.322-51.5,56.333C1317.235-394.312,1320.735-377.978,1306.902-365.645z"/>
	<g>
		<path d="M17.212,15.947c1.271,0.115,15.017-7.277,14.785-8.086c-0.229-0.809-16.401-7.623-17.558-7.854
			C13.284-0.225-0.114,5.897,0.001,6.938C0.116,7.977,15.942,15.832,17.212,15.947z"/>
		<path d="M29.4,11.563c-3.993,2.442-11.28,6.199-12.188,6.117c-0.965-0.089-10.34-4.646-14.832-7.286
			c-1.445,0.802-2.41,1.459-2.379,1.74c0.115,1.04,15.941,8.896,17.211,9.011c1.271,0.115,15.017-7.276,14.785-8.085
			C31.939,12.861,30.922,12.3,29.4,11.563z"/>
		<path d="M29.4,16.762c-3.993,2.442-11.28,6.198-12.188,6.116C16.247,22.79,6.872,18.23,2.38,15.592
			c-1.445,0.803-2.41,1.459-2.379,1.741c0.115,1.04,15.941,8.896,17.211,9.01c1.271,0.116,15.017-7.276,14.785-8.085
			C31.939,18.059,30.922,17.498,29.4,16.762z"/>
	</g>
</g>
</svg>
