<?xml version="1.0" encoding="utf-8"?>
<!-- Generator: Adobe Illustrator 16.0.4, SVG Export Plug-In . SVG Version: 6.00 Build 0)  -->
<!DOCTYPE svg PUBLIC "-//W3C//DTD SVG 1.1//EN" "http://www.w3.org/Graphics/SVG/1.1/DTD/svg11.dtd">
<svg version="1.1" fill="rgb(0, 14, 156)" xmlns="http://www.w3.org/2000/svg" xmlns:xlink="http://www.w3.org/1999/xlink" x="0px" y="0px"
	 width="31.688px" height="32px" viewBox="0 0 31.688 32" enable-background="new 0 0 31.688 32" xml:space="preserve">
<g id="Fondo_1_" display="none">
	<rect id="Fondo" x="-526.119" y="-1787.521" display="inline" fill="#FB6E92" width="1000" height="2438.352"/>
</g>
<g id="Guias" display="none">
</g>
<g id="Icons">
	<g display="none" opacity="0.2">
		<path display="inline" fill="#FFFFFF" d="M-116.109-311.001c-11.282,3.636-35.885,28.281-38.51,36.153
			c-2.621,7.851,12.064,36.154,18.865,37.705c6.793,1.59,56.584-20.436,58.153-28.284
			C-76.029-273.298-104.827-314.68-116.109-311.001z"/>
		<path display="inline" fill="#FFFFFF" d="M-13.141-391.159c-10.498,0.494-88.546,59.726-88.033,69.146
			c0.519,9.423,29.359,46.629,37.729,47.951c8.363,1.301,70.221-78.341,72.307-88.814C10.947-373.372-2.669-391.698-13.141-391.159z
			"/>
		<path display="inline" fill="#FFFFFF" d="M301.794-677.604c-10.933-15.145-35.498-16.26-56.115-3.016
			c-7.87-4.009-17.022-7.233-27.767-9.215c0,0-391.394,317.515-477.854,378.833c0,0-3.302,7.003-8.775,18.407
			c98.108,68.715,86.956,120.568,86.956,120.568c-27.148-66.916-95.885-102.037-95.904-102.037
			c-24.626,50.699-68.835,139.307-92.309,172.114c0,0-0.04,18.015,22.025,29.48c0,0,150.072-101.024,193.329-109.639
			c0,0,23.883-23.283,60.697-58.922c-20.121,10.308-43.197,20.062-52.827,20.659c-16.772,1.053-36.153-39.437-34.583-53.776
			c1.569-14.338,153.521-139.574,176.038-137.984c22.54,1.57,29.875,22.518,30.414,37.725c0.205,6.548-13.655,26.546-30.414,48.012
			c113.258-108.669,256.182-243.843,297.084-273.841c0,0,0.414-10.661-3.141-24.688
			C306.336-640.271,312.349-662.936,301.794-677.604z M-313.61-95.007c0,0-2.542-32.478-33.638-43.818
			C-347.248-138.825-295.02-162.46-313.61-95.007z"/>
	</g>
	<path display="none" opacity="0.5" fill="#71C8EA" enable-background="new    " d="M1254.938-361.344l3.332,3.333
		c0,0,17-13.666,32.5-11.833c0,0,21-27.999,50-37.833c0,0,17.668-9.834,7.168-30.667s-24.327-12.938-31.168-8
		c-9.582,6.916-39.771,40.322-51.5,56.333C1265.27-390.011,1268.77-373.677,1254.938-361.344z"/>
	<path d="M31.591,7.658c-0.837-1.004-11.717-1.171-12.219,0c-0.187,0.435,0.568,1.97,1.651,3.73l-7.016,5.079L8.852,8.186
		c1.698-1.273,3.014-2.457,3.014-2.9c0-1.171-9.373-6.025-10.378-5.188c-1.005,0.837-1.172,11.717,0,12.219
		c0.472,0.202,2.235-0.703,4.181-1.935l6.048,7.748l-5.278,3.82c-1.047-1.426-2.055-2.574-2.415-2.574
		c-0.892,0-4.584,7.131-3.947,7.896s8.914,0.892,9.296,0c0.167-0.39-0.661-1.942-1.723-3.569l5.681-3.506l3.957,5.069
		c-1.583,1.137-2.916,2.278-2.916,2.67c0,0.901,7.212,4.637,7.983,3.993c0.773-0.645,0.901-9.016,0-9.402
		c-0.387-0.166-1.909,0.641-3.522,1.686l-3.333-5.354l7.445-4.597c1.475,2.052,2.953,3.777,3.459,3.777
		C27.573,18.036,32.428,8.663,31.591,7.658z"/>
</g>
</svg>
