<?xml version="1.0" encoding="utf-8"?>
<!-- Generator: Adobe Illustrator 16.0.4, SVG Export Plug-In . SVG Version: 6.00 Build 0)  -->
<!DOCTYPE svg PUBLIC "-//W3C//DTD SVG 1.1//EN" "http://www.w3.org/Graphics/SVG/1.1/DTD/svg11.dtd">
<svg version="1.1" fill="rgb(0, 14, 156)" xmlns="http://www.w3.org/2000/svg" xmlns:xlink="http://www.w3.org/1999/xlink" x="0px" y="0px"
	 width="32px" height="31.084px" viewBox="0 0 32 31.084" enable-background="new 0 0 32 31.084" xml:space="preserve">
<g id="Fondo_1_" display="none">
	<rect id="Fondo" x="-577.938" y="-1788.417" display="inline" fill="#FB6E92" width="1000" height="2438.351"/>
</g>
<g id="Guias" display="none">
</g>
<g id="Icons">
	<g display="none" opacity="0.2">
		<path display="inline" fill="#FFFFFF" d="M-167.929-311.896c-11.282,3.636-35.885,28.281-38.51,36.153
			c-2.621,7.851,12.065,36.154,18.865,37.705c6.793,1.59,56.584-20.436,58.154-28.284
			C-127.849-274.193-156.646-315.575-167.929-311.896z"/>
		<path display="inline" fill="#FFFFFF" d="M-64.96-392.055c-10.498,0.494-88.546,59.726-88.034,69.146
			c0.519,9.423,29.36,46.629,37.729,47.951c8.363,1.301,70.221-78.341,72.307-88.814C-40.872-374.268-54.488-392.594-64.96-392.055z
			"/>
		<path display="inline" fill="#FFFFFF" d="M249.975-678.499c-10.932-15.145-35.498-16.26-56.115-3.016
			c-7.869-4.009-17.022-7.233-27.767-9.215c0,0-391.393,317.515-477.854,378.833c0,0-3.302,7.003-8.776,18.407
			c98.109,68.715,86.957,120.568,86.957,120.568c-27.149-66.916-95.885-102.037-95.905-102.037
			c-24.626,50.699-68.835,139.307-92.308,172.114c0,0-0.04,18.015,22.025,29.48c0,0,150.072-101.024,193.329-109.639
			c0,0,23.883-23.283,60.697-58.922c-20.121,10.308-43.197,20.062-52.827,20.659c-16.772,1.053-36.153-39.437-34.583-53.776
			c1.57-14.338,153.521-139.574,176.038-137.984c22.54,1.57,29.875,22.518,30.414,37.725c0.205,6.548-13.655,26.546-30.414,48.012
			c113.26-108.668,256.182-243.842,297.086-273.84c0,0,0.414-10.661-3.141-24.688C254.518-641.167,260.529-663.831,249.975-678.499z
			 M-365.43-95.902c0,0-2.542-32.478-33.638-43.818C-399.067-139.721-346.839-163.355-365.43-95.902z"/>
	</g>
	<path display="none" opacity="0.5" fill="#71C8EA" enable-background="new    " d="M1203.117-362.239l3.333,3.333
		c0,0,17-13.666,32.5-11.833c0,0,21-27.999,50-37.833c0,0,17.667-9.834,7.167-30.667s-24.327-12.937-31.167-8
		c-9.583,6.916-39.771,40.322-51.5,56.333C1213.45-390.906,1216.95-374.572,1203.117-362.239z"/>
	<g>
		<path d="M18.158,14.176c0.71,0.596,10.021-2.076,9.935-2.782c-0.085-0.707-1.209-1.852-2.604-2.991c0,0,6.53-4.619,6.464-5.068
			c-0.066-0.448-3.771-3.137-4.145-3.124c-0.373,0.013-4.651,6.453-4.651,6.453c-1.642-1.125-3.112-1.949-3.353-1.854
			C19.236,5.036,17.447,13.579,18.158,14.176z"/>
		<path d="M28.875,31.083C29.141,31.147,32,27.319,32,26.938c0-0.379-6.455-4.651-6.455-4.651c1.126-1.642,1.95-3.112,1.854-3.353
			c-0.227-0.568-8.77-2.357-9.366-1.646c-0.595,0.71,2.077,10.021,2.782,9.936c0.709-0.086,1.852-1.209,2.992-2.604
			C23.807,24.619,28.609,31.019,28.875,31.083z"/>
		<path d="M13.841,13.968c0.711-0.598-1.077-9.141-1.646-9.367c-0.24-0.095-1.713,0.729-3.353,1.854C8.843,6.455,4.661,0,4.19,0
			S0.047,2.659,0.047,3.125c0,0.465,6.463,5.068,6.463,5.068c-1.395,1.141-2.518,2.284-2.603,2.991
			C3.821,11.892,13.131,14.563,13.841,13.968z"/>
		<path d="M13.967,17.289c-0.597-0.71-9.141,1.078-9.367,1.646c-0.095,0.239,0.729,1.713,1.854,3.354c0,0-6.48,4.164-6.454,4.65
			c0.026,0.487,2.77,4.141,3.124,4.146c0.355,0.005,5.069-6.465,5.069-6.465c1.14,1.396,2.284,2.521,2.991,2.604
			C11.891,27.31,14.562,17.999,13.967,17.289z"/>
	</g>
</g>
</svg>
