<?xml version="1.0" encoding="utf-8"?>
<!-- Generator: Adobe Illustrator 16.0.4, SVG Export Plug-In . SVG Version: 6.00 Build 0)  -->
<!DOCTYPE svg PUBLIC "-//W3C//DTD SVG 1.1//EN" "http://www.w3.org/Graphics/SVG/1.1/DTD/svg11.dtd">
<svg version="1.1" fill="rgb(0, 14, 156)" xmlns="http://www.w3.org/2000/svg" xmlns:xlink="http://www.w3.org/1999/xlink" x="0px" y="0px"
	 width="32px" height="31px" viewBox="0 0 32 31" enable-background="new 0 0 32 31" xml:space="preserve">
<g id="Fondo_1_" display="none">
	<rect id="Fondo" x="-629.959" y="-1787.522" display="inline" fill="#FB6E92" width="1000" height="2438.351"/>
</g>
<g id="Guias" display="none">
</g>
<g id="Icons">
	<g display="none" opacity="0.2">
		<path display="inline" fill="#FFFFFF" d="M-219.95-311.002c-11.282,3.636-35.885,28.281-38.51,36.153
			c-2.621,7.851,12.065,36.154,18.865,37.705c6.793,1.59,56.584-20.436,58.154-28.284
			C-179.87-273.299-208.668-314.681-219.95-311.002z"/>
		<path display="inline" fill="#FFFFFF" d="M-116.981-391.16c-10.498,0.494-88.546,59.726-88.034,69.146
			c0.519,9.423,29.36,46.629,37.729,47.951c8.363,1.301,70.221-78.341,72.307-88.814C-92.894-373.373-106.51-391.699-116.981-391.16
			z"/>
		<path display="inline" fill="#FFFFFF" d="M197.953-677.604c-10.932-15.145-35.498-16.26-56.115-3.016
			c-7.87-4.009-17.023-7.233-27.768-9.215c0,0-391.393,317.515-477.854,378.833c0,0-3.302,7.003-8.776,18.407
			c98.109,68.715,86.957,120.568,86.957,120.568c-27.149-66.916-95.885-102.037-95.905-102.037
			c-24.626,50.699-68.835,139.307-92.308,172.114c0,0-0.04,18.015,22.025,29.48c0,0,150.072-101.024,193.329-109.639
			c0,0,23.883-23.283,60.697-58.922c-20.121,10.308-43.197,20.062-52.827,20.659c-16.772,1.053-36.153-39.437-34.583-53.776
			c1.57-14.338,153.521-139.574,176.038-137.984c22.54,1.57,29.875,22.518,30.414,37.725c0.205,6.548-13.655,26.546-30.414,48.012
			C4.124-435.063,147.048-570.237,187.95-600.235c0,0,0.413-10.661-3.14-24.688C202.495-640.272,208.508-662.937,197.953-677.604z
			 M-417.451-95.008c0,0-2.542-32.478-33.638-43.818C-451.089-138.826-398.86-162.461-417.451-95.008z"/>
	</g>
	<path display="none" opacity="0.5" fill="#71C8EA" enable-background="new    " d="M1151.096-361.345l3.333,3.333
		c0,0,17-13.666,32.5-11.833c0,0,21-27.999,50-37.833c0,0,17.667-9.834,7.167-30.667c-10.5-20.833-24.327-12.938-31.167-8
		c-9.583,6.916-39.771,40.322-51.5,56.333C1161.429-390.012,1164.929-373.678,1151.096-361.345z"/>
	<g>
		<path d="M17.971,11.686c0.69-1.38-16.96-12.344-17.822-11.654c-0.862,0.69,2.242,20.351,3.967,20.522
			C5.84,20.727,17.281,13.065,17.971,11.686z"/>
		<path d="M27.189,20.671c-0.187,0.123-0.289,0.925-0.32,1.897l-3.049,0.174l0.127-3.568c0.998-0.059,1.824-0.183,1.939-0.357
			c0.305-0.459-2.121-4.812-2.732-4.742c-0.613,0.067-3.512,4.307-3.182,4.809c0.133,0.202,1.062,0.307,2.148,0.327l0.363,3.589
			l-3.072,0.131c-0.041-0.834-0.139-1.549-0.28-1.643c-0.353-0.232-3.662,1.613-3.61,2.079c0.052,0.467,3.276,2.672,3.66,2.42
			c0.166-0.109,0.244-0.937,0.25-1.853l3.149,0.099l0.237,3.024c-0.92,0.035-1.741,0.139-1.844,0.293
			c-0.234,0.354,1.633,3.701,2.104,3.649c0.472-0.054,2.702-3.313,2.446-3.701c-0.108-0.166-0.918-0.245-1.824-0.254l0.082-2.976
			l3.093,0.13c0.046,1.19,0.179,2.256,0.378,2.388c0.461,0.307,4.812-2.12,4.744-2.732C31.932,23.239,27.691,20.341,27.189,20.671z"
			/>
	</g>
</g>
</svg>
