<?xml version="1.0" encoding="utf-8"?>
<!-- Generator: Adobe Illustrator 16.0.4, SVG Export Plug-In . SVG Version: 6.00 Build 0)  -->
<!DOCTYPE svg PUBLIC "-//W3C//DTD SVG 1.1//EN" "http://www.w3.org/Graphics/SVG/1.1/DTD/svg11.dtd">
<svg version="1.1" fill="rgb(0, 14, 156)" xmlns="http://www.w3.org/2000/svg" xmlns:xlink="http://www.w3.org/1999/xlink" x="0px" y="0px"
	 width="25.09px" height="32px" viewBox="0 0 25.09 32" enable-background="new 0 0 25.09 32" xml:space="preserve">
<g id="Fondo_1_" display="none">
	<rect id="Fondo" x="-686.411" y="-1787.522" display="inline" fill="#FB6E92" width="1000" height="2438.351"/>
</g>
<g id="Guias" display="none">
</g>
<g id="Icons">
	<g display="none" opacity="0.2">
		<path display="inline" fill="#FFFFFF" d="M-276.401-311.002c-11.282,3.636-35.885,28.281-38.51,36.153
			c-2.621,7.851,12.065,36.154,18.865,37.705c6.793,1.59,56.584-20.436,58.154-28.284
			C-236.321-273.299-265.119-314.681-276.401-311.002z"/>
		<path display="inline" fill="#FFFFFF" d="M-173.433-391.16c-10.498,0.494-88.546,59.726-88.034,69.146
			c0.519,9.423,29.36,46.629,37.729,47.951c8.363,1.301,70.221-78.341,72.307-88.814
			C-149.345-373.373-162.961-391.699-173.433-391.16z"/>
		<path display="inline" fill="#FFFFFF" d="M141.502-677.604c-10.933-15.145-35.498-16.26-56.115-3.016
			c-7.87-4.009-17.023-7.233-27.768-9.215c0,0-391.393,317.515-477.854,378.833c0,0-3.302,7.003-8.776,18.407
			c98.109,68.715,86.957,120.568,86.957,120.568c-27.149-66.916-95.885-102.037-95.905-102.037
			c-24.626,50.699-68.835,139.307-92.308,172.114c0,0-0.04,18.015,22.025,29.48c0,0,150.072-101.024,193.329-109.639
			c0,0,23.883-23.283,60.697-58.922c-20.121,10.308-43.197,20.062-52.827,20.659c-16.772,1.053-36.153-39.437-34.583-53.776
			c1.57-14.338,153.521-139.574,176.038-137.984c22.54,1.57,29.875,22.518,30.414,37.725c0.205,6.548-13.655,26.546-30.414,48.012
			c113.26-108.668,256.184-243.842,297.085-273.84c0,0,0.414-10.661-3.14-24.688C146.043-640.272,152.057-662.937,141.502-677.604z
			 M-473.902-95.008c0,0-2.542-32.478-33.638-43.818C-507.54-138.826-455.312-162.461-473.902-95.008z"/>
	</g>
	<path display="none" opacity="0.5" fill="#71C8EA" enable-background="new    " d="M1094.645-361.345l3.334,3.333
		c0,0,17-13.666,32.5-11.833c0,0,21-27.999,50-37.833c0,0,17.666-9.834,7.166-30.667c-10.5-20.833-24.326-12.938-31.166-8
		c-9.584,6.916-39.771,40.322-51.5,56.333C1104.979-390.012,1108.479-373.678,1094.645-361.345z"/>
	<path d="M17.736,0C7.416,0-0.32,9.535,0.011,12.947c0.209,2.166,1.82,3.673,4.135,4.532c-0.09,0.256-0.131,0.492-0.105,0.686
		c0.136,1.014,1.877,2.391,3.033,2.311c0.223-0.016,0.414-0.111,0.579-0.256c0.22,1.721,0.487,6.43-2.869,7.811
		c-1.148,0.475,0.541,4.73,2.568,3.853c0.679-0.294,4.171-3.515,2.285-11.769c0.507-0.243,1.022-0.555,1.363-0.731
		c0.456-0.237,0.765-0.673,0.963-1.187c4.066-0.471,8.222-2.094,10.77-4.843C25.907,9.927,27.237,0,17.736,0z M20.95,12.619
		c-2.062,2.224-5.396,3.554-8.688,3.971c0.022-0.652-0.056-1.269-0.182-1.67c-0.202-0.648-1.01-1.031-1.889-1.031
		c-0.732,0-2.124,1.001-2.762,1.882c-0.317-0.5-0.657-0.873-0.958-0.85c-0.361,0.028-0.857,0.411-1.31,0.922
		c-1.664-0.731-2.8-1.914-2.958-3.557C1.932,9.471,8.314,1.605,16.829,1.605C24.667,1.605,23.567,9.794,20.95,12.619z"/>
</g>
</svg>
