<?xml version="1.0" encoding="utf-8"?>
<!-- Generator: Adobe Illustrator 16.0.4, SVG Export Plug-In . SVG Version: 6.00 Build 0)  -->
<!DOCTYPE svg PUBLIC "-//W3C//DTD SVG 1.1//EN" "http://www.w3.org/Graphics/SVG/1.1/DTD/svg11.dtd">
<svg version="1.1" fill="rgb(0, 14, 156)" xmlns="http://www.w3.org/2000/svg" xmlns:xlink="http://www.w3.org/1999/xlink" x="0px" y="0px"
	 width="32px" height="31.605px" viewBox="0 0 32 31.605" enable-background="new 0 0 32 31.605" xml:space="preserve">
<g id="Fondo_1_" display="none">
	<rect id="Fondo" x="-733.955" y="-1787.916" display="inline" fill="#FB6E92" width="1000" height="2438.352"/>
</g>
<g id="Guias" display="none">
</g>
<g id="Icons">
	<g display="none" opacity="0.2">
		<path display="inline" fill="#FFFFFF" d="M-323.945-311.396c-11.282,3.637-35.885,28.281-38.51,36.153
			c-2.621,7.851,12.065,36.154,18.865,37.705c6.793,1.59,56.584-20.437,58.154-28.284
			C-283.865-273.692-312.663-315.074-323.945-311.396z"/>
		<path display="inline" fill="#FFFFFF" d="M-220.977-391.553c-10.498,0.493-88.546,59.726-88.034,69.146
			c0.519,9.423,29.36,46.629,37.729,47.951c8.363,1.301,70.221-78.341,72.307-88.814
			C-196.889-373.767-210.505-392.093-220.977-391.553z"/>
		<path display="inline" fill="#FFFFFF" d="M93.958-677.998c-10.933-15.146-35.498-16.26-56.115-3.016
			c-7.87-4.01-17.022-7.233-27.767-9.216c0,0-391.393,317.516-477.854,378.833c0,0-3.302,7.003-8.776,18.407
			c98.109,68.715,86.957,120.568,86.957,120.568c-27.149-66.916-95.885-102.037-95.905-102.037
			c-24.626,50.699-68.835,139.307-92.308,172.114c0,0-0.04,18.015,22.025,29.479c0,0,150.072-101.024,193.329-109.639
			c0,0,23.883-23.283,60.697-58.922c-20.121,10.308-43.197,20.062-52.827,20.658c-16.772,1.054-36.153-39.437-34.583-53.775
			c1.57-14.338,153.521-139.574,176.038-137.984c22.54,1.57,29.875,22.519,30.414,37.726c0.205,6.548-13.655,26.546-30.414,48.012
			c113.26-108.668,256.184-243.842,297.086-273.84c0,0,0.414-10.661-3.141-24.688C98.5-640.666,104.514-663.33,93.958-677.998z
			 M-521.446-95.401c0,0-2.542-32.478-33.638-43.817C-555.084-139.219-502.855-162.854-521.446-95.401z"/>
	</g>
	<path display="none" opacity="0.5" fill="#71C8EA" enable-background="new    " d="M1047.101-361.738l3.333,3.333
		c0,0,17-13.666,32.5-11.833c0,0,21-27.999,50-37.833c0,0,17.667-9.834,7.167-30.667s-24.327-12.937-31.167-8
		c-9.583,6.916-39.771,40.322-51.5,56.333C1057.434-390.405,1060.934-374.071,1047.101-361.738z"/>
	<g>
		<path d="M21.186,26.455c-2.66,1.721-5.554,2.656-8.271,2.766l0.024,2.386c3.229-0.067,6.638-1.133,9.733-3.153L21.186,26.455z"/>
		<path d="M22.268,2.679c1.828,0.439,3.469,1.328,4.76,2.688c0.681,0.718,1.225,1.524,1.636,2.396l2.131-0.952
			c-0.517-1.098-1.2-2.118-2.058-3.025c-1.579-1.675-3.567-2.78-5.766-3.347L22.268,2.679z"/>
		<path d="M28.593,17.559l2.38,0.563c1.117-3.103,1.336-6.297,0.596-9.15L29.359,9.81C29.904,12.214,29.63,14.919,28.593,17.559z"/>
		<path d="M11.768,4.467c2.734-1.515,5.65-2.229,8.33-2.097l0.582-2.315c-3.275-0.279-6.838,0.521-10.13,2.359L11.768,4.467z"/>
		<path d="M27.657,19.554c-0.921,1.676-2.156,3.284-3.688,4.723c-0.339,0.318-0.686,0.618-1.039,0.906l1.6,1.908
			c0.395-0.323,0.783-0.66,1.162-1.018c1.854-1.75,3.311-3.733,4.356-5.808L27.657,19.554z"/>
		<path d="M10.755,29.128c-2.301-0.302-4.377-1.26-5.94-2.908c-0.604-0.636-1.096-1.344-1.487-2.103l-2.156,0.602
			c0.522,1.128,1.216,2.176,2.093,3.105c1.958,2.074,4.545,3.28,7.381,3.657L10.755,29.128z"/>
		<path d="M1.53,12.231C0.004,15.677-0.4,19.316,0.404,22.53l2.143-0.468c-0.688-2.688-0.327-5.783,1-8.749L1.53,12.231z"/>
		<path d="M4.566,11.375c0.871-1.438,1.977-2.814,3.307-4.063c0.665-0.624,1.359-1.187,2.073-1.694L8.617,3.644
			C7.821,4.211,7.048,4.84,6.309,5.536c-1.5,1.417-2.74,2.984-3.715,4.631L4.566,11.375z"/>
	</g>
</g>
</svg>
