<?xml version="1.0" encoding="utf-8"?>
<!-- Generator: Adobe Illustrator 16.0.4, SVG Export Plug-In . SVG Version: 6.00 Build 0)  -->
<!DOCTYPE svg PUBLIC "-//W3C//DTD SVG 1.1//EN" "http://www.w3.org/Graphics/SVG/1.1/DTD/svg11.dtd">
<svg version="1.1" fill="rgb(0, 14, 156)" xmlns="http://www.w3.org/2000/svg" xmlns:xlink="http://www.w3.org/1999/xlink" x="0px" y="0px"
	 width="32px" height="27.564px" viewBox="0 0 32 27.564" enable-background="new 0 0 32 27.564" xml:space="preserve">
<g id="Fondo_1_" display="none">
	<rect id="Fondo" x="-785.777" y="-1789.74" display="inline" fill="#FB6E92" width="1000" height="2438.352"/>
</g>
<g id="Guias" display="none">
</g>
<g id="Icons">
	<g display="none" opacity="0.2">
		<path display="inline" fill="#FFFFFF" d="M-375.768-313.22c-11.282,3.636-35.885,28.281-38.51,36.153
			c-2.621,7.851,12.065,36.153,18.865,37.705c6.793,1.59,56.584-20.437,58.154-28.284
			C-335.688-275.517-364.485-316.898-375.768-313.22z"/>
		<path display="inline" fill="#FFFFFF" d="M-272.799-393.378c-10.498,0.494-88.546,59.727-88.034,69.146
			c0.519,9.423,29.36,46.629,37.729,47.95c8.363,1.302,70.221-78.341,72.307-88.813
			C-248.711-375.591-262.327-393.917-272.799-393.378z"/>
		<path display="inline" fill="#FFFFFF" d="M42.137-679.823c-10.933-15.145-35.499-16.26-56.116-3.016
			c-7.87-4.009-17.023-7.233-27.767-9.215c0,0-391.393,317.515-477.854,378.833c0,0-3.302,7.003-8.776,18.407
			c98.109,68.715,86.957,120.567,86.957,120.567c-27.149-66.916-95.885-102.037-95.905-102.037
			c-24.626,50.699-68.835,139.308-92.308,172.114c0,0-0.04,18.016,22.025,29.48c0,0,150.072-101.024,193.329-109.64
			c0,0,23.883-23.282,60.697-58.922c-20.121,10.309-43.197,20.062-52.827,20.659c-16.771,1.053-36.153-39.438-34.583-53.776
			c1.57-14.338,153.521-139.573,176.038-137.983c22.54,1.569,29.875,22.518,30.414,37.725c0.205,6.548-13.655,26.546-30.414,48.012
			C-151.693-437.281-8.77-572.455,32.133-602.453c0,0,0.414-10.661-3.14-24.688C46.678-642.49,52.689-665.155,42.137-679.823z
			 M-573.269-97.226c0,0-2.542-32.479-33.638-43.818C-606.906-141.044-554.678-164.679-573.269-97.226z"/>
	</g>
	<path display="none" opacity="0.5" fill="#71C8EA" enable-background="new    " d="M995.278-363.562l3.333,3.333
		c0,0,17-13.666,32.5-11.833c0,0,21-27.999,50-37.833c0,0,17.667-9.834,7.167-30.667s-24.327-12.938-31.167-8
		c-9.583,6.916-39.771,40.321-51.5,56.333C1005.611-392.229,1009.111-375.896,995.278-363.562z"/>
	<g>
		<path d="M13.947,2.141C11.579,2.591,9.264,3.075,7.226,3.55l0.259,2.333c1.948-0.414,4.285-0.859,6.696-1.278L13.947,2.141z"/>
		<path d="M15.48,27.51l0.161-2.356c-2.468-0.043-4.876-0.111-6.824-0.188l-0.124,2.363C10.724,27.402,13.076,27.467,15.48,27.51z"
			/>
		<path d="M29.636,17.759l2.306,0.1c0.055-2.302,0.072-4.789,0.051-7.153l-2.253-0.06C29.753,12.957,29.716,15.488,29.636,17.759z"
			/>
		<path d="M25.648,2.997c1.92-0.161,3.246-0.157,3.535,0.095c0.297,0.263,0.465,2.558,0.527,5.562l2.252,0.096
			c-0.086-4.545-0.335-8.232-0.771-8.546c-0.465-0.333-2.729-0.23-5.838,0.132L25.648,2.997z"/>
		<path d="M23.418,0.58c-2.311,0.313-4.922,0.732-7.542,1.204l0.276,2.486c2.663-0.438,5.306-0.822,7.515-1.074L23.418,0.58z"/>
		<path d="M25.242,25.126c-2.09,0.075-4.828,0.084-7.633,0.055l-0.125,2.359c2.688,0.033,5.343,0.035,7.593-0.011L25.242,25.126z"/>
		<path d="M6.853,24.877c-1.348-0.068-2.233-0.141-2.388-0.2c-0.244-0.095-0.559-1.504-0.87-3.481l-2.322,0.228
			c0.422,3.059,0.868,5.382,1.204,5.517c0.23,0.092,1.852,0.205,4.215,0.311L6.853,24.877z"/>
		<path d="M2.52,11.778c-0.183-2.346-0.241-4.159-0.081-4.47c0.105-0.206,1.279-0.562,3.08-0.987L5.3,4.02
			C2.365,4.768,0.326,5.464,0.101,5.945c-0.19,0.406-0.094,2.893,0.156,6.02L2.52,11.778z"/>
		<path d="M29.551,19.748c-0.136,2.653-0.339,4.635-0.592,4.929c-0.128,0.149-0.764,0.262-1.748,0.342l-0.129,2.453
			c2.307-0.095,3.884-0.263,4.109-0.533c0.326-0.392,0.562-3.33,0.693-7.127L29.551,19.748z"/>
		<path d="M1.017,19.45l2.297-0.189c-0.235-1.756-0.456-3.72-0.627-5.544l-2.26,0.223C0.593,15.75,0.797,17.663,1.017,19.45z"/>
	</g>
</g>
</svg>
