<?xml version="1.0" encoding="utf-8"?>
<!-- Generator: Adobe Illustrator 16.0.4, SVG Export Plug-In . SVG Version: 6.00 Build 0)  -->
<!DOCTYPE svg PUBLIC "-//W3C//DTD SVG 1.1//EN" "http://www.w3.org/Graphics/SVG/1.1/DTD/svg11.dtd">
<svg version="1.1" fill="rgb(0, 14, 156)" xmlns="http://www.w3.org/2000/svg" xmlns:xlink="http://www.w3.org/1999/xlink" x="0px" y="0px"
	 width="31.602px" height="32px" viewBox="0 0 31.602 32" enable-background="new 0 0 31.602 32" xml:space="preserve">
<g id="Fondo_1_" display="none">
	<rect id="Fondo" x="-837.922" y="-1787.457" display="inline" fill="#FB6E92" width="1000" height="2438.352"/>
</g>
<g id="Guias" display="none">
</g>
<g id="Icons">
	<g display="none" opacity="0.2">
		<path display="inline" fill="#FFFFFF" d="M-427.913-310.937c-11.282,3.636-35.885,28.281-38.51,36.153
			c-2.621,7.851,12.064,36.154,18.864,37.705c6.793,1.59,56.584-20.436,58.154-28.284
			C-387.833-273.233-416.631-314.615-427.913-310.937z"/>
		<path display="inline" fill="#FFFFFF" d="M-324.944-391.095c-10.498,0.494-88.546,59.726-88.034,69.146
			c0.52,9.423,29.36,46.629,37.729,47.951c8.363,1.301,70.221-78.341,72.307-88.814
			C-300.856-373.308-314.473-391.634-324.944-391.095z"/>
		<path display="inline" fill="#FFFFFF" d="M-10.01-677.539c-10.933-15.145-35.498-16.26-56.115-3.016
			c-7.87-4.009-17.023-7.233-27.768-9.215c0,0-391.393,317.515-477.854,378.833c0,0-3.302,7.003-8.776,18.407
			c98.109,68.715,86.957,120.568,86.957,120.568c-27.148-66.916-95.885-102.037-95.904-102.037
			c-24.626,50.699-68.836,139.307-92.309,172.114c0,0-0.04,18.015,22.025,29.479c0,0,150.072-101.024,193.329-109.639
			c0,0,23.883-23.283,60.696-58.922c-20.121,10.308-43.196,20.062-52.826,20.659c-16.772,1.053-36.153-39.437-34.583-53.776
			c1.569-14.338,153.521-139.574,176.037-137.984c22.54,1.57,29.875,22.518,30.414,37.725c0.205,6.548-13.654,26.546-30.414,48.012
			C-203.839-434.998-60.915-570.172-20.013-600.17c0,0,0.414-10.661-3.14-24.688C-5.468-640.207,0.545-662.871-10.01-677.539z
			 M-625.414-94.942c0,0-2.542-32.478-33.638-43.818C-659.052-138.761-606.823-162.396-625.414-94.942z"/>
	</g>
	<path display="none" opacity="0.5" fill="#71C8EA" enable-background="new    " d="M943.133-361.279l3.333,3.333
		c0,0,17-13.666,32.5-11.833c0,0,21-27.999,50-37.833c0,0,17.667-9.834,7.167-30.667s-24.327-12.937-31.167-8
		c-9.583,6.916-39.771,40.322-51.5,56.333C953.466-389.946,956.966-373.612,943.133-361.279z"/>
	<g>
		<path d="M13.466,8.54c-1.008-1.375,1.283-7.239,1.283-7.239S11.45,6.799,9.434,6.615C7.418,6.432,4.852,0.04,4.852,0.04
			s2.476,6.667,1.191,8.134C4.76,9.64,0.361,8.906,0.361,8.906s4.856,1.649,5.225,3.024c0.263,0.987-1.177,3.395-2.008,4.671
			c2.239-3.059,4.669-3.269,5.811-2.931c1.237,0.366,2.429,5.683,2.429,5.683s-0.916-5.866,0.551-6.965
			c1.466-1.1,6.048-1.283,6.048-1.283S14.474,9.914,13.466,8.54z"/>
		<path d="M3.577,16.604c-0.188,0.256-0.374,0.528-0.56,0.826C3.019,17.43,3.251,17.104,3.577,16.604z"/>
		<ellipse transform="matrix(0.961 0.2765 -0.2765 0.961 0.8895 -2.7504)" cx="10.198" cy="1.779" rx="1.313" ry="1.812"/>
		<ellipse transform="matrix(0.9611 0.2763 -0.2763 0.9611 2.3755 -4.5024)" cx="17.163" cy="6.178" rx="1.313" ry="1.812"/>
		<ellipse transform="matrix(-0.9612 -0.2759 0.2759 -0.9612 10.0258 37.2288)" cx="7.632" cy="17.909" rx="1.313" ry="1.812"/>
		<ellipse transform="matrix(-0.3239 -0.9461 0.9461 -0.3239 -10.0973 19.0705)" cx="1.765" cy="13.143" rx="1.313" ry="1.812"/>
		<ellipse transform="matrix(0.8274 -0.5616 0.5616 0.8274 -2.3579 2.4854)" cx="2.865" cy="5.079" rx="1.314" ry="1.812"/>
		<path d="M31.428,28.334C31.07,27.26,15.757,14.405,15.116,14.038c-0.643-0.366-1.649,0-1.649,1.009
			C13.466,16.055,27.67,32,29.045,32S32.161,30.534,31.428,28.334z"/>
	</g>
</g>
</svg>
