<?xml version="1.0" encoding="utf-8"?>
<!-- Generator: Adobe Illustrator 16.0.4, SVG Export Plug-In . SVG Version: 6.00 Build 0)  -->
<!DOCTYPE svg PUBLIC "-//W3C//DTD SVG 1.1//EN" "http://www.w3.org/Graphics/SVG/1.1/DTD/svg11.dtd">
<svg version="1.1" fill="rgb(0, 14, 156)" xmlns="http://www.w3.org/2000/svg" xmlns:xlink="http://www.w3.org/1999/xlink" x="0px" y="0px"
	 width="32px" height="31.043px" viewBox="0 0 32 31.043" enable-background="new 0 0 32 31.043" xml:space="preserve">
<g id="Fondo_1_" display="none">
	<rect id="Fondo" x="-161.966" y="-1852.001" display="inline" fill="#FB6E92" width="1000" height="2438.351"/>
</g>
<g id="Guias" display="none">
</g>
<g id="Icons">
	<g display="none" opacity="0.2">
		<path display="inline" fill="#FFFFFF" d="M248.043-375.48c-11.281,3.636-35.885,28.281-38.51,36.153
			c-2.621,7.851,12.064,36.154,18.865,37.705c6.793,1.59,56.584-20.436,58.153-28.284
			C288.123-337.777,259.325-379.159,248.043-375.48z"/>
		<path display="inline" fill="#FFFFFF" d="M351.012-455.639c-10.498,0.494-88.546,59.726-88.033,69.146
			c0.519,9.423,29.359,46.629,37.729,47.951c8.363,1.301,70.221-78.341,72.307-88.814
			C375.1-437.852,361.483-456.178,351.012-455.639z"/>
		<path display="inline" fill="#FFFFFF" d="M665.946-742.083c-10.933-15.145-35.498-16.26-56.115-3.016
			c-7.87-4.009-17.023-7.233-27.767-9.215c0,0-391.394,317.515-477.854,378.833c0,0-3.302,7.003-8.776,18.407
			c98.109,68.715,86.957,120.568,86.957,120.568c-27.148-66.916-95.885-102.037-95.904-102.037
			c-24.627,50.7-68.836,139.308-92.307,172.115c0,0-0.04,18.015,22.025,29.479c0,0,150.071-101.024,193.329-109.639
			c0,0,23.883-23.283,60.697-58.922c-20.121,10.308-43.197,20.062-52.828,20.659c-16.771,1.053-36.152-39.437-34.582-53.776
			c1.57-14.338,153.521-139.574,176.038-137.984c22.54,1.57,29.875,22.518,30.413,37.725c0.205,6.548-13.654,26.546-30.413,48.012
			C472.116-499.542,615.04-634.716,655.942-664.714c0,0,0.414-10.661-3.141-24.688C670.488-704.751,676.501-727.415,665.946-742.083
			z M50.542-159.486c0,0-2.542-32.478-33.638-43.818C16.904-203.305,69.133-226.939,50.542-159.486z"/>
	</g>
	<path display="none" opacity="0.5" fill="#71C8EA" enable-background="new    " d="M1619.089-425.823l3.333,3.333
		c0,0,17-13.666,32.5-11.833c0,0,21-27.999,50-37.833c0,0,17.667-9.834,7.167-30.667s-24.327-12.937-31.167-8
		c-9.583,6.916-39.771,40.322-51.5,56.333C1629.422-454.49,1632.922-438.156,1619.089-425.823z"/>
	<g>
		<path d="M10.757,14.572c-3.088,0.214-6.041,2.995-7.14,4.771c-1.094,1.765-3.711,3.699-3.614,3.914
			c0.096,0.214,3.791-1.514,3.791-1.514S0.36,30.27,0.739,30.331c0.38,0.062,7.383-4.816,7.383-4.816s-4.006,5.396-3.496,5.527
			c0.246,0.065,3.041-1.076,5.257-3.043c2.399-2.127,3.226-3.236,3.226-3.236s-3.116,5.723-2.784,5.688
			c0.278-0.029,8.271-6.015,6.377-11.576C14.628,14.834,10.757,14.572,10.757,14.572z"/>
		<path d="M15.216,14.203c-1.244-0.471-2.607-0.185-3.627,0.639c6.521-0.829,5.468,4.895,5.468,4.895
			c0.07-0.132,0.137-0.267,0.193-0.408c0.318-0.781,0.383-1.598,0.24-2.352C17.119,15.022,15.216,14.203,15.216,14.203z"/>
		<path d="M29.889,0.063c-0.654,0.21-12.883,12.359-14.673,14.14c3.53-1.122,2.274,2.773,2.274,2.773
			C19.482,14.948,31.85,2.343,31.988,1.593C32.135,0.779,30.925-0.271,29.889,0.063z"/>
	</g>
</g>
</svg>
