<?xml version="1.0" encoding="utf-8"?>
<!-- Generator: Adobe Illustrator 16.0.4, SVG Export Plug-In . SVG Version: 6.00 Build 0)  -->
<!DOCTYPE svg PUBLIC "-//W3C//DTD SVG 1.1//EN" "http://www.w3.org/Graphics/SVG/1.1/DTD/svg11.dtd">
<svg version="1.1" fill="rgb(0, 14, 156)" xmlns="http://www.w3.org/2000/svg" xmlns:xlink="http://www.w3.org/1999/xlink" x="0px" y="0px"
	 width="20.175px" height="32px" viewBox="0 0 20.175 32" enable-background="new 0 0 20.175 32" xml:space="preserve">
<g id="Fondo_1_" display="none">
	<rect id="Fondo" x="-221.475" y="-1851.522" display="inline" fill="#FB6E92" width="1000" height="2438.351"/>
</g>
<g id="Guias" display="none">
</g>
<g id="Icons">
	<g display="none" opacity="0.2">
		<path display="inline" fill="#FFFFFF" d="M188.535-375.002c-11.281,3.636-35.885,28.281-38.51,36.153
			c-2.621,7.851,12.064,36.154,18.865,37.705c6.793,1.59,56.584-20.436,58.154-28.284
			C228.615-337.299,199.817-378.681,188.535-375.002z"/>
		<path display="inline" fill="#FFFFFF" d="M291.503-455.16c-10.498,0.494-88.547,59.726-88.035,69.146
			c0.52,9.423,29.361,46.629,37.73,47.951c8.362,1.301,70.221-78.341,72.307-88.814C315.591-437.373,301.975-455.699,291.503-455.16
			z"/>
		<path display="inline" fill="#FFFFFF" d="M606.437-741.604c-10.932-15.145-35.496-16.26-56.113-3.016
			c-7.871-4.009-17.023-7.233-27.768-9.215c0,0-391.393,317.515-477.854,378.833c0,0-3.303,7.003-8.777,18.407
			c98.109,68.715,86.957,120.568,86.957,120.568c-27.148-66.916-95.885-102.037-95.904-102.037
			c-24.626,50.7-68.835,139.307-92.308,172.115c0,0-0.04,18.015,22.025,29.48c0,0,150.072-101.024,193.329-109.639
			c0,0,23.884-23.283,60.697-58.922c-20.121,10.308-43.197,20.062-52.827,20.659c-16.771,1.053-36.152-39.437-34.583-53.776
			c1.569-14.338,153.521-139.574,176.038-137.984c22.539,1.57,29.875,22.518,30.414,37.725c0.205,6.548-13.654,26.546-30.414,48.012
			c113.258-108.669,256.182-243.843,297.084-273.841c0,0,0.414-10.661-3.141-24.688C610.98-704.272,616.994-726.937,606.437-741.604
			z M-8.966-159.008c0,0-2.542-32.478-33.638-43.818C-42.604-202.826,9.625-226.461-8.966-159.008z"/>
	</g>
	<path display="none" opacity="0.5" fill="#71C8EA" enable-background="new    " d="M1559.582-425.345l3.332,3.333
		c0,0,17-13.666,32.5-11.833c0,0,21-27.999,50-37.833c0,0,17.668-9.834,7.168-30.667c-10.5-20.833-24.328-12.938-31.168-8
		c-9.582,6.916-39.771,40.322-51.5,56.333C1569.914-454.012,1573.414-437.678,1559.582-425.345z"/>
	<path d="M16.893,14.501L16.893,14.501c-0.001-0.001-0.003-0.003-0.005-0.005c-0.124-0.112-0.25-0.222-0.379-0.328
		c-5.387-4.807-5.623-14.021-6.396-14.167C9.758-0.066,4.996,5.829,2.688,10.63c-4.259,8.856-2.18,14.32-2.18,14.32l0,0
		C1.789,29.036,5.604,32,10.112,32c5.558,0,10.063-4.505,10.063-10.062C20.175,18.991,18.91,16.342,16.893,14.501z"/>
</g>
</svg>
