<?xml version="1.0" encoding="utf-8"?>
<!-- Generator: Adobe Illustrator 16.0.4, SVG Export Plug-In . SVG Version: 6.00 Build 0)  -->
<!DOCTYPE svg PUBLIC "-//W3C//DTD SVG 1.1//EN" "http://www.w3.org/Graphics/SVG/1.1/DTD/svg11.dtd">
<svg version="1.1" fill="rgb(0, 14, 156)" xmlns="http://www.w3.org/2000/svg" xmlns:xlink="http://www.w3.org/1999/xlink" x="0px" y="0px"
	 width="28.382px" height="32px" viewBox="0 0 28.382 32" enable-background="new 0 0 28.382 32" xml:space="preserve">
<g id="Fondo_1_" display="none">
	<rect id="Fondo" x="-268.18" y="-1851.523" display="inline" fill="#FB6E92" width="1000" height="2438.351"/>
</g>
<g id="Guias" display="none">
</g>
<g id="Icons">
	<g display="none" opacity="0.2">
		<path display="inline" fill="#FFFFFF" d="M141.83-375.003c-11.283,3.636-35.886,28.281-38.511,36.153
			c-2.62,7.851,12.065,36.154,18.865,37.705c6.793,1.59,56.584-20.436,58.153-28.284C181.91-337.3,153.111-378.682,141.83-375.003z"
			/>
		<path display="inline" fill="#FFFFFF" d="M244.798-455.161c-10.498,0.494-88.547,59.726-88.034,69.146
			c0.519,9.423,29.36,46.629,37.729,47.951c8.362,1.301,70.221-78.341,72.307-88.814C268.886-437.374,255.27-455.7,244.798-455.161z
			"/>
		<path display="inline" fill="#FFFFFF" d="M559.732-741.605c-10.932-15.145-35.498-16.26-56.115-3.016
			c-7.869-4.009-17.023-7.233-27.768-9.215c0,0-391.393,317.515-477.853,378.833c0,0-3.302,7.003-8.776,18.407
			c98.109,68.715,86.957,120.568,86.957,120.568c-27.149-66.916-95.885-102.037-95.905-102.037
			c-24.626,50.699-68.835,139.307-92.308,172.114c0,0-0.04,18.015,22.025,29.48c0,0,150.072-101.024,193.329-109.639
			c0,0,23.883-23.283,60.697-58.922c-20.121,10.308-43.197,20.062-52.827,20.659c-16.772,1.053-36.153-39.437-34.583-53.776
			c1.57-14.338,153.521-139.574,176.038-137.984c22.54,1.57,29.875,22.518,30.414,37.725c0.205,6.548-13.655,26.546-30.414,48.012
			c113.259-108.669,256.183-243.843,297.083-273.841c0,0,0.414-10.661-3.139-24.688
			C564.275-704.273,570.287-726.938,559.732-741.605z M-55.672-159.009c0,0-2.542-32.478-33.638-43.818
			C-89.31-202.827-37.081-226.462-55.672-159.009z"/>
	</g>
	<path display="none" opacity="0.5" fill="#71C8EA" enable-background="new    " d="M1512.875-425.346l3.334,3.333
		c0,0,17-13.666,32.5-11.833c0,0,21-27.999,50-37.833c0,0,17.666-9.834,7.166-30.667s-24.326-12.937-31.166-8
		c-9.584,6.916-39.771,40.322-51.5,56.333C1523.208-454.013,1526.708-437.679,1512.875-425.346z"/>
	<path d="M28.382,29.433L17.02,18.641c1.065-1.382,1.885-3.046,2.34-4.914c1.503-6.173-1.526-12.212-6.765-13.488
		C7.355-1.038,1.889,2.933,0.385,9.106C-1.118,15.279,1.91,21.318,7.15,22.593c3.094,0.754,6.266-0.322,8.655-2.602l10.118,12.006
		L28.382,29.433z"/>
</g>
</svg>
