<?xml version="1.0" encoding="utf-8"?>
<!-- Generator: Adobe Illustrator 16.0.4, SVG Export Plug-In . SVG Version: 6.00 Build 0)  -->
<!DOCTYPE svg PUBLIC "-//W3C//DTD SVG 1.1//EN" "http://www.w3.org/Graphics/SVG/1.1/DTD/svg11.dtd">
<svg version="1.1" fill="rgb(0, 14, 156)" xmlns="http://www.w3.org/2000/svg" xmlns:xlink="http://www.w3.org/1999/xlink" x="0px" y="0px"
	 width="21.725px" height="32px" viewBox="0 0 21.725 32" enable-background="new 0 0 21.725 32" xml:space="preserve">
<g id="Fondo_1_" display="none">
	<rect id="Fondo" x="-323.104" y="-1851.522" display="inline" fill="#FB6E92" width="1000" height="2438.351"/>
</g>
<g id="Guias" display="none">
</g>
<g id="Icons">
	<g display="none" opacity="0.2">
		<path display="inline" fill="#FFFFFF" d="M86.906-375.002c-11.282,3.636-35.885,28.281-38.51,36.153
			c-2.621,7.851,12.064,36.154,18.865,37.705c6.793,1.59,56.584-20.436,58.153-28.284
			C126.986-337.299,98.188-378.681,86.906-375.002z"/>
		<path display="inline" fill="#FFFFFF" d="M189.875-455.16c-10.498,0.494-88.546,59.726-88.034,69.146
			c0.52,9.423,29.36,46.629,37.729,47.951c8.363,1.301,70.221-78.341,72.307-88.814C213.962-437.373,200.346-455.699,189.875-455.16
			z"/>
		<path display="inline" fill="#FFFFFF" d="M504.808-741.604c-10.932-15.145-35.498-16.26-56.114-3.016
			c-7.87-4.009-17.023-7.233-27.768-9.215c0,0-391.393,317.515-477.854,378.833c0,0-3.302,7.003-8.776,18.407
			c98.109,68.715,86.957,120.568,86.957,120.568C-5.895-302.942-74.63-338.063-74.65-338.063
			c-24.626,50.699-68.835,139.307-92.309,172.114c0,0-0.04,18.015,22.025,29.48c0,0,150.072-101.024,193.329-109.639
			c0,0,23.883-23.283,60.696-58.922c-20.12,10.308-43.196,20.062-52.826,20.659c-16.772,1.053-36.153-39.437-34.583-53.776
			c1.569-14.338,153.521-139.574,176.038-137.984c22.539,1.57,29.875,22.518,30.413,37.725c0.205,6.548-13.654,26.546-30.413,48.012
			C310.98-499.063,453.904-634.237,494.805-664.235c0,0,0.414-10.661-3.14-24.688C509.35-704.272,515.364-726.937,504.808-741.604z
			 M-110.595-159.008c0,0-2.542-32.478-33.638-43.818C-144.233-202.826-92.004-226.461-110.595-159.008z"/>
	</g>
	<path display="none" opacity="0.5" fill="#71C8EA" enable-background="new    " d="M1457.952-425.345l3.333,3.333
		c0,0,17-13.666,32.5-11.833c0,0,21-27.999,50-37.833c0,0,17.667-9.834,7.167-30.667c-10.5-20.833-24.327-12.938-31.167-8
		c-9.583,6.916-39.771,40.322-51.5,56.333C1468.285-454.012,1471.785-437.678,1457.952-425.345z"/>
	<path d="M21.658,2.729c-0.042-0.122-0.145-0.265-0.29-0.414l0.002,0.002c0,0-1.125-2.179-4.144-2.198l0.004,0.002
		c-0.377-0.095-0.718-0.139-0.988-0.114c-1.234,0.114-3.643,5.397-4.43,7.201c0,0,5.611-3.886,6.078,3.321
		c0,0-0.746-2.747-6.078-3.321C11.811,7.21,11.811,7.21,11.81,7.212c-0.034-0.002-0.075-0.009-0.104-0.009
		c-2.614,0-10.173,9.094-10.173,9.094C3.524,23.799,0,30.393,0,30.393s0.201,0.436,0.701,0.854L6.937,19.9
		c-0.306-0.221-0.555-0.508-0.72-0.858c-0.604-1.285,0.138-2.908,1.657-3.623c1.521-0.715,3.242-0.251,3.849,1.034
		c0.604,1.285-0.139,2.907-1.658,3.622c-0.545,0.258-1.117,0.358-1.654,0.328L2.307,31.954c0.667,0.104,1.189,0.008,1.189,0.008
		c4.207-7.274,12.305-8.274,12.305-8.274s2.51-9.674,2.089-13.154C18.894,9.156,22.234,4.412,21.658,2.729z"/>
</g>
</svg>
