<?xml version="1.0" encoding="utf-8"?>
<!-- Generator: Adobe Illustrator 16.0.4, SVG Export Plug-In . SVG Version: 6.00 Build 0)  -->
<!DOCTYPE svg PUBLIC "-//W3C//DTD SVG 1.1//EN" "http://www.w3.org/Graphics/SVG/1.1/DTD/svg11.dtd">
<svg version="1.1" fill="rgb(0, 14, 156)" xmlns="http://www.w3.org/2000/svg" xmlns:xlink="http://www.w3.org/1999/xlink" x="0px" y="0px"
	 width="29.734px" height="31.646px" viewBox="0 0 29.734 31.646" enable-background="new 0 0 29.734 31.646" xml:space="preserve">
<g id="Fondo_1_" display="none">
	<rect id="Fondo" x="-372.232" y="-1851.877" display="inline" fill="#FB6E92" width="999.999" height="2438.352"/>
</g>
<g id="Guias" display="none">
</g>
<g id="Icons">
	<g display="none" opacity="0.2">
		<path display="inline" fill="#FFFFFF" d="M37.777-375.356c-11.282,3.636-35.885,28.28-38.51,36.152
			c-2.621,7.852,12.064,36.154,18.864,37.705c6.793,1.59,56.584-20.436,58.154-28.284C77.857-337.653,49.06-379.035,37.777-375.356z
			"/>
		<path display="inline" fill="#FFFFFF" d="M140.746-455.515c-10.498,0.494-88.546,59.726-88.034,69.146
			c0.52,9.423,29.36,46.629,37.729,47.951c8.363,1.301,70.221-78.341,72.307-88.813
			C164.834-437.728,151.218-456.054,140.746-455.515z"/>
		<path display="inline" fill="#FFFFFF" d="M455.68-741.959c-10.932-15.145-35.498-16.26-56.114-3.016
			c-7.87-4.009-17.023-7.233-27.768-9.215c0,0-391.393,317.515-477.854,378.833c0,0-3.302,7.003-8.776,18.406
			c98.109,68.716,86.957,120.568,86.957,120.568c-27.148-66.916-95.885-102.037-95.904-102.037
			c-24.626,50.699-68.835,139.308-92.309,172.114c0,0-0.04,18.015,22.025,29.479c0,0,150.071-101.023,193.329-109.639
			c0,0,23.883-23.283,60.696-58.922c-20.121,10.308-43.196,20.062-52.826,20.659c-16.772,1.053-36.153-39.438-34.583-53.776
			c1.569-14.338,153.521-139.574,176.037-137.983c22.54,1.569,29.875,22.518,30.414,37.725c0.205,6.548-13.654,26.546-30.414,48.012
			c113.261-108.668,256.184-243.842,297.086-273.84c0,0,0.414-10.661-3.14-24.688C460.222-704.627,466.235-727.291,455.68-741.959z
			 M-159.724-159.362c0,0-2.542-32.479-33.638-43.818C-193.361-203.181-141.133-226.815-159.724-159.362z"/>
	</g>
	<path display="none" opacity="0.5" fill="#71C8EA" enable-background="new    " d="M1408.823-425.699l3.333,3.333
		c0,0,17-13.666,32.5-11.833c0,0,21-27.999,50-37.833c0,0,17.667-9.834,7.167-30.667s-24.327-12.937-31.167-8
		c-9.583,6.916-39.771,40.322-51.5,56.333C1419.156-454.366,1422.656-438.032,1408.823-425.699z"/>
	<path d="M27.252,0.087c-0.206-0.214-6.357,0.58-12.385,0.547C9.156,0.603,3.558-0.272,3.238,0.087
		C2.58,0.825-0.31,11.661,0.027,11.901c0.337,0.241,5.008-0.818,5.394-1.155s0.514-4.751,0.514-4.751h6.63
		c-0.113,4.61-0.49,19.789-0.582,20.181c-0.108,0.463-3.287,2.292-3.527,2.678c-0.241,0.386,0,2.793,0.241,2.793s3.13,0,3.13,0
		h0.626h5.73h1.06c0,0,2.312,0,2.697,0s0.529-2.167,0.241-2.793c-0.289-0.626-3.093-2.154-3.546-2.69
		c-0.383-0.454-1.824-15.566-2.256-20.167h7.92c0,0-0.385,3.836,0,4.365c0.386,0.529,5.009,1.734,5.395,1.541
		C30.078,11.709,27.653,0.505,27.252,0.087z"/>
</g>
</svg>
