<?xml version="1.0" encoding="utf-8"?>
<!-- Generator: Adobe Illustrator 16.0.4, SVG Export Plug-In . SVG Version: 6.00 Build 0)  -->
<!DOCTYPE svg PUBLIC "-//W3C//DTD SVG 1.1//EN" "http://www.w3.org/Graphics/SVG/1.1/DTD/svg11.dtd">
<svg version="1.1" fill="rgb(0, 14, 156)" xmlns="http://www.w3.org/2000/svg" xmlns:xlink="http://www.w3.org/1999/xlink" x="0px" y="0px"
	 width="28.882px" height="32px" viewBox="0 0 28.882 32" enable-background="new 0 0 28.882 32" xml:space="preserve">
<g id="Fondo_1_" display="none">
	<rect id="Fondo" x="-423.603" y="-1851.522" display="inline" fill="#FB6E92" width="999.999" height="2438.352"/>
</g>
<g id="Guias" display="none">
</g>
<g id="Icons">
	<g display="none" opacity="0.2">
		<path display="inline" fill="#FFFFFF" d="M-13.594-375.002c-11.282,3.636-35.885,28.281-38.51,36.153
			c-2.621,7.851,12.065,36.154,18.865,37.705c6.793,1.59,56.584-20.436,58.155-28.284C26.486-337.299-2.312-378.681-13.594-375.002z
			"/>
		<path display="inline" fill="#FFFFFF" d="M89.375-455.16c-10.498,0.494-88.545,59.726-88.034,69.146
			c0.519,9.423,29.36,46.629,37.729,47.951c8.363,1.301,70.221-78.341,72.307-88.814C113.462-437.373,99.847-455.699,89.375-455.16z
			"/>
		<path display="inline" fill="#FFFFFF" d="M404.31-741.604c-10.932-15.145-35.498-16.26-56.115-3.016
			c-7.869-4.009-17.023-7.233-27.768-9.215c0,0-391.392,317.515-477.853,378.833c0,0-3.302,7.003-8.776,18.407
			c98.109,68.715,86.957,120.568,86.957,120.568c-27.149-66.916-95.885-102.037-95.905-102.037
			c-24.626,50.699-68.835,139.307-92.308,172.114c0,0-0.04,18.015,22.025,29.48c0,0,150.072-101.024,193.329-109.639
			c0,0,23.883-23.283,60.697-58.922c-20.121,10.308-43.197,20.062-52.827,20.659c-16.772,1.053-36.153-39.437-34.583-53.776
			c1.57-14.338,153.521-139.574,176.038-137.984c22.54,1.57,29.875,22.518,30.413,37.725c0.205,6.548-13.654,26.546-30.413,48.012
			c113.259-108.668,256.183-243.842,297.085-273.84c0,0,0.414-10.661-3.139-24.688C408.851-704.272,414.865-726.937,404.31-741.604z
			 M-211.095-159.008c0,0-2.542-32.478-33.638-43.818C-244.732-202.826-192.504-226.461-211.095-159.008z"/>
	</g>
	<path display="none" opacity="0.5" fill="#71C8EA" enable-background="new    " d="M1357.453-425.345l3.332,3.333
		c0,0,17-13.666,32.5-11.833c0,0,21-27.999,50-37.833c0,0,17.668-9.834,7.168-30.667c-10.5-20.833-24.328-12.938-31.168-8
		c-9.582,6.916-39.771,40.322-51.5,56.333C1367.785-454.012,1371.285-437.678,1357.453-425.345z"/>
	<path d="M28.88,28.139c0.125-0.724-11.351-10.576-11.351-10.576s6.579-4.42,6.683-5.306C24.317,11.372,0.773-0.505,0.044,0.017
		c-0.729,0.521,7.813,24.377,8.751,24.48c0.938,0.104,6.332-5.025,6.332-5.025s8.646,12.171,9.439,12.505
		C25.359,32.312,28.757,28.862,28.88,28.139z"/>
</g>
</svg>
