<?xml version="1.0" encoding="utf-8"?>
<!-- Generator: Adobe Illustrator 16.0.4, SVG Export Plug-In . SVG Version: 6.00 Build 0)  -->
<!DOCTYPE svg PUBLIC "-//W3C//DTD SVG 1.1//EN" "http://www.w3.org/Graphics/SVG/1.1/DTD/svg11.dtd">
<svg version="1.1" fill="rgb(0, 14, 156)" xmlns="http://www.w3.org/2000/svg" xmlns:xlink="http://www.w3.org/1999/xlink" x="0px" y="0px"
	 width="32px" height="28.201px" viewBox="0 0 32 28.201" enable-background="new 0 0 32 28.201" xml:space="preserve">
<g id="Fondo_1_" display="none">
	<rect id="Fondo" x="-474.153" y="-1853.6" display="inline" fill="#FB6E92" width="1000" height="2438.351"/>
</g>
<g id="Guias" display="none">
</g>
<g id="Icons">
	<g display="none" opacity="0.2">
		<path display="inline" fill="#FFFFFF" d="M-64.144-377.079c-11.282,3.636-35.885,28.281-38.51,36.153
			c-2.621,7.851,12.065,36.154,18.865,37.705c6.793,1.59,56.584-20.436,58.154-28.284
			C-24.063-339.376-52.861-380.758-64.144-377.079z"/>
		<path display="inline" fill="#FFFFFF" d="M38.825-457.237c-10.498,0.494-88.546,59.726-88.034,69.146
			c0.519,9.423,29.36,46.629,37.729,47.951c8.363,1.301,70.221-78.341,72.307-88.814C62.913-439.45,49.297-457.776,38.825-457.237z"
			/>
		<path display="inline" fill="#FFFFFF" d="M353.76-743.682c-10.932-15.145-35.498-16.26-56.115-3.016
			c-7.869-4.009-17.022-7.232-27.767-9.215c0,0-391.393,317.515-477.854,378.833c0,0-3.302,7.003-8.776,18.407
			c98.109,68.715,86.957,120.568,86.957,120.568c-27.149-66.916-95.885-102.037-95.905-102.037
			c-24.626,50.699-68.835,139.307-92.308,172.114c0,0-0.04,18.015,22.025,29.48c0,0,150.072-101.024,193.329-109.639
			c0,0,23.883-23.283,60.697-58.922c-20.121,10.308-43.197,20.062-52.827,20.659c-16.772,1.053-36.153-39.437-34.583-53.776
			c1.57-14.338,153.521-139.574,176.038-137.984c22.54,1.57,29.875,22.518,30.414,37.725c0.205,6.548-13.655,26.546-30.414,48.012
			C159.93-501.142,302.854-636.316,343.755-666.314c0,0,0.414-10.661-3.14-24.688C358.302-706.35,364.314-729.014,353.76-743.682z
			 M-261.645-161.085c0,0-2.542-32.478-33.638-43.818C-295.282-204.903-243.054-228.538-261.645-161.085z"/>
	</g>
	<path display="none" opacity="0.5" fill="#71C8EA" enable-background="new    " d="M1306.902-427.422l3.333,3.333
		c0,0,17-13.666,32.5-11.833c0,0,21-27.999,50-37.833c0,0,17.667-9.834,7.167-30.667s-24.327-12.937-31.167-8
		c-9.583,6.916-39.771,40.322-51.5,56.333C1317.235-456.089,1320.735-439.755,1306.902-427.422z"/>
	<path d="M0.424,20.073c0.729,0.937,17.782,8.527,20.07,8.111c2.287-0.416,11.039-12.05,11.314-13.955
		c0.274-1.924,0.362-5.206-0.5-8.195C30.51,3.259,17.1-0.472,14.292,0.049c-2.808,0.52-13.491,8.118-13.868,9.21
		C0.047,10.351-0.304,19.138,0.424,20.073z M2.712,10.272c0,0,15.765,3.871,16.302,3.783c0.535-0.088,10.021-6.785,10.021-6.785
		s-8.424,8.711-8.533,8.988c-0.109,0.277-0.318,9.966-0.318,9.966s-1.414-9.691-1.602-9.966S2.712,10.272,2.712,10.272z"/>
</g>
</svg>
