<?xml version="1.0" encoding="utf-8"?>
<!-- Generator: Adobe Illustrator 16.0.4, SVG Export Plug-In . SVG Version: 6.00 Build 0)  -->
<!DOCTYPE svg PUBLIC "-//W3C//DTD SVG 1.1//EN" "http://www.w3.org/Graphics/SVG/1.1/DTD/svg11.dtd">
<svg version="1.1" fill="rgb(0, 14, 156)" xmlns="http://www.w3.org/2000/svg" xmlns:xlink="http://www.w3.org/1999/xlink" x="0px" y="0px"
	 width="26.139px" height="32px" viewBox="0 0 26.139 32" enable-background="new 0 0 26.139 32" xml:space="preserve">
<g id="Fondo_1_" display="none">
	<rect id="Fondo" x="-528.893" y="-1851.522" display="inline" fill="#FB6E92" width="1000.001" height="2438.351"/>
</g>
<g id="Guias" display="none">
</g>
<g id="Icons">
	<g display="none" opacity="0.2">
		<path display="inline" fill="#FFFFFF" d="M-118.884-375.002c-11.282,3.636-35.886,28.281-38.511,36.153
			c-2.621,7.851,12.065,36.154,18.865,37.705c6.793,1.59,56.584-20.436,58.154-28.284
			C-78.804-337.299-107.602-378.681-118.884-375.002z"/>
		<path display="inline" fill="#FFFFFF" d="M-15.915-455.16c-10.498,0.494-88.546,59.726-88.034,69.146
			c0.519,9.423,29.36,46.629,37.729,47.951c8.363,1.301,70.222-78.341,72.308-88.814C8.173-437.373-5.443-455.699-15.915-455.16z"/>
		<path display="inline" fill="#FFFFFF" d="M299.02-741.604c-10.932-15.145-35.498-16.26-56.115-3.016
			c-7.869-4.009-17.022-7.233-27.767-9.215c0,0-391.393,317.515-477.854,378.833c0,0-3.303,7.003-8.776,18.407
			c98.109,68.715,86.957,120.568,86.957,120.568c-27.149-66.916-95.885-102.037-95.905-102.037
			c-24.626,50.699-68.835,139.307-92.308,172.114c0,0-0.04,18.015,22.024,29.48c0,0,150.072-101.024,193.329-109.639
			c0,0,23.884-23.283,60.697-58.922c-20.121,10.308-43.197,20.062-52.827,20.659c-16.771,1.053-36.152-39.437-34.583-53.776
			c1.57-14.338,153.521-139.574,176.038-137.984c22.54,1.57,29.875,22.518,30.414,37.725c0.205,6.548-13.655,26.546-30.414,48.012
			c113.259-108.668,256.183-243.842,297.086-273.84c0,0,0.414-10.661-3.14-24.688C303.562-704.272,309.574-726.937,299.02-741.604z
			 M-316.385-159.008c0,0-2.542-32.478-33.639-43.818C-350.022-202.826-297.794-226.461-316.385-159.008z"/>
	</g>
	<path display="none" opacity="0.5" fill="#71C8EA" enable-background="new    " d="M1252.162-425.345l3.333,3.333
		c0,0,17-13.666,32.5-11.833c0,0,21-27.999,50-37.833c0,0,17.667-9.834,7.167-30.667c-10.5-20.833-24.327-12.938-31.167-8
		c-9.583,6.916-39.771,40.322-51.5,56.333C1262.495-454.012,1265.995-437.678,1252.162-425.345z"/>
	<path d="M25.065,18.406c-0.469-0.059-1.646,0.72-2.585,1.408c1.397-2.844,2.592-5.581,2.645-6.462
		c0.123-2.041-1.81-4.854-2.562-4.689c-0.753,0.167-4.244,8.366-4.244,8.366s1.41-12.244,0.593-13.301
		c-0.818-1.06-4.199-1.607-4.604-1.16C13.276,3.712,13.047,16,13.047,16S10.645,1.998,10.163,1.43
		c-0.48-0.569-1.654-1.49-2.879-1.427C6.061,0.067,4.083,1.986,3.745,2.442C3.405,2.898,2.956,4.229,3.018,4.897
		C3.08,5.565,8.793,18.699,8.793,18.699l-0.771,1.125L7.3,16.994c0,0-1.844-2.418-3.174-3.312S0.776,13.6,0.292,14.106
		c-0.482,0.506-0.308,4.86,0.067,5.287C0.735,19.818,3.77,20.4,3.77,20.4S2.95,23.43,3.166,24.012
		c0.217,0.584,3.289,3.051,3.75,3.188c0.459,0.136,4.112-0.497,4.112-0.497L11.394,32l3.353-0.046l-0.988-5.188
		c0,0,3.554,1.026,4.282,0.82c0.167-0.047,0.628-0.722,1.236-1.752l-0.002,0.005c0,0,6.148-2.922,6.665-3.765
		C26.457,21.23,25.898,18.505,25.065,18.406z"/>
</g>
</svg>
