<?xml version="1.0" encoding="utf-8"?>
<!-- Generator: Adobe Illustrator 16.0.4, SVG Export Plug-In . SVG Version: 6.00 Build 0)  -->
<!DOCTYPE svg PUBLIC "-//W3C//DTD SVG 1.1//EN" "http://www.w3.org/Graphics/SVG/1.1/DTD/svg11.dtd">
<svg version="1.1" fill="rgb(0, 14, 156)" xmlns="http://www.w3.org/2000/svg" xmlns:xlink="http://www.w3.org/1999/xlink" x="0px" y="0px"
	 width="25.561px" height="32px" viewBox="0 0 25.561 32" enable-background="new 0 0 25.561 32" xml:space="preserve">
<g id="Fondo_1_" display="none">
	<rect id="Fondo" x="-633.18" y="-1851.522" display="inline" fill="#FB6E92" width="1000" height="2438.351"/>
</g>
<g id="Guias" display="none">
</g>
<g id="Icons">
	<g display="none" opacity="0.2">
		<path display="inline" fill="#FFFFFF" d="M-223.171-375.002c-11.282,3.636-35.885,28.281-38.51,36.153
			c-2.621,7.851,12.064,36.154,18.865,37.705c6.793,1.59,56.584-20.436,58.153-28.284
			C-183.091-337.299-211.889-378.681-223.171-375.002z"/>
		<path display="inline" fill="#FFFFFF" d="M-120.202-455.16c-10.498,0.494-88.546,59.726-88.033,69.146
			c0.519,9.423,29.359,46.629,37.729,47.951c8.363,1.301,70.221-78.341,72.307-88.814
			C-96.115-437.373-109.73-455.699-120.202-455.16z"/>
		<path display="inline" fill="#FFFFFF" d="M194.732-741.604c-10.933-15.145-35.498-16.26-56.115-3.016
			c-7.87-4.009-17.023-7.233-27.767-9.215c0,0-391.394,317.515-477.854,378.833c0,0-3.302,7.003-8.776,18.407
			c98.109,68.715,86.957,120.568,86.957,120.568c-27.148-66.916-95.885-102.037-95.904-102.037
			c-24.626,50.699-68.835,139.307-92.309,172.114c0,0-0.04,18.015,22.025,29.48c0,0,150.072-101.024,193.329-109.639
			c0,0,23.883-23.283,60.697-58.922c-20.121,10.308-43.197,20.062-52.827,20.659c-16.772,1.053-36.153-39.437-34.583-53.776
			c1.569-14.338,153.521-139.574,176.038-137.984c22.54,1.57,29.875,22.518,30.414,37.725c0.204,6.548-13.655,26.546-30.414,48.012
			c113.26-108.668,256.184-243.842,297.086-273.84c0,0,0.414-10.661-3.141-24.688C199.274-704.272,205.287-726.937,194.732-741.604z
			 M-420.672-159.008c0,0-2.542-32.478-33.638-43.818C-454.31-202.826-402.081-226.461-420.672-159.008z"/>
	</g>
	<path display="none" opacity="0.5" fill="#71C8EA" enable-background="new    " d="M1147.875-425.345l3.333,3.333
		c0,0,17-13.666,32.5-11.833c0,0,21-27.999,50-37.833c0,0,17.667-9.834,7.167-30.667c-10.5-20.833-24.327-12.938-31.167-8
		c-9.583,6.916-39.771,40.322-51.5,56.333C1158.208-454.012,1161.708-437.678,1147.875-425.345z"/>
	<path d="M23.354,0.005c0,0-22.72-0.096-23.294,0.575c-0.575,0.671,3.163,30.676,3.737,31.25c0.575,0.576,14.954-0.479,15.817-0.671
		c0.862-0.191,6.005-7.896,5.943-8.531C25.496,21.991,23.354,0.005,23.354,0.005z M4.122,3.963l16.477-0.628L20.67,5.25L4.194,5.878
		L4.122,3.963z M4.889,8.18l16.143-0.614l0.072,1.915L4.961,10.096L4.889,8.18z M5.272,12.398l15.733-0.6l0.072,1.915l-15.734,0.6
		L5.272,12.398z M5.729,18.531l-0.073-1.915l15.734-0.6l0.072,1.916L5.729,18.531z M18.272,23.49
		c-0.479,0.672,0.479,6.52,0.479,6.52s-3.834-7.766-3.259-8.437s8.915,0,8.915,0S18.752,22.82,18.272,23.49z"/>
</g>
</svg>
