<?xml version="1.0" encoding="utf-8"?>
<!-- Generator: Adobe Illustrator 16.0.4, SVG Export Plug-In . SVG Version: 6.00 Build 0)  -->
<!DOCTYPE svg PUBLIC "-//W3C//DTD SVG 1.1//EN" "http://www.w3.org/Graphics/SVG/1.1/DTD/svg11.dtd">
<svg version="1.1" fill="rgb(0, 14, 156)" xmlns="http://www.w3.org/2000/svg" xmlns:xlink="http://www.w3.org/1999/xlink" x="0px" y="0px"
	 width="25.484px" height="32px" viewBox="0 0 25.484 32" enable-background="new 0 0 25.484 32" xml:space="preserve">
<g id="Fondo_1_" display="none">
	<rect id="Fondo" x="-686.214" y="-1851.522" display="inline" fill="#FB6E92" width="1000" height="2438.351"/>
</g>
<g id="Guias" display="none">
</g>
<g id="Icons">
	<g display="none" opacity="0.2">
		<path display="inline" fill="#FFFFFF" d="M-276.205-375.002c-11.281,3.636-35.885,28.281-38.51,36.153
			c-2.621,7.851,12.065,36.154,18.865,37.705c6.793,1.59,56.584-20.436,58.153-28.284
			C-236.125-337.299-264.923-378.681-276.205-375.002z"/>
		<path display="inline" fill="#FFFFFF" d="M-173.236-455.16c-10.498,0.494-88.547,59.726-88.034,69.146
			c0.519,9.423,29.359,46.629,37.729,47.951c8.363,1.301,70.222-78.341,72.308-88.814
			C-149.148-437.373-162.765-455.699-173.236-455.16z"/>
		<path display="inline" fill="#FFFFFF" d="M141.698-741.604c-10.932-15.145-35.498-16.26-56.115-3.016
			c-7.87-4.009-17.022-7.233-27.767-9.215c0,0-391.394,317.515-477.854,378.833c0,0-3.302,7.003-8.775,18.407
			c98.108,68.715,86.957,120.568,86.957,120.568c-27.149-66.916-95.886-102.037-95.905-102.037
			c-24.626,50.699-68.835,139.307-92.308,172.114c0,0-0.04,18.015,22.024,29.48c0,0,150.072-101.024,193.329-109.639
			c0,0,23.883-23.283,60.697-58.922c-20.121,10.308-43.197,20.062-52.827,20.659c-16.772,1.053-36.153-39.437-34.583-53.776
			c1.57-14.338,153.521-139.574,176.038-137.984c22.54,1.57,29.875,22.518,30.414,37.725c0.205,6.548-13.655,26.546-30.414,48.012
			c113.26-108.668,256.184-243.842,297.086-273.84c0,0,0.414-10.661-3.14-24.688C146.24-704.272,152.253-726.937,141.698-741.604z
			 M-473.706-159.008c0,0-2.542-32.478-33.638-43.818C-507.344-202.826-455.115-226.461-473.706-159.008z"/>
	</g>
	<path display="none" opacity="0.5" fill="#71C8EA" enable-background="new    " d="M1094.841-425.345l3.333,3.333
		c0,0,17-13.666,32.5-11.833c0,0,21-27.999,50-37.833c0,0,17.667-9.834,7.167-30.667c-10.5-20.833-24.327-12.938-31.167-8
		c-9.583,6.916-39.771,40.322-51.5,56.333C1105.174-454.012,1108.674-437.678,1094.841-425.345z"/>
	<path d="M19.28,0.148c-0.723,0.386-4.17,5.192-7.954,10.786c-1.324-1.309-2.418-2.258-2.82-2.396
		c-1.231-0.427-3.555,1.453-3.555,2.56c-0.003,1.729,0.943,3.974,2.198,6.122C3.188,23.29-0.163,28.743,0.005,29.159
		c0.068,0.174,0.192,0.375,0.35,0.586c-0.206,0.394-0.383,0.822-0.319,1.06C0.173,31.316,1.046,31.993,1.521,32
		c0.192,0.004,0.51-0.254,0.818-0.559c0.272,0.123,0.519,0.176,0.698,0.116c0.319-0.106,4.162-3.96,8.535-8.455
		c0.737,0.739,1.344,1.085,1.625,1.171c1.562,0.475,5.595-3.562,5.261-4.503c-0.209-0.588-0.722-1.411-1.408-2.349
		c4.128-4.312,7.604-8.033,7.791-8.428C27.498,3.435,21.178-0.863,19.28,0.148z M16.335,17.545c-0.17,0.16-2.67-1.196-3.911-2.756
		c-1.217-1.532-1.178-3.271-1-3.233C11.783,11.63,16.673,17.226,16.335,17.545z M23.769,8.254c-0.215,0.143-2.711-1.752-3.792-3.647
		c-1.062-1.861-0.71-3.724-0.522-3.653C19.835,1.096,24.195,7.968,23.769,8.254z"/>
</g>
</svg>
