<?xml version="1.0" encoding="utf-8"?>
<!-- Generator: Adobe Illustrator 16.0.4, SVG Export Plug-In . SVG Version: 6.00 Build 0)  -->
<!DOCTYPE svg PUBLIC "-//W3C//DTD SVG 1.1//EN" "http://www.w3.org/Graphics/SVG/1.1/DTD/svg11.dtd">
<svg version="1.1" fill="rgb(0, 14, 156)" xmlns="http://www.w3.org/2000/svg" xmlns:xlink="http://www.w3.org/1999/xlink" x="0px" y="0px"
	 width="32px" height="31.809px" viewBox="0 0 32 31.809" enable-background="new 0 0 32 31.809" xml:space="preserve">
<g id="Fondo_1_" display="none">
	<rect id="Fondo" x="-733.955" y="-1851.715" display="inline" fill="#FB6E92" width="1000" height="2438.351"/>
</g>
<g id="Guias" display="none">
</g>
<g id="Icons">
	<g display="none" opacity="0.2">
		<path display="inline" fill="#FFFFFF" d="M-323.945-375.194c-11.282,3.636-35.885,28.281-38.51,36.153
			c-2.621,7.851,12.065,36.153,18.865,37.705c6.793,1.59,56.584-20.437,58.154-28.284
			C-283.865-337.491-312.663-378.873-323.945-375.194z"/>
		<path display="inline" fill="#FFFFFF" d="M-220.977-455.353c-10.498,0.494-88.546,59.727-88.034,69.146
			c0.519,9.423,29.36,46.629,37.729,47.951c8.363,1.301,70.221-78.342,72.307-88.814
			C-196.889-437.565-210.505-455.892-220.977-455.353z"/>
		<path display="inline" fill="#FFFFFF" d="M93.958-741.797c-10.933-15.146-35.498-16.261-56.115-3.017
			c-7.87-4.009-17.022-7.232-27.767-9.215c0,0-391.393,317.515-477.854,378.833c0,0-3.302,7.003-8.776,18.407
			c98.109,68.715,86.957,120.568,86.957,120.568c-27.149-66.916-95.885-102.037-95.905-102.037
			c-24.626,50.698-68.835,139.307-92.308,172.113c0,0-0.04,18.016,22.025,29.48c0,0,150.072-101.024,193.329-109.639
			c0,0,23.883-23.283,60.697-58.923c-20.121,10.309-43.197,20.062-52.827,20.659c-16.772,1.053-36.153-39.437-34.583-53.775
			c1.57-14.339,153.521-139.574,176.038-137.984c22.54,1.57,29.875,22.518,30.414,37.725c0.205,6.549-13.655,26.546-30.414,48.013
			c113.26-108.668,256.184-243.842,297.086-273.84c0,0,0.414-10.661-3.141-24.688C98.5-704.465,104.514-727.129,93.958-741.797z
			 M-521.446-159.2c0,0-2.542-32.478-33.638-43.818C-555.084-203.019-502.855-226.653-521.446-159.2z"/>
	</g>
	<path display="none" opacity="0.5" fill="#71C8EA" enable-background="new    " d="M1047.101-425.537l3.333,3.333
		c0,0,17-13.666,32.5-11.833c0,0,21-27.999,50-37.833c0,0,17.667-9.834,7.167-30.667s-24.327-12.938-31.167-8
		c-9.583,6.916-39.771,40.322-51.5,56.333C1057.434-454.204,1060.934-437.87,1047.101-425.537z"/>
	<g>
		<path d="M20.855,9.202c-3.209-2.521-8.184-1.538-11.112,2.19c-2.931,3.729-2.705,8.796,0.503,11.315
			c3.208,2.519,8.184,1.539,11.111-2.191C24.289,16.788,24.062,11.723,20.855,9.202z M16.09,22.264
			c-0.584,0.418-3.203,0.068-4.469-0.926c-2.447-1.923-2.628-5.779-0.4-8.614c1.126-1.434,3.718-2.896,4.203-2.618
			C15.909,10.384,16.674,21.845,16.09,22.264z"/>
		<path d="M15.63,5.867c0.014-0.279,0.272-5.537,0-5.811c-0.272-0.272-2.042,0.499-2.224,0.862
			c-0.182,0.363,0.953,5.039,1.089,5.266C14.632,6.412,15.617,6.147,15.63,5.867z"/>
		<path d="M22.757,7.987c0.229-0.158,4.565-3.146,4.616-3.527c0.051-0.381-1.637-1.319-2.035-1.243
			c-0.398,0.077-3.425,3.817-3.521,4.062C21.718,7.524,22.525,8.147,22.757,7.987z"/>
		<path d="M30.831,12.212c-0.383-0.135-4.881,1.574-5.089,1.737s0.178,1.107,0.457,1.087c0.279-0.022,5.527-0.421,5.765-0.726
			C32.2,14.007,31.214,12.348,30.831,12.212z"/>
		<path d="M23.527,21.252c-0.256-0.062-0.762,0.825-0.57,1.031c0.189,0.204,3.749,4.084,4.135,4.082
			c0.387-0.004,1.08-1.805,0.948-2.188C27.909,23.792,23.785,21.314,23.527,21.252z"/>
		<path d="M16.217,25.943c-0.012,0.279-0.237,5.539,0.037,5.811c0.273,0.271,2.039-0.512,2.219-0.876
			c0.18-0.365-0.984-5.032-1.123-5.259C17.212,25.393,16.228,25.663,16.217,25.943z"/>
		<path d="M8.999,24.922c-0.205,0.192-4.052,3.784-4.047,4.17c0.006,0.385,1.813,1.064,2.196,0.93
			c0.384-0.135,2.825-4.278,2.886-4.537C10.095,25.227,9.203,24.73,8.999,24.922z"/>
		<path d="M5.801,17.607c-0.279,0.022-5.528,0.42-5.765,0.726c-0.237,0.305,0.75,1.964,1.133,2.099
			c0.383,0.136,4.881-1.573,5.089-1.737S6.08,17.586,5.801,17.607z"/>
		<path d="M7.079,10.091c0.247,0.095,0.862-0.72,0.7-0.948C7.618,8.914,4.593,4.606,4.21,4.559C3.828,4.511,2.905,6.206,2.985,6.605
			S6.833,9.995,7.079,10.091z"/>
	</g>
</g>
</svg>
