<?xml version="1.0" encoding="utf-8"?>
<!-- Generator: Adobe Illustrator 16.0.4, SVG Export Plug-In . SVG Version: 6.00 Build 0)  -->
<!DOCTYPE svg PUBLIC "-//W3C//DTD SVG 1.1//EN" "http://www.w3.org/Graphics/SVG/1.1/DTD/svg11.dtd">
<svg version="1.1" fill="rgb(0, 14, 156)" xmlns="http://www.w3.org/2000/svg" xmlns:xlink="http://www.w3.org/1999/xlink" x="0px" y="0px"
	 width="32px" height="29.654px" viewBox="0 0 32 29.654" enable-background="new 0 0 32 29.654" xml:space="preserve">
<g id="Fondo_1_" display="none">
	<rect id="Fondo" x="-785.951" y="-1852.843" display="inline" fill="#FB6E92" width="1000" height="2438.351"/>
</g>
<g id="Guias" display="none">
</g>
<g id="Icons">
	<g display="none" opacity="0.2">
		<path display="inline" fill="#FFFFFF" d="M-375.941-376.322c-11.282,3.636-35.885,28.281-38.51,36.153
			c-2.621,7.851,12.065,36.153,18.865,37.705c6.793,1.59,56.584-20.437,58.154-28.284
			C-335.861-338.619-364.659-380.001-375.941-376.322z"/>
		<path display="inline" fill="#FFFFFF" d="M-272.973-456.48c-10.498,0.494-88.546,59.727-88.034,69.146
			c0.519,9.423,29.36,46.629,37.729,47.951c8.363,1.301,70.221-78.342,72.307-88.814
			C-248.885-438.693-262.501-457.02-272.973-456.48z"/>
		<path display="inline" fill="#FFFFFF" d="M41.962-742.925c-10.933-15.146-35.498-16.261-56.115-3.017
			c-7.87-4.009-17.023-7.232-27.767-9.215c0,0-391.393,317.515-477.854,378.833c0,0-3.302,7.003-8.776,18.407
			c98.109,68.715,86.957,120.567,86.957,120.567c-27.149-66.916-95.885-102.036-95.905-102.036
			c-24.626,50.698-68.835,139.307-92.308,172.113c0,0-0.04,18.016,22.025,29.48c0,0,150.072-101.024,193.329-109.64
			c0,0,23.883-23.282,60.697-58.922c-20.121,10.309-43.197,20.062-52.827,20.659c-16.772,1.053-36.153-39.437-34.583-53.775
			c1.57-14.339,153.521-139.574,176.038-137.984c22.54,1.57,29.875,22.518,30.414,37.725c0.205,6.548-13.655,26.546-30.414,48.013
			C-151.867-500.384-8.943-635.558,31.959-665.556c0,0,0.414-10.66-3.141-24.688C46.504-705.593,52.518-728.257,41.962-742.925z
			 M-573.442-160.328c0,0-2.542-32.479-33.638-43.818C-607.08-204.146-554.852-227.781-573.442-160.328z"/>
	</g>
	<path display="none" opacity="0.5" fill="#71C8EA" enable-background="new    " d="M995.104-426.665l3.334,3.333
		c0,0,17-13.666,32.5-11.833c0,0,21-27.999,50-37.833c0,0,17.666-9.834,7.166-30.667s-24.326-12.938-31.166-8
		c-9.584,6.916-39.771,40.322-51.5,56.333C1005.438-455.332,1008.938-438.998,995.104-426.665z"/>
	<g>
		<path d="M8.972,11.92c0.556-0.2,6.364,2.275,7.056,1.319c0.313-0.437-3.79-4.869-3.79-4.869s3.153-4.545,2.758-4.841
			C14.35,3.047,9.635,5.108,9.635,5.108s-3.382-5.34-4.01-5.1c-0.63,0.24-0.718,7.094-0.718,7.094S0.062,8.653,0.001,9.17
			c-0.062,0.518,4.514,1.827,4.514,1.827s-1.088,6.109-0.641,6.344C5.067,17.964,8.417,12.119,8.972,11.92z"/>
		<path d="M27.993,12.879c0,0,1.758-4.309,1.379-4.479c-0.619-0.277-4.112,2.276-4.112,2.276s-3.753-3.767-4.226-3.454
			c-0.474,0.312,0.709,5.954,0.709,5.954s-3.695,2.161-3.65,2.596c0.044,0.438,4.041,0.677,4.041,0.677s0.224,5.215,0.634,5.324
			c1.094,0.293,2.773-5.118,3.193-5.384c0.419-0.266,5.643,0.705,6.033-0.206C32.173,15.768,27.993,12.879,27.993,12.879z"/>
		<path d="M13.548,22.863c0,0-1.104-4.104-1.557-4.074c-0.451,0.027-1.876,4.411-1.876,4.411s-3.423,0.029-3.564,0.349
			c-0.143,0.32,2.534,2.075,2.534,2.075s-1.919,3.706-1.678,3.944c0.642,0.64,3.959-2.445,4.355-2.464
			c0.396-0.017,3.633,2.733,4.268,2.257c0.288-0.218-1.462-3.884-1.462-3.884s2.933-2.288,2.737-2.557
			C16.986,22.481,13.548,22.863,13.548,22.863z"/>
	</g>
</g>
</svg>
