<?xml version="1.0" encoding="utf-8"?>
<!-- Generator: Adobe Illustrator 16.0.4, SVG Export Plug-In . SVG Version: 6.00 Build 0)  -->
<!DOCTYPE svg PUBLIC "-//W3C//DTD SVG 1.1//EN" "http://www.w3.org/Graphics/SVG/1.1/DTD/svg11.dtd">
<svg version="1.1" fill="rgb(0, 14, 156)" xmlns="http://www.w3.org/2000/svg" xmlns:xlink="http://www.w3.org/1999/xlink" x="0px" y="0px"
	 width="28.873px" height="32px" viewBox="0 0 28.873 32" enable-background="new 0 0 28.873 32" xml:space="preserve">
<g id="Fondo_1_" display="none">
	<rect id="Fondo" x="-839.29" y="-1851.523" display="inline" fill="#FB6E92" width="1000" height="2438.351"/>
</g>
<g id="Guias" display="none">
</g>
<g id="Icons">
	<g display="none" opacity="0.2">
		<path display="inline" fill="#FFFFFF" d="M-429.28-375.003c-11.282,3.636-35.885,28.281-38.51,36.153
			c-2.621,7.851,12.065,36.154,18.865,37.705c6.793,1.59,56.584-20.436,58.154-28.284C-389.2-337.3-417.998-378.682-429.28-375.003z
			"/>
		<path display="inline" fill="#FFFFFF" d="M-326.312-455.161c-10.498,0.494-88.546,59.726-88.034,69.146
			c0.519,9.423,29.36,46.629,37.729,47.951c8.363,1.301,70.221-78.341,72.307-88.814C-302.224-437.374-315.84-455.7-326.312-455.161
			z"/>
		<path display="inline" fill="#FFFFFF" d="M-11.377-741.605c-10.932-15.145-35.498-16.26-56.115-3.016
			c-7.87-4.009-17.023-7.233-27.767-9.215c0,0-391.393,317.515-477.854,378.833c0,0-3.302,7.003-8.776,18.407
			c98.109,68.715,86.957,120.568,86.957,120.568c-27.149-66.916-95.885-102.037-95.905-102.037
			c-24.626,50.699-68.835,139.307-92.308,172.114c0,0-0.04,18.015,22.025,29.48c0,0,150.072-101.024,193.329-109.639
			c0,0,23.883-23.283,60.697-58.922c-20.121,10.308-43.197,20.062-52.827,20.659c-16.772,1.053-36.153-39.437-34.583-53.776
			c1.57-14.338,153.521-139.574,176.038-137.984c22.54,1.57,29.875,22.518,30.414,37.725c0.205,6.548-13.655,26.546-30.414,48.012
			c113.26-108.668,256.184-243.842,297.086-273.84c0,0,0.414-10.661-3.14-24.688C-6.835-704.273-0.822-726.938-11.377-741.605z
			 M-626.781-159.009c0,0-2.542-32.478-33.638-43.818C-660.419-202.827-608.19-226.462-626.781-159.009z"/>
	</g>
	<path display="none" opacity="0.5" fill="#71C8EA" enable-background="new    " d="M941.766-425.346l3.333,3.333
		c0,0,17-13.666,32.5-11.833c0,0,21-27.999,50-37.833c0,0,17.667-9.834,7.167-30.667s-24.326-12.937-31.167-8
		c-9.583,6.916-39.771,40.322-51.5,56.333C952.099-454.013,955.599-437.679,941.766-425.346z"/>
	<path d="M28.81,21.28c0,0-0.66-8.218-6.886-5.791l0,0c-2.291-2.095-5.796-5.265-8.114-7.199c-0.21-3.544-1.158-8.738-4.943-8.26
		C2.614,0.821,6.214,12.227,6.214,12.227l0.011-0.013c-3.067,3.628-6.31,7.784-6.223,8.393c1.108,7.678,10.13,12.029,12.663,11.316
		c0.624-0.176,6.553-7.805,9.665-11.854c-0.097,0.865-0.229,1.853-0.406,2.808c-0.354,1.927,0.106,4.644,3.377,4.644
		C29.642,27.519,28.81,21.28,28.81,21.28z M8.55,2.246c2.516-0.898,3.436,2.093,3.762,4.848c-0.433-0.321-0.73-0.505-0.834-0.495
		C11.165,6.63,9.29,8.644,7.143,11.138C7.142,11.134,5.38,3.378,8.55,2.246z M13.077,14.704c-1.121,0.402-2.306-0.035-2.645-0.979
		c-0.34-0.943,0.296-2.035,1.417-2.438c1.122-0.403,2.307,0.034,2.645,0.978C14.834,13.209,14.198,14.301,13.077,14.704z"/>
</g>
</svg>
