<?xml version="1.0" encoding="utf-8"?>
<!-- Generator: Adobe Illustrator 16.0.4, SVG Export Plug-In . SVG Version: 6.00 Build 0)  -->
<!DOCTYPE svg PUBLIC "-//W3C//DTD SVG 1.1//EN" "http://www.w3.org/Graphics/SVG/1.1/DTD/svg11.dtd">
<svg version="1.1" fill="rgb(0, 14, 156)" xmlns="http://www.w3.org/2000/svg" xmlns:xlink="http://www.w3.org/1999/xlink" x="0px" y="0px"
	 width="32px" height="28.955px" viewBox="0 0 32 28.955" enable-background="new 0 0 32 28.955" xml:space="preserve">
<g id="Fondo_1_" display="none">
	<rect id="Fondo" x="-109.966" y="-1917.045" display="inline" fill="#FB6E92" width="1000" height="2438.351"/>
</g>
<g id="Guias" display="none">
</g>
<g id="Icons">
	<g display="none" opacity="0.2">
		<path display="inline" fill="#FFFFFF" d="M300.043-440.524c-11.282,3.636-35.885,28.281-38.51,36.153
			c-2.621,7.851,12.064,36.154,18.865,37.705c6.793,1.59,56.584-20.436,58.153-28.284
			C340.123-402.821,311.325-444.203,300.043-440.524z"/>
		<path display="inline" fill="#FFFFFF" d="M403.012-520.683c-10.498,0.494-88.546,59.726-88.034,69.146
			c0.52,9.423,29.36,46.629,37.729,47.951c8.363,1.301,70.221-78.341,72.307-88.814C427.1-502.896,413.483-521.222,403.012-520.683z
			"/>
		<path display="inline" fill="#FFFFFF" d="M717.946-807.127c-10.933-15.145-35.498-16.26-56.115-3.016
			c-7.87-4.009-17.023-7.233-27.767-9.215c0,0-391.394,317.515-477.854,378.833c0,0-3.302,7.003-8.776,18.407
			c98.109,68.715,86.957,120.568,86.957,120.568c-27.148-66.916-95.885-102.037-95.904-102.037
			C113.859-352.888,69.65-264.28,46.178-231.473c0,0-0.039,18.015,22.025,29.48c0,0,150.072-101.024,193.328-109.639
			c0,0,23.884-23.283,60.697-58.922c-20.121,10.308-43.197,20.062-52.826,20.659c-16.772,1.053-36.153-39.437-34.584-53.776
			c1.57-14.338,153.521-139.574,176.039-137.984c22.539,1.57,29.875,22.518,30.413,37.725c0.205,6.548-13.654,26.546-30.413,48.012
			c113.26-108.668,256.184-243.842,297.086-273.84c0,0,0.414-10.661-3.141-24.688C722.488-769.795,728.501-792.459,717.946-807.127z
			 M102.542-224.53c0,0-2.542-32.478-33.638-43.818C68.904-268.349,121.133-291.983,102.542-224.53z"/>
	</g>
	<path display="none" opacity="0.5" fill="#71C8EA" enable-background="new    " d="M1671.089-490.867l3.333,3.333
		c0,0,17-13.666,32.5-11.833c0,0,21-27.999,50-37.833c0,0,17.667-9.834,7.167-30.667s-24.327-12.937-31.167-8
		c-9.583,6.916-39.771,40.322-51.5,56.333C1681.422-519.534,1684.922-503.2,1671.089-490.867z"/>
	<path d="M27.482,13.581c0,0-0.01-0.96,0.341-3.614c0.01-0.07,0.019-0.14,0.028-0.208c0.004-0.031,0.008-0.059,0.012-0.089
		c0.005-0.041,0.007-0.075,0.012-0.115c0.564-4.902-0.88-9.033-3.466-9.51c-0.234-0.043-0.47-0.053-0.708-0.034L23.703,0
		L6.771,0.346C4.088,0.313,1.27,4.17,0.317,9.33c-1.005,5.458,0.458,10.301,3.272,10.819c0.12,0.021,0.24,0.033,0.36,0.039v0.006
		l0.112-0.002c0.046,0,0.092-0.002,0.138-0.004l7.664-0.15c0.565,6.047,2.672,8.917,2.994,8.917c0.429,0,0.816-2.662,1.288-2.748
		c0.473-0.086,2.75,1.632,3.35,1.718s0.944-2.49,1.46-2.576s2.318,2.275,2.749,2.232c0.43-0.043,0.901-3.006,1.46-3.006
		s2.32,2.404,2.835,2.318s0.38-2.357,0.858-2.49c0.772-0.215,2.49,1.546,3.092,1.373C32.55,25.604,27.697,21.183,27.482,13.581z
		 M4.592,13.163c-1.042-0.271-1.426-2.255-0.86-4.432C4.298,6.554,5.599,5.01,6.641,5.28C7.682,5.551,8.067,7.534,7.5,9.711
		C6.936,11.889,5.632,13.433,4.592,13.163z M11.652,18.115c-0.092-0.005-0.194-1.89-0.487-4.316
		c-1.54,4.168-5.149,5.326-5.284,5.021c-0.084-0.188,2.962-2.487,4.08-5.538c0.442-1.207,0.68-2.615,0.639-3.688
		c-0.124-3.227-1.863-7.086-1.734-7.148c0.129-0.063,2.772,2.293,3.405,6.412C13.182,14.784,11.931,18.129,11.652,18.115z"/>
</g>
</svg>
