<?xml version="1.0" encoding="utf-8"?>
<!-- Generator: Adobe Illustrator 16.0.4, SVG Export Plug-In . SVG Version: 6.00 Build 0)  -->
<!DOCTYPE svg PUBLIC "-//W3C//DTD SVG 1.1//EN" "http://www.w3.org/Graphics/SVG/1.1/DTD/svg11.dtd">
<svg version="1.1" fill="rgb(0, 14, 156)" xmlns="http://www.w3.org/2000/svg" xmlns:xlink="http://www.w3.org/1999/xlink" x="0px" y="0px"
	 width="32px" height="30.664px" viewBox="0 0 32 30.664" enable-background="new 0 0 32 30.664" xml:space="preserve">
<g id="Fondo_1_" display="none">
	<rect id="Fondo" x="-161.966" y="-1916.191" display="inline" fill="#FB6E92" width="1000" height="2438.351"/>
</g>
<g id="Guias" display="none">
</g>
<g id="Icons">
	<g display="none" opacity="0.2">
		<path display="inline" fill="#FFFFFF" d="M248.043-439.671c-11.281,3.636-35.885,28.281-38.51,36.153
			c-2.621,7.851,12.064,36.154,18.865,37.705c6.793,1.59,56.584-20.436,58.153-28.284
			C288.123-401.968,259.325-443.35,248.043-439.671z"/>
		<path display="inline" fill="#FFFFFF" d="M351.012-519.829c-10.498,0.494-88.546,59.726-88.033,69.146
			c0.519,9.423,29.359,46.629,37.729,47.951c8.363,1.301,70.221-78.341,72.307-88.814
			C375.1-502.042,361.483-520.368,351.012-519.829z"/>
		<path display="inline" fill="#FFFFFF" d="M665.946-806.273c-10.933-15.145-35.498-16.26-56.115-3.016
			c-7.87-4.009-17.023-7.233-27.767-9.215c0,0-391.394,317.515-477.854,378.833c0,0-3.302,7.003-8.776,18.407
			c98.109,68.715,86.957,120.568,86.957,120.568c-27.148-66.916-95.885-102.037-95.904-102.037
			c-24.627,50.7-68.836,139.307-92.307,172.115c0,0-0.04,18.015,22.025,29.48c0,0,150.071-101.024,193.329-109.639
			c0,0,23.883-23.283,60.697-58.922c-20.121,10.308-43.197,20.062-52.828,20.659c-16.771,1.053-36.152-39.437-34.582-53.776
			c1.57-14.338,153.521-139.574,176.038-137.984c22.54,1.57,29.875,22.518,30.413,37.725c0.205,6.548-13.654,26.546-30.413,48.012
			C472.116-563.732,615.04-698.906,655.942-728.904c0,0,0.414-10.661-3.141-24.688C670.488-768.941,676.501-791.605,665.946-806.273
			z M50.542-223.677c0,0-2.542-32.479-33.638-43.818C16.904-267.495,69.133-291.13,50.542-223.677z"/>
	</g>
	<path display="none" opacity="0.5" fill="#71C8EA" enable-background="new    " d="M1619.089-490.014l3.333,3.333
		c0,0,17-13.666,32.5-11.833c0,0,21-27.999,50-37.833c0,0,17.667-9.834,7.167-30.667s-24.327-12.937-31.167-8
		c-9.583,6.916-39.771,40.322-51.5,56.333C1629.422-518.681,1632.922-502.347,1619.089-490.014z"/>
	<g>
		<path d="M0.34,11.078c-0.418,0.627-0.488,3.902,0,4.253c0.488,0.351,9.337,0.556,9.616,0c0.279-0.556,0.418-3.835,0-4.253
			S0.758,10.451,0.34,11.078z"/>
		<path d="M7.511,10.083C7.417,5.039,7.273,0.939,7.168,0.627c-0.279-0.836-3.065-0.836-3.902,0c-0.313,0.313-0.49,4.39-0.551,9.414
			C4.221,10,5.975,10.019,7.511,10.083z"/>
		<path d="M2.696,16.264c0.033,6.782,0.239,13.303,0.571,13.769c0.697,0.975,3.066,0.696,3.902,0
			c0.4-0.334,0.481-6.875,0.426-13.705C6.034,16.355,4.233,16.328,2.696,16.264z"/>
		<path d="M18.48,19.427c-0.012-8.224-0.275-18.303-0.441-18.8c-0.279-0.836-3.066-0.836-3.902,0
			c-0.5,0.499-0.65,10.535-0.543,18.75C15.137,19.335,16.93,19.358,18.48,19.427z"/>
		<path d="M13.743,25.61c0.097,2.483,0.23,4.19,0.394,4.421c0.696,0.977,3.065,0.697,3.902,0c0.197-0.164,0.318-1.863,0.382-4.367
			C16.936,25.691,15.232,25.667,13.743,25.61z"/>
		<path d="M29.089,3.738c-0.062-1.782-0.126-2.95-0.181-3.111c-0.279-0.836-3.065-0.836-3.902,0c-0.16,0.16-0.285,1.312-0.376,3.068
			C26.047,3.662,27.657,3.681,29.089,3.738z"/>
		<path d="M24.457,9.927c-0.105,8.388,0.111,19.493,0.549,20.104c0.697,0.977,3.066,0.697,3.902,0
			c0.525-0.438,0.5-11.598,0.341-20.044C27.723,10.014,25.968,9.988,24.457,9.927z"/>
		<path d="M11.251,20.416c-0.418,0.627-0.488,3.901,0,4.252c0.488,0.352,9.337,0.556,9.616,0s0.418-3.834,0-4.252
			S11.669,19.789,11.251,20.416z"/>
		<path d="M31.736,4.737c-0.418-0.418-9.197-0.627-9.615,0c-0.418,0.628-0.488,3.902,0,4.253c0.488,0.351,9.336,0.555,9.615,0
			C32.016,8.435,32.154,5.156,31.736,4.737z"/>
	</g>
</g>
</svg>
