<?xml version="1.0" encoding="utf-8"?>
<!-- Generator: Adobe Illustrator 16.0.4, SVG Export Plug-In . SVG Version: 6.00 Build 0)  -->
<!DOCTYPE svg PUBLIC "-//W3C//DTD SVG 1.1//EN" "http://www.w3.org/Graphics/SVG/1.1/DTD/svg11.dtd">
<svg version="1.1" fill="rgb(0, 14, 156)" xmlns="http://www.w3.org/2000/svg" xmlns:xlink="http://www.w3.org/1999/xlink" x="0px" y="0px"
	 width="13.809px" height="32px" viewBox="0 0 13.809 32" enable-background="new 0 0 13.809 32" xml:space="preserve">
<g id="Fondo_1_" display="none">
	<rect id="Fondo" x="-222.314" y="-1915.522" display="inline" fill="#FB6E92" width="1000" height="2438.351"/>
</g>
<g id="Guias" display="none">
</g>
<g id="Icons">
	<g display="none" opacity="0.2">
		<path display="inline" fill="#FFFFFF" d="M187.695-439.002c-11.281,3.636-35.885,28.281-38.51,36.153
			c-2.621,7.851,12.065,36.154,18.865,37.705c6.793,1.59,56.584-20.436,58.154-28.284
			C227.775-401.299,198.978-442.681,187.695-439.002z"/>
		<path display="inline" fill="#FFFFFF" d="M290.664-519.16c-10.498,0.494-88.546,59.726-88.034,69.146
			c0.519,9.423,29.36,46.629,37.729,47.951c8.363,1.301,70.222-78.341,72.308-88.814
			C314.752-501.373,301.136-519.699,290.664-519.16z"/>
		<path display="inline" fill="#FFFFFF" d="M605.599-805.604c-10.932-15.145-35.498-16.26-56.114-3.016
			c-7.87-4.009-17.023-7.233-27.768-9.215c0,0-391.393,317.515-477.854,378.833c0,0-3.302,7.003-8.775,18.407
			c98.108,68.715,86.957,120.568,86.957,120.568c-27.149-66.916-95.885-102.037-95.905-102.037
			c-24.626,50.7-68.835,139.307-92.308,172.115c0,0-0.04,18.015,22.024,29.48c0,0,150.072-101.024,193.329-109.639
			c0,0,23.883-23.283,60.697-58.922c-20.121,10.308-43.197,20.062-52.827,20.659c-16.771,1.053-36.153-39.437-34.583-53.776
			c1.57-14.338,153.521-139.574,176.038-137.984c22.54,1.57,29.875,22.518,30.414,37.725c0.205,6.548-13.655,26.546-30.414,48.012
			c113.26-108.669,256.184-243.843,297.086-273.841c0,0,0.414-10.661-3.14-24.688C610.141-768.272,616.154-790.937,605.599-805.604z
			 M-9.806-223.008c0,0-2.542-32.478-33.638-43.818C-43.443-266.826,8.785-290.461-9.806-223.008z"/>
	</g>
	<path display="none" opacity="0.5" fill="#71C8EA" enable-background="new    " d="M1558.741-489.345l3.333,3.333
		c0,0,17-13.666,32.5-11.833c0,0,21-27.999,50-37.833c0,0,17.667-9.834,7.167-30.667s-24.327-12.938-31.167-8
		c-9.583,6.916-39.771,40.322-51.5,56.333C1569.074-518.012,1572.574-501.678,1558.741-489.345z"/>
	<g>
		<path d="M1.896,22.715c-0.09,1.117-1.988,4.604-1.893,4.795s0.96,0,2.145-0.422c-0.031,1.074-1.022,3.562-0.862,3.818
			c0.159,0.258,2.178,0.129,3.266-1.712c-0.03,0.69-0.734,1.615-0.509,1.904c0.224,0.288,1.902-0.198,2.831-1.5
			c-0.021,1-0.62,2.108-0.332,2.364c0.288,0.257,4.16-0.832,3.774-4.455c0,0-0.024,3.398,0.295,3.591
			c0.32,0.192,4.596-1.845,2.728-8.942L1.896,22.715z"/>
		<path d="M13.37,20.937c0.284-1.42,0.761-4.487-0.163-5.604c-0.438-0.53-1.823-0.604-3.466-0.427c0,0,2.271-9.58,2.438-10.374
			c0.165-0.793,0.436-4.781-3.074-4.519C5.676,0.27,4.65,2.641,4.554,4.5c-0.096,1.858,2.14,10.938,2.14,10.938
			c-2.029,0.476-3.854,1.132-4.319,1.625c-0.983,1.041-0.558,4.381-0.464,5.021L13.37,20.937z M7.334,3.09
			c0.514-0.774,1.451-1.057,2.092-0.631c0.642,0.427,0.744,1.399,0.23,2.174c-0.515,0.773-1.451,1.056-2.093,0.63
			C6.923,4.837,6.82,3.863,7.334,3.09z"/>
	</g>
</g>
</svg>
