<?xml version="1.0" encoding="utf-8"?>
<!-- Generator: Adobe Illustrator 16.0.4, SVG Export Plug-In . SVG Version: 6.00 Build 0)  -->
<!DOCTYPE svg PUBLIC "-//W3C//DTD SVG 1.1//EN" "http://www.w3.org/Graphics/SVG/1.1/DTD/svg11.dtd">
<svg version="1.1" fill="rgb(0, 14, 156)" xmlns="http://www.w3.org/2000/svg" xmlns:xlink="http://www.w3.org/1999/xlink" x="0px" y="0px"
	 width="29.691px" height="32px" viewBox="0 0 29.691 32" enable-background="new 0 0 29.691 32" xml:space="preserve">
<g id="Fondo_1_" display="none">
	<rect id="Fondo" x="-266.966" y="-1915.522" display="inline" fill="#FB6E92" width="1000" height="2438.351"/>
</g>
<g id="Guias" display="none">
</g>
<g id="Icons">
	<g display="none" opacity="0.2">
		<path display="inline" fill="#FFFFFF" d="M143.043-439.002c-11.282,3.636-35.885,28.281-38.51,36.153
			c-2.621,7.851,12.064,36.154,18.864,37.705c6.793,1.59,56.584-20.436,58.154-28.284
			C183.123-401.299,154.325-442.681,143.043-439.002z"/>
		<path display="inline" fill="#FFFFFF" d="M246.012-519.16c-10.498,0.494-88.546,59.726-88.034,69.146
			c0.52,9.423,29.36,46.629,37.729,47.951c8.362,1.301,70.221-78.341,72.307-88.814C270.1-501.373,256.483-519.699,246.012-519.16z"
			/>
		<path display="inline" fill="#FFFFFF" d="M560.947-805.604c-10.933-15.145-35.498-16.26-56.115-3.016
			c-7.87-4.009-17.023-7.233-27.767-9.215c0,0-391.394,317.515-477.854,378.833c0,0-3.302,7.003-8.776,18.407
			c98.109,68.715,86.957,120.568,86.957,120.568c-27.148-66.916-95.885-102.037-95.905-102.037
			c-24.626,50.699-68.835,139.307-92.308,172.114c0,0-0.04,18.015,22.025,29.48c0,0,150.071-101.024,193.329-109.639
			c0,0,23.883-23.283,60.696-58.922c-20.121,10.308-43.196,20.062-52.827,20.659c-16.771,1.053-36.152-39.437-34.583-53.776
			c1.57-14.338,153.521-139.574,176.038-137.984c22.54,1.57,29.875,22.518,30.414,37.725c0.205,6.548-13.654,26.546-30.414,48.012
			c113.259-108.669,256.183-243.843,297.085-273.841c0,0,0.414-10.661-3.141-24.688
			C565.489-768.272,571.501-790.937,560.947-805.604z M-54.458-223.008c0,0-2.542-32.478-33.639-43.818
			C-88.096-266.826-35.867-290.461-54.458-223.008z"/>
	</g>
	<path display="none" opacity="0.5" fill="#71C8EA" enable-background="new    " d="M1514.089-489.345l3.333,3.333
		c0,0,17-13.666,32.5-11.833c0,0,21-27.999,50-37.833c0,0,17.667-9.834,7.167-30.667s-24.327-12.938-31.167-8
		c-9.583,6.916-39.771,40.322-51.5,56.333C1524.422-518.012,1527.922-501.678,1514.089-489.345z"/>
	<path d="M25.288,13.645L10.661,28.271c0,0-2.932,3.799-6.677,0.054c-3.745-3.746-0.66-6.736-0.66-6.736l18.88-18.88
		c0,0,2.103-2.01,4.531,0.421c2.432,2.43,0.374,4.206,0.374,4.206L13.043,21.4c0,0-1.367,1.719-2.796,0.289
		c-1.551-1.551,0.226-2.951,0.226-2.951l8.917-8.917c0,0,0.757-0.757,0.104-1.411c-0.654-0.654-1.457,0.056-1.457,0.056
		l-8.917,8.917c0,0-3.092,2.799-0.228,5.662c2.919,2.919,5.647-0.24,5.647-0.24L28.604,8.644c0,0,2.887-3.096-0.747-6.729
		c-3.411-3.412-6.263-1.402-7.149-0.515C19.82,2.287,1.875,20.232,1.875,20.232s-4.728,3.918,0.83,9.476
		c5.236,5.237,9.252-0.142,9.252-0.142l14.581-14.58c0,0,0.674-0.626,0.001-1.298C25.89,13.041,25.288,13.645,25.288,13.645z"/>
</g>
</svg>
