<?xml version="1.0" encoding="utf-8"?>
<!-- Generator: Adobe Illustrator 16.0.4, SVG Export Plug-In . SVG Version: 6.00 Build 0)  -->
<!DOCTYPE svg PUBLIC "-//W3C//DTD SVG 1.1//EN" "http://www.w3.org/Graphics/SVG/1.1/DTD/svg11.dtd">
<svg version="1.1" fill="rgb(0, 14, 156)" xmlns="http://www.w3.org/2000/svg" xmlns:xlink="http://www.w3.org/1999/xlink" x="0px" y="0px"
	 width="29.59px" height="32px" viewBox="0 0 29.59 32" enable-background="new 0 0 29.59 32" xml:space="preserve">
<g id="Fondo_1_" display="none">
	<rect id="Fondo" x="-319.171" y="-1915.523" display="inline" fill="#FB6E92" width="1000" height="2438.351"/>
</g>
<g id="Guias" display="none">
</g>
<g id="Icons">
	<g display="none" opacity="0.2">
		<path display="inline" fill="#FFFFFF" d="M90.838-439.003c-11.281,3.636-35.885,28.281-38.51,36.153
			c-2.621,7.851,12.064,36.154,18.865,37.705c6.793,1.59,56.584-20.436,58.154-28.284C130.918-401.3,102.12-442.682,90.838-439.003z
			"/>
		<path display="inline" fill="#FFFFFF" d="M193.807-519.161c-10.498,0.494-88.545,59.726-88.033,69.146
			c0.519,9.423,29.359,46.629,37.729,47.951c8.363,1.301,70.221-78.341,72.307-88.814
			C217.895-501.374,204.277-519.7,193.807-519.161z"/>
		<path display="inline" fill="#FFFFFF" d="M508.741-805.605c-10.933-15.145-35.498-16.26-56.115-3.016
			c-7.87-4.009-17.023-7.233-27.767-9.215c0,0-391.394,317.515-477.854,378.833c0,0-3.302,7.003-8.776,18.407
			c98.109,68.715,86.957,120.568,86.957,120.568c-27.148-66.916-95.885-102.037-95.904-102.037
			c-24.626,50.699-68.835,139.307-92.308,172.114c0,0-0.04,18.015,22.025,29.48c0,0,150.072-101.024,193.329-109.639
			c0,0,23.883-23.283,60.696-58.922c-20.121,10.308-43.196,20.062-52.826,20.659c-16.772,1.053-36.153-39.437-34.584-53.776
			c1.57-14.338,153.521-139.574,176.039-137.984c22.539,1.57,29.875,22.518,30.414,37.725c0.205,6.548-13.655,26.546-30.414,48.012
			C314.91-563.065,457.834-698.239,498.736-728.237c0,0,0.414-10.661-3.141-24.688C513.283-768.273,519.296-790.938,508.741-805.605
			z M-106.663-223.009c0,0-2.542-32.478-33.638-43.818C-140.301-266.827-88.072-290.462-106.663-223.009z"/>
	</g>
	<path display="none" opacity="0.5" fill="#71C8EA" enable-background="new    " d="M1461.884-489.346l3.333,3.333
		c0,0,17-13.666,32.5-11.833c0,0,21-27.999,50-37.833c0,0,17.667-9.834,7.167-30.667s-24.327-12.937-31.167-8
		c-9.583,6.916-39.771,40.322-51.5,56.333C1472.217-518.013,1475.717-501.679,1461.884-489.346z"/>
	<g>
		<path d="M17.852,8.018c0.246-0.077,5.281-4.616,5.287-4.8c0.004-0.183-2.64-3.197-2.793-3.217
			c-0.755-0.095-5.809,4.392-5.808,4.958C14.537,5.17,17.605,8.095,17.852,8.018z"/>
		<path d="M28.326,11.617c-0.753-1.897-3.189-6.139-3.496-6.095c-0.307,0.045-5.643,3.548-5.639,3.735
			c0.002,0.148,1.804,1.847,3.199,3.36c-1.017,0.736-3.215,2.334-5.729,4.189c-2.167-1.854-3.824-3.255-3.824-3.255
			s0.992-5.478,0.496-6.729c-0.202-0.509-7.721-5.879-8.146-5.949C4.763,0.804,4.148,1.89,4.125,2.291s4.274,4.51,4.604,4.746
			c0.33,0.236,0.587,2.825,0.587,3.228c0,0.401-1.674,1.589-2.075,1.872c-0.401,0.284-3.282,0.283-3.683,0.071
			c-0.401-0.213-1.865-3.849-2.054-4.25c-0.188-0.401-1.275-0.308-1.487,0c-0.212,0.307,1.646,6.805,2.054,7.225
			c0.803,0.826,7.366,1.275,7.366,1.275s1.182,1.533,2.811,3.636c-4.006,3.018-7.606,5.84-7.627,6.258
			c-0.047,0.943,2.928,4.58,3.825,4.532c0.392-0.021,3.498-3.231,6.871-6.844c3.033,3.89,6.147,7.834,6.375,7.931
			c0.449,0.188,4.037-0.568,4.392-0.851c0.354-0.283,0.638-4.817,0.565-5.384c-0.034-0.285-3.541-3.375-7.01-6.371
			c1.916-2.092,3.541-3.884,4.32-4.745c1.375,2.302,2.854,6.394,2.95,6.44c0.377,0.188,1.604,0,1.983-0.283
			C29.27,20.495,30.521,17.15,28.326,11.617z M21.855,25.691c0.705-0.479,1.846-0.033,2.551,0.998c0.703,1.031,0.705,2.258,0,2.738
			c-0.704,0.48-1.846,0.034-2.551-0.998C21.15,27.398,21.15,26.173,21.855,25.691z"/>
	</g>
</g>
</svg>
