<?xml version="1.0" encoding="utf-8"?>
<!-- Generator: Adobe Illustrator 16.0.4, SVG Export Plug-In . SVG Version: 6.00 Build 0)  -->
<!DOCTYPE svg PUBLIC "-//W3C//DTD SVG 1.1//EN" "http://www.w3.org/Graphics/SVG/1.1/DTD/svg11.dtd">
<svg version="1.1" fill="rgb(0, 14, 156)" xmlns="http://www.w3.org/2000/svg" xmlns:xlink="http://www.w3.org/1999/xlink" x="0px" y="0px"
	 width="20.555px" height="32px" viewBox="0 0 20.555 32" enable-background="new 0 0 20.555 32" xml:space="preserve">
<g id="Fondo_1_" display="none">
	<rect id="Fondo" x="-376.821" y="-1915.522" display="inline" fill="#FB6E92" width="1000" height="2438.351"/>
</g>
<g id="Guias" display="none">
</g>
<g id="Icons">
	<g display="none" opacity="0.2">
		<path display="inline" fill="#FFFFFF" d="M33.188-439.002c-11.281,3.636-35.885,28.281-38.51,36.153
			c-2.621,7.851,12.065,36.154,18.865,37.705c6.793,1.59,56.584-20.436,58.153-28.284C73.268-401.299,44.47-442.681,33.188-439.002z
			"/>
		<path display="inline" fill="#FFFFFF" d="M136.157-519.16c-10.498,0.494-88.547,59.726-88.034,69.146
			c0.519,9.423,29.359,46.629,37.729,47.951c8.363,1.301,70.222-78.341,72.308-88.814
			C160.245-501.373,146.628-519.699,136.157-519.16z"/>
		<path display="inline" fill="#FFFFFF" d="M451.091-805.604c-10.932-15.145-35.498-16.26-56.115-3.016
			c-7.869-4.009-17.022-7.233-27.767-9.215c0,0-391.394,317.515-477.854,378.833c0,0-3.302,7.003-8.775,18.407
			c98.108,68.715,86.957,120.568,86.957,120.568c-27.149-66.916-95.886-102.037-95.905-102.037
			c-24.626,50.699-68.835,139.307-92.308,172.114c0,0-0.04,18.015,22.024,29.48c0,0,150.072-101.024,193.329-109.639
			c0,0,23.883-23.283,60.697-58.922c-20.121,10.308-43.197,20.062-52.827,20.659c-16.772,1.053-36.153-39.437-34.583-53.776
			c1.57-14.338,153.521-139.574,176.038-137.984c22.54,1.57,29.875,22.518,30.414,37.725c0.205,6.548-13.655,26.546-30.414,48.012
			C257.26-563.064,400.184-698.238,441.086-728.236c0,0,0.414-10.661-3.14-24.688C455.633-768.272,461.647-790.937,451.091-805.604z
			 M-164.313-223.008c0,0-2.542-32.478-33.638-43.818C-197.951-266.826-145.722-290.461-164.313-223.008z"/>
	</g>
	<path display="none" opacity="0.5" fill="#71C8EA" enable-background="new    " d="M1404.235-489.345l3.333,3.333
		c0,0,17-13.666,32.5-11.833c0,0,21-27.999,50-37.833c0,0,17.667-9.834,7.167-30.667s-24.327-12.938-31.167-8
		c-9.583,6.916-39.771,40.322-51.5,56.333C1414.568-518.012,1418.068-501.678,1404.235-489.345z"/>
	<path d="M3.621,0C2.657,0,0,2.979,0,3.971c0,0.993,13.664,10.627,13.664,11.328C13.664,15.999,0,26.189,0,27.096
		C0,28.001,4.438,32,5.255,32c0.818,0,15.299-15.795,15.299-16.817S4.584,0,3.621,0z"/>
</g>
</svg>
