<?xml version="1.0" encoding="utf-8"?>
<!-- Generator: Adobe Illustrator 16.0.4, SVG Export Plug-In . SVG Version: 6.00 Build 0)  -->
<!DOCTYPE svg PUBLIC "-//W3C//DTD SVG 1.1//EN" "http://www.w3.org/Graphics/SVG/1.1/DTD/svg11.dtd">
<svg version="1.1" fill="rgb(0, 14, 156)" xmlns="http://www.w3.org/2000/svg" xmlns:xlink="http://www.w3.org/1999/xlink" x="0px" y="0px"
	 width="20.555px" height="32px" viewBox="0 0 20.555 32" enable-background="new 0 0 20.555 32" xml:space="preserve">
<g id="Fondo_1_" display="none">
	<rect id="Fondo" x="-427.821" y="-1915.522" display="inline" fill="#FB6E92" width="1000" height="2438.351"/>
</g>
<g id="Guias" display="none">
</g>
<g id="Icons">
	<g display="none" opacity="0.2">
		<path display="inline" fill="#FFFFFF" d="M-17.812-439.002c-11.281,3.636-35.885,28.281-38.51,36.153
			c-2.621,7.851,12.065,36.154,18.865,37.705c6.793,1.59,56.584-20.436,58.153-28.284C22.268-401.299-6.53-442.681-17.812-439.002z"
			/>
		<path display="inline" fill="#FFFFFF" d="M85.157-519.16c-10.498,0.494-88.547,59.726-88.034,69.146
			c0.519,9.423,29.359,46.629,37.729,47.951c8.363,1.301,70.222-78.341,72.308-88.814C109.245-501.373,95.628-519.699,85.157-519.16
			z"/>
		<path display="inline" fill="#FFFFFF" d="M400.091-805.604c-10.932-15.145-35.498-16.26-56.115-3.016
			c-7.869-4.009-17.022-7.233-27.767-9.215c0,0-391.394,317.515-477.854,378.833c0,0-3.302,7.003-8.775,18.407
			c98.108,68.715,86.957,120.568,86.957,120.568c-27.149-66.916-95.886-102.037-95.905-102.037
			c-24.626,50.699-68.835,139.307-92.308,172.114c0,0-0.04,18.015,22.024,29.48c0,0,150.072-101.024,193.329-109.639
			c0,0,23.883-23.283,60.697-58.922c-20.121,10.308-43.197,20.062-52.827,20.659c-16.772,1.053-36.153-39.437-34.583-53.776
			c1.57-14.338,153.521-139.574,176.038-137.984c22.54,1.57,29.875,22.518,30.414,37.725c0.205,6.548-13.655,26.546-30.414,48.012
			C206.26-563.064,349.184-698.238,390.086-728.236c0,0,0.414-10.661-3.14-24.688C404.633-768.272,410.647-790.937,400.091-805.604z
			 M-215.313-223.008c0,0-2.542-32.478-33.638-43.818C-248.951-266.826-196.722-290.461-215.313-223.008z"/>
	</g>
	<path display="none" opacity="0.5" fill="#71C8EA" enable-background="new    " d="M1353.235-489.345l3.333,3.333
		c0,0,17-13.666,32.5-11.833c0,0,21-27.999,50-37.833c0,0,17.667-9.834,7.167-30.667s-24.327-12.938-31.167-8
		c-9.583,6.916-39.771,40.322-51.5,56.333C1363.568-518.012,1367.068-501.678,1353.235-489.345z"/>
	<path d="M16.934,0c0.964,0,3.621,2.979,3.621,3.971c0,0.993-13.664,10.627-13.664,11.328c0,0.7,13.664,10.891,13.664,11.797
		C20.555,28,16.117,32,15.299,32S0,16.205,0,15.183S15.971,0,16.934,0z"/>
</g>
</svg>
