<?xml version="1.0" encoding="utf-8"?>
<!-- Generator: Adobe Illustrator 16.0.4, SVG Export Plug-In . SVG Version: 6.00 Build 0)  -->
<!DOCTYPE svg PUBLIC "-//W3C//DTD SVG 1.1//EN" "http://www.w3.org/Graphics/SVG/1.1/DTD/svg11.dtd">
<svg version="1.1" fill="rgb(0, 14, 156)" xmlns="http://www.w3.org/2000/svg" xmlns:xlink="http://www.w3.org/1999/xlink" x="0px" y="0px"
	 width="32px" height="20.555px" viewBox="0 0 32 20.555" enable-background="new 0 0 32 20.555" xml:space="preserve">
<g id="Fondo_1_" display="none">
	<rect id="Fondo" x="-526.098" y="-1922.245" display="inline" fill="#FB6E92" width="1000" height="2438.352"/>
</g>
<g id="Guias" display="none">
</g>
<g id="Icons">
	<g display="none" opacity="0.2">
		<path display="inline" fill="#FFFFFF" d="M-116.089-445.725c-11.282,3.637-35.885,28.281-38.51,36.153
			c-2.621,7.851,12.065,36.154,18.865,37.705c6.793,1.59,56.584-20.436,58.154-28.284
			C-76.009-408.021-104.807-449.403-116.089-445.725z"/>
		<path display="inline" fill="#FFFFFF" d="M-13.12-525.883c-10.498,0.493-88.546,59.726-88.034,69.146
			c0.519,9.423,29.36,46.629,37.729,47.951c8.363,1.301,70.221-78.341,72.307-88.814C10.968-508.096-2.648-526.422-13.12-525.883z"
			/>
		<path display="inline" fill="#FFFFFF" d="M301.814-812.327c-10.933-15.146-35.498-16.26-56.115-3.016
			c-7.87-4.01-17.023-7.233-27.768-9.216c0,0-391.393,317.516-477.854,378.833c0,0-3.302,7.003-8.776,18.407
			c98.109,68.715,86.957,120.568,86.957,120.568c-27.149-66.916-95.885-102.037-95.905-102.037
			c-24.626,50.699-68.835,139.307-92.308,172.114c0,0-0.04,18.015,22.025,29.479c0,0,150.072-101.023,193.329-109.639
			c0,0,23.883-23.283,60.697-58.922c-20.121,10.308-43.197,20.062-52.827,20.658c-16.772,1.054-36.153-39.437-34.583-53.775
			c1.57-14.338,153.521-139.574,176.038-137.984c22.541,1.57,29.875,22.519,30.414,37.726c0.205,6.548-13.655,26.546-30.414,48.012
			c113.259-108.668,256.184-243.842,297.087-273.84c0,0,0.414-10.661-3.141-24.688C306.356-774.995,312.369-797.659,301.814-812.327
			z M-313.59-229.73c0,0-2.542-32.478-33.638-43.817C-347.228-273.549-294.999-297.184-313.59-229.73z"/>
	</g>
	<path display="none" opacity="0.5" fill="#71C8EA" enable-background="new    " d="M1254.957-496.067l3.333,3.333
		c0,0,17-13.666,32.5-11.833c0,0,21-27.999,50-37.833c0,0,17.667-9.834,7.167-30.667s-24.327-12.937-31.167-8
		c-9.583,6.916-39.771,40.322-51.5,56.333C1265.29-524.734,1268.79-508.4,1254.957-496.067z"/>
	<path d="M0,16.935c0,0.963,2.979,3.62,3.971,3.62c0.994,0,10.627-13.664,11.328-13.664c0.701,0,10.891,13.664,11.797,13.664
		C28,20.555,32,16.116,32,15.3C32,14.481,16.205,0,15.184,0C14.16,0,0,15.971,0,16.935z"/>
</g>
</svg>
