<?xml version="1.0" encoding="utf-8"?>
<!-- Generator: Adobe Illustrator 16.0.4, SVG Export Plug-In . SVG Version: 6.00 Build 0)  -->
<!DOCTYPE svg PUBLIC "-//W3C//DTD SVG 1.1//EN" "http://www.w3.org/Graphics/SVG/1.1/DTD/svg11.dtd">
<svg version="1.1" fill="rgb(0, 14, 156)" xmlns="http://www.w3.org/2000/svg" xmlns:xlink="http://www.w3.org/1999/xlink" x="0px" y="0px"
	 width="32px" height="28.801px" viewBox="0 0 32 28.801" enable-background="new 0 0 32 28.801" xml:space="preserve">
<g id="Fondo_1_" display="none">
	<rect id="Fondo" x="-629.959" y="-1917.122" display="inline" fill="#FB6E92" width="1000" height="2438.352"/>
</g>
<g id="Guias" display="none">
</g>
<g id="Icons">
	<g display="none" opacity="0.2">
		<path display="inline" fill="#FFFFFF" d="M-219.95-440.602c-11.282,3.636-35.885,28.281-38.51,36.153
			c-2.621,7.851,12.065,36.154,18.865,37.705c6.793,1.59,56.584-20.436,58.154-28.284
			C-179.87-402.898-208.668-444.28-219.95-440.602z"/>
		<path display="inline" fill="#FFFFFF" d="M-116.981-520.76c-10.498,0.494-88.546,59.726-88.034,69.146
			c0.519,9.423,29.36,46.629,37.729,47.951c8.363,1.301,70.221-78.341,72.307-88.814C-92.894-502.973-106.51-521.299-116.981-520.76
			z"/>
		<path display="inline" fill="#FFFFFF" d="M197.953-807.204c-10.932-15.145-35.498-16.26-56.115-3.016
			c-7.87-4.009-17.023-7.233-27.768-9.215c0,0-391.393,317.515-477.854,378.833c0,0-3.302,7.003-8.776,18.407
			c98.109,68.715,86.957,120.568,86.957,120.568c-27.149-66.916-95.885-102.037-95.905-102.037
			c-24.626,50.699-68.835,139.307-92.308,172.114c0,0-0.04,18.015,22.025,29.48c0,0,150.072-101.024,193.329-109.639
			c0,0,23.883-23.283,60.697-58.922c-20.121,10.308-43.197,20.062-52.827,20.659c-16.772,1.053-36.153-39.437-34.583-53.776
			c1.57-14.338,153.521-139.574,176.038-137.984c22.54,1.57,29.875,22.518,30.414,37.725c0.205,6.548-13.655,26.546-30.414,48.012
			C4.124-564.663,147.048-699.837,187.95-729.835c0,0,0.413-10.661-3.14-24.688C202.495-769.872,208.508-792.536,197.953-807.204z
			 M-417.451-224.607c0,0-2.542-32.478-33.638-43.818C-451.089-268.426-398.86-292.061-417.451-224.607z"/>
	</g>
	<path display="none" opacity="0.5" fill="#71C8EA" enable-background="new    " d="M1151.096-490.944l3.333,3.333
		c0,0,17-13.666,32.5-11.833c0,0,21-27.999,50-37.833c0,0,17.667-9.834,7.167-30.667s-24.327-12.937-31.167-8
		c-9.583,6.916-39.771,40.322-51.5,56.333C1161.429-519.611,1164.929-503.277,1151.096-490.944z"/>
	<g>
		<path d="M3.259,0C2.392,0,0,2.681,0,3.574c0,0.893,12.298,9.564,12.298,10.195C12.298,14.399,0,23.57,0,24.386
			s3.995,4.415,4.73,4.415c0.736,0,13.77-14.216,13.77-15.136C18.5,12.744,4.126,0,3.259,0z"/>
		<path d="M16.76,0c-0.868,0-3.26,2.681-3.26,3.574c0,0.893,12.298,9.564,12.298,10.195c0,0.63-12.298,9.801-12.298,10.616
			s3.995,4.415,4.73,4.415S32,14.584,32,13.664S17.626,0,16.76,0z"/>
	</g>
</g>
</svg>
