<?xml version="1.0" encoding="utf-8"?>
<!-- Generator: Adobe Illustrator 16.0.4, SVG Export Plug-In . SVG Version: 6.00 Build 0)  -->
<!DOCTYPE svg PUBLIC "-//W3C//DTD SVG 1.1//EN" "http://www.w3.org/Graphics/SVG/1.1/DTD/svg11.dtd">
<svg version="1.1" fill="rgb(0, 14, 156)" xmlns="http://www.w3.org/2000/svg" xmlns:xlink="http://www.w3.org/1999/xlink" x="0px" y="0px"
	 width="31.477px" height="32px" viewBox="0 0 31.477 32" enable-background="new 0 0 31.477 32" xml:space="preserve">
<g id="Fondo_1_" display="none">
	<rect id="Fondo" x="-734.334" y="-1915.522" display="inline" fill="#FB6E92" width="1000" height="2438.351"/>
</g>
<g id="Guias" display="none">
</g>
<g id="Icons">
	<g display="none" opacity="0.2">
		<path display="inline" fill="#FFFFFF" d="M-324.325-439.002c-11.282,3.636-35.885,28.281-38.51,36.153
			c-2.621,7.851,12.064,36.154,18.864,37.705c6.794,1.59,56.584-20.436,58.154-28.284
			C-284.245-401.299-313.043-442.681-324.325-439.002z"/>
		<path display="inline" fill="#FFFFFF" d="M-221.356-519.16c-10.498,0.494-88.546,59.726-88.034,69.146
			c0.52,9.423,29.36,46.629,37.729,47.951c8.363,1.301,70.221-78.341,72.307-88.814
			C-197.269-501.373-210.885-519.699-221.356-519.16z"/>
		<path display="inline" fill="#FFFFFF" d="M93.578-805.604c-10.933-15.145-35.498-16.26-56.115-3.016
			c-7.87-4.009-17.023-7.233-27.768-9.215c0,0-391.393,317.515-477.854,378.833c0,0-3.302,7.003-8.776,18.407
			c98.109,68.715,86.957,120.568,86.957,120.568c-27.148-66.916-95.885-102.037-95.904-102.037
			c-24.626,50.699-68.835,139.307-92.309,172.114c0,0-0.04,18.015,22.025,29.48c0,0,150.072-101.024,193.329-109.639
			c0,0,23.883-23.283,60.696-58.922c-20.12,10.308-43.196,20.062-52.826,20.659c-16.772,1.053-36.153-39.437-34.583-53.776
			c1.569-14.338,153.521-139.574,176.037-137.984c22.54,1.57,29.875,22.518,30.414,37.725c0.205,6.548-13.654,26.546-30.414,48.012
			c113.261-108.668,256.185-243.842,297.087-273.84c0,0,0.413-10.661-3.141-24.688C98.12-768.272,104.133-790.937,93.578-805.604z
			 M-521.826-223.008c0,0-2.542-32.478-33.638-43.818C-555.464-266.826-503.235-290.461-521.826-223.008z"/>
	</g>
	<path display="none" opacity="0.5" fill="#71C8EA" enable-background="new    " d="M1046.721-489.345l3.333,3.333
		c0,0,17-13.666,32.5-11.833c0,0,21-27.999,50-37.833c0,0,17.667-9.834,7.167-30.667s-24.327-12.938-31.167-8
		c-9.583,6.916-39.771,40.322-51.5,56.333C1057.054-518.012,1060.554-501.678,1046.721-489.345z"/>
	<g>
		<path d="M3.621,0C2.657,0,0,2.979,0,3.971c0,0.993,13.664,10.627,13.664,11.328C13.664,15.999,0,26.189,0,27.096
			C0,28.001,4.438,32,5.256,32s15.299-15.795,15.299-16.817S4.584,0,3.621,0z"/>
		<path d="M30.861,1.077c-0.606-1.324-5.059-1.545-6.068,0s-0.607,28.687,0,30.011c0.605,1.323,5.057,1.104,6.068,0
			S31.468,2.401,30.861,1.077z"/>
	</g>
</g>
</svg>
