<?xml version="1.0" encoding="utf-8"?>
<!-- Generator: Adobe Illustrator 16.0.4, SVG Export Plug-In . SVG Version: 6.00 Build 0)  -->
<!DOCTYPE svg PUBLIC "-//W3C//DTD SVG 1.1//EN" "http://www.w3.org/Graphics/SVG/1.1/DTD/svg11.dtd">
<svg version="1.1" fill="rgb(0, 14, 156)" xmlns="http://www.w3.org/2000/svg" xmlns:xlink="http://www.w3.org/1999/xlink" x="0px" y="0px"
	 width="31.477px" height="32px" viewBox="0 0 31.477 32" enable-background="new 0 0 31.477 32" xml:space="preserve">
<g id="Fondo_1_" display="none">
	<rect id="Fondo" x="-786.334" y="-1915.522" display="inline" fill="#FB6E92" width="1000" height="2438.351"/>
</g>
<g id="Guias" display="none">
</g>
<g id="Icons">
	<g display="none" opacity="0.2">
		<path display="inline" fill="#FFFFFF" d="M-376.325-439.002c-11.282,3.636-35.885,28.281-38.51,36.153
			c-2.621,7.851,12.064,36.154,18.864,37.705c6.794,1.59,56.584-20.436,58.154-28.284
			C-336.245-401.299-365.043-442.681-376.325-439.002z"/>
		<path display="inline" fill="#FFFFFF" d="M-273.356-519.16c-10.498,0.494-88.546,59.726-88.034,69.146
			c0.52,9.423,29.36,46.629,37.729,47.951c8.363,1.301,70.221-78.341,72.307-88.814
			C-249.269-501.373-262.885-519.699-273.356-519.16z"/>
		<path display="inline" fill="#FFFFFF" d="M41.578-805.604c-10.933-15.145-35.498-16.26-56.115-3.016
			c-7.87-4.009-17.023-7.233-27.768-9.215c0,0-391.393,317.515-477.854,378.833c0,0-3.302,7.003-8.776,18.407
			c98.109,68.715,86.957,120.568,86.957,120.568c-27.148-66.916-95.885-102.037-95.904-102.037
			c-24.626,50.699-68.835,139.307-92.309,172.114c0,0-0.04,18.015,22.025,29.48c0,0,150.072-101.024,193.329-109.639
			c0,0,23.883-23.283,60.696-58.922c-20.12,10.308-43.196,20.062-52.826,20.659c-16.772,1.053-36.153-39.437-34.583-53.776
			c1.569-14.338,153.521-139.574,176.038-137.984c22.539,1.57,29.875,22.518,30.413,37.725c0.205,6.548-13.654,26.546-30.413,48.012
			c113.26-108.668,256.184-243.842,297.086-273.84c0,0,0.414-10.661-3.141-24.688C46.12-768.272,52.133-790.937,41.578-805.604z
			 M-573.826-223.008c0,0-2.542-32.478-33.638-43.818C-607.464-266.826-555.235-290.461-573.826-223.008z"/>
	</g>
	<path display="none" opacity="0.5" fill="#71C8EA" enable-background="new    " d="M994.721-489.345l3.333,3.333
		c0,0,17-13.666,32.5-11.833c0,0,21-27.999,50-37.833c0,0,17.667-9.834,7.167-30.667s-24.327-12.938-31.167-8
		c-9.583,6.916-39.771,40.322-51.5,56.333C1005.054-518.012,1008.554-501.678,994.721-489.345z"/>
	<g>
		<path d="M27.855,0c0.964,0,3.621,2.979,3.621,3.971c0,0.993-13.664,10.627-13.664,11.328c0,0.7,13.664,10.891,13.664,11.797
			C31.476,28,27.038,32,26.221,32c-0.818,0-15.299-15.795-15.299-16.817S26.893,0,27.855,0z"/>
		<path d="M0.615,1.077c0.606-1.324,5.059-1.545,6.068,0s0.607,28.687,0,30.011c-0.605,1.323-5.057,1.104-6.068,0
			S0.009,2.401,0.615,1.077z"/>
	</g>
</g>
</svg>
