<?xml version="1.0" encoding="utf-8"?>
<!-- Generator: Adobe Illustrator 16.0.4, SVG Export Plug-In . SVG Version: 6.00 Build 0)  -->
<!DOCTYPE svg PUBLIC "-//W3C//DTD SVG 1.1//EN" "http://www.w3.org/Graphics/SVG/1.1/DTD/svg11.dtd">
<svg version="1.1" fill="rgb(0, 14, 156)" xmlns="http://www.w3.org/2000/svg" xmlns:xlink="http://www.w3.org/1999/xlink" x="0px" y="0px"
	 width="32px" height="32px" viewBox="0 0 32 32" enable-background="new 0 0 32 32" xml:space="preserve">
<g id="Fondo_1_" display="none">
	<rect id="Fondo" x="-109.967" y="-1979.522" display="inline" fill="#FB6E92" width="1000" height="2438.351"/>
</g>
<g id="Guias" display="none">
</g>
<g id="Icons">
	<g display="none" opacity="0.2">
		<path display="inline" fill="#FFFFFF" d="M300.042-503.002c-11.282,3.636-35.885,28.281-38.51,36.153
			c-2.621,7.851,12.065,36.154,18.864,37.705c6.793,1.59,56.584-20.436,58.154-28.284
			C340.122-465.299,311.324-506.681,300.042-503.002z"/>
		<path display="inline" fill="#FFFFFF" d="M403.011-583.16c-10.498,0.494-88.546,59.726-88.034,69.146
			c0.52,9.423,29.36,46.629,37.729,47.951c8.363,1.301,70.221-78.341,72.307-88.814C427.099-565.373,413.482-583.699,403.011-583.16
			z"/>
		<path display="inline" fill="#FFFFFF" d="M717.945-869.604c-10.933-15.145-35.498-16.26-56.115-3.016
			c-7.87-4.009-17.023-7.233-27.768-9.215c0,0-391.393,317.515-477.854,378.833c0,0-3.302,7.003-8.775,18.407
			c98.108,68.715,86.957,120.568,86.957,120.568c-27.149-66.916-95.886-102.037-95.906-102.037
			C113.859-415.365,69.65-326.757,46.177-293.95c0,0-0.04,18.015,22.025,29.48c0,0,150.071-101.024,193.329-109.639
			c0,0,23.883-23.283,60.696-58.922c-20.12,10.308-43.196,20.062-52.827,20.659c-16.771,1.053-36.152-39.437-34.582-53.776
			c1.57-14.338,153.521-139.574,176.037-137.984c22.54,1.57,29.875,22.518,30.414,37.725c0.205,6.548-13.654,26.546-30.414,48.012
			c113.261-108.668,256.185-243.842,297.087-273.84c0,0,0.414-10.661-3.141-24.688C722.487-832.272,728.5-854.937,717.945-869.604z
			 M102.541-287.008c0,0-2.542-32.478-33.639-43.818C68.902-330.826,121.132-354.461,102.541-287.008z"/>
	</g>
	<path display="none" opacity="0.5" fill="#71C8EA" enable-background="new    " d="M1671.088-553.345l3.333,3.333
		c0,0,17-13.666,32.5-11.833c0,0,21-27.999,50-37.833c0,0,17.667-9.834,7.167-30.667s-24.327-12.938-31.167-8
		c-9.583,6.916-39.771,40.322-51.5,56.333C1681.421-582.012,1684.921-565.678,1671.088-553.345z"/>
	<path d="M16,0C7.162,0,0,7.163,0,16c0,8.836,7.162,16,16,16c8.836,0,16-7.164,16-16C32,7.163,24.836,0,16,0z M14.914,25
		c-0.46,0-2.956-2.25-2.956-2.759c0-0.511,7.687-6.242,7.687-6.636c0-0.395-7.687-5.813-7.687-6.372C11.958,8.676,13.452,7,13.994,7
		s9.525,7.965,9.525,8.54S15.374,25,14.914,25z"/>
</g>
</svg>
