<?xml version="1.0" encoding="utf-8"?>
<!-- Generator: Adobe Illustrator 16.0.4, SVG Export Plug-In . SVG Version: 6.00 Build 0)  -->
<!DOCTYPE svg PUBLIC "-//W3C//DTD SVG 1.1//EN" "http://www.w3.org/Graphics/SVG/1.1/DTD/svg11.dtd">
<svg version="1.1" fill="rgb(0, 14, 156)" xmlns="http://www.w3.org/2000/svg" xmlns:xlink="http://www.w3.org/1999/xlink" x="0px" y="0px"
	 width="32px" height="32px" viewBox="0 0 32 32" enable-background="new 0 0 32 32" xml:space="preserve">
<g id="Fondo_1_" display="none">
	<rect id="Fondo" x="-265.965" y="-1979.522" display="inline" fill="#FB6E92" width="1000" height="2438.351"/>
</g>
<g id="Guias" display="none">
</g>
<g id="Icons">
	<g display="none" opacity="0.2">
		<path display="inline" fill="#FFFFFF" d="M144.044-503.002c-11.282,3.636-35.885,28.281-38.51,36.153
			c-2.621,7.851,12.065,36.154,18.864,37.705c6.793,1.59,56.584-20.436,58.154-28.284
			C184.124-465.299,155.326-506.681,144.044-503.002z"/>
		<path display="inline" fill="#FFFFFF" d="M247.014-583.16c-10.498,0.494-88.547,59.726-88.035,69.146
			c0.52,9.423,29.36,46.629,37.729,47.951c8.362,1.301,70.222-78.341,72.308-88.814C271.102-565.373,257.484-583.699,247.014-583.16
			z"/>
		<path display="inline" fill="#FFFFFF" d="M561.947-869.604c-10.933-15.145-35.498-16.26-56.115-3.016
			c-7.87-4.009-17.023-7.233-27.767-9.215c0,0-391.394,317.515-477.854,378.833c0,0-3.302,7.003-8.776,18.407
			c98.109,68.715,86.958,120.568,86.958,120.568c-27.149-66.916-95.886-102.037-95.906-102.037
			c-24.626,50.699-68.835,139.307-92.308,172.114c0,0-0.04,18.015,22.025,29.48c0,0,150.071-101.024,193.329-109.639
			c0,0,23.883-23.283,60.697-58.922c-20.121,10.308-43.197,20.062-52.828,20.659c-16.771,1.053-36.152-39.437-34.582-53.776
			c1.57-14.338,153.521-139.574,176.037-137.984c22.541,1.57,29.875,22.518,30.414,37.725c0.205,6.548-13.654,26.546-30.414,48.012
			C368.116-627.064,511.04-762.238,551.942-792.236c0,0,0.414-10.661-3.141-24.688C566.489-832.272,572.502-854.937,561.947-869.604
			z M-53.457-287.008c0,0-2.542-32.478-33.638-43.818C-87.095-330.826-34.866-354.461-53.457-287.008z"/>
	</g>
	<path display="none" opacity="0.5" fill="#71C8EA" enable-background="new    " d="M1515.09-553.345l3.333,3.333
		c0,0,17-13.666,32.5-11.833c0,0,21-27.999,50-37.833c0,0,17.667-9.834,7.167-30.667s-24.327-12.938-31.167-8
		c-9.583,6.916-39.771,40.322-51.5,56.333C1525.423-582.012,1528.923-565.678,1515.09-553.345z"/>
	<path d="M16,0C7.163,0,0,7.163,0,16c0,8.836,7.163,16,16,16c8.836,0,16-7.164,16-16C32,7.163,24.836,0,16,0z M22.507,21.779
		c-0.559,0-5.978-7.686-6.372-7.686c-0.394,0-6.126,7.686-6.636,7.686c-0.509,0-2.759-2.495-2.759-2.954
		c0-0.461,8.885-8.605,9.46-8.605s8.54,8.982,8.54,9.525C24.74,20.286,23.064,21.779,22.507,21.779z"/>
</g>
</svg>
