<?xml version="1.0" encoding="utf-8"?>
<!-- Generator: Adobe Illustrator 16.0.4, SVG Export Plug-In . SVG Version: 6.00 Build 0)  -->
<!DOCTYPE svg PUBLIC "-//W3C//DTD SVG 1.1//EN" "http://www.w3.org/Graphics/SVG/1.1/DTD/svg11.dtd">
<svg version="1.1" fill="rgb(0, 14, 156)" xmlns="http://www.w3.org/2000/svg" xmlns:xlink="http://www.w3.org/1999/xlink" x="0px" y="0px"
	 width="32px" height="32px" viewBox="0 0 32 32" enable-background="new 0 0 32 32" xml:space="preserve">
<g id="Fondo_1_" display="none">
	<rect id="Fondo" x="-318.35" y="-1979.522" display="inline" fill="#FB6E92" width="1000" height="2438.351"/>
</g>
<g id="Guias" display="none">
</g>
<g id="Icons">
	<g display="none" opacity="0.2">
		<path display="inline" fill="#FFFFFF" d="M91.659-503.002c-11.282,3.636-35.886,28.281-38.511,36.153
			c-2.621,7.851,12.065,36.154,18.865,37.705c6.793,1.59,56.584-20.436,58.154-28.284
			C131.738-465.299,102.941-506.681,91.659-503.002z"/>
		<path display="inline" fill="#FFFFFF" d="M194.628-583.16c-10.498,0.494-88.546,59.726-88.034,69.146
			c0.52,9.423,29.36,46.629,37.729,47.951c8.362,1.301,70.221-78.341,72.307-88.814C218.716-565.373,205.1-583.699,194.628-583.16z"
			/>
		<path display="inline" fill="#FFFFFF" d="M509.562-869.604c-10.933-15.145-35.498-16.26-56.115-3.016
			c-7.87-4.009-17.023-7.233-27.768-9.215c0,0-391.393,317.515-477.854,378.833c0,0-3.302,7.003-8.776,18.407
			c98.11,68.715,86.958,120.569,86.958,120.569c-27.149-66.916-95.885-102.037-95.905-102.037
			c-24.626,50.699-68.835,139.307-92.308,172.114c0,0-0.04,18.015,22.025,29.48c0,0,150.072-101.024,193.329-109.639
			c0,0,23.884-23.283,60.697-58.922c-20.121,10.308-43.197,20.062-52.826,20.659c-16.772,1.053-36.153-39.437-34.584-53.776
			c1.57-14.338,153.521-139.574,176.039-137.984c22.539,1.57,29.875,22.518,30.414,37.725c0.204,6.548-13.656,26.546-30.414,48.012
			C315.733-627.063,458.657-762.237,499.56-792.235c0,0,0.414-10.661-3.14-24.688C514.104-832.272,520.117-854.937,509.562-869.604z
			 M-105.842-287.008c0,0-2.542-32.478-33.638-43.818C-139.479-330.826-87.251-354.461-105.842-287.008z"/>
	</g>
	<path display="none" opacity="0.5" fill="#71C8EA" enable-background="new    " d="M1462.705-553.345l3.333,3.333
		c0,0,17-13.666,32.5-11.833c0,0,21-27.999,50-37.833c0,0,17.667-9.834,7.167-30.667s-24.327-12.938-31.167-8
		c-9.583,6.916-39.771,40.322-51.5,56.333C1473.038-582.012,1476.538-565.678,1462.705-553.345z"/>
	<path d="M16,0C7.164,0,0,7.163,0,16s7.164,16,16,16s16-7.163,16-16S24.836,0,16,0z M14.086,24.486
		c-0.582,0.621-3.137,0.744-3.485,0c-0.348-0.743-0.58-16.011,0-16.88c0.581-0.869,3.137-0.744,3.485,0S14.667,23.867,14.086,24.486
		z M21.398,24.486c-0.582,0.621-3.138,0.744-3.485,0c-0.349-0.743-0.581-16.011,0-16.88c0.58-0.869,3.136-0.744,3.485,0
		C21.748,8.351,21.979,23.867,21.398,24.486z"/>
</g>
</svg>
