<?xml version="1.0" encoding="utf-8"?>
<!-- Generator: Adobe Illustrator 16.0.4, SVG Export Plug-In . SVG Version: 6.00 Build 0)  -->
<!DOCTYPE svg PUBLIC "-//W3C//DTD SVG 1.1//EN" "http://www.w3.org/Graphics/SVG/1.1/DTD/svg11.dtd">
<svg version="1.1" fill="rgb(0, 14, 156)" xmlns="http://www.w3.org/2000/svg" xmlns:xlink="http://www.w3.org/1999/xlink" x="0px" y="0px"
	 width="32px" height="32px" viewBox="0 0 32 32" enable-background="new 0 0 32 32" xml:space="preserve">
<g id="Fondo_1_" display="none">
	<rect id="Fondo" x="-369.966" y="-1979.522" display="inline" fill="#FB6E92" width="1000" height="2438.351"/>
</g>
<g id="Guias" display="none">
</g>
<g id="Icons">
	<g display="none" opacity="0.2">
		<path display="inline" fill="#FFFFFF" d="M40.043-503.002c-11.282,3.636-35.885,28.281-38.51,36.153
			c-2.621,7.851,12.065,36.154,18.865,37.705c6.793,1.59,56.584-20.436,58.153-28.284C80.124-465.299,51.326-506.681,40.043-503.002
			z"/>
		<path display="inline" fill="#FFFFFF" d="M143.012-583.16c-10.498,0.494-88.546,59.726-88.033,69.146
			c0.519,9.423,29.359,46.629,37.729,47.951c8.363,1.301,70.221-78.341,72.307-88.814C167.1-565.373,153.484-583.699,143.012-583.16
			z"/>
		<path display="inline" fill="#FFFFFF" d="M457.947-869.604c-10.933-15.145-35.498-16.26-56.115-3.016
			c-7.87-4.009-17.023-7.233-27.767-9.215c0,0-391.394,317.515-477.854,378.833c0,0-3.302,7.003-8.776,18.407
			c98.109,68.715,86.957,120.568,86.957,120.568c-27.149-66.916-95.885-102.037-95.905-102.037
			c-24.626,50.699-68.835,139.307-92.308,172.114c0,0-0.04,18.015,22.025,29.48c0,0,150.072-101.024,193.329-109.639
			c0,0,23.883-23.283,60.697-58.922c-20.121,10.309-43.196,20.063-52.827,20.661c-16.772,1.053-36.153-39.437-34.583-53.776
			c1.57-14.338,153.521-139.574,176.039-137.984c22.539,1.57,29.875,22.518,30.414,37.725c0.205,6.548-13.655,26.546-30.414,48.012
			c113.258-108.669,256.182-243.843,297.084-273.841c0,0,0.414-10.661-3.141-24.688
			C462.489-832.272,468.501-854.937,457.947-869.604z M-157.458-287.008c0,0-2.542-32.478-33.638-43.818
			C-191.095-330.826-138.867-354.461-157.458-287.008z"/>
	</g>
	<path display="none" opacity="0.5" fill="#71C8EA" enable-background="new    " d="M1411.089-553.345l3.333,3.333
		c0,0,17-13.666,32.5-11.833c0,0,21-27.999,50-37.833c0,0,17.667-9.834,7.167-30.667s-24.327-12.938-31.167-8
		c-9.583,6.916-39.771,40.322-51.5,56.333C1421.422-582.012,1424.922-565.678,1411.089-553.345z"/>
	<path d="M16,0C7.164,0,0,7.163,0,16s7.164,16,16,16s16-7.163,16-16S24.836,0,16,0z M11.071,24.102
		c-0.414,0-2.661-2.025-2.661-2.484c0-0.457,6.917-5.617,6.917-5.971c0-0.355-6.917-5.232-6.917-5.735S9.755,7.9,10.243,7.9
		c0.488,0,8.573,7.169,8.573,7.688C18.816,16.104,11.485,24.102,11.071,24.102z M18.665,24.102c-0.414,0-2.661-2.025-2.661-2.484
		c0-0.457,6.917-5.617,6.917-5.971c0-0.355-6.917-5.232-6.917-5.735S17.35,7.9,17.837,7.9s8.573,7.169,8.573,7.688
		C26.41,16.104,19.079,24.102,18.665,24.102z"/>
</g>
</svg>
