<?xml version="1.0" encoding="utf-8"?>
<!-- Generator: Adobe Illustrator 16.0.4, SVG Export Plug-In . SVG Version: 6.00 Build 0)  -->
<!DOCTYPE svg PUBLIC "-//W3C//DTD SVG 1.1//EN" "http://www.w3.org/Graphics/SVG/1.1/DTD/svg11.dtd">
<svg version="1.1" fill="rgb(0, 14, 156)" xmlns="http://www.w3.org/2000/svg" xmlns:xlink="http://www.w3.org/1999/xlink" x="0px" y="0px"
	 width="32px" height="32px" viewBox="0 0 32 32" enable-background="new 0 0 32 32" xml:space="preserve">
<g id="Fondo_1_" display="none">
	<rect id="Fondo" x="-473.966" y="-1979.522" display="inline" fill="#FB6E92" width="1000" height="2438.351"/>
</g>
<g id="Guias" display="none">
</g>
<g id="Icons">
	<g display="none" opacity="0.2">
		<path display="inline" fill="#FFFFFF" d="M-63.957-503.002c-11.282,3.636-35.885,28.281-38.51,36.153
			c-2.621,7.851,12.065,36.154,18.865,37.705c6.793,1.59,56.584-20.436,58.154-28.284
			C-23.876-465.299-52.674-506.681-63.957-503.002z"/>
		<path display="inline" fill="#FFFFFF" d="M39.012-583.16c-10.498,0.494-88.546,59.726-88.034,69.146
			c0.519,9.423,29.36,46.629,37.729,47.951c8.363,1.301,70.221-78.341,72.307-88.814C63.1-565.373,49.484-583.699,39.012-583.16z"/>
		<path display="inline" fill="#FFFFFF" d="M353.947-869.604c-10.933-15.145-35.498-16.26-56.115-3.016
			c-7.87-4.009-17.023-7.233-27.768-9.215c0,0-391.393,317.515-477.854,378.833c0,0-3.302,7.003-8.776,18.407
			c98.109,68.715,86.957,120.568,86.957,120.568c-27.149-66.916-95.885-102.037-95.905-102.037
			c-24.626,50.699-68.835,139.307-92.308,172.114c0,0-0.04,18.015,22.025,29.48c0,0,150.072-101.024,193.329-109.639
			c0,0,23.883-23.283,60.697-58.922c-20.121,10.308-43.197,20.062-52.827,20.659c-16.772,1.053-36.153-39.437-34.583-53.776
			c1.57-14.338,153.521-139.574,176.038-137.984c22.541,1.57,29.875,22.518,30.414,37.725c0.205,6.548-13.654,26.546-30.414,48.012
			C160.116-627.064,303.04-762.238,343.942-792.236c0,0,0.414-10.661-3.141-24.688C358.489-832.272,364.501-854.937,353.947-869.604
			z M-261.458-287.008c0,0-2.542-32.478-33.638-43.818C-295.095-330.826-242.867-354.461-261.458-287.008z"/>
	</g>
	<path display="none" opacity="0.5" fill="#71C8EA" enable-background="new    " d="M1307.089-553.345l3.333,3.333
		c0,0,17-13.666,32.5-11.833c0,0,21-27.999,50-37.833c0,0,17.667-9.834,7.167-30.667s-24.327-12.938-31.167-8
		c-9.583,6.916-39.771,40.322-51.5,56.333C1317.422-582.012,1320.922-565.678,1307.089-553.345z"/>
	<path d="M16,0C7.164,0,0,7.163,0,16s7.164,16,16,16s16-7.163,16-16S24.836,0,16,0z M10.946,24c-0.408,0-2.628-2-2.628-2.453
		c0-0.451,6.832-5.548,6.832-5.897c0-0.351-6.832-5.168-6.832-5.664C8.318,9.49,9.647,8,10.129,8c0.481,0,8.467,7.08,8.467,7.591
		C18.596,16.103,11.355,24,10.946,24z M23.749,23.544c-0.506,0.552-2.731,0.662-3.035,0s-0.505-14.233,0-15.006
		c0.505-0.771,2.731-0.661,3.035,0C24.052,9.2,24.254,22.992,23.749,23.544z"/>
</g>
</svg>
