<?xml version="1.0" encoding="utf-8"?>
<!-- Generator: Adobe Illustrator 16.0.4, SVG Export Plug-In . SVG Version: 6.00 Build 0)  -->
<!DOCTYPE svg PUBLIC "-//W3C//DTD SVG 1.1//EN" "http://www.w3.org/Graphics/SVG/1.1/DTD/svg11.dtd">
<svg version="1.1" fill="rgb(0, 14, 156)" xmlns="http://www.w3.org/2000/svg" xmlns:xlink="http://www.w3.org/1999/xlink" x="0px" y="0px"
	 width="32px" height="32px" viewBox="0 0 32 32" enable-background="new 0 0 32 32" xml:space="preserve">
<g id="Fondo_1_" display="none">
	<rect id="Fondo" x="-525.965" y="-1979.522" display="inline" fill="#FB6E92" width="1000" height="2438.351"/>
</g>
<g id="Guias" display="none">
</g>
<g id="Icons">
	<g display="none" opacity="0.2">
		<path display="inline" fill="#FFFFFF" d="M-115.956-503.002c-11.282,3.636-35.885,28.281-38.51,36.153
			c-2.621,7.851,12.065,36.154,18.865,37.705c6.793,1.59,56.584-20.436,58.154-28.284
			C-75.876-465.299-104.674-506.681-115.956-503.002z"/>
		<path display="inline" fill="#FFFFFF" d="M-12.987-583.16c-10.498,0.494-88.546,59.726-88.034,69.146
			c0.519,9.423,29.36,46.629,37.729,47.951c8.363,1.301,70.221-78.341,72.307-88.814C11.101-565.373-2.516-583.699-12.987-583.16z"
			/>
		<path display="inline" fill="#FFFFFF" d="M301.947-869.604c-10.932-15.145-35.498-16.26-56.115-3.016
			c-7.87-4.009-17.023-7.233-27.768-9.215c0,0-391.393,317.515-477.854,378.833c0,0-3.302,7.003-8.776,18.407
			c98.109,68.715,86.957,120.568,86.957,120.568c-27.149-66.916-95.885-102.037-95.905-102.037
			c-24.626,50.699-68.835,139.307-92.308,172.114c0,0-0.04,18.015,22.025,29.48c0,0,150.072-101.024,193.329-109.639
			c0,0,23.883-23.283,60.697-58.922c-20.121,10.308-43.197,20.062-52.827,20.659c-16.772,1.053-36.153-39.437-34.583-53.776
			c1.57-14.338,153.521-139.574,176.038-137.984c22.541,1.57,29.875,22.518,30.414,37.725c0.205,6.548-13.654,26.546-30.414,48.012
			C108.116-627.064,251.04-762.238,291.941-792.236c0,0,0.414-10.661-3.14-24.688C306.489-832.272,312.502-854.937,301.947-869.604z
			 M-313.457-287.008c0,0-2.542-32.478-33.638-43.818C-347.095-330.826-294.866-354.461-313.457-287.008z"/>
	</g>
	<path display="none" opacity="0.5" fill="#71C8EA" enable-background="new    " d="M1255.09-553.345l3.333,3.333
		c0,0,17-13.666,32.5-11.833c0,0,21-27.999,50-37.833c0,0,17.667-9.834,7.167-30.667s-24.327-12.938-31.167-8
		c-9.583,6.916-39.771,40.322-51.5,56.333C1265.423-582.012,1268.923-565.678,1255.09-553.345z"/>
	<path d="M16,0C7.164,0,0,7.163,0,16s7.164,16,16,16c8.837,0,16-7.163,16-16S24.837,0,16,0z M11.66,23.544
		c-0.303,0.662-2.528,0.552-3.034,0c-0.505-0.552-0.303-14.344,0-15.006c0.304-0.661,2.529-0.771,3.034,0
		C12.166,9.311,11.965,22.882,11.66,23.544z M24.057,21.547C24.057,22,21.837,24,21.43,24c-0.41,0-7.65-7.897-7.65-8.409
		C13.779,15.08,21.766,8,22.246,8s1.811,1.489,1.811,1.985c0,0.496-6.832,5.313-6.832,5.664
		C17.225,15.999,24.057,21.096,24.057,21.547z"/>
</g>
</svg>
