<?xml version="1.0" encoding="utf-8"?>
<!-- Generator: Adobe Illustrator 16.0.4, SVG Export Plug-In . SVG Version: 6.00 Build 0)  -->
<!DOCTYPE svg PUBLIC "-//W3C//DTD SVG 1.1//EN" "http://www.w3.org/Graphics/SVG/1.1/DTD/svg11.dtd">
<svg version="1.1" fill="rgb(0, 14, 156)" xmlns="http://www.w3.org/2000/svg" xmlns:xlink="http://www.w3.org/1999/xlink" x="0px" y="0px"
	 width="21.434px" height="32px" viewBox="0 0 21.434 32" enable-background="new 0 0 21.434 32" xml:space="preserve">
<g id="Fondo_1_" display="none">
	<rect id="Fondo" x="-634.762" y="-1979.522" display="inline" fill="#FB6E92" width="1000.001" height="2438.351"/>
</g>
<g id="Guias" display="none">
</g>
<g id="Icons">
	<g display="none" opacity="0.2">
		<path display="inline" fill="#FFFFFF" d="M-224.753-503.002c-11.282,3.636-35.886,28.281-38.511,36.153
			c-2.62,7.851,12.065,36.154,18.865,37.705c6.793,1.59,56.584-20.436,58.154-28.284
			C-184.673-465.299-213.471-506.681-224.753-503.002z"/>
		<path display="inline" fill="#FFFFFF" d="M-121.784-583.16c-10.498,0.494-88.546,59.726-88.034,69.146
			c0.52,9.423,29.36,46.629,37.729,47.951c8.362,1.301,70.221-78.341,72.307-88.814C-97.696-565.373-111.312-583.699-121.784-583.16
			z"/>
		<path display="inline" fill="#FFFFFF" d="M193.15-869.604c-10.932-15.145-35.498-16.26-56.114-3.016
			c-7.87-4.009-17.023-7.233-27.768-9.215c0,0-391.393,317.515-477.854,378.833c0,0-3.303,7.003-8.776,18.407
			c98.109,68.715,86.957,120.568,86.957,120.568c-27.148-66.916-95.885-102.037-95.905-102.037
			c-24.626,50.699-68.835,139.307-92.308,172.114c0,0-0.04,18.015,22.025,29.48c0,0,150.071-101.024,193.328-109.639
			c0,0,23.884-23.283,60.697-58.922c-20.121,10.308-43.197,20.062-52.827,20.659c-16.771,1.053-36.152-39.437-34.583-53.776
			c1.57-14.338,153.521-139.574,176.038-137.984c22.54,1.57,29.875,22.518,30.414,37.725c0.205,6.548-13.655,26.546-30.414,48.012
			c113.26-108.668,256.185-243.842,297.086-273.84c0,0,0.414-10.661-3.14-24.688C197.692-832.272,203.705-854.937,193.15-869.604z
			 M-422.254-287.008c0,0-2.542-32.478-33.639-43.818C-455.892-330.826-403.663-354.461-422.254-287.008z"/>
	</g>
	<path display="none" opacity="0.5" fill="#71C8EA" enable-background="new    " d="M1146.293-553.345l3.333,3.333
		c0,0,17-13.666,32.5-11.833c0,0,21-27.999,50-37.833c0,0,17.667-9.834,7.167-30.667s-24.327-12.938-31.167-8
		c-9.583,6.916-39.771,40.322-51.5,56.333C1156.626-582.012,1160.126-565.678,1146.293-553.345z"/>
	<path d="M21.419,28.646C21.29,28.173,16,26.667,16,26.667s0.129-2.021-0.085-2.321c-0.216-0.302-0.86-0.73-1.205-0.517
		c-0.344,0.215-1.117,1.376-1.117,1.376l-1.032-1.635c0,0,3.107-1.625,4.357-3.125c0.938-1.125,0.631-2.637,0.631-2.637
		s0.73,0.215,1.118,0c0.387-0.216,2.235-2.538,2.235-4.302c0-1.764-1.462-2.709-1.721-2.666c-0.258,0.043-0.602,0.344-0.602,0.344
		s0.73-4.387,0.602-5.074c-0.129-0.688-3.354-6.279-7.311-6.107C7.916,0.177,1.551,5.552,1.465,6.111s1.032,1.806,1.032,1.806
		s-2.58,0.172-2.495,0.774c0.087,0.603,3.957,2.666,3.957,2.666s2.278,3.097,1.979,3.871s-1.924,2.913-1.463,3.87
		c1.678,3.483,5.333,4.56,5.333,4.56l0.173,1.72c0,0-1.377,0.561-1.549,0.946C8.26,26.711,9.636,27.7,9.636,27.7
		s-3.655,2.364-3.698,2.838C5.895,31.011,7.313,32,7.313,32h13.479C20.793,32,21.548,29.119,21.419,28.646z M8.388,16.261
		c-1.113,0.527-1.804-1.347-1.78-1.521c0.024-0.175,2.277-1.024,2.453-0.966S9.5,15.733,8.388,16.261z M10.719,13.121
		c0.035-0.259,3.347-1.506,3.604-1.419c0.258,0.085,0.646,2.881-0.989,3.654C11.7,16.131,10.685,13.379,10.719,13.121z"/>
</g>
</svg>
