<?xml version="1.0" encoding="utf-8"?>
<!-- Generator: Adobe Illustrator 16.0.4, SVG Export Plug-In . SVG Version: 6.00 Build 0)  -->
<!DOCTYPE svg PUBLIC "-//W3C//DTD SVG 1.1//EN" "http://www.w3.org/Graphics/SVG/1.1/DTD/svg11.dtd">
<svg version="1.1" fill="rgb(0, 14, 156)" xmlns="http://www.w3.org/2000/svg" xmlns:xlink="http://www.w3.org/1999/xlink" x="0px" y="0px"
	 width="19.949px" height="32px" viewBox="0 0 19.949 32" enable-background="new 0 0 19.949 32" xml:space="preserve">
<g id="Fondo_1_" display="none">
	<rect id="Fondo" x="-738.907" y="-1979.521" display="inline" fill="#FB6E92" width="1000" height="2438.351"/>
</g>
<g id="Guias" display="none">
</g>
<g id="Icons">
	<g display="none" opacity="0.2">
		<path display="inline" fill="#FFFFFF" d="M-328.897-503.001c-11.282,3.636-35.885,28.281-38.51,36.153
			c-2.621,7.851,12.065,36.154,18.865,37.705c6.793,1.59,56.584-20.436,58.154-28.284
			C-288.817-465.298-317.615-506.68-328.897-503.001z"/>
		<path display="inline" fill="#FFFFFF" d="M-225.929-583.159c-10.498,0.494-88.546,59.726-88.034,69.146
			c0.519,9.423,29.36,46.629,37.729,47.951c8.363,1.301,70.221-78.341,72.307-88.814
			C-201.841-565.372-215.457-583.698-225.929-583.159z"/>
		<path display="inline" fill="#FFFFFF" d="M89.005-869.604c-10.932-15.145-35.498-16.26-56.114-3.016
			c-7.87-4.009-17.022-7.233-27.767-9.215c0,0-391.393,317.515-477.854,378.833c0,0-3.302,7.003-8.776,18.407
			c98.109,68.715,86.957,120.568,86.957,120.568c-27.149-66.916-95.885-102.037-95.905-102.037
			c-24.626,50.699-68.835,139.307-92.308,172.114c0,0-0.04,18.015,22.025,29.48c0,0,150.072-101.024,193.329-109.639
			c0,0,23.883-23.283,60.697-58.922c-20.121,10.308-43.197,20.062-52.827,20.659c-16.772,1.053-36.153-39.437-34.583-53.776
			c1.57-14.338,153.521-139.574,176.038-137.984c22.54,1.57,29.875,22.518,30.414,37.725c0.205,6.548-13.655,26.546-30.414,48.012
			c113.26-108.667,256.184-243.841,297.086-273.839c0,0,0.414-10.661-3.141-24.688C93.548-832.271,99.561-854.936,89.005-869.604z
			 M-526.398-287.007c0,0-2.542-32.478-33.638-43.818C-560.036-330.825-507.808-354.46-526.398-287.007z"/>
	</g>
	<path display="none" opacity="0.5" fill="#71C8EA" enable-background="new    " d="M1042.148-553.344l3.332,3.333
		c0,0,17-13.666,32.5-11.833c0,0,21-27.999,50-37.833c0,0,17.668-9.834,7.168-30.667s-24.326-12.938-31.168-8
		c-9.582,6.916-39.77,40.322-51.5,56.333C1052.48-582.011,1055.98-565.677,1042.148-553.344z"/>
	<g>
		<path d="M8.697,24.537c-1.847-0.862-4.574-3.309-4.857-4.159c-0.337-1.012,1.349-3.54,1.181-4.552
			c-0.169-1.011-1.518-3.792-1.181-5.141c0.338-1.349,9.841-4.066,10.367-3.709c0.526,0.358,1.44,4.939,1.44,4.939
			s1.022-0.631,1.698-0.125c0.674,0.506,1,2.806,1.047,3.483c0.047,0.687-1.91,2.237-1.91,2.237s0.628,1.303,0.157,1.495
			c-0.474,0.195-0.747,0.11-0.747,0.11s0,1.261,0,1.767c0,0.351-1.547,1.896-3.206,3.075l-0.026,1.268
			c2.043-0.295,3.637-0.567,3.786-0.682c0.442-0.333,0.276-1.605,0.276-1.605s2.312,0.717,2.824,0.717
			c0.511,0-1.883-3.319-1.883-3.319s2.491-8.693,2.271-10.853c-0.222-2.16-5.481-9.856-9.081-9.469
			c-3.598,0.389-8.471,4.21-8.748,5.76c-0.277,1.55,0.554,10.761,0.554,10.761s-2.714,2.307-2.658,2.805
			c0.056,0.499,3.156,1.163,3.156,1.163s-2.904,1.283-2.603,1.661c0.301,0.378,4.622,1.272,4.622,1.272s-2.352,2.381-2.241,2.77
			c0.051,0.178,2.79-0.085,5.789-0.454L8.697,24.537z"/>
		<path d="M14.009,27.682c0,0,0.186-1.182-0.073-1.438c-0.258-0.259-1.696,0.295-1.696,0.295l-0.38-3.027
			c1.453-1.032,3.259-2.72,3.259-3.026c0-0.442,0-1.697,0-1.697s0.073,0,0.516-0.074c0.443-0.072,0-1.181,0-1.181
			s1.975-1.531,1.965-2.215c-0.008-0.595-0.34-2.215-0.93-2.657c-0.592-0.443-1.698,0.295-1.698,0.295s-0.868-4.338-1.329-4.651
			c-0.462-0.313-8.786,2.067-9.081,3.249c-0.295,1.181,0.887,3.617,1.034,4.503c0.147,0.885-1.33,3.098-1.035,3.984
			c0.249,0.745,3.422,3.317,5.039,4.073l-0.683,3.975c0,0-0.406-0.701-0.665-0.812c-0.258-0.109-1.182,0.369-1.255,0.812
			c-0.073,0.441,0.665,1.329,0.665,1.329s-3.176,0.774-3.471,1.106s0,1.477,0,1.477h15.209c0,0,0.332-2.768,0-3.248
			S14.009,27.682,14.009,27.682z M6.326,15.34c0.033-0.151,2.051-0.738,2.201-0.675c0.148,0.062,0.249,1.736-0.754,2.119
			C6.769,17.167,6.294,15.492,6.326,15.34z M13.063,13.09c0.222,0.081,0.478,2.531-0.974,3.156
			c-1.446,0.631-2.252-1.801-2.213-2.026C9.913,13.996,12.839,13.006,13.063,13.09z"/>
	</g>
</g>
</svg>
