<?xml version="1.0" encoding="utf-8"?>
<!-- Generator: Adobe Illustrator 16.0.4, SVG Export Plug-In . SVG Version: 6.00 Build 0)  -->
<!DOCTYPE svg PUBLIC "-//W3C//DTD SVG 1.1//EN" "http://www.w3.org/Graphics/SVG/1.1/DTD/svg11.dtd">
<svg version="1.1" fill="rgb(0, 14, 156)" xmlns="http://www.w3.org/2000/svg" xmlns:xlink="http://www.w3.org/1999/xlink" x="0px" y="0px"
	 width="18.465px" height="32px" viewBox="0 0 18.465 32" enable-background="new 0 0 18.465 32" xml:space="preserve">
<g id="Fondo_1_" display="none">
	<rect id="Fondo" x="-116.734" y="-2043.522" display="inline" fill="#FB6E92" width="1000" height="2438.352"/>
</g>
<g id="Guias" display="none">
</g>
<g id="Icons">
	<g display="none" opacity="0.2">
		<path display="inline" fill="#FFFFFF" d="M293.275-567.002c-11.282,3.636-35.885,28.281-38.51,36.153
			c-2.621,7.851,12.064,36.154,18.864,37.705c6.793,1.59,56.584-20.436,58.154-28.284
			C333.355-529.299,304.557-570.681,293.275-567.002z"/>
		<path display="inline" fill="#FFFFFF" d="M396.244-647.16c-10.498,0.494-88.546,59.726-88.034,69.146
			c0.519,9.423,29.36,46.629,37.729,47.951c8.362,1.301,70.221-78.341,72.307-88.814
			C420.332-629.373,406.715-647.699,396.244-647.16z"/>
		<path display="inline" fill="#FFFFFF" d="M711.178-933.604c-10.932-15.145-35.498-16.26-56.115-3.016
			c-7.869-4.009-17.022-7.233-27.767-9.215c0,0-391.394,317.515-477.854,378.833c0,0-3.301,7.003-8.775,18.407
			c98.109,68.715,86.957,120.568,86.957,120.568c-27.148-66.916-95.885-102.037-95.905-102.037
			C107.092-479.365,62.883-390.757,39.41-357.95c0,0-0.04,18.015,22.025,29.48c0,0,150.071-101.024,193.328-109.639
			c0,0,23.883-23.283,60.697-58.922c-20.121,10.308-43.197,20.062-52.827,20.659c-16.772,1.053-36.153-39.437-34.583-53.776
			c1.57-14.338,153.521-139.574,176.038-137.984c22.54,1.57,29.875,22.518,30.414,37.725c0.205,6.548-13.655,26.546-30.414,48.012
			c113.258-108.669,256.182-243.843,297.084-273.841c0,0,0.414-10.661-3.14-24.688C715.72-896.272,721.733-918.937,711.178-933.604z
			 M95.773-351.008c0,0-2.541-32.478-33.637-43.818C62.137-394.826,114.365-418.461,95.773-351.008z"/>
	</g>
	<path display="none" opacity="0.5" fill="#71C8EA" enable-background="new    " d="M1664.321-617.345l3.333,3.333
		c0,0,17-13.666,32.5-11.833c0,0,21-27.999,50-37.833c0,0,17.667-9.834,7.167-30.667s-24.327-12.938-31.167-8
		c-9.583,6.916-39.771,40.322-51.5,56.333C1674.654-646.012,1678.154-629.678,1664.321-617.345z"/>
	<g>
		<path d="M18.034,1.99c-0.386-0.258-2.796,0.485-3.896,0.845c0.023-0.416-0.012-0.754-0.14-0.921
			c-0.481-0.627-7.152-2.509-8.256-1.728C5.364,0.453,5.148,1.169,5.054,2.015C3.886,1.639,1.724,0.993,1.36,1.236
			C0.856,1.57,0.686,4.59,1.441,5.365c0.464,0.478,2.327-0.015,3.69-0.463c0.1,0.6,0.249,1.055,0.426,1.2
			C5.8,6.303,6.878,6.459,8.15,6.54v1.995c-1.226,0.152-2.277,0.43-2.516,0.772c-0.711,1.019-1,2.092-1.032,3.123
			c-1.927,0.596-3.984,1.425-4.336,1.908c-0.671,0.923,0.064,8.303,0.661,9.058c0.597,0.755,3.512,0.419,4.067-0.335
			c0.556-0.756-1.21-5.955-1.21-5.955s0.98-0.131,2.019-0.336c0.329,0.569,0.647,0.983,0.837,1.175c0.755,0.756,4.193,0.588,4.864,0
			c0.671-0.587,3.605-4.454,1.248-8.974c-0.216-0.414-1.383-0.578-2.714-0.564L10.445,6.6c1.346-0.018,2.494-0.135,2.705-0.391
			c0.125-0.152,0.267-0.44,0.401-0.797c1.315,0.471,3.849,1.275,4.401,0.707C18.707,5.345,18.537,2.325,18.034,1.99z"/>
		<path d="M5.257,26.919c-0.727-0.531-1.395-1.272-1.552-1.258c-0.346,0.03-1.006,3.187-0.503,4.611
			c0.503,1.426,2.264,2.014,3.103,1.594c0.839-0.418,1.489-1.709,1.048-3.037C7.101,28.069,6.136,27.561,5.257,26.919z"/>
	</g>
</g>
</svg>
