<?xml version="1.0" encoding="utf-8"?>
<!-- Generator: Adobe Illustrator 16.0.4, SVG Export Plug-In . SVG Version: 6.00 Build 0)  -->
<!DOCTYPE svg PUBLIC "-//W3C//DTD SVG 1.1//EN" "http://www.w3.org/Graphics/SVG/1.1/DTD/svg11.dtd">
<svg version="1.1" fill="rgb(0, 14, 156)" xmlns="http://www.w3.org/2000/svg" xmlns:xlink="http://www.w3.org/1999/xlink" x="0px" y="0px"
	 width="24.895px" height="32.043px" viewBox="0 0 24.895 32.043" enable-background="new 0 0 24.895 32.043" xml:space="preserve">
<g id="Fondo_1_" display="none">
	<rect id="Fondo" x="-164.477" y="-2043.501" display="inline" fill="#FB6E92" width="1000" height="2438.351"/>
</g>
<g id="Guias" display="none">
</g>
<g id="Icons">
	<g display="none" opacity="0.2">
		<path display="inline" fill="#FFFFFF" d="M245.532-566.98c-11.282,3.636-35.885,28.281-38.51,36.153
			c-2.621,7.851,12.064,36.154,18.865,37.705c6.793,1.59,56.584-20.436,58.153-28.284
			C285.612-529.277,256.814-570.659,245.532-566.98z"/>
		<path display="inline" fill="#FFFFFF" d="M348.501-647.139c-10.498,0.494-88.546,59.726-88.034,69.146
			c0.52,9.423,29.36,46.629,37.729,47.951c8.362,1.301,70.221-78.341,72.307-88.814
			C372.589-629.352,358.972-647.678,348.501-647.139z"/>
		<path display="inline" fill="#FFFFFF" d="M663.435-933.583c-10.932-15.145-35.498-16.26-56.114-3.016
			c-7.87-4.009-17.023-7.233-27.768-9.215c0,0-391.393,317.515-477.854,378.833c0,0-3.302,7.003-8.776,18.407
			c98.109,68.715,86.957,120.568,86.957,120.568c-27.148-66.916-95.885-102.037-95.904-102.037
			c-24.626,50.7-68.835,139.308-92.309,172.115c0,0-0.04,18.015,22.025,29.479c0,0,150.072-101.024,193.329-109.639
			c0,0,23.883-23.283,60.696-58.922c-20.12,10.308-43.196,20.062-52.826,20.659c-16.772,1.053-36.153-39.437-34.583-53.776
			C181.879-544.464,333.83-669.7,356.346-668.11c22.54,1.57,29.875,22.518,30.414,37.725c0.205,6.548-13.654,26.546-30.414,48.012
			c113.26-108.669,256.184-243.843,297.086-273.841c0,0,0.414-10.661-3.14-24.688C667.978-896.251,673.99-918.915,663.435-933.583z
			 M48.031-350.986c0,0-2.542-32.478-33.638-43.818C14.394-394.805,66.622-418.439,48.031-350.986z"/>
	</g>
	<path display="none" opacity="0.5" fill="#71C8EA" enable-background="new    " d="M1616.578-617.323l3.333,3.333
		c0,0,17-13.666,32.5-11.833c0,0,21-27.999,50-37.833c0,0,17.667-9.834,7.167-30.667s-24.327-12.937-31.167-8
		c-9.583,6.916-39.771,40.322-51.5,56.333C1626.911-645.99,1630.411-629.656,1616.578-617.323z"/>
	<g>
		<path d="M24.484,0.1C23.326-0.641,0.71,2.942,0.079,3.866C-0.554,4.791,2.793,31.359,3.74,31.822
			c0.948,0.462,18.638,0.183,19.48-0.646C24.062,30.342,25.642,0.839,24.484,0.1z M18.897,27.768
			c-0.528,0.62-11.603,0.826-12.194,0.48C6.109,27.905,3.35,8.555,3.745,7.866c0.396-0.688,15.421-2.503,16.146-1.953
			C20.617,6.465,19.424,27.149,18.897,27.768z"/>
		<path d="M11.723,9.458c-0.654,0-5.326,6.435-5.183,9.25c0.11,2.135,0.947,3.791,3.159,3.604c0.894-0.074,1.454-0.582,1.805-1.162
			c0.119,1.408,0.251,2.634,0.357,2.808c0.267,0.437,2.142,0.359,2.037-0.131c-0.044-0.207-0.395-1.576-0.779-3.072
			c0.576,0.451,1.438,0.754,2.688,0.449c2.438-0.596,2.782-2.416,2.435-3.826C17.61,14.811,12.377,9.458,11.723,9.458z"/>
	</g>
</g>
</svg>
