<?xml version="1.0" encoding="utf-8"?>
<!-- Generator: Adobe Illustrator 16.0.4, SVG Export Plug-In . SVG Version: 6.00 Build 0)  -->
<!DOCTYPE svg PUBLIC "-//W3C//DTD SVG 1.1//EN" "http://www.w3.org/Graphics/SVG/1.1/DTD/svg11.dtd">
<svg version="1.1" fill="rgb(0, 14, 156)" xmlns="http://www.w3.org/2000/svg" xmlns:xlink="http://www.w3.org/1999/xlink" x="0px" y="0px"
	 width="26.964px" height="32px" viewBox="0 0 26.964 32" enable-background="new 0 0 26.964 32" xml:space="preserve">
<g id="Fondo_1_" display="none">
	<rect id="Fondo" x="-217.515" y="-2043.522" display="inline" fill="#FB6E92" width="1000.001" height="2438.351"/>
</g>
<g id="Guias" display="none">
</g>
<g id="Icons">
	<g display="none" opacity="0.2">
		<path display="inline" fill="#FFFFFF" d="M192.494-567.002c-11.281,3.636-35.885,28.281-38.51,36.153
			c-2.621,7.851,12.064,36.154,18.865,37.705c6.793,1.59,56.584-20.436,58.154-28.284
			C232.574-529.299,203.776-570.681,192.494-567.002z"/>
		<path display="inline" fill="#FFFFFF" d="M295.462-647.16c-10.498,0.494-88.545,59.726-88.033,69.146
			c0.52,9.423,29.359,46.629,37.729,47.951c8.363,1.301,70.221-78.341,72.307-88.814C319.55-629.373,305.935-647.699,295.462-647.16
			z"/>
		<path display="inline" fill="#FFFFFF" d="M610.396-933.604c-10.932-15.145-35.496-16.26-56.113-3.016
			c-7.871-4.009-17.023-7.233-27.768-9.215c0,0-391.393,317.515-477.854,378.833c0,0-3.303,7.003-8.777,18.407
			c98.109,68.715,86.957,120.568,86.957,120.568c-27.148-66.916-95.885-102.037-95.904-102.037
			c-24.625,50.7-68.834,139.307-92.307,172.115c0,0-0.04,18.015,22.025,29.48c0,0,150.072-101.024,193.329-109.639
			c0,0,23.883-23.283,60.697-58.922c-20.121,10.308-43.197,20.062-52.827,20.659c-16.772,1.053-36.153-39.437-34.583-53.776
			c1.57-14.338,153.521-139.574,176.038-137.984c22.54,1.57,29.874,22.518,30.413,37.725c0.205,6.548-13.654,26.546-30.413,48.012
			c113.259-108.669,256.183-243.843,297.083-273.841c0,0,0.414-10.661-3.139-24.688
			C614.939-896.272,620.953-918.937,610.396-933.604z M-5.007-351.008c0,0-2.542-32.478-33.638-43.818
			C-38.645-394.826,13.584-418.461-5.007-351.008z"/>
	</g>
	<path display="none" opacity="0.5" fill="#71C8EA" enable-background="new    " d="M1563.541-617.345l3.332,3.333
		c0,0,17-13.666,32.5-11.833c0,0,21-27.999,50-37.833c0,0,17.668-9.834,7.168-30.667s-24.328-12.938-31.168-8
		c-9.582,6.916-39.771,40.322-51.5,56.333C1573.873-646.012,1577.373-629.678,1563.541-617.345z"/>
	<g>
		<path d="M22.515,9.822c1.007-2.407,2.484-6.096,2.43-6.919c-0.083-1.244-0.664-2.321-2.119-2.819
			c-0.855-0.293-4.478,0.238-7.314,0.726c3.82,0.92,6.4,4.635,6.496,8.981C22.175,9.792,22.348,9.802,22.515,9.822z"/>
		<path d="M4.371,25.225L4.371,25.225c-2.987,1.283-3.784,3.569-3.23,4.885c0.664,1.576,9.372,2.074,10.865-1.41
			c0.044-0.102,0.079-0.211,0.106-0.322c-1.245-0.227-2.267-1.115-3.05-1.758C8.158,25.877,4.371,25.225,4.371,25.225z"/>
		<path d="M13.466,28.368c-0.242,0.647-0.323,1.305-0.299,1.905c0.083,2.074,9.726,2.112,10.866,0.996
			c0.795-0.779,0.516-3.213-0.85-4.891c-0.207-0.077-0.857-0.211-2.904-0.256C16.849,26.05,15.705,27.99,13.466,28.368z"/>
		<path d="M22.039,22.939c0,0-3.039,0.892-7.496,0.838c-0.033,0.123-0.071,0.22-0.119,0.273c-0.248,0.293-1.824,0.676-3.264,0.572
			c-1.44-0.104-1.837-0.396-2.153-0.807c-0.093-0.121-0.139-0.352-0.146-0.623c-1.057-0.209-2.146-0.483-3.253-0.838l0.001-0.008
			c-0.038,0.312-0.08,0.637-0.123,0.963L5.3,24.641c0,0,3.472,0.655,4.301,1.401s1.949,1.825,3.338,1.825
			c2.551,0,3.463-2.405,6.945-2.322c2.679,0.062,2.75,0.312,2.75,0.312l-0.248-1.217"/>
		<path d="M26.936,20.816c-0.114-0.682-2.565-4.576-4.104-6.969c-0.011,0.01-0.021,0.023-0.033,0.032
			c-0.299,0.243-0.922,0.266-1.514,0.219c-1.66,4.515-5.886,7.392-10.133,6.614C6.365,19.837,3.366,14.651,4.455,9.13
			c0.02-0.102,0.044-0.201,0.066-0.302c-1.294-0.31-2.558-0.513-3.048-0.284C0.312,9.083-0.186,9.622,0.062,10.7
			c0.249,1.078,5.64,8.377,5.723,9.405c0.017,0.213-0.008,0.625-0.057,1.142l0.001-0.009c0,0,1.246,0.421,3.339,0.703
			c0.096-0.252,0.222-0.459,0.376-0.564c0.548-0.376,4.681,0.091,4.979,0.503c0.045,0.062,0.082,0.152,0.111,0.256
			c2.125-0.127,4.523-0.504,7.069-1.317c0,0,3.257,2.406,4.087,2.24S27.101,21.814,26.936,20.816z"/>
	</g>
	<path d="M22.707,10.7c-0.332-0.663-1.812-0.328-1.812-0.328v0.002c0.122-4.413-2.411-8.245-6.19-8.963
		c-4.288-0.814-8.552,2.685-9.525,7.815c-0.975,5.13,1.71,9.948,5.997,10.763c3.924,0.745,7.83-2.125,9.208-6.553v0.001
		c0,0,1.41,0.414,1.824,0C22.623,13.022,23.037,11.363,22.707,10.7z M9.187,13.119c-1.292-0.181-2.111-1.958-1.83-3.973
		c0.282-2.014,1.556-3.501,2.848-3.32c1.292,0.181,2.111,1.959,1.83,3.974C11.753,11.813,10.479,13.298,9.187,13.119z
		 M12.273,17.904c-0.668,0-1.209-0.54-1.209-1.209c0-0.668,0.542-1.209,1.209-1.209c0.669,0,1.209,0.543,1.209,1.209
		C13.482,17.364,12.941,17.904,12.273,17.904z M15.496,13.153c-1.304,0.027-2.394-1.599-2.436-3.633
		c-0.041-2.033,0.982-3.702,2.286-3.729c1.305-0.027,2.394,1.6,2.437,3.633C17.824,11.458,16.8,13.125,15.496,13.153z"/>
</g>
</svg>
