<?xml version="1.0" encoding="utf-8"?>
<!-- Generator: Adobe Illustrator 16.0.4, SVG Export Plug-In . SVG Version: 6.00 Build 0)  -->
<!DOCTYPE svg PUBLIC "-//W3C//DTD SVG 1.1//EN" "http://www.w3.org/Graphics/SVG/1.1/DTD/svg11.dtd">
<svg version="1.1" fill="rgb(0, 14, 156)" xmlns="http://www.w3.org/2000/svg" xmlns:xlink="http://www.w3.org/1999/xlink" x="0px" y="0px"
	 width="23.131px" height="32px" viewBox="0 0 23.131 32" enable-background="new 0 0 23.131 32" xml:space="preserve">
<g id="Fondo_1_" display="none">
	<rect id="Fondo" x="-270.4" y="-2043.522" display="inline" fill="#FB6E92" width="1000" height="2438.351"/>
</g>
<g id="Guias" display="none">
</g>
<g id="Icons">
	<g display="none" opacity="0.2">
		<path display="inline" fill="#FFFFFF" d="M139.608-567.002c-11.281,3.636-35.885,28.281-38.51,36.153
			c-2.621,7.851,12.065,36.154,18.865,37.705c6.793,1.59,56.584-20.436,58.154-28.284
			C179.688-529.299,150.892-570.681,139.608-567.002z"/>
		<path display="inline" fill="#FFFFFF" d="M242.578-647.16c-10.498,0.494-88.546,59.726-88.034,69.146
			c0.52,9.423,29.359,46.629,37.729,47.951c8.363,1.301,70.222-78.341,72.308-88.814C266.666-629.373,253.05-647.699,242.578-647.16
			z"/>
		<path display="inline" fill="#FFFFFF" d="M557.513-933.604c-10.932-15.145-35.498-16.26-56.114-3.016
			c-7.87-4.009-17.023-7.233-27.768-9.215c0,0-391.394,317.515-477.854,378.833c0,0-3.302,7.003-8.776,18.407
			C85.11-479.88,73.958-428.026,73.958-428.026C46.81-494.942-21.927-530.063-21.947-530.063
			c-24.626,50.699-68.835,139.307-92.308,172.114c0,0-0.04,18.015,22.025,29.48c0,0,150.072-101.024,193.329-109.639
			c0,0,23.883-23.283,60.697-58.922c-20.121,10.308-43.197,20.062-52.827,20.659c-16.772,1.053-36.153-39.437-34.583-53.776
			c1.57-14.338,153.521-139.574,176.038-137.984c22.54,1.57,29.875,22.518,30.414,37.725c0.205,6.548-13.655,26.546-30.414,48.012
			c113.26-108.669,256.184-243.843,297.086-273.841c0,0,0.414-10.661-3.14-24.688C562.055-896.272,568.067-918.937,557.513-933.604z
			 M-57.892-351.008c0,0-2.542-32.478-33.638-43.818C-91.529-394.826-39.301-418.461-57.892-351.008z"/>
	</g>
	<path display="none" opacity="0.5" fill="#71C8EA" enable-background="new    " d="M1510.655-617.345l3.333,3.333
		c0,0,17-13.666,32.5-11.833c0,0,21-27.999,50-37.833c0,0,17.667-9.834,7.167-30.667s-24.327-12.938-31.167-8
		c-9.583,6.916-39.771,40.322-51.5,56.333C1520.988-646.012,1524.488-629.678,1510.655-617.345z"/>
	<path d="M0,17.846C0,22.32,3.071,32,11.451,32c9.248,0,11.68-9.757,11.68-14.449C23.131,13.091,19.192,0,11.469,0
		C3.939,0,0,13.232,0,17.846z"/>
</g>
</svg>
