<?xml version="1.0" encoding="utf-8"?>
<!-- Generator: Adobe Illustrator 16.0.4, SVG Export Plug-In . SVG Version: 6.00 Build 0)  -->
<!DOCTYPE svg PUBLIC "-//W3C//DTD SVG 1.1//EN" "http://www.w3.org/Graphics/SVG/1.1/DTD/svg11.dtd">
<svg version="1.1" fill="rgb(0, 14, 156)" xmlns="http://www.w3.org/2000/svg" xmlns:xlink="http://www.w3.org/1999/xlink" x="0px" y="0px"
	 width="23.131px" height="32px" viewBox="0 0 23.131 32" enable-background="new 0 0 23.131 32" xml:space="preserve">
<g id="Fondo_1_" display="none">
	<rect id="Fondo" x="-322.4" y="-2043.278" display="inline" fill="#FB6E92" width="1000" height="2438.351"/>
</g>
<g id="Guias" display="none">
</g>
<g id="Icons">
	<g display="none" opacity="0.2">
		<path display="inline" fill="#FFFFFF" d="M87.608-566.758c-11.281,3.636-35.885,28.281-38.51,36.153
			c-2.621,7.851,12.065,36.154,18.865,37.705c6.793,1.59,56.584-20.436,58.154-28.284
			C127.688-529.055,98.892-570.437,87.608-566.758z"/>
		<path display="inline" fill="#FFFFFF" d="M190.578-646.916c-10.498,0.494-88.546,59.726-88.034,69.146
			c0.52,9.423,29.359,46.629,37.729,47.951c8.363,1.301,70.222-78.341,72.308-88.814
			C214.666-629.129,201.05-647.455,190.578-646.916z"/>
		<path display="inline" fill="#FFFFFF" d="M505.513-933.36c-10.932-15.145-35.498-16.26-56.114-3.016
			c-7.87-4.009-17.023-7.233-27.768-9.215c0,0-391.394,317.515-477.854,378.833c0,0-3.302,7.003-8.776,18.407
			c98.109,68.715,86.957,120.568,86.957,120.568C-5.191-494.699-73.927-529.82-73.947-529.82
			c-24.626,50.699-68.835,139.307-92.308,172.114c0,0-0.04,18.015,22.025,29.48c0,0,150.072-101.024,193.329-109.639
			c0,0,23.883-23.283,60.697-58.922c-20.12,10.309-43.195,20.063-52.826,20.661c-16.771,1.053-36.152-39.437-34.582-53.776
			c1.569-14.338,153.521-139.574,176.037-137.984c22.54,1.57,29.875,22.518,30.414,37.725c0.205,6.548-13.654,26.546-30.414,48.012
			c113.259-108.67,256.183-243.844,297.085-273.842c0,0,0.414-10.661-3.14-24.688C510.055-896.028,516.067-918.692,505.513-933.36z
			 M-109.892-350.764c0,0-2.542-32.478-33.638-43.818C-143.529-394.582-91.301-418.217-109.892-350.764z"/>
	</g>
	<path display="none" opacity="0.5" fill="#71C8EA" enable-background="new    " d="M1458.655-617.101l3.333,3.333
		c0,0,17-13.666,32.5-11.833c0,0,21-27.999,50-37.833c0,0,17.667-9.834,7.167-30.667s-24.327-12.937-31.167-8
		c-9.583,6.916-39.771,40.322-51.5,56.333C1468.988-645.768,1472.488-629.434,1458.655-617.101z"/>
	<g>
		<path d="M5.537,11.158c0,0,3.105-3.053,3.674-3.053s2.354,3.156,2.354,3.156s2.665-3.311,3.338-3.311
			c0.672,0,2.742,3.26,2.742,3.26l3.291-2.517C19.022,4.227,15.856,0,11.469,0c-3.812,0-6.705,3.395-8.63,7.345L5.537,11.158z"/>
		<path d="M17.646,12.607c-0.568,0-2.742-3.105-2.742-3.105s-2.793,3.105-3.337,3.105c-0.544,0-2.407-3.052-2.407-3.052
			s-3.157,3.053-3.829,3.053c-0.414,0-1.944-2.271-3.061-4.021C0.767,12.101,0,15.811,0,17.846C0,22.32,3.071,32,11.45,32
			c9.248,0,11.681-9.757,11.681-14.449c0-1.721-0.589-4.728-1.753-7.771C19.823,11.096,17.967,12.607,17.646,12.607z"/>
	</g>
</g>
</svg>
