<?xml version="1.0" encoding="utf-8"?>
<!-- Generator: Adobe Illustrator 16.0.4, SVG Export Plug-In . SVG Version: 6.00 Build 0)  -->
<!DOCTYPE svg PUBLIC "-//W3C//DTD SVG 1.1//EN" "http://www.w3.org/Graphics/SVG/1.1/DTD/svg11.dtd">
<svg version="1.1" fill="rgb(0, 14, 156)" xmlns="http://www.w3.org/2000/svg" xmlns:xlink="http://www.w3.org/1999/xlink" x="0px" y="0px"
	 width="32px" height="30.146px" viewBox="0 0 32 30.146" enable-background="new 0 0 32 30.146" xml:space="preserve">
<g id="Fondo_1_" display="none">
	<rect id="Fondo" x="-369.966" y="-2044.041" display="inline" fill="#FB6E92" width="1000" height="2438.352"/>
</g>
<g id="Guias" display="none">
</g>
<g id="Icons">
	<g display="none" opacity="0.2">
		<path display="inline" fill="#FFFFFF" d="M40.043-567.521c-11.282,3.636-35.885,28.28-38.51,36.152
			c-2.621,7.852,12.065,36.154,18.865,37.705c6.793,1.59,56.584-20.436,58.153-28.283C80.124-529.817,51.326-571.199,40.043-567.521
			z"/>
		<path display="inline" fill="#FFFFFF" d="M143.012-647.679c-10.498,0.494-88.546,59.726-88.033,69.146
			c0.519,9.424,29.359,46.63,37.729,47.951c8.363,1.301,70.221-78.341,72.307-88.813C167.1-629.892,153.484-648.218,143.012-647.679
			z"/>
		<path display="inline" fill="#FFFFFF" d="M457.947-934.123c-10.933-15.145-35.498-16.26-56.115-3.016
			c-7.87-4.009-17.023-7.233-27.767-9.215c0,0-391.394,317.515-477.854,378.833c0,0-3.302,7.003-8.776,18.406
			c98.109,68.716,86.957,120.568,86.957,120.568c-27.149-66.916-95.885-102.037-95.905-102.037
			c-24.626,50.699-68.835,139.308-92.308,172.114c0,0-0.04,18.015,22.025,29.479c0,0,150.072-101.023,193.329-109.639
			c0,0,23.883-23.283,60.697-58.922c-20.121,10.31-43.196,20.064-52.827,20.661c-16.772,1.053-36.153-39.438-34.583-53.776
			c1.57-14.338,153.521-139.574,176.039-137.983c22.539,1.569,29.875,22.518,30.414,37.725c0.205,6.548-13.655,26.546-30.414,48.012
			c113.258-108.669,256.182-243.843,297.084-273.841c0,0,0.414-10.661-3.141-24.688
			C462.489-896.791,468.501-919.455,457.947-934.123z M-157.458-351.526c0,0-2.542-32.479-33.638-43.818
			C-191.095-395.345-138.867-418.979-157.458-351.526z"/>
	</g>
	<path display="none" opacity="0.5" fill="#71C8EA" enable-background="new    " d="M1411.089-617.863l3.333,3.333
		c0,0,17-13.667,32.5-11.834c0,0,21-27.999,50-37.833c0,0,17.667-9.834,7.167-30.667s-24.327-12.937-31.167-8
		c-9.583,6.916-39.771,40.322-51.5,56.333C1421.422-646.531,1424.922-630.197,1411.089-617.863z"/>
	<g>
		<path d="M0.265,23.555c-0.387,0.211-0.316,5.902,0,6.324s6.009,0.281,6.325,0c0.316-0.28,0.246-5.902,0-6.324
			C6.344,23.133,0.651,23.344,0.265,23.555z"/>
		<path d="M8.698,15.292c-0.316,0.287-0.316,13.8,0,14.375c0.316,0.576,6.009,0.288,6.326,0c0.316-0.287,0.246-13.896,0-14.375
			S9.015,15.004,8.698,15.292z"/>
		<path d="M17.132,5.537c-0.315,0.461-0.315,23.644,0,24.219c0.316,0.577,5.938,0.462,6.325,0c0.387-0.461,0.176-23.643,0-24.219
			S17.449,5.075,17.132,5.537z"/>
		<path d="M31.893,0.211c-0.142-0.23-5.939-0.327-6.326,0c-0.387,0.328-0.256,29.067,0,29.533c0.254,0.465,6.176,0.191,6.326,0
			C32.041,29.552,32.032,0.444,31.893,0.211z"/>
	</g>
</g>
</svg>
