<?xml version="1.0" encoding="utf-8"?>
<!-- Generator: Adobe Illustrator 16.0.4, SVG Export Plug-In . SVG Version: 6.00 Build 0)  -->
<!DOCTYPE svg PUBLIC "-//W3C//DTD SVG 1.1//EN" "http://www.w3.org/Graphics/SVG/1.1/DTD/svg11.dtd">
<svg version="1.1" fill="rgb(0, 14, 156)" xmlns="http://www.w3.org/2000/svg" xmlns:xlink="http://www.w3.org/1999/xlink" x="0px" y="0px"
	 width="32px" height="25px" viewBox="0 0 32 25" enable-background="new 0 0 32 25" xml:space="preserve">
<g id="Fondo_1_" display="none">
	<rect id="Fondo" x="-421.966" y="-2049.188" display="inline" fill="#FB6E92" width="1000" height="2438.351"/>
</g>
<g id="Guias" display="none">
</g>
<g id="Icons">
	<g display="none" opacity="0.2">
		<path display="inline" fill="#FFFFFF" d="M-11.957-572.667c-11.282,3.636-35.885,28.281-38.51,36.153
			c-2.621,7.851,12.065,36.154,18.865,37.705c6.793,1.59,56.584-20.436,58.154-28.284C28.124-534.964-0.674-576.346-11.957-572.667z
			"/>
		<path display="inline" fill="#FFFFFF" d="M91.012-652.825C80.514-652.331,2.466-593.1,2.978-583.68
			c0.519,9.423,29.36,46.629,37.729,47.951c8.363,1.301,70.221-78.341,72.307-88.814C115.1-635.038,101.484-653.364,91.012-652.825z
			"/>
		<path display="inline" fill="#FFFFFF" d="M405.947-939.27c-10.933-15.145-35.498-16.26-56.115-3.016
			c-7.87-4.009-17.023-7.233-27.767-9.215c0,0-391.394,317.515-477.854,378.833c0,0-3.302,7.003-8.776,18.407
			c98.109,68.715,86.957,120.568,86.957,120.568c-27.149-66.916-95.885-102.037-95.905-102.037
			c-24.626,50.699-68.835,139.307-92.308,172.114c0,0-0.04,18.015,22.025,29.48c0,0,150.072-101.024,193.329-109.639
			c0,0,23.883-23.283,60.697-58.922c-20.121,10.308-43.197,20.062-52.827,20.659c-16.772,1.053-36.153-39.437-34.583-53.776
			c1.57-14.338,153.521-139.574,176.038-137.984c22.541,1.57,29.875,22.518,30.414,37.725c0.205,6.548-13.654,26.546-30.414,48.012
			C212.118-696.729,355.042-831.902,395.944-861.9c0,0,0.414-10.661-3.141-24.688C410.489-901.938,416.501-924.602,405.947-939.27z
			 M-209.458-356.673c0,0-2.542-32.478-33.638-43.818C-243.095-400.491-190.867-424.126-209.458-356.673z"/>
	</g>
	<path display="none" opacity="0.5" fill="#71C8EA" enable-background="new    " d="M1359.089-623.01l3.333,3.333
		c0,0,17-13.666,32.5-11.833c0,0,21-27.999,50-37.833c0,0,17.667-9.834,7.167-30.667s-24.327-12.938-31.167-8
		c-9.583,6.916-39.771,40.322-51.5,56.333C1369.422-651.677,1372.922-635.343,1359.089-623.01z"/>
	<g>
		<path d="M0.265,18.408c-0.387,0.211-0.316,5.902,0,6.324s6.009,0.281,6.325,0c0.316-0.28,0.246-5.902,0-6.324
			S0.651,18.197,0.265,18.408z"/>
		<path d="M8.698,10.146c-0.316,0.287-0.316,13.799,0,14.375c0.316,0.576,6.009,0.287,6.326,0c0.316-0.287,0.246-13.896,0-14.375
			C14.778,9.666,9.015,9.857,8.698,10.146z"/>
		<path d="M25.463,10.146c-0.316,0.287-0.316,13.799,0,14.375s6.01,0.287,6.326,0s0.246-13.896,0-14.375
			C31.542,9.666,25.779,9.857,25.463,10.146z"/>
		<path d="M17.132,0.391c-0.315,0.461-0.315,23.643,0,24.218c0.316,0.578,5.938,0.463,6.325,0c0.387-0.461,0.176-23.643,0-24.218
			C23.281-0.185,17.449-0.071,17.132,0.391z"/>
	</g>
</g>
</svg>
