<?xml version="1.0" encoding="utf-8"?>
<!-- Generator: Adobe Illustrator 16.0.4, SVG Export Plug-In . SVG Version: 6.00 Build 0)  -->
<!DOCTYPE svg PUBLIC "-//W3C//DTD SVG 1.1//EN" "http://www.w3.org/Graphics/SVG/1.1/DTD/svg11.dtd">
<svg version="1.1" fill="rgb(0, 14, 156)" xmlns="http://www.w3.org/2000/svg" xmlns:xlink="http://www.w3.org/1999/xlink" x="0px" y="0px"
	 width="32px" height="30.146px" viewBox="0 0 32 30.146" enable-background="new 0 0 32 30.146" xml:space="preserve">
<g id="Fondo_1_" display="none">
	<rect id="Fondo" x="-473.967" y="-2044.041" display="inline" fill="#FB6E92" width="1000" height="2438.352"/>
</g>
<g id="Guias" display="none">
</g>
<g id="Icons">
	<g display="none" opacity="0.2">
		<path display="inline" fill="#FFFFFF" d="M-63.958-567.521c-11.282,3.636-35.885,28.28-38.51,36.152
			c-2.621,7.852,12.065,36.154,18.865,37.705c6.793,1.59,56.584-20.436,58.154-28.283
			C-23.877-529.817-52.675-571.199-63.958-567.521z"/>
		<path display="inline" fill="#FFFFFF" d="M39.011-647.679c-10.497,0.494-88.546,59.726-88.034,69.146
			c0.519,9.424,29.36,46.63,37.729,47.951c8.363,1.301,70.221-78.341,72.308-88.813C63.1-629.892,49.482-648.218,39.011-647.679z"/>
		<path display="inline" fill="#FFFFFF" d="M353.946-934.123c-10.933-15.145-35.498-16.26-56.115-3.016
			c-7.87-4.009-17.022-7.233-27.767-9.215c0,0-391.394,317.515-477.854,378.833c0,0-3.302,7.003-8.776,18.406
			c98.109,68.716,86.957,120.568,86.957,120.568c-27.149-66.916-95.885-102.037-95.905-102.037
			c-24.626,50.699-68.835,139.308-92.308,172.114c0,0-0.04,18.015,22.025,29.479c0,0,150.072-101.023,193.329-109.639
			c0,0,23.883-23.283,60.697-58.922c-20.121,10.308-43.197,20.062-52.827,20.659c-16.772,1.053-36.153-39.438-34.583-53.776
			c1.57-14.338,153.521-139.574,176.039-137.983c22.539,1.569,29.875,22.518,30.414,37.725c0.205,6.548-13.655,26.546-30.414,48.012
			c113.258-108.669,256.182-243.843,297.084-273.841c0,0,0.414-10.661-3.141-24.688C358.488-896.791,364.5-919.455,353.946-934.123z
			 M-261.458-351.526c0,0-2.542-32.479-33.638-43.818C-295.096-395.345-242.868-418.979-261.458-351.526z"/>
	</g>
	<path display="none" opacity="0.5" fill="#71C8EA" enable-background="new    " d="M1307.088-617.863l3.333,3.333
		c0,0,17-13.667,32.5-11.834c0,0,21-27.999,50-37.833c0,0,17.667-9.834,7.167-30.667s-24.327-12.937-31.167-8
		c-9.583,6.916-39.771,40.322-51.5,56.333C1317.421-646.531,1320.921-630.197,1307.088-617.863z"/>
	<g>
		<path d="M31.734,23.555c0.388,0.211,0.316,5.902,0,6.324c-0.314,0.422-6.008,0.281-6.324,0c-0.317-0.28-0.246-5.902,0-6.324
			C25.656,23.133,31.348,23.344,31.734,23.555z"/>
		<path d="M23.302,15.292c0.316,0.287,0.316,13.8,0,14.375c-0.315,0.576-6.009,0.288-6.325,0c-0.316-0.287-0.246-13.896,0-14.375
			S22.984,15.004,23.302,15.292z"/>
		<path d="M14.868,5.537c0.316,0.461,0.316,23.644,0,24.219c-0.316,0.577-5.938,0.462-6.325,0c-0.387-0.461-0.176-23.643,0-24.219
			S14.551,5.075,14.868,5.537z"/>
		<path d="M0.108,0.211c0.141-0.23,5.939-0.327,6.326,0c0.387,0.328,0.255,29.067,0,29.533c-0.255,0.465-6.176,0.191-6.326,0
			C-0.041,29.552-0.032,0.444,0.108,0.211z"/>
	</g>
</g>
</svg>
