<?xml version="1.0" encoding="utf-8"?>
<!-- Generator: Adobe Illustrator 16.0.4, SVG Export Plug-In . SVG Version: 6.00 Build 0)  -->
<!DOCTYPE svg PUBLIC "-//W3C//DTD SVG 1.1//EN" "http://www.w3.org/Graphics/SVG/1.1/DTD/svg11.dtd">
<svg version="1.1" fill="rgb(0, 14, 156)" xmlns="http://www.w3.org/2000/svg" xmlns:xlink="http://www.w3.org/1999/xlink" x="0px" y="0px"
	 width="32px" height="31.334px" viewBox="0 0 32 31.334" enable-background="new 0 0 32 31.334" xml:space="preserve">
<g id="Fondo_1_" display="none">
	<rect id="Fondo" x="-525.612" y="-2043.855" display="inline" fill="#FB6E92" width="1000" height="2438.351"/>
</g>
<g id="Guias" display="none">
</g>
<g id="Icons">
	<g display="none" opacity="0.2">
		<path display="inline" fill="#FFFFFF" d="M-115.603-567.335c-11.282,3.636-35.885,28.281-38.51,36.153
			c-2.621,7.851,12.065,36.154,18.865,37.705c6.793,1.59,56.584-20.436,58.154-28.284
			C-75.522-529.632-104.32-571.014-115.603-567.335z"/>
		<path display="inline" fill="#FFFFFF" d="M-12.634-647.493c-10.498,0.494-88.546,59.726-88.034,69.146
			c0.519,9.423,29.36,46.629,37.729,47.951c8.363,1.301,70.221-78.341,72.307-88.814C11.454-629.706-2.162-648.032-12.634-647.493z"
			/>
		<path display="inline" fill="#FFFFFF" d="M302.3-933.938c-10.932-15.145-35.498-16.26-56.114-3.016
			c-7.87-4.009-17.022-7.233-27.767-9.215c0,0-391.394,317.515-477.854,378.833c0,0-3.302,7.003-8.776,18.407
			c98.109,68.715,86.957,120.568,86.957,120.568c-27.149-66.916-95.885-102.037-95.905-102.037
			c-24.626,50.699-68.835,139.307-92.308,172.114c0,0-0.04,18.015,22.025,29.48c0,0,150.072-101.024,193.329-109.639
			c0,0,23.883-23.283,60.697-58.922c-20.121,10.308-43.197,20.062-52.827,20.659c-16.772,1.053-36.153-39.437-34.583-53.776
			c1.57-14.338,153.521-139.574,176.038-137.984c22.54,1.57,29.875,22.518,30.415,37.725c0.205,6.548-13.655,26.546-30.415,48.012
			c113.26-108.667,256.184-243.841,297.086-273.839c0,0,0.414-10.661-3.141-24.688C306.843-896.605,312.855-919.27,302.3-933.938z
			 M-313.104-351.341c0,0-2.542-32.478-33.638-43.818C-346.741-395.159-294.513-418.794-313.104-351.341z"/>
	</g>
	<path display="none" opacity="0.5" fill="#71C8EA" enable-background="new    " d="M1255.443-617.678l3.334,3.333
		c0,0,17-13.666,32.5-11.833c0,0,21-27.999,50-37.833c0,0,17.666-9.834,7.166-30.667s-24.326-12.938-31.166-8
		c-9.584,6.916-39.771,40.322-51.5,56.333C1265.777-646.345,1269.277-630.011,1255.443-617.678z"/>
	<g>
		<path d="M4.326,23.169c0.07,0.229,1.264,1.014,2.346,1.846c0.001-0.006,1.117-9.176,7.755-10.447c0,0,5.179-1.389,10.714,7.453
			c1.562-1.832,2.655-3.274,2.521-3.527C16.016-3.047,2.387,16.897,4.326,23.169z"/>
		<path d="M0.536,19.583c0.137,0.288,0.964,1.02,2.379,2.139C2.916,21.711,3.071,8.406,14.606,6.695c0,0,8.39-1.338,14.079,10.4
			c2.042-2.465,3.499-4.422,3.295-4.746C14.485-15.556-3.342,11.409,0.536,19.583z"/>
		<path d="M14.003,17.487c-2.631,0.713-4.757,3.391-5.905,8.597c0.664,0.487,1.379,1.001,2.099,1.509
			c1.327-5.105,4.56-5.396,4.56-5.396c3.485-0.705,5.918,4.783,5.918,4.783l3.232-3.539C23.906,23.438,19.615,15.966,14.003,17.487z
			"/>
		<path d="M15.086,25.259c-2.494,0.376-3.156,3.53-3.157,3.534c2.11,1.437,3.938,2.579,4.24,2.54
			c0.24-0.029,1.545-1.273,3.194-2.979C17.66,24.999,15.086,25.259,15.086,25.259z"/>
	</g>
</g>
</svg>
