<?xml version="1.0" encoding="utf-8"?>
<!-- Generator: Adobe Illustrator 16.0.4, SVG Export Plug-In . SVG Version: 6.00 Build 0)  -->
<!DOCTYPE svg PUBLIC "-//W3C//DTD SVG 1.1//EN" "http://www.w3.org/Graphics/SVG/1.1/DTD/svg11.dtd">
<svg version="1.1" fill="rgb(0, 14, 156)" xmlns="http://www.w3.org/2000/svg" xmlns:xlink="http://www.w3.org/1999/xlink" x="0px" y="0px"
	 width="26.32px" height="32px" viewBox="0 0 26.32 32" enable-background="new 0 0 26.32 32" xml:space="preserve">
<g id="Fondo_1_" display="none">
	<rect id="Fondo" x="-580.801" y="-2043.523" display="inline" fill="#FB6E92" width="1000" height="2438.351"/>
</g>
<g id="Guias" display="none">
</g>
<g id="Icons">
	<g display="none" opacity="0.2">
		<path display="inline" fill="#FFFFFF" d="M-170.792-567.003c-11.282,3.636-35.885,28.281-38.51,36.153
			c-2.621,7.851,12.065,36.154,18.865,37.705c6.793,1.59,56.584-20.436,58.153-28.284
			C-130.712-529.3-159.51-570.682-170.792-567.003z"/>
		<path display="inline" fill="#FFFFFF" d="M-67.823-647.161c-10.497,0.494-88.546,59.726-88.033,69.146
			c0.519,9.423,29.359,46.629,37.729,47.951c8.363,1.301,70.221-78.341,72.308-88.814C-43.735-629.374-57.352-647.7-67.823-647.161z
			"/>
		<path display="inline" fill="#FFFFFF" d="M247.111-933.605c-10.932-15.145-35.498-16.26-56.115-3.016
			c-7.87-4.009-17.022-7.233-27.767-9.215c0,0-391.394,317.515-477.854,378.833c0,0-3.302,7.003-8.775,18.407
			c98.108,68.715,86.957,120.568,86.957,120.568c-27.149-66.916-95.886-102.037-95.905-102.037
			c-24.626,50.699-68.835,139.307-92.309,172.114c0,0-0.04,18.015,22.025,29.48c0,0,150.072-101.024,193.329-109.639
			c0,0,23.883-23.283,60.697-58.922c-20.121,10.308-43.197,20.062-52.827,20.659c-16.772,1.053-36.153-39.437-34.583-53.776
			c1.57-14.338,153.521-139.574,176.038-137.984c22.54,1.57,29.875,22.518,30.414,37.725c0.205,6.548-13.655,26.546-30.414,48.012
			c113.26-108.668,256.184-243.842,297.086-273.84c0,0,0.414-10.661-3.141-24.688C251.653-896.273,257.666-918.938,247.111-933.605z
			 M-368.293-351.009c0,0-2.542-32.478-33.638-43.818C-401.931-394.827-349.702-418.462-368.293-351.009z"/>
	</g>
	<path display="none" opacity="0.5" fill="#71C8EA" enable-background="new    " d="M1200.254-617.346l3.333,3.333
		c0,0,17-13.666,32.5-11.833c0,0,21-27.999,50-37.833c0,0,17.667-9.834,7.167-30.667s-24.327-12.938-31.167-8
		c-9.583,6.916-39.771,40.322-51.5,56.333C1210.587-646.013,1214.087-629.679,1200.254-617.346z"/>
	<path d="M22.219,14.768c-1.214-0.437-2.495-0.369-3.713,0.102c3.624-4.756,6.56-8.733,6.568-9.026
		c0.028-0.755-3.123-2.833-3.878-2.806c-0.292,0.012-3.127,3.894-6.491,8.703c1.364-5.046-0.416-10.079-4.126-11.413
		C6.734-1.055,2.276,2.062,0.62,7.288c-1.656,5.228,0.118,10.585,3.963,11.968c1.812,0.651,3.761,0.303,5.487-0.794
		C6.146,24.23,2.703,29.5,2.74,29.883c0.084,0.867,1.622,1.846,2.237,1.901c0.262,0.022,3.935-4.533,8.069-9.834
		c-0.998,4.358,0.599,8.603,3.806,9.756c3.44,1.237,7.431-1.552,8.913-6.229C27.247,20.799,25.66,16.005,22.219,14.768z
		 M5.509,16.487C2.857,15.534,1.766,11.27,2.78,8.065C3.796,4.86,7.052,2.084,9.703,3.037s3.694,5.275,2.679,8.48
		C11.367,14.723,8.159,17.441,5.509,16.487z M23.832,24.781c-0.908,2.867-3.955,5.312-6.327,4.458
		c-2.372-0.854-3.174-4.681-2.265-7.548c0.908-2.867,3.919-4.976,6.291-4.121C23.904,18.424,24.74,21.914,23.832,24.781z"/>
</g>
</svg>
