<?xml version="1.0" encoding="utf-8"?>
<!-- Generator: Adobe Illustrator 16.0.4, SVG Export Plug-In . SVG Version: 6.00 Build 0)  -->
<!DOCTYPE svg PUBLIC "-//W3C//DTD SVG 1.1//EN" "http://www.w3.org/Graphics/SVG/1.1/DTD/svg11.dtd">
<svg version="1.1" fill="rgb(0, 14, 156)" xmlns="http://www.w3.org/2000/svg" xmlns:xlink="http://www.w3.org/1999/xlink" x="0px" y="0px"
	 width="32px" height="25.215px" viewBox="0 0 32 25.215" enable-background="new 0 0 32 25.215" xml:space="preserve">
<g id="Fondo_1_" display="none">
	<rect id="Fondo" x="-629.959" y="-2046.915" display="inline" fill="#FB6E92" width="1000" height="2438.351"/>
</g>
<g id="Guias" display="none">
</g>
<g id="Icons">
	<g display="none" opacity="0.2">
		<path display="inline" fill="#FFFFFF" d="M-219.95-570.395c-11.282,3.636-35.885,28.281-38.51,36.153
			c-2.621,7.851,12.065,36.154,18.865,37.705c6.793,1.59,56.584-20.436,58.154-28.284
			C-179.87-532.691-208.668-574.073-219.95-570.395z"/>
		<path display="inline" fill="#FFFFFF" d="M-116.981-650.553c-10.498,0.494-88.546,59.726-88.034,69.146
			c0.519,9.423,29.36,46.629,37.729,47.951c8.363,1.301,70.221-78.341,72.307-88.814
			C-92.894-632.766-106.51-651.092-116.981-650.553z"/>
		<path display="inline" fill="#FFFFFF" d="M197.953-936.997c-10.932-15.145-35.498-16.26-56.115-3.016
			c-7.87-4.009-17.023-7.233-27.768-9.215c0,0-391.393,317.515-477.854,378.833c0,0-3.302,7.003-8.776,18.407
			c98.109,68.715,86.957,120.568,86.957,120.568c-27.149-66.916-95.885-102.037-95.905-102.037
			c-24.626,50.699-68.835,139.307-92.308,172.114c0,0-0.04,18.015,22.025,29.479c0,0,150.072-101.024,193.329-109.639
			c0,0,23.883-23.283,60.697-58.922c-20.121,10.308-43.197,20.062-52.827,20.659c-16.772,1.053-36.153-39.437-34.583-53.776
			c1.57-14.338,153.521-139.574,176.038-137.984c22.54,1.57,29.875,22.518,30.414,37.725c0.205,6.548-13.655,26.546-30.414,48.012
			C4.124-694.456,147.048-829.63,187.95-859.628c0,0,0.413-10.661-3.14-24.688C202.495-899.665,208.508-922.329,197.953-936.997z
			 M-417.451-354.4c0,0-2.542-32.478-33.638-43.818C-451.089-398.219-398.86-421.854-417.451-354.4z"/>
	</g>
	<path display="none" opacity="0.5" fill="#71C8EA" enable-background="new    " d="M1151.096-620.737l3.333,3.333
		c0,0,17-13.667,32.5-11.833c0,0,21-27.999,50-37.833c0,0,17.667-9.834,7.167-30.667s-24.327-12.937-31.167-8
		c-9.583,6.916-39.771,40.322-51.5,56.333C1161.429-649.404,1164.929-633.07,1151.096-620.737z"/>
	<g>
		<path d="M27.096,16.51c1.195-7.063-2.609-13.946-9.146-15.952C10.787-1.638,3.062,2.842,0.69,10.567
			C0.232,12.061,0.01,13.563,0,15.038l5.05,0.549c-0.112-1.367,0.029-2.811,0.47-4.247c1.607-5.241,6.536-8.376,11.005-7.004
			c4.152,1.273,6.445,5.987,5.466,10.85c-1.935-0.463-3.628-0.816-4.507-0.912c0.113-0.627,0.986-6.153-3.069-6.246
			c0,0-4.765-0.391-4.024,6.393c-0.848,0.109-1.386,0.209-1.386,0.209v6.92c2.964,0.545,9.487,0,9.487,0l0.072-2.563
			c1.311,2.861,2.941,6.007,3.32,6.216c0.688,0.383,10.292-6.347,10.112-6.992C31.93,17.961,29.766,17.258,27.096,16.51z
			 M14.241,18.715l0.173,1.636l-1.451,0.056l0.191-1.668h0.005c-0.754-0.152-1.327-0.65-1.395-1.299
			c-0.091-0.852,0.727-1.639,1.826-1.754c1.099-0.117,2.062,0.48,2.153,1.334C15.825,17.786,15.172,18.495,14.241,18.715z
			 M16.436,14.2c-1.613-0.148-3.381-0.06-4.787,0.077c0-0.003-0.834-4.798,2.55-5.063c0,0,3.242-0.538,2.232,4.984L16.436,14.2z"/>
		<path d="M0.438,18.792c0.397,1.61,1.06,3.129,1.951,4.476l4.69-2.425c-0.563-0.693-1.022-1.491-1.363-2.357L0.438,18.792z"/>
	</g>
</g>
</svg>
