<?xml version="1.0" encoding="utf-8"?>
<!-- Generator: Adobe Illustrator 16.0.4, SVG Export Plug-In . SVG Version: 6.00 Build 0)  -->
<!DOCTYPE svg PUBLIC "-//W3C//DTD SVG 1.1//EN" "http://www.w3.org/Graphics/SVG/1.1/DTD/svg11.dtd">
<svg version="1.1" fill="rgb(0, 14, 156)" xmlns="http://www.w3.org/2000/svg" xmlns:xlink="http://www.w3.org/1999/xlink" x="0px" y="0px"
	 width="18.172px" height="32px" viewBox="0 0 18.172 32" enable-background="new 0 0 18.172 32" xml:space="preserve">
<g id="Fondo_1_" display="none">
	<rect id="Fondo" x="-688.871" y="-2043.522" display="inline" fill="#FB6E92" width="1000" height="2438.351"/>
</g>
<g id="Guias" display="none">
</g>
<g id="Icons">
	<g display="none" opacity="0.2">
		<path display="inline" fill="#FFFFFF" d="M-278.861-567.002c-11.282,3.636-35.885,28.281-38.51,36.153
			c-2.621,7.851,12.065,36.154,18.865,37.705c6.793,1.59,56.584-20.436,58.154-28.284
			C-238.781-529.299-267.579-570.681-278.861-567.002z"/>
		<path display="inline" fill="#FFFFFF" d="M-175.893-647.16c-10.498,0.494-88.546,59.726-88.034,69.146
			c0.519,9.423,29.36,46.629,37.729,47.951c8.363,1.301,70.221-78.341,72.307-88.814
			C-151.805-629.373-165.421-647.699-175.893-647.16z"/>
		<path display="inline" fill="#FFFFFF" d="M139.042-933.604c-10.932-15.145-35.498-16.26-56.115-3.016
			c-7.869-4.009-17.022-7.233-27.766-9.215c0,0-391.394,317.515-477.854,378.833c0,0-3.302,7.003-8.776,18.407
			c98.109,68.715,86.957,120.568,86.957,120.568c-27.149-66.916-95.885-102.037-95.905-102.037
			c-24.626,50.699-68.835,139.307-92.308,172.114c0,0-0.04,18.015,22.025,29.48c0,0,150.072-101.024,193.329-109.639
			c0,0,23.883-23.283,60.697-58.922c-20.121,10.308-43.197,20.062-52.827,20.659c-16.772,1.053-36.153-39.437-34.583-53.776
			c1.57-14.338,153.521-139.574,176.038-137.984c22.54,1.57,29.875,22.518,30.414,37.725c0.205,6.548-13.655,26.546-30.414,48.012
			c113.26-108.668,256.184-243.842,297.086-273.84c0,0,0.414-10.661-3.141-24.688C143.584-896.272,149.597-918.937,139.042-933.604z
			 M-476.362-351.008c0,0-2.542-32.478-33.638-43.818C-510-394.826-457.771-418.461-476.362-351.008z"/>
	</g>
	<path display="none" opacity="0.5" fill="#71C8EA" enable-background="new    " d="M1092.186-617.345l3.332,3.333
		c0,0,17-13.666,32.5-11.833c0,0,21-27.999,50-37.833c0,0,17.668-9.834,7.168-30.667s-24.328-12.938-31.168-8
		c-9.582,6.916-39.771,40.322-51.5,56.333C1102.518-646.012,1106.018-629.678,1092.186-617.345z"/>
	<path d="M15.303,27.035c-0.062-0.456-0.156-0.913-0.221-1.207c0.201-0.135,0.365-0.271,0.482-0.408c0.336-0.393,0-2.4,0.206-4.057
		s2.401-4.76,2.401-9.231c0-2.981-2.899-5.837-4.059-6.665c-0.711-0.508-6.456-5.589-6.663-5.465
		C7.245,0.127,7.866,3.479,7.866,3.479S5.985,3.524,5.488,3.896C5.263,4.065,5.195,6.631,3.726,8.53
		C2.029,10.724,0.001,12.297,0,12.835c0,0.539,0.208,4.741,4.678,4.39c2.498-0.199,5.879-4.617,6.086-4.473
		c0.207,0.146-7.091,8.031-7.12,9.107c-0.084,3.104,2.002,4.85,2.4,4.968c0.324,0.096,0.655,0.172,0.991,0.233
		c-0.006,0.098-0.012,0.207-0.018,0.328l-0.114,0.008c0,0-1.242,0.217-1.677,0.59s-0.548,1.879,0,2.297
		c3.943,3.012,10.215,1.434,11.983,0c0.412-0.332,0.188-1.986,0-2.359C17.086,27.675,16.006,27.273,15.303,27.035z M8.684,9.34
		c-0.553,0.611-1.392,0.754-1.873,0.318C6.328,9.222,6.386,8.373,6.938,7.762C7.49,7.151,8.33,7.009,8.812,7.444
		C9.294,7.88,9.236,8.729,8.684,9.34z"/>
</g>
</svg>
