<?xml version="1.0" encoding="utf-8"?>
<!-- Generator: Adobe Illustrator 16.0.4, SVG Export Plug-In . SVG Version: 6.00 Build 0)  -->
<!DOCTYPE svg PUBLIC "-//W3C//DTD SVG 1.1//EN" "http://www.w3.org/Graphics/SVG/1.1/DTD/svg11.dtd">
<svg version="1.1" fill="rgb(0, 14, 156)" xmlns="http://www.w3.org/2000/svg" xmlns:xlink="http://www.w3.org/1999/xlink" x="0px" y="0px"
	 width="26.826px" height="32px" viewBox="0 0 26.826 32" enable-background="new 0 0 26.826 32" xml:space="preserve">
<g id="Fondo_1_" display="none">
	<rect id="Fondo" x="-736.541" y="-2043.522" display="inline" fill="#FB6E92" width="1000" height="2438.351"/>
</g>
<g id="Guias" display="none">
</g>
<g id="Icons">
	<g display="none" opacity="0.2">
		<path display="inline" fill="#FFFFFF" d="M-326.531-567.002c-11.282,3.636-35.885,28.281-38.51,36.153
			c-2.621,7.851,12.065,36.154,18.865,37.705c6.793,1.59,56.584-20.436,58.154-28.284
			C-286.451-529.299-315.249-570.681-326.531-567.002z"/>
		<path display="inline" fill="#FFFFFF" d="M-223.562-647.16c-10.498,0.494-88.546,59.726-88.034,69.146
			c0.519,9.423,29.36,46.629,37.729,47.951c8.363,1.301,70.221-78.341,72.307-88.814
			C-199.475-629.373-213.091-647.699-223.562-647.16z"/>
		<path display="inline" fill="#FFFFFF" d="M91.372-933.604c-10.932-15.145-35.498-16.26-56.115-3.016
			c-7.869-4.009-17.023-7.233-27.767-9.215c0,0-391.393,317.515-477.854,378.833c0,0-3.302,7.003-8.776,18.407
			c98.109,68.715,86.957,120.568,86.957,120.568c-27.149-66.916-95.885-102.037-95.905-102.037
			c-24.626,50.699-68.835,139.307-92.308,172.114c0,0-0.04,18.015,22.025,29.48c0,0,150.072-101.024,193.329-109.639
			c0,0,23.883-23.283,60.697-58.922c-20.121,10.308-43.197,20.062-52.827,20.659c-16.772,1.053-36.153-39.437-34.583-53.776
			c1.57-14.338,153.521-139.574,176.038-137.984c22.54,1.57,29.875,22.518,30.414,37.725c0.205,6.548-13.655,26.546-30.414,48.012
			c113.26-108.668,256.184-243.842,297.086-273.84c0,0,0.414-10.661-3.14-24.688C95.914-896.272,101.927-918.937,91.372-933.604z
			 M-524.032-351.008c0,0-2.542-32.478-33.638-43.818C-557.67-394.826-505.441-418.461-524.032-351.008z"/>
	</g>
	<path display="none" opacity="0.5" fill="#71C8EA" enable-background="new    " d="M1044.515-617.345l3.333,3.333
		c0,0,17-13.666,32.5-11.833c0,0,21-27.999,50-37.833c0,0,17.667-9.834,7.167-30.667s-24.327-12.938-31.167-8
		c-9.583,6.916-39.771,40.322-51.5,56.333C1054.848-646.012,1058.348-629.678,1044.515-617.345z"/>
	<g>
		<path d="M26.754,6.777c-0.058-0.1-0.612-0.1-1.515-0.027c-0.018,5.466-0.94,23.329-1.555,23.624
			c-0.608,0.294-15.669-1.147-20.397-1.97c0.048,0.691,0.111,1.137,0.188,1.229c0.529,0.635,21.084,2.672,21.797,2.328
			C25.987,31.617,27.124,7.412,26.754,6.777z"/>
		<path d="M22.099,28.787c0.715-0.344,1.853-24.549,1.481-25.184c-0.122-0.209-2.448,0.017-5.562,0.451
			c0.002-0.012,0.004-0.023,0.006-0.035c0.36-1.728,1.838-2.882,3.299-2.577c0.462,0.097,0.865,0.327,1.191,0.651l0.963-0.92
			c-0.494-0.554-1.129-0.95-1.867-1.104c-1.396-0.291-2.795,0.344-3.734,1.527c-0.46-0.442-1.021-0.76-1.662-0.893
			c-1.268-0.265-2.54,0.236-3.468,1.219c-0.381-0.28-0.815-0.484-1.294-0.584c-1.351-0.282-2.708,0.305-3.646,1.418
			C7.467,2.539,7.096,2.375,6.69,2.29C4.587,1.854,2.462,3.514,1.943,5.999C1.865,6.375,1.831,6.746,1.832,7.108
			C1.488,7.223,1.251,7.325,1.146,7.412C-0.124,8.471-0.229,25.824,0.3,26.459C0.829,27.094,21.384,29.131,22.099,28.787z
			 M3.014,17.062l-0.065-2.095l17.678-1.01l0.079,2.547L3.014,17.062z M20.699,18.902l-0.064,2.547L2.94,21.006l0.053-2.094
			L20.699,18.902z M7.644,9.183c0.297-0.918,1.163-1.459,1.936-1.21c0.772,0.25,1.158,1.196,0.861,2.113
			c-0.297,0.918-1.163,1.459-1.936,1.21C7.732,11.046,7.347,10.1,7.644,9.183z M12.723,8.548c0.297-0.918,1.163-1.459,1.936-1.21
			c0.771,0.25,1.158,1.196,0.861,2.113c-0.297,0.918-1.164,1.459-1.937,1.21C12.812,10.411,12.426,9.465,12.723,8.548z
			 M19.737,6.703c0.771,0.25,1.158,1.196,0.861,2.113c-0.298,0.918-1.164,1.459-1.937,1.209c-0.772-0.249-1.158-1.195-0.861-2.113
			C18.099,6.995,18.965,6.454,19.737,6.703z M15.926,2.077c0.474,0.1,0.886,0.341,1.218,0.679l0.063-0.044
			C17.062,3.046,16.94,3.4,16.862,3.777C16.831,3.93,16.81,4.08,16.79,4.23c-1.332,0.196-2.766,0.421-4.202,0.661
			c0.011-0.079,0.023-0.157,0.04-0.237C12.988,2.927,14.465,1.772,15.926,2.077z M7.866,5.289c0.36-1.728,1.837-2.881,3.298-2.576
			c0.288,0.06,0.551,0.177,0.788,0.332c-0.216,0.417-0.383,0.875-0.485,1.367c-0.048,0.23-0.08,0.459-0.098,0.687
			c-1.224,0.211-2.433,0.43-3.566,0.646C7.815,5.594,7.834,5.441,7.866,5.289z M3.104,6.241c0.36-1.728,1.838-2.881,3.298-2.576
			c0.242,0.05,0.467,0.139,0.674,0.257C6.917,4.273,6.788,4.648,6.705,5.047c-0.066,0.314-0.1,0.626-0.109,0.934
			C5.207,6.258,3.977,6.526,3.033,6.767C3.044,6.594,3.067,6.418,3.104,6.241z M2.564,10.135C2.861,9.217,3.728,8.676,4.5,8.926
			c0.772,0.249,1.158,1.195,0.861,2.113c-0.297,0.917-1.163,1.459-1.936,1.209C2.652,11.998,2.268,11.052,2.564,10.135z
			 M20.554,26.312L2.9,25.025l0.152-2.088l17.688,0.834L20.554,26.312z"/>
	</g>
</g>
</svg>
