<?xml version="1.0" encoding="utf-8"?>
<!-- Generator: Adobe Illustrator 16.0.4, SVG Export Plug-In . SVG Version: 6.00 Build 0)  -->
<!DOCTYPE svg PUBLIC "-//W3C//DTD SVG 1.1//EN" "http://www.w3.org/Graphics/SVG/1.1/DTD/svg11.dtd">
<svg version="1.1" fill="rgb(0, 14, 156)" xmlns="http://www.w3.org/2000/svg" xmlns:xlink="http://www.w3.org/1999/xlink" x="0px" y="0px"
	 width="24.218px" height="32px" viewBox="0 0 24.218 32" enable-background="new 0 0 24.218 32" xml:space="preserve">
<g id="Fondo_1_" display="none">
	<rect id="Fondo" x="-789.772" y="-2043.522" display="inline" fill="#FB6E92" width="1000" height="2438.351"/>
</g>
<g id="Guias" display="none">
</g>
<g id="Icons">
	<g display="none" opacity="0.2">
		<path display="inline" fill="#FFFFFF" d="M-379.763-567.002c-11.282,3.636-35.885,28.281-38.51,36.153
			c-2.621,7.851,12.065,36.154,18.865,37.705c6.793,1.59,56.584-20.436,58.154-28.284
			C-339.683-529.299-368.48-570.681-379.763-567.002z"/>
		<path display="inline" fill="#FFFFFF" d="M-276.794-647.16c-10.498,0.494-88.546,59.726-88.034,69.146
			c0.519,9.423,29.36,46.629,37.729,47.951c8.363,1.301,70.221-78.341,72.307-88.814
			C-252.706-629.373-266.322-647.699-276.794-647.16z"/>
		<path display="inline" fill="#FFFFFF" d="M38.141-933.604c-10.933-15.145-35.498-16.26-56.115-3.016
			c-7.87-4.009-17.023-7.233-27.767-9.215c0,0-391.393,317.515-477.854,378.833c0,0-3.302,7.003-8.776,18.407
			c98.109,68.715,86.957,120.568,86.957,120.568c-27.149-66.916-95.885-102.037-95.905-102.037
			c-24.626,50.699-68.835,139.307-92.308,172.114c0,0-0.04,18.015,22.025,29.48c0,0,150.072-101.024,193.329-109.639
			c0,0,23.883-23.283,60.697-58.922c-20.121,10.308-43.197,20.062-52.827,20.659c-16.772,1.053-36.153-39.437-34.583-53.776
			c1.57-14.338,153.521-139.574,176.038-137.984c22.54,1.57,29.875,22.518,30.414,37.725c0.205,6.548-13.655,26.546-30.414,48.012
			c113.26-108.668,256.183-243.842,297.086-273.84c0,0,0.414-10.661-3.141-24.688C42.683-896.272,48.695-918.937,38.141-933.604z
			 M-577.264-351.008c0,0-2.542-32.478-33.638-43.818C-610.901-394.826-558.673-418.461-577.264-351.008z"/>
	</g>
	<path display="none" opacity="0.5" fill="#71C8EA" enable-background="new    " d="M991.283-617.345l3.334,3.333
		c0,0,17-13.666,32.5-11.833c0,0,21-27.999,50-37.833c0,0,17.666-9.834,7.166-30.667s-24.326-12.938-31.166-8
		c-9.584,6.916-39.771,40.322-51.5,56.333C1001.617-646.012,1005.117-629.678,991.283-617.345z"/>
	<g>
		<path d="M21.71,13.249c0.041-0.229,0.064-0.462,0.064-0.698c0-2.616-2.643-4.849-6.365-5.735c0.141-0.646,0.229-1.42,0.207-2.342
			c-0.048-1.869-0.721-4.442-0.843-4.473c-0.269-0.064-1.674,2.85-4.092,3.611c-0.057,0.015-0.112,0.031-0.168,0.05
			c-0.001,0-0.002,0.001-0.002,0.001C9.601,3.961,8.814,4.626,8.389,5.568C8.198,5.99,8.101,6.43,8.082,6.866
			C4.467,7.784,1.92,9.982,1.92,12.551c0,0.234,0.023,0.465,0.064,0.692C0.39,15.102,0,17.202,0,18.312
			c0,2.271,2.401,4.801,5.631,1.091c0,0,0.394,3.885,3.142,3.885c2.75,0,3.337-2.836,3.337-2.836s1.333,3.36,4.214,3.098
			c2.881-0.262,3.535-4.45,3.535-4.45s1.877,3.403,3.842,1.004C24.785,18.776,24.188,15.72,21.71,13.249z"/>
		<path d="M19.858,20.495c0,0-0.655,4.189-3.534,4.451c-2.882,0.262-4.215-3.099-4.215-3.099s-0.587,2.837-3.337,2.837
			c-2.748,0-3.142-3.885-3.142-3.885c-1.962,2.252-3.613,2.199-4.611,1.305c0,0,1.338,6.29,2.036,7.207
			c0.327,0.43,1.088,1.139,2.493,1.721c0,0,2.455,0.969,6.759,0.969c3.771,0,6.935-1.09,6.935-1.09
			c1.586-0.549,2.107-1.179,2.45-1.644c0.61-0.829,1.904-7.66,1.904-7.66C21.669,23.767,19.858,20.495,19.858,20.495z"/>
	</g>
</g>
</svg>
