<?xml version="1.0" encoding="utf-8"?>
<!-- Generator: Adobe Illustrator 16.0.4, SVG Export Plug-In . SVG Version: 6.00 Build 0)  -->
<!DOCTYPE svg PUBLIC "-//W3C//DTD SVG 1.1//EN" "http://www.w3.org/Graphics/SVG/1.1/DTD/svg11.dtd">
<svg version="1.1" fill="rgb(0, 14, 156)" xmlns="http://www.w3.org/2000/svg" xmlns:xlink="http://www.w3.org/1999/xlink" x="0px" y="0px"
	 width="32px" height="31.557px" viewBox="0 0 32 31.557" enable-background="new 0 0 32 31.557" xml:space="preserve">
<g id="Fondo_1_" display="none">
	<rect id="Fondo" x="-837.949" y="-2043.744" display="inline" fill="#FB6E92" width="1000" height="2438.352"/>
</g>
<g id="Guias" display="none">
</g>
<g id="Icons">
	<g display="none" opacity="0.2">
		<path display="inline" fill="#FFFFFF" d="M-427.939-567.224c-11.282,3.636-35.885,28.281-38.51,36.153
			c-2.621,7.851,12.065,36.153,18.865,37.704c6.793,1.591,56.584-20.436,58.154-28.283
			C-387.859-529.521-416.657-570.902-427.939-567.224z"/>
		<path display="inline" fill="#FFFFFF" d="M-324.971-647.382c-10.498,0.494-88.546,59.726-88.034,69.146
			c0.519,9.423,29.36,46.629,37.729,47.95c8.363,1.302,70.221-78.341,72.307-88.813
			C-300.883-629.595-314.499-647.921-324.971-647.382z"/>
		<path display="inline" fill="#FFFFFF" d="M-10.036-933.826c-10.932-15.145-35.498-16.26-56.115-3.016
			c-7.87-4.009-17.023-7.233-27.767-9.215c0,0-391.393,317.515-477.854,378.833c0,0-3.302,7.003-8.776,18.407
			c98.109,68.715,86.957,120.567,86.957,120.567c-27.149-66.916-95.885-102.037-95.905-102.037
			c-24.626,50.699-68.835,139.308-92.308,172.114c0,0-0.04,18.015,22.025,29.48c0,0,150.072-101.024,193.329-109.64
			c0,0,23.883-23.283,60.697-58.922c-20.121,10.309-43.197,20.062-52.827,20.659c-16.772,1.053-36.153-39.438-34.583-53.776
			c1.57-14.338,153.521-139.573,176.038-137.983c22.54,1.569,29.875,22.518,30.414,37.725c0.205,6.548-13.655,26.546-30.414,48.012
			c113.26-108.668,256.184-243.842,297.086-273.84c0,0,0.414-10.661-3.14-24.688C-5.494-896.494,0.519-919.158-10.036-933.826z
			 M-625.44-351.229c0,0-2.542-32.479-33.638-43.818C-659.078-395.048-606.85-418.683-625.44-351.229z"/>
	</g>
	<path display="none" opacity="0.5" fill="#71C8EA" enable-background="new    " d="M943.106-617.566l3.333,3.333
		c0,0,17-13.666,32.5-11.833c0,0,21-27.999,50-37.833c0,0,17.666-9.834,7.166-30.667s-24.326-12.938-31.166-8
		c-9.584,6.916-39.771,40.321-51.5,56.333C953.439-646.233,956.939-629.899,943.106-617.566z"/>
	<path d="M28.643,5.134c-5.414-6.433-15.466-6.88-22.448-1.001c-6.981,5.88-8.252,15.858-2.836,22.29
		c5.415,6.433,15.466,6.881,22.448,1.001C32.788,21.545,34.059,11.565,28.643,5.134z M9.183,7.506
		c4.319-3.636,10.324-3.788,14.249-0.63L4.918,17.416C4.611,13.872,6.09,10.11,9.183,7.506z M22.818,23.7
		c-4.812,4.051-11.715,3.778-15.504-0.578l19.672-6.702C26.564,19.112,25.15,21.735,22.818,23.7z"/>
</g>
</svg>
