<?xml version="1.0" encoding="utf-8"?>
<!-- Generator: Adobe Illustrator 16.0.4, SVG Export Plug-In . SVG Version: 6.00 Build 0)  -->
<!DOCTYPE svg PUBLIC "-//W3C//DTD SVG 1.1//EN" "http://www.w3.org/Graphics/SVG/1.1/DTD/svg11.dtd">
<svg version="1.1" fill="rgb(0, 14, 156)" xmlns="http://www.w3.org/2000/svg" xmlns:xlink="http://www.w3.org/1999/xlink" x="0px" y="0px"
	 width="32px" height="30.418px" viewBox="0 0 32 30.418" enable-background="new 0 0 32 30.418" xml:space="preserve">
<g id="Fondo_1_" display="none">
	<rect id="Fondo" x="-109.967" y="-2108.104" display="inline" fill="#FB6E92" width="1000" height="2438.351"/>
</g>
<g id="Guias" display="none">
</g>
<g id="Icons">
	<g display="none" opacity="0.2">
		<path display="inline" fill="#FFFFFF" d="M300.042-631.583c-11.282,3.636-35.885,28.281-38.51,36.153
			c-2.621,7.851,12.065,36.154,18.864,37.705c6.793,1.59,56.584-20.436,58.154-28.284
			C340.123-593.88,311.325-635.262,300.042-631.583z"/>
		<path display="inline" fill="#FFFFFF" d="M403.011-711.741c-10.498,0.494-88.546,59.726-88.034,69.146
			c0.52,9.423,29.36,46.629,37.729,47.951c8.363,1.301,70.221-78.341,72.307-88.814C427.099-693.954,413.483-712.28,403.011-711.741
			z"/>
		<path display="inline" fill="#FFFFFF" d="M717.946-998.186c-10.933-15.145-35.498-16.26-56.115-3.016
			c-7.87-4.009-17.023-7.233-27.767-9.215c0,0-391.394,317.515-477.854,378.833c0,0-3.302,7.003-8.776,18.407
			c98.109,68.715,86.957,120.568,86.957,120.568c-27.148-66.916-95.885-102.037-95.904-102.037
			C113.859-543.945,69.65-455.338,46.178-422.53c0,0-0.039,18.015,22.025,29.48c0,0,150.072-101.024,193.329-109.639
			c0,0,23.883-23.283,60.696-58.922c-20.121,10.308-43.196,20.062-52.826,20.659c-16.772,1.053-36.153-39.437-34.584-53.776
			c1.57-14.338,153.521-139.574,176.039-137.984c22.539,1.57,29.875,22.518,30.413,37.725c0.205,6.548-13.654,26.546-30.413,48.012
			c113.258-108.669,256.182-243.843,297.084-273.841c0,0,0.414-10.661-3.141-24.688C722.488-960.854,728.5-983.518,717.946-998.186z
			 M102.542-415.589c0,0-2.542-32.478-33.638-43.818C68.904-459.407,121.132-483.042,102.542-415.589z"/>
	</g>
	<path display="none" opacity="0.5" fill="#71C8EA" enable-background="new    " d="M1671.088-681.926l3.333,3.333
		c0,0,17-13.666,32.5-11.833c0,0,21-27.999,50-37.833c0,0,17.667-9.834,7.167-30.667s-24.327-12.938-31.167-8
		c-9.583,6.916-39.771,40.322-51.5,56.333C1681.421-710.593,1684.921-694.259,1671.088-681.926z"/>
	<g>
		<path d="M31.664,7.286c0.484-0.146,0.41-6.254,0-6.857c-0.41-0.604-30.804-0.539-31.326,0c-0.521,0.54-0.373,6.318,0,6.857
			S31.18,7.433,31.664,7.286z"/>
		<path d="M0.338,11.857c-0.521,0.539-0.373,6.317,0,6.856c0.374,0.539,30.842,0.146,31.326,0c0.484-0.146,0.41-6.253,0-6.856
			S0.86,11.318,0.338,11.857z"/>
		<path d="M0.338,23.286c-0.521,0.539-0.373,6.317,0,6.856c0.374,0.54,30.842,0.146,31.326,0s0.41-6.253,0-6.856
			C31.254,22.683,0.86,22.747,0.338,23.286z"/>
	</g>
</g>
</svg>
