<?xml version="1.0" encoding="utf-8"?>
<!-- Generator: Adobe Illustrator 16.0.4, SVG Export Plug-In . SVG Version: 6.00 Build 0)  -->
<!DOCTYPE svg PUBLIC "-//W3C//DTD SVG 1.1//EN" "http://www.w3.org/Graphics/SVG/1.1/DTD/svg11.dtd">
<svg version="1.1" fill="rgb(0, 14, 156)" xmlns="http://www.w3.org/2000/svg" xmlns:xlink="http://www.w3.org/1999/xlink" x="0px" y="0px"
	 width="14.621px" height="32px" viewBox="0 0 14.621 32" enable-background="new 0 0 14.621 32" xml:space="preserve">
<g id="Fondo_1_" display="none">
	<rect id="Fondo" x="-326.398" y="-2107.522" display="inline" fill="#FB6E92" width="999.999" height="2438.351"/>
</g>
<g id="Guias" display="none">
</g>
<g id="Icons">
	<g display="none" opacity="0.2">
		<path display="inline" fill="#FFFFFF" d="M83.611-631.002c-11.281,3.636-35.885,28.281-38.51,36.153
			c-2.621,7.851,12.064,36.154,18.865,37.705c6.793,1.59,56.584-20.436,58.154-28.284
			C123.691-593.299,94.893-634.681,83.611-631.002z"/>
		<path display="inline" fill="#FFFFFF" d="M186.58-711.16c-10.498,0.494-88.545,59.726-88.033,69.146
			c0.519,9.423,29.359,46.629,37.729,47.951c8.363,1.301,70.221-78.341,72.307-88.814C210.667-693.373,197.05-711.699,186.58-711.16
			z"/>
		<path display="inline" fill="#FFFFFF" d="M501.513-997.604c-10.932-15.145-35.498-16.26-56.113-3.016
			c-7.871-4.009-17.023-7.233-27.768-9.215c0,0-391.393,317.515-477.854,378.833c0,0-3.302,7.003-8.776,18.407
			c98.109,68.715,86.957,120.568,86.957,120.568C-9.19-558.943-77.926-594.064-77.946-594.064
			c-24.626,50.699-68.835,139.307-92.308,172.114c0,0-0.04,18.015,22.025,29.48c0,0,150.072-101.024,193.329-109.639
			c0,0,23.883-23.283,60.696-58.922C85.675-550.723,62.6-540.969,52.97-540.372c-16.771,1.053-36.153-39.437-34.583-53.776
			c1.569-14.338,153.521-139.574,176.038-137.984c22.539,1.57,29.875,22.518,30.414,37.725c0.205,6.548-13.655,26.546-30.414,48.012
			c113.258-108.669,256.182-243.843,297.084-273.841c0,0,0.414-10.661-3.141-24.688C506.056-960.272,512.07-982.937,501.513-997.604
			z M-113.89-415.008c0,0-2.542-32.478-33.638-43.818C-147.528-458.826-95.299-482.461-113.89-415.008z"/>
	</g>
	<path display="none" opacity="0.5" fill="#71C8EA" enable-background="new    " d="M1454.658-681.345l3.332,3.333
		c0,0,17-13.666,32.5-11.833c0,0,21-27.999,50-37.833c0,0,17.668-9.834,7.168-30.667s-24.328-12.938-31.168-8
		c-9.582,6.916-39.771,40.322-51.5,56.333C1464.99-710.012,1468.49-693.678,1454.658-681.345z"/>
	<path d="M12.621,1.773C9.815-0.875,5.175-0.516,2.254,2.576c-2.921,3.093-3.015,7.745-0.212,10.394
		c0.84,0.793,1.844,1.311,2.917,1.571c-0.02,2.663-0.367,14.628,0,15.223c0.367,0.594,6.494,2.329,6.783,2.232
		c0.289-0.098,0.105-1.982,0.004-2.316c-0.102-0.337-3.219-0.815-3.219-0.815v-1.956c0,0,2.104,0.699,2.441,0.603
		s0.242-1.64,0-1.978c-0.24-0.338-2.441-0.579-2.441-0.579V14.491c0,0,2.378-0.617,3.879-2.324
		C15.214,8.972,15.421,4.422,12.621,1.773z M8.837,5.976C7.97,6.895,6.592,7.001,5.761,6.214C4.928,5.428,4.957,4.047,5.824,3.129
		C6.689,2.21,8.068,2.104,8.901,2.891C9.733,3.677,9.705,5.058,8.837,5.976z"/>
</g>
</svg>
