<?xml version="1.0" encoding="utf-8"?>
<!-- Generator: Adobe Illustrator 16.0.4, SVG Export Plug-In . SVG Version: 6.00 Build 0)  -->
<!DOCTYPE svg PUBLIC "-//W3C//DTD SVG 1.1//EN" "http://www.w3.org/Graphics/SVG/1.1/DTD/svg11.dtd">
<svg version="1.1" fill="rgb(0, 14, 156)" xmlns="http://www.w3.org/2000/svg" xmlns:xlink="http://www.w3.org/1999/xlink" x="0px" y="0px"
	 width="32px" height="25.818px" viewBox="0 0 32 25.818" enable-background="new 0 0 32 25.818" xml:space="preserve">
<g id="Fondo_1_" display="none">
	<rect id="Fondo" x="-369.966" y="-2112.093" display="inline" fill="#FB6E92" width="1000" height="2438.351"/>
</g>
<g id="Guias" display="none">
</g>
<g id="Icons">
	<g display="none" opacity="0.2">
		<path display="inline" fill="#FFFFFF" d="M40.043-635.573c-11.282,3.637-35.885,28.281-38.51,36.153
			c-2.621,7.852,12.065,36.154,18.865,37.705c6.793,1.59,56.584-20.436,58.153-28.284C80.124-597.869,51.326-639.251,40.043-635.573
			z"/>
		<path display="inline" fill="#FFFFFF" d="M143.012-715.73c-10.498,0.494-88.546,59.726-88.033,69.146
			c0.519,9.423,29.359,46.629,37.729,47.951c8.363,1.301,70.221-78.341,72.307-88.814C167.1-697.943,153.484-716.27,143.012-715.73z
			"/>
		<path display="inline" fill="#FFFFFF" d="M457.947-1002.175c-10.933-15.146-35.498-16.26-56.115-3.016
			c-7.87-4.01-17.023-7.233-27.767-9.216c0,0-391.394,317.516-477.854,378.833c0,0-3.302,7.003-8.776,18.407
			c98.109,68.715,86.957,120.568,86.957,120.568c-27.149-66.916-95.885-102.037-95.905-102.037
			c-24.626,50.699-68.835,139.307-92.308,172.114c0,0-0.04,18.015,22.025,29.479c0,0,150.072-101.023,193.329-109.639
			c0,0,23.883-23.283,60.697-58.922c-20.121,10.31-43.196,20.063-52.827,20.662c-16.772,1.053-36.153-39.438-34.583-53.776
			c1.57-14.338,153.521-139.574,176.039-137.984c22.539,1.57,29.875,22.519,30.414,37.726c0.205,6.548-13.655,26.546-30.414,48.012
			c113.258-108.669,256.182-243.843,297.084-273.841c0,0,0.414-10.661-3.141-24.688
			C462.489-964.843,468.501-987.507,457.947-1002.175z M-157.458-419.578c0,0-2.542-32.478-33.638-43.817
			C-191.095-463.396-138.867-487.031-157.458-419.578z"/>
	</g>
	<path display="none" opacity="0.5" fill="#71C8EA" enable-background="new    " d="M1411.089-685.915l3.333,3.333
		c0,0,17-13.666,32.5-11.833c0,0,21-27.999,50-37.833c0,0,17.667-9.834,7.167-30.667s-24.327-12.937-31.167-8
		c-9.583,6.916-39.771,40.322-51.5,56.333C1421.422-714.582,1424.922-698.248,1411.089-685.915z"/>
	<path d="M27.624,12.871l-0.284,2.574c0,0-7.938,9.961-20.778,0L6.39,13.147C6.39,13.147,18.27,23.107,27.624,12.871
		c0,0-0.01-0.007-0.021-0.016C27.788,8.457,26.889,0,17.227,0c-6.852,0-9.448,4.254-10.37,8.298C6.84,8.3,6.824,8.302,6.807,8.305
		c0,0-13.668,2.604-2.268,11.554c1.264,0.993,12.336,9.746,23.085,4.046C27.624,23.904,37.471,19.123,27.624,12.871z"/>
</g>
</svg>
