<?xml version="1.0" encoding="utf-8"?>
<!-- Generator: Adobe Illustrator 16.0.4, SVG Export Plug-In . SVG Version: 6.00 Build 0)  -->
<!DOCTYPE svg PUBLIC "-//W3C//DTD SVG 1.1//EN" "http://www.w3.org/Graphics/SVG/1.1/DTD/svg11.dtd">
<svg version="1.1" fill="rgb(0, 14, 156)" xmlns="http://www.w3.org/2000/svg" xmlns:xlink="http://www.w3.org/1999/xlink" x="0px" y="0px"
	 width="22.965px" height="32px" viewBox="0 0 22.965 32" enable-background="new 0 0 22.965 32" xml:space="preserve">
<g id="Fondo_1_" display="none">
	<rect id="Fondo" x="-426.482" y="-2107.522" display="inline" fill="#FB6E92" width="1000" height="2438.351"/>
</g>
<g id="Guias" display="none">
</g>
<g id="Icons">
	<g display="none" opacity="0.2">
		<path display="inline" fill="#FFFFFF" d="M-16.473-631.002c-11.282,3.636-35.885,28.281-38.51,36.153
			c-2.621,7.851,12.065,36.154,18.865,37.705c6.793,1.59,56.583-20.436,58.154-28.284C23.607-593.299-5.191-634.681-16.473-631.002z
			"/>
		<path display="inline" fill="#FFFFFF" d="M86.497-711.16c-10.498,0.494-88.546,59.726-88.035,69.146
			c0.519,9.423,29.361,46.629,37.729,47.951c8.363,1.301,70.222-78.341,72.308-88.814C110.583-693.373,96.967-711.699,86.497-711.16
			z"/>
		<path display="inline" fill="#FFFFFF" d="M401.43-997.604c-10.932-15.145-35.498-16.26-56.115-3.016
			c-7.869-4.009-17.023-7.233-27.768-9.215c0,0-391.393,317.515-477.854,378.833c0,0-3.302,7.003-8.776,18.407
			c98.109,68.715,86.957,120.568,86.957,120.568c-27.149-66.916-95.885-102.037-95.905-102.037
			c-24.626,50.699-68.835,139.307-92.308,172.114c0,0-0.04,18.015,22.025,29.48c0,0,150.072-101.024,193.329-109.639
			c0,0,23.883-23.283,60.697-58.922c-20.121,10.308-43.197,20.062-52.827,20.659c-16.772,1.053-36.153-39.437-34.583-53.776
			c1.57-14.338,153.522-139.574,176.038-137.984c22.541,1.57,29.875,22.518,30.414,37.725c0.205,6.548-13.654,26.546-30.414,48.012
			c113.259-108.669,256.184-243.843,297.084-273.841c0,0,0.414-10.661-3.139-24.688C405.971-960.272,411.985-982.937,401.43-997.604
			z M-213.974-415.008c0,0-2.542-32.478-33.638-43.818C-247.612-458.826-195.383-482.461-213.974-415.008z"/>
	</g>
	<path display="none" opacity="0.5" fill="#71C8EA" enable-background="new    " d="M1354.573-681.345l3.334,3.333
		c0,0,17-13.666,32.5-11.833c0,0,21-27.999,50-37.833c0,0,17.666-9.834,7.166-30.667s-24.326-12.938-31.166-8
		c-9.584,6.916-39.771,40.322-51.5,56.333C1364.907-710.012,1368.407-693.678,1354.573-681.345z"/>
	<g>
		<ellipse transform="matrix(0.9345 0.3561 -0.3561 0.9345 2.0874 -2.6016)" cx="8.111" cy="4.37" rx="1.481" ry="1.851"/>
		<ellipse transform="matrix(0.9345 0.3559 -0.3559 0.9345 1.6654 -4.5243)" cx="13.13" cy="2.265" rx="1.855" ry="2.318"/>
		<path d="M22.738,6.667c-0.7-0.801-22.015,2.902-22.516,3.902c-0.5,1.001,0,2.603,0,2.603h0.9c0,0-1.1,17.111-0.399,17.512
			c0.701,0.401,14.109,3.502,20.884-1.5c0.179-0.133,0.285-0.635,0.34-1.391l-4.312,0.539v-1.501l4.357-0.623
			c-0.002-0.353-0.009-0.728-0.019-1.12l-4.341,0.542v-1.501l4.279-0.611c-0.021-0.412-0.043-0.836-0.067-1.266l-7.813,0.977v-1.5
			l7.706-1.102c-0.028-0.4-0.059-0.803-0.09-1.202l-4.015,0.501v-1.501l3.888-0.555c-0.032-0.38-0.063-0.753-0.099-1.12
			l-3.789,0.475v-1.501l3.646-0.521c-0.031-0.337-0.064-0.663-0.095-0.974l-7.153,0.895v-1.501l6.992-0.999
			c-0.113-1.082-0.188-1.753-0.188-1.753l1.471-0.301C22.307,10.569,23.438,7.468,22.738,6.667z"/>
	</g>
</g>
</svg>
