<?xml version="1.0" encoding="utf-8"?>
<!-- Generator: Adobe Illustrator 16.0.4, SVG Export Plug-In . SVG Version: 6.00 Build 0)  -->
<!DOCTYPE svg PUBLIC "-//W3C//DTD SVG 1.1//EN" "http://www.w3.org/Graphics/SVG/1.1/DTD/svg11.dtd">
<svg version="1.1" fill="rgb(0, 14, 156)" xmlns="http://www.w3.org/2000/svg" xmlns:xlink="http://www.w3.org/1999/xlink" x="0px" y="0px"
	 width="32px" height="30.207px" viewBox="0 0 32 30.207" enable-background="new 0 0 32 30.207" xml:space="preserve">
<g id="Fondo_1_" display="none">
	<rect id="Fondo" x="-473.072" y="-2108.419" display="inline" fill="#FB6E92" width="1000" height="2438.351"/>
</g>
<g id="Guias" display="none">
</g>
<g id="Icons">
	<g display="none" opacity="0.2">
		<path display="inline" fill="#FFFFFF" d="M-63.062-631.898c-11.282,3.636-35.885,28.281-38.51,36.153
			c-2.621,7.851,12.065,36.154,18.865,37.705c6.793,1.59,56.584-20.436,58.154-28.284C-22.982-594.195-51.78-635.577-63.062-631.898
			z"/>
		<path display="inline" fill="#FFFFFF" d="M39.906-712.057c-10.498,0.494-88.546,59.726-88.034,69.146
			c0.519,9.423,29.36,46.629,37.729,47.951c8.363,1.301,70.221-78.341,72.307-88.814C63.994-694.27,50.378-712.596,39.906-712.057z"
			/>
		<path display="inline" fill="#FFFFFF" d="M354.841-998.501c-10.932-15.145-35.498-16.26-56.114-3.016
			c-7.871-4.009-17.023-7.233-27.768-9.215c0,0-391.393,317.515-477.854,378.833c0,0-3.302,7.003-8.776,18.407
			c98.109,68.715,86.957,120.568,86.957,120.568c-27.149-66.916-95.885-102.037-95.905-102.037
			c-24.626,50.699-68.835,139.307-92.308,172.114c0,0-0.04,18.015,22.025,29.48c0,0,150.072-101.024,193.329-109.639
			c0,0,23.883-23.283,60.697-58.922c-20.121,10.308-43.197,20.062-52.827,20.659c-16.772,1.053-36.153-39.437-34.583-53.776
			c1.57-14.338,153.521-139.574,176.038-137.984c22.54,1.57,29.875,22.519,30.414,37.726c0.205,6.548-13.655,26.546-30.414,48.012
			c113.26-108.668,256.184-243.842,297.086-273.84c0,0,0.414-10.661-3.14-24.688C359.383-961.169,365.396-983.833,354.841-998.501z
			 M-260.563-415.904c0,0-2.542-32.478-33.638-43.818C-294.201-459.723-241.973-483.357-260.563-415.904z"/>
	</g>
	<path display="none" opacity="0.5" fill="#71C8EA" enable-background="new    " d="M1307.983-682.241l3.333,3.333
		c0,0,17-13.666,32.5-11.833c0,0,21-27.999,50-37.833c0,0,17.667-9.834,7.167-30.667s-24.327-12.937-31.167-8
		c-9.583,6.916-39.771,40.322-51.5,56.333C1318.316-710.908,1321.816-694.574,1307.983-682.241z"/>
	<path d="M31.635,8.089C31.368,6.62,22.025,0.614,20.557,0.08C19.089-0.454,7.208,1.815,5.606,2.883C4.004,3.951,0,13.695,0,13.695
		s1.074,9.196,1.608,10.665c0.534,1.468,6.4,5.22,8.137,5.754c1.735,0.533,15.351-1.336,16.817-2.271
		c1.469-0.935,4.404-7.475,5.071-8.543C32.303,18.232,31.902,9.558,31.635,8.089z M14.812,5.183
		c3.608-0.837,7.008,0.536,7.597,3.067c0.589,2.532-1.86,5.263-5.468,6.1c-3.607,0.838-7.008-0.536-7.598-3.067
		C8.757,8.751,11.205,6.02,14.812,5.183z M25.764,19.034c-1.337,1.067-15.352,3.202-16.507,2.536
		c-1.154-0.668-6.586-6.975-6.586-6.975s5.604,3.776,6.586,4.438c0.982,0.66,13.836-1.201,15.037-2.27s5.339-6.999,5.339-6.999
		S27.098,17.967,25.764,19.034z"/>
</g>
</svg>
