<?xml version="1.0" encoding="utf-8"?>
<!-- Generator: Adobe Illustrator 16.0.4, SVG Export Plug-In . SVG Version: 6.00 Build 0)  -->
<!DOCTYPE svg PUBLIC "-//W3C//DTD SVG 1.1//EN" "http://www.w3.org/Graphics/SVG/1.1/DTD/svg11.dtd">
<svg version="1.1" fill="rgb(0, 14, 156)" xmlns="http://www.w3.org/2000/svg" xmlns:xlink="http://www.w3.org/1999/xlink" x="0px" y="0px"
	 width="19.82px" height="32px" viewBox="0 0 19.82 32" enable-background="new 0 0 19.82 32" xml:space="preserve">
<g id="Fondo_1_" display="none">
	<rect id="Fondo" x="-531.347" y="-2107.523" display="inline" fill="#FB6E92" width="1000" height="2438.351"/>
</g>
<g id="Guias" display="none">
</g>
<g id="Icons">
	<g display="none" opacity="0.2">
		<path display="inline" fill="#FFFFFF" d="M-121.338-631.003c-11.282,3.636-35.885,28.281-38.51,36.153
			c-2.621,7.851,12.064,36.154,18.865,37.705c6.793,1.59,56.584-20.436,58.153-28.284
			C-81.258-593.3-110.056-634.682-121.338-631.003z"/>
		<path display="inline" fill="#FFFFFF" d="M-18.369-711.161c-10.498,0.494-88.546,59.726-88.033,69.146
			c0.519,9.423,29.359,46.629,37.729,47.951c8.363,1.301,70.221-78.341,72.307-88.814C5.719-693.374-7.897-711.7-18.369-711.161z"/>
		<path display="inline" fill="#FFFFFF" d="M296.565-997.605c-10.933-15.145-35.498-16.26-56.115-3.016
			c-7.87-4.009-17.023-7.233-27.767-9.215c0,0-391.394,317.515-477.854,378.833c0,0-3.302,7.003-8.776,18.407
			c98.109,68.715,86.957,120.568,86.957,120.568c-27.148-66.916-95.885-102.037-95.904-102.037
			c-24.626,50.699-68.835,139.307-92.309,172.114c0,0-0.04,18.015,22.025,29.48c0,0,150.072-101.024,193.329-109.639
			c0,0,23.883-23.283,60.697-58.922c-20.121,10.308-43.197,20.062-52.827,20.659c-16.772,1.053-36.153-39.437-34.583-53.776
			c1.569-14.338,153.521-139.574,176.038-137.984c22.54,1.57,29.875,22.518,30.414,37.725c0.204,6.548-13.655,26.546-30.414,48.012
			c113.26-108.668,256.184-243.842,297.086-273.84c0,0,0.414-10.661-3.141-24.688C301.107-960.273,307.12-982.938,296.565-997.605z
			 M-318.839-415.009c0,0-2.542-32.478-33.638-43.818C-352.477-458.827-300.248-482.462-318.839-415.009z"/>
	</g>
	<path display="none" opacity="0.5" fill="#71C8EA" enable-background="new    " d="M1249.708-681.346l3.333,3.333
		c0,0,17-13.666,32.5-11.833c0,0,21-27.999,50-37.833c0,0,17.667-9.834,7.167-30.667s-24.327-12.938-31.167-8
		c-9.583,6.916-39.771,40.322-51.5,56.333C1260.041-710.013,1263.541-693.679,1249.708-681.346z"/>
	<g>
		<path d="M19.809,5.742c-0.074-0.92-5.452-5.191-6.322-5.61s-8.319,0.244-9.37,0.802C3.065,1.492,0,7.24,0,7.24
			s0.094,5.724,0.332,6.66s3.616,3.605,4.651,4.041c0.082,0.035,0.215,0.062,0.382,0.09c-0.008,0.271-0.019,0.666-0.03,1.15
			c5.659,4.88,8.621-0.624,8.992-1.36V17.82c0.562-0.07,0.972-0.15,1.144-0.236c0.961-0.484,3.171-4.328,3.646-4.943
			C19.594,12.024,19.882,6.662,19.809,5.742z M15.521,12.113c-0.888,0.574-9.643,1.023-10.312,0.543
			c-0.668-0.482-3.621-4.697-3.621-4.697s3.217,2.669,3.777,3.137c0.564,0.467,8.587,0.114,9.393-0.469
			c0.805-0.583,3.716-3.977,3.716-3.977S16.407,11.539,15.521,12.113z"/>
		<path d="M5.224,25.613c-0.003,0.469-0.004,0.924-0.003,1.352c5.096,4.488,8.026,0.729,8.88-0.686
			c0.016-0.445,0.03-0.934,0.048-1.449C11.01,29.695,6.734,26.863,5.224,25.613z"/>
		<path d="M5.233,28.144c0.02,1.023,0.062,1.736,0.144,1.857c1.734,2.601,7.488,3.152,8.592-1.342
			c0.026-0.104,0.055-0.529,0.083-1.162C10.931,32.149,6.737,29.384,5.233,28.144z"/>
		<path d="M5.252,23.113c-0.007,0.445-0.013,0.895-0.019,1.342c5.27,4.631,8.222,0.437,8.95-0.84
			c0.013-0.47,0.025-0.947,0.038-1.425C11.098,27.187,6.8,24.387,5.252,23.113z"/>
		<path d="M5.308,20.321c-0.013,0.509-0.023,1.063-0.035,1.646c5.433,4.74,8.393,0.089,8.98-1c0.016-0.604,0.028-1.188,0.041-1.731
			C11.201,24.332,6.912,21.623,5.308,20.321z"/>
	</g>
</g>
</svg>
