<?xml version="1.0" encoding="utf-8"?>
<!-- Generator: Adobe Illustrator 16.0.4, SVG Export Plug-In . SVG Version: 6.00 Build 0)  -->
<!DOCTYPE svg PUBLIC "-//W3C//DTD SVG 1.1//EN" "http://www.w3.org/Graphics/SVG/1.1/DTD/svg11.dtd">
<svg version="1.1" fill="rgb(0, 14, 156)" xmlns="http://www.w3.org/2000/svg" xmlns:xlink="http://www.w3.org/1999/xlink" x="0px" y="0px"
	 width="14.355px" height="32px" viewBox="0 0 14.355 32" enable-background="new 0 0 14.355 32" xml:space="preserve">
<g id="Fondo_1_" display="none">
	<rect id="Fondo" x="-587.461" y="-2107.522" display="inline" fill="#FB6E92" width="1000" height="2438.351"/>
</g>
<g id="Guias" display="none">
</g>
<g id="Icons">
	<g display="none" opacity="0.2">
		<path display="inline" fill="#FFFFFF" d="M-177.452-631.002c-11.281,3.636-35.885,28.281-38.51,36.153
			c-2.621,7.851,12.065,36.154,18.865,37.705c6.793,1.59,56.584-20.436,58.154-28.284
			C-137.372-593.299-166.17-634.681-177.452-631.002z"/>
		<path display="inline" fill="#FFFFFF" d="M-74.483-711.16c-10.498,0.494-88.546,59.726-88.034,69.146
			c0.519,9.423,29.359,46.629,37.729,47.951c8.363,1.301,70.222-78.341,72.308-88.814C-50.396-693.373-64.012-711.699-74.483-711.16
			z"/>
		<path display="inline" fill="#FFFFFF" d="M240.451-997.604c-10.932-15.145-35.498-16.26-56.115-3.016
			c-7.87-4.009-17.022-7.233-27.767-9.215c0,0-391.394,317.515-477.854,378.833c0,0-3.302,7.003-8.775,18.407
			c98.108,68.715,86.957,120.568,86.957,120.568c-27.149-66.916-95.886-102.037-95.905-102.037
			c-24.626,50.699-68.835,139.307-92.308,172.114c0,0-0.04,18.015,22.024,29.48c0,0,150.072-101.024,193.329-109.639
			c0,0,23.883-23.283,60.697-58.922c-20.121,10.308-43.197,20.062-52.827,20.659c-16.772,1.053-36.153-39.437-34.583-53.776
			c1.57-14.338,153.521-139.574,176.038-137.984c22.54,1.57,29.875,22.518,30.414,37.725c0.205,6.548-13.655,26.546-30.414,48.012
			c113.26-108.668,256.184-243.842,297.086-273.84c0,0,0.414-10.661-3.14-24.688C244.993-960.272,251.006-982.937,240.451-997.604z
			 M-374.953-415.008c0,0-2.542-32.478-33.638-43.818C-408.591-458.826-356.362-482.461-374.953-415.008z"/>
	</g>
	<path display="none" opacity="0.5" fill="#71C8EA" enable-background="new    " d="M1193.594-681.345l3.333,3.333
		c0,0,17-13.666,32.5-11.833c0,0,21-27.999,50-37.833c0,0,17.667-9.834,7.167-30.667s-24.327-12.938-31.167-8
		c-9.583,6.916-39.771,40.322-51.5,56.333C1203.927-710.012,1207.427-693.678,1193.594-681.345z"/>
	<path d="M0.352,29.573c-0.505-0.339-0.432-7.535,0-7.88c0.431-0.346,3.17-3.08,3.17-3.08v-0.996c0,0-3.013-2.061-3.17-2.627
		c-0.122-0.437-0.125-5.174,0-5.615c0.124-0.442,4.257-4.981,4.257-4.981S3.566,3.94,3.521,3.668c-0.061-0.356-0.183-2.026,0-2.354
		C3.703,0.986,5.537-0.001,8.22,0c1.959,0.001,2.909,1.325,3.001,1.767c0.091,0.442-0.071,1.544-0.206,2.074
		c-0.077,0.303-1.334,0.733-1.334,0.733s4.37,4.291,4.528,4.801c0.158,0.509,0.182,4.608,0,5.072
		c-0.182,0.464-3.441,2.717-3.441,2.717l0.033,1.178l3.408,3.442c0,0,0.466,6.221-0.271,7.063
		C12.692,30.273,8.051,34.736,0.352,29.573z"/>
</g>
</svg>
