<?xml version="1.0" encoding="utf-8"?>
<!-- Generator: Adobe Illustrator 16.0.4, SVG Export Plug-In . SVG Version: 6.00 Build 0)  -->
<!DOCTYPE svg PUBLIC "-//W3C//DTD SVG 1.1//EN" "http://www.w3.org/Graphics/SVG/1.1/DTD/svg11.dtd">
<svg version="1.1" fill="rgb(0, 14, 156)" xmlns="http://www.w3.org/2000/svg" xmlns:xlink="http://www.w3.org/1999/xlink" x="0px" y="0px"
	 width="15.992px" height="32px" viewBox="0 0 15.992 32" enable-background="new 0 0 15.992 32" xml:space="preserve">
<g id="Fondo_1_" display="none">
	<rect id="Fondo" x="-637.484" y="-2107.522" display="inline" fill="#FB6E92" width="999.999" height="2438.351"/>
</g>
<g id="Guias" display="none">
</g>
<g id="Icons">
	<g display="none" opacity="0.2">
		<path display="inline" fill="#FFFFFF" d="M-227.475-631.002c-11.282,3.636-35.885,28.281-38.51,36.153
			c-2.621,7.851,12.065,36.154,18.865,37.705c6.793,1.59,56.584-20.436,58.154-28.284
			C-187.395-593.299-216.192-634.681-227.475-631.002z"/>
		<path display="inline" fill="#FFFFFF" d="M-124.506-711.16c-10.498,0.494-88.546,59.726-88.034,69.146
			c0.519,9.423,29.36,46.629,37.729,47.951c8.363,1.301,70.221-78.341,72.307-88.814
			C-100.418-693.373-114.034-711.699-124.506-711.16z"/>
		<path display="inline" fill="#FFFFFF" d="M190.429-997.604c-10.932-15.145-35.498-16.26-56.115-3.016
			c-7.87-4.009-17.023-7.233-27.768-9.215c0,0-391.393,317.515-477.854,378.833c0,0-3.302,7.003-8.776,18.407
			c98.109,68.715,86.957,120.568,86.957,120.568c-27.149-66.916-95.885-102.037-95.905-102.037
			c-24.626,50.699-68.835,139.307-92.308,172.114c0,0-0.04,18.015,22.025,29.48c0,0,150.072-101.024,193.329-109.639
			c0,0,23.883-23.283,60.697-58.922c-20.121,10.308-43.197,20.062-52.827,20.659c-16.771,1.053-36.153-39.437-34.583-53.776
			c1.57-14.338,153.521-139.574,176.038-137.984c22.54,1.57,29.875,22.518,30.414,37.725c0.205,6.548-13.655,26.546-30.414,48.012
			C-3.4-755.063,139.523-890.237,180.425-920.235c0,0,0.414-10.661-3.139-24.688C194.971-960.272,200.983-982.937,190.429-997.604z
			 M-424.976-415.008c0,0-2.542-32.478-33.638-43.818C-458.613-458.826-406.385-482.461-424.976-415.008z"/>
	</g>
	<path display="none" opacity="0.5" fill="#71C8EA" enable-background="new    " d="M1143.572-681.345l3.332,3.333
		c0,0,17-13.666,32.5-11.833c0,0,21-27.999,50-37.833c0,0,17.668-9.834,7.168-30.667s-24.328-12.938-31.168-8
		c-9.582,6.916-39.771,40.322-51.5,56.333C1153.904-710.012,1157.404-693.678,1143.572-681.345z"/>
	<path d="M15.476,24.479c-2.124-1.945-9.557,1.328-10.618-0.088c-1.062-1.416,3.519-2.498,4.479-4.955
		c0.483-1.238-0.289-2.615-0.604-3.797c1.731-0.229,3.235-0.529,3.646-0.805c0.791-0.527,1.188-4.491,1.342-6.479l0.96-0.157
		c0,0,0.743-2.933,0-3.097c-0.742-0.163-1.644-0.187-2.625-0.114c0.054-1.361,0.075-3.57-0.315-4.076
		c-0.576-0.744-1.345-1.234-2-0.653c-0.633,0.56-0.336,4.796-0.312,5.104c-1.394,0.276-2.824,0.667-4.136,1.09
		c0.065-1.066,0.213-4.296-0.334-4.78c-0.655-0.58-1.424-0.09-1.999,0.654C2.435,3.002,2.648,6.722,2.692,7.39
		C1.167,8.007,0.135,8.565,0.079,8.816c-0.177,0.796,0,1.77,0,1.77l1.413-0.231c0.005,1.473,0.085,4.966,0.711,5.452
		c0.352,0.274,2.179,0.253,4.196,0.084c0.04,0.968,0.446,2.366-0.151,3.352C5.689,20.164-0.03,21.3,1.492,25.63
		c1.12,3.187,9.441,0.089,10.591,1.149c1.151,1.062-1.74,5.221-1.74,5.221h2.123C12.466,32,17.6,26.425,15.476,24.479z"/>
</g>
</svg>
