<?xml version="1.0" encoding="utf-8"?>
<!-- Generator: Adobe Illustrator 16.0.4, SVG Export Plug-In . SVG Version: 6.00 Build 0)  -->
<!DOCTYPE svg PUBLIC "-//W3C//DTD SVG 1.1//EN" "http://www.w3.org/Graphics/SVG/1.1/DTD/svg11.dtd">
<svg version="1.1" fill="rgb(0, 14, 156)" xmlns="http://www.w3.org/2000/svg" xmlns:xlink="http://www.w3.org/1999/xlink" x="0px" y="0px"
	 width="32px" height="26.825px" viewBox="0 0 32 26.825" enable-background="new 0 0 32 26.825" xml:space="preserve">
<g id="Fondo_1_" display="none">
	<rect id="Fondo" x="-681.957" y="-2110.109" display="inline" fill="#FB6E92" width="1000" height="2438.352"/>
</g>
<g id="Guias" display="none">
</g>
<g id="Icons">
	<g display="none" opacity="0.2">
		<path display="inline" fill="#FFFFFF" d="M-271.947-633.589c-11.282,3.636-35.885,28.281-38.51,36.153
			c-2.621,7.851,12.065,36.154,18.865,37.705c6.793,1.59,56.584-20.436,58.154-28.284
			C-231.867-595.886-260.665-637.268-271.947-633.589z"/>
		<path display="inline" fill="#FFFFFF" d="M-168.979-713.747c-10.498,0.494-88.546,59.726-88.034,69.146
			c0.519,9.423,29.36,46.629,37.729,47.951c8.363,1.301,70.221-78.341,72.307-88.814
			C-144.891-695.96-158.507-714.286-168.979-713.747z"/>
		<path display="inline" fill="#FFFFFF" d="M145.956-1000.191c-10.933-15.145-35.498-16.26-56.115-3.016
			c-7.87-4.009-17.022-7.233-27.767-9.215c0,0-391.393,317.515-477.854,378.833c0,0-3.302,7.003-8.776,18.407
			c98.109,68.715,86.957,120.568,86.957,120.568c-27.149-66.916-95.885-102.037-95.905-102.037
			c-24.626,50.699-68.835,139.307-92.308,172.114c0,0-0.04,18.015,22.025,29.48c0,0,150.072-101.024,193.329-109.639
			c0,0,23.883-23.283,60.697-58.922c-20.121,10.308-43.197,20.062-52.827,20.659c-16.772,1.053-36.153-39.437-34.583-53.776
			c1.57-14.338,153.521-139.574,176.038-137.984c22.54,1.57,29.875,22.518,30.414,37.725c0.205,6.548-13.655,26.546-30.414,48.012
			c113.26-108.668,256.184-243.842,297.086-273.84c0,0,0.414-10.661-3.141-24.688C150.498-962.859,156.512-985.523,145.956-1000.191
			z M-469.448-417.595c0,0-2.542-32.479-33.638-43.818C-503.086-461.413-450.857-485.048-469.448-417.595z"/>
	</g>
	<path display="none" opacity="0.5" fill="#71C8EA" enable-background="new    " d="M1099.099-683.932l3.333,3.333
		c0,0,17-13.666,32.5-11.833c0,0,21-27.999,50-37.833c0,0,17.667-9.834,7.167-30.667s-24.327-12.937-31.167-8
		c-9.583,6.916-39.771,40.322-51.5,56.333C1109.432-712.599,1112.932-696.265,1099.099-683.932z"/>
	<g>
		<path d="M6.777,0.072c-0.1,0.058-0.1,0.613-0.027,1.515c5.466,0.017,23.329,0.94,23.624,1.554
			c0.294,0.609-1.147,15.67-1.97,20.398c0.691-0.049,1.137-0.111,1.229-0.188c0.635-0.529,2.672-21.084,2.328-21.798
			C31.617,0.839,7.412-0.298,6.777,0.072z"/>
		<path d="M28.787,4.729C28.443,4.014,4.238,2.876,3.604,3.246C3.395,3.368,3.62,5.694,4.055,8.809
			C4.043,8.806,4.031,8.805,4.02,8.802c-1.728-0.36-2.882-1.837-2.577-3.298C1.539,5.042,1.77,4.639,2.094,4.312L1.174,3.35
			C0.62,3.843,0.224,4.479,0.07,5.217c-0.291,1.395,0.344,2.795,1.527,3.734c-0.442,0.46-0.76,1.021-0.893,1.662
			c-0.265,1.268,0.236,2.54,1.219,3.468c-0.28,0.381-0.484,0.815-0.584,1.295c-0.282,1.351,0.305,2.707,1.418,3.646
			c-0.217,0.339-0.381,0.71-0.466,1.116c-0.438,2.104,1.222,4.229,3.707,4.746c0.376,0.078,0.747,0.111,1.109,0.111
			c0.114,0.344,0.217,0.58,0.304,0.686c1.059,1.27,18.412,1.375,19.047,0.846C27.094,25.997,29.131,5.442,28.787,4.729z
			 M9.183,19.183c-0.918-0.298-1.459-1.163-1.21-1.937c0.25-0.771,1.196-1.158,2.113-0.861c0.918,0.298,1.459,1.164,1.21,1.937
			C11.046,19.094,10.1,19.479,9.183,19.183z M8.548,14.104c-0.918-0.297-1.459-1.163-1.21-1.936c0.25-0.772,1.196-1.158,2.113-0.861
			c0.918,0.297,1.459,1.163,1.21,1.936C10.411,14.015,9.465,14.4,8.548,14.104z M6.703,7.089c0.25-0.772,1.196-1.158,2.113-0.861
			c0.918,0.297,1.459,1.163,1.209,1.936C9.776,8.936,8.83,9.321,7.912,9.024C6.995,8.728,6.454,7.861,6.703,7.089z M2.077,10.9
			c0.1-0.474,0.341-0.886,0.679-1.217L2.712,9.619C3.046,9.766,3.4,9.885,3.777,9.963C3.93,9.995,4.08,10.018,4.23,10.036
			c0.196,1.332,0.421,2.765,0.661,4.202c-0.079-0.011-0.157-0.022-0.237-0.04C2.927,13.838,1.772,12.361,2.077,10.9z M5.289,18.959
			c-1.728-0.359-2.881-1.836-2.576-3.297c0.06-0.289,0.177-0.552,0.332-0.789c0.417,0.217,0.875,0.383,1.367,0.485
			c0.23,0.048,0.459,0.08,0.687,0.099c0.211,1.224,0.43,2.433,0.646,3.565C5.594,19.01,5.441,18.993,5.289,18.959z M6.241,23.722
			c-1.728-0.36-2.881-1.839-2.576-3.298c0.05-0.242,0.139-0.467,0.257-0.674c0.352,0.158,0.727,0.287,1.125,0.371
			c0.314,0.065,0.626,0.1,0.934,0.108c0.277,1.39,0.546,2.619,0.786,3.562C6.594,23.782,6.418,23.758,6.241,23.722z M10.135,24.262
			c-0.918-0.297-1.459-1.163-1.209-1.936c0.249-0.772,1.195-1.158,2.113-0.861c0.917,0.297,1.459,1.162,1.209,1.936
			S11.052,24.559,10.135,24.262z"/>
	</g>
</g>
</svg>
