<?xml version="1.0" encoding="utf-8"?>
<!-- Generator: Adobe Illustrator 16.0.4, SVG Export Plug-In . SVG Version: 6.00 Build 0)  -->
<!DOCTYPE svg PUBLIC "-//W3C//DTD SVG 1.1//EN" "http://www.w3.org/Graphics/SVG/1.1/DTD/svg11.dtd">
<svg version="1.1" fill="rgb(0, 14, 156)" xmlns="http://www.w3.org/2000/svg" xmlns:xlink="http://www.w3.org/1999/xlink" x="0px" y="0px"
	 width="32px" height="24.471px" viewBox="0 0 32 24.471" enable-background="new 0 0 32 24.471" xml:space="preserve">
<g id="Fondo_1_" display="none">
	<rect id="Fondo" x="-733.955" y="-2112.874" display="inline" fill="#FB6E92" width="1000" height="2438.352"/>
</g>
<g id="Guias" display="none">
</g>
<g id="Icons">
	<g display="none" opacity="0.2">
		<path display="inline" fill="#FFFFFF" d="M-323.945-636.354c-11.282,3.636-35.885,28.28-38.51,36.152
			c-2.621,7.852,12.065,36.154,18.865,37.705c6.793,1.591,56.584-20.436,58.154-28.283
			C-283.865-598.65-312.663-640.032-323.945-636.354z"/>
		<path display="inline" fill="#FFFFFF" d="M-220.977-716.512c-10.498,0.494-88.546,59.726-88.034,69.146
			c0.519,9.423,29.36,46.63,37.729,47.951c8.363,1.301,70.221-78.341,72.307-88.813
			C-196.889-698.725-210.505-717.051-220.977-716.512z"/>
		<path display="inline" fill="#FFFFFF" d="M93.958-1002.956c-10.933-15.145-35.498-16.26-56.115-3.016
			c-7.87-4.009-17.023-7.233-27.767-9.215c0,0-391.393,317.515-477.854,378.833c0,0-3.302,7.003-8.776,18.406
			c98.109,68.716,86.957,120.568,86.957,120.568c-27.149-66.916-95.885-102.037-95.905-102.037
			c-24.626,50.699-68.835,139.308-92.308,172.114c0,0-0.04,18.015,22.025,29.479c0,0,150.072-101.023,193.329-109.639
			c0,0,23.883-23.283,60.697-58.922c-20.121,10.308-43.197,20.062-52.827,20.659c-16.772,1.053-36.153-39.438-34.583-53.776
			c1.57-14.338,153.521-139.574,176.038-137.983c22.54,1.569,29.875,22.518,30.414,37.725c0.205,6.548-13.655,26.546-30.414,48.012
			c113.26-108.668,256.184-243.842,297.085-273.84c0,0,0.414-10.661-3.14-24.688C98.5-965.624,104.513-988.288,93.958-1002.956z
			 M-521.446-420.359c0,0-2.542-32.479-33.638-43.818C-555.084-464.178-502.855-487.812-521.446-420.359z"/>
	</g>
	<path display="none" opacity="0.5" fill="#71C8EA" enable-background="new    " d="M1047.101-686.697l3.332,3.333
		c0,0,17-13.666,32.5-11.833c0,0,21-27.999,50-37.833c0,0,17.668-9.834,7.168-30.667s-24.328-12.937-31.168-8
		c-9.582,6.916-39.77,40.322-51.5,56.333C1057.433-715.364,1060.933-699.03,1047.101-686.697z"/>
	<g>
		<path d="M31.464,1.175c-0.623-0.983-2.153-1.641-3.795-0.766c-0.676,0.36-2.049,1.437-3.264,2.431
			C23.3,2.558,22.287,2.5,21.654,2.706C19.548,3.391,7.835,11.523,2.567,15.222l11.004,7.538
			c4.776-3.731,15.712-12.383,16.177-13.712c0.387-1.104,0.207-2.101-0.311-2.964c0.812-0.641,1.661-1.338,2.025-1.737
			C32.263,3.472,32.087,2.159,31.464,1.175z"/>
		<path d="M0,17.032l11.373,7.438c0,0,0.424-0.327,1.141-0.886L1.35,16.079C0.501,16.677,0,17.032,0,17.032z"/>
	</g>
</g>
</svg>
