<?xml version="1.0" encoding="utf-8"?>
<!-- Generator: Adobe Illustrator 16.0.4, SVG Export Plug-In . SVG Version: 6.00 Build 0)  -->
<!DOCTYPE svg PUBLIC "-//W3C//DTD SVG 1.1//EN" "http://www.w3.org/Graphics/SVG/1.1/DTD/svg11.dtd">
<svg version="1.1" fill="rgb(0, 14, 156)" xmlns="http://www.w3.org/2000/svg" xmlns:xlink="http://www.w3.org/1999/xlink" x="0px" y="0px"
	 width="16.555px" height="32px" viewBox="0 0 16.555 32" enable-background="new 0 0 16.555 32" xml:space="preserve">
<g id="Fondo_1_" display="none">
	<rect id="Fondo" x="-793.228" y="-2107.521" display="inline" fill="#FB6E92" width="1000" height="2438.352"/>
</g>
<g id="Guias" display="none">
</g>
<g id="Icons">
	<g display="none" opacity="0.2">
		<path display="inline" fill="#FFFFFF" d="M-383.219-631.001c-11.282,3.636-35.885,28.281-38.51,36.153
			c-2.621,7.851,12.064,36.154,18.864,37.705c6.793,1.59,56.584-20.436,58.154-28.284
			C-343.139-593.298-371.937-634.68-383.219-631.001z"/>
		<path display="inline" fill="#FFFFFF" d="M-280.25-711.159c-10.498,0.494-88.546,59.726-88.034,69.146
			c0.52,9.423,29.36,46.629,37.729,47.951c8.363,1.301,70.221-78.341,72.307-88.814
			C-256.162-693.372-269.778-711.698-280.25-711.159z"/>
		<path display="inline" fill="#FFFFFF" d="M34.685-997.604c-10.933-15.145-35.498-16.26-56.115-3.016
			c-7.87-4.009-17.023-7.233-27.767-9.215c0,0-391.394,317.515-477.854,378.833c0,0-3.302,7.003-8.776,18.407
			c98.109,68.715,86.957,120.568,86.957,120.568c-27.148-66.916-95.885-102.037-95.904-102.037
			c-24.626,50.699-68.835,139.307-92.309,172.114c0,0-0.04,18.015,22.025,29.48c0,0,150.072-101.024,193.329-109.639
			c0,0,23.883-23.283,60.696-58.922c-20.12,10.308-43.196,20.062-52.826,20.659c-16.772,1.053-36.153-39.437-34.583-53.776
			c1.569-14.338,153.521-139.574,176.037-137.984c22.54,1.57,29.875,22.518,30.414,37.725c0.205,6.548-13.654,26.546-30.414,48.012
			c113.26-108.667,256.184-243.841,297.087-273.839c0,0,0.414-10.661-3.141-24.688C39.227-960.271,45.239-982.936,34.685-997.604z
			 M-580.72-415.007c0,0-2.542-32.478-33.638-43.818C-614.357-458.825-562.129-482.46-580.72-415.007z"/>
	</g>
	<path display="none" opacity="0.5" fill="#71C8EA" enable-background="new    " d="M987.827-681.344l3.333,3.333
		c0,0,17-13.666,32.5-11.833c0,0,21-27.999,50-37.833c0,0,17.667-9.834,7.167-30.667s-24.327-12.938-31.167-8
		c-9.583,6.916-39.771,40.322-51.5,56.333C998.16-710.011,1001.66-693.677,987.827-681.344z"/>
	<g>
		<path d="M14.016,13.135c0.558-0.782,0.978-6.079,1.106-7.901C9.424,4.406,3.76,5.557,1.605,5.84
			c0.188,2.291,0.609,7.069,0.917,7.836c0.404,1.014,4.124,2.163,4.124,2.839c0,0.677-3.407,3.007-4.017,3.75
			c-0.607,0.743-1.354,5.765-0.582,6.594c1.264,1.358,7.077,2.976,12.372-0.135c0.512-0.3-0.247-6.31-1.148-7.099
			c-0.82-0.719-3.921-2.705-3.921-3.449C9.35,15.434,13.339,14.081,14.016,13.135z M12.789,23.522
			c0.419,0.527,0.512,1.419,0.349,2.073c-0.177,0.704-6.399,2.401-9.78,0.315c-0.438-0.271-0.145-1.339,0.359-2.119
			C7.322,18.204,10.433,20.547,12.789,23.522z M7.684,14.868c-0.946,0-3.651-1.667-3.696-2.389
			c-0.044-0.721,7.798-2.028,8.519-0.631C12.777,12.375,8.63,14.868,7.684,14.868z"/>
		<path d="M0.967,5.089c1.445-0.025,8.385-1.758,15.1-0.514c0.812,0.15,0.523-3.778-0.226-4.016
			C10.297-1.198,2.125,1.695,0.967,2.317C0.302,2.675,0.545,5.097,0.967,5.089z"/>
		<path d="M15.417,26.441c0.014,0.601-0.042,1.021-0.182,1.095c-5.902,3.108-12.383,1.491-13.79,0.135
			c-0.2-0.192-0.307-0.613-0.348-1.152c-0.216,0.078-0.421,0.16-0.606,0.251C0.014,27-0.171,28.665,0.189,29.518
			c0.955,2.254,11.454,4.102,15.875,0.271c0.444-0.387,0.365-2.691,0-3.021C15.938,26.654,15.714,26.545,15.417,26.441z"/>
	</g>
</g>
</svg>
