<?xml version="1.0" encoding="utf-8"?>
<!-- Generator: Adobe Illustrator 16.0.4, SVG Export Plug-In . SVG Version: 6.00 Build 0)  -->
<!DOCTYPE svg PUBLIC "-//W3C//DTD SVG 1.1//EN" "http://www.w3.org/Graphics/SVG/1.1/DTD/svg11.dtd">
<svg version="1.1" fill="rgb(0, 14, 156)" xmlns="http://www.w3.org/2000/svg" xmlns:xlink="http://www.w3.org/1999/xlink" x="0px" y="0px"
	 width="22.463px" height="32px" viewBox="0 0 22.463 32" enable-background="new 0 0 22.463 32" xml:space="preserve">
<g id="Fondo_1_" display="none">
	<rect id="Fondo" x="-842.717" y="-2107.522" display="inline" fill="#FB6E92" width="1000" height="2438.351"/>
</g>
<g id="Guias" display="none">
</g>
<g id="Icons">
	<g display="none" opacity="0.2">
		<path display="inline" fill="#FFFFFF" d="M-432.708-631.002c-11.282,3.636-35.885,28.281-38.51,36.153
			c-2.621,7.851,12.065,36.154,18.865,37.705c6.793,1.59,56.584-20.436,58.154-28.284
			C-392.628-593.299-421.426-634.681-432.708-631.002z"/>
		<path display="inline" fill="#FFFFFF" d="M-329.739-711.16c-10.498,0.494-88.546,59.726-88.034,69.146
			c0.519,9.423,29.36,46.629,37.729,47.951c8.363,1.301,70.221-78.341,72.307-88.814
			C-305.651-693.373-319.268-711.699-329.739-711.16z"/>
		<path display="inline" fill="#FFFFFF" d="M-14.805-997.604c-10.932-15.145-35.498-16.26-56.115-3.016
			c-7.87-4.009-17.023-7.233-27.767-9.215c0,0-391.393,317.515-477.854,378.833c0,0-3.302,7.003-8.776,18.407
			c98.109,68.715,86.957,120.568,86.957,120.568c-27.149-66.916-95.885-102.037-95.905-102.037
			c-24.626,50.699-68.835,139.307-92.308,172.114c0,0-0.04,18.015,22.025,29.48c0,0,150.072-101.024,193.329-109.639
			c0,0,23.883-23.283,60.697-58.922c-20.121,10.308-43.197,20.062-52.827,20.659c-16.772,1.053-36.153-39.437-34.583-53.776
			c1.57-14.338,153.521-139.574,176.038-137.984c22.54,1.57,29.875,22.518,30.414,37.725c0.205,6.548-13.655,26.546-30.414,48.012
			c113.26-108.668,256.184-243.842,297.086-273.84c0,0,0.414-10.661-3.14-24.688C-10.263-960.272-4.25-982.937-14.805-997.604z
			 M-630.209-415.008c0,0-2.542-32.478-33.638-43.818C-663.847-458.826-611.618-482.461-630.209-415.008z"/>
	</g>
	<path display="none" opacity="0.5" fill="#71C8EA" enable-background="new    " d="M938.338-681.345l3.333,3.333
		c0,0,17-13.666,32.5-11.833c0,0,21-27.999,50-37.833c0,0,17.667-9.834,7.167-30.667s-24.327-12.938-31.167-8
		c-9.583,6.916-39.771,40.322-51.5,56.333C948.671-710.012,952.171-693.678,938.338-681.345z"/>
	<path d="M21.312,19.695c-0.113-0.146-0.408-0.281-0.843-0.407c-0.184-2.712-0.846-11.503-1.845-13.899
		c-0.62-1.489-1.734-2.368-3.062-2.812c-0.026-0.383-0.129-0.76-0.321-1.109c-0.796-1.453-2.771-1.903-4.412-1.006
		C9.777,1.037,9.121,2.026,8.991,3.044C7.343,3.691,6.024,4.63,5.581,5.547c-0.886,1.83-2.423,9.836-2.965,12.76
		c-0.51,0.051-0.833,0.119-0.909,0.203c-0.632,0.713-1.979,3.057-1.659,4.032c1.008,3.087,4.567,5.492,8.575,6.541
		c-0.037,0.233-0.042,0.472-0.006,0.714c0.219,1.445,1.743,2.414,3.405,2.164c1.399-0.213,2.446-1.223,2.613-2.398
		c3.693-0.43,6.867-2.346,7.781-6.309C22.66,22.206,21.864,20.402,21.312,19.695z M19.619,20.107
		c-5.817,9.627-16.173-0.254-16.173-0.254c8.616,3.873,16.364,0,16.364,0C19.746,19.939,19.674,20.018,19.619,20.107z"/>
</g>
</svg>
