<?xml version="1.0" encoding="utf-8"?>
<!-- Generator: Adobe Illustrator 16.0.4, SVG Export Plug-In . SVG Version: 6.00 Build 0)  -->
<!DOCTYPE svg PUBLIC "-//W3C//DTD SVG 1.1//EN" "http://www.w3.org/Graphics/SVG/1.1/DTD/svg11.dtd">
<svg version="1.1" fill="rgb(0, 14, 156)" xmlns="http://www.w3.org/2000/svg" xmlns:xlink="http://www.w3.org/1999/xlink" x="0px" y="0px"
	 width="32px" height="31.25px" viewBox="0 0 32 31.25" enable-background="new 0 0 32 31.25" xml:space="preserve">
<g id="Fondo_1_" display="none">
	<rect id="Fondo" x="-109.967" y="-2171.898" display="inline" fill="#FB6E92" width="1000" height="2438.351"/>
</g>
<g id="Guias" display="none">
</g>
<g id="Icons">
	<g display="none" opacity="0.2">
		<path display="inline" fill="#FFFFFF" d="M300.042-695.378c-11.282,3.636-35.885,28.281-38.51,36.153
			c-2.621,7.851,12.065,36.154,18.864,37.705c6.793,1.59,56.584-20.436,58.154-28.284
			C340.123-657.675,311.325-699.057,300.042-695.378z"/>
		<path display="inline" fill="#FFFFFF" d="M403.011-775.536c-10.498,0.494-88.546,59.726-88.034,69.146
			c0.52,9.423,29.36,46.629,37.729,47.951c8.363,1.301,70.221-78.341,72.307-88.814
			C427.099-757.749,413.483-776.075,403.011-775.536z"/>
		<path display="inline" fill="#FFFFFF" d="M717.946-1061.98c-10.933-15.145-35.498-16.26-56.115-3.016
			c-7.87-4.009-17.023-7.233-27.767-9.215c0,0-391.394,317.515-477.854,378.833c0,0-3.302,7.003-8.776,18.407
			c98.109,68.715,86.957,120.568,86.957,120.568c-27.148-66.916-95.885-102.037-95.904-102.037
			c-24.627,50.7-68.836,139.307-92.309,172.115c0,0-0.039,18.015,22.025,29.48c0,0,150.072-101.024,193.329-109.639
			c0,0,23.883-23.283,60.696-58.922c-20.121,10.308-43.196,20.062-52.826,20.659c-16.772,1.053-36.153-39.437-34.584-53.776
			c1.57-14.338,153.521-139.574,176.039-137.984c22.539,1.57,29.875,22.518,30.413,37.725c0.205,6.548-13.654,26.546-30.413,48.012
			c113.258-108.669,256.182-243.843,297.084-273.841c0,0,0.414-10.661-3.141-24.688
			C722.488-1024.648,728.5-1047.312,717.946-1061.98z M102.542-479.384c0,0-2.542-32.478-33.638-43.818
			C68.904-523.202,121.132-546.837,102.542-479.384z"/>
	</g>
	<path display="none" opacity="0.5" fill="#71C8EA" enable-background="new    " d="M1671.088-745.721l3.333,3.333
		c0,0,17-13.666,32.5-11.833c0,0,21-27.999,50-37.833c0,0,17.667-9.834,7.167-30.667s-24.327-12.938-31.167-8
		c-9.583,6.916-39.771,40.322-51.5,56.333C1681.421-774.388,1684.921-758.054,1671.088-745.721z"/>
	<g>
		<path d="M12.562,8.195c1.85-1.481,4.057-2.158,6.144-2.065l1.856-5.867c-4.58-0.849-9.716,0.354-13.897,3.702
			C6.66,3.969,6.655,3.974,6.649,3.979l5.429,4.641C12.236,8.476,12.392,8.33,12.562,8.195z"/>
		<path d="M29.141,5.407l-4.656,3.765c1.341,1.88,1.654,4.243,1.035,6.479l6.147,1.507C32.525,13.037,31.739,8.773,29.141,5.407z"/>
		<path d="M9.091,14.596l-8.63-1.067c-1.044,4.254-0.333,8.713,2.325,12.217l7.367-6.691C9.322,17.712,8.979,16.158,9.091,14.596z"
			/>
		<path d="M16.514,22.476l-2.207,8.773c3.772,0.002,7.702-1.305,11.025-3.965c0.417-0.334,0.812-0.684,1.191-1.043l-4.909-5.309
			C20.025,21.984,18.236,22.486,16.514,22.476z"/>
		<path d="M22.559,20.214l4.799,5.182c1.931-2.084,3.278-4.51,4.008-7.033l-6.271-1.531C24.546,18.082,23.693,19.248,22.559,20.214z
			"/>
		<path d="M11.118,9.634L5.257,5.218C3.274,7.162,1.83,9.451,0.962,11.862l8.264,1.762C9.498,12.214,10.137,10.835,11.118,9.634z"/>
		<path d="M10.854,19.986l-7.148,6.848c2.33,2.482,5.448,3.932,8.796,4.312l2.761-8.766C13.566,22.111,12.009,21.304,10.854,19.986z
			"/>
		<path d="M23.645,8.188l4.514-3.915c-1.708-1.768-3.822-2.993-6.133-3.664l-2.192,5.653C21.264,6.525,22.589,7.168,23.645,8.188z"
			/>
	</g>
</g>
</svg>
