<?xml version="1.0" encoding="utf-8"?>
<!-- Generator: Adobe Illustrator 16.0.4, SVG Export Plug-In . SVG Version: 6.00 Build 0)  -->
<!DOCTYPE svg PUBLIC "-//W3C//DTD SVG 1.1//EN" "http://www.w3.org/Graphics/SVG/1.1/DTD/svg11.dtd">
<svg version="1.1" fill="rgb(0, 14, 156)" xmlns="http://www.w3.org/2000/svg" xmlns:xlink="http://www.w3.org/1999/xlink" x="0px" y="0px"
	 width="27.5px" height="32px" viewBox="0 0 27.5 32" enable-background="new 0 0 27.5 32" xml:space="preserve">
<g id="Fondo_1_" display="none">
	<rect id="Fondo" x="-164.217" y="-2171.522" display="inline" fill="#FB6E92" width="1000" height="2438.351"/>
</g>
<g id="Guias" display="none">
</g>
<g id="Icons">
	<g display="none" opacity="0.2">
		<path display="inline" fill="#FFFFFF" d="M245.792-695.002c-11.283,3.636-35.885,28.281-38.51,36.153
			c-2.621,7.851,12.064,36.154,18.864,37.705c6.793,1.59,56.584-20.436,58.153-28.284
			C285.873-657.299,257.074-698.681,245.792-695.002z"/>
		<path display="inline" fill="#FFFFFF" d="M348.761-775.16c-10.498,0.494-88.547,59.726-88.034,69.146
			c0.519,9.423,29.36,46.629,37.729,47.951c8.363,1.301,70.221-78.341,72.307-88.814
			C372.849-757.373,359.232-775.699,348.761-775.16z"/>
		<path display="inline" fill="#FFFFFF" d="M663.695-1061.604c-10.932-15.145-35.498-16.26-56.115-3.016
			c-7.869-4.009-17.023-7.233-27.768-9.215c0,0-391.393,317.515-477.854,378.833c0,0-3.301,7.003-8.775,18.407
			c98.109,68.715,86.957,120.568,86.957,120.568c-27.148-66.916-95.885-102.037-95.905-102.037
			C59.609-607.364,15.4-518.757-8.072-485.949c0,0-0.04,18.015,22.025,29.48c0,0,150.072-101.024,193.33-109.639
			c0,0,23.883-23.283,60.696-58.922c-20.121,10.308-43.196,20.062-52.827,20.659c-16.771,1.053-36.152-39.437-34.583-53.776
			c1.57-14.338,153.521-139.574,176.038-137.984c22.541,1.57,29.875,22.518,30.414,37.725c0.205,6.548-13.654,26.546-30.414,48.012
			c113.26-108.669,256.184-243.843,297.086-273.841c0,0,0.414-10.661-3.141-24.688
			C668.238-1024.272,674.25-1046.937,663.695-1061.604z M48.291-479.008c0,0-2.541-32.478-33.638-43.818
			C14.653-522.826,66.882-546.461,48.291-479.008z"/>
	</g>
	<path display="none" opacity="0.5" fill="#71C8EA" enable-background="new    " d="M1616.837-745.345l3.334,3.333
		c0,0,17-13.666,32.5-11.833c0,0,21-27.999,50-37.833c0,0,17.666-9.834,7.166-30.667s-24.326-12.938-31.166-8
		c-9.584,6.916-39.771,40.322-51.5,56.333C1627.171-774.012,1630.671-757.678,1616.837-745.345z"/>
	<path d="M26.992,14.238c-0.553-0.288-7.32,3.296-7.268,3.989c0.023,0.301,1.25,1.293,2.695,2.287
		c-1.025,1.404-2.959,3.709-5.412,5.049L15.145,9.456c0.694-0.397,1.347-0.948,1.892-1.648c1.851-2.379,1.787-5.523-0.141-7.022
		c-1.928-1.5-4.991-0.787-6.841,1.591c-1.85,2.379-1.788,5.523,0.14,7.022c0.509,0.396,1.099,0.634,1.723,0.731l-1.4,15.929
		c-1.792-0.763-3.662-2.369-5.53-5.207c1.619-0.891,3.045-1.834,3.045-2.225c0-0.863-7.081-4.49-7.599-4.145
		c-0.518,0.345-0.633,8.002,0,8.29c0.239,0.108,1.387-0.336,2.721-0.977c2.272,5.232,10.315,20.23,20.796-0.281
		c1.43,0.887,2.75,1.555,3.066,1.381C27.772,22.479,27.542,14.526,26.992,14.238z M11.845,3.727
		c0.938-1.205,2.488-1.566,3.466-0.806c0.978,0.759,1.008,2.352,0.071,3.557c-0.938,1.205-2.489,1.566-3.466,0.807
		C10.939,6.526,10.907,4.932,11.845,3.727z"/>
</g>
</svg>
