<?xml version="1.0" encoding="utf-8"?>
<!-- Generator: Adobe Illustrator 16.0.4, SVG Export Plug-In . SVG Version: 6.00 Build 0)  -->
<!DOCTYPE svg PUBLIC "-//W3C//DTD SVG 1.1//EN" "http://www.w3.org/Graphics/SVG/1.1/DTD/svg11.dtd">
<svg version="1.1" fill="rgb(0, 14, 156)" xmlns="http://www.w3.org/2000/svg" xmlns:xlink="http://www.w3.org/1999/xlink" x="0px" y="0px"
	 width="32px" height="27.229px" viewBox="0 0 32 27.229" enable-background="new 0 0 32 27.229" xml:space="preserve">
<g id="Fondo_1_" display="none">
	<rect id="Fondo" x="-213.966" y="-2174.45" display="inline" fill="#FB6E92" width="1000" height="2438.352"/>
</g>
<g id="Guias" display="none">
</g>
<g id="Icons">
	<g display="none" opacity="0.2">
		<path display="inline" fill="#FFFFFF" d="M196.043-697.93c-11.281,3.636-35.885,28.281-38.51,36.153
			c-2.621,7.851,12.064,36.153,18.865,37.704c6.793,1.591,56.584-20.436,58.153-28.283
			C236.123-660.227,207.325-701.608,196.043-697.93z"/>
		<path display="inline" fill="#FFFFFF" d="M299.012-778.088c-10.498,0.494-88.546,59.726-88.033,69.146
			c0.519,9.423,29.359,46.629,37.729,47.95c8.363,1.302,70.221-78.341,72.307-88.813C323.1-760.301,309.483-778.627,299.012-778.088
			z"/>
		<path display="inline" fill="#FFFFFF" d="M613.946-1064.532c-10.933-15.145-35.498-16.26-56.115-3.016
			c-7.87-4.009-17.023-7.233-27.767-9.215c0,0-391.394,317.515-477.854,378.833c0,0-3.302,7.003-8.776,18.407
			c98.109,68.715,86.957,120.567,86.957,120.567c-27.148-66.916-95.885-102.037-95.904-102.037
			c-24.626,50.7-68.835,139.308-92.307,172.115c0,0-0.04,18.016,22.025,29.48c0,0,150.071-101.024,193.329-109.64
			c0,0,23.883-23.282,60.697-58.922c-20.121,10.309-43.197,20.062-52.828,20.659c-16.771,1.053-36.152-39.438-34.582-53.776
			c1.57-14.338,153.521-139.573,176.038-137.983c22.54,1.569,29.875,22.518,30.413,37.725c0.205,6.548-13.654,26.546-30.413,48.012
			C420.116-821.991,563.04-957.165,603.942-987.163c0,0,0.414-10.661-3.141-24.688
			C618.488-1027.2,624.501-1049.865,613.946-1064.532z M-1.458-481.936c0,0-2.542-32.479-33.638-43.818
			C-35.096-525.754,17.133-549.389-1.458-481.936z"/>
	</g>
	<path display="none" opacity="0.5" fill="#71C8EA" enable-background="new    " d="M1567.089-748.272l3.333,3.333
		c0,0,17-13.666,32.5-11.833c0,0,21-27.999,50-37.833c0,0,17.667-9.834,7.167-30.667s-24.327-12.938-31.167-8
		c-9.583,6.916-39.771,40.321-51.5,56.333C1577.422-776.939,1580.922-760.605,1567.089-748.272z"/>
	<g>
		<path d="M20.675,11.887c-0.227,0-0.446,0.034-0.663,0.092v-0.004l-0.021,0.009c-0.246,0.065-0.482,0.168-0.708,0.301l-8.824,3.752
			v0.006c-1.633,0.644-2.839,2.855-2.839,5.496c0,3.144,1.706,5.689,3.81,5.689c0.322,0,0.633-0.066,0.932-0.18l0.001,0.008
			l0.156-0.066c0.021-0.01,0.041-0.018,0.061-0.026l9.059-3.881v-0.007c1.637-0.638,2.848-2.854,2.848-5.499
			C24.484,14.435,22.779,11.887,20.675,11.887z M12.954,25.706c-0.404,0.289-0.854,0.455-1.332,0.455
			c-1.706,0-3.088-2.064-3.088-4.612c0-2.449,1.28-4.447,2.895-4.598c1.373,0.86,2.337,2.886,2.337,5.248
			C13.766,23.523,13.462,24.74,12.954,25.706z"/>
		<path d="M32,14.097c0-2.567-1.395-4.648-3.111-4.648c-0.138,0-0.271,0.018-0.402,0.043L28.482,9.49l-0.051,0.015
			c-0.104,0.022-0.205,0.054-0.306,0.092l-1.11,0.328l0.012,0.001c-0.879,0.222-1.629,0.991-2.094,2.064l-1.271,0.536
			c0.095,0.113,0.186,0.237,0.271,0.363c0.032,0.047,0.063,0.095,0.094,0.144c0.053,0.08,0.103,0.164,0.152,0.25
			c0.035,0.062,0.071,0.123,0.104,0.188c0.063,0.119,0.123,0.244,0.18,0.371c0.001,0.004,0.002,0.007,0.003,0.009l0,0
			c0.395,0.895,0.626,1.964,0.626,3.115c0,0.126-0.003,0.252-0.009,0.376c-0.01,0.216-0.029,0.426-0.055,0.634
			c-0.002,0.024-0.006,0.05-0.008,0.074c-0.026,0.196-0.06,0.391-0.099,0.579c-0.006,0.031-0.013,0.062-0.021,0.094
			c-0.041,0.187-0.086,0.368-0.141,0.546c-0.008,0.024-0.016,0.05-0.023,0.074c-0.057,0.185-0.119,0.363-0.188,0.536l2.108-0.923
			c0.281,0.124,0.578,0.194,0.885,0.194c0.129,0,0.256-0.017,0.381-0.039v0.003l0.042-0.013c0.12-0.023,0.238-0.06,0.353-0.104
			l1.168-0.342l-0.002-0.001C30.919,18.238,32,16.356,32,14.097z"/>
		<path d="M14.018,13.627c1.637-0.638,2.847-2.854,2.847-5.499c0-3.143-1.706-5.688-3.81-5.688c-0.227,0-0.447,0.035-0.663,0.092
			l-0.001-0.004L12.37,2.536c-0.245,0.066-0.482,0.167-0.708,0.301L2.838,6.588l0.001,0.006C1.206,7.235,0,9.449,0,12.09
			c0,3.143,1.706,5.689,3.81,5.689c0.322,0,0.633-0.066,0.932-0.179l0.001,0.007l0.156-0.067c0.02-0.009,0.041-0.016,0.061-0.024
			l9.059-3.882L14.018,13.627z M5.334,16.257c-0.403,0.289-0.854,0.455-1.331,0.455c-1.706,0-3.088-2.063-3.088-4.61
			c0-2.45,1.28-4.448,2.895-4.599c1.373,0.859,2.337,2.886,2.337,5.248C6.146,14.075,5.843,15.292,5.334,16.257z"/>
		<path d="M16.409,3.583c0.052,0.081,0.102,0.166,0.151,0.251c0.035,0.062,0.071,0.124,0.104,0.188
			c0.063,0.12,0.123,0.244,0.179,0.373c0.002,0.002,0.002,0.004,0.004,0.007l0,0c0.396,0.895,0.627,1.964,0.627,3.116
			c0,0.126-0.004,0.252-0.01,0.376c-0.01,0.214-0.029,0.425-0.054,0.632c-0.003,0.024-0.005,0.051-0.009,0.076
			c-0.026,0.196-0.06,0.39-0.098,0.579c-0.007,0.029-0.014,0.062-0.021,0.093c-0.042,0.186-0.089,0.369-0.142,0.546
			c-0.008,0.025-0.016,0.05-0.023,0.075c-0.057,0.184-0.119,0.362-0.188,0.535l2.108-0.923c0.28,0.124,0.578,0.193,0.885,0.193
			c0.13,0,0.257-0.016,0.382-0.038v0.003l0.041-0.013c0.12-0.024,0.238-0.061,0.354-0.104l1.167-0.342l-0.001-0.001
			c1.432-0.418,2.513-2.3,2.513-4.561C24.38,2.081,22.986,0,21.268,0c-0.136,0-0.27,0.019-0.401,0.043L20.861,0.04l-0.049,0.017
			c-0.104,0.021-0.205,0.053-0.306,0.09l-1.11,0.33l0.012,0.001c-0.879,0.221-1.629,0.99-2.094,2.062l-1.271,0.537
			c0.095,0.113,0.185,0.236,0.272,0.363C16.347,3.487,16.378,3.535,16.409,3.583z"/>
	</g>
</g>
</svg>
