<?xml version="1.0" encoding="utf-8"?>
<!-- Generator: Adobe Illustrator 16.0.4, SVG Export Plug-In . SVG Version: 6.00 Build 0)  -->
<!DOCTYPE svg PUBLIC "-//W3C//DTD SVG 1.1//EN" "http://www.w3.org/Graphics/SVG/1.1/DTD/svg11.dtd">
<svg version="1.1" fill="rgb(0, 14, 156)" xmlns="http://www.w3.org/2000/svg" xmlns:xlink="http://www.w3.org/1999/xlink" x="0px" y="0px"
	 width="32px" height="25.132px" viewBox="0 0 32 25.132" enable-background="new 0 0 32 25.132" xml:space="preserve">
<g id="Fondo_1_" display="none">
	<rect id="Fondo" x="-265.967" y="-2174.956" display="inline" fill="#FB6E92" width="1000" height="2438.351"/>
</g>
<g id="Guias" display="none">
</g>
<g id="Icons">
	<g display="none" opacity="0.2">
		<path display="inline" fill="#FFFFFF" d="M144.042-698.436c-11.282,3.636-35.885,28.281-38.51,36.153
			c-2.621,7.852,12.065,36.154,18.864,37.705c6.793,1.59,56.584-20.436,58.154-28.284
			C184.123-660.732,155.325-702.114,144.042-698.436z"/>
		<path display="inline" fill="#FFFFFF" d="M247.012-778.594c-10.498,0.494-88.547,59.726-88.035,69.146
			c0.52,9.423,29.36,46.629,37.729,47.951c8.362,1.301,70.221-78.341,72.308-88.814C271.1-760.807,257.482-779.133,247.012-778.594z
			"/>
		<path display="inline" fill="#FFFFFF" d="M561.946-1065.038c-10.933-15.145-35.498-16.26-56.115-3.016
			c-7.87-4.009-17.023-7.233-27.767-9.215c0,0-391.394,317.515-477.854,378.833c0,0-3.302,7.003-8.776,18.407
			C89.543-611.313,78.391-559.46,78.391-559.46c-27.148-66.916-95.885-102.037-95.905-102.037
			c-24.626,50.699-68.835,139.307-92.308,172.114c0,0-0.04,18.015,22.025,29.48c0,0,150.072-101.024,193.329-109.639
			c0,0,23.883-23.283,60.696-58.922c-20.121,10.308-43.196,20.062-52.826,20.659c-16.772,1.053-36.153-39.437-34.584-53.776
			c1.57-14.338,153.521-139.574,176.039-137.984c22.539,1.57,29.875,22.518,30.414,37.725c0.205,6.548-13.655,26.546-30.414,48.012
			c113.258-108.669,256.182-243.843,297.084-273.841c0,0,0.414-10.661-3.141-24.688
			C566.488-1027.706,572.5-1050.37,561.946-1065.038z M-53.458-482.441c0,0-2.542-32.478-33.638-43.818
			C-87.096-526.26-34.868-549.895-53.458-482.441z"/>
	</g>
	<path display="none" opacity="0.5" fill="#71C8EA" enable-background="new    " d="M1515.088-748.778l3.333,3.333
		c0,0,17-13.666,32.5-11.833c0,0,21-27.999,50-37.833c0,0,17.667-9.834,7.167-30.667s-24.327-12.937-31.167-8
		c-9.583,6.916-39.771,40.322-51.5,56.333C1525.421-777.445,1528.921-761.111,1515.088-748.778z"/>
	<path d="M30.844,3.873c-0.746-1.006-2.107-2.154-2.186-2.123c-0.105,0.042-0.016,0.858-0.163,1.794
		c-0.88-0.861-1.933-1.2-2.69-1.171c-0.396,0.016-0.744,0.189-1.045,0.432C23.098,1.067,20.855,0,18.385,0
		c-4.789,0-8.729,4.006-9.22,9.146c-1.218-0.367-2.482-0.397-3.66-0.05c-0.38-1.325-0.898-2.711-1.438-2.878
		c-1.063-0.327-1.85,5.391-1.85,5.391h0.004c-1.02,1.631-1.314,3.771-0.779,5.895L0.6,18.029c-0.8,0.422-0.8,1.994,0,3.514
		c0.8,1.521,2.096,2.41,2.896,1.99l1.429-0.859c2.224,1.604,5.005,1.968,7.233,0.688c0.835-0.479,1.506-1.146,2.009-1.932
		c-0.052,0.788-0.087,1.94,0.074,2.704c0.327,1.557,4.309,1.447,4.364-1.443c0.011-0.605,0.074-1.462,0.142-2.238
		c0.661-0.027,1.305-0.132,1.923-0.304c0.004,0.49,0.035,0.979,0.117,1.367c0.327,1.558,4.309,1.446,4.363-1.442
		c0.017-0.853,0.134-2.193,0.223-3.119c1.113-1.406,1.882-3.154,2.166-5.081c0.432,0.032,0.722-0.064,0.722-0.064
		c1.275-0.229,1.714-1.53,1.847-2.68c1.027-0.209,1.768-1.057,1.879-2.048C31.984,7.081,32.221,5.728,30.844,3.873z M3.358,18.328
		c-0.497,0-0.9-1.088-0.9-2.428c0-1.342,0.403-2.428,0.9-2.428s0.9,1.086,0.9,2.428C4.258,17.24,3.855,18.328,3.358,18.328z
		 M5.977,20.291c-0.497,0-0.9-1.086-0.9-2.428c0-1.341,0.403-2.428,0.9-2.428s0.9,1.087,0.9,2.428
		C6.877,19.205,6.473,20.291,5.977,20.291z M11.349,15.267l-2.781-2.145c0,0,2.071-4.262,2.978-3.616
		C12.453,10.153,11.349,15.267,11.349,15.267z M15.521,5.618l-1.063-0.873c2.127-2.235,4.97-2.74,4.97-2.74l1.575,0.913
		C18.467,3.055,15.521,5.618,15.521,5.618z"/>
</g>
</svg>
