<?xml version="1.0" encoding="utf-8"?>
<!-- Generator: Adobe Illustrator 16.0.4, SVG Export Plug-In . SVG Version: 6.00 Build 0)  -->
<!DOCTYPE svg PUBLIC "-//W3C//DTD SVG 1.1//EN" "http://www.w3.org/Graphics/SVG/1.1/DTD/svg11.dtd">
<svg version="1.1" fill="rgb(0, 14, 156)" xmlns="http://www.w3.org/2000/svg" xmlns:xlink="http://www.w3.org/1999/xlink" x="0px" y="0px"
	 width="21.598px" height="32px" viewBox="0 0 21.598 32" enable-background="new 0 0 21.598 32" xml:space="preserve">
<g id="Fondo_1_" display="none">
	<rect id="Fondo" x="-322.91" y="-2171.518" display="inline" fill="#FB6E92" width="1000" height="2438.351"/>
</g>
<g id="Guias" display="none">
</g>
<g id="Icons">
	<g display="none" opacity="0.2">
		<path display="inline" fill="#FFFFFF" d="M87.099-694.997c-11.282,3.636-35.886,28.281-38.511,36.153
			c-2.621,7.851,12.065,36.154,18.865,37.705c6.793,1.59,56.584-20.437,58.154-28.284
			C127.179-657.294,98.381-698.676,87.099-694.997z"/>
		<path display="inline" fill="#FFFFFF" d="M190.068-775.155c-10.498,0.494-88.546,59.727-88.034,69.146
			c0.52,9.423,29.36,46.629,37.729,47.951c8.362,1.301,70.221-78.341,72.307-88.814C214.156-757.368,200.54-775.694,190.068-775.155
			z"/>
		<path display="inline" fill="#FFFFFF" d="M505.002-1061.6c-10.932-15.145-35.498-16.26-56.115-3.016
			c-7.87-4.009-17.022-7.233-27.767-9.215c0,0-391.393,317.515-477.854,378.833c0,0-3.303,7.003-8.776,18.407
			c98.11,68.716,86.958,120.57,86.958,120.57c-27.149-66.916-95.885-102.037-95.905-102.037
			c-24.626,50.699-68.835,139.307-92.308,172.114c0,0-0.04,18.015,22.024,29.48c0,0,150.072-101.024,193.329-109.639
			c0,0,23.884-23.283,60.697-58.922c-20.121,10.308-43.197,20.062-52.827,20.659c-16.771,1.053-36.152-39.437-34.583-53.776
			c1.57-14.338,153.521-139.574,176.038-137.984c22.54,1.57,29.875,22.518,30.414,37.725c0.205,6.548-13.655,26.546-30.414,48.012
			C311.173-819.059,454.096-954.232,495-984.23c0,0,0.414-10.661-3.14-24.688C509.544-1024.268,515.556-1046.932,505.002-1061.6z
			 M-110.402-479.003c0,0-2.542-32.478-33.639-43.818C-144.04-522.821-91.811-546.456-110.402-479.003z"/>
	</g>
	<path display="none" opacity="0.5" fill="#71C8EA" enable-background="new    " d="M1458.144-745.34l3.334,3.333
		c0,0,17-13.666,32.5-11.833c0,0,21-27.999,50-37.833c0,0,17.666-9.834,7.166-30.667s-24.326-12.938-31.166-8
		c-9.584,6.916-39.771,40.322-51.5,56.333C1468.478-774.007,1471.978-757.673,1458.144-745.34z"/>
	<g>
		<path d="M21.312,8.288c-0.42-0.843-2.267-1.018-3.229-1.184c1.004-1.479,1.94-4.28,0.835-5.409
			c-1.293-1.321-3.954-1.701-5.527-0.159c-0.237,0.231-1.032,1.986-1.207,2.247c-0.437-0.912-1.342-3.533-2.304-3.735
			C8.071-0.331,5.389,1.612,4.937,3.77C4.758,4.621,5.82,6.896,6.075,7.62c-0.95-0.347-3.086-1.21-4.169-0.67
			c-1.876,0.937-2.319,4.402-1.541,5.964c0.64,1.281,2.722,1.329,4.299,0.974c-3.343,1.578-1.879,4.824-0.685,6.043
			c1.222,1.248,3.881,0.639,5.437-1.384L8.658,32l3.828-0.99l-0.732-11.463c0.303,0.202,1.535,0.946,1.902,1.021
			c1.81,0.381,4.014-1.404,4.466-3.562c0.241-1.153-1.232-2.52-1.751-3.374c0.634-0.002,2.34,0.288,2.975-0.028
			C21.221,12.669,22.091,9.85,21.312,8.288z M15.113,12.109c-0.93,2.692-3.517,4.242-5.777,3.462
			c-2.262-0.78-3.341-3.597-2.411-6.288c0.931-2.694,3.518-4.244,5.777-3.463C14.963,6.6,16.042,9.416,15.113,12.109z"/>
		<ellipse transform="matrix(-0.9633 -0.2684 0.2684 -0.9633 18.2248 24.2705)" cx="10.771" cy="10.89" rx="3.244" ry="3.987"/>
	</g>
</g>
</svg>
