<?xml version="1.0" encoding="utf-8"?>
<!-- Generator: Adobe Illustrator 16.0.4, SVG Export Plug-In . SVG Version: 6.00 Build 0)  -->
<!DOCTYPE svg PUBLIC "-//W3C//DTD SVG 1.1//EN" "http://www.w3.org/Graphics/SVG/1.1/DTD/svg11.dtd">
<svg version="1.1" fill="rgb(0, 14, 156)" xmlns="http://www.w3.org/2000/svg" xmlns:xlink="http://www.w3.org/1999/xlink" x="0px" y="0px"
	 width="28.258px" height="32px" viewBox="0 0 28.258 32" enable-background="new 0 0 28.258 32" xml:space="preserve">
<g id="Fondo_1_" display="none">
	<rect id="Fondo" x="-372.908" y="-2171.518" display="inline" fill="#FB6E92" width="1000" height="2438.351"/>
</g>
<g id="Guias" display="none">
</g>
<g id="Icons">
	<g display="none" opacity="0.2">
		<path display="inline" fill="#FFFFFF" d="M37.102-694.997c-11.281,3.636-35.885,28.281-38.51,36.153
			c-2.621,7.851,12.065,36.154,18.865,37.705c6.793,1.59,56.584-20.437,58.154-28.284C77.182-657.294,48.384-698.676,37.102-694.997
			z"/>
		<path display="inline" fill="#FFFFFF" d="M140.07-775.155c-10.498,0.494-88.547,59.727-88.034,69.146
			c0.519,9.423,29.36,46.629,37.729,47.951c8.362,1.301,70.221-78.341,72.307-88.814
			C164.158-757.368,150.542-775.694,140.07-775.155z"/>
		<path display="inline" fill="#FFFFFF" d="M455.005-1061.6c-10.932-15.145-35.498-16.26-56.115-3.016
			c-7.87-4.009-17.022-7.233-27.767-9.215c0,0-391.393,317.515-477.854,378.833c0,0-3.302,7.003-8.776,18.407
			c98.109,68.715,86.957,120.568,86.957,120.568c-27.149-66.916-95.885-102.037-95.905-102.037
			c-24.626,50.699-68.835,139.307-92.308,172.114c0,0-0.04,18.015,22.025,29.48c0,0,150.072-101.024,193.329-109.639
			c0,0,23.884-23.283,60.697-58.922c-20.121,10.308-43.197,20.062-52.827,20.659c-16.772,1.053-36.153-39.437-34.583-53.776
			c1.57-14.338,153.521-139.574,176.038-137.984c22.54,1.57,29.875,22.518,30.414,37.725c0.205,6.548-13.655,26.546-30.414,48.012
			C261.176-819.059,404.1-954.232,445.002-984.23c0,0,0.414-10.661-3.14-24.688C459.547-1024.268,465.56-1046.932,455.005-1061.6z
			 M-160.399-479.003c0,0-2.542-32.478-33.638-43.818C-194.037-522.821-141.809-546.456-160.399-479.003z"/>
	</g>
	<path display="none" opacity="0.5" fill="#71C8EA" enable-background="new    " d="M1408.146-745.34l3.334,3.333
		c0,0,17-13.666,32.5-11.833c0,0,21-27.999,50-37.833c0,0,17.666-9.834,7.166-30.667s-24.326-12.938-31.166-8
		c-9.584,6.916-39.771,40.322-51.5,56.333C1418.48-774.007,1421.98-757.673,1408.146-745.34z"/>
	<g>
		<ellipse transform="matrix(-0.9716 -0.2366 0.2366 -0.9716 10.8163 15.6632)" cx="6.348" cy="7.183" rx="1.711" ry="2.025"/>
		<ellipse transform="matrix(-0.9716 0.2366 -0.2366 -0.9716 44.8938 8.9773)" cx="21.908" cy="7.183" rx="1.711" ry="2.025"/>
		<path d="M28.057,4.51c-0.572-1.003-2.199-1.151-3.633-0.331c-0.055,0.031-0.105,0.065-0.158,0.099
			c0.127-0.287,0.227-0.601,0.289-0.935c0.299-1.624-0.382-3.109-1.518-3.318c-1.042-0.191-2.105,0.763-2.504,2.178
			c-0.994-0.884-2.248-1.129-3.016-0.511c-0.9,0.723-0.791,2.353,0.243,3.64c0.274,0.341,0.585,0.621,0.912,0.84
			c-0.634,0.046-1.33,0.307-1.956,0.78c-1.314,0.997-1.816,2.552-1.119,3.472c0.396,0.523,1.094,0.727,1.864,0.623
			c-2.454,2.591-3.107,5.328-3.277,6.45c-0.53,0.062-1.058,0.134-1.574,0.218c0.003-1.324-0.267-3.805-1.921-6.686
			c0.812,0.138,1.555-0.059,1.97-0.605c0.698-0.92,0.196-2.475-1.12-3.472c-0.625-0.474-1.321-0.734-1.956-0.78
			c0.327-0.219,0.638-0.499,0.912-0.84c1.035-1.287,1.144-2.917,0.244-3.64c-0.767-0.619-2.021-0.374-3.015,0.51
			C7.328,0.787,6.264-0.167,5.221,0.024C4.085,0.233,3.406,1.719,3.705,3.343C3.766,3.677,3.866,3.99,3.993,4.277
			C3.94,4.244,3.889,4.21,3.834,4.179C2.4,3.358,0.774,3.507,0.201,4.51c-0.573,1.003,0.125,2.479,1.558,3.299
			c0.309,0.177,0.626,0.306,0.94,0.394c-0.257,0.211-0.496,0.473-0.698,0.78c-0.804,1.218-0.74,2.679,0.142,3.261
			c0.883,0.582,2.25,0.066,3.054-1.152c0.007-0.01,0.012-0.021,0.019-0.03c0.011,0.094,0.024,0.188,0.042,0.284
			c0.298,1.623,1.46,2.771,2.596,2.562c0.954-0.175,1.583-1.252,1.584-2.555c0.761,0.912,1.985,2.943,2.031,6.57
			c-2.919,0.588-5.223,1.511-5.121,2.354c0.214,1.767,0.479,2.464,0.681,3.002c0.036,0.097,0.481,0.175,1.188,0.232
			c0.256,1.719,0.786,5.307,0.905,6.258c0.349,2.791,8.401,2.599,8.653,1.396c0.173-0.824,1.09-5.194,1.65-7.872
			c0.651-0.1,1.072-0.219,1.141-0.361c0.488-1.029,1.508-4.75,1.062-4.955c-1.39-0.644-3.74-0.775-6.188-0.599
			c1.006-3.142,2.459-4.909,3.385-5.778c0.074,1.188,0.684,2.144,1.576,2.308c1.137,0.209,2.299-0.939,2.597-2.562
			c0.019-0.096,0.03-0.19,0.042-0.284c0.006,0.01,0.012,0.021,0.02,0.03c0.804,1.219,2.17,1.734,3.054,1.152
			c0.882-0.582,0.946-2.043,0.142-3.261c-0.203-0.308-0.441-0.569-0.697-0.78c0.313-0.088,0.631-0.217,0.939-0.394
			C27.934,6.989,28.63,5.513,28.057,4.51z M5.679,10.017C4.323,9.687,3.532,8.159,3.91,6.604C4.287,5.05,5.693,4.058,7.049,4.387
			C8.403,4.718,9.195,6.245,8.817,7.8C8.439,9.354,7.034,10.346,5.679,10.017z M22.579,10.017c-1.354,0.329-2.761-0.663-3.138-2.217
			c-0.379-1.555,0.414-3.082,1.768-3.412c1.355-0.329,2.762,0.663,3.139,2.217C24.727,8.159,23.936,9.687,22.579,10.017z"/>
	</g>
</g>
</svg>
