<?xml version="1.0" encoding="utf-8"?>
<!-- Generator: Adobe Illustrator 16.0.4, SVG Export Plug-In . SVG Version: 6.00 Build 0)  -->
<!DOCTYPE svg PUBLIC "-//W3C//DTD SVG 1.1//EN" "http://www.w3.org/Graphics/SVG/1.1/DTD/svg11.dtd">
<svg version="1.1" fill="rgb(0, 14, 156)" xmlns="http://www.w3.org/2000/svg" xmlns:xlink="http://www.w3.org/1999/xlink" x="0px" y="0px"
	 width="32px" height="21.527px" viewBox="0 0 32 21.527" enable-background="new 0 0 32 21.527" xml:space="preserve">
<g id="Fondo_1_" display="none">
	<rect id="Fondo" x="-421.966" y="-2177.554" display="inline" fill="#FB6E92" width="1000" height="2438.351"/>
</g>
<g id="Guias" display="none">
</g>
<g id="Icons">
	<g display="none" opacity="0.2">
		<path display="inline" fill="#FFFFFF" d="M-11.957-701.033c-11.282,3.637-35.885,28.281-38.51,36.153
			c-2.621,7.851,12.065,36.154,18.865,37.705c6.793,1.59,56.584-20.436,58.154-28.284C28.124-663.33-0.674-704.712-11.957-701.033z"
			/>
		<path display="inline" fill="#FFFFFF" d="M91.012-781.191c-10.498,0.493-88.546,59.726-88.034,69.146
			c0.519,9.423,29.36,46.629,37.729,47.951c8.363,1.301,70.221-78.341,72.307-88.814C115.1-763.405,101.484-781.73,91.012-781.191z"
			/>
		<path display="inline" fill="#FFFFFF" d="M405.947-1067.636c-10.933-15.146-35.498-16.26-56.115-3.016
			c-7.87-4.01-17.023-7.233-27.767-9.216c0,0-391.394,317.516-477.854,378.833c0,0-3.302,7.003-8.776,18.407
			c98.109,68.715,86.957,120.568,86.957,120.568c-27.149-66.916-95.885-102.037-95.905-102.037
			c-24.626,50.699-68.835,139.307-92.308,172.114c0,0-0.04,18.015,22.025,29.479c0,0,150.072-101.023,193.329-109.639
			c0,0,23.883-23.283,60.697-58.922c-20.121,10.308-43.197,20.062-52.827,20.659c-16.772,1.053-36.153-39.438-34.583-53.776
			c1.57-14.338,153.521-139.574,176.038-137.984c22.541,1.57,29.875,22.519,30.414,37.726c0.205,6.548-13.654,26.546-30.414,48.012
			C212.116-825.096,355.04-960.27,395.942-990.268c0,0,0.414-10.661-3.141-24.688
			C410.489-1030.304,416.501-1052.968,405.947-1067.636z M-209.458-485.039c0,0-2.542-32.478-33.638-43.817
			C-243.095-528.857-190.867-552.492-209.458-485.039z"/>
	</g>
	<path display="none" opacity="0.5" fill="#71C8EA" enable-background="new    " d="M1359.089-751.376l3.333,3.333
		c0,0,17-13.666,32.5-11.833c0,0,21-27.999,50-37.833c0,0,17.667-9.834,7.167-30.667s-24.327-12.937-31.167-8
		c-9.583,6.916-39.771,40.322-51.5,56.333C1369.422-780.043,1372.922-763.709,1359.089-751.376z"/>
	<path d="M30.721,4.079c-0.062,0-0.121,0.008-0.179,0.021c-0.336,0.035-0.681,0.079-1.031,0.131
		c-0.308-1.116-0.843-1.857-1.47-1.872c-0.076-0.002-0.15,0.01-0.225,0.027l0.002-0.003l-0.61,0.201
		C26.639,1.004,25.784-0.002,24.83,0c-0.127,0-0.252,0.021-0.376,0.056l0.001-0.001l-0.037,0.012
		c-0.027,0.009-0.057,0.018-0.084,0.027l-1.828,0.607v0.001c-1.352,0.442-2.417,2.921-2.613,6.057
		c-2.606,0.896-5.223,1.917-7.638,2.927c-0.874-2.046-2.095-3.321-3.228-3.138C8.97,6.558,8.913,6.572,8.856,6.589V6.588
		L6.583,7.383l0.001,0.001c-0.947,0.371-1.582,1.803-1.771,3.735c-0.002,0.001-0.003,0-0.005,0.001
		c-0.046,0.007-0.089,0.022-0.132,0.037v-0.004l-0.039,0.016c-0.007,0.003-0.014,0.005-0.021,0.01L2.781,11.91
		c-0.618,0.253-1.012,1.261-1.076,2.592c-0.319,0.159-0.491,0.247-0.491,0.247C0.519,15.013,0,16.02,0,17.225
		c0,1.405,0.705,2.545,1.574,2.545c0.139,0,0.273-0.031,0.401-0.086v0.001c0.002-0.002,0.006-0.003,0.009-0.005
		c0.09-0.039,0.177-0.093,0.259-0.154c0.177-0.105,0.354-0.209,0.53-0.312c0.472,0.791,1.037,1.247,1.57,1.16
		c0.063-0.01,0.125-0.027,0.185-0.053l0,0l1.805-0.723l-0.004-0.002c0.063-0.022,0.123-0.055,0.181-0.091
		c0.796,1.365,1.758,2.151,2.664,2.004c0.045-0.008,0.09-0.019,0.134-0.029v0.001l0.007-0.002c0.062-0.018,0.122-0.038,0.181-0.063
		l2.01-0.702l0,0c1.486-0.438,2.257-3.405,1.821-6.925c2.457-1.099,4.765-2.025,6.851-2.8c0.508,2.389,1.565,4.034,2.786,4.031
		c0.121,0,0.239-0.019,0.356-0.049l-0.002,0.002l0.043-0.015c0.035-0.011,0.07-0.021,0.104-0.035l1.793-0.596l-0.003-0.001
		c0.905-0.273,1.685-1.463,2.165-3.148l0.7-0.244l-0.004-0.004c0.712-0.236,1.315-1.402,1.56-2.953
		c0.799-0.203,1.235-0.298,1.235-0.298V7.677C31.525,7.548,32,6.798,32,5.889C32,4.89,31.427,4.079,30.721,4.079z M9.288,20.558
		c0,0,0.158-8.975-1.784-12.438C7.504,8.12,12.279,12.371,9.288,20.558z M24.212,13.736c0,0,0.558-8.974-1.384-12.438
		C22.828,1.299,27.812,5.496,24.212,13.736z"/>
</g>
</svg>
