<?xml version="1.0" encoding="utf-8"?>
<!-- Generator: Adobe Illustrator 16.0.4, SVG Export Plug-In . SVG Version: 6.00 Build 0)  -->
<!DOCTYPE svg PUBLIC "-//W3C//DTD SVG 1.1//EN" "http://www.w3.org/Graphics/SVG/1.1/DTD/svg11.dtd">
<svg version="1.1" fill="rgb(0, 14, 156)" xmlns="http://www.w3.org/2000/svg" xmlns:xlink="http://www.w3.org/1999/xlink" x="0px" y="0px"
	 width="21.568px" height="32px" viewBox="0 0 21.568 32" enable-background="new 0 0 21.568 32" xml:space="preserve">
<g id="Fondo_1_" display="none">
	<rect id="Fondo" x="-479.31" y="-2171.518" display="inline" fill="#FB6E92" width="1000" height="2438.351"/>
</g>
<g id="Guias" display="none">
</g>
<g id="Icons">
	<g display="none" opacity="0.2">
		<path display="inline" fill="#FFFFFF" d="M-69.301-694.997c-11.282,3.636-35.885,28.281-38.51,36.153
			c-2.621,7.851,12.064,36.154,18.865,37.705c6.793,1.59,56.584-20.437,58.153-28.284
			C-29.221-657.294-58.019-698.676-69.301-694.997z"/>
		<path display="inline" fill="#FFFFFF" d="M33.668-775.155c-10.498,0.494-88.546,59.727-88.034,69.146
			c0.52,9.423,29.36,46.629,37.729,47.951c8.363,1.301,70.221-78.341,72.307-88.814C57.756-757.368,44.14-775.694,33.668-775.155z"
			/>
		<path display="inline" fill="#FFFFFF" d="M348.602-1061.6c-10.932-15.145-35.497-16.26-56.114-3.016
			c-7.87-4.009-17.023-7.233-27.767-9.215c0,0-391.394,317.515-477.854,378.833c0,0-3.302,7.003-8.776,18.407
			c98.109,68.715,86.957,120.568,86.957,120.568c-27.148-66.916-95.885-102.037-95.904-102.037
			c-24.626,50.699-68.835,139.307-92.309,172.114c0,0-0.04,18.015,22.025,29.48c0,0,150.072-101.024,193.329-109.639
			c0,0,23.883-23.283,60.697-58.922c-20.121,10.308-43.197,20.062-52.827,20.659c-16.772,1.053-36.153-39.437-34.583-53.776
			c1.569-14.338,153.521-139.574,176.038-137.984c22.54,1.57,29.875,22.518,30.414,37.725c0.204,6.548-13.655,26.546-30.414,48.012
			C154.773-819.059,297.697-954.232,338.599-984.23c0,0,0.414-10.661-3.14-24.688C353.144-1024.268,359.157-1046.932,348.602-1061.6
			z M-266.802-479.003c0,0-2.542-32.478-33.638-43.818C-300.439-522.821-248.211-546.456-266.802-479.003z"/>
	</g>
	<path display="none" opacity="0.5" fill="#71C8EA" enable-background="new    " d="M1301.745-745.34l3.333,3.333
		c0,0,17-13.666,32.5-11.833c0,0,21-27.999,50-37.833c0,0,17.667-9.834,7.167-30.667s-24.327-12.938-31.167-8
		c-9.583,6.916-39.771,40.322-51.5,56.333C1312.078-774.007,1315.578-757.673,1301.745-745.34z"/>
	<g>
		<path d="M11.921,25.973C6,27.205,0.689,25.761,0.062,22.746c-0.038-0.182-0.058-0.362-0.061-0.545H0l0.01,5.312
			C0,27.659,0.001,27.803,0.01,27.945v0.029h0.002c0.01,0.118,0.023,0.238,0.049,0.356c0.627,3.017,5.938,4.461,11.859,3.228
			c5.654-1.179,9.818-4.371,9.639-7.281l0.009-0.002v-5.416C21.581,21.725,17.466,24.816,11.921,25.973z"/>
		<path d="M11.921,18.666C6,19.898,0.689,18.455,0.062,15.439c-0.038-0.18-0.058-0.361-0.061-0.544H0l0.01,5.313
			C0,20.354,0.001,20.497,0.01,20.641v0.028l0.002-0.001c0.01,0.121,0.023,0.24,0.049,0.357c0.627,3.017,5.938,4.461,11.859,3.227
			c5.654-1.177,9.818-4.369,9.639-7.279l0.009-0.002v-5.416C21.581,14.418,17.466,17.512,11.921,18.666z"/>
		<path d="M21.555,3.994c-0.011-0.109-0.024-0.219-0.048-0.328C20.879,0.65,15.569-0.793,9.647,0.44
			C4.079,1.601-0.048,4.715,0.002,7.59H0l0.01,5.312C0,13.047,0.001,13.191,0.01,13.335v0.028l0.002-0.001
			c0.01,0.12,0.023,0.239,0.049,0.358C0.689,16.736,6,18.18,11.921,16.945c5.654-1.176,9.818-4.369,9.639-7.279l0.009-0.002V4.248
			c0-0.007,0-0.014,0-0.021V3.992L21.555,3.994z"/>
	</g>
</g>
</svg>
