<?xml version="1.0" encoding="utf-8"?>
<!-- Generator: Adobe Illustrator 16.0.4, SVG Export Plug-In . SVG Version: 6.00 Build 0)  -->
<!DOCTYPE svg PUBLIC "-//W3C//DTD SVG 1.1//EN" "http://www.w3.org/Graphics/SVG/1.1/DTD/svg11.dtd">
<svg version="1.1" fill="rgb(0, 14, 156)" xmlns="http://www.w3.org/2000/svg" xmlns:xlink="http://www.w3.org/1999/xlink" x="0px" y="0px"
	 width="20.311px" height="32.014px" viewBox="0 0 20.311 32.014" enable-background="new 0 0 20.311 32.014" xml:space="preserve">
<g id="Fondo_1_" display="none">
	<rect id="Fondo" x="-584.225" y="-2171.517" display="inline" fill="#FB6E92" width="1000" height="2438.351"/>
</g>
<g id="Guias" display="none">
</g>
<g id="Icons">
	<g display="none" opacity="0.2">
		<path display="inline" fill="#FFFFFF" d="M-174.216-694.996c-11.282,3.637-35.885,28.281-38.51,36.153
			c-2.621,7.851,12.064,36.154,18.865,37.705c6.793,1.59,56.584-20.437,58.153-28.284
			C-134.136-657.293-162.934-698.675-174.216-694.996z"/>
		<path display="inline" fill="#FFFFFF" d="M-71.247-775.155c-10.498,0.494-88.546,59.727-88.034,69.146
			c0.52,9.423,29.36,46.629,37.729,47.951c8.363,1.301,70.221-78.341,72.307-88.814C-47.159-757.367-60.775-775.693-71.247-775.155z
			"/>
		<path display="inline" fill="#FFFFFF" d="M243.688-1061.599c-10.933-15.146-35.498-16.26-56.115-3.017
			c-7.87-4.009-17.023-7.232-27.767-9.215c0,0-391.394,317.516-477.854,378.833c0,0-3.302,7.003-8.776,18.407
			c98.109,68.715,86.957,120.568,86.957,120.568c-27.148-66.916-95.885-102.037-95.904-102.037
			c-24.626,50.699-68.835,139.307-92.309,172.114c0,0-0.04,18.015,22.025,29.479c0,0,150.072-101.023,193.329-109.639
			c0,0,23.883-23.283,60.697-58.922c-20.121,10.308-43.197,20.062-52.827,20.658c-16.772,1.054-36.153-39.437-34.583-53.775
			c1.569-14.338,153.521-139.574,176.038-137.984c22.54,1.57,29.875,22.519,30.414,37.726c0.204,6.548-13.655,26.546-30.414,48.012
			C49.858-819.058,192.782-954.231,233.685-984.229c0,0,0.414-10.661-3.141-24.688
			C248.229-1024.267,254.242-1046.931,243.688-1061.599z M-371.717-479.002c0,0-2.542-32.478-33.638-43.817
			C-405.354-522.82-353.126-546.455-371.717-479.002z"/>
	</g>
	<path display="none" opacity="0.5" fill="#71C8EA" enable-background="new    " d="M1196.83-745.339l3.333,3.333
		c0,0,17-13.666,32.5-11.833c0,0,21-27.999,50-37.833c0,0,17.667-9.834,7.167-30.667s-24.327-12.937-31.167-8
		c-9.583,6.916-39.771,40.322-51.5,56.333C1207.163-774.006,1210.663-757.672,1196.83-745.339z"/>
	<path d="M18.324,11.166C16.355,6.196,12.006-0.043,11.646,0C10.863,0.092,9.97,9.298,4.238,13.729
		c-0.137,0.097-0.271,0.196-0.402,0.301c-0.002,0.002-0.004,0.004-0.006,0.005c-2.147,1.699-3.67,4.259-3.812,7.21
		c-0.363,7.51,4.989,10.297,5.991,9.941c1.005-0.355,2.785-5.705,3.677-8.961C11.434,15.829,12.37,8.93,12.711,8.93
		s1.082,6.894,0.771,12.998c-0.271,5.334-2.308,9.848-2.082,10.036c0.479,0.409,6.764-1.81,8.09-6.309l0,0
		C19.49,25.656,21.959,20.335,18.324,11.166z"/>
</g>
</svg>
