<?xml version="1.0" encoding="utf-8"?>
<!-- Generator: Adobe Illustrator 16.0.4, SVG Export Plug-In . SVG Version: 6.00 Build 0)  -->
<!DOCTYPE svg PUBLIC "-//W3C//DTD SVG 1.1//EN" "http://www.w3.org/Graphics/SVG/1.1/DTD/svg11.dtd">
<svg version="1.1" fill="rgb(0, 14, 156)" xmlns="http://www.w3.org/2000/svg" xmlns:xlink="http://www.w3.org/1999/xlink" x="0px" y="0px"
	 width="18.585px" height="32px" viewBox="0 0 18.585 32" enable-background="new 0 0 18.585 32" xml:space="preserve">
<g id="Fondo_1_" display="none">
	<rect id="Fondo" x="-637.084" y="-2171.518" display="inline" fill="#FB6E92" width="1000" height="2438.352"/>
</g>
<g id="Guias" display="none">
</g>
<g id="Icons">
	<g display="none" opacity="0.2">
		<path display="inline" fill="#FFFFFF" d="M-227.075-694.997c-11.282,3.636-35.885,28.281-38.51,36.153
			c-2.621,7.851,12.065,36.154,18.865,37.705c6.793,1.59,56.584-20.437,58.154-28.284
			C-186.995-657.294-215.793-698.676-227.075-694.997z"/>
		<path display="inline" fill="#FFFFFF" d="M-124.106-775.155c-10.498,0.494-88.546,59.727-88.034,69.146
			c0.519,9.423,29.36,46.629,37.729,47.951c8.363,1.301,70.221-78.341,72.307-88.814
			C-100.019-757.368-113.635-775.694-124.106-775.155z"/>
		<path display="inline" fill="#FFFFFF" d="M190.828-1061.6c-10.932-15.145-35.498-16.26-56.115-3.016
			c-7.869-4.009-17.022-7.233-27.767-9.215c0,0-391.393,317.515-477.854,378.833c0,0-3.302,7.003-8.776,18.407
			c98.109,68.715,86.957,120.568,86.957,120.568c-27.149-66.916-95.885-102.037-95.905-102.037
			c-24.626,50.699-68.835,139.307-92.308,172.114c0,0-0.04,18.015,22.025,29.48c0,0,150.072-101.024,193.329-109.639
			c0,0,23.883-23.283,60.697-58.922c-20.121,10.308-43.197,20.062-52.827,20.659c-16.772,1.053-36.153-39.437-34.583-53.776
			c1.57-14.338,153.521-139.574,176.038-137.984c22.54,1.57,29.875,22.518,30.414,37.725c0.205,6.548-13.655,26.546-30.414,48.012
			C-3.001-819.059,139.923-954.232,180.826-984.23c0,0,0.413-10.661-3.141-24.688C195.371-1024.268,201.382-1046.932,190.828-1061.6
			z M-424.576-479.003c0,0-2.542-32.478-33.638-43.818C-458.214-522.821-405.985-546.456-424.576-479.003z"/>
	</g>
	<path display="none" opacity="0.5" fill="#71C8EA" enable-background="new    " d="M1143.97-745.34l3.334,3.333
		c0,0,17-13.666,32.5-11.833c0,0,21-27.999,50-37.833c0,0,17.666-9.834,7.166-30.667s-24.326-12.938-31.166-8
		c-9.584,6.916-39.771,40.322-51.5,56.333C1154.304-774.007,1157.804-757.673,1143.97-745.34z"/>
	<g>
		<path d="M10.938,22.809c-1.562-1.005-1.785-5.748,1.897-13.114L9.822,7.908c0,0-1.34,3.795-9.822,7.701l1.674,3.906l4.465-2.688
			c0,0-6.139,12.621-0.893,14.854c5.246,2.232,12.725-8.036,12.725-8.036L16.52,19.18C16.52,19.181,12.501,23.812,10.938,22.809z"/>
		<ellipse transform="matrix(0.897 -0.4421 0.4421 0.897 0.0089 6.813)" cx="14.621" cy="3.387" rx="4.13" ry="3.181"/>
	</g>
</g>
</svg>
