<?xml version="1.0" encoding="utf-8"?>
<!-- Generator: Adobe Illustrator 16.0.4, SVG Export Plug-In . SVG Version: 6.00 Build 0)  -->
<!DOCTYPE svg PUBLIC "-//W3C//DTD SVG 1.1//EN" "http://www.w3.org/Graphics/SVG/1.1/DTD/svg11.dtd">
<svg version="1.1" fill="rgb(0, 14, 156)" xmlns="http://www.w3.org/2000/svg" xmlns:xlink="http://www.w3.org/1999/xlink" x="0px" y="0px"
	 width="32px" height="32px" viewBox="0 0 32 32" enable-background="new 0 0 32 32" xml:space="preserve">
<g id="Fondo_1_" display="none">
	<rect id="Fondo" x="-681.957" y="-2171.523" display="inline" fill="#FB6E92" width="1000" height="2438.351"/>
</g>
<g id="Guias" display="none">
</g>
<g id="Icons">
	<g display="none" opacity="0.2">
		<path display="inline" fill="#FFFFFF" d="M-271.947-695.003c-11.282,3.636-35.885,28.281-38.51,36.153
			c-2.621,7.851,12.065,36.154,18.865,37.705c6.793,1.59,56.584-20.436,58.154-28.284
			C-231.867-657.3-260.665-698.682-271.947-695.003z"/>
		<path display="inline" fill="#FFFFFF" d="M-168.979-775.161c-10.498,0.494-88.546,59.726-88.034,69.146
			c0.519,9.423,29.36,46.629,37.729,47.951c8.363,1.301,70.221-78.341,72.307-88.814
			C-144.891-757.374-158.507-775.7-168.979-775.161z"/>
		<path display="inline" fill="#FFFFFF" d="M145.956-1061.605c-10.933-15.145-35.498-16.26-56.115-3.016
			c-7.87-4.009-17.022-7.233-27.767-9.215c0,0-391.393,317.515-477.854,378.833c0,0-3.302,7.003-8.776,18.407
			c98.109,68.715,86.957,120.568,86.957,120.568c-27.149-66.916-95.885-102.037-95.905-102.037
			c-24.626,50.699-68.835,139.307-92.308,172.114c0,0-0.04,18.015,22.025,29.48c0,0,150.072-101.024,193.329-109.639
			c0,0,23.883-23.283,60.697-58.922c-20.121,10.308-43.197,20.062-52.827,20.659c-16.772,1.053-36.153-39.437-34.583-53.776
			c1.57-14.338,153.521-139.574,176.038-137.984c22.54,1.57,29.875,22.518,30.414,37.725c0.205,6.548-13.655,26.546-30.414,48.012
			c113.26-108.668,256.184-243.842,297.086-273.84c0,0,0.414-10.661-3.141-24.688
			C150.498-1024.273,156.512-1046.938,145.956-1061.605z M-469.448-479.009c0,0-2.542-32.478-33.638-43.818
			C-503.086-522.827-450.857-546.462-469.448-479.009z"/>
	</g>
	<path display="none" opacity="0.5" fill="#71C8EA" enable-background="new    " d="M1099.099-745.346l3.333,3.333
		c0,0,17-13.666,32.5-11.833c0,0,21-27.999,50-37.833c0,0,17.667-9.834,7.167-30.667s-24.327-12.938-31.167-8
		c-9.583,6.916-39.771,40.322-51.5,56.333C1109.432-774.013,1112.932-757.679,1099.099-745.346z"/>
	<path d="M16,0C7.164,0,0,7.163,0,16s7.164,16,16,16s16-7.163,16-16S24.836,0,16,0z M12.865,26.788
		c-3.607-1.533,0.613-10.211,0.613-10.211l-3.07,1.848l-1.15-2.686c5.832-2.686,6.752-5.295,6.752-5.295l2.072,1.229
		c-2.531,5.063-2.379,8.324-1.305,9.017c1.074,0.689,3.836-2.494,3.836-2.494l0.998,3.068
		C21.611,21.264,16.471,28.323,12.865,26.788z M20.277,9.298c-1.408,0.693-2.98,0.377-3.517-0.707
		c-0.533-1.082,0.175-2.523,1.582-3.216c1.406-0.694,2.979-0.377,3.515,0.706C22.391,7.165,21.684,8.604,20.277,9.298z"/>
</g>
</svg>
