<?xml version="1.0" encoding="utf-8"?>
<!-- Generator: Adobe Illustrator 16.0.4, SVG Export Plug-In . SVG Version: 6.00 Build 0)  -->
<!DOCTYPE svg PUBLIC "-//W3C//DTD SVG 1.1//EN" "http://www.w3.org/Graphics/SVG/1.1/DTD/svg11.dtd">
<svg version="1.1" fill="rgb(0, 14, 156)" xmlns="http://www.w3.org/2000/svg" xmlns:xlink="http://www.w3.org/1999/xlink" x="0px" y="0px"
	 width="32px" height="27.064px" viewBox="0 0 32 27.064" enable-background="new 0 0 32 27.064" xml:space="preserve">
<g id="Fondo_1_" display="none">
	<rect id="Fondo" x="-733.955" y="-2174.24" display="inline" fill="#FB6E92" width="1000" height="2438.352"/>
</g>
<g id="Guias" display="none">
</g>
<g id="Icons">
	<g display="none" opacity="0.2">
		<path display="inline" fill="#FFFFFF" d="M-323.945-697.719c-11.282,3.636-35.885,28.281-38.51,36.153
			c-2.621,7.851,12.065,36.153,18.865,37.705c6.793,1.59,56.584-20.437,58.154-28.284
			C-283.865-660.016-312.663-701.397-323.945-697.719z"/>
		<path display="inline" fill="#FFFFFF" d="M-220.977-777.877c-10.498,0.494-88.546,59.727-88.034,69.146
			c0.519,9.423,29.36,46.629,37.729,47.95c8.363,1.302,70.221-78.341,72.307-88.813
			C-196.889-760.09-210.505-778.416-220.977-777.877z"/>
		<path display="inline" fill="#FFFFFF" d="M93.958-1064.322c-10.933-15.145-35.498-16.26-56.115-3.016
			c-7.87-4.009-17.022-7.233-27.767-9.215c0,0-391.393,317.515-477.854,378.833c0,0-3.302,7.003-8.776,18.407
			c98.109,68.715,86.957,120.567,86.957,120.567c-27.149-66.916-95.885-102.037-95.905-102.037
			c-24.626,50.699-68.835,139.308-92.308,172.114c0,0-0.04,18.016,22.025,29.48c0,0,150.072-101.024,193.329-109.64
			c0,0,23.883-23.282,60.697-58.922c-20.121,10.309-43.197,20.062-52.827,20.659c-16.772,1.053-36.153-39.437-34.583-53.776
			c1.57-14.338,153.521-139.573,176.038-137.983c22.54,1.569,29.875,22.518,30.414,37.725c0.205,6.548-13.655,26.546-30.414,48.012
			c113.26-108.668,256.184-243.842,297.086-273.84c0,0,0.414-10.661-3.141-24.688C98.5-1026.99,104.514-1049.653,93.958-1064.322z
			 M-521.446-481.725c0,0-2.542-32.479-33.638-43.818C-555.084-525.543-502.855-549.178-521.446-481.725z"/>
	</g>
	<path display="none" opacity="0.5" fill="#71C8EA" enable-background="new    " d="M1047.101-748.062l3.333,3.333
		c0,0,17-13.666,32.5-11.833c0,0,21-27.999,50-37.833c0,0,17.667-9.834,7.167-30.667s-24.327-12.938-31.167-8
		c-9.583,6.916-39.771,40.321-51.5,56.333C1057.434-776.729,1060.934-760.395,1047.101-748.062z"/>
	<g>
		<path d="M25.432,3.714c0.397-0.35-0.461-4.124-1.588-3.677C22.719,0.485,25.034,4.065,25.432,3.714z"/>
		<path d="M27.243,3.784c0.518,0.113,3.042-2.817,2.014-3.461C28.229-0.319,26.725,3.672,27.243,3.784z"/>
		<path d="M28.062,5.455c0.254,0.466,4.117,0.46,3.931-0.738S27.811,4.988,28.062,5.455z"/>
		<path d="M27.146,7.323c-0.168,0.504,2.468,3.335,3.218,2.381C31.109,8.75,27.314,6.82,27.146,7.323z"/>
		<path d="M23.688,6.269c-1.357,0-2.963-5.904-5.935-5.331c-1.817,0.353-2.813,2.275-3.132,3.28
			c-0.974-0.331-1.87-0.485-2.171-0.359c-0.657,0.278-1.504,1.984-1.715,2.429c-0.121-0.004-0.238-0.019-0.359-0.019
			C4.646,6.269,0,10.925,0,16.667s4.646,10.397,10.376,10.397c5.729,0,10.376-4.655,10.376-10.397c0-3.217-1.458-6.091-3.747-7.997
			c0.336-0.641,0.782-1.569,0.782-2.007c0-0.655-0.712-1.275-1.62-1.772c0.349-0.832,1.083-2.216,2.024-2.33
			c1.598-0.195,3.32,5.133,5.154,5.3c1.832,0.167,2.967-2.117,2.967-2.117L25.271,4.9C25.271,4.9,24.475,6.269,23.688,6.269z
			 M8.149,13.828c-1,1.814-2.748,2.77-3.905,2.128c-1.156-0.639-1.283-2.629-0.284-4.443c0.999-1.816,2.748-2.77,3.903-2.129
			C9.022,10.022,9.147,12.012,8.149,13.828z"/>
	</g>
</g>
</svg>
