<?xml version="1.0" encoding="utf-8"?>
<!-- Generator: Adobe Illustrator 16.0.4, SVG Export Plug-In . SVG Version: 6.00 Build 0)  -->
<!DOCTYPE svg PUBLIC "-//W3C//DTD SVG 1.1//EN" "http://www.w3.org/Graphics/SVG/1.1/DTD/svg11.dtd">
<svg version="1.1" fill="rgb(0, 14, 156)" xmlns="http://www.w3.org/2000/svg" xmlns:xlink="http://www.w3.org/1999/xlink" x="0px" y="0px"
	 width="26.412px" height="32px" viewBox="0 0 26.412 32" enable-background="new 0 0 26.412 32" xml:space="preserve">
<g id="Fondo_1_" display="none">
	<rect id="Fondo" x="-789.36" y="-2171.521" display="inline" fill="#FB6E92" width="1000" height="2438.351"/>
</g>
<g id="Guias" display="none">
</g>
<g id="Icons">
	<g display="none" opacity="0.2">
		<path display="inline" fill="#FFFFFF" d="M-379.351-695c-11.282,3.636-35.885,28.281-38.51,36.153
			c-2.621,7.851,12.065,36.154,18.865,37.705c6.793,1.59,56.584-20.436,58.154-28.284C-339.271-657.297-368.068-698.679-379.351-695
			z"/>
		<path display="inline" fill="#FFFFFF" d="M-276.382-775.158c-10.498,0.494-88.546,59.726-88.034,69.146
			c0.519,9.423,29.36,46.629,37.729,47.951c8.363,1.301,70.221-78.341,72.307-88.814
			C-252.294-757.371-265.91-775.697-276.382-775.158z"/>
		<path display="inline" fill="#FFFFFF" d="M38.554-1061.603c-10.933-15.145-35.499-16.26-56.116-3.016
			c-7.87-4.009-17.023-7.233-27.767-9.215c0,0-391.393,317.515-477.854,378.833c0,0-3.302,7.003-8.776,18.407
			c98.109,68.715,86.957,120.568,86.957,120.568c-27.149-66.916-95.885-102.037-95.905-102.037
			c-24.626,50.699-68.835,139.307-92.308,172.114c0,0-0.04,18.015,22.025,29.48c0,0,150.072-101.024,193.329-109.639
			c0,0,23.883-23.283,60.697-58.922c-20.121,10.308-43.197,20.062-52.827,20.659c-16.771,1.053-36.153-39.437-34.583-53.776
			c1.57-14.338,153.521-139.574,176.038-137.984c22.54,1.57,29.875,22.518,30.414,37.725c0.205,6.548-13.655,26.546-30.414,48.012
			C-155.276-819.062-12.353-954.235,28.55-984.233c0,0,0.414-10.661-3.14-24.688C43.095-1024.271,49.106-1046.935,38.554-1061.603z
			 M-576.852-479.006c0,0-2.542-32.478-33.638-43.818C-610.489-522.824-558.261-546.459-576.852-479.006z"/>
	</g>
	<path display="none" opacity="0.5" fill="#71C8EA" enable-background="new    " d="M991.695-745.343l3.333,3.333
		c0,0,17-13.666,32.5-11.833c0,0,21-27.999,50-37.833c0,0,17.667-9.834,7.167-30.667s-24.327-12.938-31.167-8
		c-9.583,6.916-39.771,40.322-51.5,56.333C1002.028-774.01,1005.528-757.676,991.695-745.343z"/>
	<path d="M26.407,15.174c0.289-0.986-12.59-15.607-13.978-15.164C11.04,0.453-0.795,15.313,0.042,16.221
		c0.225,0.241,2.185,0.351,4.946,0.36l2.099,8.017C4.821,24.799,3.22,24.98,3.12,25.079c-0.229,0.229-0.239,1.573-0.17,2.61
		c-1.333,0.115-2.172,0.211-2.235,0.276c-0.361,0.359-0.181,3.486,0,3.817c0.181,0.331,25.078,0.24,25.38,0
		c0.301-0.24,0.241-4.75,0-5.172c-0.044-0.075-0.871-0.092-2.203-0.065c-0.002-1.263-0.076-2.601-0.201-2.821
		c-0.065-0.113-1.543-0.094-3.678,0.002l0.944-7.737C24.09,15.75,26.321,15.464,26.407,15.174z M10.944,8.519
		c0.381-1.766,1.822-2.953,3.219-2.652c1.396,0.301,2.219,1.975,1.838,3.742c-0.309,1.428-1.309,2.477-2.419,2.668l-0.821-0.022
		C11.379,11.939,10.564,10.274,10.944,8.519z M8.738,16.547c0.802-0.016,1.627-0.036,2.464-0.062l0.618,7.738
		c-0.568,0.041-1.131,0.084-1.679,0.125L8.738,16.547z M16.92,23.889c-0.657,0.038-1.338,0.082-2.026,0.127l-0.013-7.668
		c0.804-0.036,1.599-0.075,2.374-0.118L16.92,23.889z"/>
</g>
</svg>
