<?xml version="1.0" encoding="utf-8"?>
<!-- Generator: Adobe Illustrator 16.0.4, SVG Export Plug-In . SVG Version: 6.00 Build 0)  -->
<!DOCTYPE svg PUBLIC "-//W3C//DTD SVG 1.1//EN" "http://www.w3.org/Graphics/SVG/1.1/DTD/svg11.dtd">
<svg version="1.1" fill="rgb(0, 14, 156)" xmlns="http://www.w3.org/2000/svg" xmlns:xlink="http://www.w3.org/1999/xlink" x="0px" y="0px"
	 width="29.754px" height="32px" viewBox="0 0 29.754 32" enable-background="new 0 0 29.754 32" xml:space="preserve">
<g id="Fondo_1_" display="none">
	<rect id="Fondo" x="-839.185" y="-2171.518" display="inline" fill="#FB6E92" width="1000" height="2438.351"/>
</g>
<g id="Guias" display="none">
</g>
<g id="Icons">
	<g display="none" opacity="0.2">
		<path display="inline" fill="#FFFFFF" d="M-429.176-694.997c-11.282,3.636-35.885,28.281-38.51,36.153
			c-2.621,7.851,12.065,36.154,18.865,37.705c6.793,1.59,56.584-20.437,58.154-28.284
			C-389.096-657.294-417.894-698.676-429.176-694.997z"/>
		<path display="inline" fill="#FFFFFF" d="M-326.207-775.155c-10.498,0.494-88.546,59.727-88.034,69.146
			c0.519,9.423,29.36,46.629,37.729,47.951c8.363,1.301,70.221-78.341,72.307-88.814
			C-302.119-757.368-315.735-775.694-326.207-775.155z"/>
		<path display="inline" fill="#FFFFFF" d="M-11.272-1061.6c-10.932-15.145-35.498-16.26-56.115-3.016
			c-7.87-4.009-17.023-7.233-27.767-9.215c0,0-391.393,317.515-477.854,378.833c0,0-3.302,7.003-8.776,18.407
			c98.109,68.715,86.957,120.568,86.957,120.568c-27.149-66.916-95.885-102.037-95.905-102.037
			c-24.626,50.699-68.835,139.307-92.308,172.114c0,0-0.04,18.015,22.025,29.48c0,0,150.072-101.024,193.329-109.639
			c0,0,23.883-23.283,60.697-58.922c-20.121,10.308-43.197,20.062-52.827,20.659c-16.772,1.053-36.153-39.437-34.583-53.776
			c1.57-14.338,153.521-139.574,176.038-137.984c22.54,1.57,29.875,22.518,30.414,37.725c0.205,6.548-13.655,26.546-30.414,48.012
			C-205.102-819.059-62.178-954.232-21.275-984.23c0,0,0.414-10.661-3.14-24.688C-6.73-1024.268-0.718-1046.932-11.272-1061.6z
			 M-626.677-479.003c0,0-2.542-32.478-33.638-43.818C-660.314-522.821-608.086-546.456-626.677-479.003z"/>
	</g>
	<path display="none" opacity="0.5" fill="#71C8EA" enable-background="new    " d="M941.87-745.34l3.334,3.333
		c0,0,17-13.666,32.5-11.833c0,0,21-27.999,50-37.833c0,0,17.666-9.834,7.166-30.667s-24.326-12.938-31.166-8
		c-9.584,6.916-39.771,40.322-51.5,56.333C952.204-774.007,955.704-757.673,941.87-745.34z"/>
	<g>
		<path d="M21.766,8.584c-0.669-1.004-4.451-0.472-6.193-0.168c-2.186-3.993-4.231-7.309-4.762-7.426
			C9.557,0.712,2.625,8.385,6.258,15.93c-0.196-0.078-0.403-0.142-0.622-0.177c-1.672-0.269-3.261,0.976-3.553,2.774
			c-0.251,1.557,0.557,3.015,1.857,3.559C0.502,23.363,0,32,0,32h9.635c0,0-0.479-8.271-3.718-9.826
			c1.115-0.354,2.015-1.363,2.225-2.673c0.037-0.228,0.051-0.451,0.044-0.672c5.073,5.89,12.643,4.698,13.58,3.629
			c0.404-0.461-1.016-3.86-2.96-7.819C19.926,13.16,22.454,9.616,21.766,8.584z"/>
		<path d="M21.485,3.72c-0.035-0.013-0.072-0.02-0.109-0.031L20.93,5.057c0.037,0.011,0.074,0.018,0.111,0.03
			c2.699,0.878,4.176,3.778,3.297,6.478c-0.008,0.018-0.016,0.035-0.021,0.051l1.367,0.446c0.007-0.018,0.018-0.034,0.021-0.052
			C26.831,8.555,24.94,4.843,21.485,3.72z"/>
		<path d="M23.151,0.039C23.102,0.025,23.054,0.014,23.004,0l-0.586,1.794c0.052,0.016,0.1,0.024,0.146,0.04
			c3.545,1.154,6.359,5.742,4.913,10.26c-0.009,0.024-0.019,0.044-0.026,0.069l1.797,0.583c0.006-0.023,0.019-0.043,0.025-0.068
			C31.043,6.917,27.687,1.517,23.151,0.039z"/>
	</g>
</g>
</svg>
