<?xml version="1.0" encoding="utf-8"?>
<!-- Generator: Adobe Illustrator 16.0.4, SVG Export Plug-In . SVG Version: 6.00 Build 0)  -->
<!DOCTYPE svg PUBLIC "-//W3C//DTD SVG 1.1//EN" "http://www.w3.org/Graphics/SVG/1.1/DTD/svg11.dtd">
<svg version="1.1" fill="rgb(0, 14, 156)" xmlns="http://www.w3.org/2000/svg" xmlns:xlink="http://www.w3.org/1999/xlink" x="0px" y="0px"
	 width="26.165px" height="32px" viewBox="0 0 26.165 32" enable-background="new 0 0 26.165 32" xml:space="preserve">
<g id="Fondo_1_" display="none">
	<rect id="Fondo" x="-112.929" y="-2235.467" display="inline" fill="#FB6E92" width="1000" height="2438.35"/>
</g>
<g id="Guias" display="none">
</g>
<g id="Icons">
	<g display="none" opacity="0.2">
		<path display="inline" fill="#FFFFFF" d="M297.081-758.946c-11.281,3.636-35.885,28.281-38.51,36.153
			c-2.621,7.851,12.064,36.154,18.865,37.705c6.793,1.59,56.584-20.436,58.154-28.284
			C337.161-721.243,308.364-762.625,297.081-758.946z"/>
		<path display="inline" fill="#FFFFFF" d="M400.049-839.104c-10.498,0.494-88.547,59.726-88.035,69.146
			c0.52,9.423,29.361,46.629,37.73,47.951c8.363,1.301,70.221-78.341,72.307-88.814
			C424.137-821.317,410.522-839.644,400.049-839.104z"/>
		<path display="inline" fill="#FFFFFF" d="M714.985-1125.549c-10.934-15.145-35.498-16.26-56.115-3.016
			c-7.871-4.009-17.023-7.233-27.768-9.215c0,0-391.393,317.515-477.854,378.833c0,0-3.303,7.003-8.776,18.407
			c98.108,68.715,86.957,120.568,86.957,120.568c-27.149-66.916-95.886-102.037-95.905-102.037
			c-24.626,50.699-68.835,139.307-92.309,172.114c0,0-0.039,18.015,22.025,29.48c0,0,150.072-101.024,193.329-109.639
			c0,0,23.884-23.283,60.696-58.922c-20.12,10.308-43.196,20.062-52.826,20.659c-16.771,1.053-36.152-39.437-34.583-53.776
			c1.569-14.338,153.521-139.574,176.038-137.984c22.539,1.57,29.875,22.519,30.414,37.725c0.205,6.548-13.654,26.546-30.414,48.012
			c113.258-108.669,256.182-243.843,297.084-273.841c0,0,0.414-10.661-3.141-24.688
			C719.526-1088.217,725.54-1110.881,714.985-1125.549z M99.581-542.952c0,0-2.543-32.478-33.639-43.818
			C65.942-586.771,118.17-610.405,99.581-542.952z"/>
	</g>
	<path display="none" opacity="0.5" fill="#71C8EA" enable-background="new    " d="M1668.125-809.289l3.334,3.333
		c0,0,17-13.666,32.5-11.833c0,0,21-27.999,50-37.833c0,0,17.666-9.834,7.166-30.667s-24.326-12.937-31.166-8
		c-9.584,6.916-39.771,40.322-51.5,56.333C1678.459-837.956,1681.959-821.622,1668.125-809.289z"/>
	<g>
		<path d="M9.126,21.146c-0.685,0.918-1.253,1.894-1.657,2.651l4.884,7.4c0,0,0.994,1.371,2.255,0.527
			c1.391-0.93,0.299-2.277,0.299-2.277L9.126,21.146z"/>
		<path d="M23.17,11.392l1.358-3.431l-2.795,0.703l0.919-3.355l-3.494,0.193L18.902,0c0,0-1.299,4.606-4.413,5.741
			C12.776,6.364,8.397,3.15,5.808,4.309C1.138,6.397,0,12.484,0,12.484l6.799,10.3c0,0,2.491-5.796,5.595-6.78
			c2.635-0.836,4.729,1.969,8.323,1.312c3.593-0.657,5.447-7.041,5.447-7.041L23.17,11.392z"/>
	</g>
</g>
</svg>
