<?xml version="1.0" encoding="utf-8"?>
<!-- Generator: Adobe Illustrator 16.0.4, SVG Export Plug-In . SVG Version: 6.00 Build 0)  -->
<!DOCTYPE svg PUBLIC "-//W3C//DTD SVG 1.1//EN" "http://www.w3.org/Graphics/SVG/1.1/DTD/svg11.dtd">
<svg version="1.1" fill="rgb(0, 14, 156)" xmlns="http://www.w3.org/2000/svg" xmlns:xlink="http://www.w3.org/1999/xlink" x="0px" y="0px"
	 width="26.252px" height="32px" viewBox="0 0 26.252 32" enable-background="new 0 0 26.252 32" xml:space="preserve">
<g id="Fondo_1_" display="none">
	<rect id="Fondo" x="-164.966" y="-2235.521" display="inline" fill="#FB6E92" width="1000" height="2438.351"/>
</g>
<g id="Guias" display="none">
</g>
<g id="Icons">
	<g display="none" opacity="0.2">
		<path display="inline" fill="#FFFFFF" d="M245.043-759.001c-11.282,3.636-35.885,28.281-38.51,36.153
			c-2.621,7.851,12.065,36.154,18.864,37.705c6.793,1.59,56.584-20.436,58.154-28.284
			C285.123-721.298,256.325-762.68,245.043-759.001z"/>
		<path display="inline" fill="#FFFFFF" d="M348.012-839.159c-10.498,0.494-88.546,59.726-88.034,69.146
			c0.52,9.423,29.36,46.629,37.729,47.951c8.363,1.301,70.221-78.341,72.307-88.814C372.1-821.372,358.483-839.698,348.012-839.159z
			"/>
		<path display="inline" fill="#FFFFFF" d="M662.946-1125.604c-10.933-15.145-35.498-16.26-56.115-3.016
			c-7.87-4.009-17.023-7.233-27.767-9.215c0,0-391.394,317.515-477.854,378.833c0,0-3.302,7.003-8.775,18.407
			c98.108,68.715,86.957,120.568,86.957,120.568c-27.149-66.916-95.886-102.037-95.906-102.037
			C58.86-671.363,14.651-582.756-8.821-549.948c0,0-0.04,18.015,22.025,29.48c0,0,150.072-101.024,193.329-109.639
			c0,0,23.883-23.283,60.696-58.922c-20.121,10.309-43.196,20.062-52.826,20.659c-16.772,1.053-36.153-39.437-34.584-53.776
			c1.57-14.338,153.521-139.574,176.039-137.984c22.54,1.57,29.875,22.518,30.413,37.725c0.205,6.548-13.654,26.546-30.413,48.012
			c113.258-108.669,256.182-243.843,297.084-273.841c0,0,0.414-10.661-3.141-24.688
			C667.488-1088.271,673.501-1110.936,662.946-1125.604z M47.542-543.007c0,0-2.542-32.478-33.639-43.818
			C13.903-586.825,66.133-610.46,47.542-543.007z"/>
	</g>
	<path display="none" opacity="0.5" fill="#71C8EA" enable-background="new    " d="M1616.089-809.344l3.333,3.333
		c0,0,17-13.666,32.5-11.833c0,0,21-27.999,50-37.833c0,0,17.667-9.834,7.167-30.667s-24.327-12.938-31.167-8
		c-9.583,6.916-39.771,40.322-51.5,56.333C1626.422-838.011,1629.922-821.677,1616.089-809.344z"/>
	<g>
		<path d="M18.965,0c0,0-1.303,4.606-4.427,5.74c-1.719,0.623-6.112-2.59-8.71-1.432C1.141,6.396,0,12.482,0,12.482l6.821,10.301
			c0,0,2.5-5.797,5.614-6.78c2.643-0.835,4.746,1.968,8.35,1.313c3.604-0.656,5.467-7.042,5.467-7.042L18.965,0z"/>
		<path d="M9.156,21.145c-0.688,0.92-1.258,1.894-1.663,2.653l4.901,7.4c0,0,0.996,1.369,2.263,0.525
			c1.395-0.93,0.3-2.275,0.3-2.275L9.156,21.145z"/>
	</g>
</g>
</svg>
