<?xml version="1.0" encoding="utf-8"?>
<!-- Generator: Adobe Illustrator 16.0.4, SVG Export Plug-In . SVG Version: 6.00 Build 0)  -->
<!DOCTYPE svg PUBLIC "-//W3C//DTD SVG 1.1//EN" "http://www.w3.org/Graphics/SVG/1.1/DTD/svg11.dtd">
<svg version="1.1" fill="rgb(0, 14, 156)" xmlns="http://www.w3.org/2000/svg" xmlns:xlink="http://www.w3.org/1999/xlink" x="0px" y="0px"
	 width="32px" height="30.748px" viewBox="0 0 32 30.748" enable-background="new 0 0 32 30.748" xml:space="preserve">
<g id="Fondo_1_" display="none">
	<rect id="Fondo" x="-213.966" y="-2236.148" display="inline" fill="#FB6E92" width="1000" height="2438.351"/>
</g>
<g id="Guias" display="none">
</g>
<g id="Icons">
	<g display="none" opacity="0.2">
		<path display="inline" fill="#FFFFFF" d="M196.043-759.628c-11.281,3.636-35.885,28.281-38.51,36.153
			c-2.621,7.851,12.064,36.154,18.865,37.705c6.793,1.59,56.584-20.436,58.153-28.284
			C236.123-721.925,207.325-763.307,196.043-759.628z"/>
		<path display="inline" fill="#FFFFFF" d="M299.012-839.786c-10.498,0.494-88.546,59.726-88.033,69.146
			c0.519,9.423,29.359,46.629,37.729,47.951c8.363,1.301,70.221-78.341,72.307-88.814
			C323.1-821.999,309.483-840.325,299.012-839.786z"/>
		<path display="inline" fill="#FFFFFF" d="M613.946-1126.23c-10.933-15.145-35.498-16.26-56.115-3.016
			c-7.87-4.009-17.023-7.233-27.767-9.215c0,0-391.394,317.515-477.854,378.833c0,0-3.302,7.003-8.776,18.407
			c98.109,68.715,86.957,120.568,86.957,120.568C103.242-687.569,34.506-722.69,34.486-722.69
			C9.86-671.99-34.349-583.383-57.821-550.575c0,0-0.04,18.015,22.025,29.48c0,0,150.071-101.024,193.329-109.639
			c0,0,23.883-23.283,60.697-58.922c-20.121,10.308-43.197,20.062-52.828,20.659c-16.771,1.053-36.152-39.437-34.582-53.776
			c1.57-14.338,153.521-139.574,176.038-137.984c22.54,1.57,29.875,22.518,30.413,37.725c0.205,6.548-13.654,26.546-30.413,48.012
			c113.258-108.669,256.182-243.843,297.084-273.841c0,0,0.414-10.661-3.141-24.688
			C618.488-1088.898,624.501-1111.562,613.946-1126.23z M-1.458-543.634c0,0-2.542-32.478-33.638-43.818
			C-35.096-587.452,17.133-611.087-1.458-543.634z"/>
	</g>
	<path display="none" opacity="0.5" fill="#71C8EA" enable-background="new    " d="M1567.089-809.971l3.333,3.333
		c0,0,17-13.666,32.5-11.833c0,0,21-27.999,50-37.833c0,0,17.667-9.834,7.167-30.667s-24.327-12.938-31.167-8
		c-9.583,6.916-39.771,40.322-51.5,56.333C1577.422-838.638,1580.922-822.304,1567.089-809.971z"/>
	<g>
		<polygon points="20.707,28.592 0,7.473 0.429,10.742 20.35,30.748 30.971,22.342 32,19.254 		"/>
		<path d="M9.404,13.059c0.611,0,6.177,5.434,6.016,5.788c-0.161,0.353-1.152,1.033-1.534,1.284l7.132,6.499L32,19.254l-7.32-7.322
			c-0.44,0.37-1.084,0.868-1.367,0.868c-0.61,0-6.431-5.358-6.269-5.712c0.144-0.314,1.082-0.886,1.604-1.186l-1.78-1.516
			c0.815-0.752,2.526-1.985,3.55-1.69c2.239,0.642,3.63,5.108,5.596,6.1c1.965,0.991,4.191-0.918,4.191-0.918l-0.801-1.354
			c0,0-1.762,1.024-2.639,0.675c-1.509-0.604-2.673-5.567-6.217-6.28c-2.132-0.43-4.015,1.328-5.204,2.169L11.718,0L0,7.473
			l7.472,6.811C7.871,13.965,9.034,13.059,9.404,13.059z M25.99,19.455c0.242,0.903-0.582,1.91-1.844,2.252
			c-1.261,0.339-2.48-0.115-2.725-1.021c-0.242-0.902,0.582-1.908,1.844-2.25C24.525,18.097,25.746,18.556,25.99,19.455z
			 M22.402,15.997c0.274,1.02-0.655,2.154-2.079,2.54c-1.425,0.386-2.802-0.13-3.076-1.146c-0.274-1.021,0.655-2.157,2.08-2.542
			C20.751,14.466,22.127,14.979,22.402,15.997z M18.379,13.869c0.021,0.193-0.814,0.816-1.05,0.816
			c-0.236,0-1.736-1.244-1.695-1.502c0.043-0.257,0.837-0.752,1.095-0.771C16.986,12.391,18.359,13.678,18.379,13.869z
			 M15.871,11.596c0.021,0.192-0.815,0.814-1.051,0.814c-0.236,0-1.737-1.243-1.694-1.502c0.043-0.258,0.837-0.75,1.094-0.771
			C14.477,10.117,15.85,11.404,15.871,11.596z M6.915,5.403l1.776-1.244l1.461,1.36l1.852-1.254l1.755,1.663L11.917,7.16l1.56,1.449
			l-1.911,1.309l-1.539-1.494L8.195,9.646L6.509,7.982l1.806-1.221L6.915,5.403z"/>
	</g>
</g>
</svg>
