<?xml version="1.0" encoding="utf-8"?>
<!-- Generator: Adobe Illustrator 16.0.4, SVG Export Plug-In . SVG Version: 6.00 Build 0)  -->
<!DOCTYPE svg PUBLIC "-//W3C//DTD SVG 1.1//EN" "http://www.w3.org/Graphics/SVG/1.1/DTD/svg11.dtd">
<svg version="1.1" fill="rgb(0, 14, 156)" xmlns="http://www.w3.org/2000/svg" xmlns:xlink="http://www.w3.org/1999/xlink" x="0px" y="0px"
	 width="32px" height="29.432px" viewBox="0 0 32 29.432" enable-background="new 0 0 32 29.432" xml:space="preserve">
<g id="Fondo_1_" display="none">
	<rect id="Fondo" x="-265.812" y="-2237.51" display="inline" fill="#FB6E92" width="1000" height="2438.351"/>
</g>
<g id="Guias" display="none">
</g>
<g id="Icons">
	<g display="none" opacity="0.2">
		<path display="inline" fill="#FFFFFF" d="M144.198-760.989c-11.282,3.636-35.886,28.281-38.511,36.153
			c-2.621,7.851,12.065,36.153,18.865,37.705c6.793,1.59,56.584-20.437,58.154-28.284
			C184.277-723.286,155.48-764.668,144.198-760.989z"/>
		<path display="inline" fill="#FFFFFF" d="M247.167-841.147c-10.498,0.494-88.546,59.727-88.034,69.146
			c0.52,9.423,29.36,46.629,37.729,47.951c8.363,1.301,70.222-78.342,72.308-88.814C271.254-823.36,257.639-841.687,247.167-841.147
			z"/>
		<path display="inline" fill="#FFFFFF" d="M562.101-1127.592c-10.932-15.146-35.497-16.261-56.114-3.017
			c-7.87-4.009-17.023-7.232-27.768-9.215c0,0-391.393,317.515-477.854,378.833c0,0-3.302,7.003-8.776,18.407
			c98.109,68.715,86.957,120.567,86.957,120.567c-27.149-66.914-95.884-102.035-95.904-102.035
			c-24.626,50.698-68.835,139.307-92.308,172.113c0,0-0.04,18.016,22.025,29.48c0,0,150.073-101.024,193.329-109.639
			c0,0,23.883-23.283,60.697-58.923c-20.121,10.309-43.197,20.062-52.826,20.659c-16.772,1.053-36.154-39.437-34.584-53.775
			s153.521-139.574,176.039-137.984c22.539,1.57,29.875,22.518,30.413,37.725c0.205,6.548-13.655,26.546-30.413,48.013
			c113.258-108.669,256.182-243.844,297.083-273.842c0,0,0.414-10.66-3.14-24.688
			C566.643-1090.26,572.656-1112.924,562.101-1127.592z M-53.303-544.995c0,0-2.542-32.479-33.638-43.818
			C-86.941-588.813-34.712-612.448-53.303-544.995z"/>
	</g>
	<path display="none" opacity="0.5" fill="#71C8EA" enable-background="new    " d="M1515.244-811.332l3.333,3.333
		c0,0,17-13.666,32.5-11.833c0,0,21-27.999,50-37.833c0,0,17.667-9.834,7.167-30.667s-24.327-12.938-31.167-8
		c-9.583,6.916-39.771,40.322-51.5,56.333C1525.577-839.999,1529.077-823.665,1515.244-811.332z"/>
	<path d="M17.174,29.432c-4.49,0-12.092-3.351-16.416-9.547c-0.864-1.236-1.091-2.981-0.145-4.003
		c1.213-1.312,2.88-0.571,3.547-0.048c2.099,1.646,4.816,4.27,5.681,3.642c0.534-0.388-3.545-7.577-5.312-11.728
		c-0.55-1.292-0.516-2.893,0.795-3.572c1.836-0.951,2.958,0.508,3.692,1.7c2.331,3.789,4.03,8.548,4.613,8.402
		c0.584-0.146-0.813-7.347-0.521-11.936C13.194,0.997,14.342,0,15.585,0c1.09,0,2.458,0.757,2.562,2.33
		c0.319,4.823,0.16,11.709,0.631,11.852c0.574,0.173,1.895-5.585,3.654-9.253c0.519-1.075,1.785-1.858,3.098-1.312
		c1.447,0.604,1.49,2.176,1.166,3.242c-1.312,4.312-3.789,8.975-3.133,9.288c0.838,0.404,2.953-3.407,4.627-5.646
		c0.66-0.885,2.056-1.217,2.914-0.619c0.983,0.684,1.143,1.959,0.555,3.027c-1.16,2.106-3.975,5.771-4.525,7.342
		C26.083,23.242,23.161,29.432,17.174,29.432z"/>
</g>
</svg>
