<?xml version="1.0" encoding="utf-8"?>
<!-- Generator: Adobe Illustrator 16.0.4, SVG Export Plug-In . SVG Version: 6.00 Build 0)  -->
<!DOCTYPE svg PUBLIC "-//W3C//DTD SVG 1.1//EN" "http://www.w3.org/Graphics/SVG/1.1/DTD/svg11.dtd">
<svg version="1.1" fill="rgb(0, 14, 156)" xmlns="http://www.w3.org/2000/svg" xmlns:xlink="http://www.w3.org/1999/xlink" x="0px" y="0px"
	 width="22.854px" height="32px" viewBox="0 0 22.854 32" enable-background="new 0 0 22.854 32" xml:space="preserve">
<g id="Fondo_1_" display="none">
	<rect id="Fondo" x="-322.934" y="-2235.5" display="inline" fill="#FB6E92" width="1000.001" height="2438.352"/>
</g>
<g id="Guias" display="none">
</g>
<g id="Icons">
	<g display="none" opacity="0.2">
		<path display="inline" fill="#FFFFFF" d="M87.076-758.979c-11.282,3.636-35.886,28.281-38.511,36.153
			c-2.621,7.851,12.065,36.154,18.865,37.705c6.793,1.59,56.584-20.436,58.154-28.284
			C127.156-721.276,98.358-762.658,87.076-758.979z"/>
		<path display="inline" fill="#FFFFFF" d="M190.044-839.138c-10.498,0.494-88.546,59.726-88.034,69.146
			c0.519,9.423,29.36,46.629,37.729,47.951c8.362,1.301,70.221-78.341,72.307-88.814
			C214.132-821.351,200.516-839.677,190.044-839.138z"/>
		<path display="inline" fill="#FFFFFF" d="M504.979-1125.582c-10.932-15.145-35.497-16.26-56.114-3.016
			c-7.87-4.009-17.023-7.233-27.768-9.215c0,0-391.393,317.515-477.854,378.833c0,0-3.303,7.003-8.776,18.407
			c98.109,68.715,86.957,120.568,86.957,120.568C-5.725-686.92-74.46-722.041-74.48-722.041
			c-24.626,50.699-68.835,139.307-92.308,172.114c0,0-0.04,18.015,22.024,29.479c0,0,150.072-101.023,193.329-109.639
			c0,0,23.884-23.283,60.697-58.922c-20.121,10.308-43.197,20.062-52.827,20.659c-16.771,1.053-36.152-39.437-34.583-53.776
			c1.57-14.338,153.521-139.574,176.038-137.984c22.54,1.57,29.875,22.518,30.414,37.725c0.205,6.548-13.655,26.546-30.414,48.012
			c113.259-108.669,256.183-243.843,297.084-273.841c0,0,0.414-10.661-3.14-24.688
			C509.522-1088.25,515.534-1110.914,504.979-1125.582z M-110.425-542.985c0,0-2.542-32.478-33.639-43.818
			C-144.063-586.804-91.834-610.438-110.425-542.985z"/>
	</g>
	<path display="none" opacity="0.5" fill="#71C8EA" enable-background="new    " d="M1458.122-809.322l3.333,3.333
		c0,0,17-13.666,32.5-11.833c0,0,21-27.999,50-37.833c0,0,17.667-9.834,7.167-30.667s-24.327-12.937-31.167-8
		c-9.583,6.916-39.771,40.322-51.5,56.333C1468.455-837.989,1471.955-821.655,1458.122-809.322z"/>
	<g>
		<path d="M12.909,10.267c-0.413-0.05-0.848-0.058-1.29-0.036c-0.219-1.637-0.331-4.395,0.635-6.752
			c-0.953-0.96-1.79-1.59-2.003-1.547c-0.488,0.1-0.967,5.628,0.435,8.393c-0.925,0.145-1.883,0.422-2.829,0.848
			c1.439,1.037,2.789,2.149,4.027,3.289c1.825-0.163,3.737-0.227,5.677-0.146c-0.09-0.24-0.188-0.47-0.292-0.693
			c2.728-1.075,5.628-3.751,5.584-4.185C22.792,8.821,14.363,7.373,12.909,10.267z"/>
		<path d="M17.765,7.23c0.143-2.998-1.507-7.109-1.954-7.229c-0.514-0.134-3.754,5.277-3.278,8.319
			C13.62,7.361,15.781,7.139,17.765,7.23z"/>
		<path d="M19.078,7.258c0.391,0.027,0.771,0.064,1.131,0.112c1.373-2.124,2.236-4.66,2.042-4.958
			C22.1,2.181,20.4,2.569,18.565,3.355C18.902,4.612,19.141,6.029,19.078,7.258z"/>
		<path d="M0.831,19.033c-0.032,0.013-0.063,0.025-0.095,0.037c-0.271,0.783-0.483,1.613-0.625,2.494
			c-0.172,1.092-0.142,2.168,0.059,3.192c0.674-0.362,1.513-0.797,2.492-1.264C1.969,21.668,1.31,20.117,0.831,19.033z"/>
		<path d="M8.204,21.191c-0.794-1.45-1.583-2.739-2.31-3.852c-1.301,0.36-2.645,0.787-4.007,1.288
			c0.844,1.445,1.579,2.858,2.212,4.206C5.324,22.289,6.705,21.727,8.204,21.191z"/>
		<path d="M0.939,27.05c0.771,1.581,1.972,2.913,3.448,3.796c0.168-0.135,0.344-0.277,0.531-0.426
			c-0.447-1.686-0.973-3.339-1.509-4.876C2.587,26.01,1.761,26.516,0.939,27.05z"/>
		<path d="M9.945,14.672c-1.27-1.283-2.374-2.277-3.161-2.952c-0.815,0.466-1.608,1.038-2.35,1.712
			c0.575,0.612,1.127,1.24,1.653,1.875C7.291,15.064,8.587,14.846,9.945,14.672z"/>
		<path d="M18.222,21.43c0.068-0.539,0.111-1.082,0.129-1.621c-0.334,0.072-0.729,0.164-1.191,0.277
			C17.539,20.552,17.891,21,18.222,21.43z"/>
		<path d="M15.084,20.646c-1.258,0.367-2.726,0.844-4.322,1.453c0.653,1.135,1.231,2.225,1.729,3.23
			c1.355-0.762,2.813-1.499,4.35-2.167C16.266,22.286,15.678,21.445,15.084,20.646z"/>
		<path d="M7.288,31.34c0.06,0.221,0.111,0.412,0.154,0.585c1.545,0.214,3.224-0.021,4.93-0.829
			c-0.302-1.019-0.633-2.005-0.987-2.96C10.044,29.082,8.66,30.148,7.288,31.34z"/>
		<path d="M3.668,14.187c-0.58,0.622-1.116,1.316-1.591,2.077c0.798-0.221,1.678-0.445,2.633-0.662
			C4.32,15.052,3.968,14.577,3.668,14.187z"/>
		<path d="M13.231,26.885c0.518,1.125,0.917,2.09,1.205,2.82c1.465-1.355,2.519-3.255,3.162-5.344
			c-0.005-0.01-0.01-0.019-0.015-0.026C16.303,25.01,14.82,25.855,13.231,26.885z"/>
		<path d="M9.042,22.786c-1.317,0.553-2.695,1.187-4.101,1.921c0.713,1.668,1.262,3.173,1.673,4.42
			c1.163-0.855,2.538-1.799,4.081-2.744C10.169,25.114,9.611,23.912,9.042,22.786z"/>
		<path d="M14.183,19.469c-0.968-1.229-1.931-2.344-2.845-3.336c-1.232,0.209-2.563,0.479-3.954,0.82
			c0.92,1.229,1.753,2.465,2.499,3.674C11.246,20.193,12.688,19.796,14.183,19.469z"/>
		<path d="M13.316,15.832c1.099,1.092,2.095,2.186,2.985,3.229c0.678-0.112,1.367-0.203,2.058-0.281
			c-0.027-1.182-0.182-2.325-0.456-3.37C16.811,15.46,15.23,15.574,13.316,15.832z"/>
	</g>
</g>
</svg>
