<?xml version="1.0" encoding="utf-8"?>
<!-- Generator: Adobe Illustrator 16.0.4, SVG Export Plug-In . SVG Version: 6.00 Build 0)  -->
<!DOCTYPE svg PUBLIC "-//W3C//DTD SVG 1.1//EN" "http://www.w3.org/Graphics/SVG/1.1/DTD/svg11.dtd">
<svg version="1.1" fill="rgb(0, 14, 156)" xmlns="http://www.w3.org/2000/svg" xmlns:xlink="http://www.w3.org/1999/xlink" x="0px" y="0px"
	 width="30.402px" height="32px" viewBox="0 0 30.402 32" enable-background="new 0 0 30.402 32" xml:space="preserve">
<g id="Fondo_1_" display="none">
	<rect id="Fondo" x="-370.486" y="-2235.504" display="inline" fill="#FB6E92" width="999.999" height="2438.352"/>
</g>
<g id="Guias" display="none">
</g>
<g id="Icons">
	<g display="none" opacity="0.2">
		<path display="inline" fill="#FFFFFF" d="M39.523-758.983c-11.282,3.636-35.885,28.281-38.51,36.153
			c-2.621,7.851,12.064,36.154,18.864,37.705c6.793,1.59,56.584-20.436,58.154-28.284C79.604-721.28,50.806-762.662,39.523-758.983z
			"/>
		<path display="inline" fill="#FFFFFF" d="M142.492-839.142c-10.498,0.494-88.546,59.726-88.034,69.146
			c0.52,9.423,29.36,46.629,37.729,47.951c8.362,1.301,70.221-78.341,72.307-88.814C166.58-821.354,152.964-839.681,142.492-839.142
			z"/>
		<path display="inline" fill="#FFFFFF" d="M457.427-1125.586c-10.932-15.145-35.498-16.26-56.114-3.016
			c-7.87-4.009-17.023-7.233-27.768-9.215c0,0-391.393,317.515-477.854,378.833c0,0-3.302,7.003-8.776,18.407
			c98.109,68.715,86.957,120.568,86.957,120.568c-27.148-66.916-95.885-102.037-95.905-102.037
			c-24.626,50.699-68.835,139.307-92.308,172.114c0,0-0.04,18.015,22.025,29.48c0,0,150.071-101.024,193.329-109.639
			c0,0,23.883-23.283,60.696-58.922c-20.121,10.308-43.196,20.062-52.827,20.659C-7.889-667.301-27.27-707.791-25.7-722.13
			c1.57-14.338,153.521-139.574,176.038-137.984c22.54,1.57,29.875,22.519,30.414,37.725c0.205,6.548-13.654,26.546-30.414,48.012
			c113.259-108.669,256.182-243.843,297.084-273.841c0,0,0.414-10.661-3.14-24.688
			C461.969-1088.254,467.981-1110.918,457.427-1125.586z M-157.978-542.989c0,0-2.542-32.478-33.639-43.818
			C-191.615-586.808-139.387-610.442-157.978-542.989z"/>
	</g>
	<path display="none" opacity="0.5" fill="#71C8EA" enable-background="new    " d="M1410.569-809.326l3.333,3.333
		c0,0,17-13.666,32.5-11.833c0,0,21-27.999,50-37.833c0,0,17.667-9.834,7.167-30.667s-24.327-12.937-31.167-8
		c-9.583,6.916-39.771,40.322-51.5,56.333C1420.902-837.993,1424.402-821.659,1410.569-809.326z"/>
	<g>
		<path d="M25.509,5.113c-1.321-1.754-3.057-3.182-5.163-4.085C13.262-2.013,4.777,1.92,1.392,9.81
			c-2.926,6.812-1.08,14.342,4.038,18.229c-0.014-0.004-0.026-0.01-0.026-0.01s12.647,9.865,21.908-1.502
			C33.817,18.538,28.493,8.721,25.509,5.113z M25.566,19.918c-2.949,6.873-10.344,10.299-16.517,7.65
			C2.878,24.92,0.267,17.2,3.217,10.325c2.95-6.874,10.346-10.301,16.517-7.651C25.906,5.321,28.517,13.043,25.566,19.918z"/>
		<ellipse transform="matrix(-0.91 -0.4146 0.4146 -0.91 20.2165 34.0078)" cx="13.799" cy="14.81" rx="4.071" ry="5.039"/>
		<path d="M13.166,7.994c0.29-0.081,0.982-2.942-0.286-2.762S12.876,8.076,13.166,7.994z"/>
		<path d="M16.279,8.348c0.3,0.028,1.977-2.391,0.729-2.679C15.758,5.38,15.979,8.32,16.279,8.348z"/>
		<path d="M20.456,7.913c-0.954-0.855-2.182,1.824-1.934,1.993C18.771,10.076,21.408,8.77,20.456,7.913z"/>
		<path d="M19.571,12.917c0.17,0.247,3.103-0.014,2.525-1.157C21.518,10.617,19.401,12.668,19.571,12.917z"/>
		<path d="M19.425,15.521c0.002,0.301,2.572,1.736,2.738,0.466C22.33,14.717,19.424,15.22,19.425,15.521z"/>
		<path d="M18.159,18.562c-0.082,0.289,1.993,2.377,2.503,1.203C21.172,18.59,18.241,18.271,18.159,18.562z"/>
		<path d="M15.789,20.791c-0.199,0.227,0.768,3.006,1.735,2.168C18.494,22.121,15.988,20.564,15.789,20.791z"/>
		<path d="M13.147,21.816c-0.293,0.068-1.105,2.897,0.17,2.771C14.591,24.461,13.44,21.746,13.147,21.816z"/>
		<path d="M9.137,23.688c1.133,0.597,1.668-2.305,1.386-2.406S8.003,23.09,9.137,23.688z"/>
		<path d="M6.301,20.869c0.822,0.982,2.421-1.495,2.198-1.698C8.277,18.969,5.48,19.885,6.301,20.869z"/>
		<path d="M7.835,16.176c-0.139-0.268-3.081-0.367-2.647,0.84C5.621,18.221,7.974,16.442,7.835,16.176z"/>
		<path d="M7.911,13.423c0-0.301-2.56-1.753-2.735-0.483C5.001,14.209,7.91,13.724,7.911,13.423z"/>
		<path d="M9.055,11.285c0.133-0.27-1.521-2.703-2.239-1.643C6.098,10.703,8.921,11.555,9.055,11.285z"/>
		<path d="M10.919,9.46c0.188-0.235-0.924-2.96-1.848-2.073C8.148,8.277,10.732,9.697,10.919,9.46z"/>
	</g>
</g>
</svg>
