<?xml version="1.0" encoding="utf-8"?>
<!-- Generator: Adobe Illustrator 16.0.4, SVG Export Plug-In . SVG Version: 6.00 Build 0)  -->
<!DOCTYPE svg PUBLIC "-//W3C//DTD SVG 1.1//EN" "http://www.w3.org/Graphics/SVG/1.1/DTD/svg11.dtd">
<svg version="1.1" fill="rgb(0, 14, 156)" xmlns="http://www.w3.org/2000/svg" xmlns:xlink="http://www.w3.org/1999/xlink" x="0px" y="0px"
	 width="27.91px" height="32px" viewBox="0 0 27.91 32" enable-background="new 0 0 27.91 32" xml:space="preserve">
<g id="Fondo_1_" display="none">
	<rect id="Fondo" x="-423.18" y="-2235.523" display="inline" fill="#FB6E92" width="1000" height="2438.351"/>
</g>
<g id="Guias" display="none">
</g>
<g id="Icons">
	<g display="none" opacity="0.2">
		<path display="inline" fill="#FFFFFF" d="M-13.171-759.003c-11.282,3.636-35.885,28.281-38.51,36.153
			c-2.621,7.851,12.065,36.154,18.865,37.705c6.793,1.59,56.583-20.436,58.154-28.284C26.909-721.3-1.889-762.682-13.171-759.003z"
			/>
		<path display="inline" fill="#FFFFFF" d="M89.798-839.161C79.3-838.667,1.251-779.436,1.764-770.016
			c0.519,9.423,29.36,46.629,37.729,47.951c8.362,1.301,70.221-78.341,72.307-88.814C113.887-821.374,100.27-839.7,89.798-839.161z"
			/>
		<path display="inline" fill="#FFFFFF" d="M404.732-1125.605c-10.933-15.145-35.498-16.26-56.115-3.016
			c-7.87-4.009-17.023-7.233-27.768-9.215c0,0-391.393,317.515-477.854,378.833c0,0-3.302,7.003-8.776,18.407
			c98.109,68.715,86.957,120.568,86.957,120.568c-27.149-66.916-95.885-102.037-95.905-102.037
			c-24.626,50.699-68.835,139.307-92.308,172.114c0,0-0.04,18.015,22.025,29.48c0,0,150.072-101.024,193.329-109.639
			c0,0,23.883-23.283,60.697-58.922c-20.121,10.309-43.197,20.062-52.827,20.659c-16.772,1.053-36.153-39.437-34.583-53.776
			c1.57-14.338,153.521-139.574,176.038-137.984c22.541,1.57,29.875,22.518,30.414,37.725c0.205,6.548-13.654,26.546-30.414,48.012
			c113.258-108.669,256.183-243.843,297.084-273.841c0,0,0.414-10.661-3.14-24.688
			C409.274-1088.273,415.287-1110.938,404.732-1125.605z M-210.672-543.009c0,0-2.542-32.478-33.638-43.818
			C-244.31-586.827-192.081-610.462-210.672-543.009z"/>
	</g>
	<path display="none" opacity="0.5" fill="#71C8EA" enable-background="new    " d="M1357.875-809.346l3.333,3.333
		c0,0,17-13.666,32.5-11.833c0,0,21-27.999,50-37.833c0,0,17.667-9.834,7.167-30.667s-24.327-12.938-31.167-8
		c-9.583,6.916-39.771,40.322-51.5,56.333C1368.208-838.013,1371.708-821.679,1357.875-809.346z"/>
	<path d="M23.383,16.296c-0.611-0.137-1.223-0.151-1.822-0.067C16.318,8.406,9.551,5.1,5.996,3.826l0.353-0.54L1.689,0L0,2.58
		l5.067,2.666l0.364-0.558C8.13,7.5,9.736,11.771,10.626,15.465c-3.262,0.049-6.329,2.812-7.21,6.758
		c-1.002,4.489,1.208,8.805,4.938,9.637c3.73,0.834,7.567-2.131,8.568-6.618c0.989-4.431-1.152-8.683-4.791-9.596
		C11.737,11.846,9.079,6.58,9.079,6.58c3.899,1.6,8.802,6.579,11.026,10.062c-0.947,0.416-1.819,1.088-2.535,1.961
		c1.086,1.807,1.498,4.192,0.953,6.638c-0.271,1.213-0.754,2.311-1.381,3.256c0.774,1.006,1.824,1.731,3.068,2.009
		c3.26,0.729,6.612-1.863,7.489-5.785C28.575,20.795,26.643,17.023,23.383,16.296z M13.879,20.182c0,1.375-0.831,2.49-1.855,2.49
		s-1.856-1.115-1.856-2.49c0-1.373,0.832-2.488,1.856-2.488C13.049,17.691,13.879,18.809,13.879,20.182z M23.85,22.98
		c-1.025,0-1.855-1.114-1.855-2.489s0.83-2.489,1.855-2.489c1.024,0,1.855,1.114,1.855,2.489S24.874,22.98,23.85,22.98z"/>
</g>
</svg>
