<?xml version="1.0" encoding="utf-8"?>
<!-- Generator: Adobe Illustrator 16.0.4, SVG Export Plug-In . SVG Version: 6.00 Build 0)  -->
<!DOCTYPE svg PUBLIC "-//W3C//DTD SVG 1.1//EN" "http://www.w3.org/Graphics/SVG/1.1/DTD/svg11.dtd">
<svg version="1.1" fill="rgb(0, 14, 156)" xmlns="http://www.w3.org/2000/svg" xmlns:xlink="http://www.w3.org/1999/xlink" x="0px" y="0px"
	 width="31.244px" height="32px" viewBox="0 0 31.244 32" enable-background="new 0 0 31.244 32" xml:space="preserve">
<g id="Fondo_1_" display="none">
	<rect id="Fondo" x="-474.343" y="-2235.523" display="inline" fill="#FB6E92" width="1000" height="2438.351"/>
</g>
<g id="Guias" display="none">
</g>
<g id="Icons">
	<g display="none" opacity="0.2">
		<path display="inline" fill="#FFFFFF" d="M-64.334-759.003c-11.282,3.636-35.885,28.281-38.51,36.153
			c-2.621,7.851,12.065,36.154,18.865,37.705c6.793,1.59,56.584-20.436,58.154-28.284C-24.254-721.3-53.052-762.682-64.334-759.003z
			"/>
		<path display="inline" fill="#FFFFFF" d="M38.635-839.161c-10.497,0.494-88.546,59.726-88.034,69.146
			c0.519,9.423,29.36,46.629,37.729,47.951c8.363,1.301,70.221-78.341,72.308-88.814C62.724-821.374,49.106-839.7,38.635-839.161z"
			/>
		<path display="inline" fill="#FFFFFF" d="M353.569-1125.605c-10.933-15.145-35.498-16.26-56.115-3.016
			c-7.87-4.009-17.023-7.233-27.768-9.215c0,0-391.393,317.515-477.854,378.833c0,0-3.302,7.003-8.776,18.407
			c98.109,68.715,86.957,120.568,86.957,120.568c-27.149-66.916-95.885-102.037-95.905-102.037
			c-24.626,50.699-68.835,139.307-92.308,172.114c0,0-0.04,18.015,22.025,29.48c0,0,150.072-101.024,193.329-109.639
			c0,0,23.883-23.283,60.697-58.922c-20.121,10.309-43.197,20.062-52.827,20.659c-16.772,1.053-36.153-39.437-34.583-53.776
			c1.57-14.338,153.521-139.574,176.038-137.984c22.541,1.57,29.875,22.518,30.414,37.725c0.205,6.548-13.654,26.546-30.414,48.012
			c113.258-108.669,256.183-243.843,297.085-273.841c0,0,0.414-10.661-3.141-24.688
			C358.111-1088.273,364.124-1110.938,353.569-1125.605z M-261.835-543.009c0,0-2.542-32.478-33.638-43.818
			C-295.473-586.827-243.244-610.462-261.835-543.009z"/>
	</g>
	<path display="none" opacity="0.5" fill="#71C8EA" enable-background="new    " d="M1306.712-809.346l3.333,3.333
		c0,0,17-13.666,32.5-11.833c0,0,21-27.999,50-37.833c0,0,17.667-9.834,7.167-30.667s-24.327-12.938-31.167-8
		c-9.583,6.916-39.771,40.322-51.5,56.333C1317.045-838.013,1320.545-821.679,1306.712-809.346z"/>
	<g>
		<path d="M29.511,0.397C21.369-2.011,1.774,7.249,1.145,8.509c-2.603,5.203-0.204,17.772,1.634,18.873
			c0.396,0.235,2.928,0.089,6.813-0.321c0.952,2.043,3.56,4.938,4.252,4.939c1.601,0,4.12-3.396,5.321-5.789
			c4.993-0.721,9.025-1.607,9.852-2.293C31.157,22.13,32.494,1.279,29.511,0.397z M26.497,22.127
			c-0.725,0.604-4.756,1.383-9.146,2.018c-1.055,2.104-2.626,5.028-3.217,5.088c-0.607,0.062-1.929-2.545-2.764-4.342
			c-3.416,0.359-6.707,0.526-7.029,0.28c-1.587-1.194-2.569-13.743-0.816-15.13c1.522-1.203,16.514-7.75,23.895-6.644
			C28.979,3.633,28.381,20.557,26.497,22.127z"/>
		<polygon points="23.222,8.199 8.997,11.342 8.915,13.712 23.149,10.434 		"/>
		<polygon points="5.704,18.84 25.245,14.342 25.321,12.128 5.786,16.444 		"/>
		<polygon points="8.934,22.486 22.196,19.434 22.524,17.139 8.693,20.193 		"/>
	</g>
</g>
</svg>
