<?xml version="1.0" encoding="utf-8"?>
<!-- Generator: Adobe Illustrator 16.0.4, SVG Export Plug-In . SVG Version: 6.00 Build 0)  -->
<!DOCTYPE svg PUBLIC "-//W3C//DTD SVG 1.1//EN" "http://www.w3.org/Graphics/SVG/1.1/DTD/svg11.dtd">
<svg version="1.1" fill="rgb(0, 14, 156)" xmlns="http://www.w3.org/2000/svg" xmlns:xlink="http://www.w3.org/1999/xlink" x="0px" y="0px"
	 width="32px" height="31.965px" viewBox="0 0 32 31.965" enable-background="new 0 0 32 31.965" xml:space="preserve">
<g id="Fondo_1_" display="none">
	<rect id="Fondo" x="-525.912" y="-2235.509" display="inline" fill="#FB6E92" width="1000" height="2438.351"/>
</g>
<g id="Guias" display="none">
</g>
<g id="Icons">
	<g display="none" opacity="0.2">
		<path display="inline" fill="#FFFFFF" d="M-115.902-758.988c-11.282,3.636-35.885,28.281-38.51,36.153
			c-2.621,7.851,12.065,36.154,18.865,37.705c6.793,1.59,56.584-20.436,58.154-28.284
			C-75.822-721.285-104.62-762.667-115.902-758.988z"/>
		<path display="inline" fill="#FFFFFF" d="M-12.934-839.146c-10.498,0.494-88.546,59.726-88.034,69.146
			c0.519,9.423,29.36,46.629,37.729,47.951c8.363,1.301,70.221-78.341,72.307-88.814C11.154-821.359-2.462-839.686-12.934-839.146z"
			/>
		<path display="inline" fill="#FFFFFF" d="M302.001-1125.591c-10.933-15.145-35.498-16.26-56.114-3.016
			c-7.871-4.009-17.023-7.233-27.768-9.215c0,0-391.393,317.515-477.854,378.833c0,0-3.302,7.003-8.776,18.407
			c98.109,68.715,86.957,120.568,86.957,120.568c-27.149-66.916-95.885-102.037-95.905-102.037
			c-24.626,50.699-68.835,139.307-92.308,172.114c0,0-0.04,18.015,22.025,29.48c0,0,150.072-101.024,193.329-109.639
			c0,0,23.883-23.283,60.697-58.922c-20.121,10.308-43.197,20.062-52.827,20.659c-16.772,1.053-36.153-39.437-34.583-53.776
			c1.57-14.338,153.521-139.574,176.038-137.984c22.54,1.57,29.875,22.519,30.414,37.725c0.205,6.548-13.655,26.546-30.414,48.012
			c113.258-108.669,256.182-243.843,297.084-273.841c0,0,0.414-10.661-3.141-24.688
			C306.543-1088.259,312.556-1110.923,302.001-1125.591z M-313.403-542.994c0,0-2.542-32.478-33.638-43.818
			C-347.041-586.812-294.812-610.447-313.403-542.994z"/>
	</g>
	<path display="none" opacity="0.5" fill="#71C8EA" enable-background="new    " d="M1255.145-809.331l3.332,3.333
		c0,0,17-13.666,32.5-11.833c0,0,21-27.999,50-37.833c0,0,17.668-9.834,7.168-30.667s-24.327-12.937-31.168-8
		c-9.582,6.916-39.771,40.322-51.5,56.333C1265.477-837.998,1268.977-821.664,1255.145-809.331z"/>
	<path d="M30.902,0.151c-9.09-1.363-29.323,6.872-30.106,8.18c-2.387,3.977,1.249,17.838,2.367,18.632
		c0.406,0.29,3.769,0.098,7.974-0.347c1.03,2.213,2.659,5.421,3.405,5.348c0.727-0.073,2.661-3.678,3.962-6.269
		c5.405-0.778,10.37-1.736,11.264-2.48C32.085,21.279,32.822,0.439,30.902,0.151z M8.217,9.934l17.516-3.87l-0.088,2.751
		L8.116,12.851L8.217,9.934z M24.473,19.898l-16.333,3.76l-0.297-2.824l17.031-3.764L24.473,19.898z M28.225,13.628L4.162,19.167
		l0.101-2.952l24.055-5.313L28.225,13.628z"/>
</g>
</svg>
