<?xml version="1.0" encoding="utf-8"?>
<!-- Generator: Adobe Illustrator 16.0.4, SVG Export Plug-In . SVG Version: 6.00 Build 0)  -->
<!DOCTYPE svg PUBLIC "-//W3C//DTD SVG 1.1//EN" "http://www.w3.org/Graphics/SVG/1.1/DTD/svg11.dtd">
<svg version="1.1" fill="rgb(0, 14, 156)" xmlns="http://www.w3.org/2000/svg" xmlns:xlink="http://www.w3.org/1999/xlink" x="0px" y="0px"
	 width="24.055px" height="32px" viewBox="0 0 24.055 32" enable-background="new 0 0 24.055 32" xml:space="preserve">
<g id="Fondo_1_" display="none">
	<rect id="Fondo" x="-581.94" y="-2235.494" display="inline" fill="#FB6E92" width="1000" height="2438.352"/>
</g>
<g id="Guias" display="none">
</g>
<g id="Icons">
	<g display="none" opacity="0.2">
		<path display="inline" fill="#FFFFFF" d="M-171.931-758.974c-11.281,3.636-35.885,28.281-38.51,36.153
			c-2.621,7.852,12.065,36.154,18.865,37.705c6.793,1.59,56.584-20.436,58.154-28.284
			C-131.851-721.271-160.648-762.652-171.931-758.974z"/>
		<path display="inline" fill="#FFFFFF" d="M-68.962-839.132c-10.498,0.494-88.546,59.726-88.034,69.146
			c0.519,9.423,29.36,46.629,37.729,47.951c8.363,1.301,70.222-78.341,72.308-88.814C-44.874-821.345-58.49-839.671-68.962-839.132z
			"/>
		<path display="inline" fill="#FFFFFF" d="M245.973-1125.576c-10.932-15.145-35.498-16.26-56.115-3.016
			c-7.87-4.009-17.022-7.233-27.767-9.215c0,0-391.393,317.515-477.854,378.833c0,0-3.302,7.003-8.775,18.407
			c98.108,68.715,86.957,120.568,86.957,120.568c-27.149-66.916-95.885-102.037-95.905-102.037
			c-24.626,50.699-68.835,139.307-92.308,172.114c0,0-0.04,18.015,22.024,29.48c0,0,150.072-101.024,193.329-109.639
			c0,0,23.883-23.283,60.697-58.922c-20.121,10.308-43.197,20.062-52.827,20.659c-16.771,1.053-36.153-39.438-34.583-53.776
			c1.57-14.338,153.521-139.574,176.038-137.984c22.54,1.57,29.875,22.518,30.414,37.725c0.205,6.548-13.655,26.546-30.414,48.012
			c113.258-108.669,256.182-243.843,297.084-273.841c0,0,0.414-10.661-3.14-24.688
			C250.515-1088.244,256.527-1110.908,245.973-1125.576z M-369.432-542.979c0,0-2.542-32.478-33.638-43.818
			C-403.069-586.798-350.841-610.433-369.432-542.979z"/>
	</g>
	<path display="none" opacity="0.5" fill="#71C8EA" enable-background="new    " d="M1199.115-809.316l3.333,3.333
		c0,0,17-13.666,32.5-11.833c0,0,21-27.999,50-37.833c0,0,17.667-9.834,7.167-30.667s-24.327-12.937-31.167-8
		c-9.583,6.916-39.771,40.322-51.5,56.333C1209.448-837.983,1212.948-821.649,1199.115-809.316z"/>
	<path d="M0,1.262c0,0,1.958,4.864,3.679,11.661c1.994,7.88,0.484,18.517,1.152,19.015c1.266,0.945,9.666-9.035,9.666-9.035
		s8.403,8.195,9.354,7.773C24.799,30.256,22.694,12.502,12.186,0L0,1.262z"/>
</g>
</svg>
