<?xml version="1.0" encoding="utf-8"?>
<!-- Generator: Adobe Illustrator 16.0.4, SVG Export Plug-In . SVG Version: 6.00 Build 0)  -->
<!DOCTYPE svg PUBLIC "-//W3C//DTD SVG 1.1//EN" "http://www.w3.org/Graphics/SVG/1.1/DTD/svg11.dtd">
<svg version="1.1" fill="rgb(0, 14, 156)" xmlns="http://www.w3.org/2000/svg" xmlns:xlink="http://www.w3.org/1999/xlink" x="0px" y="0px"
	 width="23.295px" height="32px" viewBox="0 0 23.295 32" enable-background="new 0 0 23.295 32" xml:space="preserve">
<g id="Fondo_1_" display="none">
	<rect id="Fondo" x="-634.612" y="-2235.561" display="inline" fill="#FB6E92" width="1000" height="2438.351"/>
</g>
<g id="Guias" display="none">
</g>
<g id="Icons">
	<g display="none" opacity="0.2">
		<path display="inline" fill="#FFFFFF" d="M-224.603-759.04c-11.282,3.636-35.885,28.281-38.51,36.153
			c-2.621,7.851,12.065,36.154,18.865,37.705c6.793,1.59,56.584-20.437,58.154-28.284
			C-184.522-721.337-213.32-762.719-224.603-759.04z"/>
		<path display="inline" fill="#FFFFFF" d="M-121.634-839.198c-10.498,0.494-88.546,59.727-88.034,69.146
			c0.519,9.423,29.36,46.629,37.729,47.951c8.363,1.301,70.221-78.341,72.307-88.814
			C-97.546-821.411-111.162-839.737-121.634-839.198z"/>
		<path display="inline" fill="#FFFFFF" d="M193.301-1125.643c-10.932-15.145-35.497-16.26-56.114-3.016
			c-7.871-4.009-17.023-7.233-27.768-9.215c0,0-391.393,317.515-477.854,378.833c0,0-3.302,7.003-8.776,18.407
			c98.109,68.715,86.957,120.568,86.957,120.568c-27.149-66.916-95.885-102.037-95.905-102.037
			c-24.626,50.699-68.835,139.307-92.308,172.114c0,0-0.04,18.015,22.025,29.48c0,0,150.072-101.024,193.329-109.639
			c0,0,23.883-23.283,60.697-58.922c-20.121,10.308-43.197,20.062-52.827,20.659c-16.772,1.053-36.153-39.437-34.583-53.776
			c1.57-14.338,153.521-139.574,176.038-137.984c22.54,1.57,29.875,22.518,30.414,37.725c0.205,6.548-13.655,26.546-30.414,48.012
			c113.258-108.669,256.182-243.843,297.084-273.841c0,0,0.414-10.661-3.14-24.688
			C197.843-1088.311,203.854-1110.975,193.301-1125.643z M-422.104-543.046c0,0-2.542-32.478-33.638-43.818
			C-455.741-586.864-403.513-610.499-422.104-543.046z"/>
	</g>
	<path display="none" opacity="0.5" fill="#71C8EA" enable-background="new    " d="M1146.443-809.383l3.333,3.333
		c0,0,17-13.666,32.5-11.833c0,0,21-27.999,50-37.833c0,0,17.667-9.834,7.167-30.667s-24.327-12.938-31.167-8
		c-9.583,6.916-39.771,40.322-51.5,56.333C1156.776-838.05,1160.276-821.716,1146.443-809.383z"/>
	<g>
		<path d="M13.167,9.001C8.023,7.906,2.879,11.603,1.676,17.256c-0.667,3.133,0.021,6.205,1.639,8.512l-0.008-0.004
			c0,0-2.421,4.905-1.315,5.594c0.87,0.545,4.026-1.479,5.324-2.358c0.477,0.196,0.974,0.362,1.495,0.476
			c1.237,0.262,2.474,0.241,3.657-0.009c1.006,0.827,3.569,2.841,4.325,2.496c0.665-0.303,0.229-3.019-0.092-4.614
			c1.747-1.49,3.063-3.613,3.6-6.129C21.504,15.565,18.312,10.096,13.167,9.001z M18.683,20.811
			c-1.016,4.771-5.328,7.894-9.634,6.978C4.744,26.87,2.076,22.262,3.09,17.494c1.016-4.771,5.329-7.893,9.634-6.977
			C17.03,11.433,19.696,16.043,18.683,20.811z"/>
		<path d="M22.767,3.827c0.39-0.78,0.336-1.604-0.168-1.935c-0.461-0.306-1.154-0.092-1.701,0.461
			c-1.375-0.4-2.846,0.201-4.094,1.087c0-0.001-2.897-7.678-9.939-0.092c-1.309-1.001-2.928-1.79-4.379-1.483
			c-0.518-0.636-1.25-0.906-1.718-0.596C0.296,1.58,0.261,2.361,0.646,3.088c-1.854,2.638,0.814,7.71,1.345,8.021
			c0.585,0.345,7.134-4.223,7.393-4.825C9.492,6.029,8.67,4.89,7.442,3.822c0.003-0.001,3.791-3.29,8.379,0.404l0.012-0.009
			c-1.227,1.094-2.076,2.288-2.113,2.589c-0.082,0.7,6.887,5.144,7.561,5.148C21.862,11.961,24.37,6.663,22.767,3.827z"/>
		<path d="M11.537,14.734c0.038,0.199,0.431,0.654,0.938,1.138l-0.541,1.012c-0.175-0.124-0.367-0.226-0.582-0.276
			c-1.111-0.267-2.277,0.625-2.604,1.99c-0.135,0.561-0.099,1.107,0.058,1.584L7.87,20.708c-0.384-0.507-0.771-0.896-1.007-0.896
			c-0.625,0-1.615,3.315-1.326,3.617c0.291,0.303,3.471-0.041,3.545-0.474c0.03-0.181-0.243-0.758-0.616-1.37L9.14,20.85
			c0.257,0.35,0.609,0.603,1.031,0.702c1.109,0.265,2.275-0.626,2.602-1.991c0.172-0.707,0.076-1.401-0.203-1.944l0.998-0.81
			c0.604,0.463,1.164,0.793,1.379,0.699c0.539-0.232,0.783-3.789,0.229-4.166C14.621,12.962,11.434,14.184,11.537,14.734z"/>
	</g>
</g>
</svg>
