<?xml version="1.0" encoding="utf-8"?>
<!-- Generator: Adobe Illustrator 16.0.4, SVG Export Plug-In . SVG Version: 6.00 Build 0)  -->
<!DOCTYPE svg PUBLIC "-//W3C//DTD SVG 1.1//EN" "http://www.w3.org/Graphics/SVG/1.1/DTD/svg11.dtd">
<svg version="1.1" fill="rgb(0, 14, 156)" xmlns="http://www.w3.org/2000/svg" xmlns:xlink="http://www.w3.org/1999/xlink" x="0px" y="0px"
	 width="27.758px" height="32px" viewBox="0 0 27.758 32" enable-background="new 0 0 27.758 32" xml:space="preserve">
<g id="Fondo_1_" display="none">
	<rect id="Fondo" x="-683.963" y="-2235.41" display="inline" fill="#FB6E92" width="1000" height="2438.352"/>
</g>
<g id="Guias" display="none">
</g>
<g id="Icons">
	<g display="none" opacity="0.2">
		<path display="inline" fill="#FFFFFF" d="M-273.954-758.89c-11.282,3.636-35.885,28.281-38.51,36.153
			c-2.621,7.852,12.065,36.154,18.865,37.705c6.793,1.59,56.584-20.436,58.154-28.284
			C-233.874-721.187-262.672-762.568-273.954-758.89z"/>
		<path display="inline" fill="#FFFFFF" d="M-170.985-839.048c-10.498,0.494-88.546,59.726-88.034,69.146
			c0.519,9.423,29.36,46.629,37.729,47.951c8.363,1.301,70.221-78.341,72.307-88.814
			C-146.897-821.261-160.514-839.587-170.985-839.048z"/>
		<path display="inline" fill="#FFFFFF" d="M143.95-1125.492c-10.933-15.145-35.498-16.26-56.115-3.016
			c-7.871-4.009-17.023-7.233-27.768-9.215c0,0-391.393,317.515-477.854,378.833c0,0-3.302,7.003-8.776,18.407
			c98.109,68.715,86.957,120.568,86.957,120.568c-27.149-66.916-95.885-102.037-95.905-102.037
			c-24.626,50.699-68.835,139.307-92.308,172.114c0,0-0.04,18.015,22.025,29.48c0,0,150.072-101.024,193.329-109.639
			c0,0,23.883-23.283,60.697-58.922c-20.121,10.308-43.197,20.062-52.827,20.659c-16.772,1.053-36.153-39.437-34.583-53.776
			c1.57-14.338,153.521-139.574,176.038-137.984c22.54,1.57,29.875,22.518,30.414,37.725c0.205,6.548-13.655,26.546-30.414,48.012
			c113.258-108.669,256.182-243.843,297.084-273.841c0,0,0.414-10.661-3.14-24.688
			C148.491-1088.16,154.504-1110.824,143.95-1125.492z M-471.455-542.896c0,0-2.542-32.478-33.638-43.818
			C-505.093-586.714-452.864-610.349-471.455-542.896z"/>
	</g>
	<path display="none" opacity="0.5" fill="#71C8EA" enable-background="new    " d="M1097.092-809.232l3.332,3.333
		c0,0,17-13.666,32.5-11.833c0,0,21-27.999,50-37.833c0,0,17.668-9.834,7.168-30.667s-24.328-12.937-31.168-8
		c-9.582,6.916-39.77,40.322-51.5,56.333C1107.424-837.899,1110.924-821.565,1097.092-809.232z"/>
	<g>
		<path d="M27.432,10.001L27.432,10.001c-0.146-1.221-12.926-10.089-15.602-10S0.85,9.547,0.479,11.3l0,0
			c-1.412,3.327,0.588,19.3,2.254,20.513c1.755,1.279,23.793-4.369,24.473-5.172C27.853,25.876,27.938,11.764,27.432,10.001z
			 M25.815,25.303c-0.416,0.812-21.16,6.187-22.111,4.987c-0.951-1.199-3.063-17.979-1.498-19.011
			c0.302-0.198,0.413-0.392,2.015-0.567C4.192,9.1,4.26,7.434,4.605,6.839C5.35,5.561,23.847,6.793,24.438,7.612
			c0.148,0.207,0.221,1.16,0.254,2.242c1.232,0.036,1.02,0.112,1.124,0.235C26.429,10.804,26.231,24.49,25.815,25.303z"/>
		<path d="M24.021,8.117C23.461,7.324,5.787,6.136,5.082,7.374c-0.706,1.238-0.16,7.452-0.16,7.452l1.844,1.2L6.45,15.149
			c0,0-0.511-4.966,0.151-6.155c0.66-1.188,16.233-0.047,16.761,0.715c0.34,0.493,0.16,4.945,0.16,4.945l-4.648,7.7l-1.574,0.524
			l0.084,0.056l1.852-0.604l4.958-8.02C24.191,14.311,24.383,8.632,24.021,8.117z"/>
		<path d="M3.704,13.915c0,0,12.541,9.87,14.371,9.573c2.08-0.338,7.313-10.961,7.313-10.961s-6.087,9.079-7.275,9.217
			C16.667,21.912,3.704,13.915,3.704,13.915z"/>
		<polygon points="5.21,27.829 12.148,19.861 13.653,20.854 		"/>
		<polygon points="21.206,19.564 25.11,24.162 20.313,20.872 		"/>
		<path d="M7.835,10.543c0.134-0.467,13.805-0.025,13.876,0.22c0.096,0.319,0.093,0.967,0,1.189c-0.098,0.237-13.816,0.276-13.876,0
			C7.776,11.677,7.705,11,7.835,10.543z"/>
		<path d="M7.835,13.636c0.134-0.466,13.805-0.025,13.876,0.22c0.096,0.318,0.093,0.967,0,1.189c-0.098,0.236-13.816,0.275-13.876,0
			C7.776,14.769,7.705,14.092,7.835,13.636z"/>
		<g>
			<path d="M19.2,18.514c0.366-0.451,0.754-0.951,1.146-1.473c-2.395-0.145-6.421-0.287-9.882-0.281
				c1.086,0.629,2.188,1.252,3.207,1.807C15.991,18.57,17.438,18.552,19.2,18.514z"/>
		</g>
	</g>
</g>
</svg>
