<?xml version="1.0" encoding="utf-8"?>
<!-- Generator: Adobe Illustrator 16.0.4, SVG Export Plug-In . SVG Version: 6.00 Build 0)  -->
<!DOCTYPE svg PUBLIC "-//W3C//DTD SVG 1.1//EN" "http://www.w3.org/Graphics/SVG/1.1/DTD/svg11.dtd">
<svg version="1.1" fill="rgb(0, 14, 156)" xmlns="http://www.w3.org/2000/svg" xmlns:xlink="http://www.w3.org/1999/xlink" x="0px" y="0px"
	 width="30.363px" height="32px" viewBox="0 0 30.363 32" enable-background="new 0 0 30.363 32" xml:space="preserve">
<g id="Fondo_1_" display="none">
	<rect id="Fondo" x="-734.356" y="-2235.394" display="inline" fill="#FB6E92" width="1000" height="2438.351"/>
</g>
<g id="Guias" display="none">
</g>
<g id="Icons">
	<g display="none" opacity="0.2">
		<path display="inline" fill="#FFFFFF" d="M-324.347-758.873c-11.282,3.636-35.885,28.281-38.51,36.153
			c-2.621,7.851,12.064,36.154,18.864,37.705c6.793,1.59,56.584-20.437,58.154-28.284
			C-284.267-721.17-313.064-762.552-324.347-758.873z"/>
		<path display="inline" fill="#FFFFFF" d="M-221.378-839.031c-10.498,0.494-88.546,59.727-88.034,69.146
			c0.52,9.423,29.36,46.629,37.729,47.951c8.363,1.301,70.221-78.341,72.307-88.814C-197.29-821.244-210.906-839.57-221.378-839.031
			z"/>
		<path display="inline" fill="#FFFFFF" d="M93.557-1125.476c-10.933-15.145-35.498-16.26-56.115-3.016
			c-7.87-4.009-17.023-7.233-27.768-9.215c0,0-391.393,317.515-477.854,378.833c0,0-3.302,7.003-8.776,18.407
			c98.109,68.715,86.957,120.568,86.957,120.568c-27.148-66.916-95.885-102.037-95.904-102.037
			c-24.627,50.699-68.836,139.307-92.309,172.114c0,0-0.04,18.015,22.025,29.48c0,0,150.072-101.024,193.329-109.639
			c0,0,23.883-23.283,60.696-58.922c-20.121,10.308-43.196,20.062-52.826,20.659c-16.772,1.053-36.153-39.437-34.583-53.776
			c1.569-14.338,153.521-139.574,176.037-137.984c22.54,1.57,29.875,22.518,30.414,37.725c0.205,6.548-13.654,26.546-30.414,48.012
			C-100.274-882.936,42.65-1018.11,83.552-1048.108c0,0,0.414-10.661-3.14-24.688C98.099-1088.144,104.111-1110.808,93.557-1125.476
			z M-521.848-542.879c0,0-2.542-32.478-33.638-43.818C-555.485-586.697-503.257-610.332-521.848-542.879z"/>
	</g>
	<path display="none" opacity="0.5" fill="#71C8EA" enable-background="new    " d="M1046.699-809.216l3.333,3.333
		c0,0,17-13.666,32.5-11.833c0,0,21-27.999,50-37.833c0,0,17.667-9.834,7.167-30.667s-24.327-12.938-31.167-8
		c-9.583,6.916-39.771,40.322-51.5,56.333C1057.032-837.883,1060.532-821.549,1046.699-809.216z"/>
	<path d="M30.363,24.575l-8.146-5.782c-0.552-2.27-1.223-4.486-2.027-6.337l9.998-7.702L25.53,0l-6.722,9.895
		c-1.003-1.452-2.164-2.313-3.504-2.2c-1.118,0.093-2.11,0.801-2.99,1.917L5.156,0.554L0.853,5.631l9.914,6.555
		c-0.851,1.784-1.562,3.94-2.148,6.164L0,24.396l4.444,4.955l2.606-3.496C6.475,29.378,6.229,32,6.229,32h5.875
		c0.124-1.725,0.73-7.713,3.197-7.713c2.767,0,3.163,5.988,3.222,7.713h5.854c0,0-0.204-2.292-0.679-5.466l2.195,2.975
		L30.363,24.575z M17.661,17.048c-0.227,2.078-1.466,3.646-2.768,3.503c-1.306-0.142-2.177-1.941-1.948-4.019
		c0.228-2.078,1.468-3.645,2.77-3.502C17.018,13.172,17.889,14.971,17.661,17.048z"/>
</g>
</svg>
