<?xml version="1.0" encoding="utf-8"?>
<!-- Generator: Adobe Illustrator 16.0.4, SVG Export Plug-In . SVG Version: 6.00 Build 0)  -->
<!DOCTYPE svg PUBLIC "-//W3C//DTD SVG 1.1//EN" "http://www.w3.org/Graphics/SVG/1.1/DTD/svg11.dtd">
<svg version="1.1" fill="rgb(0, 14, 156)" xmlns="http://www.w3.org/2000/svg" xmlns:xlink="http://www.w3.org/1999/xlink" x="0px" y="0px"
	 width="29.344px" height="32px" viewBox="0 0 29.344 32" enable-background="new 0 0 29.344 32" xml:space="preserve">
<g id="Fondo_1_" display="none">
	<rect id="Fondo" x="-786.853" y="-2235.589" display="inline" fill="#FB6E92" width="1000" height="2438.351"/>
</g>
<g id="Guias" display="none">
</g>
<g id="Icons">
	<g display="none" opacity="0.2">
		<path display="inline" fill="#FFFFFF" d="M-376.844-759.068c-11.282,3.636-35.885,28.281-38.51,36.153
			c-2.621,7.851,12.065,36.154,18.865,37.705c6.793,1.59,56.584-20.436,58.154-28.284
			C-336.764-721.365-365.562-762.747-376.844-759.068z"/>
		<path display="inline" fill="#FFFFFF" d="M-273.875-839.227c-10.498,0.494-88.546,59.726-88.034,69.146
			c0.519,9.423,29.36,46.629,37.729,47.951c8.363,1.301,70.221-78.341,72.307-88.814
			C-249.787-821.439-263.403-839.766-273.875-839.227z"/>
		<path display="inline" fill="#FFFFFF" d="M41.061-1125.671c-10.933-15.145-35.499-16.26-56.116-3.016
			c-7.87-4.009-17.023-7.233-27.767-9.215c0,0-391.393,317.515-477.854,378.833c0,0-3.302,7.003-8.776,18.407
			c98.109,68.715,86.957,120.568,86.957,120.568C-469.644-687.009-538.38-722.13-538.4-722.13
			c-24.626,50.699-68.835,139.307-92.308,172.114c0,0-0.04,18.015,22.025,29.48c0,0,150.072-101.024,193.329-109.639
			c0,0,23.883-23.283,60.697-58.922c-20.121,10.308-43.197,20.062-52.827,20.659c-16.772,1.053-36.153-39.437-34.583-53.776
			c1.57-14.338,153.521-139.574,176.038-137.984c22.54,1.57,29.875,22.519,30.414,37.725c0.205,6.548-13.655,26.546-30.414,48.012
			C-152.77-883.13-9.846-1018.304,31.057-1048.302c0,0,0.414-10.661-3.14-24.688C45.602-1088.339,51.613-1111.003,41.061-1125.671z
			 M-574.345-543.074c0,0-2.542-32.478-33.638-43.818C-607.982-586.893-555.754-610.527-574.345-543.074z"/>
	</g>
	<path display="none" opacity="0.5" fill="#71C8EA" enable-background="new    " d="M994.202-809.411l3.333,3.333
		c0,0,17-13.666,32.5-11.833c0,0,21-27.999,50-37.833c0,0,17.667-9.834,7.167-30.667s-24.327-12.937-31.167-8
		c-9.583,6.916-39.771,40.322-51.5,56.333C1004.535-838.078,1008.035-821.744,994.202-809.411z"/>
	<g>
		<polygon points="10.858,31.341 15.102,32 15.102,20.484 26.855,9.571 0,10.728 10.858,20.253 		"/>
		<polygon points="29.344,0 0,5.61 0,10.728 29.344,5.042 		"/>
	</g>
</g>
</svg>
