<?xml version="1.0" encoding="utf-8"?>
<!-- Generator: Adobe Illustrator 16.0.4, SVG Export Plug-In . SVG Version: 6.00 Build 0)  -->
<!DOCTYPE svg PUBLIC "-//W3C//DTD SVG 1.1//EN" "http://www.w3.org/Graphics/SVG/1.1/DTD/svg11.dtd">
<svg version="1.1" fill="rgb(0, 14, 156)" xmlns="http://www.w3.org/2000/svg" xmlns:xlink="http://www.w3.org/1999/xlink" x="0px" y="0px"
	 width="32px" height="28.197px" viewBox="0 0 32 28.197" enable-background="new 0 0 32 28.197" xml:space="preserve">
<g id="Fondo_1_" display="none">
	<rect id="Fondo" x="-837.864" y="-2237.324" display="inline" fill="#FB6E92" width="1000" height="2438.352"/>
</g>
<g id="Guias" display="none">
</g>
<g id="Icons">
	<g display="none" opacity="0.2">
		<path display="inline" fill="#FFFFFF" d="M-427.854-760.804c-11.282,3.636-35.885,28.281-38.51,36.153
			c-2.621,7.851,12.065,36.153,18.865,37.704c6.793,1.591,56.584-20.436,58.154-28.283
			C-387.774-723.101-416.572-764.482-427.854-760.804z"/>
		<path display="inline" fill="#FFFFFF" d="M-324.886-840.962c-10.498,0.494-88.546,59.727-88.034,69.146
			c0.519,9.423,29.36,46.629,37.729,47.95c8.363,1.302,70.221-78.341,72.307-88.813
			C-300.798-823.175-314.414-841.501-324.886-840.962z"/>
		<path display="inline" fill="#FFFFFF" d="M-9.951-1127.406c-10.932-15.145-35.498-16.26-56.115-3.016
			c-7.87-4.009-17.023-7.233-27.767-9.215c0,0-391.393,317.515-477.854,378.833c0,0-3.302,7.003-8.776,18.407
			c98.109,68.715,86.957,120.567,86.957,120.567c-27.149-66.916-95.885-102.037-95.905-102.037
			c-24.626,50.699-68.835,139.308-92.308,172.114c0,0-0.04,18.016,22.025,29.48c0,0,150.072-101.024,193.329-109.64
			c0,0,23.883-23.282,60.697-58.922c-20.121,10.309-43.197,20.062-52.827,20.659c-16.772,1.053-36.153-39.437-34.583-53.776
			c1.57-14.338,153.521-139.573,176.038-137.983c22.54,1.569,29.875,22.518,30.414,37.725c0.205,6.548-13.655,26.546-30.414,48.012
			c113.258-108.669,256.182-243.843,297.084-273.841c0,0,0.414-10.661-3.14-24.688C-5.409-1090.074,0.604-1112.739-9.951-1127.406z
			 M-625.355-544.81c0,0-2.542-32.479-33.638-43.818C-658.993-588.628-606.765-612.263-625.355-544.81z"/>
	</g>
	<path display="none" opacity="0.5" fill="#71C8EA" enable-background="new    " d="M943.191-811.146l3.333,3.333
		c0,0,17-13.666,32.5-11.833c0,0,21-27.999,49.999-37.833c0,0,17.668-9.834,7.168-30.667s-24.327-12.938-31.168-8
		c-9.582,6.916-39.771,40.321-51.5,56.333C953.524-839.813,957.024-823.479,943.191-811.146z"/>
	<path d="M32,7.266C32,3.252,28.748,0,24.734,0c-1.651,0-3.17,0.559-4.393,1.486L20.34,1.484L4.18,12.022
		c-0.164,0.1-0.324,0.202-0.48,0.312l-0.099,0.063l0.005,0.008C1.424,13.992,0,16.56,0,19.463c0,4.824,3.91,8.734,8.734,8.734
		c1.917,0,3.682-0.624,5.122-1.669l0.005,0.007l0.077-0.068c0.398-0.298,0.771-0.624,1.113-0.981l14.227-12.552l0,0
		C30.938,11.6,32,9.559,32,7.266z M28.439,12.16l0.002,0.001L21.641,17.8c0-0.007,0-0.014,0-0.019c0-4.885-2.418-9.2-6.121-11.826
		l5.248-3.621l0.002,0.002c1.049-0.799,2.353-1.275,3.771-1.275c3.444,0,6.237,2.792,6.237,6.235
		C30.777,9.264,29.864,11.017,28.439,12.16z"/>
</g>
</svg>
