<?xml version="1.0" encoding="utf-8"?>
<!-- Generator: Adobe Illustrator 16.0.4, SVG Export Plug-In . SVG Version: 6.00 Build 0)  -->
<!DOCTYPE svg PUBLIC "-//W3C//DTD SVG 1.1//EN" "http://www.w3.org/Graphics/SVG/1.1/DTD/svg11.dtd">
<svg version="1.1" fill="rgb(0, 14, 156)" xmlns="http://www.w3.org/2000/svg" xmlns:xlink="http://www.w3.org/1999/xlink" x="0px" y="0px"
	 width="26.229px" height="32px" viewBox="0 0 26.229 32" enable-background="new 0 0 26.229 32" xml:space="preserve">
<g id="Fondo_1_" display="none">
	<rect id="Fondo" x="-112.115" y="-2299.521" display="inline" fill="#FB6E92" width="1000" height="2438.351"/>
</g>
<g id="Guias" display="none">
</g>
<g id="Icons">
	<g display="none" opacity="0.2">
		<path display="inline" fill="#FFFFFF" d="M297.894-823.001c-11.282,3.636-35.885,28.281-38.51,36.153
			c-2.621,7.851,12.065,36.154,18.865,37.705c6.793,1.59,56.584-20.436,58.154-28.284
			C337.974-785.298,309.176-826.68,297.894-823.001z"/>
		<path display="inline" fill="#FFFFFF" d="M400.864-903.159c-10.498,0.494-88.546,59.726-88.034,69.146
			c0.519,9.423,29.36,46.629,37.729,47.951c8.363,1.301,70.222-78.341,72.308-88.814
			C424.951-885.372,411.334-903.698,400.864-903.159z"/>
		<path display="inline" fill="#FFFFFF" d="M715.797-1189.604c-10.932-15.145-35.498-16.26-56.115-3.016
			c-7.869-4.009-17.022-7.233-27.767-9.215c0,0-391.394,317.515-477.854,378.833c0,0-3.302,7.003-8.775,18.407
			c98.108,68.715,86.957,120.568,86.957,120.568c-27.149-66.916-95.886-102.037-95.905-102.037
			c-24.626,50.699-68.835,139.307-92.309,172.114c0,0-0.04,18.015,22.025,29.48c0,0,150.072-101.024,193.329-109.639
			c0,0,23.883-23.283,60.697-58.922c-20.121,10.309-43.197,20.062-52.827,20.659c-16.772,1.053-36.153-39.437-34.583-53.776
			c1.569-14.338,153.521-139.574,176.038-137.984c22.54,1.57,29.875,22.518,30.414,37.725c0.205,6.548-13.655,26.546-30.414,48.012
			c113.258-108.669,256.182-243.843,297.084-273.841c0,0,0.414-10.661-3.14-24.688
			C720.339-1152.271,726.352-1174.936,715.797-1189.604z M100.393-607.007c0,0-2.542-32.479-33.638-43.818
			C66.755-650.825,118.984-674.46,100.393-607.007z"/>
	</g>
	<path display="none" opacity="0.5" fill="#71C8EA" enable-background="new    " d="M1668.94-873.344l3.334,3.333
		c0,0,17-13.666,32.5-11.833c0,0,21-27.999,50-37.833c0,0,17.666-9.834,7.166-30.667s-24.326-12.938-31.166-8
		c-9.584,6.916-39.771,40.322-51.5,56.333C1679.274-902.011,1682.774-885.677,1668.94-873.344z"/>
	<path d="M22.977,23.954c0,0,2.152,0.88,2.548,0.397c1.01-1.228-1.855-6.164-1.855-6.164s1.488,2.121,2.018,1.153
		c1.659-3.024-2.71-6.197-2.71-6.197s1.479,0.935,2.134-0.145c1.369-2.253-3.459-6.342-3.459-6.342s1.909,1.332,2.45-0.182
		c0.506-1.418-7.645-8.632-15.395-5.84s-9.542,10.38-8.389,10.704c1.152,0.325,2.018-0.647,2.018-0.647s-3.043,4.162-1.153,7.641
		c1.086,1.997,2.368-1.461,2.543-1.959c-0.213,0.619-1.975,5.938-0.272,7.345c1.072,0.889,2.054-1.783,2.054-1.783
		s-1.478,5.586-0.054,5.729c1.052,0.106,1.929-0.946,2.316-1.504C7.048,27.32,4.866,31.148,7,31.882
		c2.52,0.864,6.715-3.315,6.715-3.315s-0.812,3.511,1.725,3.315c4.229-0.325,3.904-5.334,3.904-5.334s1.675,5.117,6.342,2.738
		C27.816,28.202,22.977,23.954,22.977,23.954z M14.901,6.418c1.058-0.201,2.149,0.885,2.44,2.427
		c0.292,1.539-0.327,2.95-1.384,3.149c-1.058,0.201-2.149-0.886-2.44-2.427C13.226,8.028,13.845,6.617,14.901,6.418z M9.712,8.147
		c1.056-0.2,2.148,0.886,2.44,2.426c0.291,1.54-0.328,2.95-1.384,3.151c-1.057,0.2-2.147-0.887-2.44-2.427
		C8.036,9.758,8.656,8.347,9.712,8.147z M16.914,24.693c-5.189,2.432-9.418-2.243-9.136-2.865c0.289-0.637,0.735-1.23,1.285-1.787
		c0.528,0.669,1.975,2.341,2.932,1.949c1.017-0.415,0.298-3.311,0.065-4.146c1.188-0.669,2.473-1.236,3.69-1.695
		c0.308,0.992,1.208,3.589,2.146,3.34c0.979-0.259,1.29-3.462,1.362-4.446c1.029-0.258,1.725-0.359,1.817-0.294
		C21.455,15.018,22.102,22.261,16.914,24.693z"/>
</g>
</svg>
