<?xml version="1.0" encoding="utf-8"?>
<!-- Generator: Adobe Illustrator 16.0.4, SVG Export Plug-In . SVG Version: 6.00 Build 0)  -->
<!DOCTYPE svg PUBLIC "-//W3C//DTD SVG 1.1//EN" "http://www.w3.org/Graphics/SVG/1.1/DTD/svg11.dtd">
<svg version="1.1" fill="rgb(0, 14, 156)" xmlns="http://www.w3.org/2000/svg" xmlns:xlink="http://www.w3.org/1999/xlink" x="0px" y="0px"
	 width="23.723px" height="32.164px" viewBox="0 0 23.723 32.164" enable-background="new 0 0 23.723 32.164" xml:space="preserve">
<g id="Fondo_1_" display="none">
	<rect id="Fondo" x="-165.71" y="-2299.524" display="inline" fill="#FB6E92" width="1000" height="2438.351"/>
</g>
<g id="Guias" display="none">
</g>
<g id="Icons">
	<g display="none" opacity="0.2">
		<path display="inline" fill="#FFFFFF" d="M244.299-823.004c-11.282,3.636-35.885,28.281-38.51,36.153
			c-2.621,7.851,12.064,36.154,18.864,37.705c6.793,1.59,56.584-20.436,58.154-28.284
			C284.379-785.301,255.582-826.683,244.299-823.004z"/>
		<path display="inline" fill="#FFFFFF" d="M347.268-903.162c-10.498,0.494-88.546,59.726-88.034,69.146
			c0.52,9.423,29.36,46.629,37.729,47.951c8.363,1.301,70.221-78.341,72.307-88.814C371.357-885.375,357.74-903.701,347.268-903.162
			z"/>
		<path display="inline" fill="#FFFFFF" d="M662.203-1189.606c-10.932-15.145-35.498-16.26-56.115-3.016
			c-7.87-4.009-17.022-7.233-27.767-9.215c0,0-391.394,317.515-477.854,378.833c0,0-3.302,7.003-8.776,18.407
			c98.109,68.715,86.957,120.568,86.957,120.568c-27.148-66.916-95.885-102.037-95.904-102.037
			c-24.626,50.7-68.835,139.307-92.309,172.115c0,0-0.04,18.015,22.025,29.48c0,0,150.072-101.024,193.329-109.639
			c0,0,23.883-23.283,60.696-58.922c-20.12,10.308-43.196,20.062-52.826,20.659c-16.772,1.053-36.153-39.437-34.583-53.776
			c1.569-14.338,153.521-139.574,176.038-137.984c22.54,1.57,29.875,22.518,30.414,37.725c0.205,6.548-13.655,26.546-30.414,48.012
			c113.258-108.669,256.182-243.843,297.084-273.841c0,0,0.414-10.661-3.141-24.688
			C666.745-1152.274,672.757-1174.938,662.203-1189.606z M46.798-607.01c0,0-2.542-32.479-33.638-43.818
			C13.161-650.828,65.389-674.463,46.798-607.01z"/>
	</g>
	<path display="none" opacity="0.5" fill="#71C8EA" enable-background="new    " d="M1615.345-873.347l3.333,3.333
		c0,0,17-13.666,32.5-11.833c0,0,21-27.999,50-37.833c0,0,17.667-9.834,7.167-30.667s-24.327-12.938-31.167-8
		c-9.583,6.916-39.771,40.322-51.5,56.333C1625.678-902.014,1629.178-885.68,1615.345-873.347z"/>
	<g>
		<path d="M12.924,25.357c-1.895,0-6.423,3.236-8.31,4.649c2.051,1.513,4.582,2.339,7.175,2.122c2.288-0.191,4.34-1.016,6.069-2.279
			C16.758,28.188,14.634,25.357,12.924,25.357z"/>
		<path d="M22.459,11.812C19.82,5.893,13-0.222,12.029,0.006c-0.97,0.229-2.965,6.28-8.489,12.562
			c-5.735,6.521-3.787,13.627,0.782,17.224c1.482-2.226,5.664-7.99,9.207-7.99c3.227,0,4.448,4.984,4.869,7.628
			C23.206,25.505,25.25,18.07,22.459,11.812z M12.109,18.395c-1.152,0-2.088-1.447-2.088-3.232c0-1.787,0.936-3.235,2.088-3.235
			c1.153,0,2.088,1.448,2.088,3.235C14.197,16.945,13.262,18.395,12.109,18.395z M19.631,15.901
			c-0.246,1.77-1.371,3.076-2.513,2.916c-1.143-0.156-1.869-1.721-1.623-3.488c0.245-1.771,1.37-3.077,2.512-2.918
			C19.149,12.569,19.876,14.132,19.631,15.901z"/>
	</g>
</g>
</svg>
