<?xml version="1.0" encoding="utf-8"?>
<!-- Generator: Adobe Illustrator 16.0.4, SVG Export Plug-In . SVG Version: 6.00 Build 0)  -->
<!DOCTYPE svg PUBLIC "-//W3C//DTD SVG 1.1//EN" "http://www.w3.org/Graphics/SVG/1.1/DTD/svg11.dtd">
<svg version="1.1" fill="rgb(0, 14, 156)" xmlns="http://www.w3.org/2000/svg" xmlns:xlink="http://www.w3.org/1999/xlink" x="0px" y="0px"
	 width="32px" height="30.758px" viewBox="0 0 32 30.758" enable-background="new 0 0 32 30.758" xml:space="preserve">
<g id="Fondo_1_" display="none">
	<rect id="Fondo" x="-213.846" y="-2300.406" display="inline" fill="#FB6E92" width="1000" height="2438.352"/>
</g>
<g id="Guias" display="none">
</g>
<g id="Icons">
	<g display="none" opacity="0.2">
		<path display="inline" fill="#FFFFFF" d="M196.164-823.886c-11.282,3.636-35.885,28.281-38.51,36.153
			c-2.621,7.851,12.064,36.154,18.865,37.705c6.793,1.59,56.584-20.436,58.153-28.284
			C236.244-786.183,207.445-827.564,196.164-823.886z"/>
		<path display="inline" fill="#FFFFFF" d="M299.132-904.044c-10.498,0.494-88.546,59.726-88.034,69.146
			c0.52,9.423,29.36,46.629,37.729,47.951c8.362,1.301,70.221-78.341,72.307-88.813C323.22-886.257,309.604-904.583,299.132-904.044
			z"/>
		<path display="inline" fill="#FFFFFF" d="M614.067-1190.488c-10.933-15.145-35.498-16.26-56.115-3.016
			c-7.87-4.009-17.023-7.233-27.768-9.215c0,0-391.393,317.515-477.854,378.833c0,0-3.302,7.003-8.776,18.407
			c98.109,68.715,86.957,120.568,86.957,120.568c-27.148-66.916-95.885-102.037-95.904-102.037
			c-24.626,50.7-68.835,139.307-92.309,172.115c0,0-0.04,18.015,22.025,29.48c0,0,150.072-101.024,193.328-109.639
			c0,0,23.884-23.283,60.697-58.922c-20.121,10.308-43.197,20.062-52.826,20.659c-16.772,1.053-36.153-39.437-34.584-53.776
			c1.57-14.338,153.521-139.574,176.038-137.984c22.54,1.57,29.875,22.518,30.414,37.725c0.205,6.548-13.654,26.546-30.414,48.012
			c113.259-108.669,256.183-243.843,297.085-273.841c0,0,0.413-10.661-3.141-24.688
			C618.609-1153.156,624.622-1175.82,614.067-1190.488z M-1.337-607.892c0,0-2.542-32.478-33.638-43.818
			C-34.975-651.71,17.253-675.345-1.337-607.892z"/>
	</g>
	<path display="none" opacity="0.5" fill="#71C8EA" enable-background="new    " d="M1567.209-874.229l3.333,3.333
		c0,0,17-13.666,32.5-11.833c0,0,21-27.999,50-37.833c0,0,17.667-9.834,7.167-30.667s-24.327-12.937-31.167-8
		c-9.583,6.916-39.771,40.322-51.5,56.333C1577.542-902.896,1581.042-886.562,1567.209-874.229z"/>
	<path d="M30.335,12.866c0,0,2.769-10.939,1.165-12.565c-1.191-1.21-6.279,1.519-8.818,3.003c-1.065-0.502-2.211-0.875-3.423-1.09
		c-3.527-0.626-6.987,0.172-9.821,1.987c-2.77-1-8.246-2.754-9.197-1.351c-1.096,1.614,1.848,9.077,2.729,11.216
		C1.658,21.84,6.672,29.204,14.226,30.545c7.596,1.351,14.879-3.898,16.27-11.723c0.363-2.048,0.283-4.068-0.163-5.96L30.335,12.866
		z M4.314,9.922C3.588,8.568,2.377,6.075,2.875,5.348C3.221,4.845,5.624,5.979,6.677,6.51C5.744,7.513,4.943,8.659,4.314,9.922z
		 M12.055,11.656c0.657-2.832,3.166-4.671,5.604-4.105c2.438,0.566,3.881,3.321,3.224,6.153c-0.656,2.833-3.167,4.671-5.604,4.107
		C12.84,17.247,11.397,14.489,12.055,11.656z M16.444,28.167c-5.063,0.135-8.236-5.197-8.236-5.873c0-0.146,0.826-0.31,2.119-0.467
		c0.398,0.816,1.462,2.823,2.269,2.736c0.766-0.083,1.106-2.1,1.228-3.081c1.921-0.153,4.074-0.292,6.027-0.387
		c0.236,1.028,0.713,2.612,1.4,2.631c0.764,0.021,1.604-1.832,1.977-2.755c1.576-0.035,2.636-0.01,2.668,0.105
		C26.029,21.551,21.506,28.032,16.444,28.167z M28.742,8.884c-0.75-1.282-1.694-2.44-2.801-3.425
		c0.924-0.703,3.123-2.292,3.559-1.853C30.205,4.312,29.157,7.658,28.742,8.884z"/>
</g>
</svg>
