<?xml version="1.0" encoding="utf-8"?>
<!-- Generator: Adobe Illustrator 16.0.4, SVG Export Plug-In . SVG Version: 6.00 Build 0)  -->
<!DOCTYPE svg PUBLIC "-//W3C//DTD SVG 1.1//EN" "http://www.w3.org/Graphics/SVG/1.1/DTD/svg11.dtd">
<svg version="1.1" fill="rgb(0, 14, 156)" xmlns="http://www.w3.org/2000/svg" xmlns:xlink="http://www.w3.org/1999/xlink" x="0px" y="0px"
	 width="28.089px" height="32px" viewBox="0 0 28.089 32" enable-background="new 0 0 28.089 32" xml:space="preserve">
<g id="Fondo_1_" display="none">
	<rect id="Fondo" x="-267.921" y="-2299.518" display="inline" fill="#FB6E92" width="1000" height="2438.351"/>
</g>
<g id="Guias" display="none">
</g>
<g id="Icons">
	<g display="none" opacity="0.2">
		<path display="inline" fill="#FFFFFF" d="M142.087-822.997c-11.281,3.636-35.885,28.281-38.51,36.153
			c-2.621,7.851,12.065,36.154,18.865,37.705c6.793,1.59,56.584-20.437,58.154-28.284
			C182.167-785.294,153.371-826.676,142.087-822.997z"/>
		<path display="inline" fill="#FFFFFF" d="M245.057-903.155c-10.498,0.494-88.546,59.727-88.034,69.146
			c0.52,9.423,29.359,46.629,37.729,47.951c8.363,1.301,70.222-78.341,72.308-88.814
			C269.145-885.368,255.528-903.694,245.057-903.155z"/>
		<path display="inline" fill="#FFFFFF" d="M559.992-1189.6c-10.934-15.145-35.498-16.26-56.115-3.016
			c-7.871-4.009-17.023-7.233-27.768-9.215c0,0-391.393,317.515-477.854,378.833c0,0-3.302,7.003-8.776,18.407
			c98.108,68.715,86.957,120.568,86.957,120.568C49.287-750.939-19.449-786.06-19.469-786.06
			c-24.626,50.699-68.835,139.307-92.308,172.114c0,0-0.04,18.015,22.025,29.48c0,0,150.072-101.024,193.33-109.639
			c0,0,23.883-23.283,60.696-58.922c-20.121,10.308-43.196,20.062-52.827,20.659c-16.771,1.053-36.152-39.437-34.582-53.776
			c1.569-14.338,153.521-139.574,176.037-137.984c22.54,1.57,29.875,22.518,30.414,37.725c0.205,6.548-13.654,26.546-30.414,48.012
			c113.258-108.669,256.182-243.843,297.084-273.841c0,0,0.414-10.661-3.141-24.688
			C564.533-1152.268,570.546-1174.932,559.992-1189.6z M-55.413-607.003c0,0-2.542-32.478-33.638-43.818
			C-89.051-650.821-36.822-674.456-55.413-607.003z"/>
	</g>
	<path display="none" opacity="0.5" fill="#71C8EA" enable-background="new    " d="M1513.134-873.34l3.332,3.333
		c0,0,17-13.666,32.5-11.833c0,0,21-27.999,50-37.833c0,0,17.668-9.834,7.168-30.667s-24.328-12.938-31.168-8
		c-9.582,6.916-39.77,40.322-51.5,56.333C1523.466-902.007,1526.966-885.673,1513.134-873.34z"/>
	<path d="M23.121,2.531c-3.332-0.537-6.56,2.312-7.211,6.363c-0.375,2.337,0.192,4.559,1.377,6.127l-2.312,4.015
		c-0.732-0.52-1.575-0.816-2.522-0.754c-0.639,0.041-1.252,0.201-1.833,0.444L9.958,15.42c2.106-1.388,3.538-4.098,3.538-7.217
		C13.496,3.674,10.476,0,6.748,0C3.021,0,0,3.674,0,8.204c0,4.531,3.021,8.203,6.748,8.203c0.44,0,0.869-0.056,1.287-0.153
		l1.385,3.118c-3.022,1.987-4.892,6.024-4.509,6.582c1.058,1.545,4.014-0.848,4.014-0.848s-3.572,4.245-2.176,6.141
		c0.765,1.039,9.497,0.971,10.204,0c0.707-0.97-1.971-6.664-1.971-6.664s1.721,3.619,2.633,3.049c1.23-0.77,0.526-5.166-1.613-7.649
		l2.742-3.583c0.605,0.398,1.282,0.682,2.021,0.801c3.333,0.535,6.56-2.312,7.211-6.363C28.625,6.785,26.453,3.068,23.121,2.531z
		 M4.805,8.203c0-1.656,0.87-2.999,1.943-2.999c1.074,0,1.943,1.343,1.943,2.999c0,1.658-0.87,3-1.943,3
		C5.675,11.203,4.805,9.861,4.805,8.203z M24.274,10.311c-0.381,1.612-1.534,2.72-2.581,2.473c-1.043-0.246-1.583-1.753-1.201-3.365
		c0.381-1.611,1.535-2.719,2.579-2.471C24.117,7.193,24.654,8.699,24.274,10.311z"/>
</g>
</svg>
