<?xml version="1.0" encoding="utf-8"?>
<!-- Generator: Adobe Illustrator 16.0.4, SVG Export Plug-In . SVG Version: 6.00 Build 0)  -->
<!DOCTYPE svg PUBLIC "-//W3C//DTD SVG 1.1//EN" "http://www.w3.org/Graphics/SVG/1.1/DTD/svg11.dtd">
<svg version="1.1" fill="rgb(0, 14, 156)" xmlns="http://www.w3.org/2000/svg" xmlns:xlink="http://www.w3.org/1999/xlink" x="0px" y="0px"
	 width="28.661px" height="32px" viewBox="0 0 28.661 32" enable-background="new 0 0 28.661 32" xml:space="preserve">
<g id="Fondo_1_" display="none">
	<rect id="Fondo" x="-319.79" y="-2299.592" display="inline" fill="#FB6E92" width="1000" height="2438.351"/>
</g>
<g id="Guias" display="none">
</g>
<g id="Icons">
	<g display="none" opacity="0.2">
		<path display="inline" fill="#FFFFFF" d="M90.219-823.071c-11.282,3.636-35.885,28.281-38.51,36.153
			c-2.621,7.851,12.064,36.154,18.865,37.705c6.793,1.59,56.584-20.436,58.153-28.284C130.299-785.368,101.5-826.75,90.219-823.071z
			"/>
		<path display="inline" fill="#FFFFFF" d="M193.188-903.229c-10.498,0.494-88.546,59.726-88.034,69.146
			c0.519,9.423,29.36,46.629,37.729,47.951c8.363,1.301,70.221-78.341,72.307-88.814
			C217.276-885.442,203.661-903.769,193.188-903.229z"/>
		<path display="inline" fill="#FFFFFF" d="M508.124-1189.674c-10.932-15.145-35.498-16.26-56.115-3.016
			c-7.871-4.009-17.023-7.233-27.768-9.215c0,0-391.393,317.515-477.854,378.833c0,0-3.302,7.003-8.776,18.407
			C35.72-735.95,24.568-684.097,24.568-684.097c-27.149-66.916-95.885-102.037-95.905-102.037
			c-24.626,50.699-68.835,139.307-92.308,172.114c0,0-0.04,18.015,22.025,29.48c0,0,150.072-101.024,193.33-109.639
			c0,0,23.883-23.283,60.696-58.922c-20.12,10.308-43.196,20.062-52.827,20.659c-16.771,1.053-36.152-39.437-34.582-53.776
			c1.569-14.338,153.521-139.574,176.037-137.984c22.541,1.57,29.875,22.519,30.414,37.725c0.205,6.548-13.654,26.546-30.414,48.012
			c113.258-108.669,256.182-243.843,297.084-273.841c0,0,0.414-10.661-3.141-24.688
			C512.665-1152.342,518.676-1175.006,508.124-1189.674z M-107.282-607.077c0,0-2.542-32.478-33.638-43.818
			C-140.919-650.896-88.691-674.53-107.282-607.077z"/>
	</g>
	<path display="none" opacity="0.5" fill="#71C8EA" enable-background="new    " d="M1461.264-873.414l3.334,3.333
		c0,0,17-13.666,32.5-11.833c0,0,21-27.999,50-37.833c0,0,17.666-9.834,7.166-30.667s-24.326-12.937-31.166-8
		c-9.584,6.916-39.771,40.322-51.5,56.333C1471.598-902.081,1475.098-885.747,1461.264-873.414z"/>
	<path d="M25.893,8.32c0,0,3.42-6.103,2.656-6.691c-0.6-0.461-3.336,0.925-4.48,1.541C20.771-0.289,13.275-1.781,7.94,3.219
		C6.976,2.416,4.267,0.241,3.76,0.748C2.704,1.805,4.512,6.191,5.208,7.759C3.195,13.838,4.23,22.248,4.23,22.248
		s-4.815,1.584-4.17,2.525c1.526,2.231,5.051-0.176,5.051-0.176s-4.171,4.463-2.349,5.579c3.031,1.858,6.403-3.229,6.403-3.229
		S8.166,32,10.633,32c2.878,0,4.288-4.643,4.288-4.643s1.41,5.053,5.935,3.584c2.138-0.693-1.646-4.348-1.646-4.348
		s4.348,1.881,6.168-0.471c0.613-0.788-2.584-1.938-2.584-1.938S26.028,14.639,25.893,8.32z M18.309,5.702
		c1.471,0,2.663,1.524,2.663,3.407c0,1.882-1.192,3.407-2.663,3.407s-2.663-1.525-2.663-3.407
		C15.646,7.227,16.838,5.702,18.309,5.702z M11.26,6.172c1.471,0,2.663,1.525,2.663,3.407c0,1.882-1.192,3.407-2.663,3.407
		c-1.471,0-2.663-1.525-2.663-3.407C8.597,7.697,9.789,6.172,11.26,6.172z M12.63,25.243c-5.346-0.058-6.051-7.372-5.522-7.976
		c0.097-0.108,0.563-0.273,1.272-0.461c0.338,0.897,1.171,2.889,1.9,2.797c0.718-0.09,1.263-2.4,1.481-3.491
		c1.555-0.256,3.303-0.471,4.932-0.55c0.031,1.216,0.16,3.648,0.695,3.748c1.362,0.252,2.896-2.699,3.301-3.536
		c0.499,0.113,0.919,0.27,1.222,0.481C22.736,16.829,17.976,25.303,12.63,25.243z"/>
</g>
</svg>
