<?xml version="1.0" encoding="utf-8"?>
<!-- Generator: Adobe Illustrator 16.0.4, SVG Export Plug-In . SVG Version: 6.00 Build 0)  -->
<!DOCTYPE svg PUBLIC "-//W3C//DTD SVG 1.1//EN" "http://www.w3.org/Graphics/SVG/1.1/DTD/svg11.dtd">
<svg version="1.1" fill="rgb(0, 14, 156)" xmlns="http://www.w3.org/2000/svg" xmlns:xlink="http://www.w3.org/1999/xlink" x="0px" y="0px"
	 width="30.518px" height="32px" viewBox="0 0 30.518 32" enable-background="new 0 0 30.518 32" xml:space="preserve">
<g id="Fondo_1_" display="none">
	<rect id="Fondo" x="-370.852" y="-2299.49" display="inline" fill="#FB6E92" width="1000" height="2438.352"/>
</g>
<g id="Guias" display="none">
</g>
<g id="Icons">
	<g display="none" opacity="0.2">
		<path display="inline" fill="#FFFFFF" d="M39.157-822.97c-11.282,3.636-35.885,28.281-38.51,36.153
			c-2.621,7.851,12.064,36.154,18.865,37.705c6.793,1.59,56.584-20.436,58.153-28.284C79.237-785.267,50.439-826.648,39.157-822.97z
			"/>
		<path display="inline" fill="#FFFFFF" d="M142.126-903.128c-10.498,0.494-88.546,59.726-88.034,69.146
			c0.52,9.423,29.36,46.629,37.729,47.951c8.363,1.301,70.221-78.341,72.307-88.813
			C166.214-885.341,152.598-903.667,142.126-903.128z"/>
		<path display="inline" fill="#FFFFFF" d="M457.06-1189.572c-10.932-15.145-35.498-16.26-56.114-3.016
			c-7.87-4.009-17.023-7.233-27.768-9.215c0,0-391.393,317.515-477.854,378.833c0,0-3.302,7.003-8.776,18.407
			c98.109,68.715,86.957,120.568,86.957,120.568c-27.148-66.916-95.885-102.037-95.904-102.037
			c-24.626,50.699-68.835,139.307-92.309,172.114c0,0-0.04,18.015,22.025,29.48c0,0,150.072-101.024,193.329-109.639
			c0,0,23.883-23.283,60.696-58.922c-20.12,10.308-43.196,20.062-52.826,20.659c-16.772,1.053-36.153-39.437-34.583-53.776
			c1.569-14.338,153.521-139.574,176.038-137.984c22.54,1.57,29.875,22.518,30.414,37.725c0.204,6.548-13.655,26.546-30.414,48.012
			c113.258-108.669,256.182-243.843,297.083-273.841c0,0,0.414-10.661-3.14-24.688
			C461.602-1152.24,467.615-1174.904,457.06-1189.572z M-158.344-606.976c0,0-2.542-32.478-33.638-43.818
			C-191.981-650.794-139.753-674.429-158.344-606.976z"/>
	</g>
	<path display="none" opacity="0.5" fill="#71C8EA" enable-background="new    " d="M1410.203-873.312l3.333,3.333
		c0,0,17-13.666,32.5-11.833c0,0,21-27.999,50-37.833c0,0,17.667-9.834,7.167-30.667s-24.327-12.937-31.167-8
		c-9.583,6.916-39.771,40.322-51.5,56.333C1420.536-901.979,1424.036-885.646,1410.203-873.312z"/>
	<g>
		<path d="M7.677,29.061C9.906,30.759,12.49,32,15.258,32c2.952,0,5.63-1.116,7.892-2.631C19.895,28.633,14.309,27.871,7.677,29.061
			z"/>
		<path d="M22.982,10.391l1.434-2.495c0.183,0.078,0.373,0.139,0.574,0.176c1.696,0.312,3.379-1.111,3.758-3.173
			c0.377-2.064-0.69-3.99-2.39-4.3c-1.698-0.312-3.38,1.11-3.757,3.173c-0.262,1.421,0.164,2.775,1.009,3.584l-1.205,2.577
			c-1.643-1.245-3.476-2.151-5.444-2.378c-2.818-0.324-5.815,0.97-8.496,2.819L7.619,7.141c0.975-0.643,1.639-1.896,1.639-3.342
			C9.258,1.701,7.859,0,6.132,0C4.407,0,3.008,1.701,3.008,3.799c0,2.098,1.398,3.798,3.124,3.798c0.205,0,0.403-0.025,0.596-0.071
			l1.153,3.263c-4.535,3.317-8.018,8.059-7.877,8.792c0.144,0.747,2.843,5.467,6.899,8.866c3.547-1.629,10.392-3.682,17.131,0.296
			c3.975-2.982,6.447-7.013,6.482-7.575C30.557,20.514,27.593,14.204,22.982,10.391z M11.831,20.337
			c-0.688,2.103-2.318,3.454-3.645,3.022c-1.325-0.435-1.84-2.49-1.152-4.592c0.688-2.103,2.319-3.456,3.646-3.021
			C12.003,16.18,12.519,18.234,11.831,20.337z M18.183,20.337c-0.688,2.103-2.32,3.454-3.646,3.022
			c-1.326-0.435-1.841-2.49-1.153-4.592c0.689-2.103,2.321-3.456,3.646-3.021S18.871,18.234,18.183,20.337z M24.535,20.337
			c-0.688,2.103-2.32,3.454-3.645,3.022c-1.326-0.435-1.842-2.49-1.152-4.592c0.688-2.103,2.32-3.456,3.644-3.021
			C24.707,16.18,25.223,18.234,24.535,20.337z"/>
	</g>
</g>
</svg>
