<?xml version="1.0" encoding="utf-8"?>
<!-- Generator: Adobe Illustrator 16.0.4, SVG Export Plug-In . SVG Version: 6.00 Build 0)  -->
<!DOCTYPE svg PUBLIC "-//W3C//DTD SVG 1.1//EN" "http://www.w3.org/Graphics/SVG/1.1/DTD/svg11.dtd">
<svg version="1.1" fill="rgb(0, 14, 156)" xmlns="http://www.w3.org/2000/svg" xmlns:xlink="http://www.w3.org/1999/xlink" x="0px" y="0px"
	 width="26.209px" height="32px" viewBox="0 0 26.209 32" enable-background="new 0 0 26.209 32" xml:space="preserve">
<g id="Fondo_1_" display="none">
	<rect id="Fondo" x="-424.861" y="-2299.522" display="inline" fill="#FB6E92" width="1000" height="2438.352"/>
</g>
<g id="Guias" display="none">
</g>
<g id="Icons">
	<g display="none" opacity="0.2">
		<path display="inline" fill="#FFFFFF" d="M-14.852-823.002c-11.282,3.636-35.885,28.281-38.51,36.153
			c-2.621,7.851,12.065,36.154,18.865,37.705c6.793,1.59,56.584-20.436,58.154-28.284C25.229-785.299-3.569-826.681-14.852-823.002z
			"/>
		<path display="inline" fill="#FFFFFF" d="M88.117-903.16c-10.498,0.494-88.546,59.726-88.034,69.146
			c0.519,9.423,29.359,46.629,37.729,47.951c8.363,1.301,70.222-78.341,72.308-88.814C112.205-885.373,98.589-903.699,88.117-903.16
			z"/>
		<path display="inline" fill="#FFFFFF" d="M403.052-1189.604c-10.932-15.145-35.498-16.26-56.114-3.016
			c-7.87-4.009-17.023-7.233-27.768-9.215c0,0-391.393,317.515-477.854,378.833c0,0-3.302,7.003-8.776,18.407
			c98.109,68.715,86.957,120.568,86.957,120.568c-27.149-66.916-95.885-102.037-95.905-102.037
			c-24.626,50.699-68.835,139.307-92.308,172.114c0,0-0.04,18.015,22.025,29.48c0,0,150.072-101.024,193.329-109.639
			c0,0,23.883-23.283,60.697-58.922c-20.121,10.309-43.197,20.062-52.827,20.659c-16.772,1.053-36.153-39.437-34.583-53.776
			c1.57-14.338,153.521-139.574,176.038-137.984c22.54,1.57,29.875,22.518,30.414,37.725c0.205,6.548-13.655,26.546-30.414,48.012
			c113.259-108.669,256.182-243.843,297.084-273.841c0,0,0.414-10.661-3.14-24.688
			C407.594-1152.272,413.606-1174.937,403.052-1189.604z M-212.353-607.008c0,0-2.542-32.479-33.638-43.818
			C-245.99-650.826-193.762-674.461-212.353-607.008z"/>
	</g>
	<path display="none" opacity="0.5" fill="#71C8EA" enable-background="new    " d="M1356.194-873.345l3.333,3.333
		c0,0,17-13.666,32.5-11.833c0,0,21-27.999,50-37.833c0,0,17.667-9.834,7.167-30.667s-24.327-12.938-31.167-8
		c-9.583,6.916-39.771,40.322-51.5,56.333C1366.527-902.012,1370.027-885.678,1356.194-873.345z"/>
	<g>
		<path d="M7.354,24.312c0.458-0.807-1.293-5.046-2.39-5.504c-1.096-0.458-4.124,2.654-4.189,3.76c-0.066,1.105,2.094,3.967,3,4.066
			C4.683,26.733,6.896,25.119,7.354,24.312z"/>
		<path d="M25.964,11.596c-0.17-0.308-0.727-0.554-1.218-0.718c-0.351-1.24-0.954-2.252-1.923-2.7
			c-0.854-0.396-1.926-0.361-2.977,0.008C19.101,6.024,17.39,1.242,16.737,0.8C12.583-2.014,1.392,3.133,0.11,7.892
			c-0.544,2.02,1.081,6.372,1.686,7.881c-1.074,1.234-1.761,2.784-1.68,4.262c0.022,0.396,0.112,0.801,0.25,1.209
			c0.951-1.83,4.159-4.867,5.44-4.332c1.496,0.625,3.885,6.41,3.26,7.51c-0.437,0.769-2.045,2.076-3.396,2.748
			c0.71,0.402,1.341,0.631,1.775,0.61c1.832-0.086,4.318-1.786,4.711-2.965c0.394-1.179-1.112-10.277-4.58-11.289
			c-1.229-0.359-2.547-0.083-3.73,0.57c-0.474-1.279-1.397-4.162-0.85-5.946c1.017-3.313,10.339-6.433,12.235-5.518
			c0.615,0.295,2.406,4.434,3.187,6.291c-1.272,0.876-2.319,2.265-2.597,3.995c-0.288,1.799,1.048,7.653,3.664,8.362
			c0.521,0.144,1.529-0.011,2.517-0.378c0.467,1.502,0.827,2.889,0.69,3.227c-0.184,0.457-1.243,1.211-2.411,1.904
			c-0.226-0.332-0.45-0.58-0.634-0.654c-0.694-0.283-5.836,2.272-6.114,2.842c-0.277,0.568,0.891,3.553,1.905,3.765
			c1.014,0.214,5.57-2.065,5.877-2.841c0.082-0.21,0.047-0.562-0.06-0.969c1.923-1.025,3.417-2.182,3.783-3.709
			c0.114-0.48-0.61-2.49-1.392-4.445c0.403-0.312,0.722-0.675,0.877-1.072c0.097-0.25,0.192-0.593,0.279-1.003
			c0.478-0.228,0.996-0.54,1.16-0.883C26.291,16.376,26.291,12.186,25.964,11.596z"/>
	</g>
</g>
</svg>
