<?xml version="1.0" encoding="utf-8"?>
<!-- Generator: Adobe Illustrator 16.0.4, SVG Export Plug-In . SVG Version: 6.00 Build 0)  -->
<!DOCTYPE svg PUBLIC "-//W3C//DTD SVG 1.1//EN" "http://www.w3.org/Graphics/SVG/1.1/DTD/svg11.dtd">
<svg version="1.1" fill="rgb(0, 14, 156)" xmlns="http://www.w3.org/2000/svg" xmlns:xlink="http://www.w3.org/1999/xlink" x="0px" y="0px"
	 width="21.121px" height="32px" viewBox="0 0 21.121 32" enable-background="new 0 0 21.121 32" xml:space="preserve">
<g id="Fondo_1_" display="none">
	<rect id="Fondo" x="-480.384" y="-2299.547" display="inline" fill="#FB6E92" width="1000" height="2438.351"/>
</g>
<g id="Guias" display="none">
</g>
<g id="Icons">
	<g display="none" opacity="0.2">
		<path display="inline" fill="#FFFFFF" d="M-70.375-823.026c-11.282,3.636-35.885,28.281-38.51,36.153
			c-2.621,7.851,12.065,36.154,18.865,37.705c6.793,1.59,56.584-20.436,58.154-28.284
			C-30.294-785.323-59.092-826.705-70.375-823.026z"/>
		<path display="inline" fill="#FFFFFF" d="M32.593-903.185c-10.497,0.494-88.545,59.726-88.033,69.146
			c0.519,9.423,29.36,46.629,37.729,47.951c8.363,1.301,70.22-78.341,72.307-88.814C56.682-885.397,43.066-903.724,32.593-903.185z"
			/>
		<path display="inline" fill="#FFFFFF" d="M347.529-1189.629c-10.932-15.145-35.498-16.26-56.115-3.016
			c-7.869-4.009-17.022-7.233-27.767-9.215c0,0-391.393,317.515-477.854,378.833c0,0-3.302,7.003-8.776,18.407
			c98.109,68.715,86.957,120.568,86.957,120.568c-27.149-66.916-95.885-102.037-95.905-102.037
			c-24.626,50.699-68.835,139.307-92.308,172.114c0,0-0.04,18.015,22.025,29.48c0,0,150.072-101.024,193.329-109.639
			c0,0,23.883-23.283,60.697-58.922c-20.121,10.308-43.197,20.062-52.827,20.659c-16.772,1.053-36.153-39.437-34.583-53.776
			c1.57-14.338,153.521-139.574,176.038-137.984c22.54,1.57,29.875,22.519,30.414,37.725c0.205,6.548-13.655,26.546-30.414,48.012
			c113.261-108.668,256.185-243.842,297.087-273.84c0,0,0.414-10.661-3.141-24.688
			C352.072-1152.297,358.083-1174.961,347.529-1189.629z M-267.875-607.032c0,0-2.542-32.478-33.638-43.818
			C-301.513-650.851-249.285-674.485-267.875-607.032z"/>
	</g>
	<path display="none" opacity="0.5" fill="#71C8EA" enable-background="new    " d="M1300.671-873.369l3.332,3.333
		c0,0,17-13.666,32.5-11.833c0,0,21-27.999,50-37.833c0,0,17.668-9.834,7.168-30.667s-24.328-12.937-31.168-8
		c-9.582,6.916-39.77,40.322-51.5,56.333C1311.003-902.036,1314.503-885.702,1300.671-873.369z"/>
	<path d="M14.141,13.537c0.772-1.022,1.354-2.246,1.659-3.618c1.005-4.521-1.372-8.893-5.307-9.767
		C6.556-0.721,2.552,2.234,1.55,6.755c-0.809,3.648,0.584,7.197,3.22,8.892L0,30.984l5.201-2.381L8.675,32l0.676-15.43
		c0.451-0.076,0.895-0.199,1.325-0.365l2.816,12.398l3.518-3.928h4.111L14.141,13.537z M3.438,6.93
		c0.738-3.322,3.681-5.496,6.573-4.853c2.893,0.64,4.64,3.854,3.905,7.177c-0.74,3.323-3.683,5.497-6.575,4.854
		C4.449,13.467,2.7,10.253,3.438,6.93z"/>
</g>
</svg>
