<?xml version="1.0" encoding="utf-8"?>
<!-- Generator: Adobe Illustrator 16.0.4, SVG Export Plug-In . SVG Version: 6.00 Build 0)  -->
<!DOCTYPE svg PUBLIC "-//W3C//DTD SVG 1.1//EN" "http://www.w3.org/Graphics/SVG/1.1/DTD/svg11.dtd">
<svg version="1.1" fill="rgb(0, 14, 156)" xmlns="http://www.w3.org/2000/svg" xmlns:xlink="http://www.w3.org/1999/xlink" x="0px" y="0px"
	 width="32px" height="28.5px" viewBox="0 0 32 28.5" enable-background="new 0 0 32 28.5" xml:space="preserve">
<g id="Fondo_1_" display="none">
	<rect id="Fondo" x="-525.884" y="-2301.712" display="inline" fill="#FB6E92" width="1000" height="2438.351"/>
</g>
<g id="Guias" display="none">
</g>
<g id="Icons">
	<g display="none" opacity="0.2">
		<path display="inline" fill="#FFFFFF" d="M-115.875-825.191c-11.282,3.636-35.885,28.281-38.51,36.153
			c-2.621,7.851,12.065,36.154,18.865,37.705c6.793,1.59,56.584-20.436,58.154-28.284
			C-75.795-787.488-104.593-828.87-115.875-825.191z"/>
		<path display="inline" fill="#FFFFFF" d="M-12.906-905.35c-10.498,0.494-88.546,59.726-88.034,69.146
			c0.519,9.423,29.36,46.629,37.729,47.951c8.363,1.301,70.221-78.341,72.307-88.814C11.182-887.562-2.435-905.889-12.906-905.35z"
			/>
		<path display="inline" fill="#FFFFFF" d="M302.027-1191.794c-10.932-15.145-35.497-16.26-56.114-3.016
			c-7.87-4.009-17.022-7.233-27.767-9.215c0,0-391.394,317.515-477.854,378.833c0,0-3.302,7.003-8.776,18.407
			c98.109,68.715,86.957,120.568,86.957,120.568c-27.149-66.916-95.885-102.037-95.905-102.037
			c-24.626,50.699-68.835,139.307-92.308,172.114c0,0-0.04,18.015,22.025,29.479c0,0,150.072-101.023,193.329-109.639
			c0,0,23.883-23.283,60.697-58.922c-20.121,10.308-43.197,20.062-52.827,20.659c-16.772,1.053-36.153-39.437-34.583-53.776
			c1.57-14.338,153.521-139.574,176.038-137.984c22.54,1.57,29.875,22.518,30.415,37.725c0.205,6.548-13.655,26.546-30.415,48.012
			c113.258-108.669,256.182-243.843,297.084-273.841c0,0,0.414-10.661-3.141-24.688
			C306.57-1154.462,312.583-1177.126,302.027-1191.794z M-313.376-609.197c0,0-2.542-32.478-33.638-43.818
			C-347.014-653.016-294.785-676.65-313.376-609.197z"/>
	</g>
	<path display="none" opacity="0.5" fill="#71C8EA" enable-background="new    " d="M1255.171-875.534l3.333,3.333
		c0,0,17-13.666,32.5-11.833c0,0,21-27.999,50-37.833c0,0,17.667-9.834,7.167-30.667s-24.327-12.937-31.167-8
		c-9.583,6.916-39.771,40.322-51.5,56.333C1265.504-904.201,1269.004-887.867,1255.171-875.534z"/>
	<g>
		<path d="M1.593,24.119c0,0-6.271-9.734,6.071-17.41C7.664,6.709,13.584,17.345,1.593,24.119z"/>
		<path d="M1.397,26.734c0,0,4.378-10.719,17.744-5.01C19.143,21.725,13.824,32.671,1.397,26.734z"/>
		<path d="M10.922,18.783c0,0,2.76-10.521,15.909-6.847C26.831,11.937,23.225,22.787,10.922,18.783z"/>
		<path d="M10.672,14.826c0,0-4.19-9.761,8.143-14.826C18.814,0,22.551,10.524,10.672,14.826z"/>
		<path d="M19.143,10.345c0,0-0.152-10.361,12.857-10.345C32,0,31.455,10.883,19.143,10.345z"/>
	</g>
</g>
</svg>
