<?xml version="1.0" encoding="utf-8"?>
<!-- Generator: Adobe Illustrator 16.0.4, SVG Export Plug-In . SVG Version: 6.00 Build 0)  -->
<!DOCTYPE svg PUBLIC "-//W3C//DTD SVG 1.1//EN" "http://www.w3.org/Graphics/SVG/1.1/DTD/svg11.dtd">
<svg version="1.1" fill="rgb(0, 14, 156)" xmlns="http://www.w3.org/2000/svg" xmlns:xlink="http://www.w3.org/1999/xlink" x="0px" y="0px"
	 width="31.799px" height="32px" viewBox="0 0 31.799 32" enable-background="new 0 0 31.799 32" xml:space="preserve">
<g id="Fondo_1_" display="none">
	<rect id="Fondo" x="-578.213" y="-2299.689" display="inline" fill="#FB6E92" width="1000" height="2438.351"/>
</g>
<g id="Guias" display="none">
</g>
<g id="Icons">
	<g display="none" opacity="0.2">
		<path display="inline" fill="#FFFFFF" d="M-168.204-823.169c-11.282,3.636-35.885,28.281-38.51,36.153
			c-2.621,7.851,12.065,36.154,18.865,37.705c6.793,1.59,56.584-20.436,58.154-28.284
			C-128.124-785.466-156.922-826.848-168.204-823.169z"/>
		<path display="inline" fill="#FFFFFF" d="M-65.235-903.327c-10.498,0.494-88.546,59.726-88.034,69.146
			c0.519,9.423,29.36,46.629,37.729,47.951c8.363,1.301,70.221-78.341,72.307-88.814C-41.147-885.54-54.764-903.866-65.235-903.327z
			"/>
		<path display="inline" fill="#FFFFFF" d="M249.699-1189.771c-10.933-15.145-35.498-16.26-56.115-3.016
			c-7.87-4.009-17.022-7.233-27.767-9.215c0,0-391.394,317.515-477.854,378.833c0,0-3.302,7.003-8.776,18.407
			c98.109,68.715,86.957,120.568,86.957,120.568c-27.149-66.916-95.885-102.037-95.905-102.037
			c-24.626,50.699-68.835,139.307-92.308,172.114c0,0-0.04,18.015,22.025,29.48c0,0,150.072-101.024,193.329-109.639
			c0,0,23.883-23.283,60.697-58.922c-20.121,10.309-43.197,20.062-52.827,20.659c-16.772,1.053-36.153-39.437-34.583-53.776
			c1.57-14.338,153.521-139.574,176.038-137.984c22.54,1.57,29.875,22.518,30.414,37.725c0.205,6.548-13.655,26.546-30.414,48.012
			c113.26-108.668,256.184-243.842,297.086-273.84c0,0,0.414-10.661-3.141-24.688
			C254.241-1152.439,260.254-1175.104,249.699-1189.771z M-365.705-607.175c0,0-2.542-32.479-33.638-43.818
			C-399.343-650.993-347.114-674.628-365.705-607.175z"/>
	</g>
	<path display="none" opacity="0.5" fill="#71C8EA" enable-background="new    " d="M1202.842-873.512l3.333,3.333
		c0,0,17-13.666,32.5-11.833c0,0,21-27.999,50-37.833c0,0,17.667-9.834,7.167-30.667s-24.327-12.938-31.167-8
		c-9.583,6.916-39.771,40.322-51.5,56.333C1213.175-902.179,1216.675-885.845,1202.842-873.512z"/>
	<path d="M31.799,18.71c0,0-1.448,5.944-6.624,9.685c-5.605,4.055-13.419,4.857-18.359,1.551C1.87,26.635-1.443,19.15,0.628,11.337
		C2.623,3.801,11.315,0,11.315,0s-6.617,11.315,0.979,20.359C19.042,28.395,31.799,18.71,31.799,18.71z"/>
</g>
</svg>
