<?xml version="1.0" encoding="utf-8"?>
<!-- Generator: Adobe Illustrator 16.0.4, SVG Export Plug-In . SVG Version: 6.00 Build 0)  -->
<!DOCTYPE svg PUBLIC "-//W3C//DTD SVG 1.1//EN" "http://www.w3.org/Graphics/SVG/1.1/DTD/svg11.dtd">
<svg version="1.1" fill="rgb(0, 14, 156)" xmlns="http://www.w3.org/2000/svg" xmlns:xlink="http://www.w3.org/1999/xlink" x="0px" y="0px"
	 width="32px" height="24.305px" viewBox="0 0 32 24.305" enable-background="new 0 0 32 24.305" xml:space="preserve">
<g id="Fondo_1_" display="none">
	<rect id="Fondo" x="-681.734" y="-2303.627" display="inline" fill="#FB6E92" width="1000" height="2438.352"/>
</g>
<g id="Guias" display="none">
</g>
<g id="Icons">
	<g display="none" opacity="0.2">
		<path display="inline" fill="#FFFFFF" d="M-271.725-827.106c-11.282,3.636-35.885,28.28-38.51,36.152
			c-2.621,7.852,12.065,36.154,18.865,37.705c6.793,1.59,56.584-20.436,58.154-28.284
			C-231.645-789.404-260.442-830.785-271.725-827.106z"/>
		<path display="inline" fill="#FFFFFF" d="M-168.756-907.265c-10.498,0.494-88.546,59.726-88.034,69.146
			c0.519,9.423,29.36,46.629,37.729,47.951c8.363,1.301,70.221-78.341,72.307-88.813
			C-144.668-889.478-158.284-907.804-168.756-907.265z"/>
		<path display="inline" fill="#FFFFFF" d="M146.18-1193.709c-10.933-15.145-35.498-16.26-56.115-3.016
			c-7.871-4.009-17.023-7.233-27.768-9.215c0,0-391.393,317.515-477.854,378.833c0,0-3.302,7.003-8.776,18.406
			c98.109,68.716,86.957,120.568,86.957,120.568c-27.149-66.916-95.885-102.037-95.905-102.037
			c-24.626,50.699-68.835,139.308-92.308,172.114c0,0-0.04,18.015,22.025,29.479c0,0,150.072-101.023,193.329-109.639
			c0,0,23.883-23.283,60.697-58.922c-20.121,10.308-43.197,20.062-52.827,20.659c-16.771,1.053-36.153-39.438-34.583-53.776
			c1.57-14.338,153.521-139.574,176.038-137.983c22.54,1.569,29.875,22.518,30.414,37.725c0.205,6.548-13.655,26.546-30.414,48.012
			c113.26-108.668,256.184-243.842,297.086-273.84c0,0,0.414-10.661-3.14-24.688C150.721-1156.377,156.732-1179.041,146.18-1193.709
			z M-469.226-611.112c0,0-2.542-32.479-33.638-43.818C-502.863-654.931-450.635-678.565-469.226-611.112z"/>
	</g>
	<path display="none" opacity="0.5" fill="#71C8EA" enable-background="new    " d="M1099.321-877.449l3.333,3.333
		c0,0,17-13.666,32.5-11.833c0,0,21-27.999,50-37.833c0,0,17.667-9.834,7.167-30.667s-24.327-12.937-31.167-8
		c-9.583,6.916-39.771,40.322-51.5,56.333C1109.654-906.116,1113.154-889.782,1099.321-877.449z"/>
	<path d="M31.998,9.93c-0.105-1.243-5.268-1.577-5.268-1.577s1.179-4.359,0.36-4.902c-0.815-0.542-4.045,1.965-4.045,1.965
		s-3.313-5.688-4.371-5.403s-1.276,6.879-1.276,6.879s-4.635-1.404-5.132-0.586c-0.19,0.314,0.044,1.257,0.404,2.296
		c-5.026,2.371-6.233,10.54-6.233,10.54s0.143-3.379-0.854-3.697c-2.373-0.761-4.092,0.246-5.12,1.74
		c-1.028,1.494-0.354,4.268,2.097,5.682c3.123,1.8,17.103,2.035,21.013,0c0.052-0.016,0.101-0.045,0.147-0.083
		c2.105-1.163,2.668-2.916,2.413-4.329c1.119,0.374,2.671,0.756,3.091,0.173c0.678-0.939-1.691-4.748-1.691-4.748
		S32.104,11.175,31.998,9.93z M26.027,15.065c-0.26,0.557-0.586,1.057-0.961,1.5c-0.197-0.154-0.412-0.271-0.64-0.341
		c-0.12-0.036-0.231-0.061-0.346-0.091c0.369-0.388,0.688-0.841,0.93-1.358c1.107-2.377,0.228-5.132-1.967-6.154
		c-1.274-0.595-2.714-0.466-3.912,0.207c-0.422-0.261-0.932-0.474-1.54-0.625c1.676-1.467,3.987-1.943,5.979-1.015
		C26.352,8.483,27.45,12.01,26.027,15.065z"/>
</g>
</svg>
