<?xml version="1.0" encoding="utf-8"?>
<!-- Generator: Adobe Illustrator 16.0.4, SVG Export Plug-In . SVG Version: 6.00 Build 0)  -->
<!DOCTYPE svg PUBLIC "-//W3C//DTD SVG 1.1//EN" "http://www.w3.org/Graphics/SVG/1.1/DTD/svg11.dtd">
<svg version="1.1" fill="rgb(0, 14, 156)" xmlns="http://www.w3.org/2000/svg" xmlns:xlink="http://www.w3.org/1999/xlink" x="0px" y="0px"
	 width="29.824px" height="32px" viewBox="0 0 29.824 32" enable-background="new 0 0 29.824 32" xml:space="preserve">
<g id="Fondo_1_" display="none">
	<rect id="Fondo" x="-786.417" y="-2299.503" display="inline" fill="#FB6E92" width="1000" height="2438.351"/>
</g>
<g id="Guias" display="none">
</g>
<g id="Icons">
	<g display="none" opacity="0.2">
		<path display="inline" fill="#FFFFFF" d="M-376.407-822.982c-11.282,3.636-35.885,28.281-38.51,36.153
			c-2.621,7.851,12.065,36.154,18.865,37.705c6.793,1.59,56.584-20.436,58.154-28.284
			C-336.327-785.279-365.125-826.661-376.407-822.982z"/>
		<path display="inline" fill="#FFFFFF" d="M-273.438-903.141c-10.498,0.494-88.546,59.726-88.034,69.146
			c0.519,9.423,29.36,46.629,37.729,47.951c8.363,1.301,70.221-78.341,72.307-88.814
			C-249.351-885.354-262.967-903.68-273.438-903.141z"/>
		<path display="inline" fill="#FFFFFF" d="M41.496-1189.585c-10.932-15.145-35.498-16.26-56.115-3.016
			c-7.87-4.009-17.023-7.233-27.767-9.215c0,0-391.393,317.515-477.854,378.833c0,0-3.302,7.003-8.776,18.407
			c98.109,68.715,86.957,120.568,86.957,120.568c-27.149-66.916-95.885-102.037-95.905-102.037
			c-24.626,50.699-68.835,139.307-92.308,172.114c0,0-0.04,18.015,22.025,29.479c0,0,150.072-101.023,193.329-109.639
			c0,0,23.883-23.283,60.697-58.922c-20.121,10.308-43.197,20.062-52.827,20.659c-16.772,1.053-36.153-39.437-34.583-53.776
			c1.57-14.338,153.521-139.574,176.038-137.984c22.54,1.57,29.875,22.518,30.414,37.725c0.205,6.548-13.655,26.546-30.414,48.012
			c113.258-108.669,256.182-243.843,297.084-273.841c0,0,0.414-10.661-3.14-24.688C46.038-1152.253,52.051-1174.917,41.496-1189.585
			z M-573.908-606.988c0,0-2.542-32.478-33.638-43.818C-607.546-650.807-555.317-674.441-573.908-606.988z"/>
	</g>
	<path display="none" opacity="0.5" fill="#71C8EA" enable-background="new    " d="M994.639-873.325l3.333,3.333
		c0,0,17-13.666,32.5-11.833c0,0,21-27.999,50-37.833c0,0,17.667-9.834,7.167-30.667s-24.327-12.937-31.167-8
		c-9.583,6.916-39.771,40.322-51.5,56.333C1004.972-901.992,1008.472-885.658,994.639-873.325z"/>
	<path d="M7.386,12.829c0,0,1.979-13.439,11.093-12.808c9.379,0.652,3.346,12.808,3.346,12.808s1.478-4.138,5.709-2.855
		c2.219,0.673,3.996,4.792-0.489,7.128c-4.485,2.335-20.522,2.064-24.104,0c-2.814-1.624-3.586-4.803-2.406-6.518
		c1.18-1.713,3.15-2.868,5.874-1.997C7.548,8.953,7.386,12.829,7.386,12.829z"/>
	<path d="M10.409,21.047c0,0,0.217,1.262,0.018,2.56c-0.293,1.896-1.994,3.601-3.679,2.812c-1.062-0.496-1.315-2.637,1.066-3.569
		C8.711,22.497,10.409,21.047,10.409,21.047z"/>
	<path d="M13.346,26.433c0,0,0.218,1.26,0.017,2.558c-0.291,1.896-1.992,3.602-3.678,2.813c-1.062-0.497-1.316-2.638,1.066-3.571
		C11.647,27.881,13.346,26.433,13.346,26.433z"/>
	<path d="M20.197,21.047c0,0,0.218,1.262,0.018,2.56c-0.292,1.896-1.994,3.601-3.679,2.812c-1.062-0.496-1.316-2.637,1.065-3.569
		C18.499,22.497,20.197,21.047,20.197,21.047z"/>
</g>
</svg>
