<?xml version="1.0" encoding="utf-8"?>
<!-- Generator: Adobe Illustrator 16.0.4, SVG Export Plug-In . SVG Version: 6.00 Build 0)  -->
<!DOCTYPE svg PUBLIC "-//W3C//DTD SVG 1.1//EN" "http://www.w3.org/Graphics/SVG/1.1/DTD/svg11.dtd">
<svg version="1.1" fill="rgb(0, 14, 156)" xmlns="http://www.w3.org/2000/svg" xmlns:xlink="http://www.w3.org/1999/xlink" x="0px" y="0px"
	 width="29.91px" height="32px" viewBox="0 0 29.91 32" enable-background="new 0 0 29.91 32" xml:space="preserve">
<g id="Fondo_1_" display="none">
	<rect id="Fondo" x="-838.894" y="-2299.356" display="inline" fill="#FB6E92" width="1000" height="2438.352"/>
</g>
<g id="Guias" display="none">
</g>
<g id="Icons">
	<g display="none" opacity="0.2">
		<path display="inline" fill="#FFFFFF" d="M-428.885-822.836c-11.282,3.636-35.885,28.281-38.51,36.153
			c-2.621,7.851,12.065,36.154,18.865,37.705c6.793,1.59,56.584-20.436,58.154-28.284
			C-388.805-785.133-417.603-826.515-428.885-822.836z"/>
		<path display="inline" fill="#FFFFFF" d="M-325.916-902.994c-10.498,0.494-88.546,59.726-88.034,69.146
			c0.519,9.423,29.36,46.629,37.729,47.951c8.363,1.301,70.221-78.341,72.307-88.814
			C-301.828-885.207-315.444-903.533-325.916-902.994z"/>
		<path display="inline" fill="#FFFFFF" d="M-10.981-1189.438c-10.932-15.145-35.498-16.26-56.115-3.016
			c-7.87-4.009-17.023-7.233-27.767-9.215c0,0-391.393,317.515-477.854,378.833c0,0-3.302,7.003-8.776,18.407
			c98.109,68.715,86.957,120.568,86.957,120.568c-27.149-66.916-95.885-102.037-95.905-102.037
			c-24.626,50.699-68.835,139.307-92.308,172.114c0,0-0.04,18.015,22.025,29.48c0,0,150.072-101.024,193.329-109.639
			c0,0,23.883-23.283,60.697-58.922c-20.121,10.309-43.197,20.062-52.827,20.659c-16.772,1.053-36.153-39.437-34.583-53.776
			c1.57-14.338,153.521-139.574,176.038-137.984c22.54,1.57,29.875,22.518,30.414,37.725c0.205,6.548-13.655,26.546-30.414,48.012
			c113.258-108.669,256.182-243.843,297.084-273.841c0,0,0.414-10.661-3.14-24.688C-6.439-1152.106-0.427-1174.771-10.981-1189.438z
			 M-626.386-606.842c0,0-2.542-32.479-33.638-43.818C-660.023-650.66-607.795-674.295-626.386-606.842z"/>
	</g>
	<path display="none" opacity="0.5" fill="#71C8EA" enable-background="new    " d="M942.162-873.179l3.332,3.333
		c0,0,17-13.666,32.5-11.833c0,0,21-27.999,50-37.833c0,0,17.668-9.834,7.168-30.667s-24.328-12.938-31.168-8
		c-9.582,6.916-39.771,40.322-51.5,56.333C952.494-901.846,955.994-885.512,942.162-873.179z"/>
	<path d="M6.321,15.171c0,0,1.694-11.505,9.497-10.963c8.027,0.557,3.545,9.323,3.545,9.323s1.002-2.321,4.623-1.224
		c1.9,0.575,3.004,4.521-0.838,6.521c-3.84,1.998-17.567,1.768-20.634,0c-2.408-1.39-3.069-4.111-2.059-5.579
		c1.009-1.468,2.696-2.457,5.027-1.709C6.461,11.852,6.321,15.171,6.321,15.171z"/>
	<path d="M28.175,8.118c-3.334-1.01-4.289,0.567-4.444,0.873c0.315-0.645,3.985-8.438-3.724-8.973
		c-1.805-0.126-3.276,0.398-4.481,1.269c0.835-0.063,1.765-0.075,2.806-0.013c8.035,0.484,4.051,9.287,4.051,9.287
		s2.793-1.913,4.938-0.687c1.229,0.702,1.854,2.048,1.394,3.78C30.837,11.56,29.798,8.609,28.175,8.118z"/>
	<path d="M9.748,22.626c0,0,0.186,1.078,0.014,2.188c-0.249,1.624-1.706,3.082-3.148,2.409c-0.909-0.427-1.126-2.259,0.914-3.058
		C8.294,23.865,9.748,22.626,9.748,22.626z"/>
	<path d="M12.261,27.233c0.001,0,0.188,1.079,0.016,2.188c-0.25,1.625-1.706,3.082-3.149,2.408
		c-0.908-0.424-1.125-2.256,0.913-3.057C10.808,28.474,12.261,27.233,12.261,27.233z"/>
	<path d="M18.126,22.626c0,0,0.187,1.078,0.016,2.188c-0.25,1.624-1.706,3.082-3.149,2.409c-0.908-0.427-1.125-2.259,0.915-3.058
		C16.673,23.865,18.126,22.626,18.126,22.626z"/>
</g>
</svg>
