<?xml version="1.0" encoding="UTF-8" standalone="no"?>
<!-- Generator: Adobe Illustrator 22.0.1, SVG Export Plug-In . SVG Version: 6.00 Build 0)  -->

<svg
   xmlns:dc="http://purl.org/dc/elements/1.1/"
   xmlns:cc="http://creativecommons.org/ns#"
   xmlns:rdf="http://www.w3.org/1999/02/22-rdf-syntax-ns#"
   xmlns:svg="http://www.w3.org/2000/svg"
   xmlns="http://www.w3.org/2000/svg"
   xmlns:sodipodi="http://sodipodi.sourceforge.net/DTD/sodipodi-0.dtd"
   xmlns:inkscape="http://www.inkscape.org/namespaces/inkscape"
   version="1.1"
   id="Layer_1"
   x="0px"
   y="0px"
   viewBox="0 0 677 142.3"
   style="enable-background:new 0 0 677 142.3;"
   xml:space="preserve"
   sodipodi:docname="ovhcloud.svg"
   inkscape:version="0.92.4 (5da689c313, 2019-01-14)"><metadata
   id="metadata30"><rdf:RDF><cc:Work
       rdf:about=""><dc:format>image/svg+xml</dc:format><dc:type
         rdf:resource="http://purl.org/dc/dcmitype/StillImage" /></cc:Work></rdf:RDF></metadata><defs
   id="defs28" /><sodipodi:namedview
   pagecolor="#ffffff"
   bordercolor="#666666"
   borderopacity="1"
   objecttolerance="10"
   gridtolerance="10"
   guidetolerance="10"
   inkscape:pageopacity="0"
   inkscape:pageshadow="2"
   inkscape:window-width="2736"
   inkscape:window-height="1714"
   id="namedview26"
   showgrid="false"
   inkscape:zoom="3.7444609"
   inkscape:cx="278.50234"
   inkscape:cy="71.150002"
   inkscape:window-x="-12"
   inkscape:window-y="-12"
   inkscape:window-maximized="1"
   inkscape:current-layer="Layer_1" />
<style
   type="text/css"
   id="style21">
	.st0{fill:#00416B;}
</style>
<path
   class="st0"
   d="m 399.7,38.1 c -1.8,0 -3.2,1.5 -3.2,3.2 V 66.9 H 363.6 V 41.3 c 0,-1.7 -1.4,-3.2 -3.2,-3.2 -1.8,0 -3.2,1.5 -3.2,3.2 V 100 c 0,1.7 1.4,3.2 3.2,3.2 1.8,0 3.2,-1.5 3.2,-3.2 V 72.8 h 32.9 V 100 c 0,1.7 1.4,3.2 3.2,3.2 1.8,0 3.2,-1.5 3.2,-3.2 V 41.3 c 0,-1.7 -1.4,-3.2 -3.2,-3.2 z M 259.6,37.5 c -18.3,0 -29.5,10.8 -29.5,33.2 0,22.2 11.2,33.1 29.5,33.1 18.3,0 29.5,-10.9 29.5,-33.1 0,-22.4 -11.1,-33.2 -29.5,-33.2 z m 0,60.4 c -14.5,0 -22.9,-8.8 -22.9,-27.2 0,-18.5 8.4,-27.3 22.9,-27.3 14.5,0 22.9,8.8 22.9,27.3 0,18.4 -8.4,27.2 -22.9,27.2 z m 85,-59.8 c -1.8,0 -2.7,1.3 -3,2.1 L 322.4,91 303.2,40.1 c -0.3,-0.8 -1.2,-2.1 -3,-2.1 -1.8,0 -3.2,1.4 -3.2,3.2 0,0.6 0.2,1.1 0.3,1.4 l 22.1,58.3 c 0.5,1.3 1.8,2.2 3,2.2 1.2,0 2.6,-0.9 3,-2.2 l 22.1,-58.3 c 0.1,-0.3 0.3,-0.9 0.3,-1.4 0,-1.7 -1.4,-3.1 -3.2,-3.1 z M 179.3,56.8 h -19.1 l -22.5,39.1 h 19.1 L 142.4,121 h 46.9 c 12,-14.7 19.2,-33.4 19.2,-53.8 0,-15.2 -4,-29.5 -11,-41.9 z M 162.8,19.7 H 113.5 L 79.9,78.1 49.5,25.2 c -7,12.4 -11.1,26.7 -11.1,41.9 0,20.4 7.2,39.2 19.2,53.8 h 47 v 0 z m 396,42.5 c -1.6,0 -2.9,1.2 -2.9,2.8 v 22.8 c 0,5.7 -1.8,10.6 -10.6,10.6 -8.8,0 -10.6,-4.9 -10.6,-10.6 V 65 c 0,-1.6 -1.3,-2.8 -2.8,-2.8 -1.6,0 -2.8,1.2 -2.8,2.8 v 22.8 c 0,8.3 2.8,15.9 16.2,15.9 13.5,0 16.2,-7.6 16.2,-15.9 V 65 c 0,-1.6 -1.2,-2.8 -2.7,-2.8 z m -57.6,-0.6 c -11.3,0 -18.3,6.6 -18.3,20.9 0,14.3 7.1,21 18.3,21 11.3,0 18.3,-6.7 18.3,-21 0,-14.2 -7,-20.9 -18.3,-20.9 z m 0,36.9 c -8,0 -12.6,-4.8 -12.6,-16 0,-11 4.6,-15.9 12.6,-15.9 8,0 12.6,4.9 12.6,15.9 0,11.2 -4.6,16 -12.6,16 z M 605.1,40.4 c -1.6,0 -2.8,1.2 -2.8,2.8 v 24.2 c -2,-2.8 -6.3,-5.7 -11.9,-5.7 -11.3,0 -17.5,6.6 -17.5,20.9 0,14.3 6.6,21 17.9,21 9.9,0 17.1,-5.7 17.1,-17.2 V 43.2 c -0.1,-1.6 -1.3,-2.8 -2.8,-2.8 z m -2.8,46 c 0,8.3 -4.8,12.1 -11.5,12.1 -8,0 -12.3,-5.1 -12.3,-16 0,-10.7 4.4,-15.9 12.3,-15.9 8.2,0 11.5,7.7 11.5,7.7 z M 472,97.9 c -2.4,0 -3.5,-1.5 -3.5,-5 V 43.2 c 0,-1.5 -1.2,-2.8 -2.8,-2.8 -1.5,0 -2.8,1.3 -2.8,2.8 V 93 c 0,6.7 3.2,10.2 9.1,10.2 1.4,0 2.6,-1.1 2.6,-2.6 0,-1.5 -1.2,-2.7 -2.6,-2.7 z m -23.1,-3.7 c -0.6,0 -1,0.2 -1.7,0.6 -2,1.5 -5.1,3.8 -10.1,3.8 -8,0 -12.3,-5.1 -12.3,-16 0,-10.7 4.3,-15.9 12.3,-15.9 5.8,0 8.1,2.6 9.4,4.1 0.6,0.7 1.2,1 2.1,1 1.4,0 2.5,-1 2.5,-2.5 0,-0.6 -0.2,-1 -0.6,-1.7 -1.4,-1.9 -5.7,-6 -13.4,-6 -11.3,0 -18,6.6 -18,20.9 0,14.3 6.7,21 18,21 7.1,0 11.3,-3.1 13.2,-4.7 0.9,-0.8 1.1,-1.4 1.1,-2.2 0.1,-1.3 -1.1,-2.4 -2.5,-2.4 z"
   id="path23"
   style="fill:#000e9c;fill-opacity:1"
   inkscape:connector-curvature="0"
   sodipodi:nodetypes="ssccssssssccsssssssssssssssscccssccsccssccccccsccccccsccccssssssssssssssssssssssssscsssscssssscssssssssssscssscsscsssccs" />
</svg>