<svg width="120px" height="120px" viewBox="0 0 32 32" version="1.1" xmlns="http://www.w3.org/2000/svg" xmlns:xlink="http://www.w3.org/1999/xlink" fill="#222c32">
  <g id="Icons/concept/User/Person" stroke="none" stroke-width="1">
    <path d="M16,32 C12.2510269,32 9.17050541,29.3500039 9.00683872,26.000505 L6.5,26 C4.01471863,26 2,28.0147186 2,30.5 L2,31.5 C2,31.7761424 1.77614237,32 1.5,32 C1.22385763,32 1,31.7761424 1,31.5 L1,30.5 C1,27.4624339 3.46243388,25 6.5,25 L9.5,25 L9.5,25 C10.3284271,25 11,24.3284271 11,23.5 L11,21.5 C11,21.4225071 11.0176291,21.3491316 11.0490956,21.2836654 C9.19256968,19.8203896 8,17.5494646 8,15 L8.00029246,10.9147505 C7.41754351,10.7089149 7,10.1532187 7,9.5 L7,4.5 C7,3.11928813 8.11928813,2 9.5,2 L12,2 L12,1.5 C12,0.671572875 12.6715729,0 13.5,0 L22.5,0 C23.8807119,0 25,1.11928813 25,2.5 L25,9.5 C25,10.1528467 24.5829319,10.7082819 24.000703,10.9143985 L24,15 C24,17.5494646 22.8074303,19.8203896 20.9497108,21.2853552 C20.9823709,21.3491316 21,21.4225071 21,21.5 L21,23.5 C21,24.2796961 21.5948881,24.9204487 22.35554,24.9931334 L22.5,25 L22.5,25 L25.5,25 C28.5375661,25 31,27.4624339 31,30.5 L31,31.5 C31,31.7761424 30.7761424,32 30.5,32 C30.2238576,32 30,31.7761424 30,31.5 L30,30.5 C30,28.0147186 27.9852814,26 25.5,26 L22.9931613,26.000505 C22.8294946,29.3500039 19.7489731,32 16,32 Z M16,23 C14.5427854,23 13.1765696,22.6103875 11.99984,21.9296499 L12,23.5 C12,24.7071876 11.1443714,25.7145324 10.0064826,25.9486661 C10.1416605,28.7447158 12.7626228,31 16,31 C19.2373772,31 21.8583395,28.7447158 21.9944464,25.9485764 C20.8556286,25.7145324 20,24.7071876 20,23.5 L20.0011597,21.9290715 C18.8242042,22.6101668 17.4576273,23 16,23 Z M22.5,1 L13.5,1 C13.2238576,1 13,1.22385763 13,1.5 L13,2.5 C13,2.77614237 12.7761424,3 12.5,3 L9.5,3 C8.67157288,3 8,3.67157288 8,4.5 L8,9.5 L8.005,9.553 L8.008074,9.48691777 C8.04557839,9.10919444 8.21251816,8.75402946 8.48327381,8.48327381 C8.79270884,8.17383879 9.21239279,8 9.65,8 L18.5,8 C18.7761424,8 19,8.22385763 19,8.5 C19,8.77614237 18.7761424,9 18.5,9 L9.65,9 C9.47760928,9 9.31227924,9.06848195 9.19038059,9.19038059 C9.06848195,9.31227924 9,9.47760928 9,9.65 L9,15 C9,18.8659932 12.1340068,22 16,22 C19.8659932,22 23,18.8659932 23,15 L23,8.5 C23,8.22385763 23.2238576,8 23.5,8 C23.7761424,8 24,8.22385763 24,8.5 L24,2.5 C24,1.67157288 23.3284271,1 22.5,1 Z" id="Color"></path>
  </g>
</svg>
