<svg width="120px" height="120px" viewBox="0 0 32 32" version="1.1" xmlns="http://www.w3.org/2000/svg" xmlns:xlink="http://www.w3.org/1999/xlink" fill="#222c32">
  <g id="Icons/concept/Cloud/Cloud-Server" stroke="none" stroke-width="1">
    <path d="M20.0436835,5.284012 C24.0893349,6.2381513 26.9533694,9.8413908 26.97,14 L26.97,14.2847851 C30.2155389,15.2379255 32.3370667,18.3981345 31.947662,21.7968171 C31.5430072,25.3285999 28.5554131,27.9962592 25,28 L6.99823829,28 C3.84221543,27.9888768 1.08393514,25.8672031 0.26353807,22.8196545 C-0.522442763,19.8999527 0.656526053,16.8222856 3.15212154,15.1675164 C2.66753464,13.2693371 3.3471431,11.2454169 4.91339441,10.0272214 C6.44226007,8.83810365 8.50726715,8.65678908 10.2051838,9.52022863 C12.1810126,6.11330167 16.1703741,4.37051837 20.0436835,5.284012 Z M10.8464115,10.4352038 C10.7120623,10.7015184 10.3759163,10.7917157 10.1262937,10.6284314 C8.71050248,9.70232756 6.8627485,9.77791869 5.52733503,10.8165736 C4.19192156,11.8552285 3.66382457,13.6275215 4.21293048,15.2277139 C4.29019773,15.4528845 4.1979955,15.7013071 3.99253094,15.8215416 C1.65773637,17.1878245 0.525964039,19.9475251 1.22916153,22.5597096 C1.93235901,25.1718941 4.29659926,26.9904716 7,27.0000003 L24.9994739,27.0000003 C28.0465199,26.9967942 30.6073148,24.710229 30.9541618,21.6829866 C31.3010087,18.6557441 29.3237544,15.849231 26.356397,15.1569234 C26.1300968,15.1041257 25.97,14.9023776 25.97,14.67 L25.970004,14.002 L25.970004,14.002 C25.9552269,10.30775 23.4097724,7.10531578 19.8141379,6.25730989 C16.2185034,5.40930399 12.5103429,7.13686573 10.8464115,10.4352038 Z M22.5,13 C23.3284271,13 24,13.6715729 24,14.5 L24,18.5 C24,18.8846938 23.8551845,19.2355642 23.6170946,19.5010701 C23.8555371,19.7652906 24,20.1157747 24,20.5 L24,24.5 C24,25.3284271 23.3284271,26 22.5,26 L7.5,26 C6.67157288,26 6,25.3284271 6,24.5 L6,20.5 C6,20.1157747 6.1444629,19.7652906 6.38203584,19.4999005 C6.14481546,19.2355642 6,18.8846938 6,18.5 L6,14.5 C6,13.6715729 6.67157288,13 7.5,13 L22.5,13 Z M22.5,20 L7.5,20 C7.22385763,20 7,20.2238576 7,20.5 L7,24.5 C7,24.7761424 7.22385763,25 7.5,25 L22.5,25 C22.7761424,25 23,24.7761424 23,24.5 L23,20.5 C23,20.2238576 22.7761424,20 22.5,20 Z M21.5,21 C21.7761424,21 22,21.2238576 22,21.5 C22,21.7761424 21.7761424,22 21.5,22 C21.2238576,22 21,21.7761424 21,21.5 C21,21.2238576 21.2238576,21 21.5,21 Z M22.5,14 L7.5,14 C7.22385763,14 7,14.2238576 7,14.5 L7,18.5 C7,18.7454599 7.17687516,18.9496084 7.41012437,18.9919443 L7.5,19 L7.5,19 L22.5,19 C22.7761424,19 23,18.7761424 23,18.5 L23,14.5 C23,14.2238576 22.7761424,14 22.5,14 Z M21.5,15 C21.7761424,15 22,15.2238576 22,15.5 C22,15.7761424 21.7761424,16 21.5,16 C21.2238576,16 21,15.7761424 21,15.5 C21,15.2238576 21.2238576,15 21.5,15 Z" id="Color"></path>
  </g>
</svg>
