<svg width="120px" height="120px" viewBox="0 0 32 32" version="1.1" xmlns="http://www.w3.org/2000/svg" xmlns:xlink="http://www.w3.org/1999/xlink" >
    <g id="Icons/concept/Cloud/Cloud-Padlock" stroke="none" stroke-width="1" fill="#222c32">
        <path d="M20.0436835,5.284012 C24.0893349,6.2381513 26.9533694,9.8413908 26.97,14 L26.97,14.2847851 C30.2155389,15.2379255 32.3370667,18.3981345 31.947662,21.7968171 C31.5430072,25.3285999 28.5554131,27.9962592 25,28 L6.99823829,28 C3.84221543,27.9888768 1.08393514,25.8672031 0.26353807,22.8196545 C-0.522442763,19.8999527 0.656526053,16.8222856 3.15212154,15.1675164 C2.66753464,13.2693371 3.3471431,11.2454169 4.91339441,10.0272214 C6.44226007,8.83810365 8.50726715,8.65678908 10.2051838,9.52022863 C12.1810126,6.11330167 16.1703741,4.37051837 20.0436835,5.284012 Z M10.8464115,10.4352038 C10.7120623,10.7015184 10.3759163,10.7917157 10.1262937,10.6284314 C8.71050248,9.70232756 6.8627485,9.77791869 5.52733503,10.8165736 C4.19192156,11.8552285 3.66382457,13.6275215 4.21293048,15.2277139 C4.29019773,15.4528845 4.1979955,15.7013071 3.99253094,15.8215416 C1.65773637,17.1878245 0.525964039,19.9475251 1.22916153,22.5597096 C1.93235901,25.1718941 4.29659926,26.9904716 7,27.0000003 L24.9994739,27.0000003 C28.0465199,26.9967942 30.6073148,24.710229 30.9541618,21.6829866 C31.3010087,18.6557441 29.3237544,15.849231 26.356397,15.1569234 C26.1300968,15.1041257 25.97,14.9023776 25.97,14.67 L25.970004,14.002 L25.970004,14.002 C25.9552269,10.30775 23.4097724,7.10531578 19.8141379,6.25730989 C16.2185034,5.40930399 12.5103429,7.13686573 10.8464115,10.4352038 Z M16,9 C18.209139,9 20,10.790861 20,13 L19.9992819,14.9990953 L20.5,15 C21.3284271,15 22,15.6715729 22,16.5 L22,23.5 C22,24.3284271 21.3284271,25 20.5,25 L11.5,25 C10.6715729,25 10,24.3284271 10,23.5 L10,16.5 C10,15.6715729 10.6715729,15 11.5,15 L11.9992819,14.9990953 L12,13 C12,10.790861 13.790861,9 16,9 Z M20.5,16 L11.5,16 C11.2238576,16 11,16.2238576 11,16.5 L11,23.5 C11,23.7761424 11.2238576,24 11.5,24 L20.5,24 C20.7761424,24 21,23.7761424 21,23.5 L21,16.5 C21,16.2238576 20.7761424,16 20.5,16 Z M16,18 C16.5522847,18 17,18.4477153 17,19 L17,21 C17,21.5522847 16.5522847,22 16,22 C15.4477153,22 15,21.5522847 15,21 L15,19 C15,18.4477153 15.4477153,18 16,18 Z M16,10 C14.3431458,10 13,11.3431458 13,13 L12.9992819,14.9990953 L18.9992819,14.9990953 L19,13 C19,11.3431458 17.6568542,10 16,10 Z" id="Color"></path>
    </g>
</svg>
