<svg width="100px" height="100px" viewBox="0 0 32 32" version="1.1" xmlns="http://www.w3.org/2000/svg" xmlns:xlink="http://www.w3.org/1999/xlink">
  <g id="Icons/concept/Gear/Gear" stroke="none" stroke-width="1" fill="#222c32">
    <path d="M17.5549959,0.0920287454 C18.3302915,0.162083216 18.9231545,0.813580952 18.92,1.59 L18.9198214,2.92336251 C18.9134898,3.16019326 19.0742376,3.3689566 19.3175133,3.42653297 C20.4094296,3.71452325 21.4587676,4.14475181 22.4530884,4.7148124 C22.6496283,4.8364231 22.9039055,4.80748097 23.0664466,4.64644661 L24.0825,3.63109114 C24.6556636,3.10672659 25.5343364,3.10672659 26.0636445,3.59531136 C26.5064656,3.91662498 26.9313022,4.26202064 27.3696031,4.66326042 C27.7383928,5.06804152 28.0841018,5.49326364 28.3756328,5.9 C28.8731016,6.46625939 28.8731016,7.31374061 28.3535534,7.90355339 L27.3347049,8.92144671 C27.1692377,9.07054656 27.1223467,9.31111819 27.2038302,9.48142137 C27.7652482,10.4612324 28.1954767,11.5105704 28.4866375,12.6151786 C28.5410434,12.8457624 28.7498067,13.0065102 29,13 L30.4079713,13.0000041 C31.186419,12.9968455 31.8379168,13.5897085 31.9065355,14.3512417 C32.0361555,15.4465925 32.0361555,16.5534075 31.9079713,17.6349959 C31.8379168,18.4102915 31.186419,19.0031545 30.4079713,18.9999959 L30.3986393,18.9998709 L29.0766375,18.9698214 C28.8398067,18.9634898 28.6310434,19.1242376 28.572442,19.3713383 C28.280087,20.4452392 27.8499828,21.4767899 27.2851876,22.4530884 C27.1635769,22.6496283 27.192519,22.9039055 27.3535534,23.0664466 L28.3689089,24.0825 C28.8932734,24.6556636 28.8932734,25.5343364 28.4049267,26.0633161 C28.0838067,26.5066265 27.738225,26.931692 27.3539239,27.3531825 C27.0018778,27.7059675 26.6323992,28.0409154 26.2511338,28.3532403 C25.6549067,28.852845 24.7756883,28.8137686 24.2264466,28.2635534 L23.2280884,27.2651876 C23.0639055,27.102519 22.8096283,27.0735769 22.5985786,27.2038302 C21.6187676,27.7652482 20.5694296,28.1954767 19.4648214,28.4866375 C19.2342376,28.5410434 19.0734898,28.7498067 19.08,29 L19.0799959,30.4579713 C19.0831545,31.236419 18.4902915,31.8879168 17.7287583,31.9565355 C16.6334075,32.0861555 15.5265925,32.0861555 14.4450041,31.9579713 C13.6697085,31.8879168 13.0768455,31.236419 13.08,30.46 L13.0801786,29.0766375 C13.0865102,28.8398067 12.9257624,28.6310434 12.6825383,28.5734806 C11.5905493,28.2855957 10.5411639,27.8553477 9.5469116,27.2851876 C9.35037173,27.1635769 9.09609447,27.192519 8.93355339,27.3535534 L7.9175,28.3689089 C7.34433636,28.8932734 6.46566364,28.8932734 5.93638634,28.404711 C5.49351931,28.0834156 5.06866115,27.7380024 4.63019711,27.3365202 C4.26178687,26.9316732 3.9162141,26.5066187 3.6243672,26.1 C3.1268984,25.5337406 3.1268984,24.6862594 3.64644661,24.0964466 L4.66034969,23.0830699 C4.81884652,22.9363567 4.86522629,22.7044579 4.79705026,22.550109 C4.24039974,21.5865224 3.81037227,20.5551557 3.51336251,19.4648214 C3.4589566,19.2342376 3.25019326,19.0734898 3,19.08 L1.59202875,19.0799959 C0.813580952,19.0831545 0.162083216,18.4902915 0.0934645426,17.7287583 C-0.0361555453,16.6334075 -0.0361555453,15.5265925 0.0920287454,14.4450041 C0.162083216,13.6697085 0.813580952,13.0768455 1.59,13.08 L2.92336251,13.0801786 C3.16019326,13.0865102 3.3689566,12.9257624 3.42658717,12.6822814 C3.71499712,11.5906542 4.14514812,10.5415054 4.7148124,9.5469116 C4.8364231,9.35037173 4.80748097,9.09609447 4.64644661,8.93355339 L3.63109114,7.9175 C3.10672659,7.34433636 3.10672659,6.46566364 3.59492245,5.93689221 C3.91591943,5.49327156 4.26161929,5.06806073 4.66373724,4.62996303 C5.06866115,4.26199755 5.49351931,3.91658441 5.9,3.6243672 C6.46625939,3.1268984 7.31374061,3.1268984 7.90355339,3.64644661 L8.90965034,4.65265056 C9.05207053,4.80011436 9.27007786,4.84569771 9.40142137,4.79616977 C10.3812324,4.23475181 11.4305704,3.80452325 12.5351786,3.51336251 C12.7657624,3.4589566 12.9265102,3.25019326 12.92,3 L12.9200041,1.59202875 C12.9168455,0.813580952 13.5097085,0.162083216 14.2712417,0.0934645426 C15.3665925,-0.0361555453 16.4734075,-0.0361555453 17.5549959,0.0920287454 Z M14.3749959,1.08797125 C14.116564,1.11132274 13.918943,1.32848866 13.92,1.59 L13.9198214,2.98663749 C13.9388161,3.69712974 13.4565728,4.32341974 12.7775133,4.48346703 C11.7703072,4.74911517 10.8023764,5.14596681 9.84034966,5.69234944 C9.27163222,5.9264909 8.61761023,5.78974085 8.19644661,5.35355339 L7.22,4.3756328 C7.03124687,4.20980987 6.74875313,4.20980987 6.52361366,4.40471103 C6.11042941,4.70447192 5.71404699,5.02673405 5.36961656,5.33672481 C5.02611022,5.71378532 4.70408843,6.10987212 4.36890886,6.5675 C4.19412068,6.75855455 4.19412068,7.05144545 4.35355339,7.22644661 L5.3551876,8.2280884 C5.84319331,8.72063703 5.93001969,9.4834688 5.57393576,10.0583944 C5.05640062,10.9625091 4.6595173,11.9305172 4.39663749,12.9248214 C4.23341974,13.6165728 3.60712974,14.0988161 2.91,14.08 L1.58797125,14.0799959 C1.32848866,14.078943 1.11132274,14.276564 1.08653546,14.5487583 C0.96615415,15.5660371 0.96615415,16.5939629 1.08797125,17.6250041 C1.11132274,17.883436 1.32848866,18.081057 1.59,18.08 L2.98663749,18.0801786 C3.69712974,18.0611839 4.32341974,18.5434272 4.48238704,19.2184601 C4.75252199,20.2091072 5.14931704,21.1607701 5.68465031,22.0919301 C5.95428009,22.6810938 5.81514078,23.3767904 5.35355339,23.8035534 L4.3756328,24.78 C4.20980987,24.9687531 4.20980987,25.2512469 4.40491525,25.476668 C4.70425834,25.889881 5.02638655,26.2860987 5.33626276,26.629963 C5.71404699,26.9732659 6.11042941,27.2955281 6.5675,27.6310911 C6.75855455,27.8058793 7.05144545,27.8058793 7.22644661,27.6464466 L8.2280884,26.6448124 C8.72063703,26.1568067 9.4834688,26.0699803 10.0586249,26.4261963 C10.9623431,26.9441421 11.9302545,27.3409858 12.9248214,27.6033625 C13.6165728,27.7665803 14.0988161,28.3928703 14.08,29.09 L14.0799959,30.4620287 C14.078943,30.7215113 14.276564,30.9386773 14.5487583,30.9634645 C15.5660371,31.0838459 16.5939629,31.0838459 17.6250041,30.9620287 C17.883436,30.9386773 18.081057,30.7215113 18.08,30.46 L18.0801786,29.0133625 C18.0611839,28.3028703 18.5434272,27.6765803 19.2224867,27.516533 C20.2296928,27.2508848 21.1976236,26.8540332 22.0869116,26.3448124 C22.6765312,25.9799803 23.439363,26.0668067 23.9335534,26.5564466 L24.9338662,27.5567597 C25.1170511,27.7402692 25.4101239,27.7532946 25.613126,27.5832302 C25.9728463,27.2885174 26.3175941,26.975989 26.6302103,26.6634653 C26.973633,26.2861069 27.2957537,25.8898985 27.6310911,25.4325 C27.8058793,25.2414455 27.8058793,24.9485545 27.6464466,24.7735534 L26.6448124,23.7719116 C26.1568067,23.279363 26.0699803,22.5165312 26.4271548,21.9397101 C26.9411034,21.0509 27.3378662,20.0993145 27.6033625,19.1251786 C27.7665803,18.4334272 28.3928703,17.9511839 29.1013607,17.9701291 L30.4159043,18.0000051 C30.6736707,17.9990858 30.8888008,17.8020798 30.9134645,17.5312417 C31.0338459,16.5139629 31.0338459,15.4860371 30.9120287,14.4549959 C30.8886773,14.196564 30.6715113,13.998943 30.41,14 L29.0133625,13.9998214 C28.3028703,14.0188161 27.6765803,13.5365728 27.516533,12.8575133 C27.2508848,11.8503072 26.8540332,10.8823764 26.3202951,9.94855329 C26.0282205,9.34756775 26.1688938,8.62585284 26.6464466,8.19644661 L27.6243672,7.22 C27.7901901,7.03124687 27.7901901,6.74875313 27.5949107,6.52309161 C27.2959238,6.1098543 26.9739097,5.71377695 26.6637655,5.3700626 C26.285937,5.02677214 25.8895366,4.70449533 25.4325,4.36890886 C25.2414455,4.19412068 24.9485545,4.19412068 24.7735534,4.35355339 L23.7719116,5.3551876 C23.279363,5.84319331 22.5165312,5.93001969 21.9414214,5.57383023 C21.0376236,5.05596681 20.0696928,4.65911517 19.0751786,4.39663749 C18.3834272,4.23341974 17.9011839,3.60712974 17.92,2.91 L17.9200041,1.58797125 C17.921057,1.32848866 17.723436,1.11132274 17.4512417,1.08653546 C16.4339629,0.96615415 15.4060371,0.96615415 14.3749959,1.08797125 Z M16,11 C18.7614237,11 21,13.2385763 21,16 C21,18.7614237 18.7614237,21 16,21 C13.2385763,21 11,18.7614237 11,16 C11,13.2385763 13.2385763,11 16,11 Z M16,12 C13.790861,12 12,13.790861 12,16 C12,18.209139 13.790861,20 16,20 C18.209139,20 20,18.209139 20,16 C20,13.790861 18.209139,12 16,12 Z" id="Color"></path>
  </g>
</svg>
