<svg width="100px" height="100px" viewBox="0 0 32 32" version="1.1" xmlns="http://www.w3.org/2000/svg" xmlns:xlink="http://www.w3.org/1999/xlink">
    <g id="Icons/concept/Network" stroke="none" stroke-width="1" fill="#222c32">
        <path d="M28.2700837,0.0296469682 C30.3135372,0.0296469682 31.9700837,1.68619339 31.9700837,3.72964697 C31.9700837,5.77310054 30.3135372,7.42964697 28.2700837,7.42964697 C26.4571663,7.42964697 24.9487812,6.12578968 24.6315125,4.40465937 L17.345064,14.966647 L24.6001168,14.9670112 C24.8440661,13.1598656 26.3926669,11.7666667 28.2666667,11.7666667 C30.3101202,11.7666667 31.9666667,13.4232131 31.9666667,15.4666667 C31.9666667,17.5101202 30.3101202,19.1666667 28.2666667,19.1666667 C26.393012,19.1666667 24.8446365,17.7739808 24.6002517,15.9673205 L16.655064,15.966647 L16.641064,15.986647 L24.6258343,27.5846288 C24.9459075,25.8669771 26.4526536,24.5666667 28.2631034,24.5666667 C30.3065569,24.5666667 31.9631034,26.2232131 31.9631034,28.2666667 C31.9631034,30.3101202 30.3065569,31.9666667 28.2631034,31.9666667 C26.7040694,31.9666667 25.3702458,31.0024265 24.8254685,29.6377821 L16.033064,16.867647 L7.09396387,29.8278129 C6.50600067,31.0930693 5.2238258,31.970353 3.73675033,31.970353 C1.69329676,31.970353 0.0367503313,30.3138066 0.0367503313,28.270353 C0.0367503313,26.2268995 1.69329676,24.570353 3.73675033,24.570353 C5.56737338,24.570353 7.08748681,25.8998027 7.38427555,27.6458871 L15.427064,15.986647 L15.413064,15.966647 L7.39974827,15.9673205 C7.15536351,17.7739808 5.60698803,19.1666667 3.73333333,19.1666667 C1.68987976,19.1666667 0.0333333333,17.5101202 0.0333333333,15.4666667 C0.0333333333,13.4232131 1.68987976,11.7666667 3.73333333,11.7666667 C5.60733315,11.7666667 7.15593391,13.1598656 7.39988318,14.9670112 L14.724064,14.966647 L7.38814332,4.31158269 C7.11054412,6.08037023 5.57980478,7.43333333 3.73306397,7.43333333 C1.68961039,7.43333333 0.0330639662,5.77678691 0.0330639662,3.73333333 C0.0330639662,1.68987976 1.68961039,0.0333333333 3.73306397,0.0333333333 C5.12583145,0.0333333333 6.3388632,0.802873514 6.97016307,1.93995773 L15.939064,14.966647 L16.131064,14.966647 L24.8372904,2.34646549 C25.3850972,0.988206793 26.7156486,0.0296469682 28.2700837,0.0296469682 Z M3.73675033,25.570353 C2.24558151,25.570353 1.03675033,26.7791842 1.03675033,28.270353 C1.03675033,29.7615219 2.24558151,30.970353 3.73675033,30.970353 C4.77507221,30.970353 5.67650175,30.3842472 6.12824525,29.5248292 C6.14150976,29.466476 6.1661089,29.410427 6.2017766,29.3587282 L6.21667474,29.3397905 C6.35828447,29.0118527 6.43675033,28.6502662 6.43675033,28.270353 C6.43675033,26.7791842 5.22791916,25.570353 3.73675033,25.570353 Z M28.2631034,25.5666667 C26.7719345,25.5666667 25.5631034,26.7754978 25.5631034,28.2666667 C25.5631034,28.589041 25.6196014,28.8982196 25.7232359,29.1848408 L25.7024807,29.1457681 C25.7401487,29.2004723 25.7654349,29.2600298 25.7789517,29.3211204 C26.1881377,30.2888037 27.1464589,30.9666667 28.2631034,30.9666667 C29.7542722,30.9666667 30.9631034,29.7578355 30.9631034,28.2666667 C30.9631034,26.7754978 29.7542722,25.5666667 28.2631034,25.5666667 Z M3.73333333,12.7666667 C2.24216451,12.7666667 1.03333333,13.9754978 1.03333333,15.4666667 C1.03333333,16.9578355 2.24216451,18.1666667 3.73333333,18.1666667 C5.22450216,18.1666667 6.43333333,16.9578355 6.43333333,15.4666667 C6.43333333,13.9754978 5.22450216,12.7666667 3.73333333,12.7666667 Z M28.2666667,12.7666667 C26.7754978,12.7666667 25.5666667,13.9754978 25.5666667,15.4666667 C25.5666667,16.9578355 26.7754978,18.1666667 28.2666667,18.1666667 C29.7578355,18.1666667 30.9666667,16.9578355 30.9666667,15.4666667 C30.9666667,13.9754978 29.7578355,12.7666667 28.2666667,12.7666667 Z M3.73306397,1.03333333 C2.24189514,1.03333333 1.03306397,2.24216451 1.03306397,3.73333333 C1.03306397,5.22450216 2.24189514,6.43333333 3.73306397,6.43333333 C5.22423279,6.43333333 6.43306397,5.22450216 6.43306397,3.73333333 C6.43306397,3.27610529 6.31941179,2.84542213 6.11881662,2.46799303 L6.10551933,2.44889853 C6.08727975,2.4224097 6.07194332,2.39478292 6.05944049,2.36639514 C5.59195943,1.5682157 4.72497593,1.03333333 3.73306397,1.03333333 Z M28.2700837,1.02964697 C27.1372727,1.02964697 26.1674025,1.72727985 25.7666681,2.71635085 C25.761246,2.74194378 25.7517782,2.76601351 25.740315,2.78949393 C25.6296441,3.08156605 25.5700837,3.39865097 25.5700837,3.72964697 C25.5700837,5.22081579 26.7789148,6.42964697 28.2700837,6.42964697 C29.7612525,6.42964697 30.9700837,5.22081579 30.9700837,3.72964697 C30.9700837,2.23847814 29.7612525,1.02964697 28.2700837,1.02964697 Z" id="Color"></path>
    </g>
</svg>
