<svg width="100px" height="100px" viewBox="0 0 32 32" version="1.1" xmlns="http://www.w3.org/2000/svg" xmlns:xlink="http://www.w3.org/1999/xlink">
  <g id="Icons/concept/Flask" stroke="none" stroke-width="1" fill="#222c32">
    <path d="M11.5781818,-0.0151515152 L20.465798,-0.0132135307 C21.3695942,0.0665934652 22.0626976,0.823596255 22.0626976,1.73090909 C22.0626976,2.63822193 21.3695942,3.39522472 20.4218182,3.4769697 L19.7969697,3.4769697 L19.7969697,13.1218483 L30.6169787,24.3436613 C31.9162344,25.586779 32.3369534,27.4916522 31.6812573,29.1667883 C31.0242232,30.8453427 29.4169761,31.9595715 27.6072727,31.9860606 L4.38539458,31.9860606 C2.58302387,31.9595715 0.975776836,30.8453427 0.318742661,29.1667883 C-0.338291514,27.4882338 0.0854872356,25.5790035 1.375819,24.3511311 L4.3838744,21.2298485 L4.40542375,21.1789959 C4.46027065,21.0739188 4.54956039,20.9943127 4.65443672,20.9500877 L12.2030303,13.1218483 L12.2030303,3.47614067 L11.534202,3.47503171 C10.6304058,3.39522472 9.93730236,2.63822193 9.93730236,1.73090909 C9.93730236,0.823596255 10.6304058,0.0665934652 11.5781818,-0.0151515152 Z M13.5090341,20.8723165 C10.9495635,22.3760215 7.8945454,22.7750402 5.04252971,21.9888019 L2.08052869,25.0603046 C1.06926164,26.0231153 0.740993742,27.5020451 1.24994618,28.8022886 C1.75889862,30.1025321 3.00390585,30.965637 4.39272727,30.9861144 L27.59994,30.9861144 C28.9960941,30.965637 30.2411014,30.1025321 30.7500538,28.8022886 C31.2590063,27.5020451 30.9307384,26.0231153 29.9194713,25.0603046 L29.9043038,25.0452326 L26.1045801,21.1043937 C22.7381717,22.8992429 18.668862,22.8194175 15.3644342,20.8698769 C14.7947389,20.5278137 14.0828369,20.5278137 13.5090341,20.8723165 Z M18.7733333,24.5569697 C20.0991515,24.5569697 21.1739394,25.6317576 21.1739394,26.9575758 C21.1739394,28.2833939 20.0991515,29.3581818 18.7733333,29.3581818 C17.4475152,29.3581818 16.3727273,28.2833939 16.3727273,26.9575758 C16.3727273,25.6317576 17.4475152,24.5569697 18.7733333,24.5569697 Z M18.7733333,25.5569697 C17.9998,25.5569697 17.3727273,26.1840424 17.3727273,26.9575758 C17.3727273,27.7311091 17.9998,28.3581818 18.7733333,28.3581818 C19.5468667,28.3581818 20.1739394,27.7311091 20.1739394,26.9575758 C20.1739394,26.1840424 19.5468667,25.5569697 18.7733333,25.5569697 Z M14.5842424,21.7545455 C15.5833757,21.7545455 16.3933333,22.564503 16.3933333,23.5636364 C16.3933333,24.5627697 15.5833757,25.3727273 14.5842424,25.3727273 C13.5851091,25.3727273 12.7751515,24.5627697 12.7751515,23.5636364 C12.7751515,22.564503 13.5851091,21.7545455 14.5842424,21.7545455 Z M14.5842424,22.7545455 C14.1373939,22.7545455 13.7751515,23.1167878 13.7751515,23.5636364 C13.7751515,24.0104849 14.1373939,24.3727273 14.5842424,24.3727273 C15.031091,24.3727273 15.3933333,24.0104849 15.3933333,23.5636364 C15.3933333,23.1167878 15.031091,22.7545455 14.5842424,22.7545455 Z M11.6221617,0.9829105 C11.2345523,1.01713718 10.9373024,1.34179154 10.9373024,1.73090909 C10.9373024,2.12002664 11.2345523,2.44468101 11.5781818,2.4769697 L12.7030303,2.4769697 C12.9791727,2.4769697 13.2030303,2.70082732 13.2030303,2.9769697 L13.2030303,13.3236364 C13.2030303,13.4530894 13.1528224,13.5774968 13.0629689,13.6706871 L5.84493025,21.1568097 C8.27948528,21.6847275 10.8358678,21.2830093 12.9983736,20.0125473 C13.8848863,19.4802569 14.9926894,19.4802569 15.8758841,20.0105724 C18.7935264,21.7319033 22.3712157,21.8479115 25.3797343,20.3529534 L18.9370311,13.6706871 C18.8471776,13.5774968 18.7969697,13.4530894 18.7969697,13.3236364 L18.7969697,2.9769697 C18.7969697,2.70082732 19.0208273,2.4769697 19.2969697,2.4769697 L20.3778383,2.47890768 C20.7654477,2.44468101 21.0626976,2.12002664 21.0626976,1.73090909 C21.0626976,1.34179154 20.7654477,1.01713718 20.4218182,0.984848485 L11.6221617,0.9829105 Z" id="Color"></path>
  </g>
</svg>
