<svg width="120px" height="120px" viewBox="0 0 32 32" version="1.1" xmlns="http://www.w3.org/2000/svg" xmlns:xlink="http://www.w3.org/1999/xlink">
  <g id="Icons/concept/Cloud/Cloud" stroke="none" stroke-width="1" fill="#222c32">
    <path d="M31.947662,21.7968171 C31.5430072,25.3285999 28.5554131,27.9962592 25,28 L6.99823829,28 C3.84221543,27.9888768 1.08393514,25.8672031 0.26353807,22.8196545 C-0.522442763,19.8999527 0.656526053,16.8222856 3.15212154,15.1675164 C2.66753464,13.2693371 3.3471431,11.2454169 4.91339441,10.0272214 C6.44290329,8.83760337 8.50900482,8.65663669 10.2073266,9.52131898 C12.1933364,6.13232697 16.1735191,4.40455881 20.0362441,5.31555617 C24.0705328,6.26701568 26.9332915,9.85076854 26.97,14 L26.97,14.2847851 C30.2155389,15.2379255 32.3370667,18.3981345 31.947662,21.7968171 Z M25.9700196,14.0044257 C25.9374072,10.3201539 23.3927328,7.13459585 19.8066984,6.28885406 C16.220664,5.44311228 12.5207422,7.15592492 10.8453137,10.4373669 C10.7101151,10.7021627 10.3751046,10.7911847 10.1262937,10.6284314 C8.71050248,9.70232756 6.8627485,9.77791869 5.52733503,10.8165736 C4.19192156,11.8552285 3.66382457,13.6275215 4.21293048,15.2277139 C4.29019773,15.4528845 4.1979955,15.7013071 3.99253094,15.8215416 C1.65773637,17.1878245 0.525964039,19.9475251 1.22916153,22.5597096 C1.93235901,25.1718941 4.29659926,26.9904716 7,27.0000003 L24.9994739,27.0000003 C28.0465199,26.9967942 30.6073148,24.710229 30.9541618,21.6829866 C31.3010087,18.6557441 29.3237544,15.849231 26.356397,15.1569234 C26.1300968,15.1041257 25.97,14.9023776 25.97,14.67 C25.97,14.34 25.97,14.34 25.9700196,14.0044257 Z" id="Color"></path>
  </g>
</svg>
