<svg width="100px" height="100px" viewBox="0 0 32 32" version="1.1" xmlns="http://www.w3.org/2000/svg" xmlns:xlink="http://www.w3.org/1999/xlink">
  <g id="Icons/concept/Database/Database" stroke="none" stroke-width="1" fill="#222c32">
    <path d="M16,0 C24.864985,0 31.7519325,1.50682213 31.9617403,3.88775592 L31.9666667,4 L31.9666667,4 L31.9666667,28 C31.9666667,30.3917802 24.8753036,32 16,32 C7.0930305,32 0.0333333333,30.4052648 0.0333333333,28 L0.0333333333,4 C0.0333333333,1.59473516 7.0930305,0 16,0 Z M30.967914,21.4738313 C28.7157727,23.0289764 22.8964472,24 16,24 C9.08357591,24 3.2810211,23.0384057 1.03292515,21.4824021 L1.03333333,28 C1.03333333,29.4685447 7.81289836,31 16,31 C24.1577672,31 30.9666667,29.4558389 30.9666667,28 L30.967914,21.4738313 Z M30.967914,13.4738313 C28.7157727,15.0289764 22.8964472,16 16,16 C9.08357591,16 3.2810211,15.0384057 1.03292515,13.4824021 L1.03333333,20 C1.03333333,21.4685447 7.81289836,23 16,23 C24.1577672,23 30.9666667,21.4558389 30.9666667,20 L30.967914,13.4738313 Z M16,8 C9.08357591,8 3.2810211,7.03840572 1.03292515,5.48240208 L1.03333333,12 C1.03333333,13.4685447 7.81289836,15 16,15 C24.1577672,15 30.9666667,13.4558389 30.9666667,12 L30.967914,5.47383132 C28.7157727,7.02897636 22.8964472,8 16,8 Z M16,1 C7.81289836,1 1.03333333,2.53145531 1.03333333,4 C1.03333333,5.46854469 7.81289836,7 16,7 C24.1577672,7 30.9666667,5.45583888 30.9666667,4 C30.9666667,2.49334085 24.2764996,1 16,1 Z" id="Color"></path>
  </g>
</svg>
