<svg width="120px" height="120px" viewBox="0 0 32 32" version="1.1" xmlns="http://www.w3.org/2000/svg" xmlns:xlink="http://www.w3.org/1999/xlink">
  <g id="Icons/concept/Computer/Computer-Laptop-Cloud" stroke="none" stroke-width="1" fill="#222c32">
    <path d="M28.5,6 C29.3284271,6 30,6.67157288 30,7.5 L30,23 L31.5,23 C31.7761424,23 32,23.2238576 32,23.5 L32,25.5 C32,26.3284271 31.3284271,27 30.5,27 L1.5,27 C0.671572875,27 0,26.3284271 0,25.5 L0,23.5 C0,23.2238576 0.223857625,23 0.5,23 L2,23 L2,7.5 C2,6.67157288 2.67157288,6 3.5,6 L28.5,6 Z M31,24 L1,24 L1,25.5 C1,25.7761424 1.22385763,26 1.5,26 L30.5,26 C30.7761424,26 31,25.7761424 31,25.5 L31,24 Z M28.5,7 L3.5,7 C3.22385763,7 3,7.22385763 3,7.5 L3,23 L29,23 L29,7.5 C29,7.22385763 28.7761424,7 28.5,7 Z M18.7040771,11.6823763 C20.2543277,12.1726804 21.3368949,13.5669936 21.4526738,15.1832822 C22.8152752,15.7290429 23.6624294,17.1432817 23.4738786,18.638255 C23.2695326,20.2584655 21.9108833,21.4803431 20.2821307,21.5 L12.7118241,21.5 C11.0891167,21.4803431 9.73046739,20.2584655 9.52612136,18.638255 C9.33774049,17.1446285 10.1831993,15.7315911 11.5436449,15.1847593 C11.6757757,13.8849595 12.766356,12.8695692 14.0994876,12.8696064 C14.2390087,12.871364 14.377945,12.8845892 14.5149284,12.9090505 C15.5301542,11.6959583 17.1794902,11.2001889 18.7040771,11.6823763 Z M15.1222639,13.7595415 C14.9956692,13.9411518 14.7647207,14.0178955 14.5546084,13.9481721 C14.4035524,13.8980459 14.245832,13.8715293 14.0931895,13.8695667 C13.2309589,13.8695667 12.5302091,14.5764466 12.5302091,15.450594 L12.5302091,15.5477086 C12.5302091,15.7729915 12.3795513,15.9704525 12.1622682,16.0299538 C11.0785449,16.3267228 10.3761013,17.3859692 10.5182615,18.5131232 C10.6603275,19.6395302 11.6020725,20.4864722 12.7178693,20.5000439 L20.2760856,20.5000439 C21.3979275,20.4864722 22.3396725,19.6395302 22.4817385,18.5131232 C22.6224639,17.3973459 21.9355491,16.3481124 20.87043,16.0391722 C20.6384719,15.9957929 20.4629143,15.7922526 20.4629143,15.5477086 L20.4629209,15.4531709 L20.4629209,15.4531709 C20.4562588,14.1605555 19.6225173,13.0216779 18.4025256,12.6358262 C17.1839256,12.2504145 15.8579124,12.7041942 15.1222639,13.7595415 Z M16.5,8 C16.7761424,8 17,8.22385763 17,8.5 C17,8.77614237 16.7761424,9 16.5,9 L15.5,9 C15.2238576,9 15,8.77614237 15,8.5 C15,8.22385763 15.2238576,8 15.5,8 L16.5,8 Z" id="Color"></path>
  </g>
</svg>
