<svg version="1.1" xmlns="http://www.w3.org/2000/svg" viewBox="0 0 1144.6587584602203 1232.111759730748" width="1144.6587584602203" height="1232.111759730748">
  <!-- svg-source:excalidraw -->
  
  <defs>
    <style class="style-fonts">
      @font-face {
        font-family: "Virgil";
        src: url("https://excalidraw.com/Virgil.woff2");
      }
      @font-face {
        font-family: "Cascadia";
        src: url("https://excalidraw.com/Cascadia.woff2");
      }
    </style>
    
  </defs>
  <rect x="0" y="0" width="1144.6587584602203" height="1232.111759730748" fill="#ffffff"></rect><g stroke-linecap="round" transform="translate(561.2079660814015 380.71366228376115) rotate(0 99.40402221679688 27.901123046875)"><path d="M13.95 0 C77.1 0, 140.24 0, 184.86 0 C194.16 0, 198.81 4.65, 198.81 13.95 C198.81 21.21, 198.81 28.46, 198.81 41.85 C198.81 51.15, 194.16 55.8, 184.86 55.8 C127.5 55.8, 70.14 55.8, 13.95 55.8 C4.65 55.8, 0 51.15, 0 41.85 C0 34.81, 0 27.77, 0 13.95 C0 4.65, 4.65 0, 13.95 0" stroke="none" stroke-width="0" fill="#f3f0ff"></path><path d="M13.95 0 C67.52 0, 121.09 0, 184.86 0 M13.95 0 C74.06 0, 134.17 0, 184.86 0 M184.86 0 C194.16 0, 198.81 4.65, 198.81 13.95 M184.86 0 C194.16 0, 198.81 4.65, 198.81 13.95 M198.81 13.95 C198.81 20, 198.81 26.06, 198.81 41.85 M198.81 13.95 C198.81 23.44, 198.81 32.94, 198.81 41.85 M198.81 41.85 C198.81 51.15, 194.16 55.8, 184.86 55.8 M198.81 41.85 C198.81 51.15, 194.16 55.8, 184.86 55.8 M184.86 55.8 C138.15 55.8, 91.45 55.8, 13.95 55.8 M184.86 55.8 C121.11 55.8, 57.37 55.8, 13.95 55.8 M13.95 55.8 C4.65 55.8, 0 51.15, 0 41.85 M13.95 55.8 C4.65 55.8, 0 51.15, 0 41.85 M0 41.85 C0 33.22, 0 24.58, 0 13.95 M0 41.85 C0 33.52, 0 25.2, 0 13.95 M0 13.95 C0 4.65, 4.65 0, 13.95 0 M0 13.95 C0 4.65, 4.65 0, 13.95 0" stroke="#6741d9" stroke-width="1" fill="none"></path></g><g transform="translate(603.1901132981984 391.81478533063614) rotate(0 57.421875 16.8)"><text x="57.421875" y="0" font-family="Cascadia, Segoe UI Emoji" font-size="28px" fill="#1e1e1e" text-anchor="middle" style="white-space: pre;" direction="ltr" dominant-baseline="text-before-edge">SCALING</text></g><g stroke-linecap="round" transform="translate(945.6643215850287 10) rotate(0 6.954742431640625 7.154998779296875)"><path d="M13.91 7.15 C13.91 7.57, 13.87 7.99, 13.8 8.4 C13.73 8.81, 13.63 9.21, 13.49 9.6 C13.35 9.99, 13.18 10.37, 12.98 10.73 C12.78 11.09, 12.54 11.44, 12.28 11.75 C12.02 12.07, 11.73 12.37, 11.43 12.64 C11.12 12.9, 10.78 13.14, 10.43 13.35 C10.08 13.56, 9.71 13.74, 9.33 13.88 C8.96 14.02, 8.56 14.13, 8.16 14.2 C7.77 14.27, 7.36 14.31, 6.95 14.31 C6.55 14.31, 6.14 14.27, 5.75 14.2 C5.35 14.13, 4.95 14.02, 4.58 13.88 C4.2 13.74, 3.83 13.56, 3.48 13.35 C3.13 13.14, 2.79 12.9, 2.48 12.64 C2.18 12.37, 1.89 12.07, 1.63 11.75 C1.37 11.44, 1.13 11.09, 0.93 10.73 C0.73 10.37, 0.56 9.99, 0.42 9.6 C0.28 9.21, 0.18 8.81, 0.11 8.4 C0.04 7.99, 0 7.57, 0 7.15 C0 6.74, 0.04 6.32, 0.11 5.91 C0.18 5.5, 0.28 5.1, 0.42 4.71 C0.56 4.32, 0.73 3.94, 0.93 3.58 C1.13 3.22, 1.37 2.87, 1.63 2.56 C1.89 2.24, 2.18 1.94, 2.48 1.67 C2.79 1.41, 3.13 1.17, 3.48 0.96 C3.83 0.75, 4.2 0.57, 4.58 0.43 C4.95 0.29, 5.35 0.18, 5.75 0.11 C6.14 0.04, 6.55 0, 6.95 0 C7.36 0, 7.77 0.04, 8.16 0.11 C8.56 0.18, 8.96 0.29, 9.33 0.43 C9.71 0.57, 10.08 0.75, 10.43 0.96 C10.78 1.17, 11.12 1.41, 11.43 1.67 C11.73 1.94, 12.02 2.24, 12.28 2.56 C12.54 2.87, 12.78 3.22, 12.98 3.58 C13.18 3.94, 13.35 4.32, 13.49 4.71 C13.63 5.1, 13.73 5.5, 13.8 5.91 C13.87 6.32, 13.89 6.95, 13.91 7.15 C13.93 7.36, 13.93 6.95, 13.91 7.15" stroke="none" stroke-width="0" fill="#1e1e1e"></path><path d="M13.91 7.15 C13.91 7.57, 13.87 7.99, 13.8 8.4 C13.73 8.81, 13.63 9.21, 13.49 9.6 C13.35 9.99, 13.18 10.37, 12.98 10.73 C12.78 11.09, 12.54 11.44, 12.28 11.75 C12.02 12.07, 11.73 12.37, 11.43 12.64 C11.12 12.9, 10.78 13.14, 10.43 13.35 C10.08 13.56, 9.71 13.74, 9.33 13.88 C8.96 14.02, 8.56 14.13, 8.16 14.2 C7.77 14.27, 7.36 14.31, 6.95 14.31 C6.55 14.31, 6.14 14.27, 5.75 14.2 C5.35 14.13, 4.95 14.02, 4.58 13.88 C4.2 13.74, 3.83 13.56, 3.48 13.35 C3.13 13.14, 2.79 12.9, 2.48 12.64 C2.18 12.37, 1.89 12.07, 1.63 11.75 C1.37 11.44, 1.13 11.09, 0.93 10.73 C0.73 10.37, 0.56 9.99, 0.42 9.6 C0.28 9.21, 0.18 8.81, 0.11 8.4 C0.04 7.99, 0 7.57, 0 7.15 C0 6.74, 0.04 6.32, 0.11 5.91 C0.18 5.5, 0.28 5.1, 0.42 4.71 C0.56 4.32, 0.73 3.94, 0.93 3.58 C1.13 3.22, 1.37 2.87, 1.63 2.56 C1.89 2.24, 2.18 1.94, 2.48 1.67 C2.79 1.41, 3.13 1.17, 3.48 0.96 C3.83 0.75, 4.2 0.57, 4.58 0.43 C4.95 0.29, 5.35 0.18, 5.75 0.11 C6.14 0.04, 6.55 0, 6.95 0 C7.36 0, 7.77 0.04, 8.16 0.11 C8.56 0.18, 8.96 0.29, 9.33 0.43 C9.71 0.57, 10.08 0.75, 10.43 0.96 C10.78 1.17, 11.12 1.41, 11.43 1.67 C11.73 1.94, 12.02 2.24, 12.28 2.56 C12.54 2.87, 12.78 3.22, 12.98 3.58 C13.18 3.94, 13.35 4.32, 13.49 4.71 C13.63 5.1, 13.73 5.5, 13.8 5.91 C13.87 6.32, 13.89 6.95, 13.91 7.15 C13.93 7.36, 13.93 6.95, 13.91 7.15" stroke="#1e1e1e" stroke-width="1" fill="none"></path></g><g stroke-linecap="round" transform="translate(475.5627449161532 522.4906441824776) rotate(0 99.40402221679688 27.901123046875)"><path d="M13.95 0 C76.05 0, 138.15 0, 184.86 0 C194.16 0, 198.81 4.65, 198.81 13.95 C198.81 22.8, 198.81 31.66, 198.81 41.85 C198.81 51.15, 194.16 55.8, 184.86 55.8 C149.63 55.8, 114.39 55.8, 13.95 55.8 C4.65 55.8, 0 51.15, 0 41.85 C0 33.47, 0 25.09, 0 13.95 C0 4.65, 4.65 0, 13.95 0" stroke="none" stroke-width="0" fill="#f3f0ff"></path><path d="M13.95 0 C58.13 0, 102.3 0, 184.86 0 M13.95 0 C78.41 0, 142.86 0, 184.86 0 M184.86 0 C194.16 0, 198.81 4.65, 198.81 13.95 M184.86 0 C194.16 0, 198.81 4.65, 198.81 13.95 M198.81 13.95 C198.81 23.16, 198.81 32.37, 198.81 41.85 M198.81 13.95 C198.81 20.03, 198.81 26.11, 198.81 41.85 M198.81 41.85 C198.81 51.15, 194.16 55.8, 184.86 55.8 M198.81 41.85 C198.81 51.15, 194.16 55.8, 184.86 55.8 M184.86 55.8 C126.4 55.8, 67.93 55.8, 13.95 55.8 M184.86 55.8 C129.59 55.8, 74.32 55.8, 13.95 55.8 M13.95 55.8 C4.65 55.8, 0 51.15, 0 41.85 M13.95 55.8 C4.65 55.8, 0 51.15, 0 41.85 M0 41.85 C0 35.25, 0 28.64, 0 13.95 M0 41.85 C0 34.24, 0 26.63, 0 13.95 M0 13.95 C0 4.65, 4.65 0, 13.95 0 M0 13.95 C0 4.65, 4.65 0, 13.95 0" stroke="#6741d9" stroke-width="1" fill="none"></path></g><g transform="translate(517.54489213295 533.5917672293526) rotate(0 57.421875 16.799999999999997)"><text x="57.421875" y="0" font-family="Cascadia, Segoe UI Emoji" font-size="28px" fill="#1e1e1e" text-anchor="middle" style="white-space: pre;" direction="ltr" dominant-baseline="text-before-edge">RUNNING</text></g><g stroke-linecap="round" transform="translate(571.2376280774255 678.1082632882255) rotate(0 99.40402221679688 27.901123046875)"><path d="M13.95 0 C71.48 0, 129.02 0, 184.86 0 C194.16 0, 198.81 4.65, 198.81 13.95 C198.81 20.22, 198.81 26.5, 198.81 41.85 C198.81 51.15, 194.16 55.8, 184.86 55.8 C131.7 55.8, 78.54 55.8, 13.95 55.8 C4.65 55.8, 0 51.15, 0 41.85 C0 34.79, 0 27.73, 0 13.95 C0 4.65, 4.65 0, 13.95 0" stroke="none" stroke-width="0" fill="#f3f0ff"></path><path d="M13.95 0 C68.09 0, 122.23 0, 184.86 0 M13.95 0 C55.49 0, 97.04 0, 184.86 0 M184.86 0 C194.16 0, 198.81 4.65, 198.81 13.95 M184.86 0 C194.16 0, 198.81 4.65, 198.81 13.95 M198.81 13.95 C198.81 22.26, 198.81 30.56, 198.81 41.85 M198.81 13.95 C198.81 23.97, 198.81 34, 198.81 41.85 M198.81 41.85 C198.81 51.15, 194.16 55.8, 184.86 55.8 M198.81 41.85 C198.81 51.15, 194.16 55.8, 184.86 55.8 M184.86 55.8 C146.68 55.8, 108.51 55.8, 13.95 55.8 M184.86 55.8 C146.21 55.8, 107.56 55.8, 13.95 55.8 M13.95 55.8 C4.65 55.8, 0 51.15, 0 41.85 M13.95 55.8 C4.65 55.8, 0 51.15, 0 41.85 M0 41.85 C0 33.88, 0 25.91, 0 13.95 M0 41.85 C0 32.27, 0 22.69, 0 13.95 M0 13.95 C0 4.65, 4.65 0, 13.95 0 M0 13.95 C0 4.65, 4.65 0, 13.95 0" stroke="#6741d9" stroke-width="1" fill="none"></path></g><g transform="translate(605.0166502942224 689.2093863351005) rotate(0 65.625 16.80000000000001)"><text x="65.625" y="0" font-family="Cascadia, Segoe UI Emoji" font-size="28px" fill="#1e1e1e" text-anchor="middle" style="white-space: pre;" direction="ltr" dominant-baseline="text-before-edge">STOPPING</text></g><g stroke-linecap="round" transform="translate(453.0899698655811 840.5528717041016) rotate(0 99.40402221679688 27.901123046875)"><path d="M13.95 0 C62.27 0, 110.59 0, 184.86 0 C194.16 0, 198.81 4.65, 198.81 13.95 C198.81 21.33, 198.81 28.71, 198.81 41.85 C198.81 51.15, 194.16 55.8, 184.86 55.8 C149.55 55.8, 114.24 55.8, 13.95 55.8 C4.65 55.8, 0 51.15, 0 41.85 C0 32.5, 0 23.16, 0 13.95 C0 4.65, 4.65 0, 13.95 0" stroke="none" stroke-width="0" fill="#f3f0ff"></path><path d="M13.95 0 C81.82 0, 149.68 0, 184.86 0 M13.95 0 C56.85 0, 99.75 0, 184.86 0 M184.86 0 C194.16 0, 198.81 4.65, 198.81 13.95 M184.86 0 C194.16 0, 198.81 4.65, 198.81 13.95 M198.81 13.95 C198.81 24.18, 198.81 34.41, 198.81 41.85 M198.81 13.95 C198.81 20.09, 198.81 26.24, 198.81 41.85 M198.81 41.85 C198.81 51.15, 194.16 55.8, 184.86 55.8 M198.81 41.85 C198.81 51.15, 194.16 55.8, 184.86 55.8 M184.86 55.8 C135.51 55.8, 86.17 55.8, 13.95 55.8 M184.86 55.8 C124.9 55.8, 64.94 55.8, 13.95 55.8 M13.95 55.8 C4.65 55.8, 0 51.15, 0 41.85 M13.95 55.8 C4.65 55.8, 0 51.15, 0 41.85 M0 41.85 C0 33.8, 0 25.75, 0 13.95 M0 41.85 C0 35.12, 0 28.39, 0 13.95 M0 13.95 C0 4.65, 4.65 0, 13.95 0 M0 13.95 C0 4.65, 4.65 0, 13.95 0" stroke="#6741d9" stroke-width="1" fill="none"></path></g><g transform="translate(495.072117082378 851.6539947509766) rotate(0 57.421875 16.80000000000001)"><text x="57.421875" y="0" font-family="Cascadia, Segoe UI Emoji" font-size="28px" fill="#1e1e1e" text-anchor="middle" style="white-space: pre;" direction="ltr" dominant-baseline="text-before-edge">STOPPED</text></g><g stroke-linecap="round" transform="translate(564.065501307406 1015.6826062883649) rotate(0 99.40402221679688 27.901123046875)"><path d="M13.95 0 C78.79 0, 143.62 0, 184.86 0 C194.16 0, 198.81 4.65, 198.81 13.95 C198.81 19.58, 198.81 25.21, 198.81 41.85 C198.81 51.15, 194.16 55.8, 184.86 55.8 C118.35 55.8, 51.84 55.8, 13.95 55.8 C4.65 55.8, 0 51.15, 0 41.85 C0 34.09, 0 26.33, 0 13.95 C0 4.65, 4.65 0, 13.95 0" stroke="none" stroke-width="0" fill="#f3f0ff"></path><path d="M13.95 0 C76.25 0, 138.56 0, 184.86 0 M13.95 0 C77.3 0, 140.64 0, 184.86 0 M184.86 0 C194.16 0, 198.81 4.65, 198.81 13.95 M184.86 0 C194.16 0, 198.81 4.65, 198.81 13.95 M198.81 13.95 C198.81 22.41, 198.81 30.87, 198.81 41.85 M198.81 13.95 C198.81 23.3, 198.81 32.65, 198.81 41.85 M198.81 41.85 C198.81 51.15, 194.16 55.8, 184.86 55.8 M198.81 41.85 C198.81 51.15, 194.16 55.8, 184.86 55.8 M184.86 55.8 C118.62 55.8, 52.38 55.8, 13.95 55.8 M184.86 55.8 C141.04 55.8, 97.22 55.8, 13.95 55.8 M13.95 55.8 C4.65 55.8, 0 51.15, 0 41.85 M13.95 55.8 C4.65 55.8, 0 51.15, 0 41.85 M0 41.85 C0 35.84, 0 29.84, 0 13.95 M0 41.85 C0 34.75, 0 27.65, 0 13.95 M0 13.95 C0 4.65, 4.65 0, 13.95 0 M0 13.95 C0 4.65, 4.65 0, 13.95 0" stroke="#6741d9" stroke-width="1" fill="none"></path></g><g transform="translate(597.8445235242028 1026.78372933524) rotate(0 65.625 16.80000000000001)"><text x="65.625" y="0" font-family="Cascadia, Segoe UI Emoji" font-size="28px" fill="#1e1e1e" text-anchor="middle" style="white-space: pre;" direction="ltr" dominant-baseline="text-before-edge">DELETING</text></g><g stroke-linecap="round"><g transform="translate(638.9161918766025 449.7193756103516) rotate(0 -19.989251265966942 31.98314939226418)"><path d="M0 0 C-0.81 5.98, 1.83 25.21, -4.83 35.87 C-11.5 46.53, -34.12 59.28, -39.98 63.97 M0 0 C-0.81 5.98, 1.83 25.21, -4.83 35.87 C-11.5 46.53, -34.12 59.28, -39.98 63.97" stroke="#1e1e1e" stroke-width="1" fill="none"></path></g><g transform="translate(638.9161918766025 449.7193756103516) rotate(0 -19.989251265966942 31.98314939226418)"><path d="M-39.98 63.97 L-32.36 51.05 L-25.18 61.5 L-39.98 63.97" stroke="none" stroke-width="0" fill="#1e1e1e" fill-rule="evenodd"></path><path d="M-39.98 63.97 C-37.48 59.73, -34.97 55.48, -32.36 51.05 M-39.98 63.97 C-37.64 60, -35.3 56.03, -32.36 51.05 M-32.36 51.05 C-29.5 55.21, -26.65 59.36, -25.18 61.5 M-32.36 51.05 C-30.84 53.26, -29.33 55.46, -25.18 61.5 M-25.18 61.5 C-29.6 62.24, -34.02 62.97, -39.98 63.97 M-25.18 61.5 C-28.85 62.11, -32.51 62.72, -39.98 63.97 M-39.98 63.97 C-39.98 63.97, -39.98 63.97, -39.98 63.97 M-39.98 63.97 C-39.98 63.97, -39.98 63.97, -39.98 63.97" stroke="#1e1e1e" stroke-width="1" fill="none"></path></g></g><mask></mask><g stroke-linecap="round"><g transform="translate(575.6833366436024 592.1436020987373) rotate(0 29.339441935899117 35.9148495974799)"><path d="M0 0 C3.45 7, 10.91 30.03, 20.69 42 C30.47 53.97, 52.35 66.86, 58.68 71.83 M0 0 C3.45 7, 10.91 30.03, 20.69 42 C30.47 53.97, 52.35 66.86, 58.68 71.83" stroke="#1e1e1e" stroke-width="1" fill="none"></path></g><g transform="translate(575.6833366436024 592.1436020987373) rotate(0 29.339441935899117 35.9148495974799)"><path d="M58.68 71.83 L43.9 69.26 L51.15 58.86 L58.68 71.83" stroke="none" stroke-width="0" fill="#1e1e1e" fill-rule="evenodd"></path><path d="M58.68 71.83 C55.4 71.26, 52.12 70.69, 43.9 69.26 M58.68 71.83 C52.84 70.82, 47 69.8, 43.9 69.26 M43.9 69.26 C46.39 65.68, 48.89 62.1, 51.15 58.86 M43.9 69.26 C46.45 65.6, 49 61.94, 51.15 58.86 M51.15 58.86 C52.93 61.94, 54.72 65.02, 58.68 71.83 M51.15 58.86 C53.08 62.19, 55.02 65.53, 58.68 71.83 M58.68 71.83 C58.68 71.83, 58.68 71.83, 58.68 71.83 M58.68 71.83 C58.68 71.83, 58.68 71.83, 58.68 71.83" stroke="#1e1e1e" stroke-width="1" fill="none"></path></g></g><mask></mask><g stroke-linecap="round"><g transform="translate(650.2614065643895 741.1314334469093) rotate(0 -35.75992674546629 44.78667449951163)"><path d="M0 0 C-3.38 8.17, -8.37 34.12, -20.29 49.05 C-32.21 63.97, -62.98 82.82, -71.52 89.57 M0 0 C-3.38 8.17, -8.37 34.12, -20.29 49.05 C-32.21 63.97, -62.98 82.82, -71.52 89.57" stroke="#1e1e1e" stroke-width="1" fill="none"></path></g><g transform="translate(650.2614065643895 741.1314334469093) rotate(0 -35.75992674546629 44.78667449951163)"><path d="M-71.52 89.57 L-64.09 76.54 L-56.76 86.89 L-71.52 89.57" stroke="none" stroke-width="0" fill="#1e1e1e" fill-rule="evenodd"></path><path d="M-71.52 89.57 C-69.36 85.78, -67.19 81.98, -64.09 76.54 M-71.52 89.57 C-69.21 85.52, -66.9 81.47, -64.09 76.54 M-64.09 76.54 C-61.99 79.51, -59.88 82.48, -56.76 86.89 M-64.09 76.54 C-62.28 79.1, -60.46 81.67, -56.76 86.89 M-56.76 86.89 C-61.2 87.69, -65.63 88.5, -71.52 89.57 M-56.76 86.89 C-60.69 87.6, -64.62 88.32, -71.52 89.57 M-71.52 89.57 C-71.52 89.57, -71.52 89.57, -71.52 89.57 M-71.52 89.57 C-71.52 89.57, -71.52 89.57, -71.52 89.57" stroke="#1e1e1e" stroke-width="1" fill="none"></path></g></g><mask></mask><g stroke-linecap="round"><g transform="translate(583.731752148107 910.181910962332) rotate(0 23.649518726717815 47.339006520783244)"><path d="M0 0 C7.21 6.54, 35.61 23.48, 43.24 39.26 C50.86 55.04, 45.33 85.44, 45.75 94.68 M0 0 C7.21 6.54, 35.61 23.48, 43.24 39.26 C50.86 55.04, 45.33 85.44, 45.75 94.68" stroke="#1e1e1e" stroke-width="1" fill="none"></path></g><g transform="translate(583.731752148107 910.181910962332) rotate(0 23.649518726717815 47.339006520783244)"><path d="M45.75 94.68 L40.16 80.76 L52.82 81.45 L45.75 94.68" stroke="none" stroke-width="0" fill="#1e1e1e" fill-rule="evenodd"></path><path d="M45.75 94.68 C44.37 91.23, 42.98 87.79, 40.16 80.76 M45.75 94.68 C44.14 90.66, 42.52 86.64, 40.16 80.76 M40.16 80.76 C43.52 80.94, 46.89 81.13, 52.82 81.45 M40.16 80.76 C45.21 81.03, 50.26 81.31, 52.82 81.45 M52.82 81.45 C50.94 84.97, 49.06 88.49, 45.75 94.68 M52.82 81.45 C51.33 84.23, 49.85 87.01, 45.75 94.68 M45.75 94.68 C45.75 94.68, 45.75 94.68, 45.75 94.68 M45.75 94.68 C45.75 94.68, 45.75 94.68, 45.75 94.68" stroke="#1e1e1e" stroke-width="1" fill="none"></path></g></g><mask></mask><g stroke-linecap="round" transform="translate(161.55044960190924 840.1372680664062) rotate(0 99.40402221679688 27.901123046875)"><path d="M13.95 0 C53.79 0, 93.63 0, 184.86 0 C194.16 0, 198.81 4.65, 198.81 13.95 C198.81 24.65, 198.81 35.35, 198.81 41.85 C198.81 51.15, 194.16 55.8, 184.86 55.8 C127.78 55.8, 70.71 55.8, 13.95 55.8 C4.65 55.8, 0 51.15, 0 41.85 C0 32.17, 0 22.49, 0 13.95 C0 4.65, 4.65 0, 13.95 0" stroke="none" stroke-width="0" fill="#f3f0ff"></path><path d="M13.95 0 C69.87 0, 125.78 0, 184.86 0 M13.95 0 C63.08 0, 112.21 0, 184.86 0 M184.86 0 C194.16 0, 198.81 4.65, 198.81 13.95 M184.86 0 C194.16 0, 198.81 4.65, 198.81 13.95 M198.81 13.95 C198.81 23.46, 198.81 32.98, 198.81 41.85 M198.81 13.95 C198.81 22.03, 198.81 30.11, 198.81 41.85 M198.81 41.85 C198.81 51.15, 194.16 55.8, 184.86 55.8 M198.81 41.85 C198.81 51.15, 194.16 55.8, 184.86 55.8 M184.86 55.8 C128.04 55.8, 71.22 55.8, 13.95 55.8 M184.86 55.8 C128.45 55.8, 72.05 55.8, 13.95 55.8 M13.95 55.8 C4.65 55.8, 0 51.15, 0 41.85 M13.95 55.8 C4.65 55.8, 0 51.15, 0 41.85 M0 41.85 C0 35.99, 0 30.13, 0 13.95 M0 41.85 C0 36.18, 0 30.52, 0 13.95 M0 13.95 C0 4.65, 4.65 0, 13.95 0 M0 13.95 C0 4.65, 4.65 0, 13.95 0" stroke="#6741d9" stroke-width="1" fill="none"></path></g><g transform="translate(211.7357218187061 851.2383911132813) rotate(0 49.21875 16.80000000000001)"><text x="49.21875" y="0" font-family="Cascadia, Segoe UI Emoji" font-size="28px" fill="#1e1e1e" text-anchor="middle" style="white-space: pre;" direction="ltr" dominant-baseline="text-before-edge">FAILED</text></g><g stroke-linecap="round" transform="translate(742.2263758104053 840.1058349609375) rotate(0 99.40402221679688 27.901123046875)"><path d="M13.95 0 C78.53 0, 143.1 0, 184.86 0 C194.16 0, 198.81 4.65, 198.81 13.95 C198.81 24.33, 198.81 34.72, 198.81 41.85 C198.81 51.15, 194.16 55.8, 184.86 55.8 C134.53 55.8, 84.19 55.8, 13.95 55.8 C4.65 55.8, 0 51.15, 0 41.85 C0 35.47, 0 29.09, 0 13.95 C0 4.65, 4.65 0, 13.95 0" stroke="none" stroke-width="0" fill="#f3f0ff"></path><path d="M13.95 0 C74.3 0, 134.64 0, 184.86 0 M13.95 0 C58.1 0, 102.25 0, 184.86 0 M184.86 0 C194.16 0, 198.81 4.65, 198.81 13.95 M184.86 0 C194.16 0, 198.81 4.65, 198.81 13.95 M198.81 13.95 C198.81 24.26, 198.81 34.57, 198.81 41.85 M198.81 13.95 C198.81 21.29, 198.81 28.63, 198.81 41.85 M198.81 41.85 C198.81 51.15, 194.16 55.8, 184.86 55.8 M198.81 41.85 C198.81 51.15, 194.16 55.8, 184.86 55.8 M184.86 55.8 C131.66 55.8, 78.47 55.8, 13.95 55.8 M184.86 55.8 C148.38 55.8, 111.9 55.8, 13.95 55.8 M13.95 55.8 C4.65 55.8, 0 51.15, 0 41.85 M13.95 55.8 C4.65 55.8, 0 51.15, 0 41.85 M0 41.85 C0 34.5, 0 27.15, 0 13.95 M0 41.85 C0 31.38, 0 20.91, 0 13.95 M0 13.95 C0 4.65, 4.65 0, 13.95 0 M0 13.95 C0 4.65, 4.65 0, 13.95 0" stroke="#6741d9" stroke-width="1" fill="none"></path></g><g transform="translate(800.6147730272022 851.2069580078125) rotate(0 41.015625 16.80000000000001)"><text x="41.015625" y="0" font-family="Cascadia, Segoe UI Emoji" font-size="28px" fill="#1e1e1e" text-anchor="middle" style="white-space: pre;" direction="ltr" dominant-baseline="text-before-edge">ERROR</text></g><g stroke-linecap="round"><g transform="translate(733.2964979242241 744.8863601684571) rotate(0 38.539443592191674 43.664921852650224)"><path d="M0 0 C8.91 4.39, 40.62 11.78, 53.46 26.34 C66.31 40.89, 73.14 77.16, 77.08 87.33 M0 0 C8.91 4.39, 40.62 11.78, 53.46 26.34 C66.31 40.89, 73.14 77.16, 77.08 87.33" stroke="#1e1e1e" stroke-width="1" fill="none"></path></g><g transform="translate(733.2964979242241 744.8863601684571) rotate(0 38.539443592191674 43.664921852650224)"><path d="M77.08 87.33 L67.14 76.09 L79.3 72.5 L77.08 87.33" stroke="none" stroke-width="0" fill="#1e1e1e" fill-rule="evenodd"></path><path d="M77.08 87.33 C74.8 84.75, 72.51 82.16, 67.14 76.09 M77.08 87.33 C73.67 83.47, 70.26 79.61, 67.14 76.09 M67.14 76.09 C70.96 74.96, 74.78 73.83, 79.3 72.5 M67.14 76.09 C71.4 74.83, 75.65 73.57, 79.3 72.5 M79.3 72.5 C78.81 75.8, 78.31 79.11, 77.08 87.33 M79.3 72.5 C78.52 77.72, 77.74 82.95, 77.08 87.33 M77.08 87.33 C77.08 87.33, 77.08 87.33, 77.08 87.33 M77.08 87.33 C77.08 87.33, 77.08 87.33, 77.08 87.33" stroke="#1e1e1e" stroke-width="1" fill="none"></path></g></g><mask></mask><g stroke-linecap="round"><g transform="translate(583.6407327562658 744.4796937169074) rotate(0 -129.57780293419788 43.037176346160834)"><path d="M0 0 C-25.25 4.11, -108.32 10.33, -151.52 24.68 C-194.71 39.02, -241.22 75.84, -259.16 86.07 M0 0 C-25.25 4.11, -108.32 10.33, -151.52 24.68 C-194.71 39.02, -241.22 75.84, -259.16 86.07" stroke="#1e1e1e" stroke-width="1" fill="none"></path></g><g transform="translate(583.6407327562658 744.4796937169074) rotate(0 -129.57780293419788 43.037176346160834)"><path d="M-259.16 86.07 L-251.26 73.32 L-244.31 83.93 L-259.16 86.07" stroke="none" stroke-width="0" fill="#1e1e1e" fill-rule="evenodd"></path><path d="M-259.16 86.07 C-256.9 82.43, -254.64 78.79, -251.26 73.32 M-259.16 86.07 C-257.52 83.43, -255.88 80.79, -251.26 73.32 M-251.26 73.32 C-249.64 75.8, -248.01 78.27, -244.31 83.93 M-251.26 73.32 C-249.09 76.63, -246.93 79.94, -244.31 83.93 M-244.31 83.93 C-248.04 84.47, -251.77 85.01, -259.16 86.07 M-244.31 83.93 C-247.91 84.45, -251.5 84.97, -259.16 86.07 M-259.16 86.07 C-259.16 86.07, -259.16 86.07, -259.16 86.07 M-259.16 86.07 C-259.16 86.07, -259.16 86.07, -259.16 86.07" stroke="#1e1e1e" stroke-width="1" fill="none"></path></g></g><mask></mask><g stroke-linecap="round"><g transform="translate(349.3001354928495 908.6964295325315) rotate(0 105.01164585356719 52.47905906453752)"><path d="M0 0 C24.08 7.56, 109.49 27.85, 144.5 45.35 C179.5 62.84, 199.1 95.02, 210.02 104.96 M0 0 C24.08 7.56, 109.49 27.85, 144.5 45.35 C179.5 62.84, 199.1 95.02, 210.02 104.96" stroke="#1e1e1e" stroke-width="1" fill="none"></path></g><g transform="translate(349.3001354928495 908.6964295325315) rotate(0 105.01164585356719 52.47905906453752)"><path d="M210.02 104.96 L196.26 98.98 L205.76 90.58 L210.02 104.96" stroke="none" stroke-width="0" fill="#1e1e1e" fill-rule="evenodd"></path><path d="M210.02 104.96 C204.76 102.67, 199.49 100.38, 196.26 98.98 M210.02 104.96 C205.08 102.81, 200.14 100.66, 196.26 98.98 M196.26 98.98 C198.24 97.23, 200.22 95.48, 205.76 90.58 M196.26 98.98 C198.74 96.79, 201.22 94.59, 205.76 90.58 M205.76 90.58 C206.78 94.03, 207.81 97.49, 210.02 104.96 M205.76 90.58 C207.4 96.11, 209.04 101.64, 210.02 104.96 M210.02 104.96 C210.02 104.96, 210.02 104.96, 210.02 104.96 M210.02 104.96 C210.02 104.96, 210.02 104.96, 210.02 104.96" stroke="#1e1e1e" stroke-width="1" fill="none"></path></g></g><mask></mask><g stroke-linecap="round"><g transform="translate(808.3282734963035 909.7119161054645) rotate(0 -34.81312923974946 48.542338976007215)"><path d="M0 0 C-1.61 9.22, 1.93 39.14, -9.67 55.32 C-21.28 71.5, -59.63 90.12, -69.63 97.08 M0 0 C-1.61 9.22, 1.93 39.14, -9.67 55.32 C-21.28 71.5, -59.63 90.12, -69.63 97.08" stroke="#1e1e1e" stroke-width="1" fill="none"></path></g><g transform="translate(808.3282734963035 909.7119161054645) rotate(0 -34.81312923974946 48.542338976007215)"><path d="M-69.63 97.08 L-61.19 84.68 L-54.7 95.57 L-69.63 97.08" stroke="none" stroke-width="0" fill="#1e1e1e" fill-rule="evenodd"></path><path d="M-69.63 97.08 C-67.41 93.82, -65.19 90.56, -61.19 84.68 M-69.63 97.08 C-67.35 93.73, -65.07 90.38, -61.19 84.68 M-61.19 84.68 C-58.68 88.9, -56.17 93.12, -54.7 95.57 M-61.19 84.68 C-59.13 88.13, -57.08 91.59, -54.7 95.57 M-54.7 95.57 C-59.31 96.04, -63.91 96.51, -69.63 97.08 M-54.7 95.57 C-59.07 96.02, -63.43 96.46, -69.63 97.08 M-69.63 97.08 C-69.63 97.08, -69.63 97.08, -69.63 97.08 M-69.63 97.08 C-69.63 97.08, -69.63 97.08, -69.63 97.08" stroke="#1e1e1e" stroke-width="1" fill="none"></path></g></g><mask></mask><g stroke-linecap="round"><g transform="translate(714.1240897143393 451.3027647557154) rotate(0 26.76903585000997 107.82321017191424)"><path d="M0 0 C8.92 18.2, 53.48 73.25, 53.54 109.19 C53.6 145.14, 9.21 197.9, 0.35 215.65 M0 0 C8.92 18.2, 53.48 73.25, 53.54 109.19 C53.6 145.14, 9.21 197.9, 0.35 215.65" stroke="#1e1e1e" stroke-width="1" fill="none"></path></g><g transform="translate(714.1240897143393 451.3027647557154) rotate(0 26.76903585000997 107.82321017191424)"><path d="M0.35 215.65 L2.35 200.78 L13.02 207.63 L0.35 215.65" stroke="none" stroke-width="0" fill="#1e1e1e" fill-rule="evenodd"></path><path d="M0.35 215.65 C1.11 210, 1.87 204.36, 2.35 200.78 M0.35 215.65 C0.8 212.32, 1.25 208.99, 2.35 200.78 M2.35 200.78 C5.33 202.69, 8.3 204.6, 13.02 207.63 M2.35 200.78 C5.63 202.88, 8.9 204.98, 13.02 207.63 M13.02 207.63 C9.25 210.01, 5.48 212.4, 0.35 215.65 M13.02 207.63 C9.7 209.73, 6.38 211.83, 0.35 215.65 M0.35 215.65 C0.35 215.65, 0.35 215.65, 0.35 215.65 M0.35 215.65 C0.35 215.65, 0.35 215.65, 0.35 215.65" stroke="#1e1e1e" stroke-width="1" fill="none"></path></g></g><mask></mask><g stroke-linecap="round"><g transform="translate(952.307593984931 37.69800567626953) rotate(0 -0.30185699462890625 23.37757110595703)"><path d="M0 0 C-0.1 7.79, -0.5 38.96, -0.6 46.76 M0 0 C-0.1 7.79, -0.5 38.96, -0.6 46.76" stroke="#1e1e1e" stroke-width="1" fill="none"></path></g><g transform="translate(952.307593984931 37.69800567626953) rotate(0 -0.30185699462890625 23.37757110595703)"><path d="M-0.6 46.76 L-6.77 33.08 L5.91 33.24 L-0.6 46.76" stroke="none" stroke-width="0" fill="#1e1e1e" fill-rule="evenodd"></path><path d="M-0.6 46.76 C-2.84 41.8, -5.07 36.85, -6.77 33.08 M-0.6 46.76 C-2.26 43.08, -3.92 39.4, -6.77 33.08 M-6.77 33.08 C-2.96 33.13, 0.86 33.18, 5.91 33.24 M-6.77 33.08 C-3.52 33.12, -0.27 33.16, 5.91 33.24 M5.91 33.24 C3.85 37.53, 1.78 41.81, -0.6 46.76 M5.91 33.24 C4.49 36.19, 3.07 39.13, -0.6 46.76 M-0.6 46.76 C-0.6 46.76, -0.6 46.76, -0.6 46.76 M-0.6 46.76 C-0.6 46.76, -0.6 46.76, -0.6 46.76" stroke="#1e1e1e" stroke-width="1" fill="none"></path></g></g><mask></mask><g stroke-linecap="round" transform="translate(563.8695784558435 1166.309513636998) rotate(0 99.40402221679688 27.901123046875)"><path d="M13.95 0 C74.48 0, 135.01 0, 184.86 0 C194.16 0, 198.81 4.65, 198.81 13.95 C198.81 21.24, 198.81 28.54, 198.81 41.85 C198.81 51.15, 194.16 55.8, 184.86 55.8 C138.33 55.8, 91.8 55.8, 13.95 55.8 C4.65 55.8, 0 51.15, 0 41.85 C0 33.53, 0 25.21, 0 13.95 C0 4.65, 4.65 0, 13.95 0" stroke="none" stroke-width="0" fill="#f3f0ff"></path><path d="M13.95 0 C59.9 0, 105.85 0, 184.86 0 M13.95 0 C72.66 0, 131.36 0, 184.86 0 M184.86 0 C194.16 0, 198.81 4.65, 198.81 13.95 M184.86 0 C194.16 0, 198.81 4.65, 198.81 13.95 M198.81 13.95 C198.81 24.17, 198.81 34.38, 198.81 41.85 M198.81 13.95 C198.81 24.3, 198.81 34.65, 198.81 41.85 M198.81 41.85 C198.81 51.15, 194.16 55.8, 184.86 55.8 M198.81 41.85 C198.81 51.15, 194.16 55.8, 184.86 55.8 M184.86 55.8 C144.27 55.8, 103.69 55.8, 13.95 55.8 M184.86 55.8 C133.41 55.8, 81.97 55.8, 13.95 55.8 M13.95 55.8 C4.65 55.8, 0 51.15, 0 41.85 M13.95 55.8 C4.65 55.8, 0 51.15, 0 41.85 M0 41.85 C0 35.32, 0 28.8, 0 13.95 M0 41.85 C0 35.15, 0 28.45, 0 13.95 M0 13.95 C0 4.65, 4.65 0, 13.95 0 M0 13.95 C0 4.65, 4.65 0, 13.95 0" stroke="#6741d9" stroke-width="1" fill="none"></path></g><g transform="translate(614.0548506726403 1177.410636683873) rotate(0 49.21875 16.80000000000001)"><text x="49.21875" y="0" font-family="Cascadia, Segoe UI Emoji" font-size="28px" fill="#1e1e1e" text-anchor="middle" style="white-space: pre;" direction="ltr" dominant-baseline="text-before-edge">DELETE</text></g><g stroke-linecap="round"><g transform="translate(661.6413695746805 1083.6998868669782) rotate(0 1.2780459099852237 36.87442779541027)"><path d="M0 0 C0.43 12.29, 2.13 61.46, 2.56 73.75 M0 0 C0.43 12.29, 2.13 61.46, 2.56 73.75" stroke="#1e1e1e" stroke-width="1" fill="none"></path></g><g transform="translate(661.6413695746805 1083.6998868669782) rotate(0 1.2780459099852237 36.87442779541027)"><path d="M2.56 73.75 L-4.25 60.38 L8.42 59.94 L2.56 73.75" stroke="none" stroke-width="0" fill="#1e1e1e" fill-rule="evenodd"></path><path d="M2.56 73.75 C-0.09 68.56, -2.73 63.36, -4.25 60.38 M2.56 73.75 C-0.05 68.64, -2.65 63.53, -4.25 60.38 M-4.25 60.38 C-1.32 60.28, 1.6 60.18, 8.42 59.94 M-4.25 60.38 C-1.29 60.28, 1.67 60.18, 8.42 59.94 M8.42 59.94 C6.92 63.46, 5.43 66.99, 2.56 73.75 M8.42 59.94 C6.53 64.4, 4.63 68.86, 2.56 73.75 M2.56 73.75 C2.56 73.75, 2.56 73.75, 2.56 73.75 M2.56 73.75 C2.56 73.75, 2.56 73.75, 2.56 73.75" stroke="#1e1e1e" stroke-width="1" fill="none"></path></g></g><mask></mask><g stroke-linecap="round" transform="translate(691.0289412488123 235.57236153738847) rotate(0 114.69398280552457 30.023664202008945)"><path d="M15.01 0 C63.93 0, 112.85 0, 214.38 0 C224.38 0, 229.39 5, 229.39 15.01 C229.39 26.38, 229.39 37.76, 229.39 45.04 C229.39 55.04, 224.38 60.05, 214.38 60.05 C154.31 60.05, 94.24 60.05, 15.01 60.05 C5 60.05, 0 55.04, 0 45.04 C0 35.53, 0 26.02, 0 15.01 C0 5, 5 0, 15.01 0" stroke="none" stroke-width="0" fill="#f3f0ff"></path><path d="M15.01 0 C83.01 0, 151.01 0, 214.38 0 M15.01 0 C79.81 0, 144.6 0, 214.38 0 M214.38 0 C224.38 0, 229.39 5, 229.39 15.01 M214.38 0 C224.38 0, 229.39 5, 229.39 15.01 M229.39 15.01 C229.39 25.41, 229.39 35.81, 229.39 45.04 M229.39 15.01 C229.39 25.69, 229.39 36.37, 229.39 45.04 M229.39 45.04 C229.39 55.04, 224.38 60.05, 214.38 60.05 M229.39 45.04 C229.39 55.04, 224.38 60.05, 214.38 60.05 M214.38 60.05 C157.19 60.05, 100 60.05, 15.01 60.05 M214.38 60.05 C155.03 60.05, 95.69 60.05, 15.01 60.05 M15.01 60.05 C5 60.05, 0 55.04, 0 45.04 M15.01 60.05 C5 60.05, 0 55.04, 0 45.04 M0 45.04 C0 37.04, 0 29.05, 0 15.01 M0 45.04 C0 37.56, 0 30.09, 0 15.01 M0 15.01 C0 5, 5 0, 15.01 0 M0 15.01 C0 5, 5 0, 15.01 0" stroke="#6741d9" stroke-width="1" fill="none"></path></g><g transform="translate(707.2854240543369 248.7960257393974) rotate(0 98.4375 16.8)"><text x="98.4375" y="0" font-family="Cascadia, Segoe UI Emoji" font-size="28px" fill="#1e1e1e" text-anchor="middle" style="white-space: pre;" direction="ltr" dominant-baseline="text-before-edge">INITIALIZING</text></g><g stroke-linecap="round" transform="translate(857.3598564273838 97.83157784598231) rotate(0 99.40402221679688 27.901123046875)"><path d="M13.95 0 C70.08 0, 126.21 0, 184.86 0 C194.16 0, 198.81 4.65, 198.81 13.95 C198.81 20.74, 198.81 27.53, 198.81 41.85 C198.81 51.15, 194.16 55.8, 184.86 55.8 C137.27 55.8, 89.69 55.8, 13.95 55.8 C4.65 55.8, 0 51.15, 0 41.85 C0 35.06, 0 28.26, 0 13.95 C0 4.65, 4.65 0, 13.95 0" stroke="none" stroke-width="0" fill="#f3f0ff"></path><path d="M13.95 0 C60.56 0, 107.16 0, 184.86 0 M13.95 0 C76.65 0, 139.34 0, 184.86 0 M184.86 0 C194.16 0, 198.81 4.65, 198.81 13.95 M184.86 0 C194.16 0, 198.81 4.65, 198.81 13.95 M198.81 13.95 C198.81 22.21, 198.81 30.46, 198.81 41.85 M198.81 13.95 C198.81 25.03, 198.81 36.12, 198.81 41.85 M198.81 41.85 C198.81 51.15, 194.16 55.8, 184.86 55.8 M198.81 41.85 C198.81 51.15, 194.16 55.8, 184.86 55.8 M184.86 55.8 C141.62 55.8, 98.38 55.8, 13.95 55.8 M184.86 55.8 C118.97 55.8, 53.07 55.8, 13.95 55.8 M13.95 55.8 C4.65 55.8, 0 51.15, 0 41.85 M13.95 55.8 C4.65 55.8, 0 51.15, 0 41.85 M0 41.85 C0 30.84, 0 19.83, 0 13.95 M0 41.85 C0 32.57, 0 23.28, 0 13.95 M0 13.95 C0 4.65, 4.65 0, 13.95 0 M0 13.95 C0 4.65, 4.65 0, 13.95 0" stroke="#6741d9" stroke-width="1" fill="none"></path></g><g transform="translate(907.5451286441806 108.9327008928573) rotate(0 49.21875 16.799999999999997)"><text x="49.21875" y="0" font-family="Cascadia, Segoe UI Emoji" font-size="28px" fill="#1e1e1e" text-anchor="middle" style="white-space: pre;" direction="ltr" dominant-baseline="text-before-edge">QUEUED</text></g><g stroke-linecap="round"><g transform="translate(769.3299295557206 305.43682479858404) rotate(0 -27.437519060157598 32.84888948713029)"><path d="M0 0 C-6.48 3.57, -29.75 10.46, -38.9 21.41 C-48.04 32.36, -52.21 58.32, -54.88 65.7 M0 0 C-6.48 3.57, -29.75 10.46, -38.9 21.41 C-48.04 32.36, -52.21 58.32, -54.88 65.7" stroke="#1e1e1e" stroke-width="1" fill="none"></path></g><g transform="translate(769.3299295557206 305.43682479858404) rotate(0 -27.437519060157598 32.84888948713029)"><path d="M-54.88 65.7 L-57.46 50.92 L-45.22 54.22 L-54.88 65.7" stroke="none" stroke-width="0" fill="#1e1e1e" fill-rule="evenodd"></path><path d="M-54.88 65.7 C-55.5 62.11, -56.13 58.52, -57.46 50.92 M-54.88 65.7 C-55.53 61.98, -56.18 58.26, -57.46 50.92 M-57.46 50.92 C-53.68 51.94, -49.89 52.96, -45.22 54.22 M-57.46 50.92 C-53.86 51.89, -50.26 52.86, -45.22 54.22 M-45.22 54.22 C-48.62 58.26, -52.02 62.3, -54.88 65.7 M-45.22 54.22 C-48.42 58.02, -51.61 61.82, -54.88 65.7 M-54.88 65.7 C-54.88 65.7, -54.88 65.7, -54.88 65.7 M-54.88 65.7 C-54.88 65.7, -54.88 65.7, -54.88 65.7" stroke="#1e1e1e" stroke-width="1" fill="none"></path></g></g><mask></mask><g stroke-linecap="round"><g transform="translate(905.5173508747152 162.9360400608608) rotate(0 -25.27115918468769 32.66319002423968)"><path d="M0 0 C-5.76 3.51, -26.14 10.15, -34.57 21.04 C-42.99 31.92, -47.88 57.94, -50.54 65.33 M0 0 C-5.76 3.51, -26.14 10.15, -34.57 21.04 C-42.99 31.92, -47.88 57.94, -50.54 65.33" stroke="#1e1e1e" stroke-width="1" fill="none"></path></g><g transform="translate(905.5173508747152 162.9360400608608) rotate(0 -25.27115918468769 32.66319002423968)"><path d="M-50.54 65.33 L-52.96 50.52 L-40.75 53.96 L-50.54 65.33" stroke="none" stroke-width="0" fill="#1e1e1e" fill-rule="evenodd"></path><path d="M-50.54 65.33 C-51.2 61.3, -51.86 57.27, -52.96 50.52 M-50.54 65.33 C-51.46 59.73, -52.37 54.13, -52.96 50.52 M-52.96 50.52 C-49.53 51.49, -46.1 52.45, -40.75 53.96 M-52.96 50.52 C-50.24 51.29, -47.52 52.05, -40.75 53.96 M-40.75 53.96 C-44.22 57.99, -47.69 62.01, -50.54 65.33 M-40.75 53.96 C-43.85 57.55, -46.94 61.15, -50.54 65.33 M-50.54 65.33 C-50.54 65.33, -50.54 65.33, -50.54 65.33 M-50.54 65.33 C-50.54 65.33, -50.54 65.33, -50.54 65.33" stroke="#1e1e1e" stroke-width="1" fill="none"></path></g></g><mask></mask><g stroke-linecap="round"><g transform="translate(464.6462475493842 522.9520061418386) rotate(0 25.817745436248117 -55.46436524699698)"><path d="M0 0 C-4.67 -11.9, -41.77 -52.9, -27.99 -71.39 C-14.21 -89.87, 64.23 -104.34, 82.68 -110.93 M0 0 C-4.67 -11.9, -41.77 -52.9, -27.99 -71.39 C-14.21 -89.87, 64.23 -104.34, 82.68 -110.93" stroke="#1e1e1e" stroke-width="1" fill="none"></path></g><g transform="translate(464.6462475493842 522.9520061418386) rotate(0 25.817745436248117 -55.46436524699698)"><path d="M82.68 -110.93 L71.21 -101.26 L67.9 -113.5 L82.68 -110.93" stroke="none" stroke-width="0" fill="#1e1e1e" fill-rule="evenodd"></path><path d="M82.68 -110.93 C79.74 -108.45, 76.8 -105.98, 71.21 -101.26 M82.68 -110.93 C80.03 -108.7, 77.38 -106.47, 71.21 -101.26 M71.21 -101.26 C70.05 -105.55, 68.89 -109.83, 67.9 -113.5 M71.21 -101.26 C70.02 -105.66, 68.83 -110.06, 67.9 -113.5 M67.9 -113.5 C72.6 -112.68, 77.31 -111.86, 82.68 -110.93 M67.9 -113.5 C73.4 -112.55, 78.89 -111.59, 82.68 -110.93 M82.68 -110.93 C82.68 -110.93, 82.68 -110.93, 82.68 -110.93 M82.68 -110.93 C82.68 -110.93, 82.68 -110.93, 82.68 -110.93" stroke="#1e1e1e" stroke-width="1" fill="none"></path></g></g><mask></mask><g stroke-linecap="round"><g transform="translate(772.6714959749742 410.54450920587607) rotate(0 180.99363124262305 317.9592749738114)"><path d="M0 0 C60.33 74.61, 361.68 341.65, 361.99 447.64 C362.3 553.63, 61.88 604.54, 1.85 635.92 M0 0 C60.33 74.61, 361.68 341.65, 361.99 447.64 C362.3 553.63, 61.88 604.54, 1.85 635.92" stroke="#1e1e1e" stroke-width="1" fill="none"></path></g><g transform="translate(772.6714959749742 410.54450920587607) rotate(0 180.99363124262305 317.9592749738114)"><path d="M1.85 635.92 L12.77 625.63 L16.75 637.67 L1.85 635.92" stroke="none" stroke-width="0" fill="#1e1e1e" fill-rule="evenodd"></path><path d="M1.85 635.92 C5.12 632.84, 8.39 629.76, 12.77 625.63 M1.85 635.92 C5.57 632.42, 9.29 628.92, 12.77 625.63 M12.77 625.63 C14.17 629.86, 15.56 634.08, 16.75 637.67 M12.77 625.63 C14.25 630.1, 15.73 634.57, 16.75 637.67 M16.75 637.67 C11.84 637.09, 6.93 636.52, 1.85 635.92 M16.75 637.67 C11.49 637.05, 6.23 636.43, 1.85 635.92 M1.85 635.92 C1.85 635.92, 1.85 635.92, 1.85 635.92 M1.85 635.92 C1.85 635.92, 1.85 635.92, 1.85 635.92" stroke="#1e1e1e" stroke-width="1" fill="none"></path></g></g><mask></mask><g stroke-linecap="round"><g transform="translate(465.7179571867249 577.669154465631) rotate(0 -183.93706194488658 236.08123927892282)"><path d="M0 0 C-75.89 49.93, -469.96 220.91, -455.32 299.6 C-440.68 378.3, -2.68 443.4, 87.84 472.16 M0 0 C-75.89 49.93, -469.96 220.91, -455.32 299.6 C-440.68 378.3, -2.68 443.4, 87.84 472.16" stroke="#1e1e1e" stroke-width="1" fill="none"></path></g><g transform="translate(465.7179571867249 577.669154465631) rotate(0 -183.93706194488658 236.08123927892282)"><path d="M87.84 472.16 L73.18 475.33 L75.99 462.97 L87.84 472.16" stroke="none" stroke-width="0" fill="#1e1e1e" fill-rule="evenodd"></path><path d="M87.84 472.16 C82.47 473.32, 77.09 474.49, 73.18 475.33 M87.84 472.16 C82.7 473.28, 77.55 474.39, 73.18 475.33 M73.18 475.33 C73.94 472.01, 74.69 468.69, 75.99 462.97 M73.18 475.33 C73.98 471.83, 74.78 468.32, 75.99 462.97 M75.99 462.97 C79.8 465.92, 83.61 468.88, 87.84 472.16 M75.99 462.97 C79.23 465.48, 82.47 468, 87.84 472.16 M87.84 472.16 C87.84 472.16, 87.84 472.16, 87.84 472.16 M87.84 472.16 C87.84 472.16, 87.84 472.16, 87.84 472.16" stroke="#1e1e1e" stroke-width="1" fill="none"></path></g></g><mask></mask></svg>