<svg version="1.1" xmlns="http://www.w3.org/2000/svg" viewBox="0 0 840.049273464114 989.4009183399694" width="840.049273464114" height="989.4009183399694">
  <!-- svg-source:excalidraw -->
  
  <defs>
    <style class="style-fonts">
      @font-face {
        font-family: "Virgil";
        src: url("https://excalidraw.com/Virgil.woff2");
      }
      @font-face {
        font-family: "Cascadia";
        src: url("https://excalidraw.com/Cascadia.woff2");
      }
    </style>
  </defs>
  <rect x="0" y="0" width="840.049273464114" height="989.4009183399694" fill="#ffffff"></rect><g stroke-linecap="round" transform="translate(96.00000000000011 269.9520388841629) rotate(0 341.62741929147955 151.79567906963507)"><path d="M33.86 -0.94 L653.18 -0.84 L665.5 0.2 L670.12 6.09 L678.51 10.71 L680.24 19.17 L682.33 32.56 L684.9 271.78 L680.51 283.94 L677.34 291.64 L670.49 299.39 L664.68 301.39 L649.57 302.35 L32.17 302.69 L17.18 303.3 L11.67 298.32 L5.38 291.84 L1.68 279.69 L0.36 31.1 L3.32 17.26 L8.91 7.6 L19.09 0.86 L32.23 0.75" stroke="none" stroke-width="0" fill="#000e9c"></path><path d="M32 0 M32 0 C228.67 2.57, 425.51 2.73, 651.25 0 M32 0 C247.65 1.88, 463.9 1.82, 651.25 0 M651.25 0 C674.44 0.05, 684.05 11.65, 683.25 32 M651.25 0 C671.8 0.43, 681.72 8.56, 683.25 32 M683.25 32 C683.07 98.58, 683.28 164.49, 683.25 271.59 M683.25 32 C682.98 121.14, 682.66 209.21, 683.25 271.59 M683.25 271.59 C684.06 293.35, 673.87 303.04, 651.25 303.59 M683.25 271.59 C681.28 293.93, 673.97 303.2, 651.25 303.59 M651.25 303.59 C510.3 304.42, 368.38 304.48, 32 303.59 M651.25 303.59 C436.56 302.32, 222.35 302.38, 32 303.59 M32 303.59 C10.88 305.03, -1.29 292.78, 0 271.59 M32 303.59 C8.82 302.78, -2.26 293.45, 0 271.59 M0 271.59 C1.34 207.53, 0.45 145.55, 0 32 M0 271.59 C-1.09 218.98, -1.99 165.75, 0 32 M0 32 C-0.16 12.4, 9.09 1.41, 32 0 M0 32 C0.36 12.56, 9.43 -0.44, 32 0" stroke="white" stroke-width="1" fill="none"></path></g><g stroke-linecap="round" transform="translate(10 155.3461186518283) rotate(0 409.99999999999994 247.5555555555555)"><path d="M7.86 8.16 C7.86 8.16, 7.86 8.16, 7.86 8.16 M7.86 8.16 C7.86 8.16, 7.86 8.16, 7.86 8.16 M3.66 19.09 C8.72 14.85, 15.01 6.94, 18.1 2.48 M3.66 19.09 C8.6 13.37, 13.67 7.15, 18.1 2.48 M2.75 26.24 C10.1 18.01, 16.73 8.17, 24.4 1.33 M2.75 26.24 C7.11 20.52, 13.44 13.24, 24.4 1.33 M1.83 33.39 C11.56 24.56, 21.35 11.3, 30.7 0.18 M1.83 33.39 C8.49 25.95, 13.61 19.78, 30.7 0.18 M1.57 39.79 C12.57 29.07, 23.4 15.77, 34.37 2.05 M1.57 39.79 C12.49 27.88, 23.49 15.16, 34.37 2.05 M1.96 45.43 C11.79 32.91, 19.86 24.07, 39.36 2.41 M1.96 45.43 C9.9 36.29, 19 24.8, 39.36 2.41 M1.7 51.83 C13.34 36.21, 24.55 23.47, 45 2.02 M1.7 51.83 C15.85 34.26, 29.79 18.12, 45 2.02 M1.44 58.23 C18.12 35.87, 38.84 15.53, 49.99 2.38 M1.44 58.23 C18 39.78, 36.33 19.77, 49.99 2.38 M1.83 63.87 C21.95 39.5, 41.14 18.37, 55.63 1.98 M1.83 63.87 C23.02 38.61, 44.14 14.22, 55.63 1.98 M1.57 70.27 C24.47 44.12, 50.73 15.37, 60.62 2.34 M1.57 70.27 C13.92 55.71, 26.24 41.42, 60.62 2.34 M1.97 75.91 C17.47 60.4, 30.49 42.34, 66.26 1.95 M1.97 75.91 C19.11 55.13, 38.08 35.45, 66.26 1.95 M1.71 82.31 C17.82 64.63, 35.01 43.13, 71.25 2.31 M1.71 82.31 C21.22 59.59, 39.9 37.96, 71.25 2.31 M1.44 88.71 C17.77 70.07, 32.28 53.37, 76.89 1.91 M1.44 88.71 C18.03 70.34, 33.72 52.54, 76.89 1.91 M1.84 94.35 C27.79 67.65, 53 37.03, 81.88 2.27 M1.84 94.35 C32.47 58.31, 63.98 23.67, 81.88 2.27 M1.58 100.75 C35.96 62.31, 65.92 25.73, 87.52 1.88 M1.58 100.75 C35.37 60.48, 70.56 21.1, 87.52 1.88 M1.97 106.39 C23.39 81.54, 41.14 61.93, 92.51 2.24 M1.97 106.39 C33.02 70.3, 62.49 36.63, 92.51 2.24 M1.71 112.79 C28.68 82.46, 55.2 50.72, 98.15 1.85 M1.71 112.79 C32.29 78.23, 63.45 42.6, 98.15 1.85 M1.45 119.19 C32.12 86.18, 59.87 52.52, 103.14 2.21 M1.45 119.19 C31.54 83.71, 63.31 50.24, 103.14 2.21 M1.84 124.83 C40.05 84.07, 75.08 41.26, 108.78 1.81 M1.84 124.83 C26 95.67, 48.78 69.16, 108.78 1.81 M1.58 131.23 C23.25 106.32, 47.7 76.3, 113.77 2.17 M1.58 131.23 C27.24 98.9, 55.89 67.05, 113.77 2.17 M1.98 136.87 C42.24 91.29, 80.75 45.48, 119.41 1.78 M1.98 136.87 C31.14 102.32, 61.16 68.21, 119.41 1.78 M1.72 143.27 C49.65 88.39, 99.58 30.48, 124.4 2.14 M1.72 143.27 C36.81 102.56, 73.14 61.69, 124.4 2.14 M1.45 149.67 C40.62 107.14, 77.97 61.71, 130.04 1.74 M1.45 149.67 C40.23 102.31, 80.78 55.44, 130.04 1.74 M1.85 155.31 C38.45 112.96, 71.52 73.29, 135.03 2.1 M1.85 155.31 C52.39 96.85, 101.24 39.35, 135.03 2.1 M1.59 161.71 C53.24 102.19, 104.87 44.74, 140.67 1.71 M1.59 161.71 C54.26 97.99, 109 35.15, 140.67 1.71 M1.98 167.35 C45.52 115.19, 90.99 65.85, 145.66 2.07 M1.98 167.35 C52.35 109.79, 101.56 51.77, 145.66 2.07 M1.72 173.75 C57.49 108.02, 113.16 47.31, 150.65 2.43 M1.72 173.75 C39.28 131.87, 75.43 89.75, 150.65 2.43 M1.46 180.14 C38.08 138.81, 72.1 96.91, 156.29 2.03 M1.46 180.14 C51.03 125.25, 99.26 68.63, 156.29 2.03 M1.85 185.79 C45.95 135.28, 89.15 84.37, 161.28 2.39 M1.85 185.79 C54.83 125.25, 107.28 65.14, 161.28 2.39 M1.59 192.19 C38.98 148.03, 80.64 100.36, 166.92 2 M1.59 192.19 C48.63 141.32, 93.46 88.93, 166.92 2 M1.99 197.83 C54.02 139.5, 104.14 83.77, 171.91 2.36 M1.99 197.83 C41.9 149.35, 82.84 102.49, 171.91 2.36 M1.72 204.23 C56.33 138.47, 113.59 75.36, 177.55 1.96 M1.72 204.23 C50.45 147.48, 98.25 92.31, 177.55 1.96 M1.46 210.62 C73.49 130.35, 142.52 49.78, 182.54 2.32 M1.46 210.62 C52.19 151.39, 104.56 92.75, 182.54 2.32 M1.86 216.27 C71.77 131.06, 144.55 50.02, 188.18 1.93 M1.86 216.27 C56.62 156.42, 109.06 95.4, 188.18 1.93 M1.6 222.66 C72.04 144.24, 141.96 63.4, 193.17 2.29 M1.6 222.66 C64.19 152.48, 125.12 81.57, 193.17 2.29 M1.99 228.31 C68.08 154.64, 133.07 79.72, 198.81 1.9 M1.99 228.31 C60.47 160.69, 120.27 92.94, 198.81 1.9 M1.73 234.71 C77.99 146.1, 153.79 58.86, 203.8 2.26 M1.73 234.71 C60.73 165.13, 122.95 95.12, 203.8 2.26 M1.47 241.1 C71.39 161.95, 139.36 80.54, 209.44 1.86 M1.47 241.1 C49.79 184.5, 98.46 128.43, 209.44 1.86 M1.86 246.75 C53.64 187.75, 103.45 127.89, 214.43 2.22 M1.86 246.75 C74.73 160.81, 148.64 76.28, 214.43 2.22 M1.6 253.14 C48.85 202.11, 92.46 151.52, 220.07 1.83 M1.6 253.14 C54.49 189.94, 108.52 127.56, 220.07 1.83 M2 258.79 C69.38 179.09, 137.55 101.13, 225.06 2.19 M2 258.79 C57.28 193.45, 114.49 128.63, 225.06 2.19 M1.73 265.19 C53.94 202.23, 107.12 143.07, 230.7 1.79 M1.73 265.19 C47.68 209.31, 95.72 154.45, 230.7 1.79 M1.47 271.58 C89.33 167.66, 179.29 67.09, 235.69 2.15 M1.47 271.58 C49.28 217.45, 95.6 162.93, 235.69 2.15 M1.87 277.23 C72.15 194.69, 145.54 111.48, 241.33 1.76 M1.87 277.23 C52.15 217.22, 104.37 157.54, 241.33 1.76 M1.61 283.62 C50.88 224.24, 103.04 163.74, 246.32 2.12 M1.61 283.62 C61.72 218.58, 119.59 151.57, 246.32 2.12 M2 289.27 C51.96 230.59, 102.59 171.83, 251.96 1.72 M2 289.27 C77.93 202.88, 152.34 117.08, 251.96 1.72 M1.74 295.66 C101.95 180.04, 202.55 64.49, 256.95 2.08 M1.74 295.66 C100.14 179.66, 200.39 63.64, 256.95 2.08 M1.48 302.06 C84.54 203.52, 169.67 105.3, 262.59 1.69 M1.48 302.06 C82.81 207.44, 164.14 112.94, 262.59 1.69 M1.87 307.71 C75.9 219.08, 153.38 130.31, 267.58 2.05 M1.87 307.71 C101.56 193.61, 200.2 80.55, 267.58 2.05 M1.61 314.1 C96.58 204.52, 191.18 94.58, 272.56 2.41 M1.61 314.1 C65.81 239.14, 129.5 166.16, 272.56 2.41 M2.01 319.75 C80.71 230.37, 160.3 140.46, 278.21 2.01 M2.01 319.75 C71.45 237.57, 141.56 156.52, 278.21 2.01 M1.74 326.14 C105.56 206.18, 208.78 86.95, 283.19 2.37 M1.74 326.14 C80.39 236.67, 159.3 146.24, 283.19 2.37 M1.48 332.54 C96.63 224.74, 189.95 114.83, 288.84 1.98 M1.48 332.54 C116.69 200.44, 231.65 68.48, 288.84 1.98 M1.88 338.19 C104.38 220.02, 207.59 100.31, 293.82 2.34 M1.88 338.19 C109 213.63, 217.56 88.81, 293.82 2.34 M1.62 344.58 C66.09 271.74, 130.59 198.31, 299.47 1.94 M1.62 344.58 C104.06 227.51, 206.23 109.34, 299.47 1.94 M2.01 350.23 C89.42 248.1, 176.97 148.52, 304.45 2.3 M2.01 350.23 C85.02 253, 169.6 155.65, 304.45 2.3 M1.75 356.62 C92.45 255.82, 179.9 153.88, 310.1 1.91 M1.75 356.62 C92.17 251.88, 182.7 146.67, 310.1 1.91 M1.49 363.02 C84.08 270.87, 164.88 176.41, 315.08 2.27 M1.49 363.02 C90.86 260.15, 180.78 157.46, 315.08 2.27 M1.88 368.66 C107.85 246.58, 213.78 123.99, 320.73 1.88 M1.88 368.66 C79.69 278.33, 157.92 189.29, 320.73 1.88 M1.62 375.06 C110.55 250.97, 218.06 125.47, 325.71 2.24 M1.62 375.06 C100.55 262.04, 199.27 149.93, 325.71 2.24 M2.02 380.71 C98.61 267.05, 196.26 155.03, 331.36 1.84 M2.02 380.71 C86.92 284.39, 170.08 188.53, 331.36 1.84 M1.75 387.1 C101.38 274.79, 199.49 160.31, 336.34 2.2 M1.75 387.1 C125.97 242.7, 250.63 99.04, 336.34 2.2 M1.49 393.5 C124.73 251.07, 246.97 110.26, 341.99 1.81 M1.49 393.5 C124.16 250.14, 247.73 108.13, 341.99 1.81 M1.89 399.14 C111.47 274.12, 218.68 149.5, 346.97 2.17 M1.89 399.14 C125.96 254.4, 252.27 110.02, 346.97 2.17 M1.63 405.54 C94.77 296.99, 189.14 188.44, 352.62 1.77 M1.63 405.54 C103.7 286.65, 205.87 168.54, 352.62 1.77 M2.02 411.18 C96.22 304.02, 190.22 195.37, 357.6 2.13 M2.02 411.18 C97.36 302.45, 192.05 193.97, 357.6 2.13 M1.76 417.58 C142.59 255.03, 285.07 91.05, 363.25 1.74 M1.76 417.58 C121.81 278.37, 243.17 139.08, 363.25 1.74 M1.5 423.98 C82.5 332.49, 160.8 240.79, 368.23 2.1 M1.5 423.98 C112.9 298.04, 223.96 170.72, 368.23 2.1 M1.89 429.62 C106.31 310.19, 209.75 191.21, 373.88 1.7 M1.89 429.62 C98.32 318.39, 195.57 206.73, 373.88 1.7 M1.63 436.02 C129.59 289.17, 258.42 141.78, 378.86 2.06 M1.63 436.02 C84.58 342.99, 165.36 249.01, 378.86 2.06 M2.02 441.66 C117.26 309.48, 230.85 178.7, 383.85 2.42 M2.02 441.66 C85.39 345.9, 167.3 250.73, 383.85 2.42 M1.76 448.06 C82.33 356.5, 161.01 263.93, 389.49 2.03 M1.76 448.06 C149.65 276.95, 297.42 107.43, 389.49 2.03 M1.5 454.46 C154.93 277.05, 307.97 102.49, 394.48 2.39 M1.5 454.46 C89.19 352.35, 178.34 250.39, 394.48 2.39 M1.9 460.1 C113.02 334.04, 224.25 206.22, 400.12 1.99 M1.9 460.1 C118.33 324.78, 236.5 189.51, 400.12 1.99 M2.29 465.75 C132.49 315.1, 262.12 165.3, 405.11 2.35 M2.29 465.75 C120.99 329.99, 237.98 195.02, 405.11 2.35 M3.34 470.63 C92.92 365.13, 184.43 261.69, 410.75 1.96 M3.34 470.63 C120.2 335.76, 238.18 199.79, 410.75 1.96 M2.42 477.79 C96.89 365.95, 192.06 256.66, 415.74 2.32 M2.42 477.79 C119.23 342.83, 237.79 206.86, 415.74 2.32 M4.13 481.92 C88.67 387.12, 171.74 291.1, 421.38 1.93 M4.13 481.92 C92.28 379.23, 181.2 277.18, 421.38 1.93 M7.15 484.54 C126.35 347.53, 246.18 208.63, 426.37 2.29 M7.15 484.54 C120.01 354.64, 231.8 226.54, 426.37 2.29 M9.51 487.92 C168.23 305.76, 326.92 121.83, 432.01 1.89 M9.51 487.92 C154.51 321.27, 299.04 155.29, 432.01 1.89 M12.53 490.55 C103.25 387.12, 192.86 282.69, 437 2.25 M12.53 490.55 C164.69 313.94, 317.3 138.26, 437 2.25 M15.55 493.17 C106.41 390.8, 195.69 286.76, 442.64 1.86 M15.55 493.17 C138.12 350.54, 261.08 209.43, 442.64 1.86 M19.88 494.29 C184.78 307.35, 347.27 118.11, 447.63 2.22 M19.88 494.29 C136.98 358.57, 255.01 223.3, 447.63 2.22 M24.87 494.65 C181.29 316.2, 335.26 137.09, 453.27 1.82 M24.87 494.65 C143.93 355.54, 263.62 218.05, 453.27 1.82 M29.86 495.01 C164.92 339.91, 300.79 184.66, 458.26 2.18 M29.86 495.01 C198.48 299.13, 367.19 104.7, 458.26 2.18 M33.53 496.88 C200.1 307.65, 365.47 117.22, 463.9 1.79 M33.53 496.88 C152.49 360.28, 271.37 222.68, 463.9 1.79 M39.17 496.48 C204.55 307.72, 369.67 117.92, 468.89 2.15 M39.17 496.48 C157.47 358.67, 276.81 221.5, 468.89 2.15 M44.16 496.84 C147.46 379.03, 250.15 261.6, 474.53 1.75 M44.16 496.84 C158.78 364.87, 272.91 233.37, 474.53 1.75 M49.8 496.45 C180.59 347.64, 310.03 200.21, 479.52 2.11 M49.8 496.45 C204.79 318.57, 359.37 141.62, 479.52 2.11 M54.79 496.81 C214.83 311.4, 376.23 126.23, 485.17 1.72 M54.79 496.81 C205.95 321.33, 359.29 145.35, 485.17 1.72 M60.43 496.41 C163.11 380.52, 262.74 265.9, 490.15 2.08 M60.43 496.41 C167.93 369.82, 277.35 244.45, 490.15 2.08 M65.42 496.77 C173.24 375.17, 278.09 253.52, 495.8 1.68 M65.42 496.77 C189.96 355.5, 313.3 213, 495.8 1.68 M71.06 496.38 C197.86 348.66, 324.59 201.96, 500.78 2.04 M71.06 496.38 C177.24 373.54, 284.9 250.3, 500.78 2.04 M76.05 496.74 C166.26 393.53, 253.51 292.84, 505.77 2.4 M76.05 496.74 C214.4 336.86, 354.36 176.08, 505.77 2.4 M81.69 496.34 C189.49 371.3, 298.17 244.91, 511.41 2.01 M81.69 496.34 C175.01 392.5, 266.3 287.02, 511.41 2.01 M86.68 496.7 C173.68 398.29, 260.54 299.26, 516.4 2.37 M86.68 496.7 C240.38 316.53, 395.55 138.37, 516.4 2.37 M92.32 496.31 C183.74 388.98, 276.53 283.93, 522.04 1.98 M92.32 496.31 C215.45 355.39, 338.47 213.88, 522.04 1.98 M97.31 496.67 C215.86 360.16, 336.08 220.63, 527.03 2.34 M97.31 496.67 C189.26 393.23, 280.66 287.96, 527.03 2.34 M102.95 496.28 C249.24 327.88, 394.4 162.28, 532.67 1.94 M102.95 496.28 C268.87 303.95, 435.37 111.85, 532.67 1.94 M107.94 496.64 C232.93 352.96, 356.31 209.31, 537.66 2.3 M107.94 496.64 C248.87 335.44, 388.04 174.97, 537.66 2.3 M112.93 497 C256.25 331.9, 400.3 167.53, 543.3 1.91 M112.93 497 C250.7 339.08, 386.64 183.23, 543.3 1.91 M118.57 496.6 C280.06 313.92, 440.35 129.13, 548.29 2.27 M118.57 496.6 C233.54 361.82, 349.77 228.81, 548.29 2.27 M123.56 496.96 C275.87 321, 428.9 145.94, 553.93 1.87 M123.56 496.96 C224.7 380.09, 327.6 262.37, 553.93 1.87 M129.2 496.57 C246.91 358.34, 365.62 222.55, 558.92 2.23 M129.2 496.57 C234.94 375.32, 339.94 254.89, 558.92 2.23 M134.19 496.93 C268.21 341.74, 402.3 188.09, 564.56 1.84 M134.19 496.93 C221.94 394.14, 310.42 291.42, 564.56 1.84 M139.83 496.53 C240.75 379.81, 342.54 262.7, 569.55 2.2 M139.83 496.53 C300.02 311.56, 460.53 127.42, 569.55 2.2 M144.82 496.89 C298.06 323.58, 450.41 148.29, 575.19 1.8 M144.82 496.89 C252.17 373.53, 357.36 252.56, 575.19 1.8 M150.46 496.5 C279.73 347.73, 408.61 200.13, 580.18 2.16 M150.46 496.5 C238.95 392.17, 328.18 289.82, 580.18 2.16 M155.45 496.86 C321.98 305.55, 486.26 116.98, 585.82 1.77 M155.45 496.86 C266.67 369.82, 376.92 242.56, 585.82 1.77 M161.09 496.46 C333.12 298.13, 503.58 101.06, 590.81 2.13 M161.09 496.46 C256.39 385.61, 353.11 274.16, 590.81 2.13 M166.08 496.82 C317.1 324.44, 468.68 150.78, 596.45 1.73 M166.08 496.82 C304.04 339.71, 441.1 182.88, 596.45 1.73 M171.72 496.43 C291.34 359.53, 407.77 224.25, 601.44 2.09 M171.72 496.43 C313.14 332.78, 455.51 169.01, 601.44 2.09 M176.71 496.79 C327.69 320.13, 480.7 144.31, 607.08 1.7 M176.71 496.79 C342.06 307.86, 507.33 118.31, 607.08 1.7 M182.35 496.39 C335.76 321.35, 490.54 142.86, 612.07 2.06 M182.35 496.39 C334.74 320.81, 486.56 146.86, 612.07 2.06 M187.34 496.75 C334.6 326.1, 480.91 156.67, 617.06 2.42 M187.34 496.75 C352.34 303.95, 518.38 111.9, 617.06 2.42 M192.98 496.36 C318.22 355.68, 442.1 212.58, 622.7 2.02 M192.98 496.36 C345.08 323.1, 495.71 150.29, 622.7 2.02 M197.97 496.72 C289.4 392.64, 379.99 288.84, 627.69 2.38 M197.97 496.72 C342.84 330.44, 487.25 164.49, 627.69 2.38 M203.61 496.33 C372.72 302.14, 540.97 108.58, 633.33 1.99 M203.61 496.33 C336.73 345.75, 468.16 194.66, 633.33 1.99 M208.6 496.69 C336.97 350.02, 465.51 201.3, 638.32 2.35 M208.6 496.69 C300.57 389.87, 392.99 284.48, 638.32 2.35 M214.24 496.29 C303.79 396.3, 391.3 293.79, 643.96 1.96 M214.24 496.29 C313.1 379.97, 412.36 265.55, 643.96 1.96 M219.23 496.65 C351.99 344.37, 484.28 192.62, 648.95 2.32 M219.23 496.65 C339 357.76, 460.36 217.69, 648.95 2.32 M224.87 496.26 C377.12 320.18, 530.08 146.23, 654.59 1.92 M224.87 496.26 C336.94 366.99, 450.67 236.53, 654.59 1.92 M229.86 496.62 C389.67 314.96, 547.99 133.22, 659.58 2.28 M229.86 496.62 C393.02 307.6, 555.38 120.19, 659.58 2.28 M234.85 496.98 C348.67 365.16, 463.14 233.02, 665.22 1.89 M234.85 496.98 C389.96 315.53, 547.15 134.79, 665.22 1.89 M240.49 496.58 C403.49 310.28, 564.43 124.3, 670.21 2.25 M240.49 496.58 C332.81 388.67, 426.56 280.67, 670.21 2.25 M245.48 496.94 C358.96 362.81, 474.1 231.16, 675.85 1.85 M245.48 496.94 C342.53 383.93, 439.58 272.2, 675.85 1.85 M251.12 496.55 C366.69 363.27, 481.63 231.19, 680.84 2.21 M251.12 496.55 C375.19 351, 499.69 206.89, 680.84 2.21 M256.11 496.91 C378.39 356.52, 499.19 216.56, 686.48 1.82 M256.11 496.91 C410.77 318.01, 567.98 137.26, 686.48 1.82 M261.75 496.51 C402.28 333.26, 543.47 172.1, 691.47 2.18 M261.75 496.51 C420.73 315.2, 577.69 134.61, 691.47 2.18 M266.74 496.87 C409.32 332.82, 553.12 166.62, 697.11 1.78 M266.74 496.87 C361.47 388.2, 456.28 278.58, 697.11 1.78 M272.38 496.48 C395.98 353.52, 520.75 210.72, 702.1 2.14 M272.38 496.48 C439 306.89, 603.73 117.13, 702.1 2.14 M277.37 496.84 C383.91 376.4, 488.49 255.46, 707.74 1.75 M277.37 496.84 C391.5 363.49, 506.9 230.82, 707.74 1.75 M283.01 496.44 C386.46 375.2, 489.74 256.71, 712.73 2.11 M283.01 496.44 C439.82 313.31, 597.52 131.3, 712.73 2.11 M288 496.8 C430.85 332.94, 574.91 168.65, 718.37 1.71 M288 496.8 C418.51 349.52, 547 201.76, 718.37 1.71 M293.64 496.41 C426.52 344.04, 559.66 192.41, 723.36 2.07 M293.64 496.41 C427.1 339.06, 562.22 183.53, 723.36 2.07 M298.63 496.77 C432.54 339.01, 568.43 182.45, 729 1.68 M298.63 496.77 C446.71 328.52, 592.81 160.94, 729 1.68 M304.27 496.37 C466.55 309.89, 627.23 124.21, 733.99 2.04 M304.27 496.37 C430.78 351.17, 558.47 203.81, 733.99 2.04 M309.26 496.73 C399.14 391.36, 488.74 287.72, 738.98 2.4 M309.26 496.73 C454.27 330.26, 599.71 163.54, 738.98 2.4 M314.9 496.34 C475.03 315.6, 632.44 134.38, 744.62 2.01 M314.9 496.34 C473.29 316.29, 630.38 134.76, 744.62 2.01 M319.89 496.7 C422.5 381.08, 522.64 264.96, 749.61 2.37 M319.89 496.7 C437.3 364.62, 554.13 230.58, 749.61 2.37 M325.53 496.31 C481.13 317.07, 637.79 137.23, 755.25 1.97 M325.53 496.31 C434.37 373.14, 541.34 249.9, 755.25 1.97 M330.52 496.67 C458.29 350.18, 586.94 202.14, 760.24 2.33 M330.52 496.67 C431.54 376.86, 534.46 258.99, 760.24 2.33 M336.16 496.27 C458.9 353.56, 581.91 210.56, 765.88 1.94 M336.16 496.27 C441.7 372.75, 548.31 250.68, 765.88 1.94 M341.15 496.63 C475.81 339.29, 611.23 183.62, 770.87 2.3 M341.15 496.63 C502 312.5, 662.56 128.3, 770.87 2.3 M346.13 496.99 C439.37 390.12, 531.95 284.84, 776.51 1.9 M346.13 496.99 C492.53 326.77, 639.95 157.01, 776.51 1.9 M351.78 496.6 C479.79 349.75, 607.21 204.59, 781.5 2.26 M351.78 496.6 C491.51 334.52, 633.29 171, 781.5 2.26 M356.76 496.96 C470.47 365.15, 585.92 233.98, 788.45 0.36 M356.76 496.96 C483.57 351.95, 609.13 207.72, 788.45 0.36 M362.41 496.56 C471.39 373.17, 577.49 251.31, 793.44 0.72 M362.41 496.56 C530.25 304.44, 698 111.53, 793.44 0.72 M367.39 496.92 C499.43 342.05, 631.61 189.24, 797.77 1.83 M367.39 496.92 C508.33 335.46, 648.14 174.7, 797.77 1.83 M373.04 496.53 C494.21 358.73, 612.12 222.86, 801.44 3.7 M373.04 496.53 C529.22 320, 683.9 142.54, 801.44 3.7 M378.02 496.89 C493.42 366.12, 606.39 234.01, 805.77 4.82 M378.02 496.89 C485.98 370.6, 595.15 246.14, 805.77 4.82 M383.67 496.49 C510.56 352.6, 635.14 209.56, 809.45 6.69 M383.67 496.49 C501.68 359.48, 621.1 222.17, 809.45 6.69 M388.65 496.85 C474.97 397.78, 561.71 298.46, 812.47 9.31 M388.65 496.85 C541.33 319.04, 696.44 141.49, 812.47 9.31 M394.3 496.46 C518.47 352.96, 643.57 208.7, 815.49 11.94 M394.3 496.46 C524.98 345.19, 655.23 194.99, 815.49 11.94 M399.28 496.82 C501.03 382.57, 601.17 267.61, 818.51 14.56 M399.28 496.82 C531.87 342.29, 666.04 187.39, 818.51 14.56 M404.93 496.42 C525.83 355.12, 647.02 215.19, 819.56 19.45 M404.93 496.42 C502.46 381.72, 600.46 269.09, 819.56 19.45 M409.91 496.78 C506.17 385.33, 602.92 274.6, 820.61 24.34 M409.91 496.78 C518.59 374.28, 625.04 252, 820.61 24.34 M415.56 496.39 C568.93 320.68, 722.87 143.29, 821 29.98 M415.56 496.39 C568.17 320.68, 721.33 144.44, 821 29.98 M420.54 496.75 C544.97 355.7, 667 216.42, 822.71 34.11 M420.54 496.75 C538.42 358.37, 658.5 220.14, 822.71 34.11 M426.19 496.36 C529.73 379.52, 633.55 260.48, 822.45 40.51 M426.19 496.36 C534.81 373.4, 642.82 249.02, 822.45 40.51 M431.17 496.72 C550.97 358.67, 670.94 219.36, 822.84 46.15 M431.17 496.72 C521.89 393.91, 612.1 290.37, 822.84 46.15 M436.82 496.32 C563.42 351.49, 689.69 205.53, 822.58 52.55 M436.82 496.32 C587.35 323.05, 738.15 149.62, 822.58 52.55 M441.8 496.68 C575.23 342.42, 710.6 188.08, 822.32 58.95 M441.8 496.68 C527.16 400.94, 610.68 305.08, 822.32 58.95 M447.45 496.29 C591.58 330.71, 736.28 166.15, 822.71 64.59 M447.45 496.29 C531.06 398.81, 616.63 300.9, 822.71 64.59 M452.43 496.65 C566.59 368.02, 678.41 238.4, 822.45 70.99 M452.43 496.65 C569.96 360.96, 687.03 225.67, 822.45 70.99 M458.08 496.25 C574.53 363, 691.05 229.98, 822.85 76.63 M458.08 496.25 C532.09 410.04, 606.56 324.11, 822.85 76.63 M463.06 496.61 C555.49 390.07, 650.73 280.73, 822.59 83.03 M463.06 496.61 C585.13 355.49, 708.99 213.24, 822.59 83.03 M468.05 496.97 C550.07 405.73, 629.89 313.85, 822.32 89.43 M468.05 496.97 C598.49 346.86, 728.33 197.55, 822.32 89.43 M473.69 496.58 C574.41 384.77, 672.05 271.51, 822.72 95.07 M473.69 496.58 C610.76 338.45, 749.61 178.89, 822.72 95.07 M478.68 496.94 C583.57 377.9, 685.8 260.61, 822.46 101.47 M478.68 496.94 C579.68 381.22, 679.99 265.92, 822.46 101.47 M484.32 496.54 C577.79 391.23, 667.62 285.75, 822.85 107.11 M484.32 496.54 C602.24 359.23, 722.09 221.54, 822.85 107.11 M489.31 496.9 C599.57 372.13, 708.7 247.12, 822.59 113.51 M489.31 496.9 C615.89 352.05, 740.67 208.03, 822.59 113.51 M494.96 496.51 C583.63 392.77, 675.25 289.02, 822.33 119.91 M494.96 496.51 C613.94 359.31, 732.89 222.72, 822.33 119.91 M499.94 496.87 C564.54 422.18, 628.99 346.64, 822.72 125.55 M499.94 496.87 C615.11 364.87, 728.89 233.73, 822.72 125.55 M505.59 496.47 C634.56 351.97, 760.97 205.96, 822.46 131.95 M505.59 496.47 C619.44 366.75, 732.07 237.65, 822.46 131.95 M510.57 496.83 C573.58 423.6, 635.96 351.11, 822.86 137.59 M510.57 496.83 C627.13 362.7, 744.27 228.57, 822.86 137.59 M516.22 496.44 C604.19 392.49, 694.59 290.72, 822.59 143.99 M516.22 496.44 C619.64 376.83, 722.25 258.86, 822.59 143.99 M521.2 496.8 C619.3 384.99, 716.32 274.9, 822.33 150.39 M521.2 496.8 C618.59 384.68, 714.93 274.18, 822.33 150.39 M526.85 496.4 C600.51 411.13, 673.12 327.83, 822.73 156.03 M526.85 496.4 C610.44 399.68, 694.3 303.1, 822.73 156.03 M531.83 496.77 C632.01 383.13, 729.24 270.01, 822.47 162.43 M531.83 496.77 C617.51 398.6, 703.96 299, 822.47 162.43 M537.48 496.37 C626.99 395.04, 714.94 293.09, 822.86 168.07 M537.48 496.37 C611.27 411.46, 685.6 326.13, 822.86 168.07 M542.46 496.73 C639.13 386.56, 734.15 278.55, 822.6 174.47 M542.46 496.73 C636.76 386.92, 731.94 276.6, 822.6 174.47 M548.11 496.34 C653.32 374.66, 757 254.67, 822.34 180.87 M548.11 496.34 C628.95 402.98, 711.03 309.47, 822.34 180.87 M553.09 496.7 C607.36 434.33, 661.91 372.08, 822.73 186.51 M553.09 496.7 C637.74 399.5, 721.3 302.94, 822.73 186.51 M558.74 496.3 C636.89 406.28, 712.71 316.78, 822.47 192.91 M558.74 496.3 C640.99 404.07, 721.81 310.96, 822.47 192.91 M563.72 496.66 C641.21 407.06, 720.77 316.02, 822.87 198.55 M563.72 496.66 C665.45 378.28, 766.69 261.73, 822.87 198.55 M569.37 496.27 C657.78 395.97, 746.01 296.58, 822.6 204.95 M569.37 496.27 C664.71 386.8, 760.44 277.39, 822.6 204.95 M574.35 496.63 C630.66 431.7, 686.29 366.21, 822.34 211.35 M574.35 496.63 C626.17 438.87, 675.98 380.91, 822.34 211.35 M579.34 496.99 C671.15 393.57, 762.65 288.09, 822.74 216.99 M579.34 496.99 C644.76 419.83, 711.97 343.74, 822.74 216.99 M584.98 496.59 C642.17 427.61, 701.69 361.68, 822.48 223.39 M584.98 496.59 C651.09 420.17, 717.2 343, 822.48 223.39 M589.97 496.95 C652.35 427.79, 714.23 356.91, 822.87 229.03 M589.97 496.95 C667.64 408.18, 744.25 319.74, 822.87 229.03 M595.61 496.56 C648.04 437.65, 699.74 377.02, 822.61 235.43 M595.61 496.56 C685.19 393.36, 773.38 291.87, 822.61 235.43 M600.6 496.92 C656.66 431.97, 712.08 366.64, 822.35 241.83 M600.6 496.92 C682.37 401.09, 765.29 305.08, 822.35 241.83 M606.24 496.52 C683.78 405.32, 763.56 317.64, 822.74 247.47 M606.24 496.52 C653.2 439.75, 701.69 384.07, 822.74 247.47 M611.23 496.88 C661.38 442.03, 707.4 385.74, 822.48 253.87 M611.23 496.88 C695.85 401.84, 779.36 304.52, 822.48 253.87 M616.87 496.49 C658.62 447.42, 699.79 397.84, 822.88 259.51 M616.87 496.49 C679.22 422.71, 742.2 349.57, 822.88 259.51 M621.86 496.85 C666.92 446.83, 711.08 394.27, 822.61 265.91 M621.86 496.85 C674.5 436.7, 727.9 376.09, 822.61 265.91 M627.5 496.45 C671.1 445.53, 716.2 394, 822.35 272.31 M627.5 496.45 C682.16 433.76, 737.44 369.33, 822.35 272.31 M632.49 496.81 C690.56 426.41, 749.67 357.92, 822.75 277.95 M632.49 496.81 C675.52 448.69, 717.83 399.68, 822.75 277.95 M638.13 496.42 C696.23 431.8, 751.71 364.38, 822.49 284.35 M638.13 496.42 C679.07 449.74, 721.36 400.82, 822.49 284.35 M643.12 496.78 C701.02 429.34, 760.13 358.74, 822.88 289.99 M643.12 496.78 C678.61 453.56, 716.41 410.45, 822.88 289.99 M648.76 496.39 C683.81 455.92, 718.51 417.57, 822.62 296.39 M648.76 496.39 C704.82 428.43, 762.82 362.72, 822.62 296.39 M653.75 496.75 C714.43 427.91, 775.38 359.06, 822.36 302.79 M653.75 496.75 C705.66 436.2, 757.31 377.71, 822.36 302.79 M659.39 496.35 C702.98 445.45, 749.2 392.22, 822.75 308.43 M659.39 496.35 C696.24 453.47, 732.58 409.93, 822.75 308.43 M664.38 496.71 C697.55 459.29, 732.51 416.86, 822.49 314.83 M664.38 496.71 C713.45 443.13, 760.58 388.97, 822.49 314.83 M670.02 496.32 C702.87 459.39, 732.62 425.43, 822.89 320.47 M670.02 496.32 C709.93 448.35, 751.81 402.16, 822.89 320.47 M675.01 496.68 C731.86 430.52, 787.93 365.75, 822.62 326.87 M675.01 496.68 C723.58 439.28, 774.68 381.85, 822.62 326.87 M680.65 496.28 C715.03 459.91, 748.44 421.47, 822.36 333.26 M680.65 496.28 C712.76 459.14, 745.85 422.68, 822.36 333.26 M685.64 496.64 C726.26 452.19, 764.19 405.75, 822.76 338.91 M685.64 496.64 C721.42 455.07, 758.2 414.03, 822.76 338.91 M690.63 497 C734.85 446.54, 779.12 393.71, 822.5 345.31 M690.63 497 C720.65 464.41, 748.97 430.71, 822.5 345.31 M696.27 496.61 C744.47 442.77, 795.12 385.27, 822.89 350.95 M696.27 496.61 C732.2 455.98, 766.47 418.35, 822.89 350.95 M701.26 496.97 C732.88 461.39, 764.38 423.08, 822.63 357.35 M701.26 496.97 C747.27 443.44, 793.64 391.94, 822.63 357.35 M706.9 496.57 C742.78 451.94, 779.46 411.91, 822.37 363.74 M706.9 496.57 C733.49 464.74, 761.16 431.81, 822.37 363.74 M711.89 496.93 C742.74 461.38, 772.35 427.26, 822.76 369.39 M711.89 496.93 C751.3 453.87, 789.17 408.54, 822.76 369.39 M717.53 496.54 C754.08 453.11, 788.17 411.29, 822.5 375.79 M717.53 496.54 C742.36 466.54, 768.25 437.81, 822.5 375.79 M722.52 496.9 C746.11 469.1, 766.88 444.77, 822.89 381.43 M722.52 496.9 C745.56 470.9, 767.96 445.99, 822.89 381.43 M728.16 496.5 C756.79 467.9, 782.04 437.45, 822.63 387.83 M728.16 496.5 C746.63 473.96, 768.17 451.5, 822.63 387.83 M733.15 496.86 C759.07 469.18, 782 439.72, 822.37 394.22 M733.15 496.86 C751.71 475.5, 771.51 454.23, 822.37 394.22 M738.79 496.47 C771.72 457.8, 804.88 420.89, 822.77 399.87 M738.79 496.47 C761.36 472.44, 780.79 448.04, 822.77 399.87 M743.78 496.83 C774.16 462.97, 801.15 431.26, 822.51 406.26 M743.78 496.83 C772.39 463.68, 800.5 431.45, 822.51 406.26 M749.42 496.44 C770.18 471.77, 790.92 448.46, 822.9 411.91 M749.42 496.44 C776.34 464.89, 803.4 435.45, 822.9 411.91 M754.41 496.8 C778.75 468.65, 804.27 438.52, 822.64 418.31 M754.41 496.8 C769.98 478.24, 785.52 461.55, 822.64 418.31 M760.05 496.4 C777.84 476.33, 792.66 460.17, 822.38 424.7 M760.05 496.4 C778.23 474.83, 796.87 453.75, 822.38 424.7 M765.04 496.76 C784.34 477.81, 800.31 458.5, 822.77 430.35 M765.04 496.76 C777.01 483.43, 789.97 469.33, 822.77 430.35 M770.68 496.37 C785.56 478.99, 799.01 465.34, 822.51 436.74 M770.68 496.37 C786.9 478.75, 803.15 458.66, 822.51 436.74 M775.67 496.73 C791.52 477.68, 808.85 461.88, 822.9 442.39 M775.67 496.73 C786.9 484.11, 797.83 472.32, 822.9 442.39 M781.31 496.33 C788.62 487.42, 799.09 474.79, 822.64 448.79 M781.31 496.33 C789.82 485.24, 797.85 476.28, 822.64 448.79 M786.3 496.69 C792.01 489.96, 802.52 479.05, 822.38 455.18 M786.3 496.69 C794.02 488.66, 800.79 480.17, 822.38 455.18 M790.63 497.81 C800.55 488.89, 807.67 477, 820.15 463.84 M790.63 497.81 C798.95 487.64, 809.73 477.48, 820.15 463.84 M796.93 496.66 C805.67 486.02, 813.19 478.8, 819.23 471 M796.93 496.66 C803.3 490.89, 806.88 485.41, 819.23 471 M803.88 494.75 C806.82 489.71, 813.21 484.27, 816.35 480.41 M803.88 494.75 C806.99 491.86, 811.17 486.63, 816.35 480.41" stroke="#000e9c" stroke-width="0.5" fill="none"></path><path d="M32 0 M32 0 C225.68 -0.59, 420.85 -2.1, 788 0 M32 0 C193.67 -1.03, 354.48 -0.81, 788 0 M788 0 C807.76 -1.31, 819.5 9.53, 820 32 M788 0 C807.4 2.21, 822.03 8.95, 820 32 M820 32 C818.67 204.42, 818.84 374.21, 820 463.11 M820 32 C820.43 135.05, 819.69 239.11, 820 463.11 M820 463.11 C821.96 486.36, 808.45 496.68, 788 495.11 M820 463.11 C820.75 486.29, 810.01 494.43, 788 495.11 M788 495.11 C526.42 497.89, 264.52 497.76, 32 495.11 M788 495.11 C608.56 492.48, 428.98 492.56, 32 495.11 M32 495.11 C10.68 496.43, -0.31 483.7, 0 463.11 M32 495.11 C9.51 495.59, -1.48 482.55, 0 463.11 M0 463.11 C-2.33 328.85, -2.74 193.93, 0 32 M0 463.11 C-1.9 358.47, -1.79 252.73, 0 32 M0 32 C-1.74 8.92, 10.51 1, 32 0 M0 32 C-2.13 11.75, 8.64 -0.85, 32 0" stroke="#000000" stroke-width="1" fill="none"></path></g><g transform="translate(30.000000000000114 169.9520388841629) rotate(0 71.57499694824219 12.5)"><text x="0" y="0" font-family="Virgil, Segoe UI Emoji" font-size="20px" fill="#000000" text-anchor="start" style="white-space: pre;" direction="ltr" dominant-baseline="text-before-edge">Load Balancer</text></g><g stroke-linecap="round"><g transform="translate(410.0000000000001 9.952038884162903) rotate(0 -0.6649997010943025 73.32328265129331)"><path d="M0.51 1.63 C0.82 26.33, 1.65 122.65, 1.2 146.6 M-2.66 0.05 C-2.55 24.14, -1.4 119.41, -0.39 142.78" stroke="#000000" stroke-width="4" fill="none"></path></g><g transform="translate(410.0000000000001 9.952038884162903) rotate(0 -0.6649997010943025 73.32328265129331)"><path d="M-9.02 116.57 C-5.51 119.36, -4.31 132.05, 2.43 145.9 M-11 112.98 C-9.38 123.49, -2.57 134.48, -1.48 144.21" stroke="#000000" stroke-width="4" fill="none"></path></g><g transform="translate(410.0000000000001 9.952038884162903) rotate(0 -0.6649997010943025 73.32328265129331)"><path d="M11.49 116.06 C9.35 119.06, 4.91 131.89, 2.43 145.9 M9.52 112.46 C3.74 123.56, 3.16 134.73, -1.48 144.21" stroke="#000000" stroke-width="4" fill="none"></path></g></g><mask></mask><g transform="translate(230.0000000000001 69.9520388841629) rotate(0 77.41666412353516 12.5)"><text x="0" y="0" font-family="Virgil, Segoe UI Emoji" font-size="20px" fill="#000000" text-anchor="start" style="white-space: pre;" direction="ltr" dominant-baseline="text-before-edge">Incoming traffic</text></g><g stroke-linecap="round" transform="translate(17.000000000000114 683.4520388841629) rotate(0 51 39.5)"><path d="M19.75 0 M19.75 0 C33.02 -2.46, 49.13 3.11, 82.25 0 M19.75 0 C36.11 1.44, 56.97 1.04, 82.25 0 M82.25 0 C99.32 -1.82, 105.65 3.17, 102 19.75 M82.25 0 C94.42 -2.11, 100.19 2.25, 102 19.75 M102 19.75 C103.21 31.24, 103.03 46.95, 102 59.25 M102 19.75 C103.71 34.86, 101.73 50.92, 102 59.25 M102 59.25 C102.79 73.98, 97.95 81.12, 82.25 79 M102 59.25 C103.87 74.09, 95.83 83.41, 82.25 79 M82.25 79 C65.9 77.79, 41.13 78.5, 19.75 79 M82.25 79 C67.27 76.8, 53.49 77.82, 19.75 79 M19.75 79 C9.06 79.46, 1.73 72.74, 0 59.25 M19.75 79 C5.27 82.12, 1.44 74.7, 0 59.25 M0 59.25 C0.45 54.52, -3.59 44.31, 0 19.75 M0 59.25 C0.44 45.17, 0.34 31.06, 0 19.75 M0 19.75 C-1.97 6.05, 3.03 -2.68, 19.75 0 M0 19.75 C4.35 6.57, 5.92 -1.12, 19.75 0" stroke="#000000" stroke-width="1" fill="none"></path></g><g transform="translate(29.171875000000114 702.9520388841629) rotate(0 38.828125 20)"><text x="38.828125" y="0" font-family="Virgil, Segoe UI Emoji" font-size="16px" fill="#000000" text-anchor="middle" style="white-space: pre;" direction="ltr" dominant-baseline="text-before-edge">Member : </text><text x="38.828125" y="20" font-family="Virgil, Segoe UI Emoji" font-size="16px" fill="#000000" text-anchor="middle" style="white-space: pre;" direction="ltr" dominant-baseline="text-before-edge">IP + port</text></g><g stroke-linecap="round" transform="translate(135.0000000000001 683.4520388841629) rotate(0 51 39.5)"><path d="M19.75 0 M19.75 0 C33.02 -2.46, 49.13 3.11, 82.25 0 M19.75 0 C36.11 1.44, 56.97 1.04, 82.25 0 M82.25 0 C99.32 -1.82, 105.65 3.17, 102 19.75 M82.25 0 C94.42 -2.11, 100.19 2.25, 102 19.75 M102 19.75 C103.21 31.24, 103.03 46.95, 102 59.25 M102 19.75 C103.71 34.86, 101.73 50.92, 102 59.25 M102 59.25 C102.79 73.98, 97.95 81.12, 82.25 79 M102 59.25 C103.87 74.09, 95.83 83.41, 82.25 79 M82.25 79 C65.9 77.79, 41.13 78.5, 19.75 79 M82.25 79 C67.27 76.8, 53.49 77.82, 19.75 79 M19.75 79 C9.06 79.46, 1.73 72.74, 0 59.25 M19.75 79 C5.27 82.12, 1.44 74.7, 0 59.25 M0 59.25 C0.45 54.52, -3.59 44.31, 0 19.75 M0 59.25 C0.44 45.17, 0.34 31.06, 0 19.75 M0 19.75 C-1.97 6.05, 3.03 -2.68, 19.75 0 M0 19.75 C4.35 6.57, 5.92 -1.12, 19.75 0" stroke="#000000" stroke-width="1" fill="none"></path></g><g transform="translate(147.1718750000001 702.9520388841629) rotate(0 38.828125 20)"><text x="38.828125" y="0" font-family="Virgil, Segoe UI Emoji" font-size="16px" fill="#000000" text-anchor="middle" style="white-space: pre;" direction="ltr" dominant-baseline="text-before-edge">Member : </text><text x="38.828125" y="20" font-family="Virgil, Segoe UI Emoji" font-size="16px" fill="#000000" text-anchor="middle" style="white-space: pre;" direction="ltr" dominant-baseline="text-before-edge">IP + port</text></g><g stroke-linecap="round" transform="translate(251.0000000000001 682.9520388841629) rotate(0 51 39.5)"><path d="M19.75 0 M19.75 0 C33.02 -2.46, 49.13 3.11, 82.25 0 M19.75 0 C36.11 1.44, 56.97 1.04, 82.25 0 M82.25 0 C99.32 -1.82, 105.65 3.17, 102 19.75 M82.25 0 C94.42 -2.11, 100.19 2.25, 102 19.75 M102 19.75 C103.21 31.24, 103.03 46.95, 102 59.25 M102 19.75 C103.71 34.86, 101.73 50.92, 102 59.25 M102 59.25 C102.79 73.98, 97.95 81.12, 82.25 79 M102 59.25 C103.87 74.09, 95.83 83.41, 82.25 79 M82.25 79 C65.9 77.79, 41.13 78.5, 19.75 79 M82.25 79 C67.27 76.8, 53.49 77.82, 19.75 79 M19.75 79 C9.06 79.46, 1.73 72.74, 0 59.25 M19.75 79 C5.27 82.12, 1.44 74.7, 0 59.25 M0 59.25 C0.45 54.52, -3.59 44.31, 0 19.75 M0 59.25 C0.44 45.17, 0.34 31.06, 0 19.75 M0 19.75 C-1.97 6.05, 3.03 -2.68, 19.75 0 M0 19.75 C4.35 6.57, 5.92 -1.12, 19.75 0" stroke="#000000" stroke-width="1" fill="none"></path></g><g transform="translate(263.1718750000001 702.4520388841629) rotate(0 38.828125 20)"><text x="38.828125" y="0" font-family="Virgil, Segoe UI Emoji" font-size="16px" fill="#000000" text-anchor="middle" style="white-space: pre;" direction="ltr" dominant-baseline="text-before-edge">Member : </text><text x="38.828125" y="20" font-family="Virgil, Segoe UI Emoji" font-size="16px" fill="#000000" text-anchor="middle" style="white-space: pre;" direction="ltr" dominant-baseline="text-before-edge">IP + port</text></g><g stroke-linecap="round" transform="translate(364.0000000000001 683.4520388841629) rotate(0 51 39.5)"><path d="M19.75 0 M19.75 0 C33.02 -2.46, 49.13 3.11, 82.25 0 M19.75 0 C36.11 1.44, 56.97 1.04, 82.25 0 M82.25 0 C99.32 -1.82, 105.65 3.17, 102 19.75 M82.25 0 C94.42 -2.11, 100.19 2.25, 102 19.75 M102 19.75 C103.21 31.24, 103.03 46.95, 102 59.25 M102 19.75 C103.71 34.86, 101.73 50.92, 102 59.25 M102 59.25 C102.79 73.98, 97.95 81.12, 82.25 79 M102 59.25 C103.87 74.09, 95.83 83.41, 82.25 79 M82.25 79 C65.9 77.79, 41.13 78.5, 19.75 79 M82.25 79 C67.27 76.8, 53.49 77.82, 19.75 79 M19.75 79 C9.06 79.46, 1.73 72.74, 0 59.25 M19.75 79 C5.27 82.12, 1.44 74.7, 0 59.25 M0 59.25 C0.45 54.52, -3.59 44.31, 0 19.75 M0 59.25 C0.44 45.17, 0.34 31.06, 0 19.75 M0 19.75 C-1.97 6.05, 3.03 -2.68, 19.75 0 M0 19.75 C4.35 6.57, 5.92 -1.12, 19.75 0" stroke="#000000" stroke-width="1" fill="none"></path></g><g transform="translate(376.1718750000001 702.9520388841629) rotate(0 38.828125 20)"><text x="38.828125" y="0" font-family="Virgil, Segoe UI Emoji" font-size="16px" fill="#000000" text-anchor="middle" style="white-space: pre;" direction="ltr" dominant-baseline="text-before-edge">Member : </text><text x="38.828125" y="20" font-family="Virgil, Segoe UI Emoji" font-size="16px" fill="#000000" text-anchor="middle" style="white-space: pre;" direction="ltr" dominant-baseline="text-before-edge">IP + port</text></g><g stroke-linecap="round" transform="translate(81.51962368759371 248.2993177721039) rotate(0 341.62741929147955 151.79567906963507)"><path d="M33.86 -0.94 L653.18 -0.84 L665.5 0.2 L670.12 6.09 L678.51 10.71 L680.24 19.17 L682.33 32.56 L684.9 271.78 L680.51 283.94 L677.34 291.64 L670.49 299.39 L664.68 301.39 L649.57 302.35 L32.17 302.69 L17.18 303.3 L11.67 298.32 L5.38 291.84 L1.68 279.69 L0.36 31.1 L3.32 17.26 L8.91 7.6 L19.09 0.86 L32.23 0.75" stroke="none" stroke-width="0" fill="#000e9c"></path><path d="M32 0 M32 0 C228.67 2.57, 425.51 2.73, 651.25 0 M32 0 C247.65 1.88, 463.9 1.82, 651.25 0 M651.25 0 C674.44 0.05, 684.05 11.65, 683.25 32 M651.25 0 C671.8 0.43, 681.72 8.56, 683.25 32 M683.25 32 C683.07 98.58, 683.28 164.49, 683.25 271.59 M683.25 32 C682.98 121.14, 682.66 209.21, 683.25 271.59 M683.25 271.59 C684.06 293.35, 673.87 303.04, 651.25 303.59 M683.25 271.59 C681.28 293.93, 673.97 303.2, 651.25 303.59 M651.25 303.59 C510.3 304.42, 368.38 304.48, 32 303.59 M651.25 303.59 C436.56 302.32, 222.35 302.38, 32 303.59 M32 303.59 C10.88 305.03, -1.29 292.78, 0 271.59 M32 303.59 C8.82 302.78, -2.26 293.45, 0 271.59 M0 271.59 C1.34 207.53, 0.45 145.55, 0 32 M0 271.59 C-1.09 218.98, -1.99 165.75, 0 32 M0 32 C-0.16 12.4, 9.09 1.41, 32 0 M0 32 C0.36 12.56, 9.43 -0.44, 32 0" stroke="white" stroke-width="1" fill="none"></path></g><g stroke-linecap="round" transform="translate(64.37258070852067 229.15635981452795) rotate(0 341.6274192914796 151.795679069635)"><path d="M33.86 -0.94 L653.18 -0.84 L665.5 0.2 L670.12 6.09 L678.51 10.71 L680.24 19.17 L682.33 32.56 L684.9 271.78 L680.51 283.94 L677.34 291.64 L670.49 299.39 L664.68 301.39 L649.57 302.35 L32.17 302.69 L17.18 303.3 L11.67 298.32 L5.38 291.84 L1.68 279.69 L0.36 31.1 L3.32 17.26 L8.91 7.6 L19.09 0.86 L32.23 0.75" stroke="none" stroke-width="0" fill="#000e9c"></path><path d="M32 0 M32 0 C228.67 2.57, 425.51 2.73, 651.25 0 M32 0 C247.65 1.88, 463.9 1.82, 651.25 0 M651.25 0 C674.44 0.05, 684.05 11.65, 683.25 32 M651.25 0 C671.8 0.43, 681.72 8.56, 683.25 32 M683.25 32 C683.07 98.58, 683.28 164.49, 683.25 271.59 M683.25 32 C682.98 121.14, 682.66 209.21, 683.25 271.59 M683.25 271.59 C684.06 293.35, 673.87 303.04, 651.25 303.59 M683.25 271.59 C681.28 293.93, 673.97 303.2, 651.25 303.59 M651.25 303.59 C510.3 304.42, 368.38 304.48, 32 303.59 M651.25 303.59 C436.56 302.32, 222.35 302.38, 32 303.59 M32 303.59 C10.88 305.03, -1.29 292.78, 0 271.59 M32 303.59 C8.82 302.78, -2.26 293.45, 0 271.59 M0 271.59 C1.34 207.53, 0.45 145.55, 0 32 M0 271.59 C-1.09 218.98, -1.99 165.75, 0 32 M0 32 C-0.16 12.4, 9.09 1.41, 32 0 M0 32 C0.36 12.56, 9.43 -0.44, 32 0" stroke="white" stroke-width="1" fill="none"></path></g><g stroke-linecap="round"><g transform="translate(270.0000000000001 509.9520388841629) rotate(0 73.42851931216012 85.25214532326561)"><path d="M0 0 C24.48 28.42, 122.38 142.09, 146.86 170.5 M0 0 C24.48 28.42, 122.38 142.09, 146.86 170.5" stroke="#000000" stroke-width="1" fill="none"></path></g><g transform="translate(270.0000000000001 509.9520388841629) rotate(0 73.42851931216012 85.25214532326561)"><path d="M120.69 155.84 C126.65 159.18, 132.61 162.52, 146.86 170.5 M120.69 155.84 C128.54 160.24, 136.39 164.64, 146.86 170.5" stroke="#000000" stroke-width="1" fill="none"></path></g><g transform="translate(270.0000000000001 509.9520388841629) rotate(0 73.42851931216012 85.25214532326561)"><path d="M136.23 142.45 C138.65 148.84, 141.08 155.23, 146.86 170.5 M136.23 142.45 C139.42 150.87, 142.61 159.29, 146.86 170.5" stroke="#000000" stroke-width="1" fill="none"></path></g></g><mask></mask><g stroke-linecap="round" transform="translate(89.91132663835572 268.30966425507813) rotate(0 137.80263025956566 39.44350648733945)"><path d="M16.64 -1.06 L266.47 0.58 L268.83 6.46 L279.02 14.83 L273.33 67.46 L263.98 78.79 L257.03 80.75 L15 75.84 L6.43 67.77 L-0.56 61.95 L-1.27 11.33 L5.7 5.41 L9.59 2.34 L18.6 0.93" stroke="none" stroke-width="0" fill="#73e3ff"></path><path d="M19.72 0 M19.72 0 C99.91 4.78, 184.38 1.45, 255.88 0 M19.72 0 C98.19 -0.66, 175.22 -0.94, 255.88 0 M255.88 0 C269.39 3.84, 276.46 5.87, 275.61 19.72 M255.88 0 C272.37 4.3, 273.17 5.48, 275.61 19.72 M275.61 19.72 C271.65 29.1, 272.78 40.88, 275.61 59.17 M275.61 19.72 C276.96 31.48, 275.52 44.27, 275.61 59.17 M275.61 59.17 C276.85 74.3, 265.78 78.52, 255.88 78.89 M275.61 59.17 C279.66 72.75, 273.54 74.67, 255.88 78.89 M255.88 78.89 C174.45 78.51, 87.9 78.36, 19.72 78.89 M255.88 78.89 C164.49 77.24, 77.67 78.36, 19.72 78.89 M19.72 78.89 C6 77.91, -0.19 74.82, 0 59.17 M19.72 78.89 C6.97 82.48, 1.41 70.36, 0 59.17 M0 59.17 C-1.1 49.56, 3.72 38.6, 0 19.72 M0 59.17 C0.43 47.37, 0.11 40.15, 0 19.72 M0 19.72 C-0.28 7.96, 10.34 -2.85, 19.72 0 M0 19.72 C4.15 4.69, 6.79 -1.26, 19.72 0" stroke="white" stroke-width="1" fill="none"></path></g><g transform="translate(117.60083208127105 297.7674728975213) rotate(0 110.11312481665027 9.985697844896038)"><text x="110.11312481665026" y="0" font-family="Virgil, Segoe UI Emoji" font-size="15.9771165518337px" fill="white" text-anchor="middle" style="white-space: pre;" direction="ltr" dominant-baseline="text-before-edge">Listener_1 : protocol + port</text></g><g stroke-linecap="round" transform="translate(94.84056945759926 417.5958470362742) rotate(0 137.80263025956566 39.44350648733945)"><path d="M16.64 -1.06 L266.47 0.58 L268.83 6.46 L279.02 14.83 L273.33 67.46 L263.98 78.79 L257.03 80.75 L15 75.84 L6.43 67.77 L-0.56 61.95 L-1.27 11.33 L5.7 5.41 L9.59 2.34 L18.6 0.93" stroke="none" stroke-width="0" fill="#ffd124"></path><path d="M19.72 0 M19.72 0 C99.91 4.78, 184.38 1.45, 255.88 0 M19.72 0 C98.19 -0.66, 175.22 -0.94, 255.88 0 M255.88 0 C269.39 3.84, 276.46 5.87, 275.61 19.72 M255.88 0 C272.37 4.3, 273.17 5.48, 275.61 19.72 M275.61 19.72 C271.65 29.1, 272.78 40.88, 275.61 59.17 M275.61 19.72 C276.96 31.48, 275.52 44.27, 275.61 59.17 M275.61 59.17 C276.85 74.3, 265.78 78.52, 255.88 78.89 M275.61 59.17 C279.66 72.75, 273.54 74.67, 255.88 78.89 M255.88 78.89 C174.45 78.51, 87.9 78.36, 19.72 78.89 M255.88 78.89 C164.49 77.24, 77.67 78.36, 19.72 78.89 M19.72 78.89 C6 77.91, -0.19 74.82, 0 59.17 M19.72 78.89 C6.97 82.48, 1.41 70.36, 0 59.17 M0 59.17 C-1.1 49.56, 3.72 38.6, 0 19.72 M0 59.17 C0.43 47.37, 0.11 40.15, 0 19.72 M0 19.72 C-0.28 7.96, 10.34 -2.85, 19.72 0 M0 19.72 C4.15 4.69, 6.79 -1.26, 19.72 0" stroke="white" stroke-width="1" fill="none"></path></g><g transform="translate(119.35233713624257 447.05365567871763) rotate(0 113.29086258092235 9.985697844896038)"><text x="113.29086258092235" y="0" font-family="Virgil, Segoe UI Emoji" font-size="15.9771165518337px" fill="white" text-anchor="middle" style="white-space: pre;" direction="ltr" dominant-baseline="text-before-edge">Pool_1 : protocol + algorithm</text></g><g stroke-linecap="round"><g transform="translate(228.93609732475898 351.06489415461897) rotate(0 -1.052271272982182 32.45351799591219)"><path d="M0 0 C-0.35 10.82, -1.75 54.09, -2.1 64.91 M0 0 C-0.35 10.82, -1.75 54.09, -2.1 64.91" stroke="white" stroke-width="4" fill="none"></path></g><g transform="translate(228.93609732475898 351.06489415461897) rotate(0 -1.052271272982182 32.45351799591219)"><path d="M-11.45 36.4 C-9.32 42.9, -7.19 49.39, -2.1 64.91 M-11.45 36.4 C-8.64 44.95, -5.84 53.51, -2.1 64.91" stroke="white" stroke-width="4" fill="none"></path></g><g transform="translate(228.93609732475898 351.06489415461897) rotate(0 -1.052271272982182 32.45351799591219)"><path d="M9.06 37.06 C6.52 43.41, 3.97 49.75, -2.1 64.91 M9.06 37.06 C5.71 45.42, 2.36 53.77, -2.1 64.91" stroke="white" stroke-width="4" fill="none"></path></g></g><mask></mask><g stroke-linecap="round" transform="translate(450.0000000000001 409.9520388841629) rotate(0 49.9284892244803 36.94708202611548)"><path d="M15.39 -1.06 L83.34 -0.66 L93.39 6.15 L103.58 18.2 L98.52 59.41 L91.32 71.96 L82.53 75.76 L22.38 72.08 L8.27 65.87 L-0.57 57.91 L-1.29 10.37 L5.39 5.1 L16.98 1.11" stroke="none" stroke-width="0" fill="#ffd124"></path><path d="M18.47 0 M18.47 0 C39.08 -2.05, 49.93 3.37, 81.38 0 M18.47 0 C37.12 0.43, 56.24 0.71, 81.38 0 M81.38 0 C95.32 1.46, 100.22 10, 99.86 18.47 M81.38 0 C94.68 -0.81, 103.2 10.46, 99.86 18.47 M99.86 18.47 C96.93 28.77, 96.27 35.66, 99.86 55.42 M99.86 18.47 C101.14 27.68, 100.77 36.59, 99.86 55.42 M99.86 55.42 C98.71 70.45, 94.95 75.88, 81.38 73.89 M99.86 55.42 C96.12 67.31, 97.75 74.33, 81.38 73.89 M81.38 73.89 C59.44 73.79, 35.19 75.18, 18.47 73.89 M81.38 73.89 C58.95 74.64, 36.71 73.57, 18.47 73.89 M18.47 73.89 C9.94 73.88, -0.58 66.76, 0 55.42 M18.47 73.89 C5.94 76.78, 0.4 71.33, 0 55.42 M0 55.42 C-1.33 39.38, -1.11 30.6, 0 18.47 M0 55.42 C0.08 40.63, 0.7 25.52, 0 18.47 M0 18.47 C-0.02 9.44, 5.88 1.38, 18.47 0 M0 18.47 C4.33 2.88, 10.31 -1.88, 18.47 0" stroke="white" stroke-width="1" fill="none"></path></g><g transform="translate(471.3860355829455 426.9277252204862) rotate(0 28.54245364153479 19.971395689792132)"><text x="28.542453641534813" y="0" font-family="Virgil, Segoe UI Emoji" font-size="15.9771165518337px" fill="white" text-anchor="middle" style="white-space: pre;" direction="ltr" dominant-baseline="text-before-edge">Health </text><text x="28.542453641534813" y="19.971395689792125" font-family="Virgil, Segoe UI Emoji" font-size="15.9771165518337px" fill="white" text-anchor="middle" style="white-space: pre;" direction="ltr" dominant-baseline="text-before-edge">monitor</text></g><g stroke-linecap="round"><g transform="translate(379.36745430382985 451.89741177584574) rotate(0 30.687632600769973 -0.5306200276149866)"><path d="M0 0 C10.23 -0.18, 51.15 -0.88, 61.38 -1.06 M0 0 C10.23 -0.18, 51.15 -0.88, 61.38 -1.06" stroke="white" stroke-width="2" fill="none"></path></g></g><mask></mask><g stroke-linecap="round" transform="translate(603.1588793318573 238.39908869904536) rotate(0 49.9284892244803 17.339170912618897)"><path d="M5.58 -1.06 L96.94 -0.12 L97.47 6.4 L103.04 29.53 L90.14 34.34 L0.96 36.82 L1.69 31.67 L3.91 6.85 L5.82 -1.24 L7.81 -1.84" stroke="none" stroke-width="0" fill="#a6d64d"></path><path d="M8.67 0 M8.67 0 C30.66 -1.82, 52.79 -1.44, 91.19 0 M8.67 0 C34.63 -2.82, 64.02 -1.64, 91.19 0 M91.19 0 C97 1.11, 100.64 4.45, 99.86 8.67 M91.19 0 C99.88 2.44, 101.72 4.56, 99.86 8.67 M99.86 8.67 C99.58 16.55, 103.43 17.55, 99.86 26.01 M99.86 8.67 C100.24 11.98, 99.27 17.26, 99.86 26.01 M99.86 26.01 C100.12 31.55, 99.45 35.14, 91.19 34.68 M99.86 26.01 C101.85 32.16, 95.65 37.79, 91.19 34.68 M91.19 34.68 C63.48 36.86, 36.9 37.26, 8.67 34.68 M91.19 34.68 C73.58 37.89, 57.08 36.77, 8.67 34.68 M8.67 34.68 C3.25 37.91, -1.97 31.26, 0 26.01 M8.67 34.68 C-1.2 31.6, 4.35 31.77, 0 26.01 M0 26.01 C2.26 21.36, 2.79 17.17, 0 8.67 M0 26.01 C-1.43 20.93, 0.06 18.55, 0 8.67 M0 8.67 C-2.12 1.36, 2.27 -1.15, 8.67 0 M0 8.67 C0.7 -0.48, 2.86 3.77, 8.67 0" stroke="white" stroke-width="1" fill="none"></path></g><g transform="translate(621.3567741121951 248.11318591204292) rotate(0 31.730594444142525 9.985697844896038)"><text x="31.730594444142515" y="0" font-family="Virgil, Segoe UI Emoji" font-size="15.9771165518337px" fill="white" text-anchor="middle" style="white-space: pre;" direction="ltr" dominant-baseline="text-before-edge">L7 rules</text></g><g stroke-linecap="round" transform="translate(601.179056297034 289.9520388841629) rotate(0 49.9284892244803 17.339170912618897)"><path d="M5.58 -1.06 L96.94 -0.12 L97.47 6.4 L103.04 29.53 L90.14 34.34 L0.96 36.82 L1.69 31.67 L3.91 6.85 L5.82 -1.24 L7.81 -1.84" stroke="none" stroke-width="0" fill="#a6d64d"></path><path d="M8.67 0 M8.67 0 C30.66 -1.82, 52.79 -1.44, 91.19 0 M8.67 0 C34.63 -2.82, 64.02 -1.64, 91.19 0 M91.19 0 C97 1.11, 100.64 4.45, 99.86 8.67 M91.19 0 C99.88 2.44, 101.72 4.56, 99.86 8.67 M99.86 8.67 C99.58 16.55, 103.43 17.55, 99.86 26.01 M99.86 8.67 C100.24 11.98, 99.27 17.26, 99.86 26.01 M99.86 26.01 C100.12 31.55, 99.45 35.14, 91.19 34.68 M99.86 26.01 C101.85 32.16, 95.65 37.79, 91.19 34.68 M91.19 34.68 C63.48 36.86, 36.9 37.26, 8.67 34.68 M91.19 34.68 C73.58 37.89, 57.08 36.77, 8.67 34.68 M8.67 34.68 C3.25 37.91, -1.97 31.26, 0 26.01 M8.67 34.68 C-1.2 31.6, 4.35 31.77, 0 26.01 M0 26.01 C2.26 21.36, 2.79 17.17, 0 8.67 M0 26.01 C-1.43 20.93, 0.06 18.55, 0 8.67 M0 8.67 C-2.12 1.36, 2.27 -1.15, 8.67 0 M0 8.67 C0.7 -0.48, 2.86 3.77, 8.67 0" stroke="white" stroke-width="1" fill="none"></path></g><g transform="translate(619.3769510773718 299.6661360971606) rotate(0 31.730594444142525 9.985697844896038)"><text x="31.730594444142515" y="0" font-family="Virgil, Segoe UI Emoji" font-size="15.9771165518337px" fill="white" text-anchor="middle" style="white-space: pre;" direction="ltr" dominant-baseline="text-before-edge">L7 rules</text></g><g stroke-linecap="round" transform="translate(601.179056297034 341.5054634649257) rotate(0 49.9284892244803 17.339170912618897)"><path d="M5.58 -1.06 L96.94 -0.12 L97.47 6.4 L103.04 29.53 L90.14 34.34 L0.96 36.82 L1.69 31.67 L3.91 6.85 L5.82 -1.24 L7.81 -1.84" stroke="none" stroke-width="0" fill="#a6d64d"></path><path d="M8.67 0 M8.67 0 C30.66 -1.82, 52.79 -1.44, 91.19 0 M8.67 0 C34.63 -2.82, 64.02 -1.64, 91.19 0 M91.19 0 C97 1.11, 100.64 4.45, 99.86 8.67 M91.19 0 C99.88 2.44, 101.72 4.56, 99.86 8.67 M99.86 8.67 C99.58 16.55, 103.43 17.55, 99.86 26.01 M99.86 8.67 C100.24 11.98, 99.27 17.26, 99.86 26.01 M99.86 26.01 C100.12 31.55, 99.45 35.14, 91.19 34.68 M99.86 26.01 C101.85 32.16, 95.65 37.79, 91.19 34.68 M91.19 34.68 C63.48 36.86, 36.9 37.26, 8.67 34.68 M91.19 34.68 C73.58 37.89, 57.08 36.77, 8.67 34.68 M8.67 34.68 C3.25 37.91, -1.97 31.26, 0 26.01 M8.67 34.68 C-1.2 31.6, 4.35 31.77, 0 26.01 M0 26.01 C2.26 21.36, 2.79 17.17, 0 8.67 M0 26.01 C-1.43 20.93, 0.06 18.55, 0 8.67 M0 8.67 C-2.12 1.36, 2.27 -1.15, 8.67 0 M0 8.67 C0.7 -0.48, 2.86 3.77, 8.67 0" stroke="white" stroke-width="1" fill="none"></path></g><g transform="translate(619.3769510773719 351.21956067792325) rotate(0 31.730594444142525 9.985697844896038)"><text x="31.730594444142515" y="0" font-family="Virgil, Segoe UI Emoji" font-size="15.9771165518337px" fill="white" text-anchor="middle" style="white-space: pre;" direction="ltr" dominant-baseline="text-before-edge">L7 rules</text></g><g stroke-linecap="round"><g transform="translate(549.9999332519586 286.1020492322325) rotate(0 0.000033374020745213784 -0.000017303454626471648)"><path d="M0 0 C0 0, 0 0, 0 0 M0 0 C0 0, 0 0, 0 0" stroke="white" stroke-width="2" fill="none"></path></g></g><mask></mask><g stroke-linecap="round" transform="translate(470.0000000000001 289.9520388841629) rotate(0 49.9284892244803 36.947082026115424)"><path d="M15.39 -1.06 L83.34 -0.66 L93.39 6.15 L103.58 18.2 L98.52 59.41 L91.32 71.96 L82.53 75.76 L22.38 72.08 L8.27 65.87 L-0.57 57.91 L-1.29 10.37 L5.39 5.1 L16.98 1.11" stroke="none" stroke-width="0" fill="#a6d64d"></path><path d="M18.47 0 M18.47 0 C39.08 -2.05, 49.93 3.37, 81.38 0 M18.47 0 C37.12 0.43, 56.24 0.71, 81.38 0 M81.38 0 C95.32 1.46, 100.22 10, 99.86 18.47 M81.38 0 C94.68 -0.81, 103.2 10.46, 99.86 18.47 M99.86 18.47 C96.93 28.77, 96.27 35.66, 99.86 55.42 M99.86 18.47 C101.14 27.68, 100.77 36.59, 99.86 55.42 M99.86 55.42 C98.71 70.45, 94.95 75.88, 81.38 73.89 M99.86 55.42 C96.12 67.31, 97.75 74.33, 81.38 73.89 M81.38 73.89 C59.44 73.79, 35.19 75.18, 18.47 73.89 M81.38 73.89 C58.95 74.64, 36.71 73.57, 18.47 73.89 M18.47 73.89 C9.94 73.88, -0.58 66.76, 0 55.42 M18.47 73.89 C5.94 76.78, 0.4 71.33, 0 55.42 M0 55.42 C-1.33 39.38, -1.11 30.6, 0 18.47 M0 55.42 C0.08 40.63, 0.7 25.52, 0 18.47 M0 18.47 C-0.02 9.44, 5.88 1.38, 18.47 0 M0 18.47 C4.33 2.88, 10.31 -1.88, 18.47 0" stroke="white" stroke-width="1" fill="none"></path></g><g stroke-linecap="round"><g transform="translate(213.32356640416754 509.9520388841629) rotate(0 -81.66178320208374 90.07232773787678)"><path d="M0 0 C-27.22 30.02, -136.1 150.12, -163.32 180.14 M0 0 C-27.22 30.02, -136.1 150.12, -163.32 180.14" stroke="#000000" stroke-width="1" fill="none"></path></g><g transform="translate(213.32356640416754 509.9520388841629) rotate(0 -81.66178320208374 90.07232773787678)"><path d="M-151.99 152.37 C-154.57 158.7, -157.16 165.03, -163.32 180.14 M-151.99 152.37 C-155.39 160.7, -158.79 169.04, -163.32 180.14" stroke="#000000" stroke-width="1" fill="none"></path></g><g transform="translate(213.32356640416754 509.9520388841629) rotate(0 -81.66178320208374 90.07232773787678)"><path d="M-136.79 166.15 C-142.83 169.34, -148.88 172.53, -163.32 180.14 M-136.79 166.15 C-144.75 170.35, -152.71 174.55, -163.32 180.14" stroke="#000000" stroke-width="1" fill="none"></path></g></g><mask></mask><g stroke-linecap="round"><g transform="translate(230.0000000000001 509.9520388841629) rotate(0 -19.99999999999997 87.49317072966733)"><path d="M0 0 C-6.67 29.16, -33.33 145.82, -40 174.99 M0 0 C-6.67 29.16, -33.33 145.82, -40 174.99" stroke="#000000" stroke-width="1" fill="none"></path></g><g transform="translate(230.0000000000001 509.9520388841629) rotate(0 -19.99999999999997 87.49317072966733)"><path d="M-43.72 145.22 C-42.87 152, -42.02 158.79, -40 174.99 M-43.72 145.22 C-42.6 154.15, -41.49 163.08, -40 174.99" stroke="#000000" stroke-width="1" fill="none"></path></g><g transform="translate(230.0000000000001 509.9520388841629) rotate(0 -19.99999999999997 87.49317072966733)"><path d="M-23.72 149.79 C-27.43 155.53, -31.14 161.27, -40 174.99 M-23.72 149.79 C-28.6 157.35, -33.49 164.91, -40 174.99" stroke="#000000" stroke-width="1" fill="none"></path></g></g><mask></mask><g stroke-linecap="round"><g transform="translate(250.0000000000001 509.9520388841629) rotate(0 24.21906963779145 86)"><path d="M0 0 C8.07 28.67, 40.37 143.33, 48.44 172 M0 0 C8.07 28.67, 40.37 143.33, 48.44 172" stroke="#000000" stroke-width="1" fill="none"></path></g><g transform="translate(250.0000000000001 509.9520388841629) rotate(0 24.21906963779145 86)"><path d="M30.92 147.65 C34.91 153.2, 38.9 158.75, 48.44 172 M30.92 147.65 C36.18 154.95, 41.43 162.26, 48.44 172" stroke="#000000" stroke-width="1" fill="none"></path></g><g transform="translate(250.0000000000001 509.9520388841629) rotate(0 24.21906963779145 86)"><path d="M50.67 142.08 C50.16 148.9, 49.65 155.72, 48.44 172 M50.67 142.08 C50 151.06, 49.33 160.04, 48.44 172" stroke="#000000" stroke-width="1" fill="none"></path></g></g><mask></mask><g stroke-linecap="round"><g transform="translate(377.4702137780887 304.60018855842645) rotate(0 30.30756399968908 0.07407254795873541)"><path d="M0 0 C10.1 0.02, 50.51 0.12, 60.62 0.15 M0 0 C10.1 0.02, 50.51 0.12, 60.62 0.15" stroke="white" stroke-width="2" fill="none"></path></g></g><mask></mask><g stroke-linecap="round"><g transform="translate(390.0000000000001 169.9520388841629) rotate(0 -77.02191340686966 49.5)"><path d="M0 0 C-25.67 16.5, -128.37 82.5, -154.04 99 M0 0 C-25.67 16.5, -128.37 82.5, -154.04 99" stroke="white" stroke-width="4" fill="none"></path></g><g transform="translate(390.0000000000001 169.9520388841629) rotate(0 -77.02191340686966 49.5)"><path d="M-135.88 75.13 C-140.02 80.57, -144.16 86.01, -154.04 99 M-135.88 75.13 C-141.33 82.29, -146.78 89.45, -154.04 99" stroke="white" stroke-width="4" fill="none"></path></g><g transform="translate(390.0000000000001 169.9520388841629) rotate(0 -77.02191340686966 49.5)"><path d="M-124.78 92.39 C-131.45 93.9, -138.12 95.4, -154.04 99 M-124.78 92.39 C-133.56 94.37, -142.34 96.36, -154.04 99" stroke="white" stroke-width="4" fill="none"></path></g></g><mask></mask><g transform="translate(430.0000000000001 789.9520388841629) rotate(0 153.76587831823872 60.0419143909312)" stroke="none"><path fill="white" d="M 2.67,-1.60 Q 2.67,-1.60 5.98,4.04 9.29,9.68 14.00,16.50 18.70,23.32 25.95,31.76 33.21,40.20 43.21,49.05 53.21,57.90 65.79,66.38 78.37,74.87 90.45,82.14 102.53,89.41 113.21,94.71 123.88,100.01 136.68,103.89 149.47,107.78 161.64,110.56 173.81,113.35 185.32,114.51 196.82,115.68 207.05,116.19 217.27,116.69 226.38,116.91 235.49,117.12 242.91,116.66 250.34,116.19 256.20,115.17 262.07,114.14 266.98,112.62 271.90,111.09 275.23,109.34 278.56,107.58 280.28,105.93 281.99,104.28 283.64,102.83 285.28,101.38 287.58,100.00 289.87,98.62 292.05,97.26 294.23,95.89 297.09,93.60 299.94,91.31 301.44,89.70 302.94,88.09 302.10,90.49 301.25,92.89 299.37,92.18 297.50,91.47 296.73,90.99 295.96,90.51 295.38,89.80 294.81,89.10 294.48,88.25 294.16,87.41 294.13,86.50 294.10,85.59 294.35,84.72 294.61,83.85 295.13,83.11 295.66,82.37 296.39,81.83 297.12,81.29 297.98,81.02 298.85,80.74 299.76,80.76 300.66,80.77 301.52,81.08 302.37,81.38 303.09,81.95 303.80,82.51 304.30,83.27 304.79,84.03 305.02,84.91 305.25,85.78 305.18,86.69 305.12,87.59 304.77,88.43 304.42,89.27 303.82,89.95 303.22,90.63 302.43,91.09 301.65,91.54 300.76,91.72 299.87,91.90 298.97,91.79 298.07,91.67 297.25,91.28 296.43,90.88 295.79,90.25 295.14,89.61 294.73,88.80 294.32,87.99 294.18,87.09 294.05,86.20 294.21,85.30 294.38,84.41 294.82,83.62 295.26,82.82 295.92,82.21 296.59,81.60 297.42,81.23 298.25,80.86 299.16,80.78 300.06,80.70 300.94,80.91 301.83,81.12 301.83,81.12 301.83,81.12 304.12,82.16 306.42,83.19 308.77,85.17 311.12,87.14 310.55,91.30 309.98,95.46 307.96,97.00 305.95,98.54 302.16,100.88 298.37,103.22 295.93,104.46 293.48,105.70 289.70,107.54 285.92,109.37 283.49,110.93 281.05,112.48 277.25,114.30 273.46,116.12 268.22,117.72 262.97,119.33 256.82,120.39 250.67,121.45 243.02,121.92 235.37,122.40 226.19,122.18 217.01,121.97 206.65,121.46 196.29,120.95 184.46,119.74 172.63,118.52 160.28,115.70 147.92,112.88 134.72,108.85 121.51,104.82 110.63,99.43 99.75,94.04 87.54,86.71 75.32,79.39 62.44,70.72 49.55,62.05 39.25,52.97 28.95,43.89 21.45,35.26 13.96,26.63 9.07,19.70 4.17,12.76 0.74,7.18 -2.67,1.60 -2.83,1.26 -2.98,0.91 -3.05,0.54 -3.11,0.17 -3.09,-0.19 -3.07,-0.57 -2.95,-0.93 -2.84,-1.29 -2.64,-1.61 -2.45,-1.93 -2.18,-2.20 -1.91,-2.46 -1.59,-2.65 -1.27,-2.85 -0.91,-2.96 -0.55,-3.07 -0.17,-3.09 0.19,-3.11 0.56,-3.04 0.93,-2.97 1.28,-2.82 1.62,-2.66 1.92,-2.43 2.21,-2.20 2.44,-1.90 2.67,-1.60 2.67,-1.60 L 2.67,-1.60 Z"></path></g><g transform="translate(467.09906905455944 817.7903121387258) rotate(0 0.00004999999998744897 0.00004999999998744897)" stroke="none"><path fill="white" d="M 3.14,-3.14 Q 3.14,-3.14 3.55,-2.55 3.97,-1.97 4.18,-1.28 4.40,-0.59 4.38,0.11 4.36,0.83 4.11,1.51 3.86,2.18 3.41,2.74 2.96,3.30 2.36,3.69 1.75,4.07 1.05,4.25 0.36,4.42 -0.35,4.36 -1.07,4.30 -1.73,4.02 -2.39,3.74 -2.92,3.26 -3.46,2.78 -3.81,2.15 -4.16,1.53 -4.30,0.82 -4.43,0.11 -4.34,-0.59 -4.24,-1.30 -3.92,-1.94 -3.60,-2.59 -3.09,-3.09 -2.59,-3.60 -1.94,-3.92 -1.30,-4.24 -0.59,-4.34 0.12,-4.43 0.82,-4.30 1.53,-4.16 2.15,-3.81 2.78,-3.46 3.26,-2.92 3.74,-2.39 4.02,-1.73 4.31,-1.07 4.36,-0.35 4.42,0.36 4.25,1.05 4.07,1.75 3.69,2.36 3.30,2.96 2.74,3.41 2.18,3.86 1.51,4.11 0.83,4.36 0.11,4.38 -0.60,4.40 -1.28,4.18 -1.97,3.97 -2.55,3.55 -3.14,3.13 -3.14,3.14 -3.14,3.14 -3.47,2.71 -3.80,2.29 -4.02,1.80 -4.24,1.32 -4.33,0.79 -4.43,0.26 -4.40,-0.26 -4.36,-0.80 -4.20,-1.31 -4.04,-1.82 -3.77,-2.28 -3.49,-2.73 -3.11,-3.11 -2.73,-3.49 -2.28,-3.77 -1.82,-4.05 -1.31,-4.20 -0.80,-4.36 -0.26,-4.40 0.26,-4.43 0.79,-4.33 1.32,-4.24 1.80,-4.02 2.29,-3.80 2.71,-3.47 3.14,-3.14 3.14,-3.14 L 3.14,-3.14 Z"></path></g><g transform="translate(454.40728227273655 813.885146975088) rotate(0 26.848010500009877 18.54953452727966)" stroke="none"><path fill="white" d="M 2.32,-3.19 Q 2.32,-3.19 8.39,1.44 14.46,6.07 18.97,9.48 23.47,12.90 30.39,17.73 37.30,22.56 42.46,26.03 47.62,29.51 49.62,30.12 51.61,30.73 51.89,30.97 52.17,31.20 52.39,31.50 52.61,31.80 52.74,32.14 52.88,32.48 52.94,32.85 52.99,33.21 52.95,33.58 52.92,33.94 52.79,34.29 52.67,34.64 52.47,34.95 52.27,35.25 52.00,35.50 51.73,35.75 51.40,35.93 51.08,36.11 50.73,36.21 50.37,36.30 50.00,36.31 49.64,36.32 49.28,36.24 48.92,36.16 48.59,35.99 48.26,35.83 47.93,35.54 47.60,35.24 47.34,34.82 47.09,34.39 46.99,33.91 46.89,33.43 46.94,32.94 47.00,32.45 47.21,32.00 47.42,31.55 47.76,31.19 48.10,30.84 48.54,30.61 48.98,30.38 49.47,30.30 49.95,30.23 50.44,30.31 50.93,30.39 51.36,30.63 51.80,30.86 52.14,31.22 52.47,31.58 52.68,32.03 52.88,32.48 52.93,32.97 52.98,33.46 52.87,33.95 52.76,34.43 52.51,34.85 52.25,35.27 51.87,35.59 51.49,35.91 51.03,36.09 50.57,36.27 50.08,36.29 49.59,36.31 49.11,36.18 48.64,36.04 48.23,35.76 47.82,35.48 47.52,35.09 47.23,34.69 47.07,34.22 46.92,33.75 46.92,33.26 46.93,32.77 47.09,32.30 47.25,31.83 47.55,31.44 47.85,31.05 48.26,30.78 48.67,30.50 49.15,30.37 49.62,30.24 50.12,30.27 50.61,30.30 51.07,30.49 51.53,30.67 51.57,30.70 51.61,30.73 51.89,30.97 52.17,31.20 52.39,31.50 52.61,31.80 52.74,32.14 52.88,32.48 52.94,32.85 52.99,33.21 52.95,33.58 52.92,33.94 52.79,34.29 52.67,34.64 52.47,34.95 52.27,35.25 52.00,35.50 51.73,35.75 51.40,35.93 51.08,36.11 50.73,36.21 50.37,36.30 50.00,36.31 49.64,36.32 49.28,36.24 48.92,36.16 48.59,35.99 48.26,35.83 46.29,35.18 44.32,34.53 39.04,31.14 33.76,27.75 26.67,23.03 19.57,18.30 14.90,15.09 10.23,11.88 3.95,7.53 -2.32,3.19 -2.66,2.86 -3.01,2.54 -3.27,2.14 -3.53,1.74 -3.69,1.29 -3.85,0.84 -3.89,0.37 -3.94,-0.09 -3.87,-0.56 -3.80,-1.03 -3.62,-1.47 -3.44,-1.91 -3.16,-2.30 -2.88,-2.68 -2.52,-2.99 -2.16,-3.30 -1.73,-3.51 -1.30,-3.72 -0.84,-3.82 -0.37,-3.92 0.09,-3.91 0.57,-3.90 1.03,-3.77 1.49,-3.65 1.90,-3.42 2.32,-3.19 2.32,-3.19 L 2.32,-3.19 Z"></path></g><g transform="translate(499.3166816545712 841.2213031205529) rotate(0 0.00004999999998744897 0.00004999999998744897)" stroke="none"><path fill="white" d="M 3.14,-3.14 Q 3.14,-3.14 3.55,-2.55 3.97,-1.97 4.18,-1.28 4.40,-0.59 4.38,0.11 4.36,0.83 4.11,1.51 3.86,2.18 3.41,2.74 2.96,3.30 2.36,3.69 1.75,4.07 1.05,4.25 0.36,4.42 -0.35,4.36 -1.07,4.30 -1.73,4.02 -2.39,3.74 -2.92,3.26 -3.46,2.78 -3.81,2.15 -4.16,1.53 -4.30,0.82 -4.43,0.11 -4.34,-0.59 -4.24,-1.30 -3.92,-1.94 -3.60,-2.59 -3.09,-3.09 -2.59,-3.60 -1.94,-3.92 -1.30,-4.24 -0.59,-4.34 0.12,-4.43 0.82,-4.30 1.53,-4.16 2.15,-3.81 2.78,-3.46 3.26,-2.92 3.74,-2.39 4.02,-1.73 4.31,-1.07 4.36,-0.35 4.42,0.36 4.25,1.05 4.07,1.75 3.69,2.36 3.30,2.96 2.74,3.41 2.18,3.86 1.51,4.11 0.83,4.36 0.11,4.38 -0.60,4.40 -1.28,4.18 -1.97,3.97 -2.55,3.55 -3.14,3.13 -3.14,3.14 -3.14,3.14 -3.47,2.71 -3.80,2.29 -4.02,1.80 -4.24,1.32 -4.33,0.79 -4.43,0.26 -4.40,-0.26 -4.36,-0.80 -4.20,-1.31 -4.04,-1.82 -3.77,-2.28 -3.49,-2.73 -3.11,-3.11 -2.73,-3.49 -2.28,-3.77 -1.82,-4.05 -1.31,-4.20 -0.80,-4.36 -0.26,-4.40 0.26,-4.43 0.79,-4.33 1.32,-4.24 1.80,-4.02 2.29,-3.80 2.71,-3.47 3.14,-3.14 3.14,-3.14 L 3.14,-3.14 Z"></path></g><g stroke-linecap="round" transform="translate(460.59337309634907 273.5605124136031) rotate(0 49.9284892244803 36.947082026115424)"><path d="M15.39 -1.06 L83.34 -0.66 L93.39 6.15 L103.58 18.2 L98.52 59.41 L91.32 71.96 L82.53 75.76 L22.38 72.08 L8.27 65.87 L-0.57 57.91 L-1.29 10.37 L5.39 5.1 L16.98 1.11" stroke="none" stroke-width="0" fill="#a6d64d"></path><path d="M18.47 0 M18.47 0 C39.08 -2.05, 49.93 3.37, 81.38 0 M18.47 0 C37.12 0.43, 56.24 0.71, 81.38 0 M81.38 0 C95.32 1.46, 100.22 10, 99.86 18.47 M81.38 0 C94.68 -0.81, 103.2 10.46, 99.86 18.47 M99.86 18.47 C96.93 28.77, 96.27 35.66, 99.86 55.42 M99.86 18.47 C101.14 27.68, 100.77 36.59, 99.86 55.42 M99.86 55.42 C98.71 70.45, 94.95 75.88, 81.38 73.89 M99.86 55.42 C96.12 67.31, 97.75 74.33, 81.38 73.89 M81.38 73.89 C59.44 73.79, 35.19 75.18, 18.47 73.89 M81.38 73.89 C58.95 74.64, 36.71 73.57, 18.47 73.89 M18.47 73.89 C9.94 73.88, -0.58 66.76, 0 55.42 M18.47 73.89 C5.94 76.78, 0.4 71.33, 0 55.42 M0 55.42 C-1.33 39.38, -1.11 30.6, 0 18.47 M0 55.42 C0.08 40.63, 0.7 25.52, 0 18.47 M0 18.47 C-0.02 9.44, 5.88 1.38, 18.47 0 M0 18.47 C4.33 2.88, 10.31 -1.88, 18.47 0" stroke="white" stroke-width="1" fill="none"></path></g><g stroke-linecap="round" transform="translate(446.7752413882165 263.8623593796128) rotate(0 49.9284892244803 36.947082026115424)"><path d="M15.39 -1.06 L83.34 -0.66 L93.39 6.15 L103.58 18.2 L98.52 59.41 L91.32 71.96 L82.53 75.76 L22.38 72.08 L8.27 65.87 L-0.57 57.91 L-1.29 10.37 L5.39 5.1 L16.98 1.11" stroke="none" stroke-width="0" fill="#a6d64d"></path><path d="M18.47 0 M18.47 0 C39.08 -2.05, 49.93 3.37, 81.38 0 M18.47 0 C37.12 0.43, 56.24 0.71, 81.38 0 M81.38 0 C95.32 1.46, 100.22 10, 99.86 18.47 M81.38 0 C94.68 -0.81, 103.2 10.46, 99.86 18.47 M99.86 18.47 C96.93 28.77, 96.27 35.66, 99.86 55.42 M99.86 18.47 C101.14 27.68, 100.77 36.59, 99.86 55.42 M99.86 55.42 C98.71 70.45, 94.95 75.88, 81.38 73.89 M99.86 55.42 C96.12 67.31, 97.75 74.33, 81.38 73.89 M81.38 73.89 C59.44 73.79, 35.19 75.18, 18.47 73.89 M81.38 73.89 C58.95 74.64, 36.71 73.57, 18.47 73.89 M18.47 73.89 C9.94 73.88, -0.58 66.76, 0 55.42 M18.47 73.89 C5.94 76.78, 0.4 71.33, 0 55.42 M0 55.42 C-1.33 39.38, -1.11 30.6, 0 18.47 M0 55.42 C0.08 40.63, 0.7 25.52, 0 18.47 M0 18.47 C-0.02 9.44, 5.88 1.38, 18.47 0 M0 18.47 C4.33 2.88, 10.31 -1.88, 18.47 0" stroke="white" stroke-width="1" fill="none"></path></g><g transform="translate(452.5690252222266 280.838045715936) rotate(0 44.13470539047006 19.971395689792132)"><text x="44.13470539047006" y="0" font-family="Virgil, Segoe UI Emoji" font-size="15.977116551833701px" fill="white" text-anchor="middle" style="white-space: pre;" direction="ltr" dominant-baseline="text-before-edge">L7 Policy : </text><text x="44.13470539047006" y="19.971395689792125" font-family="Virgil, Segoe UI Emoji" font-size="15.977116551833701px" fill="white" text-anchor="middle" style="white-space: pre;" direction="ltr" dominant-baseline="text-before-edge">action</text></g><g stroke-linecap="round"><g transform="translate(590.0000000000001 309.9520388841629) rotate(0 -20 0)"><path d="M0 0 C-6.67 0, -33.33 0, -40 0 M0 0 C-6.67 0, -33.33 0, -40 0" stroke="white" stroke-width="2" fill="none"></path></g></g><mask></mask><g stroke-linecap="round"><g transform="translate(590.1606800373835 356.52297619488365) rotate(0 -20.080340018691686 -13.285468655360376)"><path d="M0 0 C-6.69 -4.43, -33.47 -22.14, -40.16 -26.57 M0 0 C-6.69 -4.43, -33.47 -22.14, -40.16 -26.57" stroke="white" stroke-width="2" fill="none"></path></g></g><mask></mask><g stroke-linecap="round"><g transform="translate(590.0000000000001 269.9520388841629) rotate(0 -20 12.634404797840375)"><path d="M0 0 C-6.67 4.21, -33.33 21.06, -40 25.27 M0 0 C-6.67 4.21, -33.33 21.06, -40 25.27" stroke="white" stroke-width="2" fill="none"></path></g></g><mask></mask><g stroke-linecap="round" transform="translate(601.1942402404317 837.6327666608931) rotate(0 37.80849603108629 23.161837220674215)"><path d="M3.08 2.68 C3.08 2.68, 3.08 2.68, 3.08 2.68 M3.08 2.68 C3.08 2.68, 3.08 2.68, 3.08 2.68 M1.51 10.59 C4.5 8.18, 8.29 3.38, 10.04 0.78 M1.51 10.59 C4.4 7.22, 7.39 3.54, 10.04 0.78 M1.9 16.23 C6.07 11.56, 9.6 5.4, 14.37 1.89 M1.9 16.23 C4.07 13.07, 8.08 8.46, 14.37 1.89 M1.64 22.63 C7.87 17.86, 14.11 8.7, 19.36 2.25 M1.64 22.63 C6.03 17.96, 8.79 14.51, 19.36 2.25 M2.04 28.27 C9.65 21.3, 17.19 11.79, 25 1.86 M2.04 28.27 C9.63 20.14, 17.29 11.27, 25 1.86 M1.78 34.67 C9.3 24.86, 15.03 18.71, 29.99 2.22 M1.78 34.67 C7.69 27.91, 14.65 18.87, 29.99 2.22 M2.83 39.56 C11.51 27.43, 19.75 18.11, 35.63 1.82 M2.83 39.56 C13.62 26.02, 24.09 13.86, 35.63 1.82 M5.19 42.94 C17.01 26.27, 32.79 11.61, 40.62 2.18 M5.19 42.94 C17.11 29.62, 30.89 14.85, 40.62 2.18 M6.9 47.07 C21.46 28.99, 35.07 14.27, 45.6 2.54 M6.9 47.07 C22.31 28.7, 37.5 11.12, 45.6 2.54 M12.54 46.67 C27.26 29.81, 45.4 10.4, 51.25 2.15 M12.54 46.67 C20.85 37.07, 28.99 27.59, 51.25 2.15 M17.53 47.04 C27.32 38.27, 34.67 26.73, 56.23 2.51 M17.53 47.04 C27.72 34.55, 39.59 23.03, 56.23 2.51 M23.17 46.64 C32.2 37.44, 42.03 24.4, 61.88 2.11 M23.17 46.64 C34.23 33.89, 44.17 22.33, 61.88 2.11 M28.16 47 C36.64 37.32, 43.22 29.74, 66.86 2.47 M28.16 47 C36.93 37.44, 44.86 28.55, 66.86 2.47 M33.8 46.61 C46.38 34.53, 58.66 18.77, 71.85 2.83 M33.8 46.61 C48.1 29.48, 63.46 13.41, 71.85 2.83 M38.79 46.97 C53.76 30.42, 64.67 15.75, 74.21 6.21 M38.79 46.97 C52.23 30, 67.36 13.7, 74.21 6.21 M43.77 47.33 C52.48 37.37, 57.61 32.27, 76.58 9.59 M43.77 47.33 C55.57 33.88, 65.58 22.6, 76.58 9.59 M49.42 46.93 C56.92 39.42, 64.01 30.04, 76.31 15.99 M49.42 46.93 C57.62 37.26, 66.82 26.89, 76.31 15.99 M54.4 47.29 C62.01 39.99, 67.39 32.05, 76.71 21.63 M54.4 47.29 C60.32 38.89, 68.52 32.52, 76.71 21.63 M60.05 46.9 C66.72 41.52, 70.55 34.6, 76.45 28.03 M60.05 46.9 C64.25 41.7, 66.83 38.44, 76.45 28.03 M65.03 47.26 C66.92 46.26, 70.17 40.99, 75.53 35.18 M65.03 47.26 C66.96 44.07, 70.39 41.02, 75.53 35.18" stroke="white" stroke-width="0.5" fill="none"></path><path d="M11.58 0 M11.58 0 C30.36 0.71, 46.57 1.27, 64.04 0 M11.58 0 C24.07 0, 37.7 -0.02, 64.04 0 M64.04 0 C73.71 -0.96, 74.89 2.32, 75.62 11.58 M64.04 0 C72.71 -0.48, 74.53 3.71, 75.62 11.58 M75.62 11.58 C75.11 20.87, 76.2 28.51, 75.62 34.74 M75.62 11.58 C76.65 19.06, 75.71 25.78, 75.62 34.74 M75.62 34.74 C76.83 43.91, 70.64 46.04, 64.04 46.32 M75.62 34.74 C75.05 40.8, 70.92 44.72, 64.04 46.32 M64.04 46.32 C41.41 46.04, 23.64 45.57, 11.58 46.32 M64.04 46.32 C45.41 45.19, 29.13 45.52, 11.58 46.32 M11.58 46.32 C4.42 46.61, -0.88 43.73, 0 34.74 M11.58 46.32 C4.09 48.42, 1.45 43.86, 0 34.74 M0 34.74 C-1.39 30.14, -1.18 26.27, 0 11.58 M0 34.74 C0.51 30.35, 0.58 24.85, 0 11.58 M0 11.58 C1.28 4.9, 2.17 1.22, 11.58 0 M0 11.58 C1.64 3.79, 4.96 0.59, 11.58 0" stroke="#000e9c" stroke-width="1" fill="none"></path></g><g stroke-linecap="round" transform="translate(595.6175597369858 829.4336241202564) rotate(0 37.80849603108629 23.161837220674215)"><path d="M11.09 0.32 L63.01 -1.89 L71.18 0.86 L75.09 10.02 L73.84 34.03 L74.15 41.77 L70.78 44.1 L65.01 46.86 L11.78 46.39 L6.1 46.02 L-0.36 38.72 L-1.44 8.21 L2.02 3.42 L10.37 0.15" stroke="none" stroke-width="0" fill="white"></path><path d="M11.58 0 M11.58 0 C29.33 0.41, 46.49 -0.92, 64.04 0 M11.58 0 C23.68 0.61, 37.65 -0.5, 64.04 0 M64.04 0 C72.13 0.74, 75.31 4.52, 75.62 11.58 M64.04 0 C73.71 1.44, 74.5 1.83, 75.62 11.58 M75.62 11.58 C75.2 19.69, 76.93 29.34, 75.62 34.74 M75.62 11.58 C76.45 16.17, 76.1 21.58, 75.62 34.74 M75.62 34.74 C75.85 41.06, 71.39 47.69, 64.04 46.32 M75.62 34.74 C74.86 44.29, 70.72 47.23, 64.04 46.32 M64.04 46.32 C46.25 46.59, 29.12 47.83, 11.58 46.32 M64.04 46.32 C52.51 45.65, 40.65 46.79, 11.58 46.32 M11.58 46.32 C5.16 45.77, -1.22 40.86, 0 34.74 M11.58 46.32 C4.04 47.02, 2.09 43.41, 0 34.74 M0 34.74 C-1.06 28.6, 1.3 19.47, 0 11.58 M0 34.74 C-0.17 29.76, -0.42 23.09, 0 11.58 M0 11.58 C-1.18 4.96, 5.67 -0.19, 11.58 0 M0 11.58 C1.61 4.34, 1.82 0.4, 11.58 0" stroke="#000e9c" stroke-width="1" fill="none"></path></g><g stroke-linecap="round" transform="translate(590.049273464114 819.4009183399694) rotate(0 37.80849603108629 23.161837220674215)"><path d="M11.09 0.32 L63.01 -1.89 L71.18 0.86 L75.09 10.02 L73.84 34.03 L74.15 41.77 L70.78 44.1 L65.01 46.86 L11.78 46.39 L6.1 46.02 L-0.36 38.72 L-1.44 8.21 L2.02 3.42 L10.37 0.15" stroke="none" stroke-width="0" fill="white"></path><path d="M11.58 0 M11.58 0 C29.33 0.41, 46.49 -0.92, 64.04 0 M11.58 0 C23.68 0.61, 37.65 -0.5, 64.04 0 M64.04 0 C72.13 0.74, 75.31 4.52, 75.62 11.58 M64.04 0 C73.71 1.44, 74.5 1.83, 75.62 11.58 M75.62 11.58 C75.2 19.69, 76.93 29.34, 75.62 34.74 M75.62 11.58 C76.45 16.17, 76.1 21.58, 75.62 34.74 M75.62 34.74 C75.85 41.06, 71.39 47.69, 64.04 46.32 M75.62 34.74 C74.86 44.29, 70.72 47.23, 64.04 46.32 M64.04 46.32 C46.25 46.59, 29.12 47.83, 11.58 46.32 M64.04 46.32 C52.51 45.65, 40.65 46.79, 11.58 46.32 M11.58 46.32 C5.16 45.77, -1.22 40.86, 0 34.74 M11.58 46.32 C4.04 47.02, 2.09 43.41, 0 34.74 M0 34.74 C-1.06 28.6, 1.3 19.47, 0 11.58 M0 34.74 C-0.17 29.76, -0.42 23.09, 0 11.58 M0 11.58 C-1.18 4.96, 5.67 -0.19, 11.58 0 M0 11.58 C1.61 4.34, 1.82 0.4, 11.58 0" stroke="#000e9c" stroke-width="1" fill="none"></path></g><g stroke-linecap="round" transform="translate(469.049273464114 799.4009183399694) rotate(0 180.5 90)"><path d="M0 0 C107 0, 214.01 0, 361 0 M0 0 C74.83 0, 149.66 0, 361 0 M361 0 C361 64.24, 361 128.48, 361 180 M361 0 C361 65.11, 361 130.22, 361 180 M361 180 C253.19 180, 145.39 180, 0 180 M361 180 C226.42 180, 91.83 180, 0 180 M0 180 C0 114.6, 0 49.2, 0 0 M0 180 C0 135.4, 0 90.8, 0 0" stroke="#000e9c" stroke-width="2" fill="none"></path></g><g transform="translate(617.2576055258816 949.4009183399694) rotate(0 32.29166793823242 12.5)"><text x="32.29166793823242" y="0" font-family="Virgil, Segoe UI Emoji" font-size="20px" fill="#000e9c" text-anchor="middle" style="white-space: pre;" direction="ltr" dominant-baseline="text-before-edge">Legend</text></g><g transform="translate(490.049273464114 899.4009183399694) rotate(0 156.73333740234375 20)"><text x="0" y="0" font-family="Virgil, Segoe UI Emoji" font-size="16px" fill="#000e9c" text-anchor="start" style="white-space: pre;" direction="ltr" dominant-baseline="text-before-edge">components or group of components </text><text x="0" y="20" font-family="Virgil, Segoe UI Emoji" font-size="16px" fill="#000e9c" text-anchor="start" style="white-space: pre;" direction="ltr" dominant-baseline="text-before-edge">that can be instantiated multiple times</text></g></svg>