<svg version="1.1" xmlns="http://www.w3.org/2000/svg" viewBox="0 0 899.520360874382 1092.2528381347656" width="899.520360874382" height="1092.2528381347656">
  <!-- svg-source:excalidraw -->
  
  <defs>
    <style class="style-fonts">
      @font-face {
        font-family: "Virgil";
        src: url("https://excalidraw.com/Virgil.woff2");
      }
      @font-face {
        font-family: "Cascadia";
        src: url("https://excalidraw.com/Cascadia.woff2");
      }
    </style>
    
  </defs>
  <rect x="0" y="0" width="899.520360874382" height="1092.2528381347656" fill="#ffffff"></rect><g stroke-linecap="round" transform="translate(321.74034118652344 95.24325561523438) rotate(0 99.40402221679688 27.901123046875)"><path d="M13.95 0 C77.1 0, 140.24 0, 184.86 0 C194.16 0, 198.81 4.65, 198.81 13.95 C198.81 21.21, 198.81 28.46, 198.81 41.85 C198.81 51.15, 194.16 55.8, 184.86 55.8 C127.5 55.8, 70.14 55.8, 13.95 55.8 C4.65 55.8, 0 51.15, 0 41.85 C0 34.81, 0 27.77, 0 13.95 C0 4.65, 4.65 0, 13.95 0" stroke="none" stroke-width="0" fill="#f3f0ff"></path><path d="M13.95 0 C67.52 0, 121.09 0, 184.86 0 M13.95 0 C74.06 0, 134.17 0, 184.86 0 M184.86 0 C194.16 0, 198.81 4.65, 198.81 13.95 M184.86 0 C194.16 0, 198.81 4.65, 198.81 13.95 M198.81 13.95 C198.81 20, 198.81 26.06, 198.81 41.85 M198.81 13.95 C198.81 23.44, 198.81 32.94, 198.81 41.85 M198.81 41.85 C198.81 51.15, 194.16 55.8, 184.86 55.8 M198.81 41.85 C198.81 51.15, 194.16 55.8, 184.86 55.8 M184.86 55.8 C138.15 55.8, 91.45 55.8, 13.95 55.8 M184.86 55.8 C121.11 55.8, 57.37 55.8, 13.95 55.8 M13.95 55.8 C4.65 55.8, 0 51.15, 0 41.85 M13.95 55.8 C4.65 55.8, 0 51.15, 0 41.85 M0 41.85 C0 33.22, 0 24.58, 0 13.95 M0 41.85 C0 33.52, 0 25.2, 0 13.95 M0 13.95 C0 4.65, 4.65 0, 13.95 0 M0 13.95 C0 4.65, 4.65 0, 13.95 0" stroke="#6741d9" stroke-width="1" fill="none"></path></g><g transform="translate(355.5193634033203 106.34437866210936) rotate(0 65.625 16.8)"><text x="65.625" y="0" font-family="Cascadia, Segoe UI Emoji" font-size="28px" fill="#1e1e1e" text-anchor="middle" style="white-space: pre;" direction="ltr" dominant-baseline="text-before-edge">STARTING</text></g><g stroke-linecap="round" transform="translate(412.20826721191406 10) rotate(0 6.954742431640625 7.154998779296875)"><path d="M13.91 7.15 C13.91 7.57, 13.87 7.99, 13.8 8.4 C13.73 8.81, 13.63 9.21, 13.49 9.6 C13.35 9.99, 13.18 10.37, 12.98 10.73 C12.78 11.09, 12.54 11.44, 12.28 11.75 C12.02 12.07, 11.73 12.37, 11.43 12.64 C11.12 12.9, 10.78 13.14, 10.43 13.35 C10.08 13.56, 9.71 13.74, 9.33 13.88 C8.96 14.02, 8.56 14.13, 8.16 14.2 C7.77 14.27, 7.36 14.31, 6.95 14.31 C6.55 14.31, 6.14 14.27, 5.75 14.2 C5.35 14.13, 4.95 14.02, 4.58 13.88 C4.2 13.74, 3.83 13.56, 3.48 13.35 C3.13 13.14, 2.79 12.9, 2.48 12.64 C2.18 12.37, 1.89 12.07, 1.63 11.75 C1.37 11.44, 1.13 11.09, 0.93 10.73 C0.73 10.37, 0.56 9.99, 0.42 9.6 C0.28 9.21, 0.18 8.81, 0.11 8.4 C0.04 7.99, 0 7.57, 0 7.15 C0 6.74, 0.04 6.32, 0.11 5.91 C0.18 5.5, 0.28 5.1, 0.42 4.71 C0.56 4.32, 0.73 3.94, 0.93 3.58 C1.13 3.22, 1.37 2.87, 1.63 2.56 C1.89 2.24, 2.18 1.94, 2.48 1.67 C2.79 1.41, 3.13 1.17, 3.48 0.96 C3.83 0.75, 4.2 0.57, 4.58 0.43 C4.95 0.29, 5.35 0.18, 5.75 0.11 C6.14 0.04, 6.55 0, 6.95 0 C7.36 0, 7.77 0.04, 8.16 0.11 C8.56 0.18, 8.96 0.29, 9.33 0.43 C9.71 0.57, 10.08 0.75, 10.43 0.96 C10.78 1.17, 11.12 1.41, 11.43 1.67 C11.73 1.94, 12.02 2.24, 12.28 2.56 C12.54 2.87, 12.78 3.22, 12.98 3.58 C13.18 3.94, 13.35 4.32, 13.49 4.71 C13.63 5.1, 13.73 5.5, 13.8 5.91 C13.87 6.32, 13.89 6.95, 13.91 7.15 C13.93 7.36, 13.93 6.95, 13.91 7.15" stroke="none" stroke-width="0" fill="#1e1e1e"></path><path d="M13.91 7.15 C13.91 7.57, 13.87 7.99, 13.8 8.4 C13.73 8.81, 13.63 9.21, 13.49 9.6 C13.35 9.99, 13.18 10.37, 12.98 10.73 C12.78 11.09, 12.54 11.44, 12.28 11.75 C12.02 12.07, 11.73 12.37, 11.43 12.64 C11.12 12.9, 10.78 13.14, 10.43 13.35 C10.08 13.56, 9.71 13.74, 9.33 13.88 C8.96 14.02, 8.56 14.13, 8.16 14.2 C7.77 14.27, 7.36 14.31, 6.95 14.31 C6.55 14.31, 6.14 14.27, 5.75 14.2 C5.35 14.13, 4.95 14.02, 4.58 13.88 C4.2 13.74, 3.83 13.56, 3.48 13.35 C3.13 13.14, 2.79 12.9, 2.48 12.64 C2.18 12.37, 1.89 12.07, 1.63 11.75 C1.37 11.44, 1.13 11.09, 0.93 10.73 C0.73 10.37, 0.56 9.99, 0.42 9.6 C0.28 9.21, 0.18 8.81, 0.11 8.4 C0.04 7.99, 0 7.57, 0 7.15 C0 6.74, 0.04 6.32, 0.11 5.91 C0.18 5.5, 0.28 5.1, 0.42 4.71 C0.56 4.32, 0.73 3.94, 0.93 3.58 C1.13 3.22, 1.37 2.87, 1.63 2.56 C1.89 2.24, 2.18 1.94, 2.48 1.67 C2.79 1.41, 3.13 1.17, 3.48 0.96 C3.83 0.75, 4.2 0.57, 4.58 0.43 C4.95 0.29, 5.35 0.18, 5.75 0.11 C6.14 0.04, 6.55 0, 6.95 0 C7.36 0, 7.77 0.04, 8.16 0.11 C8.56 0.18, 8.96 0.29, 9.33 0.43 C9.71 0.57, 10.08 0.75, 10.43 0.96 C10.78 1.17, 11.12 1.41, 11.43 1.67 C11.73 1.94, 12.02 2.24, 12.28 2.56 C12.54 2.87, 12.78 3.22, 12.98 3.58 C13.18 3.94, 13.35 4.32, 13.49 4.71 C13.63 5.1, 13.73 5.5, 13.8 5.91 C13.87 6.32, 13.89 6.95, 13.91 7.15 C13.93 7.36, 13.93 6.95, 13.91 7.15" stroke="#1e1e1e" stroke-width="1" fill="none"></path></g><g stroke-linecap="round" transform="translate(237.40135955810547 238.32647705078125) rotate(0 99.40402221679688 27.901123046875)"><path d="M13.95 0 C76.05 0, 138.15 0, 184.86 0 C194.16 0, 198.81 4.65, 198.81 13.95 C198.81 22.8, 198.81 31.66, 198.81 41.85 C198.81 51.15, 194.16 55.8, 184.86 55.8 C149.63 55.8, 114.39 55.8, 13.95 55.8 C4.65 55.8, 0 51.15, 0 41.85 C0 33.47, 0 25.09, 0 13.95 C0 4.65, 4.65 0, 13.95 0" stroke="none" stroke-width="0" fill="#f3f0ff"></path><path d="M13.95 0 C58.13 0, 102.3 0, 184.86 0 M13.95 0 C78.41 0, 142.86 0, 184.86 0 M184.86 0 C194.16 0, 198.81 4.65, 198.81 13.95 M184.86 0 C194.16 0, 198.81 4.65, 198.81 13.95 M198.81 13.95 C198.81 23.16, 198.81 32.37, 198.81 41.85 M198.81 13.95 C198.81 20.03, 198.81 26.11, 198.81 41.85 M198.81 41.85 C198.81 51.15, 194.16 55.8, 184.86 55.8 M198.81 41.85 C198.81 51.15, 194.16 55.8, 184.86 55.8 M184.86 55.8 C126.4 55.8, 67.93 55.8, 13.95 55.8 M184.86 55.8 C129.59 55.8, 74.32 55.8, 13.95 55.8 M13.95 55.8 C4.65 55.8, 0 51.15, 0 41.85 M13.95 55.8 C4.65 55.8, 0 51.15, 0 41.85 M0 41.85 C0 35.25, 0 28.64, 0 13.95 M0 41.85 C0 34.24, 0 26.63, 0 13.95 M0 13.95 C0 4.65, 4.65 0, 13.95 0 M0 13.95 C0 4.65, 4.65 0, 13.95 0" stroke="#6741d9" stroke-width="1" fill="none"></path></g><g transform="translate(279.38350677490234 249.42760009765624) rotate(0 57.421875 16.799999999999997)"><text x="57.421875" y="0" font-family="Cascadia, Segoe UI Emoji" font-size="28px" fill="#1e1e1e" text-anchor="middle" style="white-space: pre;" direction="ltr" dominant-baseline="text-before-edge">RUNNING</text></g><g stroke-linecap="round" transform="translate(320.0651168823242 511.9135437011719) rotate(0 99.40402221679688 27.901123046875)"><path d="M13.95 0 C71.48 0, 129.02 0, 184.86 0 C194.16 0, 198.81 4.65, 198.81 13.95 C198.81 20.22, 198.81 26.5, 198.81 41.85 C198.81 51.15, 194.16 55.8, 184.86 55.8 C131.7 55.8, 78.54 55.8, 13.95 55.8 C4.65 55.8, 0 51.15, 0 41.85 C0 34.79, 0 27.73, 0 13.95 C0 4.65, 4.65 0, 13.95 0" stroke="none" stroke-width="0" fill="#f3f0ff"></path><path d="M13.95 0 C68.09 0, 122.23 0, 184.86 0 M13.95 0 C55.49 0, 97.04 0, 184.86 0 M184.86 0 C194.16 0, 198.81 4.65, 198.81 13.95 M184.86 0 C194.16 0, 198.81 4.65, 198.81 13.95 M198.81 13.95 C198.81 22.26, 198.81 30.56, 198.81 41.85 M198.81 13.95 C198.81 23.97, 198.81 34, 198.81 41.85 M198.81 41.85 C198.81 51.15, 194.16 55.8, 184.86 55.8 M198.81 41.85 C198.81 51.15, 194.16 55.8, 184.86 55.8 M184.86 55.8 C146.68 55.8, 108.51 55.8, 13.95 55.8 M184.86 55.8 C146.21 55.8, 107.56 55.8, 13.95 55.8 M13.95 55.8 C4.65 55.8, 0 51.15, 0 41.85 M13.95 55.8 C4.65 55.8, 0 51.15, 0 41.85 M0 41.85 C0 33.88, 0 25.91, 0 13.95 M0 41.85 C0 32.27, 0 22.69, 0 13.95 M0 13.95 C0 4.65, 4.65 0, 13.95 0 M0 13.95 C0 4.65, 4.65 0, 13.95 0" stroke="#6741d9" stroke-width="1" fill="none"></path></g><g transform="translate(353.8441390991211 523.0146667480469) rotate(0 65.625 16.80000000000001)"><text x="65.625" y="0" font-family="Cascadia, Segoe UI Emoji" font-size="28px" fill="#1e1e1e" text-anchor="middle" style="white-space: pre;" direction="ltr" dominant-baseline="text-before-edge">STOPPING</text></g><g stroke-linecap="round" transform="translate(301.5395202636719 673.1828765869141) rotate(0 99.40402221679688 27.901123046875)"><path d="M13.95 0 C62.27 0, 110.59 0, 184.86 0 C194.16 0, 198.81 4.65, 198.81 13.95 C198.81 21.33, 198.81 28.71, 198.81 41.85 C198.81 51.15, 194.16 55.8, 184.86 55.8 C149.55 55.8, 114.24 55.8, 13.95 55.8 C4.65 55.8, 0 51.15, 0 41.85 C0 32.5, 0 23.16, 0 13.95 C0 4.65, 4.65 0, 13.95 0" stroke="none" stroke-width="0" fill="#f3f0ff"></path><path d="M13.95 0 C81.82 0, 149.68 0, 184.86 0 M13.95 0 C56.85 0, 99.75 0, 184.86 0 M184.86 0 C194.16 0, 198.81 4.65, 198.81 13.95 M184.86 0 C194.16 0, 198.81 4.65, 198.81 13.95 M198.81 13.95 C198.81 24.18, 198.81 34.41, 198.81 41.85 M198.81 13.95 C198.81 20.09, 198.81 26.24, 198.81 41.85 M198.81 41.85 C198.81 51.15, 194.16 55.8, 184.86 55.8 M198.81 41.85 C198.81 51.15, 194.16 55.8, 184.86 55.8 M184.86 55.8 C135.51 55.8, 86.17 55.8, 13.95 55.8 M184.86 55.8 C124.9 55.8, 64.94 55.8, 13.95 55.8 M13.95 55.8 C4.65 55.8, 0 51.15, 0 41.85 M13.95 55.8 C4.65 55.8, 0 51.15, 0 41.85 M0 41.85 C0 33.8, 0 25.75, 0 13.95 M0 41.85 C0 35.12, 0 28.39, 0 13.95 M0 13.95 C0 4.65, 4.65 0, 13.95 0 M0 13.95 C0 4.65, 4.65 0, 13.95 0" stroke="#6741d9" stroke-width="1" fill="none"></path></g><g transform="translate(343.52166748046875 684.2839996337891) rotate(0 57.421875 16.80000000000001)"><text x="57.421875" y="0" font-family="Cascadia, Segoe UI Emoji" font-size="28px" fill="#1e1e1e" text-anchor="middle" style="white-space: pre;" direction="ltr" dominant-baseline="text-before-edge">STOPPED</text></g><g stroke-linecap="round" transform="translate(374.6482467651367 372.9275665283203) rotate(0 99.40402221679688 27.901123046875)"><path d="M13.95 0 C59.01 0, 104.06 0, 184.86 0 C194.16 0, 198.81 4.65, 198.81 13.95 C198.81 21.44, 198.81 28.92, 198.81 41.85 C198.81 51.15, 194.16 55.8, 184.86 55.8 C128.58 55.8, 72.31 55.8, 13.95 55.8 C4.65 55.8, 0 51.15, 0 41.85 C0 35.73, 0 29.61, 0 13.95 C0 4.65, 4.65 0, 13.95 0" stroke="none" stroke-width="0" fill="#f3f0ff"></path><path d="M13.95 0 C62.81 0, 111.66 0, 184.86 0 M13.95 0 C51.47 0, 88.99 0, 184.86 0 M184.86 0 C194.16 0, 198.81 4.65, 198.81 13.95 M184.86 0 C194.16 0, 198.81 4.65, 198.81 13.95 M198.81 13.95 C198.81 20.42, 198.81 26.89, 198.81 41.85 M198.81 13.95 C198.81 24.46, 198.81 34.96, 198.81 41.85 M198.81 41.85 C198.81 51.15, 194.16 55.8, 184.86 55.8 M198.81 41.85 C198.81 51.15, 194.16 55.8, 184.86 55.8 M184.86 55.8 C120.36 55.8, 55.87 55.8, 13.95 55.8 M184.86 55.8 C150.43 55.8, 116 55.8, 13.95 55.8 M13.95 55.8 C4.65 55.8, 0 51.15, 0 41.85 M13.95 55.8 C4.65 55.8, 0 51.15, 0 41.85 M0 41.85 C0 32.32, 0 22.78, 0 13.95 M0 41.85 C0 34.45, 0 27.05, 0 13.95 M0 13.95 C0 4.65, 4.65 0, 13.95 0 M0 13.95 C0 4.65, 4.65 0, 13.95 0" stroke="#6741d9" stroke-width="1" fill="none"></path></g><g transform="translate(416.6303939819336 384.0286895751953) rotate(0 57.421875 16.80000000000001)"><text x="57.421875" y="0" font-family="Cascadia, Segoe UI Emoji" font-size="28px" fill="#1e1e1e" text-anchor="middle" style="white-space: pre;" direction="ltr" dominant-baseline="text-before-edge">TIMEOUT</text></g><g stroke-linecap="round" transform="translate(506.1962127685547 855.5532989501953) rotate(0 99.40402221679688 27.901123046875)"><path d="M13.95 0 C78.79 0, 143.62 0, 184.86 0 C194.16 0, 198.81 4.65, 198.81 13.95 C198.81 19.58, 198.81 25.21, 198.81 41.85 C198.81 51.15, 194.16 55.8, 184.86 55.8 C118.35 55.8, 51.84 55.8, 13.95 55.8 C4.65 55.8, 0 51.15, 0 41.85 C0 34.09, 0 26.33, 0 13.95 C0 4.65, 4.65 0, 13.95 0" stroke="none" stroke-width="0" fill="#f3f0ff"></path><path d="M13.95 0 C76.25 0, 138.56 0, 184.86 0 M13.95 0 C77.3 0, 140.64 0, 184.86 0 M184.86 0 C194.16 0, 198.81 4.65, 198.81 13.95 M184.86 0 C194.16 0, 198.81 4.65, 198.81 13.95 M198.81 13.95 C198.81 22.41, 198.81 30.87, 198.81 41.85 M198.81 13.95 C198.81 23.3, 198.81 32.65, 198.81 41.85 M198.81 41.85 C198.81 51.15, 194.16 55.8, 184.86 55.8 M198.81 41.85 C198.81 51.15, 194.16 55.8, 184.86 55.8 M184.86 55.8 C118.62 55.8, 52.38 55.8, 13.95 55.8 M184.86 55.8 C141.04 55.8, 97.22 55.8, 13.95 55.8 M13.95 55.8 C4.65 55.8, 0 51.15, 0 41.85 M13.95 55.8 C4.65 55.8, 0 51.15, 0 41.85 M0 41.85 C0 35.84, 0 29.84, 0 13.95 M0 41.85 C0 34.75, 0 27.65, 0 13.95 M0 13.95 C0 4.65, 4.65 0, 13.95 0 M0 13.95 C0 4.65, 4.65 0, 13.95 0" stroke="#6741d9" stroke-width="1" fill="none"></path></g><g transform="translate(539.9752349853516 866.6544219970704) rotate(0 65.625 16.80000000000001)"><text x="65.625" y="0" font-family="Cascadia, Segoe UI Emoji" font-size="28px" fill="#1e1e1e" text-anchor="middle" style="white-space: pre;" direction="ltr" dominant-baseline="text-before-edge">DELETING</text></g><g stroke-linecap="round"><g transform="translate(410.8738250732422 164.03517150878906) rotate(0 -25.00347137451172 30.783939361572266)"><path d="M0 0 C-5.67 2.88, -25.7 7.02, -34.03 17.28 C-42.36 27.54, -47.34 54.19, -50.01 61.57 M0 0 C-5.67 2.88, -25.7 7.02, -34.03 17.28 C-42.36 27.54, -47.34 54.19, -50.01 61.57" stroke="#1e1e1e" stroke-width="1" fill="none"></path></g><g transform="translate(410.8738250732422 164.03517150878906) rotate(0 -25.00347137451172 30.783939361572266)"><path d="M-50.01 61.57 L-52.44 46.77 L-40.23 50.19 L-50.01 61.57" stroke="none" stroke-width="0" fill="#1e1e1e" fill-rule="evenodd"></path><path d="M-50.01 61.57 C-50.81 56.71, -51.61 51.85, -52.44 46.77 M-50.01 61.57 C-50.76 57.02, -51.5 52.47, -52.44 46.77 M-52.44 46.77 C-47.59 48.13, -42.73 49.49, -40.23 50.19 M-52.44 46.77 C-49.86 47.49, -47.28 48.21, -40.23 50.19 M-40.23 50.19 C-43.15 53.59, -46.07 56.98, -50.01 61.57 M-40.23 50.19 C-42.65 53.01, -45.07 55.82, -50.01 61.57 M-50.01 61.57 C-50.01 61.57, -50.01 61.57, -50.01 61.57 M-50.01 61.57 C-50.01 61.57, -50.01 61.57, -50.01 61.57" stroke="#1e1e1e" stroke-width="1" fill="none"></path></g></g><mask></mask><g stroke-linecap="round"><g transform="translate(370.14483642578125 306.319278717041) rotate(0 41.81130997488137 28.644084930419922)"><path d="M0 0 C8.43 3.08, 36.66 8.92, 50.6 18.47 C64.53 28.02, 78.12 50.82, 83.62 57.29 M0 0 C8.43 3.08, 36.66 8.92, 50.6 18.47 C64.53 28.02, 78.12 50.82, 83.62 57.29" stroke="#1e1e1e" stroke-width="1" fill="none"></path></g><g transform="translate(370.14483642578125 306.319278717041) rotate(0 41.81130997488137 28.644084930419922)"><path d="M83.62 57.29 L70.47 50.08 L80.69 42.58 L83.62 57.29" stroke="none" stroke-width="0" fill="#1e1e1e" fill-rule="evenodd"></path><path d="M83.62 57.29 C78.74 54.61, 73.85 51.94, 70.47 50.08 M83.62 57.29 C79.96 55.28, 76.3 53.28, 70.47 50.08 M70.47 50.08 C73.71 47.7, 76.95 45.33, 80.69 42.58 M70.47 50.08 C74.37 47.22, 78.26 44.36, 80.69 42.58 M80.69 42.58 C81.63 47.31, 82.57 52.03, 83.62 57.29 M80.69 42.58 C81.76 47.96, 82.84 53.35, 83.62 57.29 M83.62 57.29 C83.62 57.29, 83.62 57.29, 83.62 57.29 M83.62 57.29 C83.62 57.29, 83.62 57.29, 83.62 57.29" stroke="#1e1e1e" stroke-width="1" fill="none"></path></g></g><mask></mask><g stroke-linecap="round"><g transform="translate(304.24974044015767 306.910099029541) rotate(0 -21.55591540593211 118.61696315774779)"><path d="M0 0 C-7.85 20.36, -47.76 82.63, -47.1 122.17 C-46.43 161.71, -4.52 218.06, 3.99 237.23 M0 0 C-7.85 20.36, -47.76 82.63, -47.1 122.17 C-46.43 161.71, -4.52 218.06, 3.99 237.23" stroke="#1e1e1e" stroke-width="1" fill="none"></path></g><g transform="translate(304.24974044015767 306.910099029541) rotate(0 -21.55591540593211 118.61696315774779)"><path d="M3.99 237.23 L-8.23 228.54 L2.8 222.28 L3.99 237.23" stroke="none" stroke-width="0" fill="#1e1e1e" fill-rule="evenodd"></path><path d="M3.99 237.23 C1.28 235.3, -1.44 233.37, -8.23 228.54 M3.99 237.23 C-0.84 233.8, -5.67 230.36, -8.23 228.54 M-8.23 228.54 C-4.44 226.39, -0.64 224.23, 2.8 222.28 M-8.23 228.54 C-4.35 226.34, -0.47 224.14, 2.8 222.28 M2.8 222.28 C3.08 225.83, 3.36 229.38, 3.99 237.23 M2.8 222.28 C3.1 226.13, 3.41 229.97, 3.99 237.23 M3.99 237.23 C3.99 237.23, 3.99 237.23, 3.99 237.23 M3.99 237.23 C3.99 237.23, 3.99 237.23, 3.99 237.23" stroke="#1e1e1e" stroke-width="1" fill="none"></path></g></g><mask></mask><g stroke-linecap="round"><g transform="translate(468.59910567453267 439.33037185668945) rotate(0 -19.349306168804844 31.36888504028323)"><path d="M0 0 C-1.22 6.01, -0.84 25.6, -7.29 36.06 C-13.74 46.51, -33.46 58.29, -38.7 62.74 M0 0 C-1.22 6.01, -0.84 25.6, -7.29 36.06 C-13.74 46.51, -33.46 58.29, -38.7 62.74" stroke="#1e1e1e" stroke-width="1" fill="none"></path></g><g transform="translate(468.59910567453267 439.33037185668945) rotate(0 -19.349306168804844 31.36888504028323)"><path d="M-38.7 62.74 L-31.46 49.6 L-23.98 59.84 L-38.7 62.74" stroke="none" stroke-width="0" fill="#1e1e1e" fill-rule="evenodd"></path><path d="M-38.7 62.74 C-36.45 58.66, -34.2 54.58, -31.46 49.6 M-38.7 62.74 C-36.34 58.46, -33.98 54.18, -31.46 49.6 M-31.46 49.6 C-29.91 51.72, -28.36 53.84, -23.98 59.84 M-31.46 49.6 C-28.8 53.24, -26.15 56.88, -23.98 59.84 M-23.98 59.84 C-28.69 60.77, -33.39 61.69, -38.7 62.74 M-23.98 59.84 C-29.86 61, -35.74 62.16, -38.7 62.74 M-38.7 62.74 C-38.7 62.74, -38.7 62.74, -38.7 62.74 M-38.7 62.74 C-38.7 62.74, -38.7 62.74, -38.7 62.74" stroke="#1e1e1e" stroke-width="1" fill="none"></path></g></g><mask></mask><g stroke-linecap="round"><g transform="translate(406.9738109672685 574.9367138598557) rotate(0 1.5520913789813733 45.11488373535923)"><path d="M0 0 C1.91 5.95, 12.88 20.65, 11.46 35.69 C10.05 50.73, -5.16 81.14, -8.49 90.23 M0 0 C1.91 5.95, 12.88 20.65, 11.46 35.69 C10.05 50.73, -5.16 81.14, -8.49 90.23" stroke="#1e1e1e" stroke-width="1" fill="none"></path></g><g transform="translate(406.9738109672685 574.9367138598557) rotate(0 1.5520913789813733 45.11488373535923)"><path d="M-8.49 90.23 L-9 75.24 L2.67 80.2 L-8.49 90.23" stroke="none" stroke-width="0" fill="#1e1e1e" fill-rule="evenodd"></path><path d="M-8.49 90.23 C-8.63 85.86, -8.78 81.5, -9 75.24 M-8.49 90.23 C-8.64 85.57, -8.8 80.9, -9 75.24 M-9 75.24 C-5.65 76.66, -2.29 78.09, 2.67 80.2 M-9 75.24 C-6.11 76.47, -3.22 77.7, 2.67 80.2 M2.67 80.2 C-0.68 83.21, -4.03 86.23, -8.49 90.23 M2.67 80.2 C-0.3 82.87, -3.27 85.54, -8.49 90.23 M-8.49 90.23 C-8.49 90.23, -8.49 90.23, -8.49 90.23 M-8.49 90.23 C-8.49 90.23, -8.49 90.23, -8.49 90.23" stroke="#1e1e1e" stroke-width="1" fill="none"></path></g></g><mask></mask><g stroke-linecap="round"><g transform="translate(400.24817604431234 742.1589268663497) rotate(0 73.0910360088732 51.5807387494462)"><path d="M0 0 C7.09 9.33, 18.18 38.78, 42.54 55.98 C66.91 73.17, 128.91 95.3, 146.18 103.16 M0 0 C7.09 9.33, 18.18 38.78, 42.54 55.98 C66.91 73.17, 128.91 95.3, 146.18 103.16" stroke="#1e1e1e" stroke-width="1" fill="none"></path></g><g transform="translate(400.24817604431234 742.1589268663497) rotate(0 73.0910360088732 51.5807387494462)"><path d="M146.18 103.16 L131.2 103.87 L136.01 92.14 L146.18 103.16" stroke="none" stroke-width="0" fill="#1e1e1e" fill-rule="evenodd"></path><path d="M146.18 103.16 C142.47 103.34, 138.77 103.51, 131.2 103.87 M146.18 103.16 C141.86 103.37, 137.53 103.57, 131.2 103.87 M131.2 103.87 C132.48 100.76, 133.75 97.64, 136.01 92.14 M131.2 103.87 C133.12 99.19, 135.04 94.51, 136.01 92.14 M136.01 92.14 C138.71 95.07, 141.42 98, 146.18 103.16 M136.01 92.14 C138.15 94.46, 140.29 96.78, 146.18 103.16 M146.18 103.16 C146.18 103.16, 146.18 103.16, 146.18 103.16 M146.18 103.16 C146.18 103.16, 146.18 103.16, 146.18 103.16" stroke="#1e1e1e" stroke-width="1" fill="none"></path></g></g><mask></mask><g stroke-linecap="round" transform="translate(10 672.7672729492188) rotate(0 99.40402221679688 27.901123046875)"><path d="M13.95 0 C53.79 0, 93.63 0, 184.86 0 C194.16 0, 198.81 4.65, 198.81 13.95 C198.81 24.65, 198.81 35.35, 198.81 41.85 C198.81 51.15, 194.16 55.8, 184.86 55.8 C127.78 55.8, 70.71 55.8, 13.95 55.8 C4.65 55.8, 0 51.15, 0 41.85 C0 32.17, 0 22.49, 0 13.95 C0 4.65, 4.65 0, 13.95 0" stroke="none" stroke-width="0" fill="#f3f0ff"></path><path d="M13.95 0 C69.87 0, 125.78 0, 184.86 0 M13.95 0 C63.08 0, 112.21 0, 184.86 0 M184.86 0 C194.16 0, 198.81 4.65, 198.81 13.95 M184.86 0 C194.16 0, 198.81 4.65, 198.81 13.95 M198.81 13.95 C198.81 23.46, 198.81 32.98, 198.81 41.85 M198.81 13.95 C198.81 22.03, 198.81 30.11, 198.81 41.85 M198.81 41.85 C198.81 51.15, 194.16 55.8, 184.86 55.8 M198.81 41.85 C198.81 51.15, 194.16 55.8, 184.86 55.8 M184.86 55.8 C128.04 55.8, 71.22 55.8, 13.95 55.8 M184.86 55.8 C128.45 55.8, 72.05 55.8, 13.95 55.8 M13.95 55.8 C4.65 55.8, 0 51.15, 0 41.85 M13.95 55.8 C4.65 55.8, 0 51.15, 0 41.85 M0 41.85 C0 35.99, 0 30.13, 0 13.95 M0 41.85 C0 36.18, 0 30.52, 0 13.95 M0 13.95 C0 4.65, 4.65 0, 13.95 0 M0 13.95 C0 4.65, 4.65 0, 13.95 0" stroke="#6741d9" stroke-width="1" fill="none"></path></g><g transform="translate(60.185272216796875 683.8683959960938) rotate(0 49.21875 16.80000000000001)"><text x="49.21875" y="0" font-family="Cascadia, Segoe UI Emoji" font-size="28px" fill="#1e1e1e" text-anchor="middle" style="white-space: pre;" direction="ltr" dominant-baseline="text-before-edge">FAILED</text></g><g stroke-linecap="round" transform="translate(590.6759262084961 672.73583984375) rotate(0 99.40402221679688 27.901123046875)"><path d="M13.95 0 C78.53 0, 143.1 0, 184.86 0 C194.16 0, 198.81 4.65, 198.81 13.95 C198.81 24.33, 198.81 34.72, 198.81 41.85 C198.81 51.15, 194.16 55.8, 184.86 55.8 C134.53 55.8, 84.19 55.8, 13.95 55.8 C4.65 55.8, 0 51.15, 0 41.85 C0 35.47, 0 29.09, 0 13.95 C0 4.65, 4.65 0, 13.95 0" stroke="none" stroke-width="0" fill="#f3f0ff"></path><path d="M13.95 0 C74.3 0, 134.64 0, 184.86 0 M13.95 0 C58.1 0, 102.25 0, 184.86 0 M184.86 0 C194.16 0, 198.81 4.65, 198.81 13.95 M184.86 0 C194.16 0, 198.81 4.65, 198.81 13.95 M198.81 13.95 C198.81 24.26, 198.81 34.57, 198.81 41.85 M198.81 13.95 C198.81 21.29, 198.81 28.63, 198.81 41.85 M198.81 41.85 C198.81 51.15, 194.16 55.8, 184.86 55.8 M198.81 41.85 C198.81 51.15, 194.16 55.8, 184.86 55.8 M184.86 55.8 C131.66 55.8, 78.47 55.8, 13.95 55.8 M184.86 55.8 C148.38 55.8, 111.9 55.8, 13.95 55.8 M13.95 55.8 C4.65 55.8, 0 51.15, 0 41.85 M13.95 55.8 C4.65 55.8, 0 51.15, 0 41.85 M0 41.85 C0 34.5, 0 27.15, 0 13.95 M0 41.85 C0 31.38, 0 20.91, 0 13.95 M0 13.95 C0 4.65, 4.65 0, 13.95 0 M0 13.95 C0 4.65, 4.65 0, 13.95 0" stroke="#6741d9" stroke-width="1" fill="none"></path></g><g transform="translate(649.064323425293 683.836962890625) rotate(0 41.015625 16.80000000000001)"><text x="41.015625" y="0" font-family="Cascadia, Segoe UI Emoji" font-size="28px" fill="#1e1e1e" text-anchor="middle" style="white-space: pre;" direction="ltr" dominant-baseline="text-before-edge">ERROR</text></g><g stroke-linecap="round"><g transform="translate(530.3576965332031 549.5992889404297) rotate(0 79.10743713378906 58.521766662597656)"><path d="M0 0 C17.55 5.62, 78.92 14.24, 105.29 33.75 C131.66 53.25, 149.39 103.16, 158.21 117.04 M0 0 C17.55 5.62, 78.92 14.24, 105.29 33.75 C131.66 53.25, 149.39 103.16, 158.21 117.04" stroke="#1e1e1e" stroke-width="1" fill="none"></path></g><g transform="translate(530.3576965332031 549.5992889404297) rotate(0 79.10743713378906 58.521766662597656)"><path d="M158.21 117.04 L146.42 107.78 L157.73 102.05 L158.21 117.04" stroke="none" stroke-width="0" fill="#1e1e1e" fill-rule="evenodd"></path><path d="M158.21 117.04 C155.5 114.91, 152.79 112.78, 146.42 107.78 M158.21 117.04 C154.17 113.86, 150.12 110.68, 146.42 107.78 M146.42 107.78 C149.97 105.98, 153.52 104.18, 157.73 102.05 M146.42 107.78 C150.38 105.77, 154.34 103.77, 157.73 102.05 M157.73 102.05 C157.84 105.39, 157.95 108.74, 158.21 117.04 M157.73 102.05 C157.9 107.33, 158.07 112.61, 158.21 117.04 M158.21 117.04 C158.21 117.04, 158.21 117.04, 158.21 117.04 M158.21 117.04 C158.21 117.04, 158.21 117.04, 158.21 117.04" stroke="#1e1e1e" stroke-width="1" fill="none"></path></g></g><mask></mask><g stroke-linecap="round"><g transform="translate(309.94706954516033 569.620742485344) rotate(0 -101.29236084461698 46.0088961865311)"><path d="M0 0 C-16.17 3.37, -63.24 4.86, -97.01 20.19 C-130.77 35.53, -184.99 80.05, -202.58 92.02 M0 0 C-16.17 3.37, -63.24 4.86, -97.01 20.19 C-130.77 35.53, -184.99 80.05, -202.58 92.02" stroke="#1e1e1e" stroke-width="1" fill="none"></path></g><g transform="translate(309.94706954516033 569.620742485344) rotate(0 -101.29236084461698 46.0088961865311)"><path d="M-202.58 92.02 L-195.43 78.84 L-187.89 89.03 L-202.58 92.02" stroke="none" stroke-width="0" fill="#1e1e1e" fill-rule="evenodd"></path><path d="M-202.58 92.02 C-200.54 88.25, -198.5 84.49, -195.43 78.84 M-202.58 92.02 C-201.1 89.29, -199.62 86.56, -195.43 78.84 M-195.43 78.84 C-193.67 81.21, -191.91 83.59, -187.89 89.03 M-195.43 78.84 C-193.08 82.01, -190.72 85.19, -187.89 89.03 M-187.89 89.03 C-191.58 89.78, -195.27 90.53, -202.58 92.02 M-187.89 89.03 C-191.45 89.75, -195.01 90.48, -202.58 92.02 M-202.58 92.02 C-202.58 92.02, -202.58 92.02, -202.58 92.02 M-202.58 92.02 C-202.58 92.02, -202.58 92.02, -202.58 92.02" stroke="#1e1e1e" stroke-width="1" fill="none"></path></g></g><mask></mask><g stroke-linecap="round"><g transform="translate(113.17738134952526 741.083010945378) rotate(0 189.88253228572867 71.75812217229776)"><path d="M0 0 C17.42 14.54, 41.23 63.3, 104.53 87.22 C167.82 111.14, 333.89 134.13, 379.77 143.52 M0 0 C17.42 14.54, 41.23 63.3, 104.53 87.22 C167.82 111.14, 333.89 134.13, 379.77 143.52" stroke="#1e1e1e" stroke-width="1" fill="none"></path></g><g transform="translate(113.17738134952526 741.083010945378) rotate(0 189.88253228572867 71.75812217229776)"><path d="M379.77 143.52 L365.29 147.43 L367.46 134.94 L379.77 143.52" stroke="none" stroke-width="0" fill="#1e1e1e" fill-rule="evenodd"></path><path d="M379.77 143.52 C374.22 145.02, 368.68 146.51, 365.29 147.43 M379.77 143.52 C374.56 144.92, 369.36 146.33, 365.29 147.43 M365.29 147.43 C365.74 144.83, 366.19 142.23, 367.46 134.94 M365.29 147.43 C365.85 144.17, 366.42 140.91, 367.46 134.94 M367.46 134.94 C370.41 137, 373.37 139.06, 379.77 143.52 M367.46 134.94 C372.19 138.24, 376.93 141.54, 379.77 143.52 M379.77 143.52 C379.77 143.52, 379.77 143.52, 379.77 143.52 M379.77 143.52 C379.77 143.52, 379.77 143.52, 379.77 143.52" stroke="#1e1e1e" stroke-width="1" fill="none"></path></g></g><mask></mask><g stroke-linecap="round"><g transform="translate(690.8765085467909 740.7517807818037) rotate(0 -35.05456335636114 53.15979453557901)"><path d="M0 0 C-3.34 9.84, -8.35 41.33, -20.04 59.05 C-31.72 76.77, -61.76 98.44, -70.11 106.32 M0 0 C-3.34 9.84, -8.35 41.33, -20.04 59.05 C-31.72 76.77, -61.76 98.44, -70.11 106.32" stroke="#1e1e1e" stroke-width="1" fill="none"></path></g><g transform="translate(690.8765085467909 740.7517807818037) rotate(0 -35.05456335636114 53.15979453557901)"><path d="M-70.11 106.32 L-63.79 92.72 L-55.62 102.42 L-70.11 106.32" stroke="none" stroke-width="0" fill="#1e1e1e" fill-rule="evenodd"></path><path d="M-70.11 106.32 C-68.45 102.74, -66.78 99.17, -63.79 92.72 M-70.11 106.32 C-68.4 102.65, -66.69 98.97, -63.79 92.72 M-63.79 92.72 C-60.63 96.47, -57.47 100.23, -55.62 102.42 M-63.79 92.72 C-61.2 95.79, -58.61 98.87, -55.62 102.42 M-55.62 102.42 C-60.09 103.62, -64.56 104.83, -70.11 106.32 M-55.62 102.42 C-59.86 103.56, -64.1 104.7, -70.11 106.32 M-70.11 106.32 C-70.11 106.32, -70.11 106.32, -70.11 106.32 M-70.11 106.32 C-70.11 106.32, -70.11 106.32, -70.11 106.32" stroke="#1e1e1e" stroke-width="1" fill="none"></path></g></g><mask></mask><g stroke-linecap="round"><g transform="translate(448.1973322162245 269.90453651910843) rotate(0 220.66151432907878 292.5506446027177)"><path d="M0 0 C72.42 50.61, 390.3 206.13, 434.53 303.65 C478.76 401.16, 293.56 538.19, 265.36 585.1 M0 0 C72.42 50.61, 390.3 206.13, 434.53 303.65 C478.76 401.16, 293.56 538.19, 265.36 585.1" stroke="#1e1e1e" stroke-width="1" fill="none"></path></g><g transform="translate(448.1973322162245 269.90453651910843) rotate(0 220.66151432907878 292.5506446027177)"><path d="M265.36 585.1 L269.82 570.78 L279.2 579.31 L265.36 585.1" stroke="none" stroke-width="0" fill="#1e1e1e" fill-rule="evenodd"></path><path d="M265.36 585.1 C267.06 579.66, 268.75 574.23, 269.82 570.78 M265.36 585.1 C266.36 581.89, 267.36 578.68, 269.82 570.78 M269.82 570.78 C272.44 573.16, 275.05 575.54, 279.2 579.31 M269.82 570.78 C272.7 573.4, 275.58 576.02, 279.2 579.31 M279.2 579.31 C275.08 581.03, 270.97 582.76, 265.36 585.1 M279.2 579.31 C275.57 580.83, 271.95 582.35, 265.36 585.1 M265.36 585.1 C265.36 585.1, 265.36 585.1, 265.36 585.1 M265.36 585.1 C265.36 585.1, 265.36 585.1, 265.36 585.1" stroke="#1e1e1e" stroke-width="1" fill="none"></path></g></g><mask></mask><g stroke-linecap="round"><g transform="translate(418.8515396118164 37.69800567626953) rotate(0 -0.30185699462890625 23.37757110595703)"><path d="M0 0 C-0.1 7.79, -0.5 38.96, -0.6 46.76 M0 0 C-0.1 7.79, -0.5 38.96, -0.6 46.76" stroke="#1e1e1e" stroke-width="1" fill="none"></path></g><g transform="translate(418.8515396118164 37.69800567626953) rotate(0 -0.30185699462890625 23.37757110595703)"><path d="M-0.6 46.76 L-6.77 33.08 L5.91 33.24 L-0.6 46.76" stroke="none" stroke-width="0" fill="#1e1e1e" fill-rule="evenodd"></path><path d="M-0.6 46.76 C-2.84 41.8, -5.07 36.85, -6.77 33.08 M-0.6 46.76 C-2.26 43.08, -3.92 39.4, -6.77 33.08 M-6.77 33.08 C-2.96 33.13, 0.86 33.18, 5.91 33.24 M-6.77 33.08 C-3.52 33.12, -0.27 33.16, 5.91 33.24 M5.91 33.24 C3.85 37.53, 1.78 41.81, -0.6 46.76 M5.91 33.24 C4.49 36.19, 3.07 39.13, -0.6 46.76 M-0.6 46.76 C-0.6 46.76, -0.6 46.76, -0.6 46.76 M-0.6 46.76 C-0.6 46.76, -0.6 46.76, -0.6 46.76" stroke="#1e1e1e" stroke-width="1" fill="none"></path></g></g><mask></mask><g stroke-linecap="round" transform="translate(511.7809295654297 1026.4505920410156) rotate(0 99.40402221679688 27.901123046875)"><path d="M13.95 0 C74.48 0, 135.01 0, 184.86 0 C194.16 0, 198.81 4.65, 198.81 13.95 C198.81 21.24, 198.81 28.54, 198.81 41.85 C198.81 51.15, 194.16 55.8, 184.86 55.8 C138.33 55.8, 91.8 55.8, 13.95 55.8 C4.65 55.8, 0 51.15, 0 41.85 C0 33.53, 0 25.21, 0 13.95 C0 4.65, 4.65 0, 13.95 0" stroke="none" stroke-width="0" fill="#f3f0ff"></path><path d="M13.95 0 C59.9 0, 105.85 0, 184.86 0 M13.95 0 C72.66 0, 131.36 0, 184.86 0 M184.86 0 C194.16 0, 198.81 4.65, 198.81 13.95 M184.86 0 C194.16 0, 198.81 4.65, 198.81 13.95 M198.81 13.95 C198.81 24.17, 198.81 34.38, 198.81 41.85 M198.81 13.95 C198.81 24.3, 198.81 34.65, 198.81 41.85 M198.81 41.85 C198.81 51.15, 194.16 55.8, 184.86 55.8 M198.81 41.85 C198.81 51.15, 194.16 55.8, 184.86 55.8 M184.86 55.8 C144.27 55.8, 103.69 55.8, 13.95 55.8 M184.86 55.8 C133.41 55.8, 81.97 55.8, 13.95 55.8 M13.95 55.8 C4.65 55.8, 0 51.15, 0 41.85 M13.95 55.8 C4.65 55.8, 0 51.15, 0 41.85 M0 41.85 C0 35.32, 0 28.8, 0 13.95 M0 41.85 C0 35.15, 0 28.45, 0 13.95 M0 13.95 C0 4.65, 4.65 0, 13.95 0 M0 13.95 C0 4.65, 4.65 0, 13.95 0" stroke="#6741d9" stroke-width="1" fill="none"></path></g><g transform="translate(561.9662017822266 1037.5517150878907) rotate(0 49.21875 16.80000000000001)"><text x="49.21875" y="0" font-family="Cascadia, Segoe UI Emoji" font-size="28px" fill="#1e1e1e" text-anchor="middle" style="white-space: pre;" direction="ltr" dominant-baseline="text-before-edge">DELETE</text></g><g stroke-linecap="round"><g transform="translate(603.8060684204102 921.6717758178711) rotate(0 0.4782867431640625 48.672523498535156)"><path d="M0 0 C0.16 16.22, 0.8 81.12, 0.96 97.35 M0 0 C0.16 16.22, 0.8 81.12, 0.96 97.35" stroke="#1e1e1e" stroke-width="1" fill="none"></path></g><g transform="translate(603.8060684204102 921.6717758178711) rotate(0 0.4782867431640625 48.672523498535156)"><path d="M0.96 97.35 L-5.52 83.81 L7.16 83.69 L0.96 97.35" stroke="none" stroke-width="0" fill="#1e1e1e" fill-rule="evenodd"></path><path d="M0.96 97.35 C-1.56 92.09, -4.07 86.83, -5.52 83.81 M0.96 97.35 C-1.52 92.17, -3.99 87, -5.52 83.81 M-5.52 83.81 C-2.59 83.78, 0.34 83.76, 7.16 83.69 M-5.52 83.81 C-2.55 83.78, 0.41 83.76, 7.16 83.69 M7.16 83.69 C5.58 87.17, 4 90.65, 0.96 97.35 M7.16 83.69 C5.16 88.1, 3.15 92.51, 0.96 97.35 M0.96 97.35 C0.96 97.35, 0.96 97.35, 0.96 97.35 M0.96 97.35 C0.96 97.35, 0.96 97.35, 0.96 97.35" stroke="#1e1e1e" stroke-width="1" fill="none"></path></g></g><mask></mask></svg>