<svg id="Calque_1" xmlns="http://www.w3.org/2000/svg" viewBox="0 0 210 100"><style>.st0{fill-rule:evenodd;clip-rule:evenodd}.st0,.st1{fill:#000e9c}</style><path class="st0" d="M142.6 7.8c7.5 13.5 6.1 30.2-3.6 42.2h-20.4l6.3-11.1h-8.3l9.8-17.2h8.3l7.9-13.9zM102.4 50H81.6C71.8 38 70.4 21.2 78 7.7L91.5 31l14.8-25.8h21.8L102.4 50z"/><path class="st1" d="M5.2 78.9c0-12.1 6-18 16-18 9.9 0 16 5.8 16 18 0 12-6 17.9-16 17.9s-16-5.9-16-17.9zm3.5 0c0 10 4.6 14.8 12.4 14.8 7.8 0 12.4-4.8 12.4-14.8s-4.6-14.8-12.4-14.8c-7.8 0-12.4 4.7-12.4 14.8zM63.3 62.3c.2-.4.7-1.1 1.6-1.1s1.7.8 1.7 1.7c0 .3-.1.6-.2.8l-12 31.6c-.3.7-1 1.2-1.6 1.2s-1.4-.5-1.6-1.2l-12-31.6c-.1-.2-.2-.5-.2-.8 0-1 .8-1.7 1.7-1.7 1 0 1.5.7 1.6 1.1l10.4 27.6 10.6-27.6zM73.9 80v14.8c0 .9-.8 1.7-1.7 1.7s-1.7-.8-1.7-1.7V63c0-.9.8-1.7 1.7-1.7s1.7.8 1.7 1.7v13.9h17.8V63c0-.9.8-1.7 1.7-1.7s1.7.8 1.7 1.7v31.8c0 .9-.8 1.7-1.7 1.7s-1.7-.8-1.7-1.7V80H73.9zM111.7 72.1c4.6 0 7.1 2.4 7.9 3.5.3.4.4.6.4 1 0 .9-.7 1.5-1.5 1.5-.5 0-.9-.2-1.2-.6-.8-.9-2.2-2.4-5.5-2.4-4.7 0-7.2 3-7.2 9.3 0 6.4 2.5 9.4 7.2 9.4 3 0 4.8-1.3 5.9-2.2.4-.3.6-.4 1-.4.8 0 1.5.7 1.5 1.5 0 .5-.2.8-.7 1.3-1.1.9-3.6 2.8-7.7 2.8-6.6 0-10.6-3.9-10.6-12.4s3.9-12.3 10.5-12.3zM128.1 61.3v29.3c0 2 .7 2.9 2.1 2.9.8 0 1.5.7 1.5 1.5s-.7 1.5-1.5 1.5c-3.4 0-5.3-2-5.3-6V61.3c0-.9.8-1.6 1.6-1.6.8-.1 1.6.7 1.6 1.6zM156 84.4c0 8.4-4.1 12.4-10.8 12.4-6.6 0-10.8-3.9-10.8-12.4s4.2-12.3 10.8-12.3c6.7 0 10.8 3.9 10.8 12.3zm-3.3 0c0-6.5-2.7-9.3-7.4-9.3s-7.4 2.9-7.4 9.3c0 6.6 2.7 9.4 7.4 9.4s7.4-2.8 7.4-9.4zM163.9 74.1v13.4c0 3.3 1.1 6.2 6.3 6.2 5.2 0 6.3-2.9 6.3-6.2V74.1c0-.9.8-1.6 1.7-1.6.9 0 1.6.7 1.6 1.6v13.4c0 4.9-1.6 9.3-9.5 9.3s-9.5-4.5-9.5-9.3V74.1c0-.9.7-1.6 1.6-1.6.7-.1 1.5.7 1.5 1.6zM201.6 75.5V61.3c0-.9.7-1.6 1.6-1.6.9 0 1.6.7 1.6 1.6v25.4c0 6.8-4.2 10.1-10 10.1-6.6 0-10.5-3.9-10.5-12.4s3.7-12.3 10.3-12.3c3.3 0 5.8 1.7 7 3.4zm0 4.1s-1.9-4.5-6.8-4.5c-4.7 0-7.2 3-7.2 9.3 0 6.4 2.5 9.4 7.2 9.4 3.9 0 6.8-2.3 6.8-7.1v-7.1z"/></svg>