<svg width="214" height="100" viewBox="0 0 214 100" fill="none" xmlns="http://www.w3.org/2000/svg">
<rect width="214" height="100" fill="white"/>
<rect x="8" y="16" width="56" height="27" rx="2" fill="#23B7B7"/>
<path d="M25.1309 34V25.4336H26.5312V32.7988H30.1582V34H25.1309ZM32.8652 34H31.4883V27.5195H32.8652V34ZM31.4062 25.8027C31.4062 25.5566 31.4727 25.3672 31.6055 25.2344C31.7422 25.1016 31.9355 25.0352 32.1855 25.0352C32.4277 25.0352 32.6152 25.1016 32.748 25.2344C32.8848 25.3672 32.9531 25.5566 32.9531 25.8027C32.9531 26.0371 32.8848 26.2227 32.748 26.3594C32.6152 26.4922 32.4277 26.5586 32.1855 26.5586C31.9355 26.5586 31.7422 26.4922 31.6055 26.3594C31.4727 26.2227 31.4062 26.0371 31.4062 25.8027ZM36.3164 34L33.8555 27.5195H35.3086L36.627 31.2871C36.8535 31.9199 36.9902 32.4316 37.0371 32.8223H37.084C37.1191 32.541 37.2559 32.0293 37.4941 31.2871L38.8125 27.5195H40.2773L37.8047 34H36.3164ZM44.0918 34.1172C43.084 34.1172 42.2949 33.8242 41.7246 33.2383C41.1582 32.6484 40.875 31.8379 40.875 30.8066C40.875 29.748 41.1387 28.916 41.666 28.3105C42.1934 27.7051 42.918 27.4023 43.8398 27.4023C44.6953 27.4023 45.3711 27.6621 45.8672 28.1816C46.3633 28.7012 46.6113 29.416 46.6113 30.3262V31.0703H42.293C42.3125 31.6992 42.4824 32.1836 42.8027 32.5234C43.123 32.8594 43.5742 33.0273 44.1562 33.0273C44.5391 33.0273 44.8945 32.9922 45.2227 32.9219C45.5547 32.8477 45.9102 32.7266 46.2891 32.5586V33.6777C45.9531 33.8379 45.6133 33.9512 45.2695 34.0176C44.9258 34.084 44.5332 34.1172 44.0918 34.1172ZM43.8398 28.4453C43.4023 28.4453 43.0508 28.584 42.7852 28.8613C42.5234 29.1387 42.3672 29.543 42.3164 30.0742H45.2578C45.25 29.5391 45.1211 29.1348 44.8711 28.8613C44.6211 28.584 44.2773 28.4453 43.8398 28.4453Z" fill="white"/>
<rect x="40" y="56" width="77" height="27" rx="2" fill="#86B5FF"/>
<path d="M62.0703 71.6738C62.0703 72.4355 61.7949 73.0332 61.2441 73.4668C60.6934 73.9004 59.9336 74.1172 58.9648 74.1172C57.9961 74.1172 57.2031 73.9668 56.5859 73.666V72.3418C56.9766 72.5254 57.3906 72.6699 57.8281 72.7754C58.2695 72.8809 58.6797 72.9336 59.0586 72.9336C59.6133 72.9336 60.0215 72.8281 60.2832 72.6172C60.5488 72.4062 60.6816 72.123 60.6816 71.7676C60.6816 71.4473 60.5605 71.1758 60.3184 70.9531C60.0762 70.7305 59.5762 70.4668 58.8184 70.1621C58.0371 69.8457 57.4863 69.4844 57.166 69.0781C56.8457 68.6719 56.6855 68.1836 56.6855 67.6133C56.6855 66.8984 56.9395 66.3359 57.4473 65.9258C57.9551 65.5156 58.6367 65.3105 59.4922 65.3105C60.3125 65.3105 61.1289 65.4902 61.9414 65.8496L61.4961 66.9922C60.7344 66.6719 60.0547 66.5117 59.457 66.5117C59.0039 66.5117 58.6602 66.6113 58.4258 66.8105C58.1914 67.0059 58.0742 67.2656 58.0742 67.5898C58.0742 67.8125 58.1211 68.0039 58.2148 68.1641C58.3086 68.3203 58.4629 68.4688 58.6777 68.6094C58.8926 68.75 59.2793 68.9355 59.8379 69.166C60.4668 69.4277 60.9277 69.6719 61.2207 69.8984C61.5137 70.125 61.7285 70.3809 61.8652 70.666C62.002 70.9512 62.0703 71.2871 62.0703 71.6738ZM66.8691 74.1172C66.0488 74.1172 65.4121 73.8223 64.959 73.2324H64.877C64.9316 73.7793 64.959 74.1113 64.959 74.2285V76.8828H63.582V67.5195H64.6953C64.7266 67.6406 64.791 67.9297 64.8887 68.3867H64.959C65.3887 67.7305 66.0332 67.4023 66.8926 67.4023C67.7012 67.4023 68.3301 67.6953 68.7793 68.2812C69.2324 68.8672 69.459 69.6895 69.459 70.748C69.459 71.8066 69.2285 72.6328 68.7676 73.2266C68.3105 73.8203 67.6777 74.1172 66.8691 74.1172ZM66.5352 68.5273C65.9883 68.5273 65.5879 68.6875 65.334 69.0078C65.084 69.3281 64.959 69.8398 64.959 70.543V70.748C64.959 71.5371 65.084 72.1094 65.334 72.4648C65.584 72.8164 65.9922 72.9922 66.5586 72.9922C67.0352 72.9922 67.4023 72.7969 67.6602 72.4062C67.918 72.0156 68.0469 71.459 68.0469 70.7363C68.0469 70.0098 67.918 69.4609 67.6602 69.0898C67.4062 68.7148 67.0312 68.5273 66.5352 68.5273ZM74.3457 67.4023C74.623 67.4023 74.8516 67.4219 75.0312 67.4609L74.8965 68.7441C74.7012 68.6973 74.498 68.6738 74.2871 68.6738C73.7363 68.6738 73.2891 68.8535 72.9453 69.2129C72.6055 69.5723 72.4355 70.0391 72.4355 70.6133V74H71.0586V67.5195H72.1367L72.3184 68.6621H72.3887C72.6035 68.2754 72.8828 67.9688 73.2266 67.7422C73.5742 67.5156 73.9473 67.4023 74.3457 67.4023ZM77.6152 74H76.2383V67.5195H77.6152V74ZM76.1562 65.8027C76.1562 65.5566 76.2227 65.3672 76.3555 65.2344C76.4922 65.1016 76.6855 65.0352 76.9355 65.0352C77.1777 65.0352 77.3652 65.1016 77.498 65.2344C77.6348 65.3672 77.7031 65.5566 77.7031 65.8027C77.7031 66.0371 77.6348 66.2227 77.498 66.3594C77.3652 66.4922 77.1777 66.5586 76.9355 66.5586C76.6855 66.5586 76.4922 66.4922 76.3555 66.3594C76.2227 66.2227 76.1562 66.0371 76.1562 65.8027ZM85.291 74H83.9082V70.0156C83.9082 69.5156 83.8066 69.1426 83.6035 68.8965C83.4043 68.6504 83.0859 68.5273 82.6484 68.5273C82.0664 68.5273 81.6406 68.6992 81.3711 69.043C81.1016 69.3867 80.9668 69.9629 80.9668 70.7715V74H79.5898V67.5195H80.668L80.8613 68.3691H80.9316C81.127 68.0605 81.4043 67.8223 81.7637 67.6543C82.123 67.4863 82.5215 67.4023 82.959 67.4023C84.5137 67.4023 85.291 68.1934 85.291 69.7754V74ZM89.6211 73.0039C89.957 73.0039 90.293 72.9512 90.6289 72.8457V73.8828C90.4766 73.9492 90.2793 74.0039 90.0371 74.0469C89.7988 74.0938 89.5508 74.1172 89.293 74.1172C87.9883 74.1172 87.3359 73.4297 87.3359 72.0547V68.5625H86.4512V67.9531L87.4004 67.4492L87.8691 66.0781H88.7188V67.5195H90.5645V68.5625H88.7188V72.0312C88.7188 72.3633 88.8008 72.6094 88.9648 72.7695C89.1328 72.9258 89.3516 73.0039 89.6211 73.0039ZM100.396 74H94.5898V72.957L96.7988 70.7363C97.4512 70.0684 97.8828 69.5957 98.0938 69.3184C98.3086 69.0371 98.4648 68.7734 98.5625 68.5273C98.6602 68.2812 98.709 68.0176 98.709 67.7363C98.709 67.3496 98.5918 67.0449 98.3574 66.8223C98.127 66.5996 97.8066 66.4883 97.3965 66.4883C97.0684 66.4883 96.75 66.5488 96.4414 66.6699C96.1367 66.791 95.7832 67.0098 95.3809 67.3262L94.6367 66.418C95.1133 66.0156 95.5762 65.7305 96.0254 65.5625C96.4746 65.3945 96.9531 65.3105 97.4609 65.3105C98.2578 65.3105 98.8965 65.5195 99.377 65.9375C99.8574 66.3516 100.098 66.9102 100.098 67.6133C100.098 68 100.027 68.3672 99.8867 68.7148C99.75 69.0625 99.5371 69.4219 99.248 69.793C98.9629 70.1602 98.4863 70.6582 97.8184 71.2871L96.3301 72.7285V72.7871H100.396V74Z" fill="white"/>
<path d="M122.5 71C121.948 71 121.5 71.4477 121.5 72C121.5 72.5523 121.948 73 122.5 73L122.5 71ZM68.2929 31.2929C67.9024 31.6834 67.9024 32.3166 68.2929 32.7071L74.6569 39.0711C75.0474 39.4616 75.6805 39.4616 76.0711 39.0711C76.4616 38.6805 76.4616 38.0474 76.0711 37.6569L70.4142 32L76.0711 26.3431C76.4616 25.9526 76.4616 25.3195 76.0711 24.9289C75.6805 24.5384 75.0474 24.5384 74.6569 24.9289L68.2929 31.2929ZM122.5 73L196 73V71L122.5 71L122.5 73ZM207 62L207 42L205 42L205 62L207 62ZM196 31L69 31L69 33L196 33L196 31ZM207 42C207 35.9249 202.075 31 196 31L196 33C200.971 33 205 37.0294 205 42L207 42ZM196 73C202.075 73 207 68.0751 207 62L205 62C205 66.9706 200.971 71 196 71V73Z" fill="#C9D0E4"/>
<path d="M166.431 24L164.154 17.4419H164.111C164.172 18.4159 164.202 19.3289 164.202 20.1812V24H163.037V16.1475H164.847L167.027 22.394H167.06L169.305 16.1475H171.12V24H169.885V20.1167C169.885 19.7264 169.894 19.2179 169.912 18.5913C169.933 17.9647 169.951 17.5851 169.965 17.4526H169.922L167.564 24H166.431ZM175.648 24.1074C174.724 24.1074 174.001 23.8389 173.478 23.3018C172.959 22.7611 172.699 22.0181 172.699 21.0728C172.699 20.1024 172.941 19.3397 173.424 18.7847C173.908 18.2297 174.572 17.9521 175.417 17.9521C176.201 17.9521 176.821 18.1903 177.275 18.6665C177.73 19.1427 177.958 19.798 177.958 20.6323V21.3145H173.999C174.017 21.891 174.173 22.335 174.466 22.6465C174.76 22.9544 175.174 23.1084 175.707 23.1084C176.058 23.1084 176.384 23.0762 176.685 23.0117C176.989 22.9437 177.315 22.8327 177.662 22.6787V23.7046C177.354 23.8514 177.043 23.9552 176.728 24.0161C176.412 24.077 176.053 24.1074 175.648 24.1074ZM175.417 18.9082C175.016 18.9082 174.694 19.0353 174.45 19.2896C174.21 19.5438 174.067 19.9144 174.021 20.4014H176.717C176.71 19.9108 176.591 19.5402 176.362 19.2896C176.133 19.0353 175.818 18.9082 175.417 18.9082ZM182.405 17.9521C182.659 17.9521 182.868 17.9701 183.033 18.0059L182.91 19.1821C182.731 19.1392 182.544 19.1177 182.351 19.1177C181.846 19.1177 181.436 19.2824 181.121 19.6118C180.81 19.9412 180.654 20.3691 180.654 20.8955V24H179.392V18.0596H180.38L180.546 19.1069H180.611C180.808 18.7524 181.064 18.4714 181.379 18.2637C181.698 18.056 182.04 17.9521 182.405 17.9521ZM189.156 18.0596V18.7524L188.141 18.9404C188.234 19.0658 188.311 19.2197 188.372 19.4023C188.433 19.585 188.463 19.7783 188.463 19.9824C188.463 20.5947 188.252 21.0763 187.83 21.4272C187.407 21.7782 186.825 21.9536 186.084 21.9536C185.894 21.9536 185.722 21.9393 185.568 21.9106C185.296 22.0789 185.16 22.2759 185.16 22.5015C185.16 22.6375 185.223 22.7396 185.348 22.8076C185.477 22.8757 185.712 22.9097 186.052 22.9097H187.088C187.744 22.9097 188.241 23.0493 188.582 23.3286C188.922 23.6079 189.092 24.0107 189.092 24.5371C189.092 25.2103 188.814 25.7295 188.259 26.0947C187.704 26.46 186.902 26.6426 185.853 26.6426C185.044 26.6426 184.426 26.4993 184 26.2129C183.574 25.9264 183.361 25.5182 183.361 24.9883C183.361 24.623 183.475 24.3151 183.705 24.0645C183.937 23.8174 184.261 23.6455 184.677 23.5488C184.508 23.4772 184.369 23.3626 184.258 23.2051C184.15 23.0439 184.097 22.8757 184.097 22.7002C184.097 22.4782 184.159 22.2902 184.285 22.1362C184.41 21.9823 184.596 21.8301 184.843 21.6797C184.535 21.5472 184.285 21.3324 184.091 21.0352C183.902 20.7344 183.807 20.3835 183.807 19.9824C183.807 19.3379 184.009 18.8384 184.414 18.4839C184.822 18.1294 185.402 17.9521 186.154 17.9521C186.322 17.9521 186.498 17.9647 186.68 17.9897C186.866 18.0112 187.006 18.0345 187.099 18.0596H189.156ZM184.489 24.9238C184.489 25.196 184.611 25.4054 184.854 25.5522C185.101 25.6991 185.447 25.7725 185.891 25.7725C186.578 25.7725 187.09 25.674 187.427 25.4771C187.763 25.2801 187.932 25.0187 187.932 24.6929C187.932 24.4351 187.839 24.2507 187.652 24.1396C187.47 24.0322 187.128 23.9785 186.626 23.9785H185.67C185.309 23.9785 185.021 24.0627 184.806 24.231C184.594 24.4028 184.489 24.6338 184.489 24.9238ZM185.031 19.9824C185.031 20.3548 185.126 20.6413 185.316 20.8418C185.509 21.0423 185.785 21.1426 186.143 21.1426C186.874 21.1426 187.239 20.7523 187.239 19.9717C187.239 19.585 187.147 19.2878 186.965 19.0801C186.786 18.8688 186.512 18.7632 186.143 18.7632C185.778 18.7632 185.5 18.867 185.311 19.0747C185.124 19.2824 185.031 19.585 185.031 19.9824ZM192.857 24.1074C191.933 24.1074 191.21 23.8389 190.687 23.3018C190.168 22.7611 189.908 22.0181 189.908 21.0728C189.908 20.1024 190.15 19.3397 190.633 18.7847C191.117 18.2297 191.781 17.9521 192.626 17.9521C193.41 17.9521 194.03 18.1903 194.484 18.6665C194.939 19.1427 195.167 19.798 195.167 20.6323V21.3145H191.208C191.226 21.891 191.382 22.335 191.675 22.6465C191.969 22.9544 192.382 23.1084 192.916 23.1084C193.267 23.1084 193.593 23.0762 193.894 23.0117C194.198 22.9437 194.524 22.8327 194.871 22.6787V23.7046C194.563 23.8514 194.252 23.9552 193.937 24.0161C193.621 24.077 193.262 24.1074 192.857 24.1074ZM192.626 18.9082C192.225 18.9082 191.903 19.0353 191.659 19.2896C191.419 19.5438 191.276 19.9144 191.229 20.4014H193.926C193.919 19.9108 193.8 19.5402 193.571 19.2896C193.342 19.0353 193.027 18.9082 192.626 18.9082Z" fill="#4A495E"/>
</svg>
