<svg width="214" height="140" viewBox="0 0 214 140" fill="none" xmlns="http://www.w3.org/2000/svg">
<rect width="214" height="140" fill="white"/>
<rect x="8" y="16" width="56" height="27" rx="2" fill="#23B7B7"/>
<path d="M25.1309 34V25.4336H26.5312V32.7988H30.1582V34H25.1309ZM32.8652 34H31.4883V27.5195H32.8652V34ZM31.4062 25.8027C31.4062 25.5566 31.4727 25.3672 31.6055 25.2344C31.7422 25.1016 31.9355 25.0352 32.1855 25.0352C32.4277 25.0352 32.6152 25.1016 32.748 25.2344C32.8848 25.3672 32.9531 25.5566 32.9531 25.8027C32.9531 26.0371 32.8848 26.2227 32.748 26.3594C32.6152 26.4922 32.4277 26.5586 32.1855 26.5586C31.9355 26.5586 31.7422 26.4922 31.6055 26.3594C31.4727 26.2227 31.4062 26.0371 31.4062 25.8027ZM36.3164 34L33.8555 27.5195H35.3086L36.627 31.2871C36.8535 31.9199 36.9902 32.4316 37.0371 32.8223H37.084C37.1191 32.541 37.2559 32.0293 37.4941 31.2871L38.8125 27.5195H40.2773L37.8047 34H36.3164ZM44.0918 34.1172C43.084 34.1172 42.2949 33.8242 41.7246 33.2383C41.1582 32.6484 40.875 31.8379 40.875 30.8066C40.875 29.748 41.1387 28.916 41.666 28.3105C42.1934 27.7051 42.918 27.4023 43.8398 27.4023C44.6953 27.4023 45.3711 27.6621 45.8672 28.1816C46.3633 28.7012 46.6113 29.416 46.6113 30.3262V31.0703H42.293C42.3125 31.6992 42.4824 32.1836 42.8027 32.5234C43.123 32.8594 43.5742 33.0273 44.1562 33.0273C44.5391 33.0273 44.8945 32.9922 45.2227 32.9219C45.5547 32.8477 45.9102 32.7266 46.2891 32.5586V33.6777C45.9531 33.8379 45.6133 33.9512 45.2695 34.0176C44.9258 34.084 44.5332 34.1172 44.0918 34.1172ZM43.8398 28.4453C43.4023 28.4453 43.0508 28.584 42.7852 28.8613C42.5234 29.1387 42.3672 29.543 42.3164 30.0742H45.2578C45.25 29.5391 45.1211 29.1348 44.8711 28.8613C44.6211 28.584 44.2773 28.4453 43.8398 28.4453Z" fill="white"/>
<rect x="40" y="56" width="77" height="27" rx="2" fill="#86B5FF"/>
<path d="M62.0703 71.6738C62.0703 72.4355 61.7949 73.0332 61.2441 73.4668C60.6934 73.9004 59.9336 74.1172 58.9648 74.1172C57.9961 74.1172 57.2031 73.9668 56.5859 73.666V72.3418C56.9766 72.5254 57.3906 72.6699 57.8281 72.7754C58.2695 72.8809 58.6797 72.9336 59.0586 72.9336C59.6133 72.9336 60.0215 72.8281 60.2832 72.6172C60.5488 72.4062 60.6816 72.123 60.6816 71.7676C60.6816 71.4473 60.5605 71.1758 60.3184 70.9531C60.0762 70.7305 59.5762 70.4668 58.8184 70.1621C58.0371 69.8457 57.4863 69.4844 57.166 69.0781C56.8457 68.6719 56.6855 68.1836 56.6855 67.6133C56.6855 66.8984 56.9395 66.3359 57.4473 65.9258C57.9551 65.5156 58.6367 65.3105 59.4922 65.3105C60.3125 65.3105 61.1289 65.4902 61.9414 65.8496L61.4961 66.9922C60.7344 66.6719 60.0547 66.5117 59.457 66.5117C59.0039 66.5117 58.6602 66.6113 58.4258 66.8105C58.1914 67.0059 58.0742 67.2656 58.0742 67.5898C58.0742 67.8125 58.1211 68.0039 58.2148 68.1641C58.3086 68.3203 58.4629 68.4688 58.6777 68.6094C58.8926 68.75 59.2793 68.9355 59.8379 69.166C60.4668 69.4277 60.9277 69.6719 61.2207 69.8984C61.5137 70.125 61.7285 70.3809 61.8652 70.666C62.002 70.9512 62.0703 71.2871 62.0703 71.6738ZM66.8691 74.1172C66.0488 74.1172 65.4121 73.8223 64.959 73.2324H64.877C64.9316 73.7793 64.959 74.1113 64.959 74.2285V76.8828H63.582V67.5195H64.6953C64.7266 67.6406 64.791 67.9297 64.8887 68.3867H64.959C65.3887 67.7305 66.0332 67.4023 66.8926 67.4023C67.7012 67.4023 68.3301 67.6953 68.7793 68.2812C69.2324 68.8672 69.459 69.6895 69.459 70.748C69.459 71.8066 69.2285 72.6328 68.7676 73.2266C68.3105 73.8203 67.6777 74.1172 66.8691 74.1172ZM66.5352 68.5273C65.9883 68.5273 65.5879 68.6875 65.334 69.0078C65.084 69.3281 64.959 69.8398 64.959 70.543V70.748C64.959 71.5371 65.084 72.1094 65.334 72.4648C65.584 72.8164 65.9922 72.9922 66.5586 72.9922C67.0352 72.9922 67.4023 72.7969 67.6602 72.4062C67.918 72.0156 68.0469 71.459 68.0469 70.7363C68.0469 70.0098 67.918 69.4609 67.6602 69.0898C67.4062 68.7148 67.0312 68.5273 66.5352 68.5273ZM74.3457 67.4023C74.623 67.4023 74.8516 67.4219 75.0312 67.4609L74.8965 68.7441C74.7012 68.6973 74.498 68.6738 74.2871 68.6738C73.7363 68.6738 73.2891 68.8535 72.9453 69.2129C72.6055 69.5723 72.4355 70.0391 72.4355 70.6133V74H71.0586V67.5195H72.1367L72.3184 68.6621H72.3887C72.6035 68.2754 72.8828 67.9688 73.2266 67.7422C73.5742 67.5156 73.9473 67.4023 74.3457 67.4023ZM77.6152 74H76.2383V67.5195H77.6152V74ZM76.1562 65.8027C76.1562 65.5566 76.2227 65.3672 76.3555 65.2344C76.4922 65.1016 76.6855 65.0352 76.9355 65.0352C77.1777 65.0352 77.3652 65.1016 77.498 65.2344C77.6348 65.3672 77.7031 65.5566 77.7031 65.8027C77.7031 66.0371 77.6348 66.2227 77.498 66.3594C77.3652 66.4922 77.1777 66.5586 76.9355 66.5586C76.6855 66.5586 76.4922 66.4922 76.3555 66.3594C76.2227 66.2227 76.1562 66.0371 76.1562 65.8027ZM85.291 74H83.9082V70.0156C83.9082 69.5156 83.8066 69.1426 83.6035 68.8965C83.4043 68.6504 83.0859 68.5273 82.6484 68.5273C82.0664 68.5273 81.6406 68.6992 81.3711 69.043C81.1016 69.3867 80.9668 69.9629 80.9668 70.7715V74H79.5898V67.5195H80.668L80.8613 68.3691H80.9316C81.127 68.0605 81.4043 67.8223 81.7637 67.6543C82.123 67.4863 82.5215 67.4023 82.959 67.4023C84.5137 67.4023 85.291 68.1934 85.291 69.7754V74ZM89.6211 73.0039C89.957 73.0039 90.293 72.9512 90.6289 72.8457V73.8828C90.4766 73.9492 90.2793 74.0039 90.0371 74.0469C89.7988 74.0938 89.5508 74.1172 89.293 74.1172C87.9883 74.1172 87.3359 73.4297 87.3359 72.0547V68.5625H86.4512V67.9531L87.4004 67.4492L87.8691 66.0781H88.7188V67.5195H90.5645V68.5625H88.7188V72.0312C88.7188 72.3633 88.8008 72.6094 88.9648 72.7695C89.1328 72.9258 89.3516 73.0039 89.6211 73.0039ZM100.396 74H94.5898V72.957L96.7988 70.7363C97.4512 70.0684 97.8828 69.5957 98.0938 69.3184C98.3086 69.0371 98.4648 68.7734 98.5625 68.5273C98.6602 68.2812 98.709 68.0176 98.709 67.7363C98.709 67.3496 98.5918 67.0449 98.3574 66.8223C98.127 66.5996 97.8066 66.4883 97.3965 66.4883C97.0684 66.4883 96.75 66.5488 96.4414 66.6699C96.1367 66.791 95.7832 67.0098 95.3809 67.3262L94.6367 66.418C95.1133 66.0156 95.5762 65.7305 96.0254 65.5625C96.4746 65.3945 96.9531 65.3105 97.4609 65.3105C98.2578 65.3105 98.8965 65.5195 99.377 65.9375C99.8574 66.3516 100.098 66.9102 100.098 67.6133C100.098 68 100.027 68.3672 99.8867 68.7148C99.75 69.0625 99.5371 69.4219 99.248 69.793C98.9629 70.1602 98.4863 70.6582 97.8184 71.2871L96.3301 72.7285V72.7871H100.396V74Z" fill="white"/>
<rect x="72" y="96" width="87" height="27" rx="2" fill="#C9D0E4"/>
<path d="M90.5195 114H89.1309V105.434H93.9648V106.617H90.5195V109.295H93.748V110.484H90.5195V114ZM98.2012 114.117C97.1934 114.117 96.4043 113.824 95.834 113.238C95.2676 112.648 94.9844 111.838 94.9844 110.807C94.9844 109.748 95.248 108.916 95.7754 108.311C96.3027 107.705 97.0273 107.402 97.9492 107.402C98.8047 107.402 99.4805 107.662 99.9766 108.182C100.473 108.701 100.721 109.416 100.721 110.326V111.07H96.4023C96.4219 111.699 96.5918 112.184 96.9121 112.523C97.2324 112.859 97.6836 113.027 98.2656 113.027C98.6484 113.027 99.0039 112.992 99.332 112.922C99.6641 112.848 100.02 112.727 100.398 112.559V113.678C100.062 113.838 99.7227 113.951 99.3789 114.018C99.0352 114.084 98.6426 114.117 98.2012 114.117ZM97.9492 108.445C97.5117 108.445 97.1602 108.584 96.8945 108.861C96.6328 109.139 96.4766 109.543 96.4258 110.074H99.3672C99.3594 109.539 99.2305 109.135 98.9805 108.861C98.7305 108.584 98.3867 108.445 97.9492 108.445ZM106.34 114L106.064 113.098H106.018C105.705 113.492 105.391 113.762 105.074 113.906C104.758 114.047 104.352 114.117 103.855 114.117C103.219 114.117 102.721 113.945 102.361 113.602C102.006 113.258 101.828 112.771 101.828 112.143C101.828 111.475 102.076 110.971 102.572 110.631C103.068 110.291 103.824 110.105 104.84 110.074L105.959 110.039V109.693C105.959 109.279 105.861 108.971 105.666 108.768C105.475 108.561 105.176 108.457 104.77 108.457C104.438 108.457 104.119 108.506 103.814 108.604C103.51 108.701 103.217 108.816 102.936 108.949L102.49 107.965C102.842 107.781 103.227 107.643 103.645 107.549C104.062 107.451 104.457 107.402 104.828 107.402C105.652 107.402 106.273 107.582 106.691 107.941C107.113 108.301 107.324 108.865 107.324 109.635V114H106.34ZM104.289 113.062C104.789 113.062 105.189 112.924 105.49 112.646C105.795 112.365 105.947 111.973 105.947 111.469V110.906L105.115 110.941C104.467 110.965 103.994 111.074 103.697 111.27C103.404 111.461 103.258 111.756 103.258 112.154C103.258 112.443 103.344 112.668 103.516 112.828C103.688 112.984 103.945 113.062 104.289 113.062ZM111.66 113.004C111.996 113.004 112.332 112.951 112.668 112.846V113.883C112.516 113.949 112.318 114.004 112.076 114.047C111.838 114.094 111.59 114.117 111.332 114.117C110.027 114.117 109.375 113.43 109.375 112.055V108.562H108.49V107.953L109.439 107.449L109.908 106.078H110.758V107.52H112.604V108.562H110.758V112.031C110.758 112.363 110.84 112.609 111.004 112.77C111.172 112.926 111.391 113.004 111.66 113.004ZM118.539 114L118.346 113.15H118.275C118.084 113.451 117.811 113.688 117.455 113.859C117.104 114.031 116.701 114.117 116.248 114.117C115.463 114.117 114.877 113.922 114.49 113.531C114.104 113.141 113.91 112.549 113.91 111.756V107.52H115.299V111.516C115.299 112.012 115.4 112.385 115.604 112.635C115.807 112.881 116.125 113.004 116.559 113.004C117.137 113.004 117.561 112.832 117.83 112.488C118.104 112.141 118.24 111.561 118.24 110.748V107.52H119.623V114H118.539ZM124.873 107.402C125.15 107.402 125.379 107.422 125.559 107.461L125.424 108.744C125.229 108.697 125.025 108.674 124.814 108.674C124.264 108.674 123.816 108.854 123.473 109.213C123.133 109.572 122.963 110.039 122.963 110.613V114H121.586V107.52H122.664L122.846 108.662H122.916C123.131 108.275 123.41 107.969 123.754 107.742C124.102 107.516 124.475 107.402 124.873 107.402ZM129.596 114.117C128.588 114.117 127.799 113.824 127.229 113.238C126.662 112.648 126.379 111.838 126.379 110.807C126.379 109.748 126.643 108.916 127.17 108.311C127.697 107.705 128.422 107.402 129.344 107.402C130.199 107.402 130.875 107.662 131.371 108.182C131.867 108.701 132.115 109.416 132.115 110.326V111.07H127.797C127.816 111.699 127.986 112.184 128.307 112.523C128.627 112.859 129.078 113.027 129.66 113.027C130.043 113.027 130.398 112.992 130.727 112.922C131.059 112.848 131.414 112.727 131.793 112.559V113.678C131.457 113.838 131.117 113.951 130.773 114.018C130.43 114.084 130.037 114.117 129.596 114.117ZM129.344 108.445C128.906 108.445 128.555 108.584 128.289 108.861C128.027 109.139 127.871 109.543 127.82 110.074H130.762C130.754 109.539 130.625 109.135 130.375 108.861C130.125 108.584 129.781 108.445 129.344 108.445ZM142.146 114H136.34V112.957L138.549 110.736C139.201 110.068 139.633 109.596 139.844 109.318C140.059 109.037 140.215 108.773 140.312 108.527C140.41 108.281 140.459 108.018 140.459 107.736C140.459 107.35 140.342 107.045 140.107 106.822C139.877 106.6 139.557 106.488 139.146 106.488C138.818 106.488 138.5 106.549 138.191 106.67C137.887 106.791 137.533 107.01 137.131 107.326L136.387 106.418C136.863 106.016 137.326 105.73 137.775 105.562C138.225 105.395 138.703 105.311 139.211 105.311C140.008 105.311 140.646 105.52 141.127 105.938C141.607 106.352 141.848 106.91 141.848 107.613C141.848 108 141.777 108.367 141.637 108.715C141.5 109.062 141.287 109.422 140.998 109.793C140.713 110.16 140.236 110.658 139.568 111.287L138.08 112.729V112.787H142.146V114Z" fill="#4A495E"/>
<path d="M123 72C122.448 72 122 71.5523 122 71C122 70.4477 122.448 70 123 70L123 72ZM165.293 114.707C164.902 114.317 164.902 113.683 165.293 113.293L171.657 106.929C172.047 106.538 172.681 106.538 173.071 106.929C173.462 107.319 173.462 107.953 173.071 108.343L167.414 114L173.071 119.657C173.462 120.047 173.462 120.681 173.071 121.071C172.681 121.462 172.047 121.462 171.657 121.071L165.293 114.707ZM123 70L196 70L196 72L123 72L123 70ZM207 81L207 104L205 104L205 81L207 81ZM196 115L166 115L166 113L196 113L196 115ZM207 104C207 110.075 202.075 115 196 115L196 113C200.971 113 205 108.971 205 104L207 104ZM196 70C202.075 70 207 74.9249 207 81L205 81C205 76.0294 200.971 72 196 72L196 70Z" fill="#C9D0E4"/>
<path d="M178.564 60.8677C178.564 61.5659 178.312 62.1138 177.807 62.5112C177.302 62.9087 176.606 63.1074 175.718 63.1074C174.83 63.1074 174.103 62.9696 173.537 62.6938V61.48C173.895 61.6483 174.275 61.7808 174.676 61.8774C175.08 61.9741 175.456 62.0225 175.804 62.0225C176.312 62.0225 176.686 61.9258 176.926 61.7324C177.17 61.5391 177.292 61.2795 177.292 60.9536C177.292 60.66 177.181 60.4111 176.958 60.207C176.736 60.0029 176.278 59.7612 175.583 59.4819C174.867 59.1919 174.362 58.8607 174.069 58.4883C173.775 58.1159 173.628 57.6683 173.628 57.1455C173.628 56.4902 173.861 55.9746 174.327 55.5986C174.792 55.2227 175.417 55.0347 176.201 55.0347C176.953 55.0347 177.701 55.1994 178.446 55.5288L178.038 56.5762C177.34 56.2826 176.717 56.1357 176.169 56.1357C175.754 56.1357 175.438 56.2271 175.224 56.4097C175.009 56.5887 174.901 56.8268 174.901 57.124C174.901 57.3281 174.944 57.5036 175.03 57.6504C175.116 57.7936 175.258 57.9297 175.455 58.0586C175.652 58.1875 176.006 58.3576 176.518 58.5688C177.095 58.8088 177.517 59.0326 177.786 59.2402C178.054 59.4479 178.251 59.6825 178.376 59.9438C178.502 60.2052 178.564 60.5132 178.564 60.8677ZM179.048 57.0596H180.423L181.631 60.4272C181.814 60.9071 181.936 61.3582 181.997 61.7808H182.04C182.072 61.5838 182.131 61.3457 182.217 61.0664C182.303 60.7835 182.757 59.4479 183.581 57.0596H184.945L182.405 63.7896C181.943 65.0249 181.173 65.6426 180.095 65.6426C179.816 65.6426 179.544 65.6121 179.279 65.5513V64.5522C179.469 64.5952 179.685 64.6167 179.929 64.6167C180.537 64.6167 180.965 64.264 181.212 63.5586L181.433 63L179.048 57.0596ZM191.074 63H189.806V59.3477C189.806 58.8893 189.713 58.5474 189.527 58.3218C189.344 58.0962 189.052 57.9834 188.651 57.9834C188.118 57.9834 187.728 58.141 187.48 58.4561C187.233 58.7712 187.11 59.2993 187.11 60.0405V63H185.848V57.0596H186.836L187.013 57.8384H187.078C187.257 57.5555 187.511 57.3371 187.84 57.1831C188.17 57.0291 188.535 56.9521 188.936 56.9521C190.361 56.9521 191.074 57.6772 191.074 59.1274V63ZM195.226 63.1074C194.327 63.1074 193.643 62.846 193.174 62.3232C192.708 61.7969 192.476 61.0431 192.476 60.062C192.476 59.063 192.719 58.2949 193.206 57.7578C193.697 57.2207 194.404 56.9521 195.328 56.9521C195.954 56.9521 196.518 57.0685 197.02 57.3013L196.638 58.3164C196.105 58.1087 195.664 58.0049 195.317 58.0049C194.289 58.0049 193.775 58.687 193.775 60.0513C193.775 60.7173 193.903 61.2186 194.157 61.5552C194.415 61.8882 194.791 62.0547 195.285 62.0547C195.847 62.0547 196.379 61.915 196.88 61.6357V62.7368C196.654 62.8693 196.413 62.9642 196.155 63.0215C195.901 63.0788 195.591 63.1074 195.226 63.1074Z" fill="#4A495E"/>
</svg>
