<?xml version="1.0" encoding="UTF-8"?>
<svg width="1200px" height="209px" viewBox="0 0 1200 209" version="1.1" xmlns="http://www.w3.org/2000/svg" xmlns:xlink="http://www.w3.org/1999/xlink">
    <!-- Generator: Sketch 51.2 (57519) - http://www.bohemiancoding.com/sketch -->
    <title>logo/ovh/baseline/BrandColor</title>
    <desc>Created with Sketch.</desc>
    <defs></defs>
    <g id="logo/ovh/baseline/BrandColor" stroke="none" stroke-width="1" fill="none" fill-rule="evenodd">
        <g id="BrandColor" fill="#113F6D" fill-rule="nonzero">
            <g id="Sigle">
                <path d="M327.8,11.6 L290.4,76.6 L251.1,76.6 L204.7,157.1 L244,157.1 L214.2,208.8 L311,208.8 C335.7,178.6 350.6,140 350.6,97.9 C350.5,66.5 342.2,37 327.8,11.6 Z" id="Shape"></path>
                <path d="M136.3,208.8 L256.5,0 L154.8,0 L85.5,120.4 L22.8,11.4 C8.3,37 0,66.4 0,97.9 C0,140 14.8,178.6 39.6,208.8 L136.3,208.8 Z" id="Shape"></path>
            </g>
            <g id="Typography" transform="translate(384.000000, 4.000000)">
                <path d="M0.2,62.3 C0.2,20.3 21.1,0.1 55.4,0.1 C89.8,0.1 110.6,20.3 110.6,62.3 C110.6,103.9 89.7,124.3 55.4,124.3 C21.1,124.3 0.2,103.9 0.2,62.3 Z M12.6,62.3 C12.6,96.8 28.4,113.3 55.4,113.3 C82.5,113.3 98.2,96.8 98.2,62.3 C98.2,27.6 82.4,11.1 55.4,11.1 C28.4,11.1 12.6,27.6 12.6,62.3 Z" id="Shape"></path>
                <path d="M205.5,5.1 C206,3.7 207.8,1.2 211.2,1.2 C214.6,1.2 217.2,3.9 217.2,7.2 C217.2,8.3 216.8,9.3 216.7,9.9 L175.3,119.1 C174.4,121.6 171.9,123.2 169.6,123.2 C167.3,123.2 164.8,121.6 163.9,119.1 L122.4,9.9 C122.2,9.4 121.9,8.3 121.9,7.2 C121.9,3.8 124.6,1.2 127.9,1.2 C131.3,1.2 133,3.7 133.6,5.1 L169.5,100.4 L205.5,5.1 Z" id="Shape"></path>
                <path d="M246.7,66.2 L246.7,117.2 C246.7,120.4 244,123.2 240.7,123.2 C237.4,123.2 234.7,120.4 234.7,117.2 L234.7,7.2 C234.7,4 237.4,1.2 240.7,1.2 C244,1.2 246.7,4 246.7,7.2 L246.7,55.2 L308.3,55.2 L308.3,7.2 C308.3,4 311,1.2 314.3,1.2 C317.7,1.2 320.3,4 320.3,7.2 L320.3,117.2 C320.3,120.4 317.6,123.2 314.3,123.2 C310.9,123.2 308.3,120.4 308.3,117.2 L308.3,66.2 L246.7,66.2 Z" id="Shape"></path>
            </g>
            <g id="Baseline" transform="translate(389.000000, 143.000000)">
                <path d="M6.9,61.9 C6.9,63.5 5.5,65 3.8,65 C2.1,65 0.7,63.6 0.7,61.9 L0.7,6 C0.7,4.4 2.1,2.9 3.8,2.9 C5.5,2.9 6.9,4.3 6.9,6 L6.9,61.9 Z" id="Shape"></path>
                <path d="M54.3,38 L54.3,62.1 C54.3,63.7 53,65 51.4,65 C49.8,65 48.5,63.7 48.5,62.1 L48.5,39.2 C48.5,32.1 46.4,27.2 37.7,27.2 C28.8,27.2 25.7,32.6 25.7,39.8 L25.7,62.1 C25.7,63.7 24.4,65 22.8,65 C21.2,65 19.9,63.7 19.9,62.1 L19.9,25.5 C19.9,23.9 21.2,22.6 22.8,22.6 C24.4,22.6 25.7,23.9 25.7,25.5 L25.7,28.4 C27.4,25 31.8,22.1 37.7,22.1 C51.6,22.1 54.3,30.4 54.3,38 Z" id="Shape"></path>
                <path d="M99.4,38 L99.4,62.1 C99.4,63.7 98.1,65 96.5,65 C94.9,65 93.6,63.7 93.6,62.1 L93.6,39.2 C93.6,32.1 91.5,27.2 82.8,27.2 C73.9,27.2 70.8,32.6 70.8,39.8 L70.8,62.1 C70.8,63.7 69.5,65 67.9,65 C66.3,65 65,63.7 65,62.1 L65,25.5 C65,23.9 66.3,22.6 67.9,22.6 C69.5,22.6 70.8,23.9 70.8,25.5 L70.8,28.4 C72.5,25 76.9,22.1 82.8,22.1 C96.7,22.1 99.4,30.4 99.4,38 Z" id="Shape"></path>
                <path d="M145.3,43.7 C145.3,58.5 138.1,65.4 126.4,65.4 C114.8,65.4 107.5,58.5 107.5,43.7 C107.5,28.9 114.8,22.1 126.4,22.1 C138.1,22.1 145.3,28.9 145.3,43.7 Z M139.5,43.7 C139.5,32.4 134.7,27.3 126.4,27.3 C118.1,27.3 113.3,32.3 113.3,43.7 C113.3,55.2 118.1,60.2 126.4,60.2 C134.7,60.2 139.5,55.2 139.5,43.7 Z" id="Shape"></path>
                <path d="M164.1,63.2 L148.8,26.8 C148.7,26.5 148.5,26.2 148.5,25.5 C148.5,23.9 149.8,22.6 151.4,22.6 C153,22.6 153.7,23.6 154.1,24.5 L166.8,55.6 L179.5,24.5 C179.9,23.6 180.6,22.6 182.2,22.6 C183.8,22.6 185.1,23.9 185.1,25.5 C185.1,26.1 184.9,26.5 184.8,26.8 L169.5,63.2 C169,64.4 168,65 166.8,65 C165.7,65 164.7,64.3 164.1,63.2 Z" id="Shape"></path>
                <path d="M197,32.1 C196.1,33.1 195.5,33.4 194.7,33.4 C193.3,33.4 192.1,32.2 192.1,30.8 C192.1,30.2 192.3,29.7 192.5,29.3 C195,25.3 199.9,22.2 207.5,22.2 C217.9,22.2 223.7,28.3 223.7,37.5 L223.7,62.3 C223.7,63.8 222.4,65.1 220.9,65.1 C219.4,65.1 218.1,63.8 218.1,62.3 L218.1,59.1 C215.8,63.3 210.6,65.6 205.2,65.6 C195.6,65.6 189.6,61 189.6,52.7 C189.6,44.8 195.6,40 205.4,40 L218.1,40 L218.1,37.6 C218.1,31.5 214,27.7 207.5,27.7 C202.7,27.5 199.8,28.9 197,32.1 Z M218.1,48.7 L218.1,44.9 L205.4,44.9 C199.5,44.9 195.5,47.3 195.5,52.6 C195.5,57.3 198.7,60.3 205.8,60.3 C212.1,60.2 218.1,56.3 218.1,48.7 Z" id="Shape"></path>
                <path d="M236.7,13.9 C236.7,12.4 238.1,11 239.6,11 C241.2,11 242.5,12.4 242.5,13.9 L242.5,23.4 L248.4,23.4 C249.9,23.4 251.1,24.6 251.1,26.1 C251.1,27.6 249.9,28.8 248.4,28.8 L242.5,28.8 L242.5,53.7 C242.5,57.6 244.7,59.6 247.7,59.6 C249.2,59.6 250.5,60.8 250.5,62.3 C250.5,63.8 249.2,65 247.7,65 C240.6,65 236.7,60.2 236.7,53.6 L236.7,28.7 L233.2,28.7 C231.7,28.7 230.5,27.5 230.5,26 C230.5,24.5 231.7,23.3 233.2,23.3 L236.7,23.3 L236.7,13.9 Z" id="Shape"></path>
                <path d="M259,10.7 C259,8.1 260.3,7.1 262.4,7.1 C264.6,7.1 265.8,8.1 265.8,10.7 C265.8,12.9 264.5,14.1 262.4,14.1 C260.3,14.2 259,12.9 259,10.7 Z M265.3,62.1 C265.3,63.7 264,65 262.4,65 C260.8,65 259.5,63.7 259.5,62.1 L259.5,25.5 C259.5,23.9 260.8,22.6 262.4,22.6 C264,22.6 265.3,23.9 265.3,25.5 L265.3,62.1 Z" id="Shape"></path>
                <path d="M312.1,43.7 C312.1,58.5 304.9,65.4 293.2,65.4 C281.6,65.4 274.3,58.5 274.3,43.7 C274.3,28.9 281.6,22.1 293.2,22.1 C304.9,22.1 312.1,28.9 312.1,43.7 Z M306.3,43.7 C306.3,32.4 301.5,27.3 293.2,27.3 C284.9,27.3 280.1,32.3 280.1,43.7 C280.1,55.2 284.9,60.2 293.2,60.2 C301.5,60.2 306.3,55.2 306.3,43.7 Z" id="Shape"></path>
                <path d="M355.5,38 L355.5,62.1 C355.5,63.7 354.2,65 352.6,65 C351,65 349.7,63.7 349.7,62.1 L349.7,39.2 C349.7,32.1 347.6,27.2 338.9,27.2 C330,27.2 326.9,32.6 326.9,39.8 L326.9,62.1 C326.9,63.7 325.6,65 324,65 C322.4,65 321.1,63.7 321.1,62.1 L321.1,25.5 C321.1,23.9 322.4,22.6 324,22.6 C325.6,22.6 326.9,23.9 326.9,25.5 L326.9,28.4 C328.6,25 333,22.1 338.9,22.1 C352.8,22.1 355.5,30.4 355.5,38 Z" id="Shape"></path>
                <path d="M386.5,28.8 C385,28.8 383.8,27.6 383.8,26.1 C383.8,24.6 385,23.4 386.5,23.4 L389.6,23.4 L389.6,18 C389.6,9.9 394.2,2.5 405.2,2.5 C406.7,2.5 407.9,3.7 407.9,5.2 C407.9,6.7 406.7,7.9 405.2,7.9 C398.2,7.9 395.4,12.1 395.4,18 L395.4,23.3 L403.6,23.3 C405.1,23.3 406.3,24.5 406.3,26 C406.3,27.5 405.1,28.7 403.6,28.7 L395.4,28.7 L395.4,62 C395.4,63.6 394.1,64.9 392.5,64.9 C390.9,64.9 389.6,63.6 389.6,62 L389.6,28.7 L386.5,28.7 L386.5,28.8 Z" id="Shape"></path>
                <path d="M448.4,43.7 C448.4,58.5 441.2,65.4 429.5,65.4 C417.9,65.4 410.6,58.5 410.6,43.7 C410.6,28.9 417.9,22.1 429.5,22.1 C441.2,22.1 448.4,28.9 448.4,43.7 Z M442.6,43.7 C442.6,32.4 437.8,27.3 429.5,27.3 C421.2,27.3 416.4,32.3 416.4,43.7 C416.4,55.2 421.2,60.2 429.5,60.2 C437.8,60.2 442.6,55.2 442.6,43.7 Z" id="Shape"></path>
                <path d="M463.2,29.5 C465,25.4 469.5,22.3 475.7,22.3 C477.2,22.3 478.5,23.6 478.5,25.1 C478.5,26.6 477.2,27.9 475.7,27.9 C467.4,27.9 463.2,33.7 463.2,42 L463.2,62.2 C463.2,63.8 461.9,65.1 460.3,65.1 C458.7,65.1 457.4,63.8 457.4,62.2 L457.4,25.6 C457.4,24 458.7,22.7 460.3,22.7 C461.9,22.7 463.2,24 463.2,25.6 L463.2,29.5 Z" id="Shape"></path>
                <path d="M514.2,61.9 C514.2,63.6 512.8,65 511.1,65 C509.4,65 508,63.6 508,61.9 L508,6.7 C508,5 509.4,3.6 511.1,3.6 L540,3.6 C541.5,3.6 542.8,4.9 542.8,6.4 C542.8,7.9 541.5,9.2 540,9.2 L514.1,9.2 L514.1,31.6 L534,31.6 C535.5,31.6 536.8,32.9 536.8,34.4 C536.8,35.9 535.5,37.2 534,37.2 L514.2,37.2 L514.2,61.9 Z" id="Shape"></path>
                <path d="M554.6,29.5 C556.4,25.4 560.9,22.3 567.1,22.3 C568.6,22.3 569.9,23.6 569.9,25.1 C569.9,26.6 568.6,27.9 567.1,27.9 C558.8,27.9 554.6,33.7 554.6,42 L554.6,62.2 C554.6,63.8 553.3,65.1 551.7,65.1 C550.1,65.1 548.8,63.8 548.8,62.2 L548.8,25.6 C548.8,24 550.1,22.7 551.7,22.7 C553.3,22.7 554.6,24 554.6,25.6 L554.6,29.5 Z" id="Shape"></path>
                <path d="M591.7,22.1 C606.1,22.1 608.9,33.5 608.9,39.7 C608.9,42.3 608.9,45.5 605.3,45.5 L579,45.5 C579,54.4 584.1,60.2 592.6,60.2 C597.8,60.2 600.9,58.2 603.4,56.3 C603.9,55.9 604.3,55.8 605,55.8 C606.4,55.8 607.6,57 607.6,58.4 C607.6,59.4 607.1,59.9 606.6,60.5 C605.2,61.9 600.6,65.5 592.5,65.5 C580.5,65.5 573,58.9 573,43.8 C573.1,29.8 579.9,22.1 591.7,22.1 Z M591.7,27.3 C583.9,27.3 579.5,32.3 579,40.4 L603.2,40.4 C603.2,33.9 600.9,27.3 591.7,27.3 Z" id="Shape"></path>
                <path d="M633.6,22.1 C648,22.1 650.8,33.5 650.8,39.7 C650.8,42.3 650.8,45.5 647.2,45.5 L620.9,45.5 C620.9,54.4 626,60.2 634.5,60.2 C639.7,60.2 642.8,58.2 645.3,56.3 C645.8,55.9 646.2,55.8 646.9,55.8 C648.3,55.8 649.5,57 649.5,58.4 C649.5,59.4 649.1,59.9 648.5,60.5 C647.2,61.9 642.5,65.5 634.4,65.5 C622.4,65.5 614.9,58.9 614.9,43.8 C615.1,29.8 621.9,22.1 633.6,22.1 Z M633.6,27.3 C625.8,27.3 621.4,32.3 620.9,40.4 L645.1,40.4 C645.2,33.9 642.9,27.3 633.6,27.3 Z" id="Shape"></path>
                <path d="M687.4,27.9 L687.4,2.9 C687.4,1.3 688.7,0 690.3,0 C691.9,0 693.2,1.3 693.2,2.9 L693.2,47.6 C693.2,59.5 685.8,65.3 675.5,65.3 C663.9,65.3 657,58.4 657,43.6 C657,28.8 663.5,22 675.1,22 C680.9,22.1 685.3,25.1 687.4,27.9 Z M687.4,35.2 C687.4,35.2 684,27.3 675.5,27.3 C667.3,27.3 662.8,32.6 662.8,43.7 C662.8,55 667.2,60.2 675.5,60.2 C682.4,60.2 687.4,56.2 687.4,47.7 L687.4,35.2 Z" id="Shape"></path>
                <path d="M740,43.7 C740,58.5 732.8,65.4 721.1,65.4 C709.5,65.4 702.2,58.5 702.2,43.7 C702.2,28.9 709.5,22.1 721.1,22.1 C732.8,22.1 740,28.9 740,43.7 Z M734.2,43.7 C734.2,32.4 729.4,27.3 721.1,27.3 C712.8,27.3 708,32.3 708,43.7 C708,55.2 712.8,60.2 721.1,60.2 C729.4,60.2 734.2,55.2 734.2,43.7 Z" id="Shape"></path>
                <path d="M811,38 L811,62.1 C811,63.7 809.7,65 808.1,65 C806.5,65 805.2,63.7 805.2,62.1 L805.2,39.2 C805.2,32.1 802.7,27.2 793.9,27.2 C786.2,27.2 782.6,31.3 782.6,38 L782.6,62.1 C782.6,63.7 781.3,65 779.7,65 C778.1,65 776.8,63.7 776.8,62.1 L776.8,39.2 C776.8,32.1 774.6,27.2 765.7,27.2 C757.3,27.2 754.6,32.2 754.6,39.8 L754.6,62.1 C754.6,63.7 753.3,65 751.7,65 C750.1,65 748.8,63.7 748.8,62.1 L748.8,25.5 C748.8,23.9 750.1,22.6 751.7,22.6 C753.3,22.6 754.6,23.9 754.6,25.5 L754.6,28.4 C756.1,25.1 760.5,22.1 766.3,22.1 C773.7,22.1 778.5,24.8 780.6,28.4 C782.9,24.9 786.8,22.1 793.8,22.1 C807.8,22.1 811,30.4 811,38 Z" id="Shape"></path>
            </g>
        </g>
    </g>
</svg>