<svg version="1.1" xmlns="http://www.w3.org/2000/svg" viewBox="0 0 981.0687410737019 859.2115827131129" width="981.0687410737019" height="859.2115827131129">
  <!-- svg-source:excalidraw -->
  
  <defs>
    <style class="style-fonts">
      @font-face {
        font-family: "Virgil";
        src: url("https://excalidraw.com/Virgil.woff2");
      }
      @font-face {
        font-family: "Cascadia";
        src: url("https://excalidraw.com/Cascadia.woff2");
      }
    </style>
  </defs>
  <rect x="0" y="0" width="981.0687410737019" height="859.2115827131129" fill="#ffffff"></rect><g stroke-linecap="round" transform="translate(145.8535259260948 270.3349811577534) rotate(0 393 279)"><path d="M33.86 -0.94 L755.92 -0.84 L761.74 -1.3 L772.87 6.09 L781.25 10.71 L782.99 19.17 L785.07 32.56 L787.65 526.19 L784.75 531.85 L780.09 546.05 L773.23 553.8 L767.43 555.8 L752.31 556.76 L32.17 557.1 L23.68 559.21 L11.67 552.73 L5.38 546.25 L3.18 540.6 L0.36 525.1 L1.32 31.26 L2.91 17.6 L9.09 6.86 L18.23 2.75 L32.34 -1.3" stroke="none" stroke-width="0" fill="#000e9c"></path><path d="M32 0 M32 0 C190.01 -1.23, 347.06 -1.66, 754 0 M32 0 C189.05 1.04, 345.92 1.28, 754 0 M754 0 C776.13 0.98, 785.32 11.04, 786 32 M754 0 C773.8 -2.11, 785.43 11.01, 786 32 M786 32 C785.29 208.33, 786 383.98, 786 526 M786 32 C786.01 229.16, 786.31 427.09, 786 526 M786 526 C787.28 546.78, 773.62 558.88, 754 558 M786 526 C787.38 546.94, 773.68 559.11, 754 558 M754 558 C489.95 554.4, 226.68 554.89, 32 558 M754 558 C579.03 559.38, 404.18 559.45, 32 558 M32 558 C9.38 557.86, -1.6 546.63, 0 526 M32 558 C8.41 558.52, -0.8 545.6, 0 526 M0 526 C-0.31 427.5, -0.44 328.56, 0 32 M0 526 C-1.03 392.92, -0.77 260.45, 0 32 M0 32 C-1.58 12.08, 10.98 1.65, 32 0 M0 32 C-1.24 10.23, 8.69 -0.88, 32 0" stroke="white" stroke-width="1" fill="none"></path></g><g transform="translate(150.8535259260948 275.3349811577534) rotate(0 133.38333129882812 12.5)"><text x="0" y="0" font-family="Virgil, Segoe UI Emoji" font-size="20px" fill="white" text-anchor="start" style="white-space: pre;" direction="ltr" dominant-baseline="text-before-edge">Listener_1: protocol + port</text></g><g stroke-linecap="round" transform="translate(96.39151344687116 223.78249882436626) rotate(0 393 279)"><path d="M33.86 -0.94 L755.92 -0.84 L761.74 -1.3 L772.87 6.09 L781.25 10.71 L782.99 19.17 L785.07 32.56 L787.65 526.19 L784.75 531.85 L780.09 546.05 L773.23 553.8 L767.43 555.8 L752.31 556.76 L32.17 557.1 L23.68 559.21 L11.67 552.73 L5.38 546.25 L3.18 540.6 L0.36 525.1 L1.32 31.26 L2.91 17.6 L9.09 6.86 L18.23 2.75 L32.34 -1.3" stroke="none" stroke-width="0" fill="#000e9c"></path><path d="M32 0 M32 0 C190.01 -1.23, 347.06 -1.66, 754 0 M32 0 C189.05 1.04, 345.92 1.28, 754 0 M754 0 C776.13 0.98, 785.32 11.04, 786 32 M754 0 C773.8 -2.11, 785.43 11.01, 786 32 M786 32 C785.29 208.33, 786 383.98, 786 526 M786 32 C786.01 229.16, 786.31 427.09, 786 526 M786 526 C787.28 546.78, 773.62 558.88, 754 558 M786 526 C787.38 546.94, 773.68 559.11, 754 558 M754 558 C489.95 554.4, 226.68 554.89, 32 558 M754 558 C579.03 559.38, 404.18 559.45, 32 558 M32 558 C9.38 557.86, -1.6 546.63, 0 526 M32 558 C8.41 558.52, -0.8 545.6, 0 526 M0 526 C-0.31 427.5, -0.44 328.56, 0 32 M0 526 C-1.03 392.92, -0.77 260.45, 0 32 M0 32 C-1.58 12.08, 10.98 1.65, 32 0 M0 32 C-1.24 10.23, 8.69 -0.88, 32 0" stroke="white" stroke-width="1" fill="none"></path></g><g transform="translate(101.39151344687116 228.78249882436626) rotate(0 133.38333129882812 12.5)"><text x="0" y="0" font-family="Virgil, Segoe UI Emoji" font-size="20px" fill="white" text-anchor="start" style="white-space: pre;" direction="ltr" dominant-baseline="text-before-edge">Listener_1: protocol + port</text></g><g stroke-linecap="round"><g transform="translate(372.4062607789456 307.6959758352234) rotate(0 -0.000013571819408753072 -0.0000024407986529695336)"><path d="M0 0 C0 0, 0 0, 0 0 M0 0 C0 0, 0 0, 0 0" stroke="white" stroke-width="2" fill="none"></path></g></g><mask></mask><g stroke-linecap="round"><g transform="translate(73.78534289617528 669.3808778556144) rotate(0 -0.26925540514582735 66.0556759792355)"><path d="M0 0 C-0.09 22.02, -0.45 110.09, -0.54 132.11 M0 0 C-0.09 22.02, -0.45 110.09, -0.54 132.11" stroke="white" stroke-width="2" fill="none"></path></g></g><mask></mask><g stroke-linecap="round" transform="translate(10 102.87604745583963) rotate(0 480.53437053685093 373.1677676286366)"><path d="M7.86 8.16 C7.86 8.16, 7.86 8.16, 7.86 8.16 M7.86 8.16 C7.86 8.16, 7.86 8.16, 7.86 8.16 M3.66 19.09 C8.72 14.85, 15.01 6.94, 18.1 2.48 M3.66 19.09 C8.6 13.37, 13.67 7.15, 18.1 2.48 M2.75 26.24 C10.1 18.01, 16.73 8.17, 24.4 1.33 M2.75 26.24 C7.11 20.52, 13.44 13.24, 24.4 1.33 M1.83 33.39 C11.56 24.56, 21.35 11.3, 30.7 0.18 M1.83 33.39 C8.49 25.95, 13.61 19.78, 30.7 0.18 M1.57 39.79 C12.57 29.07, 23.4 15.77, 34.37 2.05 M1.57 39.79 C12.49 27.88, 23.49 15.16, 34.37 2.05 M1.96 45.43 C11.79 32.91, 19.86 24.07, 39.36 2.41 M1.96 45.43 C9.9 36.29, 19 24.8, 39.36 2.41 M1.7 51.83 C13.34 36.21, 24.55 23.47, 45 2.02 M1.7 51.83 C15.85 34.26, 29.79 18.12, 45 2.02 M1.44 58.23 C18.12 35.87, 38.84 15.53, 49.99 2.38 M1.44 58.23 C18 39.78, 36.33 19.77, 49.99 2.38 M1.83 63.87 C21.95 39.5, 41.14 18.37, 55.63 1.98 M1.83 63.87 C23.02 38.61, 44.14 14.22, 55.63 1.98 M1.57 70.27 C24.47 44.12, 50.73 15.37, 60.62 2.34 M1.57 70.27 C13.92 55.71, 26.24 41.42, 60.62 2.34 M1.97 75.91 C17.47 60.4, 30.49 42.34, 66.26 1.95 M1.97 75.91 C19.11 55.13, 38.08 35.45, 66.26 1.95 M1.71 82.31 C17.82 64.63, 35.01 43.13, 71.25 2.31 M1.71 82.31 C21.22 59.59, 39.9 37.96, 71.25 2.31 M1.44 88.71 C17.77 70.07, 32.28 53.37, 76.89 1.91 M1.44 88.71 C18.03 70.34, 33.72 52.54, 76.89 1.91 M1.84 94.35 C27.79 67.65, 53 37.03, 81.88 2.27 M1.84 94.35 C32.47 58.31, 63.98 23.67, 81.88 2.27 M1.58 100.75 C35.96 62.31, 65.92 25.73, 87.52 1.88 M1.58 100.75 C35.37 60.48, 70.56 21.1, 87.52 1.88 M1.97 106.39 C23.39 81.54, 41.14 61.93, 92.51 2.24 M1.97 106.39 C33.02 70.3, 62.49 36.63, 92.51 2.24 M1.71 112.79 C28.68 82.46, 55.2 50.72, 98.15 1.85 M1.71 112.79 C32.29 78.23, 63.45 42.6, 98.15 1.85 M1.45 119.19 C32.12 86.18, 59.87 52.52, 103.14 2.21 M1.45 119.19 C31.54 83.71, 63.31 50.24, 103.14 2.21 M1.84 124.83 C40.05 84.07, 75.08 41.26, 108.78 1.81 M1.84 124.83 C26 95.67, 48.78 69.16, 108.78 1.81 M1.58 131.23 C23.25 106.32, 47.7 76.3, 113.77 2.17 M1.58 131.23 C27.24 98.9, 55.89 67.05, 113.77 2.17 M1.98 136.87 C42.24 91.29, 80.75 45.48, 119.41 1.78 M1.98 136.87 C31.14 102.32, 61.16 68.21, 119.41 1.78 M1.72 143.27 C49.65 88.39, 99.58 30.48, 124.4 2.14 M1.72 143.27 C36.81 102.56, 73.14 61.69, 124.4 2.14 M1.45 149.67 C40.62 107.14, 77.97 61.71, 130.04 1.74 M1.45 149.67 C40.23 102.31, 80.78 55.44, 130.04 1.74 M1.85 155.31 C38.45 112.96, 71.52 73.29, 135.03 2.1 M1.85 155.31 C52.39 96.85, 101.24 39.35, 135.03 2.1 M1.59 161.71 C53.24 102.19, 104.87 44.74, 140.67 1.71 M1.59 161.71 C54.26 97.99, 109 35.15, 140.67 1.71 M1.98 167.35 C45.52 115.19, 90.99 65.85, 145.66 2.07 M1.98 167.35 C52.35 109.79, 101.56 51.77, 145.66 2.07 M1.72 173.75 C57.49 108.02, 113.16 47.31, 150.65 2.43 M1.72 173.75 C39.28 131.87, 75.43 89.75, 150.65 2.43 M1.46 180.14 C38.08 138.81, 72.1 96.91, 156.29 2.03 M1.46 180.14 C51.03 125.25, 99.26 68.63, 156.29 2.03 M1.85 185.79 C45.95 135.28, 89.15 84.37, 161.28 2.39 M1.85 185.79 C54.83 125.25, 107.28 65.14, 161.28 2.39 M1.59 192.19 C38.98 148.03, 80.64 100.36, 166.92 2 M1.59 192.19 C48.63 141.32, 93.46 88.93, 166.92 2 M1.99 197.83 C54.02 139.5, 104.14 83.77, 171.91 2.36 M1.99 197.83 C41.9 149.35, 82.84 102.49, 171.91 2.36 M1.72 204.23 C56.33 138.47, 113.59 75.36, 177.55 1.96 M1.72 204.23 C50.45 147.48, 98.25 92.31, 177.55 1.96 M1.46 210.62 C73.49 130.35, 142.52 49.78, 182.54 2.32 M1.46 210.62 C52.19 151.39, 104.56 92.75, 182.54 2.32 M1.86 216.27 C71.77 131.06, 144.55 50.02, 188.18 1.93 M1.86 216.27 C56.62 156.42, 109.06 95.4, 188.18 1.93 M1.6 222.66 C72.04 144.24, 141.96 63.4, 193.17 2.29 M1.6 222.66 C64.19 152.48, 125.12 81.57, 193.17 2.29 M1.99 228.31 C68.08 154.64, 133.07 79.72, 198.81 1.9 M1.99 228.31 C60.47 160.69, 120.27 92.94, 198.81 1.9 M1.73 234.71 C77.99 146.1, 153.79 58.86, 203.8 2.26 M1.73 234.71 C60.73 165.13, 122.95 95.12, 203.8 2.26 M1.47 241.1 C71.39 161.95, 139.36 80.54, 209.44 1.86 M1.47 241.1 C49.79 184.5, 98.46 128.43, 209.44 1.86 M1.86 246.75 C53.64 187.75, 103.45 127.89, 214.43 2.22 M1.86 246.75 C74.73 160.81, 148.64 76.28, 214.43 2.22 M1.6 253.14 C48.85 202.11, 92.46 151.52, 220.07 1.83 M1.6 253.14 C54.49 189.94, 108.52 127.56, 220.07 1.83 M2 258.79 C69.38 179.09, 137.55 101.13, 225.06 2.19 M2 258.79 C57.28 193.45, 114.49 128.63, 225.06 2.19 M1.73 265.19 C53.94 202.23, 107.12 143.07, 230.7 1.79 M1.73 265.19 C47.68 209.31, 95.72 154.45, 230.7 1.79 M1.47 271.58 C89.33 167.66, 179.29 67.09, 235.69 2.15 M1.47 271.58 C49.28 217.45, 95.6 162.93, 235.69 2.15 M1.87 277.23 C72.15 194.69, 145.54 111.48, 241.33 1.76 M1.87 277.23 C52.15 217.22, 104.37 157.54, 241.33 1.76 M1.61 283.62 C50.88 224.24, 103.04 163.74, 246.32 2.12 M1.61 283.62 C61.72 218.58, 119.59 151.57, 246.32 2.12 M2 289.27 C51.96 230.59, 102.59 171.83, 251.96 1.72 M2 289.27 C77.93 202.88, 152.34 117.08, 251.96 1.72 M1.74 295.66 C101.95 180.04, 202.55 64.49, 256.95 2.08 M1.74 295.66 C100.14 179.66, 200.39 63.64, 256.95 2.08 M1.48 302.06 C84.54 203.52, 169.67 105.3, 262.59 1.69 M1.48 302.06 C82.81 207.44, 164.14 112.94, 262.59 1.69 M1.87 307.71 C75.9 219.08, 153.38 130.31, 267.58 2.05 M1.87 307.71 C101.56 193.61, 200.2 80.55, 267.58 2.05 M1.61 314.1 C96.58 204.52, 191.18 94.58, 272.56 2.41 M1.61 314.1 C65.81 239.14, 129.5 166.16, 272.56 2.41 M2.01 319.75 C80.71 230.37, 160.3 140.46, 278.21 2.01 M2.01 319.75 C71.45 237.57, 141.56 156.52, 278.21 2.01 M1.74 326.14 C105.56 206.18, 208.78 86.95, 283.19 2.37 M1.74 326.14 C80.39 236.67, 159.3 146.24, 283.19 2.37 M1.48 332.54 C96.63 224.74, 189.95 114.83, 288.84 1.98 M1.48 332.54 C116.69 200.44, 231.65 68.48, 288.84 1.98 M1.88 338.19 C104.38 220.02, 207.59 100.31, 293.82 2.34 M1.88 338.19 C109 213.63, 217.56 88.81, 293.82 2.34 M1.62 344.58 C66.09 271.74, 130.59 198.31, 299.47 1.94 M1.62 344.58 C104.06 227.51, 206.23 109.34, 299.47 1.94 M2.01 350.23 C89.42 248.1, 176.97 148.52, 304.45 2.3 M2.01 350.23 C85.02 253, 169.6 155.65, 304.45 2.3 M1.75 356.62 C92.45 255.82, 179.9 153.88, 310.1 1.91 M1.75 356.62 C92.17 251.88, 182.7 146.67, 310.1 1.91 M1.49 363.02 C84.08 270.87, 164.88 176.41, 315.08 2.27 M1.49 363.02 C90.86 260.15, 180.78 157.46, 315.08 2.27 M1.88 368.66 C107.85 246.58, 213.78 123.99, 320.73 1.88 M1.88 368.66 C79.69 278.33, 157.92 189.29, 320.73 1.88 M1.62 375.06 C110.55 250.97, 218.06 125.47, 325.71 2.24 M1.62 375.06 C100.55 262.04, 199.27 149.93, 325.71 2.24 M2.02 380.71 C98.61 267.05, 196.26 155.03, 331.36 1.84 M2.02 380.71 C86.92 284.39, 170.08 188.53, 331.36 1.84 M1.75 387.1 C101.38 274.79, 199.49 160.31, 336.34 2.2 M1.75 387.1 C125.97 242.7, 250.63 99.04, 336.34 2.2 M1.49 393.5 C124.73 251.07, 246.97 110.26, 341.99 1.81 M1.49 393.5 C124.16 250.14, 247.73 108.13, 341.99 1.81 M1.89 399.14 C111.47 274.12, 218.68 149.5, 346.97 2.17 M1.89 399.14 C125.96 254.4, 252.27 110.02, 346.97 2.17 M1.63 405.54 C94.77 296.99, 189.14 188.44, 352.62 1.77 M1.63 405.54 C103.7 286.65, 205.87 168.54, 352.62 1.77 M2.02 411.18 C96.22 304.02, 190.22 195.37, 357.6 2.13 M2.02 411.18 C97.36 302.45, 192.05 193.97, 357.6 2.13 M1.76 417.58 C142.59 255.03, 285.07 91.05, 363.25 1.74 M1.76 417.58 C121.81 278.37, 243.17 139.08, 363.25 1.74 M1.5 423.98 C82.5 332.49, 160.8 240.79, 368.23 2.1 M1.5 423.98 C112.9 298.04, 223.96 170.72, 368.23 2.1 M1.89 429.62 C106.31 310.19, 209.75 191.21, 373.88 1.7 M1.89 429.62 C98.32 318.39, 195.57 206.73, 373.88 1.7 M1.63 436.02 C129.59 289.17, 258.42 141.78, 378.86 2.06 M1.63 436.02 C84.58 342.99, 165.36 249.01, 378.86 2.06 M2.02 441.66 C117.26 309.48, 230.85 178.7, 383.85 2.42 M2.02 441.66 C85.39 345.9, 167.3 250.73, 383.85 2.42 M1.76 448.06 C82.33 356.5, 161.01 263.93, 389.49 2.03 M1.76 448.06 C149.65 276.95, 297.42 107.43, 389.49 2.03 M1.5 454.46 C154.93 277.05, 307.97 102.49, 394.48 2.39 M1.5 454.46 C89.19 352.35, 178.34 250.39, 394.48 2.39 M1.9 460.1 C113.02 334.04, 224.25 206.22, 400.12 1.99 M1.9 460.1 C118.33 324.78, 236.5 189.51, 400.12 1.99 M1.64 466.5 C132.05 315.61, 261.89 165.56, 405.11 2.35 M1.64 466.5 C120.53 330.53, 237.71 195.33, 405.11 2.35 M2.03 472.14 C91.89 366.3, 183.7 262.53, 410.75 1.96 M2.03 472.14 C119.26 336.84, 237.62 200.43, 410.75 1.96 M1.77 478.54 C96.38 366.53, 191.71 257.06, 415.74 2.32 M1.77 478.54 C118.76 343.37, 237.51 207.18, 415.74 2.32 M1.51 484.94 C86.58 389.54, 170.17 292.92, 421.38 1.93 M1.51 484.94 C90.21 381.6, 179.69 278.91, 421.38 1.93 M1.9 490.58 C122.59 351.85, 243.93 211.23, 426.37 2.29 M1.9 490.58 C116.18 359.05, 229.36 229.34, 426.37 2.29 M1.64 496.98 C163.32 311.42, 324.98 124.08, 432.01 1.89 M1.64 496.98 C149.34 327.22, 296.57 158.15, 432.01 1.89 M2.03 502.62 C94.99 396.63, 186.83 289.63, 437 2.25 M2.03 502.62 C157.95 321.65, 314.35 141.63, 437 2.25 M1.77 509.02 C95.54 403.35, 187.72 295.97, 442.64 1.86 M1.77 509.02 C128.3 361.79, 255.23 216.12, 442.64 1.86 M1.51 515.42 C173.46 320.43, 342.98 123.1, 447.63 2.22 M1.51 515.42 C123.65 373.89, 246.73 232.8, 447.63 2.22 M1.91 521.06 C166.68 333.03, 328.93 144.38, 453.27 1.82 M1.91 521.06 C127.34 374.52, 253.44 229.64, 453.27 1.82 M1.64 527.46 C145.6 362.17, 290.41 196.64, 458.26 2.18 M1.64 527.46 C181.37 318.7, 361.21 111.47, 458.26 2.18 M2.04 533.1 C180.79 330.01, 358.27 125.64, 463.9 1.79 M2.04 533.1 C129.71 386.49, 257.31 238.86, 463.9 1.79 M1.78 539.5 C181.57 334.34, 361.05 128.04, 468.89 2.15 M1.78 539.5 C130.4 389.67, 260.1 240.59, 468.89 2.15 M1.52 545.9 C115.09 416.42, 227.93 287.32, 474.53 1.75 M1.52 545.9 C127.51 400.83, 252.94 256.34, 474.53 1.75 M1.91 551.54 C147.23 386.2, 291.08 222.21, 479.52 2.11 M1.91 551.54 C174.16 353.86, 345.94 157.12, 479.52 2.11 M1.65 557.94 C181.53 349.65, 362.83 141.6, 485.17 1.72 M1.65 557.94 C171.51 360.8, 343.73 163.11, 485.17 1.72 M2.04 563.58 C118.59 432, 231.87 301.68, 490.15 2.08 M2.04 563.58 C124.17 419.83, 248.4 277.43, 490.15 2.08 M1.78 569.98 C125.45 430.41, 245.99 290.71, 495.8 1.68 M1.78 569.98 C144.75 407.81, 286.34 244.3, 495.8 1.68 M1.52 576.38 C148.79 404.68, 296.16 234.23, 500.78 2.04 M1.52 576.38 C124.91 433.62, 249.92 290.41, 500.78 2.04 M1.92 582.02 C107.6 461.06, 210.09 342.83, 505.77 2.4 M1.92 582.02 C164.17 394.55, 328.22 206.07, 505.77 2.4 M1.65 588.42 C129.55 439.96, 258.48 290.28, 511.41 2.01 M1.65 588.42 C112.36 465.27, 220.72 340.16, 511.41 2.01 M2.05 594.06 C106.2 476.3, 210.04 357.74, 516.4 2.37 M2.05 594.06 C186 378.47, 371.68 165.21, 516.4 2.37 M1.79 600.46 C112.56 470.67, 224.64 343.43, 522.04 1.98 M1.79 600.46 C150.9 429.88, 299.87 258.52, 522.04 1.98 M1.53 606.86 C146.47 439.76, 293.47 269.42, 527.03 2.34 M1.53 606.86 C113.93 480.27, 225.68 351.61, 527.03 2.34 M1.92 612.5 C182.56 404.58, 361.74 199.85, 532.67 1.94 M1.92 612.5 C206.77 375.05, 412.55 137.75, 532.67 1.94 M1.66 618.9 C157.5 439.57, 311.59 260.58, 537.66 2.3 M1.66 618.9 C177.42 417.78, 351.13 217.57, 537.66 2.3 M2.05 624.54 C182.48 417.1, 363.33 210.4, 543.3 1.91 M2.05 624.54 C175.29 425.95, 346.21 229.86, 543.3 1.91 M1.79 630.94 C207.29 398.5, 411.16 163.58, 548.29 2.27 M1.79 630.94 C148.02 459.6, 295.75 290.36, 548.29 2.27 M1.53 637.34 C197.12 411.55, 393.46 186.66, 553.93 1.87 M1.53 637.34 C131.45 487.44, 263.47 336.21, 553.93 1.87 M1.93 642.98 C154.54 464, 308.31 287.89, 558.92 2.23 M1.93 642.98 C139.07 485.81, 275.16 329.61, 558.92 2.23 M1.66 649.38 C177.15 446.37, 352.44 245.32, 564.56 1.84 M1.66 649.38 C116.37 514.82, 232.28 380.55, 564.56 1.84 M1.4 655.78 C134.78 501.68, 269.44 346.76, 569.55 2.2 M1.4 655.78 C213.09 411.3, 425.3 167.69, 569.55 2.2 M1.8 661.42 C205.97 430.34, 408.8 196.99, 575.19 1.8 M1.8 661.42 C144.71 497.16, 285.02 335.8, 575.19 1.8 M1.54 667.82 C175.48 467.51, 348.89 268.68, 580.18 2.16 M1.54 667.82 C120.61 527.42, 240.8 389.44, 580.18 2.16 M1.93 673.46 C227.91 413.96, 450.96 157.79, 585.82 1.77 M1.93 673.46 C152.79 501, 302.39 328.47, 585.82 1.77 M1.67 679.86 C237.3 408.2, 471.33 138.01, 590.81 2.13 M1.67 679.86 C132.23 527.78, 264.89 374.99, 590.81 2.13 M1.41 686.26 C210.37 447.98, 419.69 207.9, 596.45 1.73 M1.41 686.26 C192.16 469.08, 381.5 252.1, 596.45 1.73 M1.8 691.9 C168.58 501.12, 331.47 312.4, 601.44 2.09 M1.8 691.9 C199.28 463.44, 397.74 235.15, 601.44 2.09 M1.54 698.3 C214.18 450, 429.4 202.62, 607.08 1.7 M1.54 698.3 C234.3 432.57, 466.86 165.61, 607.08 1.7 M1.94 703.94 C219.97 455.19, 439.42 202.3, 612.07 2.06 M1.94 703.94 C218.32 454.75, 433.73 207.65, 612.07 2.06 M1.67 710.34 C212.34 465.89, 422.38 223.14, 617.06 2.42 M1.67 710.34 C237.9 434.15, 475.9 159.32, 617.06 2.42 M2.07 715.98 C182.81 512.47, 361.61 306.2, 622.7 2.02 M2.07 715.98 C221.84 465.77, 439.28 216.11, 622.7 2.02 M2.46 721.62 C135.38 570.44, 267.13 419.29, 627.69 2.38 M2.46 721.62 C213.34 479.87, 423.43 238.36, 627.69 2.38 M3.51 726.51 C251.09 442.07, 498 158.03, 633.33 1.99 M3.51 726.51 C198.73 505.84, 391.43 284.27, 633.33 1.99 M5.22 730.65 C194.31 514.31, 384.04 295.2, 638.32 2.35 M5.22 730.65 C140.8 573.25, 276.69 417.85, 638.32 2.35 M6.93 734.78 C139.3 586.2, 269.42 434.68, 643.96 1.96 M6.93 734.78 C153.45 562.37, 300.76 392.67, 643.96 1.96 M8.63 738.91 C206.64 511.68, 403.51 285.64, 648.95 2.32 M8.63 738.91 C187.11 531.88, 367.9 323.44, 648.95 2.32 M12.31 740.78 C239.96 477.82, 468.14 217.33, 654.59 1.92 M12.31 740.78 C179.92 547.39, 349.67 352.5, 654.59 1.92 M15.33 743.41 C254.58 471.14, 491.98 198.43, 659.58 2.28 M15.33 743.41 C259.79 460.15, 503.47 179.2, 659.58 2.28 M19 745.28 C190.21 547.08, 362.07 348.93, 665.22 1.89 M19 745.28 C252.03 472.99, 487.99 201.64, 665.22 1.89 M23.99 745.64 C269.07 465.39, 511.43 185.75, 670.21 2.25 M23.99 745.64 C162.82 583.3, 303.87 420.88, 670.21 2.25 M28.32 746.75 C199.22 544.99, 372.41 346.58, 675.85 1.85 M28.32 746.75 C174.35 576.86, 320.5 408.65, 675.85 1.85 M33.31 747.11 C207.42 546.3, 380.44 347.41, 680.84 2.21 M33.31 747.11 C220.07 527.96, 408.05 310.83, 680.84 2.21 M38.29 747.47 C222.29 536.24, 404.63 325.49, 686.48 1.82 M38.29 747.47 C271.4 477.83, 507.81 205.98, 686.48 1.82 M43.94 747.08 C255.96 501.23, 468.25 258.28, 691.47 2.18 M43.94 747.08 C283.37 473.91, 519.9 201.81, 691.47 2.18 M48.92 747.44 C263.83 500.42, 480.5 250.39, 697.11 1.78 M48.92 747.44 C191.43 583.72, 334.31 418.81, 697.11 1.78 M54.57 747.04 C241.11 531.96, 429.05 316.49, 702.1 2.14 M54.57 747.04 C305.44 461.24, 553.8 175.27, 702.1 2.14 M59.55 747.4 C219.96 565.88, 377.8 383.67, 707.74 1.75 M59.55 747.4 C231.64 546.49, 405.21 346.9, 707.74 1.75 M65.2 747.01 C220.71 564.7, 376.35 385.99, 712.73 2.11 M65.2 747.01 C301.44 471.03, 539.31 196.8, 712.73 2.11 M70.18 747.37 C285.57 500.46, 501.98 252.95, 718.37 1.71 M70.18 747.37 C266.81 525.73, 460.44 303.03, 718.37 1.71 M75.83 746.97 C276.01 517.67, 476.44 288.65, 723.36 2.07 M75.83 746.97 C277.08 510.02, 480.72 275.66, 723.36 2.07 M80.81 747.33 C282.48 509.74, 487.1 274.11, 729 1.68 M80.81 747.33 C303.7 494.11, 523.76 241.45, 729 1.68 M85.8 747.69 C330.37 466.31, 573.07 186.29, 733.99 2.04 M85.8 747.69 C276.77 528.47, 469.42 306.39, 733.99 2.04 M91.44 747.3 C226.49 588.6, 362.14 431.99, 738.98 2.4 M91.44 747.3 C310 496.55, 529.06 245.13, 738.98 2.4 M96.43 747.66 C337.75 475.1, 575.62 201.32, 744.62 2.01 M96.43 747.66 C335.31 475.91, 572.45 202.28, 744.62 2.01 M102.07 747.26 C256.59 572.66, 407.83 397.75, 749.61 2.37 M102.07 747.26 C279.17 548.09, 454.9 346.31, 749.61 2.37 M107.06 747.62 C341.65 477.05, 577.88 205.66, 755.25 1.97 M107.06 747.62 C271.23 561.82, 432.53 376.07, 755.25 1.97 M112.71 747.23 C305.09 526.17, 498.8 303.3, 760.24 2.33 M112.71 747.23 C264.87 566.83, 419.91 389.01, 760.24 2.33 M117.69 747.59 C302.52 532.24, 488.55 316.75, 765.88 1.94 M117.69 747.59 C276.96 561.44, 437.6 377.2, 765.88 1.94 M123.34 747.19 C325.86 510.29, 529.99 275.58, 770.87 2.3 M123.34 747.19 C365.85 469.86, 607.82 192.02, 770.87 2.3 M128.32 747.55 C268.5 586.92, 407.8 427.89, 776.51 1.9 M128.32 747.55 C348.76 491.23, 570.78 235.65, 776.51 1.9 M133.97 747.16 C326.85 526.11, 518.61 306.96, 781.5 2.26 M133.97 747.16 C344.53 502.78, 558.09 256.67, 781.5 2.26 M138.95 747.52 C309.98 549.84, 482.69 352.8, 787.14 1.87 M138.95 747.52 C329.45 529.67, 517.9 313.09, 787.14 1.87 M144.6 747.13 C308.04 561.87, 467.62 378.49, 792.13 2.23 M144.6 747.13 C396.72 458.66, 648.67 168.88, 792.13 2.23 M149.58 747.49 C348.44 514.56, 547.88 284.38, 797.77 1.83 M149.58 747.49 C361.94 504.29, 572.41 262.25, 797.77 1.83 M155.23 747.09 C338.15 538.99, 516.93 333.1, 802.76 2.19 M155.23 747.09 C391.41 480.22, 625.13 211.84, 802.76 2.19 M160.21 747.45 C334.77 549.15, 506.47 349.48, 808.4 1.8 M160.21 747.45 C323.96 556.19, 489.08 367.37, 808.4 1.8 M165.86 747.06 C358.72 528.54, 548.32 310.71, 813.39 2.16 M165.86 747.06 C345.37 538.5, 526.92 329.72, 813.39 2.16 M170.84 747.42 C303.15 596.23, 435.83 444.07, 819.03 1.76 M170.84 747.42 C404.46 475.52, 641.44 203.8, 819.03 1.76 M176.49 747.02 C367.01 526.04, 559.41 304.35, 824.02 2.12 M176.49 747.02 C377.19 514.4, 577.48 283.64, 824.02 2.12 M181.47 747.38 C338.71 570.93, 493.69 392.9, 829.66 1.73 M181.47 747.38 C386.46 508.32, 593.96 269.06, 829.66 1.73 M187.12 746.99 C375.64 526.47, 565.02 308.09, 834.65 2.09 M187.12 746.99 C339.28 568.06, 492.43 391.99, 834.65 2.09 M192.1 747.35 C344.2 571.58, 496.74 396.69, 840.29 1.69 M192.1 747.35 C363.4 554.1, 531.44 360.97, 840.29 1.69 M197.75 746.95 C442.63 466, 688.67 182.65, 845.28 2.06 M197.75 746.95 C441.34 466.36, 685.87 185, 845.28 2.06 M202.73 747.31 C402.74 520.52, 599.27 295.53, 850.26 2.42 M202.73 747.31 C392.77 524.29, 585.94 301.97, 850.26 2.42 M207.72 747.67 C377.53 556.45, 546.77 362.15, 855.91 2.02 M207.72 747.67 C385.24 546.35, 562.02 342.85, 855.91 2.02 M213.36 747.28 C411.3 518.62, 609.79 288.98, 860.89 2.38 M213.36 747.28 C363.59 577.16, 512.24 406.4, 860.89 2.38 M218.35 747.64 C431.24 504.16, 643.68 259.06, 866.54 1.99 M218.35 747.64 C471.21 456.47, 724.77 164.82, 866.54 1.99 M223.99 747.24 C451.17 484.82, 681.1 221.7, 871.52 2.35 M223.99 747.24 C369 584.45, 511.2 421.09, 871.52 2.35 M228.98 747.6 C478.39 461.66, 727.56 176.92, 877.17 1.95 M228.98 747.6 C373.58 579.41, 521.38 409.91, 877.17 1.95 M234.62 747.21 C433.95 521.75, 629.97 295.27, 882.15 2.31 M234.62 747.21 C440.19 509.69, 645.38 273.04, 882.15 2.31 M239.61 747.57 C447.01 510.58, 653.53 274.02, 887.8 1.92 M239.61 747.57 C371.3 594.24, 503.46 441.94, 887.8 1.92 M245.25 747.18 C412.24 554.74, 582.67 358.91, 892.78 2.28 M245.25 747.18 C465.05 493, 687.92 236.86, 892.78 2.28 M250.24 747.54 C399.85 580.89, 546.06 412.64, 898.43 1.88 M250.24 747.54 C488.75 472.77, 726.21 199.66, 898.43 1.88 M255.88 747.14 C442.05 539.23, 623.88 329.12, 903.41 2.24 M255.88 747.14 C510.44 453.79, 767.88 157.82, 903.41 2.24 M260.87 747.5 C458.17 523.32, 651.53 301.21, 909.06 1.85 M260.87 747.5 C451.44 529.17, 640.08 312.25, 909.06 1.85 M266.51 747.11 C444.68 545.74, 617.81 344.45, 914.04 2.21 M266.51 747.11 C492.37 484.46, 721.31 221.28, 914.04 2.21 M271.5 747.47 C486.28 505.1, 698.67 261.29, 919.69 1.81 M271.5 747.47 C517.33 465.97, 760.73 185.5, 919.69 1.81 M277.14 747.07 C453.28 541.44, 633.05 336.28, 924.67 2.17 M277.14 747.07 C512.58 475.85, 747.74 205.56, 924.67 2.17 M282.13 747.43 C411.94 596.89, 541.63 446.34, 930.97 1.02 M282.13 747.43 C513.68 482.14, 742.62 218.54, 930.97 1.02 M287.77 747.04 C550.25 451.27, 808.83 153.27, 935.3 2.14 M287.77 747.04 C520.34 482.2, 750.52 217.86, 935.3 2.14 M292.76 747.4 C423.39 595.3, 553.83 444.6, 940.29 2.5 M292.76 747.4 C534.56 469.01, 776.98 190.7, 940.29 2.5 M298.4 747 C484.89 528.63, 674.05 312.98, 944.62 3.61 M298.4 747 C516.4 495.34, 733 246.22, 944.62 3.61 M303.39 747.36 C513.19 508.84, 720.58 271.57, 948.3 5.48 M303.39 747.36 C511.31 508.02, 717.37 271.25, 948.3 5.48 M309.03 746.97 C468.92 562.8, 627.15 380.98, 951.97 7.35 M309.03 746.97 C490.89 536.52, 673.41 326.47, 951.97 7.35 M314.02 747.33 C533.51 496.96, 749.83 247.09, 954.99 9.98 M314.02 747.33 C503.32 530.31, 693.71 311.17, 954.99 9.98 M319.01 747.69 C518.72 520.38, 716.89 291.81, 957.35 13.36 M319.01 747.69 C484.55 557.8, 650.56 366.96, 957.35 13.36 M324.65 747.29 C542.22 498.62, 757.53 251.93, 959.72 16.74 M324.65 747.29 C538.55 498.02, 754.53 248.95, 959.72 16.74 M329.64 747.65 C571.21 468.49, 811.28 191.78, 962.08 20.11 M329.64 747.65 C516.96 532.22, 705.3 316.24, 962.08 20.11 M335.28 747.26 C461.01 602.39, 587.39 457.37, 962.47 25.76 M335.28 747.26 C531.84 521.51, 726.23 297.57, 962.47 25.76 M340.27 747.62 C523.31 536.41, 705.12 325.63, 961.56 32.91 M340.27 747.62 C533.44 529.39, 724.06 310.02, 961.56 32.91 M345.91 747.23 C531.85 532.27, 720.02 316.14, 961.95 38.55 M345.91 747.23 C587.39 467.25, 829.02 189.23, 961.95 38.55 M350.9 747.59 C563.91 505.58, 775.7 263.37, 961.69 44.95 M350.9 747.59 C580.8 483.26, 811.34 218.53, 961.69 44.95 M356.54 747.19 C494.03 588.98, 631.26 430.12, 962.08 50.59 M356.54 747.19 C481.37 605.69, 603.71 464.5, 962.08 50.59 M361.53 747.55 C587.28 491.5, 811.77 233.11, 961.82 56.99 M361.53 747.55 C523.99 558.35, 688 370.48, 961.82 56.99 M367.17 747.16 C512.15 577.42, 658.67 410.48, 961.56 63.39 M367.17 747.16 C532.48 555.54, 698.17 364.22, 961.56 63.39 M372.16 747.52 C528.53 570.79, 684.48 391.58, 961.96 69.03 M372.16 747.52 C568.08 522.46, 763.73 297.2, 961.96 69.03 M377.8 747.12 C511.73 592.72, 646.63 436.83, 961.69 75.43 M377.8 747.12 C607.04 483.58, 833.97 222.51, 961.69 75.43 M382.79 747.48 C528.38 578.11, 675.18 408.29, 962.09 81.07 M382.79 747.48 C598.21 497.51, 815.75 246.88, 962.09 81.07 M388.43 747.09 C595.15 508.13, 803.18 271.21, 961.83 87.47 M388.43 747.09 C514.92 597.78, 643.84 449.53, 961.83 87.47 M393.42 747.45 C525.25 598.01, 654.06 447.9, 961.57 93.87 M393.42 747.45 C620.27 489.86, 845.29 230.28, 961.57 93.87 M399.06 747.05 C512.64 613.37, 626.89 480.69, 961.96 99.51 M399.06 747.05 C570.56 546.1, 743.59 346.67, 961.96 99.51 M404.05 747.41 C528.91 606.08, 652.07 463.44, 961.7 105.91 M404.05 747.41 C550.96 579.87, 698.38 410.74, 961.7 105.91 M409.69 747.02 C534.87 602.4, 661.84 456.54, 962.09 111.55 M409.69 747.02 C565.17 567.91, 721.65 387.44, 962.09 111.55 M414.68 747.38 C583.53 548.66, 753.95 352.35, 961.83 117.95 M414.68 747.38 C537.93 606.99, 661.3 464.9, 961.83 117.95 M420.32 746.98 C587.59 555.39, 752.92 363.32, 961.57 124.35 M420.32 746.98 C541.42 608.09, 663.22 467.84, 961.57 124.35 M425.31 747.34 C600.98 543.53, 778.29 338.22, 961.96 129.99 M425.31 747.34 C534.32 618.27, 645.52 490.54, 961.96 129.99 M430.95 746.95 C537.38 624.27, 644.06 502.34, 961.7 136.39 M430.95 746.95 C604.73 543.12, 780.18 341.8, 961.7 136.39 M435.94 747.31 C624.71 532.15, 812.75 316.46, 962.1 142.03 M435.94 747.31 C596.78 560.67, 757.52 376.22, 962.1 142.03 M440.93 747.67 C584.27 581.28, 729.9 413.73, 961.84 148.43 M440.93 747.67 C557.97 610.98, 675.76 474.63, 961.84 148.43 M446.57 747.27 C557.89 620.44, 669.54 490.94, 961.58 154.83 M446.57 747.27 C603.03 571.01, 757.09 393.81, 961.58 154.83 M451.56 747.63 C556.51 627.73, 659.51 509.37, 961.97 160.47 M451.56 747.63 C586.69 589.53, 723.55 433.03, 961.97 160.47 M457.2 747.24 C649.51 524.06, 843.03 301.32, 961.71 166.87 M457.2 747.24 C627.31 550.49, 800.06 352.39, 961.71 166.87 M462.19 747.6 C579.78 614.01, 697.4 478.71, 962.1 172.51 M462.19 747.6 C577.14 616.57, 692.43 484.68, 962.1 172.51 M467.83 747.21 C610.25 584.38, 750.37 421.93, 961.84 178.91 M467.83 747.21 C597.71 598.37, 727.85 449.25, 961.84 178.91 M472.82 747.57 C637.18 557.65, 801.37 367.93, 961.58 185.31 M472.82 747.57 C581.71 624.69, 689.59 500.08, 961.58 185.31 M478.46 747.17 C666.19 532.96, 855.03 316.03, 961.97 190.95 M478.46 747.17 C610.58 596.2, 740.54 447.43, 961.97 190.95 M483.45 747.53 C609.93 603.35, 735.98 457.51, 961.71 197.35 M483.45 747.53 C663.82 540.23, 842.88 334.99, 961.71 197.35 M489.09 747.14 C638.44 571.6, 789.32 398.9, 962.11 202.99 M489.09 747.14 C601.51 615.37, 716 483.23, 962.11 202.99 M494.08 747.5 C623.53 597.94, 752.48 449.57, 961.85 209.39 M494.08 747.5 C656.6 562.72, 817.79 376.6, 961.85 209.39 M499.72 747.1 C657.99 563.23, 815.46 381.04, 961.58 215.79 M499.72 747.1 C610.98 616.46, 723.6 487.32, 961.58 215.79 M504.71 747.46 C609.14 625.46, 713.09 505.7, 961.98 221.43 M504.71 747.46 C607.72 630.13, 708.89 514.1, 961.98 221.43 M510.35 747.07 C637.61 603.27, 762.31 459.25, 961.72 227.83 M510.35 747.07 C603.52 638.93, 698.38 530.73, 961.72 227.83 M515.34 747.43 C640.05 604.5, 762.77 462.1, 962.11 233.47 M515.34 747.43 C610.13 638.54, 706 528.86, 962.11 233.47 M520.98 747.03 C691.5 549.95, 863.03 353.12, 961.85 239.87 M520.98 747.03 C633.33 619.87, 742.88 493.02, 961.85 239.87 M525.97 747.39 C688.04 561.31, 848.31 376.66, 961.59 246.27 M525.97 747.39 C683.19 566.24, 840.74 385.03, 961.59 246.27 M531.61 747 C655.74 601.67, 780.81 458, 961.98 251.91 M531.61 747 C686.61 568.73, 840.57 392.3, 961.98 251.91 M536.6 747.36 C689.81 570.82, 843.73 393.46, 961.72 258.31 M536.6 747.36 C633.27 634.78, 731.16 522.64, 961.72 258.31 M542.24 746.96 C648.5 625.33, 752.25 506.33, 962.12 263.95 M542.24 746.96 C666.24 605.32, 790.43 462.6, 962.12 263.95 M547.23 747.32 C672.9 603.74, 796.61 461.05, 961.86 270.35 M547.23 747.32 C635.52 647.41, 723.22 546.84, 961.86 270.35 M552.21 747.68 C661.83 619.55, 771.79 493.78, 961.59 276.75 M552.21 747.68 C679.34 602.95, 805.57 457.18, 961.59 276.75 M557.86 747.29 C692.78 593.03, 827.98 439.15, 961.99 282.39 M557.86 747.29 C649.16 643.54, 738.73 540.8, 961.99 282.39 M562.84 747.65 C647.88 648.92, 734.26 549.31, 961.73 288.79 M562.84 747.65 C646.94 648.1, 731.78 550.61, 961.73 288.79 M568.49 747.26 C649.22 655.48, 732.1 560.62, 962.12 294.43 M568.49 747.26 C649.24 653.14, 730.23 559.69, 962.12 294.43 M573.47 747.62 C688.97 616.67, 802.28 484.85, 961.86 300.83 M573.47 747.62 C693.01 610.91, 813.07 473.69, 961.86 300.83 M579.12 747.22 C718.78 584.42, 859.19 423.47, 961.6 307.23 M579.12 747.22 C671.89 643.45, 762.18 539.03, 961.6 307.23 M584.1 747.58 C720.73 589.45, 857.78 432.6, 961.99 312.87 M584.1 747.58 C683.38 634.87, 782.7 520.45, 961.99 312.87 M589.75 747.19 C685.35 637.24, 781.75 525.67, 961.73 319.27 M589.75 747.19 C670.95 655.3, 749.82 564.22, 961.73 319.27 M594.73 747.55 C676.62 653.79, 759.09 561.71, 961.47 325.66 M594.73 747.55 C675.81 652.28, 758.74 557.26, 961.47 325.66 M600.38 747.15 C680.56 657.63, 757.82 566.18, 961.87 331.31 M600.38 747.15 C727.74 597.49, 857.21 448.9, 961.87 331.31 M605.36 747.51 C723.69 612.46, 840.89 477.07, 961.6 337.7 M605.36 747.51 C720.02 615.5, 835.65 483.5, 961.6 337.7 M611.01 747.12 C746.63 590.44, 881.89 433.62, 962 343.35 M611.01 747.12 C724.68 619.1, 837.54 489.08, 962 343.35 M615.99 747.48 C715.83 635.46, 814.9 520.65, 961.74 349.75 M615.99 747.48 C739.62 606.26, 863.58 464.58, 961.74 349.75 M621.64 747.08 C691.06 667.42, 762.02 585.63, 961.48 356.14 M621.64 747.08 C717.09 637.64, 813.28 527.62, 961.48 356.14 M626.62 747.44 C741.4 614.84, 856.46 482.5, 961.87 361.79 M626.62 747.44 C728.31 628.01, 831.44 509.56, 961.87 361.79 M632.27 747.05 C735.49 627.72, 837.83 510, 961.61 368.18 M632.27 747.05 C712.05 655.44, 791.52 563.43, 961.61 368.18 M637.25 747.41 C734.22 637.68, 828.8 527.28, 962 373.83 M637.25 747.41 C709.41 664.08, 782.16 579.93, 962 373.83 M642.9 747.01 C717.11 658.23, 794.91 570.48, 961.74 380.23 M642.9 747.01 C750.94 624.16, 858.25 500.57, 961.74 380.23 M647.88 747.37 C769.35 603.55, 893.23 462.67, 961.48 386.62 M647.88 747.37 C754.89 624.68, 862.01 500.55, 961.48 386.62 M653.53 746.98 C751.58 633.21, 849.65 518.97, 961.88 392.27 M653.53 746.98 C752.93 635.43, 851.42 522.25, 961.88 392.27 M658.51 747.34 C728.49 666.94, 798.35 586.82, 961.61 398.66 M658.51 747.34 C772.67 616.22, 885.61 486.4, 961.61 398.66 M664.16 746.95 C780.44 613.76, 897.6 479.44, 962.01 404.31 M664.16 746.95 C745.64 652.82, 827.46 558.04, 962.01 404.31 M669.14 747.31 C743.25 661.85, 818.96 576.73, 961.75 410.7 M669.14 747.31 C782.6 613.64, 898.17 481.24, 961.75 410.7 M674.13 747.67 C752.67 656.92, 833.9 564.68, 961.49 417.1 M674.13 747.67 C765.5 644.17, 856.07 540.52, 961.49 417.1 M679.77 747.27 C751.36 667.22, 822.05 585.87, 961.88 422.75 M679.77 747.27 C784.41 628.14, 889.41 507.86, 961.88 422.75 M684.76 747.63 C773.53 647.52, 859.54 548.89, 961.62 429.14 M684.76 747.63 C761.22 660, 837.2 573.36, 961.62 429.14 M690.4 747.24 C762.17 661.85, 835.75 578.39, 962.01 434.79 M690.4 747.24 C754.49 674.62, 819.26 599.97, 962.01 434.79 M695.39 747.6 C754.39 680.04, 811.3 612.42, 961.75 441.18 M695.39 747.6 C752.32 681.52, 808.82 615.17, 961.75 441.18 M701.03 747.2 C776.06 660.51, 851.02 574.7, 961.49 447.58 M701.03 747.2 C758.03 683.37, 813.49 619.48, 961.49 447.58 M706.02 747.56 C763.83 680.39, 824.48 611.8, 961.88 453.23 M706.02 747.56 C789.21 649.24, 874.38 551.66, 961.88 453.23 M711.66 747.17 C801.22 644.05, 889.93 542.34, 961.62 459.62 M711.66 747.17 C785.12 664.76, 856.37 582.39, 961.62 459.62 M716.65 747.53 C804.6 646.88, 892.78 544.76, 962.02 465.27 M716.65 747.53 C776.17 679.43, 834.96 611.76, 962.02 465.27 M722.3 747.13 C782.46 679.81, 841.56 609.76, 961.76 471.66 M722.3 747.13 C800.55 657.51, 877.51 567.87, 961.76 471.66 M727.28 747.49 C807.44 654.07, 888.46 561.67, 961.5 478.06 M727.28 747.49 C793.99 672.69, 859.43 597.21, 961.5 478.06 M732.93 747.1 C779.87 693.49, 828.67 635.87, 961.89 483.7 M732.93 747.1 C817.23 648.7, 902.43 550.09, 961.89 483.7 M737.91 747.46 C802.01 672.65, 867.17 597.21, 961.63 490.1 M737.91 747.46 C785.75 689.95, 837.03 632.6, 961.63 490.1 M743.56 747.06 C791.43 693.81, 838.94 638, 962.02 495.75 M743.56 747.06 C819.32 660.92, 895.56 572.86, 962.02 495.75 M748.54 747.42 C796.38 690.88, 847.39 633.55, 961.76 502.14 M748.54 747.42 C828.35 656.26, 906.01 565.05, 961.76 502.14 M754.19 747.03 C818.38 672.63, 880.9 599.85, 961.5 508.54 M754.19 747.03 C826.76 665.01, 899.75 580.83, 961.5 508.54 M759.17 747.39 C837.07 661.21, 911.52 572.09, 961.89 514.18 M759.17 747.39 C806.19 691.1, 854.19 637.16, 961.89 514.18 M764.82 746.99 C813.55 689.01, 863.98 633.46, 961.63 520.58 M764.82 746.99 C832.41 665.01, 902.06 586.24, 961.63 520.58 M769.8 747.35 C817.14 693.54, 866.2 638.11, 962.03 526.22 M769.8 747.35 C822.26 687.56, 875.54 627.1, 962.03 526.22 M775.45 746.96 C828.07 685.1, 881.73 622.49, 961.77 532.62 M775.45 746.96 C831.25 679.57, 889.6 614.27, 961.77 532.62 M780.43 747.32 C845.04 672.45, 908.41 600.73, 961.5 539.02 M780.43 747.32 C843.73 673.34, 909.27 599.07, 961.5 539.02 M785.42 747.68 C852.05 671.79, 921.28 593.5, 961.9 544.66 M785.42 747.68 C826.56 699.14, 868.02 651.93, 961.9 544.66 M791.06 747.29 C844.73 685.25, 898.11 624.86, 961.64 551.06 M791.06 747.29 C840.48 688.78, 891.13 631.4, 961.64 551.06 M796.05 747.65 C857.88 675.08, 920.37 605.71, 962.03 556.7 M796.05 747.65 C853.02 680.52, 910.07 612.83, 962.03 556.7 M801.69 747.25 C853.59 685.11, 907.6 622.69, 961.77 563.1 M801.69 747.25 C850.71 690.47, 901.74 633.75, 961.77 563.1 M806.68 747.61 C839.87 706.22, 874.96 668.52, 961.51 569.5 M806.68 747.61 C855.9 690.28, 905.43 632.48, 961.51 569.5 M812.32 747.22 C864.05 691.21, 912.43 632.27, 961.9 575.14 M812.32 747.22 C865.19 682.9, 919.39 621.29, 961.9 575.14 M817.31 747.58 C867.94 685.52, 918.91 628.09, 961.64 581.54 M817.31 747.58 C848.3 711.98, 877.07 677.85, 961.64 581.54 M822.95 747.18 C852.13 714.14, 881.29 680.01, 962.04 587.18 M822.95 747.18 C855.87 709.2, 888.3 671.25, 962.04 587.18 M827.94 747.54 C875.7 692.54, 923.34 639.7, 961.78 593.58 M827.94 747.54 C874.51 695.05, 922.03 640.36, 961.78 593.58 M833.58 747.15 C883.77 691.28, 928.91 635.15, 961.51 599.98 M833.58 747.15 C862.97 711.87, 893.31 678.56, 961.51 599.98 M838.57 747.51 C866.62 719.05, 891.28 686.82, 961.91 605.62 M838.57 747.51 C869 712.37, 900.6 677.63, 961.91 605.62 M844.21 747.11 C874.53 711.69, 903.39 681.51, 961.65 612.02 M844.21 747.11 C876.02 708.4, 910.01 668.86, 961.65 612.02 M849.2 747.47 C887.87 708.12, 921.68 665.22, 962.04 617.66 M849.2 747.47 C881.15 710.04, 914.45 671.84, 962.04 617.66 M854.84 747.08 C887.41 707.23, 921.37 671.44, 961.78 624.06 M854.84 747.08 C883.82 713.82, 912.28 680.71, 961.78 624.06 M859.83 747.44 C886.65 716.16, 916.62 683.48, 961.52 630.46 M859.83 747.44 C884.81 718.63, 910.7 688.77, 961.52 630.46 M865.47 747.04 C894.04 717.57, 920.87 683.24, 961.91 636.1 M865.47 747.04 C888.78 716.97, 915.9 688.03, 961.91 636.1 M870.46 747.4 C892.98 719.38, 918.92 689.75, 961.65 642.5 M870.46 747.4 C901.52 710.58, 932.71 675.38, 961.65 642.5 M876.1 747.01 C905.71 711.47, 933.89 677.63, 962.05 648.14 M876.1 747.01 C901.76 719.85, 925.58 690.96, 962.05 648.14 M881.09 747.37 C904.26 720.43, 925.99 694.41, 961.79 654.54 M881.09 747.37 C897.22 727.83, 913.75 707.79, 961.79 654.54 M886.73 746.98 C908.44 717.67, 935.22 693.16, 961.52 660.94 M886.73 746.98 C915.99 714.76, 944.05 682.13, 961.52 660.94 M891.72 747.34 C913.66 721.46, 934.04 700.89, 961.92 666.58 M891.72 747.34 C913.89 721.66, 937.52 695.38, 961.92 666.58 M897.36 746.94 C913.91 725.33, 932.76 701.03, 961.66 672.98 M897.36 746.94 C917.35 724.28, 936.44 703.5, 961.66 672.98 M902.35 747.3 C922.87 726.03, 939.33 701.81, 962.05 678.62 M902.35 747.3 C923.94 722.78, 946.81 696.79, 962.05 678.62 M907.34 747.66 C927.2 723.66, 946.13 702.86, 961.79 685.02 M907.34 747.66 C921.18 731.64, 936.11 714.05, 961.79 685.02 M912.98 747.27 C928.65 731.92, 941.07 712.64, 961.53 691.42 M912.98 747.27 C927.56 730.8, 939.98 715.63, 961.53 691.42 M917.97 747.63 C933.86 731.11, 944.79 714.82, 961.92 697.06 M917.97 747.63 C934.31 729.9, 950.84 709.44, 961.92 697.06 M923.61 747.23 C931.82 735.15, 941.77 723.15, 961.66 703.46 M923.61 747.23 C938.11 729.71, 952.46 713.45, 961.66 703.46 M929.25 746.84 C943.34 731.62, 955.4 717.91, 962.06 709.1 M929.25 746.84 C942.82 731.83, 954.82 716.44, 962.06 709.1 M935.55 745.69 C945.07 734.87, 953.58 724.12, 961.8 715.5 M935.55 745.69 C942.85 736.87, 951.45 728.45, 961.8 715.5 M941.85 744.54 C951 734.01, 957.71 729.22, 960.88 722.65 M941.85 744.54 C949.71 736.62, 957.12 727.68, 960.88 722.65 M945.53 746.41 C949.01 739.43, 956.33 733.41, 960.62 729.05 M945.53 746.41 C950.96 740.88, 955.74 733.73, 960.62 729.05" stroke="#000e9c" stroke-width="0.5" fill="none"></path><path d="M32 0 M32 0 C281.51 2.68, 531.23 1.51, 929.07 0 M32 0 C247.63 0.53, 462.92 0.67, 929.07 0 M929.07 0 C948.71 -1.71, 959.31 12.51, 961.07 32 M929.07 0 C951.27 -1.92, 961.56 9.29, 961.07 32 M961.07 32 C961.86 196.55, 962.13 360.88, 961.07 714.34 M961.07 32 C960.62 189.42, 960.53 345.87, 961.07 714.34 M961.07 714.34 C959.65 735.7, 950.2 746.65, 929.07 746.34 M961.07 714.34 C960.07 735.09, 952.19 746.49, 929.07 746.34 M929.07 746.34 C580.67 743.38, 234.36 742.32, 32 746.34 M929.07 746.34 C746.15 745.24, 562.52 745.07, 32 746.34 M32 746.34 C10.97 747.99, 1.88 735.64, 0 714.34 M32 746.34 C12.37 747.2, -2.23 735.06, 0 714.34 M0 714.34 C-1.18 477.34, -0.56 239.24, 0 32 M0 714.34 C-1.82 504.98, -1.46 295.98, 0 32 M0 32 C-1.64 12.37, 12.24 1.81, 32 0 M0 32 C0.32 9.9, 11.82 -2.16, 32 0" stroke="#000000" stroke-width="1" fill="none"></path></g><g transform="translate(40.57070843950714 125.22818581624392) rotate(0 71.57499694824219 12.5)"><text x="0" y="0" font-family="Virgil, Segoe UI Emoji" font-size="20px" fill="#000000" text-anchor="start" style="white-space: pre;" direction="ltr" dominant-baseline="text-before-edge">Load Balancer</text></g><g transform="translate(467.11056723160664 43.78397256554649) rotate(0 77.41666412353516 12.5)"><text x="0" y="0" font-family="Virgil, Segoe UI Emoji" font-size="20px" fill="#000000" text-anchor="start" style="white-space: pre;" direction="ltr" dominant-baseline="text-before-edge">Incoming traffic</text></g><g stroke-linecap="round" transform="translate(56.3252752836338 190.03194682694425) rotate(0 393 279)"><path d="M33.86 -0.94 L755.92 -0.84 L761.74 -1.3 L772.87 6.09 L781.25 10.71 L782.99 19.17 L785.07 32.56 L787.65 526.19 L784.75 531.85 L780.09 546.05 L773.23 553.8 L767.43 555.8 L752.31 556.76 L32.17 557.1 L23.68 559.21 L11.67 552.73 L5.38 546.25 L3.18 540.6 L0.36 525.1 L1.32 31.26 L2.91 17.6 L9.09 6.86 L18.23 2.75 L32.34 -1.3" stroke="none" stroke-width="0" fill="#000e9c"></path><path d="M32 0 M32 0 C190.01 -1.23, 347.06 -1.66, 754 0 M32 0 C189.05 1.04, 345.92 1.28, 754 0 M754 0 C776.13 0.98, 785.32 11.04, 786 32 M754 0 C773.8 -2.11, 785.43 11.01, 786 32 M786 32 C785.29 208.33, 786 383.98, 786 526 M786 32 C786.01 229.16, 786.31 427.09, 786 526 M786 526 C787.28 546.78, 773.62 558.88, 754 558 M786 526 C787.38 546.94, 773.68 559.11, 754 558 M754 558 C489.95 554.4, 226.68 554.89, 32 558 M754 558 C579.03 559.38, 404.18 559.45, 32 558 M32 558 C9.38 557.86, -1.6 546.63, 0 526 M32 558 C8.41 558.52, -0.8 545.6, 0 526 M0 526 C-0.31 427.5, -0.44 328.56, 0 32 M0 526 C-1.03 392.92, -0.77 260.45, 0 32 M0 32 C-1.58 12.08, 10.98 1.65, 32 0 M0 32 C-1.24 10.23, 8.69 -0.88, 32 0" stroke="white" stroke-width="1" fill="none"></path></g><g transform="translate(61.3252752836338 195.03194682694425) rotate(0 133.38333129882812 12.5)"><text x="0" y="0" font-family="Virgil, Segoe UI Emoji" font-size="20px" fill="white" text-anchor="start" style="white-space: pre;" direction="ltr" dominant-baseline="text-before-edge">Listener_1: protocol + port</text></g><g stroke-linecap="round" transform="translate(86.99521874003676 498.7543081401607) rotate(0 163.5 109.5)"><path d="M28.91 -1.06 L296.96 -0.66 L312.66 6.03 L326.22 12.23 L325.95 31.66 L323.08 189.68 L323.65 208.37 L318.41 212.68 L298.65 215.59 L31.14 217.16 L10.93 210.73 L2.77 201.48 L-1.5 188.11 L-0.63 25.43 L9.97 11.5 L16.57 -0.75 L35.99 -0.4" stroke="none" stroke-width="0" fill="#ffd124"></path><path d="M32 0 M32 0 C112.38 1.19, 191.96 0.47, 295 0 M32 0 C120.81 -4.29, 210.1 -2.53, 295 0 M295 0 C314.21 -0.95, 325.6 7.91, 327 32 M295 0 C317.68 -3.92, 325.77 8.05, 327 32 M327 32 C327.28 81.24, 327.14 125.86, 327 187 M327 32 C326.34 88.81, 329.73 146.18, 327 187 M327 187 C330.92 204.67, 318.68 222.09, 295 219 M327 187 C326.03 212.78, 316.96 220.88, 295 219 M295 219 C213.33 214.12, 130.36 219.95, 32 219 M295 219 C216.13 218.97, 137.54 219.22, 32 219 M32 219 C11.89 217.3, -2.65 206.69, 0 187 M32 219 C6.27 217.36, -0.45 212.24, 0 187 M0 187 C0.04 149.34, -1.75 110.44, 0 32 M0 187 C2.1 126.38, 2.02 67.78, 0 32 M0 32 C0.19 9.57, 8.42 -1.09, 32 0 M0 32 C2 7.09, 6.83 2.12, 32 0" stroke="white" stroke-width="1" fill="none"></path></g><g transform="translate(127.37021874003676 503.7543081401607) rotate(0 123.125 25)"><text x="123.125" y="0" font-family="Virgil, Segoe UI Emoji" font-size="20px" fill="white" text-anchor="middle" style="white-space: pre;" direction="ltr" dominant-baseline="text-before-edge">default pool: protocol + </text><text x="123.125" y="25" font-family="Virgil, Segoe UI Emoji" font-size="20px" fill="white" text-anchor="middle" style="white-space: pre;" direction="ltr" dominant-baseline="text-before-edge">algorithm</text></g><g stroke-linecap="round" transform="translate(95.25849049085491 588.7852661106002) rotate(0 49.92848922448036 36.947082026115424)"><path d="M15.39 -1.06 L83.34 -0.66 L93.39 6.15 L103.58 18.2 L98.52 59.41 L91.32 71.96 L82.53 75.76 L22.38 72.08 L8.27 65.87 L-0.57 57.91 L-1.29 10.37 L5.39 5.1 L16.98 1.11" stroke="none" stroke-width="0" fill="#ffd124"></path><path d="M18.47 0 M18.47 0 C39.08 -2.05, 49.93 3.37, 81.38 0 M18.47 0 C37.12 0.43, 56.24 0.71, 81.38 0 M81.38 0 C95.32 1.46, 100.22 10, 99.86 18.47 M81.38 0 C94.68 -0.81, 103.2 10.46, 99.86 18.47 M99.86 18.47 C96.93 28.77, 96.27 35.66, 99.86 55.42 M99.86 18.47 C101.14 27.68, 100.77 36.59, 99.86 55.42 M99.86 55.42 C98.71 70.45, 94.95 75.88, 81.38 73.89 M99.86 55.42 C96.12 67.31, 97.75 74.33, 81.38 73.89 M81.38 73.89 C59.44 73.79, 35.19 75.18, 18.47 73.89 M81.38 73.89 C58.95 74.64, 36.71 73.57, 18.47 73.89 M18.47 73.89 C9.94 73.88, -0.58 66.76, 0 55.42 M18.47 73.89 C5.94 76.78, 0.4 71.33, 0 55.42 M0 55.42 C-1.33 39.38, -1.11 30.6, 0 18.47 M0 55.42 C0.08 40.63, 0.7 25.52, 0 18.47 M0 18.47 C-0.02 9.44, 5.88 1.38, 18.47 0 M0 18.47 C4.33 2.88, 10.31 -1.88, 18.47 0" stroke="white" stroke-width="1" fill="none"></path></g><g transform="translate(109.32031482886032 600.7323481367151) rotate(0 35.86666488647461 25)"><text x="35.86666488647461" y="0" font-family="Virgil, Segoe UI Emoji" font-size="20px" fill="white" text-anchor="middle" style="white-space: pre;" direction="ltr" dominant-baseline="text-before-edge">Health </text><text x="35.86666488647461" y="25" font-family="Virgil, Segoe UI Emoji" font-size="20px" fill="white" text-anchor="middle" style="white-space: pre;" direction="ltr" dominant-baseline="text-before-edge">monitor</text></g><g stroke-linecap="round" transform="translate(226.72964623067992 612.4833973534663) rotate(0 88 42.5)"><path d="M20.76 0.32 L153.72 -1.89 L167.78 2.22 L172.66 9.45 L173.89 15.55 L176.16 63.72 L172.7 76.1 L168.68 82.55 L154.95 85.06 L22.82 86.32 L7.76 83.27 L1.37 76.05 L-0.54 69.26 L-0.88 16.42 L3.82 7.23 L7.47 2.81 L21.44 -0.95" stroke="none" stroke-width="0" fill="#73e3ff"></path><path d="M21.25 0 M21.25 0 C52.74 -2.34, 86.91 -0.41, 154.75 0 M21.25 0 C51.09 -0.16, 82.08 0.13, 154.75 0 M154.75 0 C167.95 -1.76, 177.38 8.07, 176 21.25 M154.75 0 C170.7 -0.61, 175.51 8.46, 176 21.25 M176 21.25 C175.3 37.23, 175.18 50.74, 176 63.75 M176 21.25 C175.87 36.38, 175.72 50.94, 176 63.75 M176 63.75 C175.1 78.71, 169.31 85.46, 154.75 85 M176 63.75 C174.3 76.76, 169.67 83.44, 154.75 85 M154.75 85 C103.15 84.74, 47.43 84.23, 21.25 85 M154.75 85 C111.78 83.83, 70.12 84.94, 21.25 85 M21.25 85 C8.9 85.83, 0.62 76.03, 0 63.75 M21.25 85 C6.96 83.53, 1.76 79.16, 0 63.75 M0 63.75 C1.42 50.24, 1.21 36.87, 0 21.25 M0 63.75 C1.15 54.11, 0.95 44.86, 0 21.25 M0 21.25 C-1.77 7.43, 5.13 -0.37, 21.25 0 M0 21.25 C-0.23 9.21, 9.01 1.19, 21.25 0" stroke="white" stroke-width="1" fill="none"></path></g><g stroke-linecap="round" transform="translate(219.12653088130492 601.570832261816) rotate(0 88 42.5)"><path d="M20.76 0.32 L153.72 -1.89 L167.78 2.22 L172.66 9.45 L173.89 15.55 L176.16 63.72 L172.7 76.1 L168.68 82.55 L154.95 85.06 L22.82 86.32 L7.76 83.27 L1.37 76.05 L-0.54 69.26 L-0.88 16.42 L3.82 7.23 L7.47 2.81 L21.44 -0.95" stroke="none" stroke-width="0" fill="#73e3ff"></path><path d="M21.25 0 M21.25 0 C52.74 -2.34, 86.91 -0.41, 154.75 0 M21.25 0 C51.09 -0.16, 82.08 0.13, 154.75 0 M154.75 0 C167.95 -1.76, 177.38 8.07, 176 21.25 M154.75 0 C170.7 -0.61, 175.51 8.46, 176 21.25 M176 21.25 C175.3 37.23, 175.18 50.74, 176 63.75 M176 21.25 C175.87 36.38, 175.72 50.94, 176 63.75 M176 63.75 C175.1 78.71, 169.31 85.46, 154.75 85 M176 63.75 C174.3 76.76, 169.67 83.44, 154.75 85 M154.75 85 C103.15 84.74, 47.43 84.23, 21.25 85 M154.75 85 C111.78 83.83, 70.12 84.94, 21.25 85 M21.25 85 C8.9 85.83, 0.62 76.03, 0 63.75 M21.25 85 C6.96 83.53, 1.76 79.16, 0 63.75 M0 63.75 C1.42 50.24, 1.21 36.87, 0 21.25 M0 63.75 C1.15 54.11, 0.95 44.86, 0 21.25 M0 21.25 C-1.77 7.43, 5.13 -0.37, 21.25 0 M0 21.25 C-0.23 9.21, 9.01 1.19, 21.25 0" stroke="white" stroke-width="1" fill="none"></path></g><g stroke-linecap="round" transform="translate(208.10854564336432 586.7771830513569) rotate(0 88 42.5)"><path d="M20.76 0.32 L153.72 -1.89 L167.78 2.22 L172.66 9.45 L173.89 15.55 L176.16 63.72 L172.7 76.1 L168.68 82.55 L154.95 85.06 L22.82 86.32 L7.76 83.27 L1.37 76.05 L-0.54 69.26 L-0.88 16.42 L3.82 7.23 L7.47 2.81 L21.44 -0.95" stroke="none" stroke-width="0" fill="#73e3ff"></path><path d="M21.25 0 M21.25 0 C52.74 -2.34, 86.91 -0.41, 154.75 0 M21.25 0 C51.09 -0.16, 82.08 0.13, 154.75 0 M154.75 0 C167.95 -1.76, 177.38 8.07, 176 21.25 M154.75 0 C170.7 -0.61, 175.51 8.46, 176 21.25 M176 21.25 C175.3 37.23, 175.18 50.74, 176 63.75 M176 21.25 C175.87 36.38, 175.72 50.94, 176 63.75 M176 63.75 C175.1 78.71, 169.31 85.46, 154.75 85 M176 63.75 C174.3 76.76, 169.67 83.44, 154.75 85 M154.75 85 C103.15 84.74, 47.43 84.23, 21.25 85 M154.75 85 C111.78 83.83, 70.12 84.94, 21.25 85 M21.25 85 C8.9 85.83, 0.62 76.03, 0 63.75 M21.25 85 C6.96 83.53, 1.76 79.16, 0 63.75 M0 63.75 C1.42 50.24, 1.21 36.87, 0 21.25 M0 63.75 C1.15 54.11, 0.95 44.86, 0 21.25 M0 21.25 C-1.77 7.43, 5.13 -0.37, 21.25 0 M0 21.25 C-0.23 9.21, 9.01 1.19, 21.25 0" stroke="white" stroke-width="1" fill="none"></path></g><g transform="translate(226.0752128186573 604.277183051356) rotate(0 70.03333282470703 25)"><text x="70.03333282470703" y="0" font-family="Virgil, Segoe UI Emoji" font-size="20px" fill="white" text-anchor="middle" style="white-space: pre;" direction="ltr" dominant-baseline="text-before-edge">Member: IP + </text><text x="70.03333282470703" y="25" font-family="Virgil, Segoe UI Emoji" font-size="20px" fill="white" text-anchor="middle" style="white-space: pre;" direction="ltr" dominant-baseline="text-before-edge">port</text></g><g stroke-linecap="round" transform="translate(477.0663294192059 500.63965533279156) rotate(0 163.5 109.5)"><path d="M28.91 -1.06 L296.96 -0.66 L312.66 6.03 L326.22 12.23 L325.95 31.66 L323.08 189.68 L323.65 208.37 L318.41 212.68 L298.65 215.59 L31.14 217.16 L10.93 210.73 L2.77 201.48 L-1.5 188.11 L-0.63 25.43 L9.97 11.5 L16.57 -0.75 L35.99 -0.4" stroke="none" stroke-width="0" fill="#ffd124"></path><path d="M32 0 M32 0 C112.38 1.19, 191.96 0.47, 295 0 M32 0 C120.81 -4.29, 210.1 -2.53, 295 0 M295 0 C314.21 -0.95, 325.6 7.91, 327 32 M295 0 C317.68 -3.92, 325.77 8.05, 327 32 M327 32 C327.28 81.24, 327.14 125.86, 327 187 M327 32 C326.34 88.81, 329.73 146.18, 327 187 M327 187 C330.92 204.67, 318.68 222.09, 295 219 M327 187 C326.03 212.78, 316.96 220.88, 295 219 M295 219 C213.33 214.12, 130.36 219.95, 32 219 M295 219 C216.13 218.97, 137.54 219.22, 32 219 M32 219 C11.89 217.3, -2.65 206.69, 0 187 M32 219 C6.27 217.36, -0.45 212.24, 0 187 M0 187 C0.04 149.34, -1.75 110.44, 0 32 M0 187 C2.1 126.38, 2.02 67.78, 0 32 M0 32 C0.19 9.57, 8.42 -1.09, 32 0 M0 32 C2 7.09, 6.83 2.12, 32 0" stroke="white" stroke-width="1" fill="none"></path></g><g transform="translate(498.47466987330745 505.63965533279156) rotate(0 142.09165954589844 25)"><text x="142.09165954589844" y="0" font-family="Virgil, Segoe UI Emoji" font-size="20px" fill="white" text-anchor="middle" style="white-space: pre;" direction="ltr" dominant-baseline="text-before-edge">Pool specific to a L7 policy: </text><text x="142.09165954589844" y="25" font-family="Virgil, Segoe UI Emoji" font-size="20px" fill="white" text-anchor="middle" style="white-space: pre;" direction="ltr" dominant-baseline="text-before-edge">protocol + algorithm</text></g><g stroke-linecap="round" transform="translate(485.32960117002403 590.6706133032311) rotate(0 49.9284892244803 36.947082026115424)"><path d="M15.39 -1.06 L83.34 -0.66 L93.39 6.15 L103.58 18.2 L98.52 59.41 L91.32 71.96 L82.53 75.76 L22.38 72.08 L8.27 65.87 L-0.57 57.91 L-1.29 10.37 L5.39 5.1 L16.98 1.11" stroke="none" stroke-width="0" fill="#ffd124"></path><path d="M18.47 0 M18.47 0 C39.08 -2.05, 49.93 3.37, 81.38 0 M18.47 0 C37.12 0.43, 56.24 0.71, 81.38 0 M81.38 0 C95.32 1.46, 100.22 10, 99.86 18.47 M81.38 0 C94.68 -0.81, 103.2 10.46, 99.86 18.47 M99.86 18.47 C96.93 28.77, 96.27 35.66, 99.86 55.42 M99.86 18.47 C101.14 27.68, 100.77 36.59, 99.86 55.42 M99.86 55.42 C98.71 70.45, 94.95 75.88, 81.38 73.89 M99.86 55.42 C96.12 67.31, 97.75 74.33, 81.38 73.89 M81.38 73.89 C59.44 73.79, 35.19 75.18, 18.47 73.89 M81.38 73.89 C58.95 74.64, 36.71 73.57, 18.47 73.89 M18.47 73.89 C9.94 73.88, -0.58 66.76, 0 55.42 M18.47 73.89 C5.94 76.78, 0.4 71.33, 0 55.42 M0 55.42 C-1.33 39.38, -1.11 30.6, 0 18.47 M0 55.42 C0.08 40.63, 0.7 25.52, 0 18.47 M0 18.47 C-0.02 9.44, 5.88 1.38, 18.47 0 M0 18.47 C4.33 2.88, 10.31 -1.88, 18.47 0" stroke="white" stroke-width="1" fill="none"></path></g><g transform="translate(499.3914255080299 602.6176953293465) rotate(0 35.86666488647461 25)"><text x="35.86666488647461" y="0" font-family="Virgil, Segoe UI Emoji" font-size="20px" fill="white" text-anchor="middle" style="white-space: pre;" direction="ltr" dominant-baseline="text-before-edge">Health </text><text x="35.86666488647461" y="25" font-family="Virgil, Segoe UI Emoji" font-size="20px" fill="white" text-anchor="middle" style="white-space: pre;" direction="ltr" dominant-baseline="text-before-edge">monitor</text></g><g stroke-linecap="round" transform="translate(616.800756909849 614.3687445460977) rotate(0 88 42.5)"><path d="M20.76 0.32 L153.72 -1.89 L167.78 2.22 L172.66 9.45 L173.89 15.55 L176.16 63.72 L172.7 76.1 L168.68 82.55 L154.95 85.06 L22.82 86.32 L7.76 83.27 L1.37 76.05 L-0.54 69.26 L-0.88 16.42 L3.82 7.23 L7.47 2.81 L21.44 -0.95" stroke="none" stroke-width="0" fill="#73e3ff"></path><path d="M21.25 0 M21.25 0 C52.74 -2.34, 86.91 -0.41, 154.75 0 M21.25 0 C51.09 -0.16, 82.08 0.13, 154.75 0 M154.75 0 C167.95 -1.76, 177.38 8.07, 176 21.25 M154.75 0 C170.7 -0.61, 175.51 8.46, 176 21.25 M176 21.25 C175.3 37.23, 175.18 50.74, 176 63.75 M176 21.25 C175.87 36.38, 175.72 50.94, 176 63.75 M176 63.75 C175.1 78.71, 169.31 85.46, 154.75 85 M176 63.75 C174.3 76.76, 169.67 83.44, 154.75 85 M154.75 85 C103.15 84.74, 47.43 84.23, 21.25 85 M154.75 85 C111.78 83.83, 70.12 84.94, 21.25 85 M21.25 85 C8.9 85.83, 0.62 76.03, 0 63.75 M21.25 85 C6.96 83.53, 1.76 79.16, 0 63.75 M0 63.75 C1.42 50.24, 1.21 36.87, 0 21.25 M0 63.75 C1.15 54.11, 0.95 44.86, 0 21.25 M0 21.25 C-1.77 7.43, 5.13 -0.37, 21.25 0 M0 21.25 C-0.23 9.21, 9.01 1.19, 21.25 0" stroke="white" stroke-width="1" fill="none"></path></g><g stroke-linecap="round" transform="translate(609.197641560474 603.4561794544474) rotate(0 88 42.5)"><path d="M20.76 0.32 L153.72 -1.89 L167.78 2.22 L172.66 9.45 L173.89 15.55 L176.16 63.72 L172.7 76.1 L168.68 82.55 L154.95 85.06 L22.82 86.32 L7.76 83.27 L1.37 76.05 L-0.54 69.26 L-0.88 16.42 L3.82 7.23 L7.47 2.81 L21.44 -0.95" stroke="none" stroke-width="0" fill="#73e3ff"></path><path d="M21.25 0 M21.25 0 C52.74 -2.34, 86.91 -0.41, 154.75 0 M21.25 0 C51.09 -0.16, 82.08 0.13, 154.75 0 M154.75 0 C167.95 -1.76, 177.38 8.07, 176 21.25 M154.75 0 C170.7 -0.61, 175.51 8.46, 176 21.25 M176 21.25 C175.3 37.23, 175.18 50.74, 176 63.75 M176 21.25 C175.87 36.38, 175.72 50.94, 176 63.75 M176 63.75 C175.1 78.71, 169.31 85.46, 154.75 85 M176 63.75 C174.3 76.76, 169.67 83.44, 154.75 85 M154.75 85 C103.15 84.74, 47.43 84.23, 21.25 85 M154.75 85 C111.78 83.83, 70.12 84.94, 21.25 85 M21.25 85 C8.9 85.83, 0.62 76.03, 0 63.75 M21.25 85 C6.96 83.53, 1.76 79.16, 0 63.75 M0 63.75 C1.42 50.24, 1.21 36.87, 0 21.25 M0 63.75 C1.15 54.11, 0.95 44.86, 0 21.25 M0 21.25 C-1.77 7.43, 5.13 -0.37, 21.25 0 M0 21.25 C-0.23 9.21, 9.01 1.19, 21.25 0" stroke="white" stroke-width="1" fill="none"></path></g><g stroke-linecap="round" transform="translate(598.1796563225334 588.6625302439874) rotate(0 88 42.5)"><path d="M20.76 0.32 L153.72 -1.89 L167.78 2.22 L172.66 9.45 L173.89 15.55 L176.16 63.72 L172.7 76.1 L168.68 82.55 L154.95 85.06 L22.82 86.32 L7.76 83.27 L1.37 76.05 L-0.54 69.26 L-0.88 16.42 L3.82 7.23 L7.47 2.81 L21.44 -0.95" stroke="none" stroke-width="0" fill="#73e3ff"></path><path d="M21.25 0 M21.25 0 C52.74 -2.34, 86.91 -0.41, 154.75 0 M21.25 0 C51.09 -0.16, 82.08 0.13, 154.75 0 M154.75 0 C167.95 -1.76, 177.38 8.07, 176 21.25 M154.75 0 C170.7 -0.61, 175.51 8.46, 176 21.25 M176 21.25 C175.3 37.23, 175.18 50.74, 176 63.75 M176 21.25 C175.87 36.38, 175.72 50.94, 176 63.75 M176 63.75 C175.1 78.71, 169.31 85.46, 154.75 85 M176 63.75 C174.3 76.76, 169.67 83.44, 154.75 85 M154.75 85 C103.15 84.74, 47.43 84.23, 21.25 85 M154.75 85 C111.78 83.83, 70.12 84.94, 21.25 85 M21.25 85 C8.9 85.83, 0.62 76.03, 0 63.75 M21.25 85 C6.96 83.53, 1.76 79.16, 0 63.75 M0 63.75 C1.42 50.24, 1.21 36.87, 0 21.25 M0 63.75 C1.15 54.11, 0.95 44.86, 0 21.25 M0 21.25 C-1.77 7.43, 5.13 -0.37, 21.25 0 M0 21.25 C-0.23 9.21, 9.01 1.19, 21.25 0" stroke="white" stroke-width="1" fill="none"></path></g><g transform="translate(616.1463234978264 606.1625302439874) rotate(0 70.03333282470703 25)"><text x="70.03333282470703" y="0" font-family="Virgil, Segoe UI Emoji" font-size="20px" fill="white" text-anchor="middle" style="white-space: pre;" direction="ltr" dominant-baseline="text-before-edge">Member: IP + </text><text x="70.03333282470703" y="25" font-family="Virgil, Segoe UI Emoji" font-size="20px" fill="white" text-anchor="middle" style="white-space: pre;" direction="ltr" dominant-baseline="text-before-edge">port</text></g><g stroke-linecap="round"><g transform="translate(365.7388481383696 401.54115607090284) rotate(0 -2.32329651228099 2.5248340164770298)"><path d="M0 0 C-0.77 0.84, -3.87 4.21, -4.65 5.05 M0 0 C-0.77 0.84, -3.87 4.21, -4.65 5.05" stroke="white" stroke-width="2" fill="none"></path></g></g><mask></mask><g stroke-linecap="round" transform="translate(398.3006227722817 337.11798516451404) rotate(0 77.46443635372782 54.808236920762454)"><path d="M24.32 -1.06 L129.49 -0.66 L137.67 3.24 L151.8 6.58 L152.17 15.08 L151.01 30.08 L155.65 90.5 L151.98 100.95 L143.17 104.49 L126.66 107.78 L25.83 105.85 L16.19 108.38 L5.35 103.88 L-0.7 89.57 L2.4 24.48 L2.42 7.95 L14.7 3.46 L27.44 1.11" stroke="none" stroke-width="0" fill="#a6d64d"></path><path d="M27.4 0 M27.4 0 C61.53 0.36, 92.86 -0.9, 127.52 0 M27.4 0 C68.5 2.22, 105.63 -0.13, 127.52 0 M127.52 0 C144.39 -2.76, 156.1 5.73, 154.93 27.4 M127.52 0 C144.57 -2.62, 155.23 8.86, 154.93 27.4 M154.93 27.4 C155.38 46.1, 157.76 68.33, 154.93 82.21 M154.93 27.4 C155.8 46.75, 156 63.89, 154.93 82.21 M154.93 82.21 C157.27 103.57, 144.95 113.49, 127.52 109.62 M154.93 82.21 C155.55 102.36, 146.21 113.33, 127.52 109.62 M127.52 109.62 C99.73 111.62, 77.28 107.26, 27.4 109.62 M127.52 109.62 C100.11 112.43, 72.96 110.02, 27.4 109.62 M27.4 109.62 C6.48 107.97, -3.82 99.06, 0 82.21 M27.4 109.62 C8.69 113.52, -2.44 98.73, 0 82.21 M0 82.21 C-2.62 66.59, 3.59 50.74, 0 27.4 M0 82.21 C0.77 63.06, -0.94 44.99, 0 27.4 M0 27.4 C-2.25 8.04, 10.87 -3.11, 27.4 0 M0 27.4 C-3.83 11.25, 9.12 1.61, 27.4 0" stroke="white" stroke-width="1" fill="none"></path></g><g stroke-linecap="round" transform="translate(384.20440708275146 304.7051041086336) rotate(0 78.20865114100468 64.11092176172423)"><path d="M28.91 -1.06 L133.88 -0.16 L146.57 9.53 L158.14 17.73 L155.37 31.66 L152 106.4 L149.57 122.09 L142.32 124.41 L128.07 124.81 L23.64 125.89 L6.43 116.45 L1.27 104.2 L-1 25.61 L6.87 8.93 L19.97 5.5 L30.57 -2.75" stroke="none" stroke-width="0" fill="#a6d64d"></path><path d="M32 0 M32 0 C70.07 0.77, 107.47 2.51, 124.42 0 M32 0 C64.81 1.25, 97.69 -1.02, 124.42 0 M124.42 0 C148.66 3.74, 154.3 9.71, 156.42 32 M124.42 0 C144.14 -3.17, 157.77 6.75, 156.42 32 M156.42 32 C155.45 52.03, 156.15 68.84, 156.42 96.22 M156.42 32 C156.67 52.78, 154.43 71.39, 156.42 96.22 M156.42 96.22 C159.94 117.93, 149.67 124.55, 124.42 128.22 M156.42 96.22 C159.11 121.11, 144.79 132.67, 124.42 128.22 M124.42 128.22 C98.66 126.42, 65.92 124.83, 32 128.22 M124.42 128.22 C102.59 127.73, 81.24 129.47, 32 128.22 M32 128.22 C11.01 131.34, 1.23 115.86, 0 96.22 M32 128.22 C7.62 126.33, -4.4 115.92, 0 96.22 M0 96.22 C-2.62 76.96, -2.24 59.55, 0 32 M0 96.22 C-0.13 82.35, 1.89 65.68, 0 32 M0 32 C3.61 9.03, 10.85 -1.1, 32 0 M0 32 C-2.59 9.41, 12.67 -3.58, 32 0" stroke="white" stroke-width="1" fill="none"></path></g><g stroke-linecap="round" transform="translate(367.38170528122646 276.75674836516123) rotate(0 79 69)"><path d="M28.91 -1.06 L135.46 -0.16 L148.16 9.53 L159.72 17.73 L156.95 31.66 L153.58 116.18 L151.15 131.87 L143.91 134.18 L129.65 134.59 L23.64 135.66 L6.43 126.23 L1.27 113.98 L-1 25.61 L6.87 8.93 L19.97 5.5 L30.57 -2.75" stroke="none" stroke-width="0" fill="#a6d64d"></path><path d="M32 0 M32 0 C70.7 0.77, 108.74 2.51, 126 0 M32 0 C65.37 1.23, 98.81 -1.03, 126 0 M126 0 C150.24 3.74, 155.88 9.71, 158 32 M126 0 C145.72 -3.17, 159.35 6.75, 158 32 M158 32 C156.92 54.7, 157.62 74.18, 158 106 M158 32 C158.2 55.79, 155.95 77.41, 158 106 M158 106 C161.53 127.71, 151.25 134.33, 126 138 M158 106 C160.69 130.89, 146.37 142.45, 126 138 M126 138 C99.75 136.2, 66.51 134.61, 32 138 M126 138 C103.8 137.5, 82.08 139.25, 32 138 M32 138 C11.01 141.12, 1.23 125.64, 0 106 M32 138 C7.62 136.11, -4.4 125.7, 0 106 M0 106 C-2.78 83.9, -2.4 63.65, 0 32 M0 106 C-0.13 89.91, 1.89 71.02, 0 32 M0 32 C3.61 9.03, 10.85 -1.1, 32 0 M0 32 C-2.59 9.41, 12.67 -3.58, 32 0" stroke="white" stroke-width="1" fill="none"></path></g><g transform="translate(378.23170375534755 281.75674836516123) rotate(0 68.1500015258789 9.985697844896038)"><text x="68.1500015258789" y="0" font-family="Virgil, Segoe UI Emoji" font-size="15.977116551833701px" fill="white" text-anchor="middle" style="white-space: pre;" direction="ltr" dominant-baseline="text-before-edge">L7 Policy : action</text></g><g stroke-linecap="round" transform="translate(401.72785159886234 355.8662736675062) rotate(0 49.9284892244803 17.339170912618897)"><path d="M5.58 -1.06 L96.94 -0.12 L97.47 6.4 L103.04 29.53 L90.14 34.34 L0.96 36.82 L1.69 31.67 L3.91 6.85 L5.82 -1.24 L7.81 -1.84" stroke="none" stroke-width="0" fill="#a6d64d"></path><path d="M8.67 0 M8.67 0 C30.66 -1.82, 52.79 -1.44, 91.19 0 M8.67 0 C34.63 -2.82, 64.02 -1.64, 91.19 0 M91.19 0 C97 1.11, 100.64 4.45, 99.86 8.67 M91.19 0 C99.88 2.44, 101.72 4.56, 99.86 8.67 M99.86 8.67 C99.58 16.55, 103.43 17.55, 99.86 26.01 M99.86 8.67 C100.24 11.98, 99.27 17.26, 99.86 26.01 M99.86 26.01 C100.12 31.55, 99.45 35.14, 91.19 34.68 M99.86 26.01 C101.85 32.16, 95.65 37.79, 91.19 34.68 M91.19 34.68 C63.48 36.86, 36.9 37.26, 8.67 34.68 M91.19 34.68 C73.58 37.89, 57.08 36.77, 8.67 34.68 M8.67 34.68 C3.25 37.91, -1.97 31.26, 0 26.01 M8.67 34.68 C-1.2 31.6, 4.35 31.77, 0 26.01 M0 26.01 C2.26 21.36, 2.79 17.17, 0 8.67 M0 26.01 C-1.43 20.93, 0.06 18.55, 0 8.67 M0 8.67 C-2.12 1.36, 2.27 -1.15, 8.67 0 M0 8.67 C0.7 -0.48, 2.86 3.77, 8.67 0" stroke="white" stroke-width="1" fill="none"></path></g><g transform="translate(424.1063415862818 363.21974673522914) rotate(0 27.549999237060547 9.985697844896038)"><text x="27.549999237060547" y="0" font-family="Virgil, Segoe UI Emoji" font-size="15.9771165518337px" fill="white" text-anchor="middle" style="white-space: pre;" direction="ltr" dominant-baseline="text-before-edge">L7 rule</text></g><g stroke-linecap="round" transform="translate(390.4639141309058 344.9349042936485) rotate(0 49.9284892244803 17.339170912618897)"><path d="M5.58 -1.06 L96.94 -0.12 L97.47 6.4 L103.04 29.53 L90.14 34.34 L0.96 36.82 L1.69 31.67 L3.91 6.85 L5.82 -1.24 L7.81 -1.84" stroke="none" stroke-width="0" fill="#a6d64d"></path><path d="M8.67 0 M8.67 0 C30.66 -1.82, 52.79 -1.44, 91.19 0 M8.67 0 C34.63 -2.82, 64.02 -1.64, 91.19 0 M91.19 0 C97 1.11, 100.64 4.45, 99.86 8.67 M91.19 0 C99.88 2.44, 101.72 4.56, 99.86 8.67 M99.86 8.67 C99.58 16.55, 103.43 17.55, 99.86 26.01 M99.86 8.67 C100.24 11.98, 99.27 17.26, 99.86 26.01 M99.86 26.01 C100.12 31.55, 99.45 35.14, 91.19 34.68 M99.86 26.01 C101.85 32.16, 95.65 37.79, 91.19 34.68 M91.19 34.68 C63.48 36.86, 36.9 37.26, 8.67 34.68 M91.19 34.68 C73.58 37.89, 57.08 36.77, 8.67 34.68 M8.67 34.68 C3.25 37.91, -1.97 31.26, 0 26.01 M8.67 34.68 C-1.2 31.6, 4.35 31.77, 0 26.01 M0 26.01 C2.26 21.36, 2.79 17.17, 0 8.67 M0 26.01 C-1.43 20.93, 0.06 18.55, 0 8.67 M0 8.67 C-2.12 1.36, 2.27 -1.15, 8.67 0 M0 8.67 C0.7 -0.48, 2.86 3.77, 8.67 0" stroke="white" stroke-width="1" fill="none"></path></g><g transform="translate(412.8424041183257 352.28837736137143) rotate(0 27.549999237060547 9.985697844896038)"><text x="27.549999237060547" y="0" font-family="Virgil, Segoe UI Emoji" font-size="15.9771165518337px" fill="white" text-anchor="middle" style="white-space: pre;" direction="ltr" dominant-baseline="text-before-edge">L7 rule</text></g><g stroke-linecap="round" transform="translate(381.56115575687363 330.232271877456) rotate(0 49.9284892244803 17.339170912618897)"><path d="M5.58 -1.06 L96.94 -0.12 L97.47 6.4 L103.04 29.53 L90.14 34.34 L0.96 36.82 L1.69 31.67 L3.91 6.85 L5.82 -1.24 L7.81 -1.84" stroke="none" stroke-width="0" fill="#a6d64d"></path><path d="M8.67 0 M8.67 0 C30.66 -1.82, 52.79 -1.44, 91.19 0 M8.67 0 C34.63 -2.82, 64.02 -1.64, 91.19 0 M91.19 0 C97 1.11, 100.64 4.45, 99.86 8.67 M91.19 0 C99.88 2.44, 101.72 4.56, 99.86 8.67 M99.86 8.67 C99.58 16.55, 103.43 17.55, 99.86 26.01 M99.86 8.67 C100.24 11.98, 99.27 17.26, 99.86 26.01 M99.86 26.01 C100.12 31.55, 99.45 35.14, 91.19 34.68 M99.86 26.01 C101.85 32.16, 95.65 37.79, 91.19 34.68 M91.19 34.68 C63.48 36.86, 36.9 37.26, 8.67 34.68 M91.19 34.68 C73.58 37.89, 57.08 36.77, 8.67 34.68 M8.67 34.68 C3.25 37.91, -1.97 31.26, 0 26.01 M8.67 34.68 C-1.2 31.6, 4.35 31.77, 0 26.01 M0 26.01 C2.26 21.36, 2.79 17.17, 0 8.67 M0 26.01 C-1.43 20.93, 0.06 18.55, 0 8.67 M0 8.67 C-2.12 1.36, 2.27 -1.15, 8.67 0 M0 8.67 C0.7 -0.48, 2.86 3.77, 8.67 0" stroke="white" stroke-width="1" fill="none"></path></g><g transform="translate(403.93964574429356 337.58574494517893) rotate(0 27.549999237060547 9.985697844896038)"><text x="27.549999237060547" y="0" font-family="Virgil, Segoe UI Emoji" font-size="15.9771165518337px" fill="white" text-anchor="middle" style="white-space: pre;" direction="ltr" dominant-baseline="text-before-edge">L7 rule</text></g><g stroke-linecap="round"><g transform="translate(526.3817052812265 410.02361694550814) rotate(0 45.669881912687856 44.44041452439603)"><path d="M0 0 C15.22 14.81, 76.12 74.07, 91.34 88.88" stroke="white" stroke-width="4.5" fill="none" stroke-dasharray="8 12"></path></g><g transform="translate(526.3817052812265 410.02361694550814) rotate(0 45.669881912687856 44.44041452439603)"><path d="M63.98 76.57 C70.21 79.38, 76.45 82.18, 91.34 88.88" stroke="white" stroke-width="4.5" fill="none"></path></g><g transform="translate(526.3817052812265 410.02361694550814) rotate(0 45.669881912687856 44.44041452439603)"><path d="M78.29 61.87 C81.26 68.02, 84.24 74.18, 91.34 88.88" stroke="white" stroke-width="4.5" fill="none"></path></g></g><mask></mask><g transform="translate(365.8600015025331 387.7007475633129) rotate(0 9.120691643405621 7.637875674154259)" stroke="none"><path fill="#c92a2a" d="M 1.23,-1.72 Q 1.23,-1.72 2.84,-0.47 4.44,0.77 6.57,2.52 8.70,4.27 10.71,6.06 12.72,7.86 14.17,9.16 15.61,10.46 17.42,12.16 19.23,13.86 19.36,14.01 19.49,14.16 19.58,14.34 19.67,14.52 19.72,14.71 19.77,14.91 19.76,15.11 19.76,15.31 19.71,15.50 19.66,15.70 19.57,15.87 19.47,16.05 19.34,16.20 19.21,16.35 19.04,16.46 18.87,16.57 18.69,16.64 18.50,16.71 18.30,16.73 18.10,16.76 17.90,16.73 17.70,16.71 17.52,16.63 17.33,16.56 17.17,16.45 17.00,16.33 16.73,15.81 16.46,15.30 16.47,15.03 16.49,14.76 16.58,14.51 16.68,14.26 16.85,14.05 17.02,13.84 17.25,13.70 17.48,13.56 17.74,13.50 18.00,13.44 18.27,13.46 18.54,13.49 18.78,13.60 19.03,13.71 19.23,13.89 19.42,14.07 19.55,14.31 19.68,14.54 19.73,14.81 19.78,15.07 19.74,15.34 19.70,15.60 19.57,15.84 19.45,16.08 19.26,16.27 19.06,16.46 18.82,16.57 18.58,16.69 18.31,16.72 18.05,16.76 17.78,16.70 17.52,16.65 17.29,16.51 17.05,16.38 16.88,16.17 16.70,15.97 16.60,15.72 16.49,15.47 16.48,15.21 16.46,14.94 16.53,14.68 16.60,14.42 16.74,14.19 16.89,13.97 17.10,13.80 17.32,13.64 17.57,13.55 17.82,13.46 18.09,13.45 18.36,13.45 18.62,13.53 18.87,13.62 19.09,13.78 19.31,13.94 19.46,14.16 19.61,14.38 19.42,14.12 19.23,13.86 19.36,14.01 19.49,14.16 19.58,14.34 19.67,14.52 19.72,14.71 19.77,14.91 19.76,15.11 19.76,15.31 19.71,15.50 19.66,15.70 19.57,15.87 19.47,16.05 19.34,16.20 19.21,16.35 19.04,16.46 18.87,16.57 18.69,16.64 18.50,16.71 18.30,16.73 18.10,16.76 17.90,16.73 17.70,16.71 17.52,16.63 17.33,16.56 17.17,16.45 17.00,16.33 15.20,14.63 13.39,12.93 11.98,11.66 10.57,10.38 8.55,8.74 6.53,7.09 4.35,5.52 2.17,3.95 0.46,2.84 -1.23,1.72 -1.42,1.55 -1.61,1.38 -1.75,1.16 -1.89,0.95 -1.98,0.71 -2.07,0.47 -2.09,0.21 -2.12,-0.03 -2.08,-0.28 -2.05,-0.54 -1.95,-0.78 -1.86,-1.01 -1.71,-1.22 -1.56,-1.43 -1.37,-1.60 -1.17,-1.76 -0.94,-1.88 -0.72,-1.99 -0.47,-2.05 -0.22,-2.11 0.03,-2.10 0.29,-2.10 0.53,-2.03 0.78,-1.97 1.01,-1.85 1.23,-1.72 1.23,-1.72 L 1.23,-1.72 Z"></path></g><g transform="translate(368.55609383285173 473.30810292746605) rotate(0 7.06208631361892 -78.93282586132261)" stroke="none"><path fill="#c92a2a" d="M -1.71,-73.02 Q -1.71,-73.02 0.03,-74.76 1.78,-76.51 3.38,-78.18 4.98,-79.86 6.00,-81.08 7.02,-82.31 7.85,-83.43 8.69,-84.54 9.58,-85.31 10.48,-86.07 11.75,-87.31 13.03,-88.55 13.41,-88.67 13.79,-88.80 14.20,-88.80 14.60,-88.80 14.98,-88.67 15.37,-88.54 15.69,-88.29 16.01,-88.04 16.23,-87.71 16.46,-87.37 16.56,-86.98 16.67,-86.59 16.65,-86.19 16.62,-85.79 16.47,-85.41 16.32,-85.04 16.06,-84.73 15.79,-84.42 15.45,-84.22 15.10,-84.01 14.70,-83.92 14.31,-83.84 13.91,-83.88 13.51,-83.93 13.14,-84.10 12.77,-84.27 12.48,-84.55 12.19,-84.83 12.00,-85.19 11.81,-85.55 11.75,-85.95 11.69,-86.35 11.75,-86.74 11.82,-87.14 12.01,-87.50 12.20,-87.86 12.50,-88.13 12.79,-88.41 13.16,-88.58 13.53,-88.74 13.93,-88.79 14.33,-88.83 14.73,-88.74 15.12,-88.65 15.47,-88.44 15.81,-88.23 16.07,-87.92 16.33,-87.61 16.48,-87.24 16.63,-86.86 16.65,-86.46 16.67,-86.05 16.56,-85.66 16.45,-85.27 16.22,-84.94 15.99,-84.61 15.67,-84.36 15.35,-84.12 15.35,-84.12 15.35,-84.12 13.59,-82.81 11.83,-81.50 10.85,-80.66 9.87,-79.81 8.78,-78.63 7.69,-77.46 6.21,-75.65 4.73,-73.83 3.15,-71.92 1.58,-70.01 1.38,-69.84 1.17,-69.66 0.93,-69.54 0.69,-69.42 0.43,-69.36 0.17,-69.30 -0.09,-69.30 -0.36,-69.30 -0.62,-69.37 -0.88,-69.44 -1.12,-69.57 -1.35,-69.69 -1.55,-69.87 -1.75,-70.06 -1.90,-70.28 -2.05,-70.50 -2.14,-70.76 -2.24,-71.01 -2.26,-71.28 -2.29,-71.54 -2.26,-71.81 -2.22,-72.08 -2.12,-72.33 -2.02,-72.58 -1.87,-72.80 -1.71,-73.02 -1.71,-73.02 L -1.71,-73.02 Z"></path></g><g transform="translate(377.106896839362 409.2829763943448) rotate(0 9.120691643405621 7.637875674154259)" stroke="none"><path fill="#c92a2a" d="M 1.23,-1.72 Q 1.23,-1.72 2.84,-0.47 4.44,0.77 6.57,2.52 8.70,4.27 10.71,6.06 12.72,7.86 14.17,9.16 15.61,10.46 17.42,12.16 19.23,13.86 19.36,14.01 19.49,14.16 19.58,14.34 19.67,14.52 19.72,14.71 19.77,14.91 19.76,15.11 19.76,15.31 19.71,15.50 19.66,15.70 19.57,15.87 19.47,16.05 19.34,16.20 19.21,16.35 19.04,16.46 18.87,16.57 18.69,16.64 18.50,16.71 18.30,16.73 18.10,16.76 17.90,16.73 17.70,16.71 17.52,16.63 17.33,16.56 17.17,16.45 17.00,16.33 16.73,15.81 16.46,15.30 16.47,15.03 16.49,14.76 16.58,14.51 16.68,14.26 16.85,14.05 17.02,13.84 17.25,13.70 17.48,13.56 17.74,13.50 18.00,13.44 18.27,13.46 18.54,13.49 18.78,13.60 19.03,13.71 19.23,13.89 19.42,14.07 19.55,14.31 19.68,14.54 19.73,14.81 19.78,15.07 19.74,15.34 19.70,15.60 19.57,15.84 19.45,16.08 19.26,16.27 19.06,16.46 18.82,16.57 18.58,16.69 18.31,16.72 18.05,16.76 17.78,16.70 17.52,16.65 17.29,16.51 17.05,16.38 16.88,16.17 16.70,15.97 16.60,15.72 16.49,15.47 16.48,15.21 16.46,14.94 16.53,14.68 16.60,14.42 16.74,14.19 16.89,13.97 17.10,13.80 17.32,13.64 17.57,13.55 17.82,13.46 18.09,13.45 18.36,13.45 18.62,13.53 18.87,13.62 19.09,13.78 19.31,13.94 19.46,14.16 19.61,14.38 19.42,14.12 19.23,13.86 19.36,14.01 19.49,14.16 19.58,14.34 19.67,14.52 19.72,14.71 19.77,14.91 19.76,15.11 19.76,15.31 19.71,15.50 19.66,15.70 19.57,15.87 19.47,16.05 19.34,16.20 19.21,16.35 19.04,16.46 18.87,16.57 18.69,16.64 18.50,16.71 18.30,16.73 18.10,16.76 17.90,16.73 17.70,16.71 17.52,16.63 17.33,16.56 17.17,16.45 17.00,16.33 15.20,14.63 13.39,12.93 11.98,11.66 10.57,10.38 8.55,8.74 6.53,7.09 4.35,5.52 2.17,3.95 0.46,2.84 -1.23,1.72 -1.42,1.55 -1.61,1.38 -1.75,1.16 -1.89,0.95 -1.98,0.71 -2.07,0.47 -2.09,0.21 -2.12,-0.03 -2.08,-0.28 -2.05,-0.54 -1.95,-0.78 -1.86,-1.01 -1.71,-1.22 -1.56,-1.43 -1.37,-1.60 -1.17,-1.76 -0.94,-1.88 -0.72,-1.99 -0.47,-2.05 -0.22,-2.11 0.03,-2.10 0.29,-2.10 0.53,-2.03 0.78,-1.97 1.01,-1.85 1.23,-1.72 1.23,-1.72 L 1.23,-1.72 Z"></path></g><g transform="translate(379.8029891696806 494.89033175849795) rotate(0 7.06208631361892 -78.93282586132261)" stroke="none"><path fill="#c92a2a" d="M -1.71,-73.02 Q -1.71,-73.02 0.03,-74.76 1.78,-76.51 3.38,-78.18 4.98,-79.86 6.00,-81.08 7.02,-82.31 7.85,-83.43 8.69,-84.54 9.58,-85.31 10.48,-86.07 11.75,-87.31 13.03,-88.55 13.41,-88.67 13.79,-88.80 14.20,-88.80 14.60,-88.80 14.98,-88.67 15.37,-88.54 15.69,-88.29 16.01,-88.04 16.23,-87.71 16.46,-87.37 16.56,-86.98 16.67,-86.59 16.65,-86.19 16.62,-85.79 16.47,-85.41 16.32,-85.04 16.06,-84.73 15.79,-84.42 15.45,-84.22 15.10,-84.01 14.70,-83.92 14.31,-83.84 13.91,-83.88 13.51,-83.93 13.14,-84.10 12.77,-84.27 12.48,-84.55 12.19,-84.83 12.00,-85.19 11.81,-85.55 11.75,-85.95 11.69,-86.35 11.75,-86.74 11.82,-87.14 12.01,-87.50 12.20,-87.86 12.50,-88.13 12.79,-88.41 13.16,-88.58 13.53,-88.74 13.93,-88.79 14.33,-88.83 14.73,-88.74 15.12,-88.65 15.47,-88.44 15.81,-88.23 16.07,-87.92 16.33,-87.61 16.48,-87.24 16.63,-86.86 16.65,-86.46 16.67,-86.05 16.56,-85.66 16.45,-85.27 16.22,-84.94 15.99,-84.61 15.67,-84.36 15.35,-84.12 15.35,-84.12 15.35,-84.12 13.59,-82.81 11.83,-81.50 10.85,-80.66 9.87,-79.81 8.78,-78.63 7.69,-77.46 6.21,-75.65 4.73,-73.83 3.15,-71.92 1.58,-70.01 1.38,-69.84 1.17,-69.66 0.93,-69.54 0.69,-69.42 0.43,-69.36 0.17,-69.30 -0.09,-69.30 -0.36,-69.30 -0.62,-69.37 -0.88,-69.44 -1.12,-69.57 -1.35,-69.69 -1.55,-69.87 -1.75,-70.06 -1.90,-70.28 -2.05,-70.50 -2.14,-70.76 -2.24,-71.01 -2.26,-71.28 -2.29,-71.54 -2.26,-71.81 -2.22,-72.08 -2.12,-72.33 -2.02,-72.58 -1.87,-72.80 -1.71,-73.02 -1.71,-73.02 L -1.71,-73.02 Z"></path></g><g transform="translate(400.9217700322247 432.35363479993043) rotate(0 9.120691643405621 7.637875674154259)" stroke="none"><path fill="#c92a2a" d="M 1.23,-1.72 Q 1.23,-1.72 2.84,-0.47 4.44,0.77 6.57,2.52 8.70,4.27 10.71,6.06 12.72,7.86 14.17,9.16 15.61,10.46 17.42,12.16 19.23,13.86 19.36,14.01 19.49,14.16 19.58,14.34 19.67,14.52 19.72,14.71 19.77,14.91 19.76,15.11 19.76,15.31 19.71,15.50 19.66,15.70 19.57,15.87 19.47,16.05 19.34,16.20 19.21,16.35 19.04,16.46 18.87,16.57 18.69,16.64 18.50,16.71 18.30,16.73 18.10,16.76 17.90,16.73 17.70,16.71 17.52,16.63 17.33,16.56 17.17,16.45 17.00,16.33 16.73,15.81 16.46,15.30 16.47,15.03 16.49,14.76 16.58,14.51 16.68,14.26 16.85,14.05 17.02,13.84 17.25,13.70 17.48,13.56 17.74,13.50 18.00,13.44 18.27,13.46 18.54,13.49 18.78,13.60 19.03,13.71 19.23,13.89 19.42,14.07 19.55,14.31 19.68,14.54 19.73,14.81 19.78,15.07 19.74,15.34 19.70,15.60 19.57,15.84 19.45,16.08 19.26,16.27 19.06,16.46 18.82,16.57 18.58,16.69 18.31,16.72 18.05,16.76 17.78,16.70 17.52,16.65 17.29,16.51 17.05,16.38 16.88,16.17 16.70,15.97 16.60,15.72 16.49,15.47 16.48,15.21 16.46,14.94 16.53,14.68 16.60,14.42 16.74,14.19 16.89,13.97 17.10,13.80 17.32,13.64 17.57,13.55 17.82,13.46 18.09,13.45 18.36,13.45 18.62,13.53 18.87,13.62 19.09,13.78 19.31,13.94 19.46,14.16 19.61,14.38 19.42,14.12 19.23,13.86 19.36,14.01 19.49,14.16 19.58,14.34 19.67,14.52 19.72,14.71 19.77,14.91 19.76,15.11 19.76,15.31 19.71,15.50 19.66,15.70 19.57,15.87 19.47,16.05 19.34,16.20 19.21,16.35 19.04,16.46 18.87,16.57 18.69,16.64 18.50,16.71 18.30,16.73 18.10,16.76 17.90,16.73 17.70,16.71 17.52,16.63 17.33,16.56 17.17,16.45 17.00,16.33 15.20,14.63 13.39,12.93 11.98,11.66 10.57,10.38 8.55,8.74 6.53,7.09 4.35,5.52 2.17,3.95 0.46,2.84 -1.23,1.72 -1.42,1.55 -1.61,1.38 -1.75,1.16 -1.89,0.95 -1.98,0.71 -2.07,0.47 -2.09,0.21 -2.12,-0.03 -2.08,-0.28 -2.05,-0.54 -1.95,-0.78 -1.86,-1.01 -1.71,-1.22 -1.56,-1.43 -1.37,-1.60 -1.17,-1.76 -0.94,-1.88 -0.72,-1.99 -0.47,-2.05 -0.22,-2.11 0.03,-2.10 0.29,-2.10 0.53,-2.03 0.78,-1.97 1.01,-1.85 1.23,-1.72 1.23,-1.72 L 1.23,-1.72 Z"></path></g><g transform="translate(403.6178623625433 517.9609901640836) rotate(0 7.06208631361892 -78.93282586132261)" stroke="none"><path fill="#c92a2a" d="M -1.71,-73.02 Q -1.71,-73.02 0.03,-74.76 1.78,-76.51 3.38,-78.18 4.98,-79.86 6.00,-81.08 7.02,-82.31 7.85,-83.43 8.69,-84.54 9.58,-85.31 10.48,-86.07 11.75,-87.31 13.03,-88.55 13.41,-88.67 13.79,-88.80 14.20,-88.80 14.60,-88.80 14.98,-88.67 15.37,-88.54 15.69,-88.29 16.01,-88.04 16.23,-87.71 16.46,-87.37 16.56,-86.98 16.67,-86.59 16.65,-86.19 16.62,-85.79 16.47,-85.41 16.32,-85.04 16.06,-84.73 15.79,-84.42 15.45,-84.22 15.10,-84.01 14.70,-83.92 14.31,-83.84 13.91,-83.88 13.51,-83.93 13.14,-84.10 12.77,-84.27 12.48,-84.55 12.19,-84.83 12.00,-85.19 11.81,-85.55 11.75,-85.95 11.69,-86.35 11.75,-86.74 11.82,-87.14 12.01,-87.50 12.20,-87.86 12.50,-88.13 12.79,-88.41 13.16,-88.58 13.53,-88.74 13.93,-88.79 14.33,-88.83 14.73,-88.74 15.12,-88.65 15.47,-88.44 15.81,-88.23 16.07,-87.92 16.33,-87.61 16.48,-87.24 16.63,-86.86 16.65,-86.46 16.67,-86.05 16.56,-85.66 16.45,-85.27 16.22,-84.94 15.99,-84.61 15.67,-84.36 15.35,-84.12 15.35,-84.12 15.35,-84.12 13.59,-82.81 11.83,-81.50 10.85,-80.66 9.87,-79.81 8.78,-78.63 7.69,-77.46 6.21,-75.65 4.73,-73.83 3.15,-71.92 1.58,-70.01 1.38,-69.84 1.17,-69.66 0.93,-69.54 0.69,-69.42 0.43,-69.36 0.17,-69.30 -0.09,-69.30 -0.36,-69.30 -0.62,-69.37 -0.88,-69.44 -1.12,-69.57 -1.35,-69.69 -1.55,-69.87 -1.75,-70.06 -1.90,-70.28 -2.05,-70.50 -2.14,-70.76 -2.24,-71.01 -2.26,-71.28 -2.29,-71.54 -2.26,-71.81 -2.22,-72.08 -2.12,-72.33 -2.02,-72.58 -1.87,-72.80 -1.71,-73.02 -1.71,-73.02 L -1.71,-73.02 Z"></path></g><g stroke-linecap="round"><g transform="translate(376.7371149294331 426.70891741733544) rotate(0 -66.22641048627202 34.867553602437624)"><path d="M0.51 1.63 C-21.27 13.52, -108.83 58.56, -131.37 69.69 M-2.66 0.05 C-24.64 11.32, -111.88 55.32, -132.96 65.87" stroke="white" stroke-width="4" fill="none"></path></g><g transform="translate(376.7371149294331 426.70891741733544) rotate(0 -66.22641048627202 34.867553602437624)"><path d="M-110.06 45.75 C-115.15 46.98, -122.63 57.99, -130.14 68.99 M-112.03 42.16 C-121.76 51.09, -126.32 59.88, -134.05 67.29" stroke="white" stroke-width="4" fill="none"></path></g><g transform="translate(376.7371149294331 426.70891741733544) rotate(0 -66.22641048627202 34.867553602437624)"><path d="M-100.84 64.08 C-108.26 60.3, -118.27 66.27, -130.14 68.99 M-102.81 60.49 C-115.83 62.99, -123.71 65.18, -134.05 67.29" stroke="white" stroke-width="4" fill="none"></path></g></g><mask></mask><g transform="translate(506.37593248486246 478.1547814452663) rotate(0 12.321888133203288 -85.41817824861158)" stroke="none"><path fill="#5c940d" d="M 1.51,-83.17 Q 1.51,-83.17 2.87,-81.94 4.23,-80.70 5.55,-79.29 6.87,-77.88 7.99,-76.60 9.11,-75.32 9.86,-74.43 10.61,-73.54 11.29,-72.71 11.97,-71.88 12.14,-71.63 12.32,-71.37 12.44,-71.09 12.56,-70.81 12.61,-70.51 12.66,-70.21 12.64,-69.90 12.61,-69.60 12.52,-69.31 12.42,-69.02 12.26,-68.77 12.10,-68.51 11.88,-68.30 11.66,-68.08 11.40,-67.93 11.13,-67.78 10.84,-67.69 10.55,-67.61 10.24,-67.59 9.94,-67.58 9.64,-67.64 9.34,-67.70 9.07,-67.83 8.79,-67.96 8.56,-68.15 8.32,-68.34 8.14,-68.59 7.95,-68.83 7.57,-69.90 7.19,-70.97 7.46,-73.80 7.73,-76.63 8.30,-78.59 8.87,-80.56 10.06,-83.23 11.26,-85.89 12.88,-88.75 14.51,-91.60 15.74,-93.45 16.97,-95.30 18.19,-96.86 19.41,-98.42 21.26,-100.14 23.12,-101.86 23.27,-102.01 23.41,-102.16 23.59,-102.27 23.77,-102.37 23.97,-102.44 24.17,-102.50 24.38,-102.51 24.59,-102.52 24.79,-102.49 25.00,-102.45 25.19,-102.36 25.38,-102.28 25.54,-102.15 25.71,-102.02 25.84,-101.85 25.96,-101.69 26.05,-101.50 26.14,-101.31 26.17,-101.10 26.21,-100.90 26.20,-100.69 26.18,-100.48 26.12,-100.28 26.06,-100.08 25.95,-99.90 25.84,-99.73 24.87,-99.45 23.89,-99.17 23.65,-99.30 23.40,-99.44 23.21,-99.65 23.03,-99.86 22.91,-100.11 22.80,-100.37 22.78,-100.65 22.75,-100.93 22.82,-101.20 22.89,-101.47 23.04,-101.71 23.19,-101.95 23.40,-102.12 23.62,-102.30 23.89,-102.40 24.15,-102.49 24.43,-102.50 24.71,-102.51 24.98,-102.43 25.24,-102.35 25.47,-102.19 25.70,-102.02 25.87,-101.80 26.03,-101.57 26.11,-101.30 26.20,-101.04 26.19,-100.76 26.18,-100.48 26.09,-100.21 25.99,-99.95 25.82,-99.73 25.64,-99.51 25.41,-99.36 25.17,-99.21 24.90,-99.14 24.63,-99.07 24.35,-99.09 24.07,-99.11 23.81,-99.22 23.55,-99.33 23.35,-99.52 23.14,-99.70 23.00,-99.95 22.86,-100.19 22.80,-100.47 22.75,-100.74 22.79,-101.02 22.82,-101.30 22.95,-101.55 23.07,-101.80 23.27,-102.00 23.47,-102.20 23.72,-102.32 23.97,-102.45 24.24,-102.49 24.52,-102.53 23.82,-102.20 23.12,-101.86 23.27,-102.01 23.41,-102.16 23.59,-102.27 23.77,-102.37 23.97,-102.44 24.17,-102.50 24.38,-102.51 24.59,-102.52 24.79,-102.49 25.00,-102.45 25.19,-102.36 25.38,-102.28 25.54,-102.15 25.71,-102.02 25.84,-101.85 25.96,-101.69 26.05,-101.50 26.14,-101.31 26.17,-101.10 26.21,-100.90 26.20,-100.69 26.18,-100.48 26.12,-100.28 26.06,-100.08 25.95,-99.90 25.84,-99.73 23.99,-98.00 22.13,-96.28 21.02,-94.88 19.91,-93.47 18.87,-91.66 17.83,-89.84 16.48,-87.09 15.13,-84.35 14.29,-81.90 13.45,-79.45 13.12,-77.73 12.80,-76.01 12.56,-73.69 12.32,-71.37 12.44,-71.09 12.56,-70.81 12.61,-70.51 12.66,-70.21 12.64,-69.90 12.61,-69.60 12.52,-69.31 12.42,-69.02 12.26,-68.77 12.10,-68.51 11.88,-68.30 11.66,-68.08 11.40,-67.93 11.13,-67.78 10.84,-67.69 10.55,-67.61 10.24,-67.59 9.94,-67.58 9.64,-67.64 9.34,-67.70 9.07,-67.83 8.79,-67.96 8.56,-68.15 8.32,-68.34 8.14,-68.59 7.95,-68.83 7.76,-69.30 7.57,-69.76 6.73,-71.14 5.90,-72.51 4.86,-73.71 3.82,-74.90 2.58,-76.11 1.35,-77.32 -0.08,-78.46 -1.51,-79.60 -1.70,-79.81 -1.89,-80.01 -2.03,-80.26 -2.17,-80.51 -2.24,-80.78 -2.31,-81.05 -2.32,-81.33 -2.33,-81.62 -2.26,-81.89 -2.20,-82.17 -2.08,-82.42 -1.95,-82.67 -1.77,-82.89 -1.58,-83.10 -1.36,-83.27 -1.13,-83.43 -0.86,-83.54 -0.60,-83.65 -0.32,-83.69 -0.04,-83.73 0.23,-83.70 0.51,-83.67 0.77,-83.57 1.04,-83.48 1.28,-83.32 1.51,-83.17 1.51,-83.17 L 1.51,-83.17 Z"></path></g><g stroke-linecap="round"><g transform="translate(445.61598492528583 191.90915203145528) rotate(0 -1.271802744759782 41.56548668793016)"><path d="M0.51 1.63 C0.43 15.75, -0.3 69.72, -1.14 83.08 M-2.66 0.05 C-2.94 13.55, -3.35 66.48, -2.72 79.27" stroke="white" stroke-width="4" fill="none"></path></g><g transform="translate(445.61598492528583 191.90915203145528) rotate(0 -1.271802744759782 41.56548668793016)"><path d="M-11.09 52.95 C-7.65 55.77, -6.52 68.49, 0.1 82.39 M-13.07 49.36 C-11.54 59.91, -4.83 70.94, -3.82 80.69" stroke="white" stroke-width="4" fill="none"></path></g><g transform="translate(445.61598492528583 191.90915203145528) rotate(0 -1.271802744759782 41.56548668793016)"><path d="M9.43 52.63 C7.22 55.61, 2.7 68.42, 0.1 82.39 M7.45 49.04 C1.58 60.11, 0.9 71.25, -3.82 80.69" stroke="white" stroke-width="4" fill="none"></path></g></g><mask></mask><g stroke-linecap="round"><g transform="translate(443.6777325645521 9.952038884162903) rotate(0 -0.8387014510688005 86.95100459598018)"><path d="M0.51 1.63 C0.75 30.88, 1.28 145.36, 0.76 173.85 M-2.66 0.05 C-2.62 28.68, -1.77 142.12, -0.83 170.04" stroke="#000000" stroke-width="4" fill="none"></path></g><g transform="translate(443.6777325645521 9.952038884162903) rotate(0 -0.8387014510688005 86.95100459598018)"><path d="M-9.28 143.76 C-5.81 146.56, -4.66 159.27, 1.99 173.16 M-11.25 140.16 C-9.7 150.7, -2.96 161.72, -1.92 171.46" stroke="#000000" stroke-width="4" fill="none"></path></g><g transform="translate(443.6777325645521 9.952038884162903) rotate(0 -0.8387014510688005 86.95100459598018)"><path d="M11.24 143.38 C9.05 146.36, 4.56 159.18, 1.99 173.16 M9.27 139.78 C3.43 150.86, 2.77 162.01, -1.92 171.46" stroke="#000000" stroke-width="4" fill="none"></path></g></g><mask></mask></svg>