<svg version="1.1" xmlns="http://www.w3.org/2000/svg" viewBox="0 0 582.6802240944812 768.6287513585053" width="582.6802240944812" height="768.6287513585053">
  <!-- svg-source:excalidraw -->
  
  <defs>
    <style class="style-fonts">
      @font-face {
        font-family: "Virgil";
        src: url("https://excalidraw.com/Virgil.woff2");
      }
      @font-face {
        font-family: "Cascadia";
        src: url("https://excalidraw.com/Cascadia.woff2");
      }
    </style>
  </defs>
  <rect x="0" y="0" width="582.6802240944812" height="768.6287513585053" fill="#ffffff"></rect><g stroke-linecap="round" transform="translate(105.91766283665584 205.97719894474767) rotate(0 189.41475389936454 138.8311933737766)"><path d="M33.86 -0.94 L348.75 -0.84 L361.07 0.2 L370.2 9.59 L376.58 16.21 L377.82 33.17 L377.9 246.22 L378.48 259.85 L370.08 268.01 L359.42 276.22 L346.56 277.96 L31.43 277.46 L16.31 274.42 L8.17 268.76 L1.18 261.37 L-0.83 244.89 L1.38 25.25 L3.18 18.6 L8.36 7.1 L19.32 1.26 L32.91 -0.4" stroke="none" stroke-width="0" fill="#000e9c"></path><path d="M32 0 M32 0 C144.11 -0.01, 254.23 -1.42, 346.83 0 M32 0 C136.98 -1.53, 240.98 -2.46, 346.83 0 M346.83 0 C367.34 -0.88, 380.21 9.52, 378.83 32 M346.83 0 C370.29 0.06, 379.74 11.8, 378.83 32 M378.83 32 C377.57 88.35, 379.44 146.55, 378.83 245.66 M378.83 32 C379.8 90.57, 379.37 148.76, 378.83 245.66 M378.83 245.66 C378.97 267.45, 367.54 276.01, 346.83 277.66 M378.83 245.66 C379.76 267.49, 369.64 277.03, 346.83 277.66 M346.83 277.66 C279.12 277.99, 212.58 279.93, 32 277.66 M346.83 277.66 C236.73 277.42, 127.72 276.68, 32 277.66 M32 277.66 C9.36 278.47, -0.22 268.08, 0 245.66 M32 277.66 C10.91 279.31, -1.48 266.83, 0 245.66 M0 245.66 C1.06 198.08, -0.67 149.98, 0 32 M0 245.66 C1.14 183.07, 1.2 121.6, 0 32 M0 32 C0.73 11.13, 9.22 -0.59, 32 0 M0 32 C-0.19 12.66, 8.85 1.62, 32 0" stroke="white" stroke-width="1" fill="none"></path></g><g stroke-linecap="round" transform="translate(10 91.66346046168974) rotate(0 280.4981335053217 232.05555555555554)"><path d="M7.86 8.16 C7.86 8.16, 7.86 8.16, 7.86 8.16 M7.86 8.16 C7.86 8.16, 7.86 8.16, 7.86 8.16 M3.66 19.09 C8.72 14.85, 15.01 6.94, 18.1 2.48 M3.66 19.09 C8.6 13.37, 13.67 7.15, 18.1 2.48 M2.75 26.24 C10.1 18.01, 16.73 8.17, 24.4 1.33 M2.75 26.24 C7.11 20.52, 13.44 13.24, 24.4 1.33 M1.83 33.39 C11.56 24.56, 21.35 11.3, 30.7 0.18 M1.83 33.39 C8.49 25.95, 13.61 19.78, 30.7 0.18 M1.57 39.79 C12.57 29.07, 23.4 15.77, 34.37 2.05 M1.57 39.79 C12.49 27.88, 23.49 15.16, 34.37 2.05 M1.96 45.43 C11.79 32.91, 19.86 24.07, 39.36 2.41 M1.96 45.43 C9.9 36.29, 19 24.8, 39.36 2.41 M1.7 51.83 C13.34 36.21, 24.55 23.47, 45 2.02 M1.7 51.83 C15.85 34.26, 29.79 18.12, 45 2.02 M1.44 58.23 C18.12 35.87, 38.84 15.53, 49.99 2.38 M1.44 58.23 C18 39.78, 36.33 19.77, 49.99 2.38 M1.83 63.87 C21.95 39.5, 41.14 18.37, 55.63 1.98 M1.83 63.87 C23.02 38.61, 44.14 14.22, 55.63 1.98 M1.57 70.27 C24.47 44.12, 50.73 15.37, 60.62 2.34 M1.57 70.27 C13.92 55.71, 26.24 41.42, 60.62 2.34 M1.97 75.91 C17.47 60.4, 30.49 42.34, 66.26 1.95 M1.97 75.91 C19.11 55.13, 38.08 35.45, 66.26 1.95 M1.71 82.31 C17.82 64.63, 35.01 43.13, 71.25 2.31 M1.71 82.31 C21.22 59.59, 39.9 37.96, 71.25 2.31 M1.44 88.71 C17.77 70.07, 32.28 53.37, 76.89 1.91 M1.44 88.71 C18.03 70.34, 33.72 52.54, 76.89 1.91 M1.84 94.35 C27.79 67.65, 53 37.03, 81.88 2.27 M1.84 94.35 C32.47 58.31, 63.98 23.67, 81.88 2.27 M1.58 100.75 C35.96 62.31, 65.92 25.73, 87.52 1.88 M1.58 100.75 C35.37 60.48, 70.56 21.1, 87.52 1.88 M1.97 106.39 C23.39 81.54, 41.14 61.93, 92.51 2.24 M1.97 106.39 C33.02 70.3, 62.49 36.63, 92.51 2.24 M1.71 112.79 C28.68 82.46, 55.2 50.72, 98.15 1.85 M1.71 112.79 C32.29 78.23, 63.45 42.6, 98.15 1.85 M1.45 119.19 C32.12 86.18, 59.87 52.52, 103.14 2.21 M1.45 119.19 C31.54 83.71, 63.31 50.24, 103.14 2.21 M1.84 124.83 C40.05 84.07, 75.08 41.26, 108.78 1.81 M1.84 124.83 C26 95.67, 48.78 69.16, 108.78 1.81 M1.58 131.23 C23.25 106.32, 47.7 76.3, 113.77 2.17 M1.58 131.23 C27.24 98.9, 55.89 67.05, 113.77 2.17 M1.98 136.87 C42.24 91.29, 80.75 45.48, 119.41 1.78 M1.98 136.87 C31.14 102.32, 61.16 68.21, 119.41 1.78 M1.72 143.27 C49.65 88.39, 99.58 30.48, 124.4 2.14 M1.72 143.27 C36.81 102.56, 73.14 61.69, 124.4 2.14 M1.45 149.67 C40.62 107.14, 77.97 61.71, 130.04 1.74 M1.45 149.67 C40.23 102.31, 80.78 55.44, 130.04 1.74 M1.85 155.31 C38.45 112.96, 71.52 73.29, 135.03 2.1 M1.85 155.31 C52.39 96.85, 101.24 39.35, 135.03 2.1 M1.59 161.71 C53.24 102.19, 104.87 44.74, 140.67 1.71 M1.59 161.71 C54.26 97.99, 109 35.15, 140.67 1.71 M1.98 167.35 C45.52 115.19, 90.99 65.85, 145.66 2.07 M1.98 167.35 C52.35 109.79, 101.56 51.77, 145.66 2.07 M1.72 173.75 C57.49 108.02, 113.16 47.31, 150.65 2.43 M1.72 173.75 C39.28 131.87, 75.43 89.75, 150.65 2.43 M1.46 180.14 C38.08 138.81, 72.1 96.91, 156.29 2.03 M1.46 180.14 C51.03 125.25, 99.26 68.63, 156.29 2.03 M1.85 185.79 C45.95 135.28, 89.15 84.37, 161.28 2.39 M1.85 185.79 C54.83 125.25, 107.28 65.14, 161.28 2.39 M1.59 192.19 C38.98 148.03, 80.64 100.36, 166.92 2 M1.59 192.19 C48.63 141.32, 93.46 88.93, 166.92 2 M1.99 197.83 C54.02 139.5, 104.14 83.77, 171.91 2.36 M1.99 197.83 C41.9 149.35, 82.84 102.49, 171.91 2.36 M1.72 204.23 C56.33 138.47, 113.59 75.36, 177.55 1.96 M1.72 204.23 C50.45 147.48, 98.25 92.31, 177.55 1.96 M1.46 210.62 C73.49 130.35, 142.52 49.78, 182.54 2.32 M1.46 210.62 C52.19 151.39, 104.56 92.75, 182.54 2.32 M1.86 216.27 C71.77 131.06, 144.55 50.02, 188.18 1.93 M1.86 216.27 C56.62 156.42, 109.06 95.4, 188.18 1.93 M1.6 222.66 C72.04 144.24, 141.96 63.4, 193.17 2.29 M1.6 222.66 C64.19 152.48, 125.12 81.57, 193.17 2.29 M1.99 228.31 C68.08 154.64, 133.07 79.72, 198.81 1.9 M1.99 228.31 C60.47 160.69, 120.27 92.94, 198.81 1.9 M1.73 234.71 C77.99 146.1, 153.79 58.86, 203.8 2.26 M1.73 234.71 C60.73 165.13, 122.95 95.12, 203.8 2.26 M1.47 241.1 C71.39 161.95, 139.36 80.54, 209.44 1.86 M1.47 241.1 C49.79 184.5, 98.46 128.43, 209.44 1.86 M1.86 246.75 C53.64 187.75, 103.45 127.89, 214.43 2.22 M1.86 246.75 C74.73 160.81, 148.64 76.28, 214.43 2.22 M1.6 253.14 C48.85 202.11, 92.46 151.52, 220.07 1.83 M1.6 253.14 C54.49 189.94, 108.52 127.56, 220.07 1.83 M2 258.79 C69.38 179.09, 137.55 101.13, 225.06 2.19 M2 258.79 C57.28 193.45, 114.49 128.63, 225.06 2.19 M1.73 265.19 C53.94 202.23, 107.12 143.07, 230.7 1.79 M1.73 265.19 C47.68 209.31, 95.72 154.45, 230.7 1.79 M1.47 271.58 C89.33 167.66, 179.29 67.09, 235.69 2.15 M1.47 271.58 C49.28 217.45, 95.6 162.93, 235.69 2.15 M1.87 277.23 C72.15 194.69, 145.54 111.48, 241.33 1.76 M1.87 277.23 C52.15 217.22, 104.37 157.54, 241.33 1.76 M1.61 283.62 C50.88 224.24, 103.04 163.74, 246.32 2.12 M1.61 283.62 C61.72 218.58, 119.59 151.57, 246.32 2.12 M2 289.27 C51.96 230.59, 102.59 171.83, 251.96 1.72 M2 289.27 C77.93 202.88, 152.34 117.08, 251.96 1.72 M1.74 295.66 C101.95 180.04, 202.55 64.49, 256.95 2.08 M1.74 295.66 C100.14 179.66, 200.39 63.64, 256.95 2.08 M1.48 302.06 C84.54 203.52, 169.67 105.3, 262.59 1.69 M1.48 302.06 C82.81 207.44, 164.14 112.94, 262.59 1.69 M1.87 307.71 C75.9 219.08, 153.38 130.31, 267.58 2.05 M1.87 307.71 C101.56 193.61, 200.2 80.55, 267.58 2.05 M1.61 314.1 C96.58 204.52, 191.18 94.58, 272.56 2.41 M1.61 314.1 C65.81 239.14, 129.5 166.16, 272.56 2.41 M2.01 319.75 C80.71 230.37, 160.3 140.46, 278.21 2.01 M2.01 319.75 C71.45 237.57, 141.56 156.52, 278.21 2.01 M1.74 326.14 C105.56 206.18, 208.78 86.95, 283.19 2.37 M1.74 326.14 C80.39 236.67, 159.3 146.24, 283.19 2.37 M1.48 332.54 C96.63 224.74, 189.95 114.83, 288.84 1.98 M1.48 332.54 C116.69 200.44, 231.65 68.48, 288.84 1.98 M1.88 338.19 C104.38 220.02, 207.59 100.31, 293.82 2.34 M1.88 338.19 C109 213.63, 217.56 88.81, 293.82 2.34 M1.62 344.58 C66.09 271.74, 130.59 198.31, 299.47 1.94 M1.62 344.58 C104.06 227.51, 206.23 109.34, 299.47 1.94 M2.01 350.23 C89.42 248.1, 176.97 148.52, 304.45 2.3 M2.01 350.23 C85.02 253, 169.6 155.65, 304.45 2.3 M1.75 356.62 C92.45 255.82, 179.9 153.88, 310.1 1.91 M1.75 356.62 C92.17 251.88, 182.7 146.67, 310.1 1.91 M1.49 363.02 C84.08 270.87, 164.88 176.41, 315.08 2.27 M1.49 363.02 C90.86 260.15, 180.78 157.46, 315.08 2.27 M1.88 368.66 C107.85 246.58, 213.78 123.99, 320.73 1.88 M1.88 368.66 C79.69 278.33, 157.92 189.29, 320.73 1.88 M1.62 375.06 C110.55 250.97, 218.06 125.47, 325.71 2.24 M1.62 375.06 C100.55 262.04, 199.27 149.93, 325.71 2.24 M2.02 380.71 C98.61 267.05, 196.26 155.03, 331.36 1.84 M2.02 380.71 C86.92 284.39, 170.08 188.53, 331.36 1.84 M1.75 387.1 C101.38 274.79, 199.49 160.31, 336.34 2.2 M1.75 387.1 C125.97 242.7, 250.63 99.04, 336.34 2.2 M1.49 393.5 C124.73 251.07, 246.97 110.26, 341.99 1.81 M1.49 393.5 C124.16 250.14, 247.73 108.13, 341.99 1.81 M1.89 399.14 C111.47 274.12, 218.68 149.5, 346.97 2.17 M1.89 399.14 C125.96 254.4, 252.27 110.02, 346.97 2.17 M1.63 405.54 C94.77 296.99, 189.14 188.44, 352.62 1.77 M1.63 405.54 C103.7 286.65, 205.87 168.54, 352.62 1.77 M2.02 411.18 C96.22 304.02, 190.22 195.37, 357.6 2.13 M2.02 411.18 C97.36 302.45, 192.05 193.97, 357.6 2.13 M1.76 417.58 C142.59 255.03, 285.07 91.05, 363.25 1.74 M1.76 417.58 C121.81 278.37, 243.17 139.08, 363.25 1.74 M1.5 423.98 C82.5 332.49, 160.8 240.79, 368.23 2.1 M1.5 423.98 C112.9 298.04, 223.96 170.72, 368.23 2.1 M1.89 429.62 C106.31 310.19, 209.75 191.21, 373.88 1.7 M1.89 429.62 C98.32 318.39, 195.57 206.73, 373.88 1.7 M2.94 434.51 C130.46 288.17, 258.84 141.29, 378.86 2.06 M2.94 434.51 C85.6 341.81, 166.11 248.15, 378.86 2.06 M3.34 440.16 C118.18 308.42, 231.37 178.1, 383.85 2.42 M3.34 440.16 C86.41 344.72, 168.05 249.88, 383.85 2.42 M3.08 446.55 C83.37 355.3, 161.78 263.04, 389.49 2.03 M3.08 446.55 C150.46 276.02, 297.73 107.07, 389.49 2.03 M4.78 450.69 C156.93 274.75, 308.7 101.66, 394.48 2.39 M4.78 450.69 C91.74 349.42, 180.15 248.32, 394.48 2.39 M7.15 454.07 C116.8 329.67, 226.57 203.53, 400.12 1.99 M7.15 454.07 C122.04 320.52, 238.65 187.04, 400.12 1.99 M9.51 457.44 C137.38 309.49, 264.67 162.37, 405.11 2.35 M9.51 457.44 C126.08 324.13, 240.98 191.56, 405.11 2.35 M13.18 459.31 C100.58 356.35, 189.92 255.41, 410.75 1.96 M13.18 459.31 C127.22 327.7, 242.35 195.01, 410.75 1.96 M16.2 461.94 C107.53 353.82, 199.53 248.18, 415.74 2.32 M16.2 461.94 C129.11 331.49, 243.73 200.05, 415.74 2.32 M19.88 463.81 C101.23 372.6, 181.15 280.21, 421.38 1.93 M19.88 463.81 C104.69 365.01, 190.28 266.79, 421.38 1.93 M24.86 464.17 C139.03 332.95, 253.79 199.88, 426.37 2.29 M24.86 464.17 C132.95 339.75, 240.03 217.06, 426.37 2.29 M29.19 465.28 C180.5 291.62, 331.78 116.22, 432.01 1.89 M29.19 465.28 C167.43 306.38, 305.23 148.16, 432.01 1.89 M34.18 465.64 C120.29 367.51, 205.3 268.37, 437 2.25 M34.18 465.64 C178.58 298.02, 323.4 131.32, 437 2.25 M39.17 466 C125.05 369.28, 209.35 270.96, 442.64 1.86 M39.17 466 C154.95 331.26, 271.1 197.97, 442.64 1.86 M44.81 465.61 C200.14 289.59, 353.09 111.33, 447.63 2.22 M44.81 465.61 C155.08 337.78, 266.23 210.41, 447.63 2.22 M49.8 465.97 C197.16 297.93, 342.12 129.17, 453.27 1.82 M49.8 465.97 C161.95 334.94, 274.66 205.47, 453.27 1.82 M55.44 465.57 C182.45 319.72, 310.21 173.79, 458.26 2.18 M55.44 465.57 C213.99 281.38, 372.62 98.56, 458.26 2.18 M60.43 465.93 C216.6 288.55, 371.62 110.03, 463.9 1.79 M60.43 465.93 C171.95 337.89, 283.38 208.86, 463.9 1.79 M66.07 465.54 C221.07 288.57, 375.87 110.65, 468.89 2.15 M66.07 465.54 C176.94 336.37, 288.83 207.77, 468.89 2.15 M71.06 465.9 C167.88 355.44, 264.17 245.38, 474.53 1.75 M71.06 465.9 C178.5 342.19, 285.51 218.88, 474.53 1.75 M76.7 465.5 C199.32 325.98, 320.67 187.86, 479.52 2.11 M76.7 465.5 C221.98 298.75, 366.91 132.91, 479.52 2.11 M81.69 465.86 C231.68 292.03, 383.01 118.45, 485.17 1.72 M81.69 465.86 C223.38 301.35, 367.16 136.36, 485.17 1.72 M86.68 466.22 C183.12 357.38, 276.62 249.82, 490.15 2.08 M86.68 466.22 C187.59 347.34, 290.36 229.62, 490.15 2.08 M92.32 465.83 C193.44 351.82, 291.65 237.81, 495.8 1.68 M92.32 465.83 C209.07 333.4, 324.69 199.77, 495.8 1.68 M97.31 466.19 C216.38 327.52, 335.32 189.78, 500.78 2.04 M97.31 466.19 C196.99 350.87, 298.09 235.16, 500.78 2.04 M102.95 465.8 C187.55 369.03, 269.27 274.69, 505.77 2.4 M102.95 465.8 C232.62 315.93, 363.85 165.2, 505.77 2.4 M107.94 466.16 C209.14 348.79, 311.18 230.04, 511.41 2.01 M107.94 466.16 C195.55 368.64, 281.25 269.6, 511.41 2.01 M113.58 465.76 C195.13 373.49, 276.59 280.68, 516.4 2.37 M113.58 465.76 C257.67 296.84, 403.14 129.84, 516.4 2.37 M118.57 466.12 C204.37 365.31, 291.57 266.69, 522.04 1.98 M118.57 466.12 C234.16 333.8, 349.66 200.94, 522.04 1.98 M124.21 465.73 C235.89 337.18, 349.13 205.67, 529 0.07 M124.21 465.73 C210.83 368.3, 296.94 269.13, 529 0.07 M129.2 466.09 C267.01 307.44, 403.77 151.5, 533.98 0.43 M129.2 466.09 C285.51 284.89, 442.31 103.95, 533.98 0.43 M134.84 465.69 C252.21 330.83, 368 195.89, 538.32 1.55 M134.84 465.69 C267.17 314.36, 397.81 163.69, 538.32 1.55 M139.83 466.05 C274.14 311.23, 409.27 157.13, 543.3 1.91 M139.83 466.05 C269 318, 396.44 171.92, 543.3 1.91 M145.47 465.66 C296.08 295.28, 445.59 122.88, 546.32 4.53 M145.47 465.66 C252.71 339.92, 361.15 215.86, 546.32 4.53 M150.46 466.02 C291.84 302.65, 433.92 140.18, 550 6.4 M150.46 466.02 C244.32 357.49, 339.86 248.24, 550 6.4 M156.1 465.62 C264.99 337.68, 374.85 212.08, 553.67 8.27 M156.1 465.62 C253.91 353.45, 351.05 242.06, 553.67 8.27 M161.09 465.98 C283.82 323.82, 406.69 183.08, 555.38 12.4 M161.09 465.98 C241.5 371.85, 322.51 277.72, 555.38 12.4 M166.73 465.59 C258.57 359.32, 351.18 252.78, 557.74 15.78 M166.73 465.59 C312.52 297.26, 458.58 129.74, 557.74 15.78 M171.72 465.95 C310 309.6, 447.54 151.36, 560.1 19.16 M171.72 465.95 C268.62 354.59, 363.51 245.48, 560.1 19.16 M177.36 465.55 C292.85 332.68, 408 200.87, 561.15 24.05 M177.36 465.55 C256.42 372.35, 336.09 280.99, 561.15 24.05 M182.35 465.91 C329.06 297.33, 473.76 131.3, 561.55 29.69 M182.35 465.91 C280.35 354.02, 377.49 241.85, 561.55 29.69 M187.99 465.52 C338.29 292.23, 487.05 120.14, 563.26 33.83 M187.99 465.52 C271.24 368.74, 355.68 271.41, 563.26 33.83 M192.98 465.88 C322.76 317.65, 453.18 168.34, 562.99 40.22 M192.98 465.88 C311.59 330.78, 429.48 196, 562.99 40.22 M198.62 465.49 C300.22 349.18, 398.89 234.33, 563.39 45.87 M198.62 465.49 C318.61 326.61, 439.54 187.49, 563.39 45.87 M203.61 465.85 C329.64 318.17, 457.49 171.29, 563.13 52.26 M203.61 465.85 C341.69 307.98, 479.75 149.74, 563.13 52.26 M208.59 466.21 C334.98 321.98, 462.71 174.61, 562.87 58.66 M208.59 466.21 C334.22 321.4, 459.45 178.04, 562.87 58.66 M214.24 465.81 C333.94 327.23, 452.55 189.67, 563.26 64.31 M214.24 465.81 C348.29 309.25, 483.04 153.17, 563.26 64.31 M219.22 466.17 C319.47 353.77, 418.64 239.12, 563 70.7 M219.22 466.17 C340.86 327.56, 461.42 189.34, 563 70.7 M224.87 465.78 C296.95 383.66, 368.34 301.95, 563.39 76.35 M224.87 465.78 C338.94 334.71, 452.72 203.99, 563.39 76.35 M229.85 466.14 C361.15 315.45, 491.48 165.5, 563.13 82.74 M229.85 466.14 C333.05 349.34, 434.95 232.23, 563.13 82.74 M235.5 465.74 C333.31 354.14, 431.05 240.85, 562.87 89.14 M235.5 465.74 C305.52 384.37, 376.07 304.16, 562.87 89.14 M240.48 466.1 C307.98 391.22, 373.49 313.97, 563.27 94.79 M240.48 466.1 C314.74 378.67, 389.2 292.77, 563.27 94.79 M246.13 465.71 C343.97 353.56, 441.7 241.61, 563 101.18 M246.13 465.71 C334.36 363.37, 423.88 259.89, 563 101.18 M251.11 466.07 C361.72 337.91, 473.2 211.87, 563.4 106.83 M251.11 466.07 C332.4 372.3, 415.23 277.43, 563.4 106.83 M256.76 465.67 C371.06 336.17, 483.89 206.8, 563.14 113.22 M256.76 465.67 C373.21 330.66, 488.76 197.03, 563.14 113.22 M261.74 466.03 C341.1 373.97, 421.22 281.26, 562.88 119.62 M261.74 466.03 C369.97 338.87, 480.01 212.38, 562.88 119.62 M267.39 465.64 C379.85 337.36, 490.33 209.27, 563.27 125.26 M267.39 465.64 C330.75 391.39, 395.22 317.02, 563.27 125.26 M272.37 466 C348.63 375.09, 426.46 286.56, 563.01 131.66 M272.37 466 C337.86 389.4, 403.26 314.06, 563.01 131.66 M278.02 465.6 C354.98 376.81, 431.53 288.92, 563.4 137.31 M278.02 465.6 C360.37 368.52, 442.62 272.79, 563.4 137.31 M283 465.96 C362.9 374.29, 441 283.16, 563.14 143.7 M283 465.96 C383.16 349.91, 485.96 231.79, 563.14 143.7 M288.65 465.57 C378.14 360.82, 468.89 258.13, 562.88 150.1 M288.65 465.57 C390.66 349.64, 490.83 234.38, 562.88 150.1 M293.63 465.93 C382.48 363.44, 472.44 258.9, 563.27 155.74 M293.63 465.93 C353.1 398.03, 412.37 329.08, 563.27 155.74 M299.28 465.54 C374.56 377.53, 451.26 290.33, 563.01 162.14 M299.28 465.54 C402.16 349.36, 503.06 232.93, 563.01 162.14 M304.26 465.9 C368.83 393.68, 431.25 320.97, 563.41 167.78 M304.26 465.9 C372.58 385.4, 442.44 305.15, 563.41 167.78 M309.91 465.5 C371.35 392.91, 432.22 323.37, 563.15 174.18 M309.91 465.5 C401.99 357.26, 494.53 249.94, 563.15 174.18 M314.89 465.86 C396.89 371.74, 480.94 277.21, 562.89 180.58 M314.89 465.86 C390.54 380.99, 464.37 296.13, 562.89 180.58 M319.88 466.22 C395.25 379.61, 471.08 294.75, 563.28 186.22 M319.88 466.22 C394.77 376.34, 471.21 288.25, 563.28 186.22 M325.52 465.83 C398.86 378.27, 473.92 291.55, 563.02 192.62 M325.52 465.83 C408.05 372.68, 488.63 280.76, 563.02 192.62 M330.51 466.19 C419.08 364.93, 505.49 264.21, 563.41 198.26 M330.51 466.19 C398.46 388.35, 467.57 308.1, 563.41 198.26 M336.15 465.79 C383.91 409.69, 429.86 355.9, 563.15 204.66 M336.15 465.79 C412.62 377.91, 489.66 290.24, 563.15 204.66 M341.14 466.15 C424.77 373.23, 505 280.7, 562.89 211.06 M341.14 466.15 C423.27 373.88, 503.9 279.74, 562.89 211.06 M346.78 465.76 C399.3 408.28, 448.94 349.59, 563.28 216.7 M346.78 465.76 C406.08 400.02, 465.73 332.03, 563.28 216.7 M351.77 466.12 C428.15 378.67, 505.31 290.55, 563.02 223.1 M351.77 466.12 C406 405.54, 458.75 344.54, 563.02 223.1 M357.42 465.72 C418.72 396.51, 480.8 325.03, 563.42 228.74 M357.42 465.72 C405.29 407.48, 454.78 351.49, 563.42 228.74 M362.4 466.08 C419.89 399.51, 476.06 332.18, 563.16 235.14 M362.4 466.08 C411.31 407.59, 461.5 350.87, 563.16 235.14 M368.05 465.69 C429.53 393.42, 490.73 323.24, 562.89 241.54 M368.05 465.69 C440.83 382.16, 513.57 299.43, 562.89 241.54 M373.03 466.05 C415.12 417.87, 456.4 372.67, 563.29 247.18 M373.03 466.05 C437.45 390.44, 502.63 315.15, 563.29 247.18 M378.68 465.65 C434.03 401.81, 489.44 340.8, 563.03 253.58 M378.68 465.65 C437.87 396.8, 498.94 325.74, 563.03 253.58 M383.66 466.01 C430.18 410.41, 480.21 356.05, 563.42 259.22 M383.66 466.01 C436.8 405.61, 489.31 345.61, 563.42 259.22 M389.31 465.62 C434.93 415.2, 477.09 367.08, 563.16 265.62 M389.31 465.62 C457.15 388.04, 524.97 310.14, 563.16 265.62 M394.29 465.98 C445.68 403.73, 496.3 343.97, 562.9 272.02 M394.29 465.98 C449.82 402.44, 504.89 339.21, 562.9 272.02 M399.94 465.58 C447.56 412.24, 490.69 362.16, 563.29 277.66 M399.94 465.58 C459.85 398.88, 519.1 331.71, 563.29 277.66 M404.92 465.94 C448.94 418.11, 489 367.55, 563.03 284.06 M404.92 465.94 C444.18 418.45, 485.57 373.16, 563.03 284.06 M410.57 465.55 C457.24 412.94, 501.49 362.6, 563.43 289.7 M410.57 465.55 C452.33 416.92, 495.4 367.5, 563.43 289.7 M415.55 465.91 C444.66 430.8, 474.84 397.09, 563.17 296.1 M415.55 465.91 C467.63 403.87, 522.54 342.63, 563.17 296.1 M421.2 465.52 C463.57 418.47, 505.37 369.61, 562.9 302.5 M421.2 465.52 C465.84 414.26, 509.56 363.19, 562.9 302.5 M426.18 465.88 C460.18 428.46, 492.5 391.84, 563.3 308.14 M426.18 465.88 C468.92 415.67, 512.62 364.16, 563.3 308.14 M431.83 465.48 C470.75 419.49, 508.62 374.62, 563.04 314.54 M431.83 465.48 C462.85 427.7, 493.47 392.74, 563.04 314.54 M436.81 465.84 C465.84 430.82, 496.31 397.2, 563.43 320.18 M436.81 465.84 C471.99 427.78, 504.67 390.62, 563.43 320.18 M441.8 466.2 C487.51 415.38, 532.91 362.38, 563.17 326.58 M441.8 466.2 C487.71 413.68, 533.84 360.47, 563.17 326.58 M447.44 465.81 C485.13 424.16, 519.98 386.83, 562.91 332.98 M447.44 465.81 C479.75 426.47, 514.81 385.89, 562.91 332.98 M452.43 466.17 C480.42 434.41, 511.48 399.65, 563.3 338.62 M452.43 466.17 C483.47 432.98, 513.34 398.28, 563.3 338.62 M458.07 465.77 C490.33 430.1, 521.97 390.46, 563.04 345.02 M458.07 465.77 C482.2 438.71, 508.07 409.54, 563.04 345.02 M463.06 466.13 C495.55 429.14, 527.48 390.65, 563.44 350.66 M463.06 466.13 C502.21 421.35, 540.87 376.97, 563.44 350.66 M468.7 465.74 C501.01 427.49, 535.98 390.73, 563.18 357.06 M468.7 465.74 C491.21 441.78, 511.73 418.73, 563.18 357.06 M473.69 466.1 C506.95 426.48, 543.75 388.9, 562.91 363.46 M473.69 466.1 C492.42 442.81, 512.77 420.72, 562.91 363.46 M479.33 465.7 C507.03 437.63, 531.4 407.15, 563.31 369.1 M479.33 465.7 C506.27 434.89, 531.88 403.88, 563.31 369.1 M484.32 466.06 C508.49 437.82, 535.19 409.65, 563.05 375.5 M484.32 466.06 C499.81 447.55, 516.35 427.85, 563.05 375.5 M489.96 465.67 C507.11 445.66, 529.74 420.19, 563.44 381.14 M489.96 465.67 C514.58 437.14, 540.48 407.93, 563.44 381.14 M494.95 466.03 C512.44 447.96, 527.31 430.7, 563.18 387.54 M494.95 466.03 C520.62 437.13, 545.92 408.18, 563.18 387.54 M500.59 465.63 C520.83 447.21, 536.42 426.92, 562.92 393.94 M500.59 465.63 C523.98 437.71, 549.29 409.05, 562.92 393.94 M505.58 465.99 C524.79 445.22, 540.37 428.08, 563.31 399.58 M505.58 465.99 C522.52 446.69, 540.65 426.06, 563.31 399.58 M511.22 465.6 C527.44 449.23, 537.88 431.88, 563.05 405.98 M511.22 465.6 C528.18 444.58, 547.34 423.01, 563.05 405.98 M516.21 465.96 C531.28 447.81, 546.36 431.78, 563.45 411.62 M516.21 465.96 C535.14 444.8, 551.05 425.32, 563.45 411.62 M521.85 465.57 C531.15 453.46, 546.2 440.24, 563.19 418.02 M521.85 465.57 C536.7 447.85, 551.98 430.87, 563.19 418.02 M526.84 465.93 C534.16 458.45, 541.04 447.14, 562.92 424.42 M526.84 465.93 C539.62 451.07, 551.85 436.39, 562.92 424.42 M531.83 466.29 C545.79 453.64, 557.05 439.32, 561.35 432.32 M531.83 466.29 C542.41 453.65, 552.88 442.73, 561.35 432.32 M537.47 465.89 C542.23 461.17, 544.78 456.58, 560.43 439.48 M537.47 465.89 C545.83 456.56, 555.36 447.01, 560.43 439.48 M544.43 463.99 C547.34 457.67, 554.45 454.38, 559.52 446.63 M544.43 463.99 C549.52 457.45, 554.25 452.15, 559.52 446.63" stroke="#000e9c" stroke-width="0.5" fill="none"></path><path d="M32 0 M32 0 C191.5 -0.35, 351.38 0.66, 529 0 M32 0 C190.89 -2, 349.74 -1.92, 529 0 M529 0 C549.26 -0.98, 561.99 10.48, 561 32 M529 0 C548.77 -1.02, 560.92 10.3, 561 32 M561 32 C562.06 162.51, 562.41 294.64, 561 432.11 M561 32 C561.05 132.02, 561.21 232.67, 561 432.11 M561 432.11 C561.58 452.06, 549.91 464.38, 529 464.11 M561 432.11 C561.39 452.07, 550.6 463.66, 529 464.11 M529 464.11 C406.74 464.92, 285.36 464.5, 32 464.11 M529 464.11 C401.7 462.99, 274.79 462.95, 32 464.11 M32 464.11 C11.12 465.45, -1.16 454.9, 0 432.11 M32 464.11 C12.03 465.04, 1.96 454.38, 0 432.11 M0 432.11 C-2.37 281.23, -2.1 129.48, 0 32 M0 432.11 C0.71 291.62, 0.99 150.99, 0 32 M0 32 C-1.95 10.33, 11.02 0.44, 32 0 M0 32 C-2.27 11.3, 10.29 1.05, 32 0" stroke="#000000" stroke-width="1" fill="none"></path></g><g transform="translate(40.56365501144046 116.27768753820646) rotate(0 71.57499694824219 12.5)"><text x="0" y="0" font-family="Virgil, Segoe UI Emoji" font-size="20px" fill="#000000" text-anchor="start" style="white-space: pre;" direction="ltr" dominant-baseline="text-before-edge">Load Balancer</text></g><g stroke-linecap="round"><g transform="translate(265.4612655211067 9.952038884162903) rotate(0 -0.8387014510689141 79.67717923138832)"><path d="M0.51 1.63 C0.75 28.45, 1.28 133.24, 0.76 159.31 M-2.66 0.05 C-2.62 26.26, -1.77 130, -0.83 155.49" stroke="#000000" stroke-width="4" fill="none"></path></g><g transform="translate(265.4612655211067 9.952038884162903) rotate(0 -0.8387014510689141 79.67717923138832)"><path d="M-9.32 129.23 C-5.85 132.03, -4.68 144.73, 1.99 158.61 M-11.3 125.63 C-9.73 136.16, -2.97 147.17, -1.92 156.91" stroke="#000000" stroke-width="4" fill="none"></path></g><g transform="translate(265.4612655211067 9.952038884162903) rotate(0 -0.8387014510689141 79.67717923138832)"><path d="M11.19 128.81 C9.02 131.8, 4.54 144.62, 1.99 158.61 M9.22 125.22 C3.4 136.3, 2.76 147.46, -1.92 156.91" stroke="#000000" stroke-width="4" fill="none"></path></g></g><mask></mask><g transform="translate(282.81827505720094 47.00832029875937) rotate(0 77.41666412353516 12.5)"><text x="0" y="0" font-family="Virgil, Segoe UI Emoji" font-size="20px" fill="#000000" text-anchor="start" style="white-space: pre;" direction="ltr" dominant-baseline="text-before-edge">Incoming traffic</text></g><g stroke-linecap="round" transform="translate(92.08327869903405 194.62496642614724) rotate(0 189.41475389936454 138.8311933737766)"><path d="M33.86 -0.94 L348.75 -0.84 L361.07 0.2 L370.2 9.59 L376.58 16.21 L377.82 33.17 L377.9 246.22 L378.48 259.85 L370.08 268.01 L359.42 276.22 L346.56 277.96 L31.43 277.46 L16.31 274.42 L8.17 268.76 L1.18 261.37 L-0.83 244.89 L1.38 25.25 L3.18 18.6 L8.36 7.1 L19.32 1.26 L32.91 -0.4" stroke="none" stroke-width="0" fill="#000e9c"></path><path d="M32 0 M32 0 C144.11 -0.01, 254.23 -1.42, 346.83 0 M32 0 C136.98 -1.53, 240.98 -2.46, 346.83 0 M346.83 0 C367.34 -0.88, 380.21 9.52, 378.83 32 M346.83 0 C370.29 0.06, 379.74 11.8, 378.83 32 M378.83 32 C377.57 88.35, 379.44 146.55, 378.83 245.66 M378.83 32 C379.8 90.57, 379.37 148.76, 378.83 245.66 M378.83 245.66 C378.97 267.45, 367.54 276.01, 346.83 277.66 M378.83 245.66 C379.76 267.49, 369.64 277.03, 346.83 277.66 M346.83 277.66 C279.12 277.99, 212.58 279.93, 32 277.66 M346.83 277.66 C236.73 277.42, 127.72 276.68, 32 277.66 M32 277.66 C9.36 278.47, -0.22 268.08, 0 245.66 M32 277.66 C10.91 279.31, -1.48 266.83, 0 245.66 M0 245.66 C1.06 198.08, -0.67 149.98, 0 32 M0 245.66 C1.14 183.07, 1.2 121.6, 0 32 M0 32 C0.73 11.13, 9.22 -0.59, 32 0 M0 32 C-0.19 12.66, 8.85 1.62, 32 0" stroke="white" stroke-width="1" fill="none"></path></g><g stroke-linecap="round" transform="translate(80.49179127551633 168.8153418019051) rotate(0 188.5 146.5)"><path d="M33.86 -0.94 L346.92 -0.84 L359.24 0.2 L368.37 9.59 L374.75 16.21 L375.99 33.17 L376.07 261.56 L376.65 275.19 L368.25 283.35 L357.59 291.55 L344.73 293.3 L31.43 292.8 L16.31 289.76 L8.17 284.1 L1.18 276.71 L-0.83 260.23 L1.38 25.25 L3.18 18.6 L8.36 7.1 L19.32 1.26 L32.91 -0.4" stroke="none" stroke-width="0" fill="#000e9c"></path><path d="M32 0 M32 0 C143.46 -0.01, 252.93 -1.42, 345 0 M32 0 C136.38 -1.53, 239.76 -2.46, 345 0 M345 0 C365.51 -0.88, 378.38 9.52, 377 32 M345 0 C368.46 0.06, 377.91 11.8, 377 32 M377 32 C375.8 92.44, 377.61 154.68, 377 261 M377 32 C377.99 94.71, 377.57 157.05, 377 261 M377 261 C377.14 282.79, 365.71 291.34, 345 293 M377 261 C377.93 282.83, 367.81 292.37, 345 293 M345 293 C277.68 293.32, 211.54 295.27, 32 293 M345 293 C235.54 292.76, 127.16 292.02, 32 293 M32 293 C9.36 293.8, -0.22 283.41, 0 261 M32 293 C10.91 294.65, -1.48 282.17, 0 261 M0 261 C1.07 210.07, -0.6 158.62, 0 32 M0 261 C1.15 193.98, 1.21 128.06, 0 32 M0 32 C0.73 11.13, 9.22 -0.59, 32 0 M0 32 C-0.19 12.66, 8.85 1.62, 32 0" stroke="white" stroke-width="1" fill="none"></path></g><g transform="translate(135.6084599766882 173.8153418019051) rotate(0 133.38333129882812 12.5)"><text x="133.38333129882812" y="0" font-family="Virgil, Segoe UI Emoji" font-size="20px" fill="white" text-anchor="middle" style="white-space: pre;" direction="ltr" dominant-baseline="text-before-edge">Listener_1: protocol + port</text></g><g stroke-linecap="round" transform="translate(104.59467103261613 224.51671897210645) rotate(0 163.5 109.5)"><path d="M28.91 -1.06 L296.96 -0.66 L312.66 6.03 L326.22 12.23 L325.95 31.66 L323.08 189.68 L323.65 208.37 L318.41 212.68 L298.65 215.59 L31.14 217.16 L10.93 210.73 L2.77 201.48 L-1.5 188.11 L-0.63 25.43 L9.97 11.5 L16.57 -0.75 L35.99 -0.4" stroke="none" stroke-width="0" fill="#ffd124"></path><path d="M32 0 M32 0 C112.38 1.19, 191.96 0.47, 295 0 M32 0 C120.81 -4.29, 210.1 -2.53, 295 0 M295 0 C314.21 -0.95, 325.6 7.91, 327 32 M295 0 C317.68 -3.92, 325.77 8.05, 327 32 M327 32 C327.28 81.24, 327.14 125.86, 327 187 M327 32 C326.34 88.81, 329.73 146.18, 327 187 M327 187 C330.92 204.67, 318.68 222.09, 295 219 M327 187 C326.03 212.78, 316.96 220.88, 295 219 M295 219 C213.33 214.12, 130.36 219.95, 32 219 M295 219 C216.13 218.97, 137.54 219.22, 32 219 M32 219 C11.89 217.3, -2.65 206.69, 0 187 M32 219 C6.27 217.36, -0.45 212.24, 0 187 M0 187 C0.04 149.34, -1.75 110.44, 0 32 M0 187 C2.1 126.38, 2.02 67.78, 0 32 M0 32 C0.19 9.57, 8.42 -1.09, 32 0 M0 32 C2 7.09, 6.83 2.12, 32 0" stroke="white" stroke-width="1" fill="none"></path></g><g transform="translate(141.67800690908098 229.51671897210645) rotate(0 126.41666412353516 12.5)"><text x="126.41666412353516" y="0" font-family="Virgil, Segoe UI Emoji" font-size="20px" fill="white" text-anchor="middle" style="white-space: pre;" direction="ltr" dominant-baseline="text-before-edge">Pool: protocol + algorithm</text></g><g stroke-linecap="round" transform="translate(112.85794278343383 314.5476769425459) rotate(0 49.928489224480245 36.947082026115424)"><path d="M15.39 -1.06 L83.34 -0.66 L93.39 6.15 L103.58 18.2 L98.52 59.41 L91.32 71.96 L82.53 75.76 L22.38 72.08 L8.27 65.87 L-0.57 57.91 L-1.29 10.37 L5.39 5.1 L16.98 1.11" stroke="none" stroke-width="0" fill="#ffd124"></path><path d="M18.47 0 M18.47 0 C39.08 -2.05, 49.93 3.37, 81.38 0 M18.47 0 C37.12 0.43, 56.24 0.71, 81.38 0 M81.38 0 C95.32 1.46, 100.22 10, 99.86 18.47 M81.38 0 C94.68 -0.81, 103.2 10.46, 99.86 18.47 M99.86 18.47 C96.93 28.77, 96.27 35.66, 99.86 55.42 M99.86 18.47 C101.14 27.68, 100.77 36.59, 99.86 55.42 M99.86 55.42 C98.71 70.45, 94.95 75.88, 81.38 73.89 M99.86 55.42 C96.12 67.31, 97.75 74.33, 81.38 73.89 M81.38 73.89 C59.44 73.79, 35.19 75.18, 18.47 73.89 M81.38 73.89 C58.95 74.64, 36.71 73.57, 18.47 73.89 M18.47 73.89 C9.94 73.88, -0.58 66.76, 0 55.42 M18.47 73.89 C5.94 76.78, 0.4 71.33, 0 55.42 M0 55.42 C-1.33 39.38, -1.11 30.6, 0 18.47 M0 55.42 C0.08 40.63, 0.7 25.52, 0 18.47 M0 18.47 C-0.02 9.44, 5.88 1.38, 18.47 0 M0 18.47 C4.33 2.88, 10.31 -1.88, 18.47 0" stroke="white" stroke-width="1" fill="none"></path></g><g transform="translate(126.91976712143969 326.49475896866124) rotate(0 35.86666488647461 25)"><text x="35.86666488647461" y="0" font-family="Virgil, Segoe UI Emoji" font-size="20px" fill="white" text-anchor="middle" style="white-space: pre;" direction="ltr" dominant-baseline="text-before-edge">Health </text><text x="35.86666488647461" y="25" font-family="Virgil, Segoe UI Emoji" font-size="20px" fill="white" text-anchor="middle" style="white-space: pre;" direction="ltr" dominant-baseline="text-before-edge">monitor</text></g><g stroke-linecap="round"><g transform="translate(119.78498891127128 420.6726323125532) rotate(0 0.18565382577116907 -0.11539565888824654)"><path d="M0 0 C0.06 -0.04, 0.31 -0.19, 0.37 -0.23 M0 0 C0.06 -0.04, 0.31 -0.19, 0.37 -0.23" stroke="white" stroke-width="2" fill="none"></path></g></g><mask></mask><g transform="translate(174.55161517790202 569.1798719026988) rotate(0 153.76587831823872 60.041914390931254)" stroke="none"><path fill="white" d="M 2.67,-1.60 Q 2.67,-1.60 5.98,4.04 9.29,9.68 14.00,16.50 18.70,23.32 25.95,31.76 33.21,40.20 43.21,49.05 53.21,57.90 65.79,66.38 78.37,74.87 90.45,82.14 102.53,89.41 113.21,94.71 123.88,100.01 136.68,103.89 149.47,107.78 161.64,110.56 173.81,113.35 185.32,114.51 196.82,115.68 207.05,116.19 217.27,116.69 226.38,116.91 235.49,117.12 242.91,116.66 250.34,116.19 256.20,115.17 262.07,114.14 266.98,112.62 271.90,111.09 275.23,109.34 278.56,107.58 280.28,105.93 281.99,104.28 283.64,102.83 285.28,101.38 287.58,100.00 289.87,98.62 292.05,97.26 294.23,95.89 297.09,93.60 299.94,91.31 301.44,89.70 302.94,88.09 302.10,90.49 301.25,92.89 299.37,92.18 297.50,91.47 296.73,90.99 295.96,90.51 295.38,89.80 294.81,89.10 294.48,88.25 294.16,87.41 294.13,86.50 294.10,85.59 294.35,84.72 294.61,83.85 295.13,83.11 295.66,82.37 296.39,81.83 297.12,81.29 297.98,81.02 298.85,80.74 299.76,80.76 300.66,80.77 301.52,81.08 302.37,81.38 303.09,81.95 303.80,82.51 304.30,83.27 304.79,84.03 305.02,84.91 305.25,85.78 305.18,86.69 305.12,87.59 304.77,88.43 304.42,89.27 303.82,89.95 303.22,90.63 302.43,91.09 301.65,91.54 300.76,91.72 299.87,91.90 298.97,91.79 298.07,91.67 297.25,91.28 296.43,90.88 295.79,90.25 295.14,89.61 294.73,88.80 294.32,87.99 294.18,87.09 294.05,86.20 294.21,85.30 294.38,84.41 294.82,83.62 295.26,82.82 295.92,82.21 296.59,81.60 297.42,81.23 298.25,80.86 299.16,80.78 300.06,80.70 300.94,80.91 301.83,81.12 301.83,81.12 301.83,81.12 304.12,82.16 306.42,83.19 308.77,85.17 311.12,87.14 310.55,91.30 309.98,95.46 307.96,97.00 305.95,98.54 302.16,100.88 298.37,103.22 295.93,104.46 293.48,105.70 289.70,107.54 285.92,109.37 283.49,110.93 281.05,112.48 277.25,114.30 273.46,116.12 268.22,117.72 262.97,119.33 256.82,120.39 250.67,121.45 243.02,121.92 235.37,122.40 226.19,122.18 217.01,121.97 206.65,121.46 196.29,120.95 184.46,119.74 172.63,118.52 160.28,115.70 147.92,112.88 134.72,108.85 121.51,104.82 110.63,99.43 99.75,94.04 87.54,86.71 75.32,79.39 62.44,70.72 49.55,62.05 39.25,52.97 28.95,43.89 21.45,35.26 13.96,26.63 9.07,19.70 4.17,12.76 0.74,7.18 -2.67,1.60 -2.83,1.26 -2.98,0.91 -3.05,0.54 -3.11,0.17 -3.09,-0.19 -3.07,-0.57 -2.95,-0.93 -2.84,-1.29 -2.64,-1.61 -2.45,-1.93 -2.18,-2.20 -1.91,-2.46 -1.59,-2.65 -1.27,-2.85 -0.91,-2.96 -0.55,-3.07 -0.17,-3.09 0.19,-3.11 0.56,-3.04 0.93,-2.97 1.28,-2.82 1.62,-2.66 1.92,-2.43 2.21,-2.20 2.44,-1.90 2.67,-1.60 2.67,-1.60 L 2.67,-1.60 Z"></path></g><g transform="translate(211.65068423246112 597.0181451572616) rotate(0 0.00005000000010113581 0.00004999999998744897)" stroke="none"><path fill="white" d="M 3.14,-3.14 Q 3.14,-3.14 3.55,-2.55 3.97,-1.97 4.18,-1.28 4.40,-0.59 4.38,0.11 4.36,0.83 4.11,1.51 3.86,2.18 3.41,2.74 2.96,3.30 2.36,3.69 1.75,4.07 1.05,4.25 0.36,4.42 -0.35,4.36 -1.07,4.30 -1.73,4.02 -2.39,3.74 -2.92,3.26 -3.46,2.78 -3.81,2.15 -4.16,1.53 -4.30,0.82 -4.43,0.11 -4.34,-0.59 -4.24,-1.30 -3.92,-1.94 -3.60,-2.59 -3.09,-3.09 -2.59,-3.60 -1.94,-3.92 -1.30,-4.24 -0.59,-4.34 0.12,-4.43 0.82,-4.30 1.53,-4.16 2.15,-3.81 2.78,-3.46 3.26,-2.92 3.74,-2.39 4.02,-1.73 4.31,-1.07 4.36,-0.35 4.42,0.36 4.25,1.05 4.07,1.75 3.69,2.36 3.30,2.96 2.74,3.41 2.18,3.86 1.51,4.11 0.83,4.36 0.11,4.38 -0.60,4.40 -1.28,4.18 -1.97,3.97 -2.55,3.55 -3.14,3.13 -3.14,3.14 -3.14,3.14 -3.47,2.71 -3.80,2.29 -4.02,1.80 -4.24,1.32 -4.33,0.79 -4.43,0.26 -4.40,-0.26 -4.36,-0.80 -4.20,-1.31 -4.04,-1.82 -3.77,-2.28 -3.49,-2.73 -3.11,-3.11 -2.73,-3.49 -2.28,-3.77 -1.82,-4.05 -1.31,-4.20 -0.80,-4.36 -0.26,-4.40 0.26,-4.43 0.79,-4.33 1.32,-4.24 1.80,-4.02 2.29,-3.80 2.71,-3.47 3.14,-3.14 3.14,-3.14 L 3.14,-3.14 Z"></path></g><g transform="translate(198.95889745063823 593.1129799936239) rotate(0 26.848010500009877 18.54953452727966)" stroke="none"><path fill="white" d="M 2.32,-3.19 Q 2.32,-3.19 8.39,1.44 14.46,6.07 18.97,9.48 23.47,12.90 30.39,17.73 37.30,22.56 42.46,26.03 47.62,29.51 49.62,30.12 51.61,30.73 51.89,30.97 52.17,31.20 52.39,31.50 52.61,31.80 52.74,32.14 52.88,32.48 52.94,32.85 52.99,33.21 52.95,33.58 52.92,33.94 52.79,34.29 52.67,34.64 52.47,34.95 52.27,35.25 52.00,35.50 51.73,35.75 51.40,35.93 51.08,36.11 50.73,36.21 50.37,36.30 50.00,36.31 49.64,36.32 49.28,36.24 48.92,36.16 48.59,35.99 48.26,35.83 47.93,35.54 47.60,35.24 47.34,34.82 47.09,34.39 46.99,33.91 46.89,33.43 46.94,32.94 47.00,32.45 47.21,32.00 47.42,31.55 47.76,31.19 48.10,30.84 48.54,30.61 48.98,30.38 49.47,30.30 49.95,30.23 50.44,30.31 50.93,30.39 51.36,30.63 51.80,30.86 52.14,31.22 52.47,31.58 52.68,32.03 52.88,32.48 52.93,32.97 52.98,33.46 52.87,33.95 52.76,34.43 52.51,34.85 52.25,35.27 51.87,35.59 51.49,35.91 51.03,36.09 50.57,36.27 50.08,36.29 49.59,36.31 49.11,36.18 48.64,36.04 48.23,35.76 47.82,35.48 47.52,35.09 47.23,34.69 47.07,34.22 46.92,33.75 46.92,33.26 46.93,32.77 47.09,32.30 47.25,31.83 47.55,31.44 47.85,31.05 48.26,30.78 48.67,30.50 49.15,30.37 49.62,30.24 50.12,30.27 50.61,30.30 51.07,30.49 51.53,30.67 51.57,30.70 51.61,30.73 51.89,30.97 52.17,31.20 52.39,31.50 52.61,31.80 52.74,32.14 52.88,32.48 52.94,32.85 52.99,33.21 52.95,33.58 52.92,33.94 52.79,34.29 52.67,34.64 52.47,34.95 52.27,35.25 52.00,35.50 51.73,35.75 51.40,35.93 51.08,36.11 50.73,36.21 50.37,36.30 50.00,36.31 49.64,36.32 49.28,36.24 48.92,36.16 48.59,35.99 48.26,35.83 46.29,35.18 44.32,34.53 39.04,31.14 33.76,27.75 26.67,23.03 19.57,18.30 14.90,15.09 10.23,11.88 3.95,7.53 -2.32,3.19 -2.66,2.86 -3.01,2.54 -3.27,2.14 -3.53,1.74 -3.69,1.29 -3.85,0.84 -3.89,0.37 -3.94,-0.09 -3.87,-0.56 -3.80,-1.03 -3.62,-1.47 -3.44,-1.91 -3.16,-2.30 -2.88,-2.68 -2.52,-2.99 -2.16,-3.30 -1.73,-3.51 -1.30,-3.72 -0.84,-3.82 -0.37,-3.92 0.09,-3.91 0.57,-3.90 1.03,-3.77 1.49,-3.65 1.90,-3.42 2.32,-3.19 2.32,-3.19 L 2.32,-3.19 Z"></path></g><g transform="translate(243.86829683247288 620.4491361390888) rotate(0 0.00005000000010113581 0.00004999999998744897)" stroke="none"><path fill="white" d="M 3.14,-3.14 Q 3.14,-3.14 3.55,-2.55 3.97,-1.97 4.18,-1.28 4.40,-0.59 4.38,0.11 4.36,0.83 4.11,1.51 3.86,2.18 3.41,2.74 2.96,3.30 2.36,3.69 1.75,4.07 1.05,4.25 0.36,4.42 -0.35,4.36 -1.07,4.30 -1.73,4.02 -2.39,3.74 -2.92,3.26 -3.46,2.78 -3.81,2.15 -4.16,1.53 -4.30,0.82 -4.43,0.11 -4.34,-0.59 -4.24,-1.30 -3.92,-1.94 -3.60,-2.59 -3.09,-3.09 -2.59,-3.60 -1.94,-3.92 -1.30,-4.24 -0.59,-4.34 0.12,-4.43 0.82,-4.30 1.53,-4.16 2.15,-3.81 2.78,-3.46 3.26,-2.92 3.74,-2.39 4.02,-1.73 4.31,-1.07 4.36,-0.35 4.42,0.36 4.25,1.05 4.07,1.75 3.69,2.36 3.30,2.96 2.74,3.41 2.18,3.86 1.51,4.11 0.83,4.36 0.11,4.38 -0.60,4.40 -1.28,4.18 -1.97,3.97 -2.55,3.55 -3.14,3.13 -3.14,3.14 -3.14,3.14 -3.47,2.71 -3.80,2.29 -4.02,1.80 -4.24,1.32 -4.33,0.79 -4.43,0.26 -4.40,-0.26 -4.36,-0.80 -4.20,-1.31 -4.04,-1.82 -3.77,-2.28 -3.49,-2.73 -3.11,-3.11 -2.73,-3.49 -2.28,-3.77 -1.82,-4.05 -1.31,-4.20 -0.80,-4.36 -0.26,-4.40 0.26,-4.43 0.79,-4.33 1.32,-4.24 1.80,-4.02 2.29,-3.80 2.71,-3.47 3.14,-3.14 3.14,-3.14 L 3.14,-3.14 Z"></path></g><g stroke-linecap="round" transform="translate(345.74585541833335 616.860599679429) rotate(0 37.80849603108629 23.161837220674215)"><path d="M3.08 2.68 C3.08 2.68, 3.08 2.68, 3.08 2.68 M3.08 2.68 C3.08 2.68, 3.08 2.68, 3.08 2.68 M1.51 10.59 C4.5 8.18, 8.29 3.38, 10.04 0.78 M1.51 10.59 C4.4 7.22, 7.39 3.54, 10.04 0.78 M1.9 16.23 C6.07 11.56, 9.6 5.4, 14.37 1.89 M1.9 16.23 C4.07 13.07, 8.08 8.46, 14.37 1.89 M1.64 22.63 C7.87 17.86, 14.11 8.7, 19.36 2.25 M1.64 22.63 C6.03 17.96, 8.79 14.51, 19.36 2.25 M2.04 28.27 C9.65 21.3, 17.19 11.79, 25 1.86 M2.04 28.27 C9.63 20.14, 17.29 11.27, 25 1.86 M1.78 34.67 C9.3 24.86, 15.03 18.71, 29.99 2.22 M1.78 34.67 C7.69 27.91, 14.65 18.87, 29.99 2.22 M2.83 39.56 C11.51 27.43, 19.75 18.11, 35.63 1.82 M2.83 39.56 C13.62 26.02, 24.09 13.86, 35.63 1.82 M5.19 42.94 C17.01 26.27, 32.79 11.61, 40.62 2.18 M5.19 42.94 C17.11 29.62, 30.89 14.85, 40.62 2.18 M6.9 47.07 C21.46 28.99, 35.07 14.27, 45.6 2.54 M6.9 47.07 C22.31 28.7, 37.5 11.12, 45.6 2.54 M12.54 46.67 C27.26 29.81, 45.4 10.4, 51.25 2.15 M12.54 46.67 C20.85 37.07, 28.99 27.59, 51.25 2.15 M17.53 47.04 C27.32 38.27, 34.67 26.73, 56.23 2.51 M17.53 47.04 C27.72 34.55, 39.59 23.03, 56.23 2.51 M23.17 46.64 C32.2 37.44, 42.03 24.4, 61.88 2.11 M23.17 46.64 C34.23 33.89, 44.17 22.33, 61.88 2.11 M28.16 47 C36.64 37.32, 43.22 29.74, 66.86 2.47 M28.16 47 C36.93 37.44, 44.86 28.55, 66.86 2.47 M33.8 46.61 C46.38 34.53, 58.66 18.77, 71.85 2.83 M33.8 46.61 C48.1 29.48, 63.46 13.41, 71.85 2.83 M38.79 46.97 C53.76 30.42, 64.67 15.75, 74.21 6.21 M38.79 46.97 C52.23 30, 67.36 13.7, 74.21 6.21 M43.77 47.33 C52.48 37.37, 57.61 32.27, 76.58 9.59 M43.77 47.33 C55.57 33.88, 65.58 22.6, 76.58 9.59 M49.42 46.93 C56.92 39.42, 64.01 30.04, 76.31 15.99 M49.42 46.93 C57.62 37.26, 66.82 26.89, 76.31 15.99 M54.4 47.29 C62.01 39.99, 67.39 32.05, 76.71 21.63 M54.4 47.29 C60.32 38.89, 68.52 32.52, 76.71 21.63 M60.05 46.9 C66.72 41.52, 70.55 34.6, 76.45 28.03 M60.05 46.9 C64.25 41.7, 66.83 38.44, 76.45 28.03 M65.03 47.26 C66.92 46.26, 70.17 40.99, 75.53 35.18 M65.03 47.26 C66.96 44.07, 70.39 41.02, 75.53 35.18" stroke="white" stroke-width="0.5" fill="none"></path><path d="M11.58 0 M11.58 0 C30.36 0.71, 46.57 1.27, 64.04 0 M11.58 0 C24.07 0, 37.7 -0.02, 64.04 0 M64.04 0 C73.71 -0.96, 74.89 2.32, 75.62 11.58 M64.04 0 C72.71 -0.48, 74.53 3.71, 75.62 11.58 M75.62 11.58 C75.11 20.87, 76.2 28.51, 75.62 34.74 M75.62 11.58 C76.65 19.06, 75.71 25.78, 75.62 34.74 M75.62 34.74 C76.83 43.91, 70.64 46.04, 64.04 46.32 M75.62 34.74 C75.05 40.8, 70.92 44.72, 64.04 46.32 M64.04 46.32 C41.41 46.04, 23.64 45.57, 11.58 46.32 M64.04 46.32 C45.41 45.19, 29.13 45.52, 11.58 46.32 M11.58 46.32 C4.42 46.61, -0.88 43.73, 0 34.74 M11.58 46.32 C4.09 48.42, 1.45 43.86, 0 34.74 M0 34.74 C-1.39 30.14, -1.18 26.27, 0 11.58 M0 34.74 C0.51 30.35, 0.58 24.85, 0 11.58 M0 11.58 C1.28 4.9, 2.17 1.22, 11.58 0 M0 11.58 C1.64 3.79, 4.96 0.59, 11.58 0" stroke="#000e9c" stroke-width="1" fill="none"></path></g><g stroke-linecap="round" transform="translate(340.16917491488744 608.6614571387922) rotate(0 37.80849603108629 23.161837220674215)"><path d="M11.09 0.32 L63.01 -1.89 L71.18 0.86 L75.09 10.02 L73.84 34.03 L74.15 41.77 L70.78 44.1 L65.01 46.86 L11.78 46.39 L6.1 46.02 L-0.36 38.72 L-1.44 8.21 L2.02 3.42 L10.37 0.15" stroke="none" stroke-width="0" fill="white"></path><path d="M11.58 0 M11.58 0 C29.33 0.41, 46.49 -0.92, 64.04 0 M11.58 0 C23.68 0.61, 37.65 -0.5, 64.04 0 M64.04 0 C72.13 0.74, 75.31 4.52, 75.62 11.58 M64.04 0 C73.71 1.44, 74.5 1.83, 75.62 11.58 M75.62 11.58 C75.2 19.69, 76.93 29.34, 75.62 34.74 M75.62 11.58 C76.45 16.17, 76.1 21.58, 75.62 34.74 M75.62 34.74 C75.85 41.06, 71.39 47.69, 64.04 46.32 M75.62 34.74 C74.86 44.29, 70.72 47.23, 64.04 46.32 M64.04 46.32 C46.25 46.59, 29.12 47.83, 11.58 46.32 M64.04 46.32 C52.51 45.65, 40.65 46.79, 11.58 46.32 M11.58 46.32 C5.16 45.77, -1.22 40.86, 0 34.74 M11.58 46.32 C4.04 47.02, 2.09 43.41, 0 34.74 M0 34.74 C-1.06 28.6, 1.3 19.47, 0 11.58 M0 34.74 C-0.17 29.76, -0.42 23.09, 0 11.58 M0 11.58 C-1.18 4.96, 5.67 -0.19, 11.58 0 M0 11.58 C1.61 4.34, 1.82 0.4, 11.58 0" stroke="#000e9c" stroke-width="1" fill="none"></path></g><g stroke-linecap="round" transform="translate(334.60088864201543 598.6287513585053) rotate(0 37.80849603108629 23.161837220674215)"><path d="M11.09 0.32 L63.01 -1.89 L71.18 0.86 L75.09 10.02 L73.84 34.03 L74.15 41.77 L70.78 44.1 L65.01 46.86 L11.78 46.39 L6.1 46.02 L-0.36 38.72 L-1.44 8.21 L2.02 3.42 L10.37 0.15" stroke="none" stroke-width="0" fill="white"></path><path d="M11.58 0 M11.58 0 C29.33 0.41, 46.49 -0.92, 64.04 0 M11.58 0 C23.68 0.61, 37.65 -0.5, 64.04 0 M64.04 0 C72.13 0.74, 75.31 4.52, 75.62 11.58 M64.04 0 C73.71 1.44, 74.5 1.83, 75.62 11.58 M75.62 11.58 C75.2 19.69, 76.93 29.34, 75.62 34.74 M75.62 11.58 C76.45 16.17, 76.1 21.58, 75.62 34.74 M75.62 34.74 C75.85 41.06, 71.39 47.69, 64.04 46.32 M75.62 34.74 C74.86 44.29, 70.72 47.23, 64.04 46.32 M64.04 46.32 C46.25 46.59, 29.12 47.83, 11.58 46.32 M64.04 46.32 C52.51 45.65, 40.65 46.79, 11.58 46.32 M11.58 46.32 C5.16 45.77, -1.22 40.86, 0 34.74 M11.58 46.32 C4.04 47.02, 2.09 43.41, 0 34.74 M0 34.74 C-1.06 28.6, 1.3 19.47, 0 11.58 M0 34.74 C-0.17 29.76, -0.42 23.09, 0 11.58 M0 11.58 C-1.18 4.96, 5.67 -0.19, 11.58 0 M0 11.58 C1.61 4.34, 1.82 0.4, 11.58 0" stroke="#000e9c" stroke-width="1" fill="none"></path></g><g stroke-linecap="round" transform="translate(211.68022409448122 578.6287513585053) rotate(0 180.5 90)"><path d="M0 0 C107 0, 214.01 0, 361 0 M0 0 C74.83 0, 149.66 0, 361 0 M361 0 C361 64.24, 361 128.48, 361 180 M361 0 C361 65.11, 361 130.22, 361 180 M361 180 C253.19 180, 145.39 180, 0 180 M361 180 C226.42 180, 91.83 180, 0 180 M0 180 C0 114.6, 0 49.2, 0 0 M0 180 C0 135.4, 0 90.8, 0 0" stroke="#000e9c" stroke-width="2" fill="none"></path></g><g transform="translate(359.8885561562488 728.6287513585053) rotate(0 32.29166793823242 12.5)"><text x="32.29166793823242" y="0" font-family="Virgil, Segoe UI Emoji" font-size="20px" fill="#000e9c" text-anchor="middle" style="white-space: pre;" direction="ltr" dominant-baseline="text-before-edge">Legend</text></g><g transform="translate(234.6008886420159 678.6287513585053) rotate(0 156.73333740234375 20)"><text x="0" y="0" font-family="Virgil, Segoe UI Emoji" font-size="16px" fill="#000e9c" text-anchor="start" style="white-space: pre;" direction="ltr" dominant-baseline="text-before-edge">components or group of components </text><text x="0" y="20" font-family="Virgil, Segoe UI Emoji" font-size="16px" fill="#000e9c" text-anchor="start" style="white-space: pre;" direction="ltr" dominant-baseline="text-before-edge">that can be instantiated multiple times</text></g><g stroke-linecap="round" transform="translate(244.3290985232593 338.24580818541256) rotate(0 88 42.5)"><path d="M20.76 0.32 L153.72 -1.89 L167.78 2.22 L172.66 9.45 L173.89 15.55 L176.16 63.72 L172.7 76.1 L168.68 82.55 L154.95 85.06 L22.82 86.32 L7.76 83.27 L1.37 76.05 L-0.54 69.26 L-0.88 16.42 L3.82 7.23 L7.47 2.81 L21.44 -0.95" stroke="none" stroke-width="0" fill="#73e3ff"></path><path d="M21.25 0 M21.25 0 C52.74 -2.34, 86.91 -0.41, 154.75 0 M21.25 0 C51.09 -0.16, 82.08 0.13, 154.75 0 M154.75 0 C167.95 -1.76, 177.38 8.07, 176 21.25 M154.75 0 C170.7 -0.61, 175.51 8.46, 176 21.25 M176 21.25 C175.3 37.23, 175.18 50.74, 176 63.75 M176 21.25 C175.87 36.38, 175.72 50.94, 176 63.75 M176 63.75 C175.1 78.71, 169.31 85.46, 154.75 85 M176 63.75 C174.3 76.76, 169.67 83.44, 154.75 85 M154.75 85 C103.15 84.74, 47.43 84.23, 21.25 85 M154.75 85 C111.78 83.83, 70.12 84.94, 21.25 85 M21.25 85 C8.9 85.83, 0.62 76.03, 0 63.75 M21.25 85 C6.96 83.53, 1.76 79.16, 0 63.75 M0 63.75 C1.42 50.24, 1.21 36.87, 0 21.25 M0 63.75 C1.15 54.11, 0.95 44.86, 0 21.25 M0 21.25 C-1.77 7.43, 5.13 -0.37, 21.25 0 M0 21.25 C-0.23 9.21, 9.01 1.19, 21.25 0" stroke="white" stroke-width="1" fill="none"></path></g><g stroke-linecap="round" transform="translate(236.72598317388383 327.3332430937621) rotate(0 88 42.5)"><path d="M20.76 0.32 L153.72 -1.89 L167.78 2.22 L172.66 9.45 L173.89 15.55 L176.16 63.72 L172.7 76.1 L168.68 82.55 L154.95 85.06 L22.82 86.32 L7.76 83.27 L1.37 76.05 L-0.54 69.26 L-0.88 16.42 L3.82 7.23 L7.47 2.81 L21.44 -0.95" stroke="none" stroke-width="0" fill="#73e3ff"></path><path d="M21.25 0 M21.25 0 C52.74 -2.34, 86.91 -0.41, 154.75 0 M21.25 0 C51.09 -0.16, 82.08 0.13, 154.75 0 M154.75 0 C167.95 -1.76, 177.38 8.07, 176 21.25 M154.75 0 C170.7 -0.61, 175.51 8.46, 176 21.25 M176 21.25 C175.3 37.23, 175.18 50.74, 176 63.75 M176 21.25 C175.87 36.38, 175.72 50.94, 176 63.75 M176 63.75 C175.1 78.71, 169.31 85.46, 154.75 85 M176 63.75 C174.3 76.76, 169.67 83.44, 154.75 85 M154.75 85 C103.15 84.74, 47.43 84.23, 21.25 85 M154.75 85 C111.78 83.83, 70.12 84.94, 21.25 85 M21.25 85 C8.9 85.83, 0.62 76.03, 0 63.75 M21.25 85 C6.96 83.53, 1.76 79.16, 0 63.75 M0 63.75 C1.42 50.24, 1.21 36.87, 0 21.25 M0 63.75 C1.15 54.11, 0.95 44.86, 0 21.25 M0 21.25 C-1.77 7.43, 5.13 -0.37, 21.25 0 M0 21.25 C-0.23 9.21, 9.01 1.19, 21.25 0" stroke="white" stroke-width="1" fill="none"></path></g><g stroke-linecap="round" transform="translate(225.70799793594324 312.53959388330213) rotate(0 88 42.5)"><path d="M20.76 0.32 L153.72 -1.89 L167.78 2.22 L172.66 9.45 L173.89 15.55 L176.16 63.72 L172.7 76.1 L168.68 82.55 L154.95 85.06 L22.82 86.32 L7.76 83.27 L1.37 76.05 L-0.54 69.26 L-0.88 16.42 L3.82 7.23 L7.47 2.81 L21.44 -0.95" stroke="none" stroke-width="0" fill="#73e3ff"></path><path d="M21.25 0 M21.25 0 C52.74 -2.34, 86.91 -0.41, 154.75 0 M21.25 0 C51.09 -0.16, 82.08 0.13, 154.75 0 M154.75 0 C167.95 -1.76, 177.38 8.07, 176 21.25 M154.75 0 C170.7 -0.61, 175.51 8.46, 176 21.25 M176 21.25 C175.3 37.23, 175.18 50.74, 176 63.75 M176 21.25 C175.87 36.38, 175.72 50.94, 176 63.75 M176 63.75 C175.1 78.71, 169.31 85.46, 154.75 85 M176 63.75 C174.3 76.76, 169.67 83.44, 154.75 85 M154.75 85 C103.15 84.74, 47.43 84.23, 21.25 85 M154.75 85 C111.78 83.83, 70.12 84.94, 21.25 85 M21.25 85 C8.9 85.83, 0.62 76.03, 0 63.75 M21.25 85 C6.96 83.53, 1.76 79.16, 0 63.75 M0 63.75 C1.42 50.24, 1.21 36.87, 0 21.25 M0 63.75 C1.15 54.11, 0.95 44.86, 0 21.25 M0 21.25 C-1.77 7.43, 5.13 -0.37, 21.25 0 M0 21.25 C-0.23 9.21, 9.01 1.19, 21.25 0" stroke="white" stroke-width="1" fill="none"></path></g><g transform="translate(243.6746651112362 330.03959388330213) rotate(0 70.03333282470703 25)"><text x="70.03333282470703" y="0" font-family="Virgil, Segoe UI Emoji" font-size="20px" fill="white" text-anchor="middle" style="white-space: pre;" direction="ltr" dominant-baseline="text-before-edge">Member: IP + </text><text x="70.03333282470703" y="25" font-family="Virgil, Segoe UI Emoji" font-size="20px" fill="white" text-anchor="middle" style="white-space: pre;" direction="ltr" dominant-baseline="text-before-edge">port</text></g></svg>