<svg id="mermaid-1617108832899" width="100%" xmlns="http://www.w3.org/2000/svg" height="467" style="max-width: 755.9453125px;" viewBox="0  0 431.96875 467"><style>#mermaid-1617108832899{font-family:"trebuchet ms",verdana,arial,sans-serif;font-size:16px;fill:#333;}#mermaid-1617108832899 .error-icon{fill:#552222;}#mermaid-1617108832899 .error-text{fill:#552222;stroke:#552222;}#mermaid-1617108832899 .edge-thickness-normal{stroke-width:2px;}#mermaid-1617108832899 .edge-thickness-thick{stroke-width:3.5px;}#mermaid-1617108832899 .edge-pattern-solid{stroke-dasharray:0;}#mermaid-1617108832899 .edge-pattern-dashed{stroke-dasharray:3;}#mermaid-1617108832899 .edge-pattern-dotted{stroke-dasharray:2;}#mermaid-1617108832899 .marker{fill:#333333;stroke:#333333;}#mermaid-1617108832899 .marker.cross{stroke:#333333;}#mermaid-1617108832899 svg{font-family:"trebuchet ms",verdana,arial,sans-serif;font-size:16px;}#mermaid-1617108832899 g.stateGroup text{fill:#9370DB;stroke:none;font-size:10px;}#mermaid-1617108832899 g.stateGroup text{fill:#333;stroke:none;font-size:10px;}#mermaid-1617108832899 g.stateGroup .state-title{font-weight:bolder;fill:black;}#mermaid-1617108832899 g.stateGroup rect{fill:#ECECFF;stroke:#9370DB;}#mermaid-1617108832899 g.stateGroup line{stroke:#333333;stroke-width:1;}#mermaid-1617108832899 .transition{stroke:#333333;stroke-width:1;fill:none;}#mermaid-1617108832899 .stateGroup .composit{fill:white;border-bottom:1px;}#mermaid-1617108832899 .stateGroup .alt-composit{fill:#e0e0e0;border-bottom:1px;}#mermaid-1617108832899 .state-note{stroke:#aaaa33;fill:#fff5ad;}#mermaid-1617108832899 .state-note text{fill:black;stroke:none;font-size:10px;}#mermaid-1617108832899 .stateLabel .box{stroke:none;stroke-width:0;fill:#ECECFF;opacity:0.5;}#mermaid-1617108832899 .edgeLabel .label rect{fill:hsl(80,100%,96.2745098039%);opacity:0.5;}#mermaid-1617108832899 .edgeLabel .label text{fill:rgb(9.5000000001,9.5000000001,9.5000000001);}#mermaid-1617108832899 .label div .edgeLabel{color:rgb(9.5000000001,9.5000000001,9.5000000001);}#mermaid-1617108832899 .stateLabel text{fill:black;font-size:10px;font-weight:bold;}#mermaid-1617108832899 .node circle.state-start{fill:#333333;stroke:black;}#mermaid-1617108832899 .node circle.state-end{fill:hsl(240,60%,86.2745098039%);stroke:white;stroke-width:1.5;}#mermaid-1617108832899 .end-state-inner{fill:white;stroke-width:1.5;}#mermaid-1617108832899 .node rect{fill:#ECECFF;stroke:#9370DB;stroke-width:1px;}#mermaid-1617108832899 #statediagram-barbEnd{fill:#333333;}#mermaid-1617108832899 .statediagram-cluster rect{fill:#ECECFF;stroke:#9370DB;stroke-width:1px;}#mermaid-1617108832899 .cluster-label,#mermaid-1617108832899 .nodeLabel{color:#333;}#mermaid-1617108832899 .statediagram-cluster rect.outer{rx:5px;ry:5px;}#mermaid-1617108832899 .statediagram-state .divider{stroke:#9370DB;}#mermaid-1617108832899 .statediagram-state .title-state{rx:5px;ry:5px;}#mermaid-1617108832899 .statediagram-cluster.statediagram-cluster .inner{fill:white;}#mermaid-1617108832899 .statediagram-cluster.statediagram-cluster-alt .inner{fill:#e0e0e0;}#mermaid-1617108832899 .statediagram-cluster .inner{rx:0;ry:0;}#mermaid-1617108832899 .statediagram-state rect.basic{rx:5px;ry:5px;}#mermaid-1617108832899 .statediagram-state rect.divider{stroke-dasharray:10,10;fill:#efefef;}#mermaid-1617108832899 .note-edge{stroke-dasharray:5;}#mermaid-1617108832899 .statediagram-note rect{fill:#fff5ad;stroke:#aaaa33;stroke-width:1px;rx:0;ry:0;}#mermaid-1617108832899 .statediagram-note rect{fill:#fff5ad;stroke:#aaaa33;stroke-width:1px;rx:0;ry:0;}#mermaid-1617108832899 .statediagram-note text{fill:black;}#mermaid-1617108832899 .statediagram-note .nodeLabel{color:black;}#mermaid-1617108832899 #dependencyStart,#mermaid-1617108832899 #dependencyEnd{fill:#333333;stroke:#333333;stroke-width:1;}#mermaid-1617108832899:root{--mermaid-font-family:"trebuchet ms",verdana,arial,sans-serif;}#mermaid-1617108832899 state{fill:apa;}</style><g></g><defs><marker id="dependencyEnd" refX="19" refY="7" markerWidth="20" markerHeight="28" orient="auto"><path d="M 19,7 L9,13 L14,7 L9,1 Z"></path></marker></defs><g id="start1" class="stateGroup" transform="translate(228.359375,0 )" data-x-shift="228.359375"><circle class="start-state" r="5" cx="13" cy="13"></circle></g><g id="QUEUED" class="stateGroup" transform="translate(206.1328125,46 )" data-x-shift="206.1328125"><rect x="8" y="8" width="54.453125" height="27" rx="5"></rect><text x="16" y="26" font-size="24" class="state-title">QUEUED</text></g><g id="INITIALIZING" class="stateGroup" transform="translate(156.6875,109 )" data-x-shift="156.6875"><rect x="8" y="8" width="73.5625" height="27" rx="5"></rect><text x="16" y="26" font-size="24" class="state-title">INITIALIZING</text></g><g id="PENDING" class="stateGroup" transform="translate(129.3359375,172 )" data-x-shift="129.3359375"><rect x="8" y="8" width="56.84375" height="27" rx="5"></rect><text x="16" y="26" font-size="24" class="state-title">PENDING</text></g><g id="RUNNING" class="stateGroup" transform="translate(79.33203125,235 )" data-x-shift="79.33203125"><rect x="8" y="8" width="58.421875" height="27" rx="5"></rect><text x="16" y="26" font-size="24" class="state-title">RUNNING</text></g><g id="FINALIZING" class="stateGroup" transform="translate(106.6875,361 )" data-x-shift="106.6875"><rect x="8" y="8" width="67.71875" height="27" rx="5"></rect><text x="16" y="26" font-size="24" class="state-title">FINALIZING</text></g><g id="TIMEOUT" class="stateGroup" transform="translate(91.94921875,298 )" data-x-shift="91.94921875"><rect x="8" y="8" width="57.96875" height="27" rx="5"></rect><text x="16" y="26" font-size="24" class="state-title">TIMEOUT</text></g><g id="DONE" class="stateGroup" transform="translate(0,424 )" data-x-shift="0"><rect x="8" y="8" width="41.828125" height="27" rx="5"></rect><text x="16" y="26" font-size="24" class="state-title">DONE</text></g><g id="FAILED" class="stateGroup" transform="translate(107.828125,424 )" data-x-shift="107.828125"><rect x="8" y="8" width="48.59375" height="27" rx="5"></rect><text x="16" y="26" font-size="24" class="state-title">FAILED</text></g><g id="INTERRUPTED" class="stateGroup" transform="translate(222.421875,424 )" data-x-shift="222.421875"><rect x="8" y="8" width="80.375" height="27" rx="5"></rect><text x="16" y="26" font-size="24" class="state-title">INTERRUPTED</text></g><g id="ERROR" class="stateGroup" transform="translate(368.796875,424 )" data-x-shift="368.796875"><rect x="8" y="8" width="47.171875" height="27" rx="5"></rect><text x="16" y="26" font-size="24" class="state-title">ERROR</text></g><g id="INTERRUPTING" class="stateGroup" transform="translate(249.85546875,298 )" data-x-shift="249.85546875"><rect x="8" y="8" width="84.421875" height="27" rx="5"></rect><text x="16" y="26" font-size="24" class="state-title">INTERRUPTING</text></g><path d="M241.359375,26L241.359375,27.666666666666668C241.359375,29.333333333333332,241.359375,32.666666666666664,241.359375,36C241.359375,39.333333333333336,241.359375,42.666666666666664,241.359375,44.333333333333336L241.359375,46" id="edge734" class="transition" marker-end="url(#dependencyEnd)"></path><path d="M214.13244047619048,89L212.0218253968254,90.66666666666667C209.91121031746033,92.33333333333333,205.68998015873015,95.66666666666667,203.57936507936506,99C201.46875,102.33333333333333,201.46875,105.66666666666667,201.46875,107.33333333333333L201.46875,109" id="edge735" class="transition" marker-end="url(#dependencyEnd)"></path><path d="M177.09461805555554,152L175.20515046296296,153.66666666666666C173.31568287037035,155.33333333333334,169.5367476851852,158.66666666666666,167.64728009259258,162C165.7578125,165.33333333333334,165.7578125,168.66666666666666,165.7578125,170.33333333333334L165.7578125,172" id="edge736" class="transition" marker-end="url(#dependencyEnd)"></path><path d="M132.1667286706349,215L129.56276868386243,216.66666666666666C126.95880869708994,218.33333333333334,121.75088872354497,221.66666666666666,119.1469287367725,225C116.54296875,228.33333333333334,116.54296875,231.66666666666666,116.54296875,233.33333333333334L116.54296875,235" id="edge737" class="transition" marker-end="url(#dependencyEnd)"></path><path d="M79.33203125,276.16891714735186L75.6015625,278.14076428945987C71.87109375,280.1126114315679,64.41015625,284.05630571578394,60.6796875,291.27815285789194C56.94921875,298.5,56.94921875,309,56.94921875,319.5C56.94921875,330,56.94921875,340.5,65.23893229166667,348.6007932107979C73.52864583333333,356.7015864215958,90.10807291666667,362.4031728431916,98.39778645833333,365.2539660539895L106.6875,368.1047592647874" id="edge738" class="transition" marker-end="url(#dependencyEnd)"></path><path d="M125.00006200396825,278L125.65565062830687,279.6666666666667C126.3112392526455,281.3333333333333,127.62241650132275,284.6666666666667,128.27800512566137,288C128.93359375,291.3333333333333,128.93359375,294.6666666666667,128.93359375,296.3333333333333L128.93359375,298" id="edge739" class="transition" marker-end="url(#dependencyEnd)"></path><path d="M128.93359375,341L128.93359375,342.6666666666667C128.93359375,344.3333333333333,128.93359375,347.6666666666667,129.97133349867724,351C131.0090732473545,354.3333333333333,133.084552744709,357.6666666666667,134.12229249338625,359.3333333333333L135.1600322420635,361" id="edge740" class="transition" marker-end="url(#dependencyEnd)"></path><path d="M106.6875,393.52181153268464L93.72526041666667,396.9348429439039C80.76302083333333,400.3478743551231,54.838541666666664,407.1739371775616,41.876302083333336,412.2536352554475C28.9140625,417.3333333333333,28.9140625,420.6666666666667,28.9140625,422.3333333333333L28.9140625,424" id="edge741" class="transition" marker-end="url(#dependencyEnd)"></path><path d="M142.79861111111111,404L142.35300925925927,405.6666666666667C141.90740740740742,407.3333333333333,141.0162037037037,410.6666666666667,140.57060185185185,414C140.125,417.3333333333333,140.125,420.6666666666667,140.125,422.3333333333333L140.125,424" id="edge742" class="transition" marker-end="url(#dependencyEnd)"></path><path d="M190.40625,393.3024193548387L203.7734375,396.75201612903226C217.140625,400.20161290322585,243.875,407.1008064516129,257.2421875,412.2170698924731C270.609375,417.3333333333333,270.609375,420.6666666666667,270.609375,422.3333333333333L270.609375,424" id="edge743" class="transition" marker-end="url(#dependencyEnd)"></path><path d="M190.40625,387.7358306188925L225.40234375,392.1131921824105C260.3984375,396.49055374592837,330.390625,405.2452768729642,365.38671875,411.28930510314876C400.3828125,417.3333333333333,400.3828125,420.6666666666667,400.3828125,422.3333333333333L400.3828125,424" id="edge744" class="transition" marker-end="url(#dependencyEnd)"></path><path d="M276.5859375,78.75418961213899L287.1477864583333,82.12849134344916C297.7096354166667,85.50279307475932,318.8333333333333,92.25139653737966,329.3951822916667,100.87569826868985C339.95703125,109.5,339.95703125,120,339.95703125,130.5C339.95703125,141,339.95703125,151.5,339.95703125,162C339.95703125,172.5,339.95703125,183,339.95703125,193.5C339.95703125,204,339.95703125,214.5,339.95703125,225C339.95703125,235.5,339.95703125,246,339.95703125,256.5C339.95703125,267,339.95703125,277.5,337.84641617063494,284.4166666666667C335.7358010912698,291.3333333333333,331.5145709325397,294.6666666666667,329.40395585317464,296.3333333333333L327.2933407738095,298" id="edge745" class="transition" marker-end="url(#dependencyEnd)"></path><path d="M246.25,146.55174023203094L253.43294270833334,149.12645019335912C260.6158854166667,151.7011601546873,274.9817708333333,156.85058007734366,282.1647135416667,164.67529003867182C289.34765625,172.5,289.34765625,183,289.34765625,193.5C289.34765625,204,289.34765625,214.5,289.34765625,225C289.34765625,235.5,289.34765625,246,289.34765625,256.5C289.34765625,267,289.34765625,277.5,289.9147858796296,284.4166666666667C290.4819155092593,291.3333333333333,291.61617476851853,294.6666666666667,292.18330439814815,296.3333333333333L292.75043402777777,298" id="edge746" class="transition" marker-end="url(#dependencyEnd)"></path><path d="M202.1796875,208.2317048703416L209.08919270833334,211.02642072528465C215.99869791666666,213.82113658022772,229.81770833333334,219.41056829011384,236.72721354166666,227.45528414505694C243.63671875,235.5,243.63671875,246,243.63671875,256.5C243.63671875,267,243.63671875,277.5,246.62241650132273,284.4166666666667C249.6081142526455,291.3333333333333,255.579509755291,294.6666666666667,258.5652075066137,296.3333333333333L261.5509052579365,298" id="edge747" class="transition" marker-end="url(#dependencyEnd)"></path><path d="M153.75390625,270.97301403559544L161.05013020833334,273.81084502966286C168.34635416666666,276.6486760237303,182.93880208333334,282.32433801186517,198.95572916666666,287.8412710669635C214.97265625,293.3582041220618,232.4140625,298.71640824412356,241.134765625,301.39551030515446L249.85546875,304.07461236618536" id="edge748" class="transition" marker-end="url(#dependencyEnd)"></path><path d="M300.06640625,341L300.06640625,342.6666666666667C300.06640625,344.3333333333333,300.06640625,347.6666666666667,281.7897135416667,353.1329479147868C263.5130208333333,358.599229162907,226.95963541666666,366.19845832581404,208.68294270833334,369.9980729072675L190.40625,373.797687488721" id="edge749" class="transition" marker-end="url(#dependencyEnd)"></path></svg>