<?xml version="1.0" encoding="UTF-8" standalone="no"?><svg xmlns="http://www.w3.org/2000/svg" xmlns:xlink="http://www.w3.org/1999/xlink" contentStyleType="text/css" height="131px" preserveAspectRatio="none" style="width:656px;height:131px;background:#FFFFFF;" version="1.1" viewBox="0 0 656 131" width="656px" zoomAndPan="magnify"><defs/><g><rect fill="#F1F1F1" height="81.1875" rx="5" ry="5" style="stroke:#F1F1F1;stroke-width:1.5;" width="148" x="10" y="10"/><text fill="#000000" font-family="sans-serif" font-size="14" font-weight="bold" lengthAdjust="spacing" textLength="44" x="15" y="24.9951">name</text><text fill="#000000" font-family="sans-serif" font-size="14" lengthAdjust="spacing" textLength="28" x="69" y="24.9951">app</text><line style="stroke:#000000;stroke-width:1.0;" x1="64" x2="64" y1="10" y2="30.2969"/><line style="stroke:#000000;stroke-width:1.0;" x1="10" x2="158" y1="30.2969" y2="30.2969"/><text fill="#000000" font-family="sans-serif" font-size="14" font-weight="bold" lengthAdjust="spacing" textLength="36" x="15" y="45.292">type</text><text fill="#000000" font-family="sans-serif" font-size="14" lengthAdjust="spacing" textLength="84" x="69" y="45.292">golang:1.18</text><line style="stroke:#000000;stroke-width:1.0;" x1="64" x2="64" y1="30.2969" y2="50.5938"/><line style="stroke:#000000;stroke-width:1.0;" x1="10" x2="158" y1="50.5938" y2="50.5938"/><text fill="#000000" font-family="sans-serif" font-size="14" font-weight="bold" lengthAdjust="spacing" textLength="33" x="15" y="65.5889">disk</text><text fill="#000000" font-family="sans-serif" font-size="14" lengthAdjust="spacing" textLength="34" x="69" y="65.5889">1024</text><line style="stroke:#000000;stroke-width:1.0;" x1="64" x2="64" y1="50.5938" y2="70.8906"/><line style="stroke:#000000;stroke-width:1.0;" x1="10" x2="158" y1="70.8906" y2="70.8906"/><text fill="#000000" font-family="sans-serif" font-size="14" font-weight="bold" lengthAdjust="spacing" textLength="32" x="15" y="85.8857">web</text><text fill="#000000" font-family="sans-serif" font-size="14" lengthAdjust="spacing" textLength="12" x="69" y="85.8857">   </text><line style="stroke:#000000;stroke-width:1.0;" x1="64" x2="64" y1="70.8906" y2="91.1875"/><rect fill="none" height="81.1875" rx="5" ry="5" style="stroke:#000000;stroke-width:1.5;" width="148" x="10" y="10"/><rect fill="#F1F1F1" height="40.5938" rx="5" ry="5" style="stroke:#F1F1F1;stroke-width:1.5;" width="120" x="195" y="60"/><text fill="#000000" font-family="sans-serif" font-size="14" font-weight="bold" lengthAdjust="spacing" textLength="88" x="200" y="74.9951">commands</text><text fill="#000000" font-family="sans-serif" font-size="14" lengthAdjust="spacing" textLength="12" x="298" y="74.9951">   </text><line style="stroke:#000000;stroke-width:1.0;" x1="293" x2="293" y1="60" y2="80.2969"/><line style="stroke:#000000;stroke-width:1.0;" x1="195" x2="315" y1="80.2969" y2="80.2969"/><text fill="#000000" font-family="sans-serif" font-size="14" font-weight="bold" lengthAdjust="spacing" textLength="76" x="200" y="95.292">locations</text><text fill="#000000" font-family="sans-serif" font-size="14" lengthAdjust="spacing" textLength="12" x="298" y="95.292">   </text><line style="stroke:#000000;stroke-width:1.0;" x1="293" x2="293" y1="80.2969" y2="100.5938"/><rect fill="none" height="40.5938" rx="5" ry="5" style="stroke:#000000;stroke-width:1.5;" width="120" x="195" y="60"/><rect fill="#F1F1F1" height="20.2969" rx="5" ry="5" style="stroke:#F1F1F1;stroke-width:1.5;" width="128" x="352" y="51.5"/><text fill="#000000" font-family="sans-serif" font-size="14" font-weight="bold" lengthAdjust="spacing" textLength="42" x="357" y="66.4951">start</text><text fill="#000000" font-family="sans-serif" font-size="14" lengthAdjust="spacing" textLength="66" x="409" y="66.4951">./bin/app</text><line style="stroke:#000000;stroke-width:1.0;" x1="404" x2="404" y1="51.5" y2="71.7969"/><rect fill="none" height="20.2969" rx="5" ry="5" style="stroke:#000000;stroke-width:1.5;" width="128" x="352" y="51.5"/><rect fill="#F1F1F1" height="20.2969" rx="5" ry="5" style="stroke:#F1F1F1;stroke-width:1.5;" width="37" x="397.5" y="89.5"/><text fill="#000000" font-family="sans-serif" font-size="14" font-weight="bold" lengthAdjust="spacing" textLength="5" x="402.5" y="104.4951">/</text><text fill="#000000" font-family="sans-serif" font-size="14" lengthAdjust="spacing" textLength="12" x="417.5" y="104.4951">   </text><line style="stroke:#000000;stroke-width:1.0;" x1="412.5" x2="412.5" y1="89.5" y2="109.7969"/><rect fill="none" height="20.2969" rx="5" ry="5" style="stroke:#000000;stroke-width:1.5;" width="37" x="397.5" y="89.5"/><rect fill="#F1F1F1" height="40.5938" rx="5" ry="5" style="stroke:#F1F1F1;stroke-width:1.5;" width="127" x="517" y="79"/><text fill="#000000" font-family="sans-serif" font-size="14" font-weight="bold" lengthAdjust="spacing" textLength="73" x="522" y="93.9951">passthru</text><text fill="#000000" font-family="sans-serif" font-size="14" lengthAdjust="spacing" textLength="30" x="605" y="93.9951">true</text><line style="stroke:#000000;stroke-width:1.0;" x1="600" x2="600" y1="79" y2="99.2969"/><line style="stroke:#000000;stroke-width:1.0;" x1="517" x2="644" y1="99.2969" y2="99.2969"/><text fill="#000000" font-family="sans-serif" font-size="14" font-weight="bold" lengthAdjust="spacing" textLength="43" x="522" y="114.292">allow</text><text fill="#000000" font-family="sans-serif" font-size="14" lengthAdjust="spacing" textLength="34" x="605" y="114.292">false</text><line style="stroke:#000000;stroke-width:1.0;" x1="600" x2="600" y1="99.2969" y2="119.5938"/><rect fill="none" height="40.5938" rx="5" ry="5" style="stroke:#000000;stroke-width:1.5;" width="127" x="517" y="79"/><path d="M303,69.5 L316,69.5 C325.2987,69.5 335.0704,69.1486 344.7085,68.593 " fill="none" style="stroke:#000000;stroke-width:1.0;stroke-dasharray:3.0,3.0;"/><path d="M344.9031,71.6687 L347.0153,68.4471 L344.5139,65.5173 L352.3978,68.1065 L344.9031,71.6687 " fill="#000000" style="stroke:#000000;stroke-width:1.0;"/><ellipse cx="303" cy="69.5" fill="#000000" rx="3" ry="3" style="stroke:#000000;stroke-width:1.0;"/><path d="M423.5,99.5 L436.5,99.5 C460.3378,99.5 486.4031,99.5 509.7006,99.5 " fill="none" style="stroke:#000000;stroke-width:1.0;stroke-dasharray:3.0,3.0;"/><path d="M509.7006,102.615 L512.0369,99.5 L509.7006,96.385 L517.4882,99.5 L509.7006,102.615 " fill="#000000" style="stroke:#000000;stroke-width:1.0;"/><ellipse cx="423.5" cy="99.5" fill="#000000" rx="3" ry="3" style="stroke:#000000;stroke-width:1.0;"/><path d="M303,90.5 L316,90.5 C341.4183,90.5 370.3412,93.4493 390.4267,95.9712 " fill="none" style="stroke:#000000;stroke-width:1.0;stroke-dasharray:3.0,3.0;"/><path d="M390.0372,98.9723 L392.6775,96.2634 L390.8162,92.9702 L397.9293,96.945 L390.0372,98.9723 " fill="#000000" style="stroke:#000000;stroke-width:1.0;"/><ellipse cx="303" cy="90.5" fill="#000000" rx="3" ry="3" style="stroke:#000000;stroke-width:1.0;"/><path d="M146,80.5 L159,80.5 C168.2886,80.5 178.0854,80.5 187.7231,80.5 " fill="none" style="stroke:#000000;stroke-width:1.0;stroke-dasharray:3.0,3.0;"/><path d="M187.7231,83.573 L190.0278,80.5 L187.7231,77.427 L195.4055,80.5 L187.7231,83.573 " fill="#000000" style="stroke:#000000;stroke-width:1.0;"/><ellipse cx="146" cy="80.5" fill="#000000" rx="3" ry="3" style="stroke:#000000;stroke-width:1.0;"/><!--MD5=[5c867a5dbabe991b698fae40c6c0b323]
@startyaml

name: app
type: "golang:1.18"
disk: 1024

web:
    commands:
        start: ./bin/app
    locations:
        /:
            passthru: true
            allow: false
@endyaml

PlantUML version 1.2022.8beta2(Unknown compile time)
(GPL source distribution)
Java Runtime: Java(TM) SE Runtime Environment
JVM: Java HotSpot(TM) 64-Bit Server VM
Default Encoding: UTF-8
Language: en
Country: US
--></g></svg>