<svg xmlns="http://www.w3.org/2000/svg" width="90" height="90" viewBox="0 0 90 90"><title>app</title><desc>Created with Sketch.</desc><g fill="none"><path d="M22.75 72.813h44.5v-57.479h-44.5v57.479zm40.792-72.313c4.089 0 7.417 3.328 7.417 7.417v74.167c0 4.089-3.328 7.416-7.417 7.416h-37.083c-4.09 0-7.417-3.327-7.417-7.416v-74.167c0-4.089 3.327-7.417 7.417-7.417h37.083z" fill="#898989"/><path d="M41.291 82.084h7.417v-3.708h-7.417z" fill="#898989"/><path d="M32.02 35.729h5.562v-5.562h-5.562v5.562zm-3.708 3.708h12.979v-12.979h-12.979v12.979z" fill="#898989"/><path d="M52.416 35.729h5.562v-5.562h-5.562v5.562zm-3.708 3.708h12.979v-12.979h-12.979v12.979z" fill="#898989"/><path d="M32.02 56.125h5.562v-5.562h-5.562v5.562zm-3.708 3.709h12.979v-12.979h-12.979v12.979z" fill="#898989"/><path d="M52.416 56.125h5.562v-5.562h-5.562v5.562zm-3.708 3.708h12.979v-12.979h-12.979v12.979z" fill="#898989"/><path d="M43.145 33.875h3.708v-7.417h-3.708z" fill="#898989"/><path d="M28.313 45h5.562v-3.708h-5.562z" fill="#898989"/><path d="M37.582 45h9.271v-7.417h-3.709v3.709h-5.562z" fill="#898989"/><path d="M48.707 45h7.417v-3.708h-7.417z" fill="#898989"/><path d="M43.145 54.271h3.708v-7.417h-3.708z" fill="#898989"/><path d="M63.541 85.792c2.045 0 3.708-1.663 3.708-3.708v-5.563h-44.5v5.563c0 2.045 1.664 3.708 3.709 3.708h37.083zm-37.083-81.583c-2.045 0-3.709 1.663-3.709 3.708v3.708h44.5v-3.708c0-2.045-1.663-3.708-3.708-3.708h-37.083z" fill="#cbd0d5"/></g></svg>