<svg xmlns="http://www.w3.org/2000/svg" width="90" height="90" viewBox="0 0 90 90"><title>key</title><desc>Created with Sketch.</desc><g fill="none"><path d="M47.526 9.598l-.001 5.144h5.146l-.001-5.144z" fill="#898989"/><path d="M37.766 14.742h5.146v-5.145l-5.146.001z" fill="#898989"/><path d="M62.272 72.522c0 3.374-2.071 6.716-5.834 9.408-3.395 2.431-7.778 3.942-11.437 3.942-9.302 0-17.272-7.34-17.272-13.349v-32.001h34.543v32zm-29.994-68.394l25.445-.001v14.569l-25.445.001v-14.569zm30.291 14.568h-1.219v-14.866c0-1.836-1.493-3.33-3.33-3.33h-26.039c-1.837 0-3.331 1.494-3.331 3.33v14.866h-1.219c-1.836.001-3.33 1.495-3.33 3.332v50.494c0 4.369 2.473 8.642 6.965 12.032 4.102 3.097 9.311 4.946 13.935 4.946 4.623 0 9.833-1.849 13.935-4.945 4.49-3.391 6.964-7.663 6.964-12.032v-50.495c0-1.837-1.494-3.332-3.331-3.332z" fill="#898989"/><path d="M62.272 36.893h-34.543v-14.568h34.543z" fill="#cbd0d5"/><g fill="#898989"><path d="M53.837 56.691c.003-2.045-1.941-4.185-3.954-4.355-1.858-.157-3.025 1.092-2.752 2.944.264 1.792 1.892 3.49 3.652 3.808 1.751.316 3.052-.704 3.054-2.396m-6.67 5.026l-.215.283c-3.038 3.077-6.077 6.152-9.117 9.226-.622.629-1.082.629-1.701.003l-1.074-1.087c-.504-.513-.506-1.037 0-1.549 3.067-3.104 6.136-6.206 9.205-9.307l.254-.201c-.307-.727-.643-1.36-.847-2.033-.662-2.182-.512-4.284.885-6.152 1.362-1.821 3.26-2.567 5.467-2.382 3.681.309 6.697 3.074 7.458 6.732.582 2.795-.549 5.558-2.856 6.876-1.931 1.103-3.942 1.078-5.972.301-.488-.187-.948-.449-1.489-.709"/><path d="M45.644 71.446l-1.276 1.29-1.262-1.307-1.354 1.362 1.262 1.261-1.327 1.347-3.248-3.281 3.936-3.981 3.271 3.308"/></g></g></svg>