<svg xmlns="http://www.w3.org/2000/svg" width="90" height="90" viewBox="0 0 90 90"><title>sms</title><desc>Created with Sketch.</desc><g fill="none"><path d="M80.883 53.499c0 1.042-.848 1.888-1.889 1.888h-35.882c-.574 0-1.117.26-1.475.709l-6.08 7.6-6.08-7.6c-.359-.449-.901-.709-1.474-.709h-5.665c-1.041 0-1.889-.846-1.889-1.888v-28.329c0-1.042.848-1.888 1.889-1.888h56.656c1.041 0 1.889.846 1.889 1.888v28.329zm-1.889-33.994h-56.656c-3.124 0-5.666 2.541-5.666 5.665v28.329c0 3.124 2.542 5.666 5.666 5.666h4.757l6.988 8.734c.359.448.901.708 1.474.708.574 0 1.118-.26 1.475-.708l6.987-8.734h34.975c3.124 0 5.666-2.542 5.666-5.666v-28.329c0-3.124-2.542-5.665-5.666-5.665z" fill="#898989"/><path d="M52.554 74.273h-43.436v-60.434h43.436v3.777h3.778v-11.331c0-3.124-2.542-5.666-5.666-5.666h-39.66c-3.124 0-5.666 2.542-5.666 5.666v77.431c0 3.124 2.542 5.665 5.666 5.665h39.66c3.124 0 5.666-2.541 5.666-5.665v-22.663h-3.778v13.22z" fill="#898989"/><path d="M50.666 85.604h-39.66c-1.041 0-1.888-.846-1.888-1.888v-5.666h43.436v5.666c0 1.042-.847 1.888-1.888 1.888zm-39.66-81.208h39.66c1.041 0 1.888.847 1.888 1.889v3.777h-43.436v-3.777c0-1.042.847-1.889 1.888-1.889z" fill="#cbd0d5"/><path d="M33.428 47.312h-3.319v-9.088l.032-1.493.054-1.633c-.551.551-.935.913-1.149 1.085l-1.805 1.45-1.601-1.998 5.06-4.028h2.729v15.705zm15.329 0h-10.979v-2.31l3.942-3.985c1.167-1.196 1.93-2.025 2.288-2.487.358-.462.616-.89.773-1.284.158-.394.236-.802.236-1.225 0-.63-.174-1.099-.521-1.407-.347-.308-.811-.462-1.391-.462-.609 0-1.2.14-1.772.419-.573.279-1.171.677-1.794 1.192l-1.805-2.138c.773-.659 1.414-1.124 1.923-1.396.508-.272 1.063-.482 1.665-.628.602-.147 1.275-.22 2.02-.22.981 0 1.848.179 2.6.537.752.358 1.336.859 1.751 1.504.415.645.623 1.382.623 2.213 0 .723-.127 1.402-.381 2.036-.254.634-.648 1.284-1.182 1.95-.534.666-1.473 1.615-2.82 2.847l-2.02 1.901v.15h6.843v2.793zm11.945-12.192c0 .981-.297 1.815-.892 2.503-.594.688-1.429 1.16-2.503 1.418v.064c1.268.158 2.227.542 2.879 1.155.652.612.978 1.438.978 2.476 0 1.511-.548 2.687-1.644 3.529-1.096.841-2.66 1.262-4.694 1.262-1.704 0-3.215-.283-4.533-.849v-2.825c.609.308 1.278.559 2.009.752.73.193 1.454.29 2.17.29 1.096 0 1.905-.186 2.428-.559.523-.372.784-.97.784-1.794 0-.738-.301-1.26-.902-1.568-.602-.308-1.561-.462-2.879-.462h-1.192v-2.546h1.214c1.217 0 2.107-.159 2.669-.478.562-.319.843-.865.843-1.638 0-1.189-.745-1.783-2.234-1.783-.516 0-1.04.086-1.574.258-.534.172-1.126.469-1.778.892l-1.536-2.288c1.432-1.031 3.14-1.547 5.124-1.547 1.626 0 2.909.329 3.851.988.942.659 1.413 1.576 1.413 2.75zm13.524 8.938h-1.891v3.255h-3.244v-3.255h-6.703v-2.31l6.886-10.141h3.062v9.872h1.891v2.578zm-5.135-2.578v-2.664c0-.444.018-1.089.054-1.934.036-.845.064-1.336.086-1.472h-.086c-.265.587-.584 1.16-.956 1.719l-2.879 4.351h3.781z" fill="#898989"/></g></svg>