<svg version="1.1" xmlns="http://www.w3.org/2000/svg" viewBox="0 0 2101.724260910707 1001.8248800950117" width="2101.724260910707" height="1001.8248800950117">
  <!-- svg-source:excalidraw -->
  
  <defs>
    <style class="style-fonts">
      @font-face {
        font-family: "Virgil";
        src: url("https://excalidraw.com/Virgil.woff2");
      }
      @font-face {
        font-family: "Cascadia";
        src: url("https://excalidraw.com/Cascadia.woff2");
      }
    </style>
  </defs>
  <g transform="translate(513.3379254833051 10) rotate(0 541.1760139761874 25.814865915364464)"><text x="541.1760139761874" y="0" font-family="Virgil, Segoe UI Emoji" font-size="43.024776525607486px" fill="#000000" text-anchor="middle" style="white-space: pre;" direction="ltr" dominant-baseline="text-before-edge">Use an updated Docker image in your deployed app</text></g><g transform="translate(480.78715538444385 418.9793156035349) rotate(0 117.25 24)"><text x="117.25" y="0" font-family="Helvetica, Segoe UI Emoji" font-size="20px" fill="#000000" text-anchor="middle" style="white-space: pre;" direction="ltr" dominant-baseline="text-before-edge">Tag &amp; Push </text><text x="117.25" y="24" font-family="Helvetica, Segoe UI Emoji" font-size="20px" fill="#000000" text-anchor="middle" style="white-space: pre;" direction="ltr" dominant-baseline="text-before-edge">the updated Docker image</text></g><g stroke-linecap="round" transform="translate(888.4599217935884 165.56874617769552) rotate(0 168.5856988495642 402.9322437438344)"><path d="M32 0 M32 0 C128.02 3.14, 224.85 1.5, 305.17 0 M32 0 C113.57 0.89, 195.94 0.06, 305.17 0 M305.17 0 C325.33 1.02, 338.52 11.28, 337.17 32 M305.17 0 C326.28 -2.06, 336.01 10.49, 337.17 32 M337.17 32 C336.28 279.28, 336.19 525.06, 337.17 773.86 M337.17 32 C335.37 292.99, 336.09 554.29, 337.17 773.86 M337.17 773.86 C337.15 794.34, 326.07 805.32, 305.17 805.86 M337.17 773.86 C336.3 793.14, 325.89 803.65, 305.17 805.86 M305.17 805.86 C207.18 806.83, 111.52 804.41, 32 805.86 M305.17 805.86 C217.8 807.03, 129.39 807.89, 32 805.86 M32 805.86 C12.37 805.3, 1.93 796.62, 0 773.86 M32 805.86 C9.47 806.46, -0.7 796.9, 0 773.86 M0 773.86 C-2.14 487.29, -2.59 200.35, 0 32 M0 773.86 C-2.86 567.98, -2.59 362.84, 0 32 M0 32 C1.94 11.83, 12.56 0.52, 32 0 M0 32 C-0.68 8.77, 12.66 -1.14, 32 0" stroke="#000000" stroke-width="2" fill="none"></path></g><g transform="translate(988.9475523224552 182.2285032012736) rotate(0 67.30000305175781 16.799999999999955)"><text x="67.30000305175781" y="0" font-family="Virgil, Segoe UI Emoji" font-size="28px" fill="#000000" text-anchor="middle" style="white-space: pre;" direction="ltr" dominant-baseline="text-before-edge">AI Deploy</text></g><g stroke-linecap="round" transform="translate(1754.5528632115786 165.56874617769552) rotate(0 168.5856988495642 322.00681816883457)"><path d="M32 0 M32 0 C92.35 -0.47, 150.95 0.33, 305.17 0 M32 0 C139.12 -1.22, 245.56 -2.13, 305.17 0 M305.17 0 C326.72 -1.16, 336.69 10.49, 337.17 32 M305.17 0 C328.54 -0.45, 337.22 8.59, 337.17 32 M337.17 32 C336.71 201.02, 337.48 370.04, 337.17 612.01 M337.17 32 C335.93 207.04, 336.55 381.92, 337.17 612.01 M337.17 612.01 C336.16 633.15, 327.22 645.76, 305.17 644.01 M337.17 612.01 C338.29 633.65, 325.35 645.71, 305.17 644.01 M305.17 644.01 C195.77 644.49, 89.27 642.3, 32 644.01 M305.17 644.01 C218.86 645.3, 130.79 644.64, 32 644.01 M32 644.01 C8.69 642.13, 0.89 632.45, 0 612.01 M32 644.01 C12.88 645.3, 1.14 635.57, 0 612.01 M0 612.01 C-1.09 397.8, -0.93 183.75, 0 32 M0 612.01 C-1.64 385.3, -1.67 159.08, 0 32 M0 32 C-1.71 11.42, 9.7 -0.93, 32 0 M0 32 C1.29 8.5, 10.17 0.85, 32 0" stroke="#000000" stroke-width="2" fill="none"></path></g><g transform="translate(1823.7802322881935 182.22850320127384) rotate(0 99.35832977294922 16.799999999999955)"><text x="99.35832977294922" y="0" font-family="Virgil, Segoe UI Emoji" font-size="28px" fill="#000000" text-anchor="middle" style="white-space: pre;" direction="ltr" dominant-baseline="text-before-edge">Image registry</text></g><g stroke-linecap="round"><g transform="translate(1224.9165220978362 280.6800997192378) rotate(0 312.41755392973846 0)"><path d="M0 0 C176.61 0, 353.21 0, 624.84 0" stroke="#000000" stroke-width="2.5" fill="none" stroke-dasharray="8 10"></path></g><g transform="translate(1224.9165220978362 280.6800997192378) rotate(0 312.41755392973846 0)"><path d="M596.64 10.26 C604.61 7.36, 612.58 4.46, 624.84 0" stroke="#000000" stroke-width="2.5" fill="none"></path></g><g transform="translate(1224.9165220978362 280.6800997192378) rotate(0 312.41755392973846 0)"><path d="M596.64 -10.26 C604.61 -7.36, 612.58 -4.46, 624.84 0" stroke="#000000" stroke-width="2.5" fill="none"></path></g></g><mask></mask><g stroke-linecap="round"><g transform="translate(1925.5224912751708 316.7754313585141) rotate(0 -391.2094446663873 41.06661219245882)"><path d="M0 0 C-19.03 11.97, 16.23 58.15, -114.17 71.83 C-244.58 85.52, -671.04 80.42, -782.42 82.13" stroke="#000000" stroke-width="2.5" fill="none" stroke-dasharray="8 10"></path></g><g transform="translate(1925.5224912751708 316.7754313585141) rotate(0 -391.2094446663873 41.06661219245882)"><path d="M-754.25 71.81 C-763.09 75.05, -771.93 78.29, -782.42 82.13" stroke="#000000" stroke-width="2.5" fill="none"></path></g><g transform="translate(1925.5224912751708 316.7754313585141) rotate(0 -391.2094446663873 41.06661219245882)"><path d="M-754.2 92.33 C-763.06 89.13, -771.91 85.93, -782.42 82.13" stroke="#000000" stroke-width="2.5" fill="none"></path></g></g><mask></mask><g transform="translate(1327.2832618640796 249.2265348583711) rotate(0 159.47500610351562 12)"><text x="159.47500610351562" y="0" font-family="Helvetica, Segoe UI Emoji" font-size="20px" fill="#000000" text-anchor="middle" style="white-space: pre;" direction="ltr" dominant-baseline="text-before-edge">Look for the specified Docker image</text></g><g transform="translate(1342.829342271687 354.3477142586702) rotate(0 150.0416717529297 12)"><text x="150.0416717529297" y="0" font-family="Helvetica, Segoe UI Emoji" font-size="20px" fill="#000000" text-anchor="middle" style="white-space: pre;" direction="ltr" dominant-baseline="text-before-edge">Pull specified image &amp; deploy app</text></g><g stroke-linecap="round" transform="translate(1853.540281321229 244.31715456518884) rotate(0 76 34.5)"><path d="M17.25 0 M17.25 0 C62.87 -1.13, 107.28 -1.47, 134.75 0 M17.25 0 C56.66 1.69, 94.07 0.46, 134.75 0 M134.75 0 C145.13 -2, 150.07 3.9, 152 17.25 M134.75 0 C146.61 -0.45, 151.34 7.65, 152 17.25 M152 17.25 C151.68 32.13, 153.87 44.21, 152 51.75 M152 17.25 C151.88 27.47, 151.35 39.01, 152 51.75 M152 51.75 C153.75 63.97, 147.99 69.33, 134.75 69 M152 51.75 C152.69 61.85, 144.32 70.67, 134.75 69 M134.75 69 C105.18 67.36, 76.39 68.16, 17.25 69 M134.75 69 C108.91 69.57, 83.65 68.28, 17.25 69 M17.25 69 C6.43 67.62, -1.08 64.27, 0 51.75 M17.25 69 C5.66 67.26, 0.37 63.27, 0 51.75 M0 51.75 C-0.63 39.42, -0.21 30.83, 0 17.25 M0 51.75 C-1.28 39.63, 0.54 29.52, 0 17.25 M0 17.25 C-1.13 6.18, 4.6 1.17, 17.25 0 M0 17.25 C1.18 6.23, 7.09 0.31, 17.25 0" stroke="#000000" stroke-width="2" fill="none"></path></g><g transform="translate(1885.6402797953501 266.81715456518884) rotate(0 43.900001525878906 12)"><text x="43.900001525878906" y="0" font-family="Helvetica, Segoe UI Emoji" font-size="20px" fill="#000000" text-anchor="middle" style="white-space: pre;" direction="ltr" dominant-baseline="text-before-edge">image:tag</text></g><g stroke-linecap="round" transform="translate(976.976861039814 361.7785363677441) rotate(0 76 34.5)"><path d="M18.63 -0.17 L136.67 1.66 L144.07 4.08 L148.59 6.36 L151.09 13.98 L151.96 50.02 L151.34 61.92 L145.35 68.01 L132.78 68.51 L17.27 68.71 L8.09 66.86 L4.04 60.68 L-1.5 56.49 L0.23 14.85 L4.7 2.51 L9.13 1.3 L18.06 1" stroke="none" stroke-width="0" fill="#40c057"></path><path d="M17.25 0 M17.25 0 C62.05 0.37, 107.25 -2.39, 134.75 0 M17.25 0 C58.82 -0.71, 99.83 -0.49, 134.75 0 M134.75 0 C146.75 1.54, 153.45 4.71, 152 17.25 M134.75 0 C144.75 -2.1, 153.24 4.72, 152 17.25 M152 17.25 C151.27 26.38, 151.61 34, 152 51.75 M152 17.25 C151.11 28.21, 151.47 40.48, 152 51.75 M152 51.75 C151.46 62.74, 145.22 69.07, 134.75 69 M152 51.75 C152.19 63.62, 144.52 70.49, 134.75 69 M134.75 69 C101.72 68.75, 67.16 71.29, 17.25 69 M134.75 69 C108.3 68.96, 81.49 69.13, 17.25 69 M17.25 69 C4.2 67.31, 1.8 62.12, 0 51.75 M17.25 69 C6.24 66.71, 2.17 63.75, 0 51.75 M0 51.75 C-1.3 38.79, -0.06 30.99, 0 17.25 M0 51.75 C-0.06 40.58, -0.16 29.39, 0 17.25 M0 17.25 C-1.82 6.77, 5.13 -0.62, 17.25 0 M0 17.25 C-2.13 5.51, 5.35 1.25, 17.25 0" stroke="#000000" stroke-width="2" fill="none"></path></g><g transform="translate(996.2851953904 384.2785363677441) rotate(0 56.69166564941406 12)"><text x="56.69166564941406" y="0" font-family="Helvetica, Segoe UI Emoji" font-size="20px" fill="#000000" text-anchor="middle" style="white-space: pre;" direction="ltr" dominant-baseline="text-before-edge">Running app</text></g><g stroke-linecap="round" transform="translate(10 165.72903621359262) rotate(0 168.5856988495642 413.04792194070956)"><path d="M32 0 M32 0 C97.01 2.09, 159.17 0.92, 305.17 0 M32 0 C119.89 -1.28, 209.42 -1.52, 305.17 0 M305.17 0 C327.83 1.27, 338.53 8.81, 337.17 32 M305.17 0 C325.32 1.66, 337.07 11.47, 337.17 32 M337.17 32 C336.81 214.47, 337.18 395.82, 337.17 794.1 M337.17 32 C334 291.38, 333.99 550.68, 337.17 794.1 M337.17 794.1 C337.52 816.65, 328.42 827.02, 305.17 826.1 M337.17 794.1 C338.8 817.11, 326.75 826.66, 305.17 826.1 M305.17 826.1 C210.07 826.68, 114.51 828.78, 32 826.1 M305.17 826.1 C243.97 828.17, 183.41 827.91, 32 826.1 M32 826.1 C11.04 824.74, 0.4 816.27, 0 794.1 M32 826.1 C12.88 826.46, -0.68 817.01, 0 794.1 M0 794.1 C-3.02 521.21, -2.1 248.45, 0 32 M0 794.1 C-1.09 502.62, -1.67 210.96, 0 32 M0 32 C-0.72 9.5, 11.11 -0.81, 32 0 M0 32 C-1.89 9.31, 8.5 -0.96, 32 0" stroke="#000000" stroke-width="2" fill="none"></path></g><g transform="translate(142.5992632242053 182.06094986683445) rotate(0 31.274999618530273 16.799999999999955)"><text x="31.274999618530273" y="0" font-family="Virgil, Segoe UI Emoji" font-size="28px" fill="#000000" text-anchor="middle" style="white-space: pre;" direction="ltr" dominant-baseline="text-before-edge">User</text></g><g stroke-linecap="round" transform="translate(61.97765768055547 229.4852839112201) rotate(0 106.59623965449737 54.5)"><path d="M213.19 54.5 C213.19 56.4, 213 58.31, 212.61 60.2 C212.22 62.09, 211.64 63.97, 210.86 65.83 C210.09 67.69, 209.12 69.54, 207.98 71.34 C206.83 73.15, 205.49 74.93, 203.98 76.67 C202.47 78.4, 200.77 80.11, 198.91 81.75 C197.05 83.39, 195.02 85, 192.83 86.53 C190.65 88.07, 188.3 89.56, 185.81 90.97 C183.33 92.38, 180.68 93.73, 177.92 95 C175.16 96.27, 172.26 97.48, 169.25 98.59 C166.25 99.71, 163.11 100.75, 159.89 101.7 C156.68 102.65, 153.35 103.52, 149.95 104.29 C146.56 105.06, 143.07 105.75, 139.54 106.33 C136 106.92, 132.39 107.41, 128.76 107.81 C125.13 108.2, 121.43 108.5, 117.74 108.7 C114.04 108.9, 110.31 109, 106.6 109 C102.88 109, 99.15 108.9, 95.45 108.7 C91.76 108.5, 88.07 108.2, 84.43 107.81 C80.8 107.41, 77.19 106.92, 73.66 106.33 C70.12 105.75, 66.63 105.06, 63.24 104.29 C59.85 103.52, 56.51 102.65, 53.3 101.7 C50.08 100.75, 46.95 99.71, 43.94 98.59 C40.94 97.48, 38.03 96.27, 35.27 95 C32.51 93.73, 29.87 92.38, 27.38 90.97 C24.89 89.56, 22.54 88.07, 20.36 86.53 C18.17 85, 16.14 83.39, 14.28 81.75 C12.42 80.11, 10.73 78.4, 9.22 76.67 C7.71 74.93, 6.36 73.15, 5.22 71.34 C4.07 69.54, 3.1 67.69, 2.33 65.83 C1.56 63.97, 0.97 62.09, 0.58 60.2 C0.2 58.31, 0 56.4, 0 54.5 C0 52.6, 0.2 50.69, 0.58 48.8 C0.97 46.91, 1.56 45.03, 2.33 43.17 C3.1 41.31, 4.07 39.46, 5.22 37.66 C6.36 35.85, 7.71 34.07, 9.22 32.33 C10.73 30.6, 12.42 28.89, 14.28 27.25 C16.14 25.61, 18.17 24, 20.36 22.47 C22.54 20.93, 24.89 19.44, 27.38 18.03 C29.87 16.62, 32.51 15.27, 35.27 14 C38.03 12.73, 40.94 11.52, 43.94 10.41 C46.95 9.29, 50.08 8.25, 53.3 7.3 C56.51 6.35, 59.85 5.48, 63.24 4.71 C66.63 3.94, 70.12 3.25, 73.66 2.67 C77.19 2.08, 80.8 1.59, 84.43 1.19 C88.07 0.8, 91.76 0.5, 95.45 0.3 C99.15 0.1, 102.88 0, 106.6 0 C110.31 0, 114.04 0.1, 117.74 0.3 C121.43 0.5, 125.13 0.8, 128.76 1.19 C132.39 1.59, 136 2.08, 139.54 2.67 C143.07 3.25, 146.56 3.94, 149.95 4.71 C153.35 5.48, 156.68 6.35, 159.89 7.3 C163.11 8.25, 166.25 9.29, 169.25 10.41 C172.26 11.52, 175.16 12.73, 177.92 14 C180.68 15.27, 183.33 16.62, 185.81 18.03 C188.3 19.44, 190.65 20.93, 192.83 22.47 C195.02 24, 197.05 25.61, 198.91 27.25 C200.77 28.89, 202.47 30.6, 203.98 32.33 C205.49 34.07, 206.83 35.85, 207.98 37.66 C209.12 39.46, 210.09 41.31, 210.86 43.17 C211.64 45.03, 212.22 46.91, 212.61 48.8 C213 50.69, 213.1 53.55, 213.19 54.5 C213.29 55.45, 213.29 53.55, 213.19 54.5" stroke="#000000" stroke-width="4" fill="none"></path></g><g transform="translate(104.2323062510784 271.94796433655335) rotate(0 64.46666717529297 12)"><text x="64.46666717529297" y="0" font-family="Helvetica, Segoe UI Emoji" font-size="20px" fill="#000000" text-anchor="middle" style="white-space: pre;" direction="ltr" dominant-baseline="text-before-edge">Deploy an app</text></g><g stroke-linecap="round"><g transform="translate(275.2450914857336 293.66590147624345) rotate(0 302.42543866895664 0)"><path d="M0 0 C127.35 0, 254.7 0, 604.85 0" stroke="#000000" stroke-width="2.5" fill="none" stroke-dasharray="8 10"></path></g><g transform="translate(275.2450914857336 293.66590147624345) rotate(0 302.42543866895664 0)"><path d="M576.66 10.26 C582.6 8.1, 588.53 5.94, 604.85 0" stroke="#000000" stroke-width="2.5" fill="none"></path></g><g transform="translate(275.2450914857336 293.66590147624345) rotate(0 302.42543866895664 0)"><path d="M576.66 -10.26 C582.6 -8.1, 588.53 -5.94, 604.85 0" stroke="#000000" stroke-width="2.5" fill="none"></path></g></g><mask></mask><g transform="translate(431.07299239582926 215.12956590780584) rotate(0 176.125 24)"><text x="176.125" y="0" font-family="Helvetica, Segoe UI Emoji" font-size="20px" fill="#000000" text-anchor="middle" style="white-space: pre;" direction="ltr" dominant-baseline="text-before-edge">Information </text><text x="176.125" y="24" font-family="Helvetica, Segoe UI Emoji" font-size="20px" fill="#000000" text-anchor="middle" style="white-space: pre;" direction="ltr" dominant-baseline="text-before-edge">(volume, compute resources, image, ...)</text></g><g stroke-linecap="round" transform="translate(1837.5810912710403 441.71969402415823) rotate(0 100.5 41)"><path d="M20.5 0 M20.5 0 C67 2.27, 111.78 0.63, 180.5 0 M20.5 0 C78.34 -1.63, 138.81 -0.77, 180.5 0 M180.5 0 C195.97 -1.52, 200.22 8.79, 201 20.5 M180.5 0 C193.22 0.68, 203.22 6.42, 201 20.5 M201 20.5 C201.93 32.58, 199.44 46.77, 201 61.5 M201 20.5 C200.01 32.16, 201.26 44.62, 201 61.5 M201 61.5 C199.57 75.43, 194.03 80.46, 180.5 82 M201 61.5 C201.24 73.79, 196.46 82.2, 180.5 82 M180.5 82 C129.23 84.05, 76.32 82.46, 20.5 82 M180.5 82 C140.67 83.1, 98.6 83.11, 20.5 82 M20.5 82 C6.82 83.6, 1.48 74.2, 0 61.5 M20.5 82 C8.27 82.16, 1.5 75.09, 0 61.5 M0 61.5 C0 47.2, 1.81 31.07, 0 20.5 M0 61.5 C-0.46 51.39, 0.68 42.09, 0 20.5 M0 20.5 C1.79 7.54, 6.85 -0.58, 20.5 0 M0 20.5 C-1.17 8.39, 8.85 0.24, 20.5 0" stroke="#000000" stroke-width="2" fill="none"></path></g><g transform="translate(1866.3894256216263 458.71969402415823) rotate(0 71.69166564941406 24)"><text x="71.69166564941406" y="0" font-family="Helvetica, Segoe UI Emoji" font-size="20px" fill="#000000" text-anchor="middle" style="white-space: pre;" direction="ltr" dominant-baseline="text-before-edge">updated_image:</text><text x="71.69166564941406" y="24" font-family="Helvetica, Segoe UI Emoji" font-size="20px" fill="#000000" text-anchor="middle" style="white-space: pre;" direction="ltr" dominant-baseline="text-before-edge">updated_tag</text></g><g stroke-linecap="round"><g transform="translate(289.95690157416925 486.1356598197443) rotate(0 775.5353284270815 0.6383340396012045)"><path d="M0 0 C87.01 0.39, 174.02 0.78, 283.28 1.28 M283.28 1.28 C600.54 1.01, 917.8 0.74, 1551.07 0.2" stroke="#000000" stroke-width="2.5" fill="none" stroke-dasharray="8 10"></path></g><g transform="translate(289.95690157416925 486.1356598197443) rotate(0 775.5353284270815 0.6383340396012045)"><path d="M1522.89 10.48 C1531.54 7.33, 1540.2 4.17, 1551.07 0.2" stroke="#000000" stroke-width="2.5" fill="none"></path></g><g transform="translate(289.95690157416925 486.1356598197443) rotate(0 775.5353284270815 0.6383340396012045)"><path d="M1522.87 -10.04 C1531.53 -6.89, 1540.19 -3.75, 1551.07 0.2" stroke="#000000" stroke-width="2.5" fill="none"></path></g></g><mask></mask><g stroke-linecap="round" transform="translate(69.15576670750329 435.7569812366579) rotate(0 109.5865137994789 52.264337350520805)"><path d="M0 0 C82.21 0, 164.43 0, 219.17 0 M0 0 C79.21 0, 158.42 0, 219.17 0 M219.17 0 C219.17 41.6, 219.17 83.2, 219.17 104.53 M219.17 0 C219.17 25.05, 219.17 50.09, 219.17 104.53 M219.17 104.53 C141.67 104.53, 64.16 104.53, 0 104.53 M219.17 104.53 C164.77 104.53, 110.37 104.53, 0 104.53 M0 104.53 C0 76.98, 0 49.42, 0 0 M0 104.53 C0 71.41, 0 38.29, 0 0" stroke="#000000" stroke-width="2" fill="none"></path></g><g transform="translate(117.05894615639636 464.0213185871788) rotate(0 61.68333435058594 24)"><text x="61.68333435058594" y="0" font-family="Helvetica, Segoe UI Emoji" font-size="20px" fill="#000000" text-anchor="middle" style="white-space: pre;" direction="ltr" dominant-baseline="text-before-edge"> Update </text><text x="61.68333435058594" y="24" font-family="Helvetica, Segoe UI Emoji" font-size="20px" fill="#000000" text-anchor="middle" style="white-space: pre;" direction="ltr" dominant-baseline="text-before-edge">Docker image</text></g><g stroke-linecap="round" transform="translate(69.15576670750374 587.492154189783) rotate(0 109.5865137994789 52.264337350520805)"><path d="M0 0 C67.14 0, 134.27 0, 219.17 0 M0 0 C47.54 0, 95.08 0, 219.17 0 M219.17 0 C219.17 29.37, 219.17 58.74, 219.17 104.53 M219.17 0 C219.17 32.09, 219.17 64.18, 219.17 104.53 M219.17 104.53 C134.24 104.53, 49.3 104.53, 0 104.53 M219.17 104.53 C133.43 104.53, 47.69 104.53, 0 104.53 M0 104.53 C0 79.4, 0 54.26, 0 0 M0 104.53 C0 76.43, 0 48.33, 0 0" stroke="#000000" stroke-width="2" fill="none"></path></g><g transform="translate(87.61728050698275 615.756491540304) rotate(0 91.125 24)"><text x="91.125" y="0" font-family="Helvetica, Segoe UI Emoji" font-size="20px" fill="#000000" text-anchor="middle" style="white-space: pre;" direction="ltr" dominant-baseline="text-before-edge">Update</text><text x="91.125" y="24" font-family="Helvetica, Segoe UI Emoji" font-size="20px" fill="#000000" text-anchor="middle" style="white-space: pre;" direction="ltr" dominant-baseline="text-before-edge">the image of the app</text></g><g transform="translate(493.71171419363463 552.5748514298867) rotate(0 105.57499694824219 24)"><text x="105.57499694824219" y="0" font-family="Helvetica, Segoe UI Emoji" font-size="20px" fill="#000000" text-anchor="middle" style="white-space: pre;" direction="ltr" dominant-baseline="text-before-edge">Specify a new image by</text><text x="105.57499694824219" y="24" font-family="Helvetica, Segoe UI Emoji" font-size="20px" fill="#000000" text-anchor="middle" style="white-space: pre;" direction="ltr" dominant-baseline="text-before-edge">using             </text></g><g transform="translate(497.13833112726115 578.8640469220744) rotate(0 104.24166870117188 21.600000000000023)"><text x="104.24166870117188" y="0" font-family="Helvetica, Segoe UI Emoji" font-size="18.953458763606495px" fill="#d9480f" text-anchor="middle" style="white-space: pre;" direction="ltr" dominant-baseline="text-before-edge">      ovhai</text><text x="104.24166870117188" y="21.599999999999998" font-family="Helvetica, Segoe UI Emoji" font-size="18.953458763606495px" fill="#d9480f" text-anchor="middle" style="white-space: pre;" direction="ltr" dominant-baseline="text-before-edge">app set-image command</text></g><g stroke-linecap="round"><g transform="translate(289.32879430646153 635.7101801575587) rotate(0 364.9288748621084 -92.75728516127867)"><path d="M0 0 C90.03 0, 418.55 33.39, 540.19 0 C661.83 -33.39, 698.25 -166.96, 729.86 -200.36" stroke="#000000" stroke-width="2.5" fill="none" stroke-dasharray="8 10"></path></g><g transform="translate(289.32879430646153 635.7101801575587) rotate(0 364.9288748621084 -92.75728516127867)"><path d="M723.78 -170.98 C725.75 -180.53, 727.73 -190.09, 729.86 -200.36" stroke="#000000" stroke-width="2.5" fill="none"></path></g><g transform="translate(289.32879430646153 635.7101801575587) rotate(0 364.9288748621084 -92.75728516127867)"><path d="M706.32 -181.76 C713.97 -187.81, 721.63 -193.85, 729.86 -200.36" stroke="#000000" stroke-width="2.5" fill="none"></path></g></g><mask></mask><g stroke-linecap="round" transform="translate(977.7484445366673 751.9338253949905) rotate(0 76 34.5)"><path d="M18.01 1.56 L135.35 -1.65 L143.93 3.44 L150.5 6.85 L151.38 12.33 L150.96 52.71 L149.88 60.72 L145.21 67.44 L133.24 69.35 L15.61 67.52 L8.05 67.46 L4.35 61.65 L1.39 54.69 L-0.1 12.89 L3.84 4.28 L11.41 -0.56 L16.64 0.42" stroke="none" stroke-width="0" fill="#fa5252"></path><path d="M17.25 0 M17.25 0 C49.7 -2.34, 83.87 0.67, 134.75 0 M17.25 0 C43.64 -0.35, 70.05 0.43, 134.75 0 M134.75 0 C144.47 -0.98, 151.18 5.15, 152 17.25 M134.75 0 C146.17 1.89, 152.35 6.26, 152 17.25 M152 17.25 C153.46 26.42, 151.77 32.41, 152 51.75 M152 17.25 C152.17 26.43, 153.01 37.5, 152 51.75 M152 51.75 C151.18 63.96, 146.1 67.64, 134.75 69 M152 51.75 C149.73 62.35, 148.15 69.9, 134.75 69 M134.75 69 C91.49 69.48, 46.67 69.4, 17.25 69 M134.75 69 C106.78 68.86, 78.18 68.94, 17.25 69 M17.25 69 C4.08 67.64, -1.91 63.81, 0 51.75 M17.25 69 C7.8 67.24, -1.21 64.22, 0 51.75 M0 51.75 C-1.03 45.8, 1.29 37.76, 0 17.25 M0 51.75 C0.44 44.73, 0.21 37.14, 0 17.25 M0 17.25 C-0.93 4.11, 5.29 -1.77, 17.25 0 M0 17.25 C-0.5 5.16, 5.51 -0.88, 17.25 0" stroke="#000000" stroke-width="2" fill="none"></path></g><g transform="translate(997.0651101860814 774.4338253949905) rotate(0 56.68333435058594 12)"><text x="56.68333435058594" y="0" font-family="Helvetica, Segoe UI Emoji" font-size="20px" fill="#000000" text-anchor="middle" style="white-space: pre;" direction="ltr" dominant-baseline="text-before-edge">Stopped app</text></g><g stroke-linecap="round" transform="translate(67.46982034135726 740.913273509053) rotate(0 109.5865137994789 52.264337350520805)"><path d="M0 0 C64.37 0, 128.75 0, 219.17 0 M0 0 C60.13 0, 120.25 0, 219.17 0 M219.17 0 C219.17 40.98, 219.17 81.97, 219.17 104.53 M219.17 0 C219.17 36.56, 219.17 73.12, 219.17 104.53 M219.17 104.53 C152.69 104.53, 86.21 104.53, 0 104.53 M219.17 104.53 C172.49 104.53, 125.81 104.53, 0 104.53 M0 104.53 C0 63.36, 0 22.2, 0 0 M0 104.53 C0 76.8, 0 49.07, 0 0" stroke="#000000" stroke-width="2" fill="none"></path></g><g transform="translate(137.04799902731065 781.177610859574) rotate(0 40.00833511352539 12)"><text x="40.00833511352539" y="0" font-family="Helvetica, Segoe UI Emoji" font-size="20px" fill="#000000" text-anchor="middle" style="white-space: pre;" direction="ltr" dominant-baseline="text-before-edge">Stop app</text></g><g stroke-linecap="round"><g transform="translate(288.57385072961097 785.9927564646019) rotate(0 364.8848600589971 -79.01894474365974)"><path d="M0 0 C92.84 -4.42, 435.43 -0.19, 557.06 -26.53 C678.68 -52.87, 700.98 -136.12, 729.77 -158.04" stroke="#000000" stroke-width="2.5" fill="none" stroke-dasharray="8 10"></path></g><g transform="translate(288.57385072961097 785.9927564646019) rotate(0 364.8848600589971 -79.01894474365974)"><path d="M719.89 -129.71 C722.25 -136.46, 724.6 -143.22, 729.77 -158.04" stroke="#000000" stroke-width="2.5" fill="none"></path></g><g transform="translate(288.57385072961097 785.9927564646019) rotate(0 364.8848600589971 -79.01894474365974)"><path d="M703.99 -142.69 C710.14 -146.35, 716.28 -150.01, 729.77 -158.04" stroke="#000000" stroke-width="2.5" fill="none"></path></g></g><mask></mask><g stroke-linecap="round"><g transform="translate(1062.1781763673964 435.75698123665813) rotate(0 0 156.79301205156207)"><path d="M0 0 C0 52.26, 0 261.32, 0 313.59" stroke="#000000" stroke-width="2.5" fill="none" stroke-dasharray="8 10"></path></g><g transform="translate(1062.1781763673964 435.75698123665813) rotate(0 0 156.79301205156207)"><path d="M-10.26 285.4 C-8.19 291.09, -6.12 296.78, 0 313.59" stroke="#000000" stroke-width="2.5" fill="none"></path></g><g transform="translate(1062.1781763673964 435.75698123665813) rotate(0 0 156.79301205156207)"><path d="M10.26 285.4 C8.19 291.09, 6.12 296.78, 0 313.59" stroke="#000000" stroke-width="2.5" fill="none"></path></g></g><mask></mask><g stroke-linecap="round" transform="translate(67.46982034135772 875.7889828007193) rotate(0 109.5865137994789 52.264337350520805)"><path d="M0 0 C67.65 0, 135.29 0, 219.17 0 M0 0 C60.52 0, 121.03 0, 219.17 0 M219.17 0 C219.17 31.96, 219.17 63.92, 219.17 104.53 M219.17 0 C219.17 24.62, 219.17 49.24, 219.17 104.53 M219.17 104.53 C160.98 104.53, 102.79 104.53, 0 104.53 M219.17 104.53 C167.94 104.53, 116.7 104.53, 0 104.53 M0 104.53 C0 63.74, 0 22.95, 0 0 M0 104.53 C0 66.78, 0 29.03, 0 0" stroke="#000000" stroke-width="2" fill="none"></path></g><g transform="translate(125.38133490377595 916.0533201512402) rotate(0 51.67499923706055 12)"><text x="51.67499923706055" y="0" font-family="Helvetica, Segoe UI Emoji" font-size="20px" fill="#000000" text-anchor="middle" style="white-space: pre;" direction="ltr" dominant-baseline="text-before-edge">Restart app</text></g><g stroke-linecap="round"><g transform="translate(1057.120337268959 823.5246454501988) rotate(0 0 30.347034590624958)"><path d="M0 0 C0 10.12, 0 50.58, 0 60.69" stroke="#000000" stroke-width="2.5" fill="none" stroke-dasharray="8 10"></path></g><g transform="translate(1057.120337268959 823.5246454501988) rotate(0 0 30.347034590624958)"><path d="M-10.26 32.5 C-6.44 43, -2.62 53.51, 0 60.69" stroke="#000000" stroke-width="2.5" fill="none"></path></g><g transform="translate(1057.120337268959 823.5246454501988) rotate(0 0 30.347034590624958)"><path d="M10.26 32.5 C6.44 43, 2.62 53.51, 0 60.69" stroke="#000000" stroke-width="2.5" fill="none"></path></g></g><mask></mask><g stroke-linecap="round"><g transform="translate(290.259797095757 931.425212883532) rotate(0 346.2169218198178 -53.390424997508035)"><path d="M0 0 C89.03 -0.84, 418.79 13.49, 534.2 -5.06 C649.61 -23.6, 666.06 -93.57, 692.43 -111.27" stroke="#000000" stroke-width="2.5" fill="none" stroke-dasharray="8 10"></path></g><g transform="translate(290.259797095757 931.425212883532) rotate(0 346.2169218198178 -53.390424997508035)"><path d="M681.5 -83.34 C683.92 -89.51, 686.33 -95.68, 692.43 -111.27" stroke="#000000" stroke-width="2.5" fill="none"></path></g><g transform="translate(290.259797095757 931.425212883532) rotate(0 346.2169218198178 -53.390424997508035)"><path d="M666.1 -96.9 C671.92 -100.07, 677.73 -103.25, 692.43 -111.27" stroke="#000000" stroke-width="2.5" fill="none"></path></g></g><mask></mask><g stroke-linecap="round" transform="translate(977.7484445366675 886.8095346866568) rotate(0 76 34.5)"><path d="M15.79 -1.78 L134.4 1.95 L144.45 3.76 L149.35 5.73 L152.61 13.22 L152.28 50.12 L149.17 61.74 L147.04 65.24 L135.33 68.68 L15.36 70.2 L5.04 65.9 L2.82 60.34 L0.76 55.67 L1.25 13.31 L4.44 5.85 L11.19 1.96 L16.7 -0.74" stroke="none" stroke-width="0" fill="#40c057"></path><path d="M17.25 0 M17.25 0 C55.64 -2.25, 95.25 -0.83, 134.75 0 M17.25 0 C55.65 -0.61, 92.72 -0.78, 134.75 0 M134.75 0 C148.15 -1.79, 150.31 7.54, 152 17.25 M134.75 0 C147.21 1.01, 154.27 3.74, 152 17.25 M152 17.25 C153.37 25.63, 150.92 34.14, 152 51.75 M152 17.25 C152.55 27.04, 152.65 34.68, 152 51.75 M152 51.75 C152.44 65.09, 145.81 69.95, 134.75 69 M152 51.75 C151.31 62.92, 146.35 70.22, 134.75 69 M134.75 69 C104.36 70.54, 76.98 68.77, 17.25 69 M134.75 69 C110.6 67.93, 85.36 68.56, 17.25 69 M17.25 69 C6.44 67.85, 0.21 63.64, 0 51.75 M17.25 69 C3.74 68.76, 0.06 61.65, 0 51.75 M0 51.75 C-1.67 40.91, -0.59 29.54, 0 17.25 M0 51.75 C0.77 39.25, -0.77 26.94, 0 17.25 M0 17.25 C0.82 4.02, 5.9 1.16, 17.25 0 M0 17.25 C-0.56 7.66, 4.32 -1.76, 17.25 0" stroke="#000000" stroke-width="2" fill="none"></path></g><g transform="translate(998.1734437737281 897.3095346866568) rotate(0 55.57500076293945 24)"><text x="55.57500076293945" y="0" font-family="Helvetica, Segoe UI Emoji" font-size="20px" fill="#000000" text-anchor="middle" style="white-space: pre;" direction="ltr" dominant-baseline="text-before-edge">Running</text><text x="55.57500076293945" y="24" font-family="Helvetica, Segoe UI Emoji" font-size="20px" fill="#000000" text-anchor="middle" style="white-space: pre;" direction="ltr" dominant-baseline="text-before-edge">updated app</text></g><g stroke-linecap="round"><g transform="translate(1059.7151209577573 836.7248079073828) rotate(0 438.0205582076027 -150.13257268075415)"><path d="M0 0 C118.43 -3.37, 564.55 31.19, 710.56 -20.23 C856.57 -71.65, 848.46 -260.48, 876.04 -308.53" stroke="#000000" stroke-width="2.5" fill="none" stroke-dasharray="8 10"></path></g><g transform="translate(1059.7151209577573 836.7248079073828) rotate(0 438.0205582076027 -150.13257268075415)"><path d="M878.45 -278.62 C877.59 -289.22, 876.74 -299.82, 876.04 -308.53" stroke="#000000" stroke-width="2.5" fill="none"></path></g><g transform="translate(1059.7151209577573 836.7248079073828) rotate(0 438.0205582076027 -150.13257268075415)"><path d="M858.66 -284.07 C864.82 -292.74, 870.98 -301.4, 876.04 -308.53" stroke="#000000" stroke-width="2.5" fill="none"></path></g></g><mask></mask><g stroke-linecap="round"><g transform="translate(1966.0065468048833 528.8870808529101) rotate(0 -414.1697286049569 199.70407296008148)"><path d="M0 0 C-14.11 59.71, 54.18 292.34, -84.65 358.29 C-223.49 424.24, -708.27 389.48, -833 395.72" stroke="#000000" stroke-width="2.5" fill="none" stroke-dasharray="8 10"></path></g><g transform="translate(1966.0065468048833 528.8870808529101) rotate(0 -414.1697286049569 199.70407296008148)"><path d="M-804.72 385.7 C-810.92 387.9, -817.12 390.09, -833 395.72" stroke="#000000" stroke-width="2.5" fill="none"></path></g><g transform="translate(1966.0065468048833 528.8870808529101) rotate(0 -414.1697286049569 199.70407296008148)"><path d="M-804.9 406.22 C-811.06 403.92, -817.22 401.61, -833 395.72" stroke="#000000" stroke-width="2.5" fill="none"></path></g></g><mask></mask><g transform="translate(1387.3139340388118 774.9242084558913) rotate(0 91.68333435058594 24)"><text x="91.68333435058594" y="0" font-family="Helvetica, Segoe UI Emoji" font-size="20px" fill="#000000" text-anchor="middle" style="white-space: pre;" direction="ltr" dominant-baseline="text-before-edge">Look for the updated</text><text x="91.68333435058594" y="24" font-family="Helvetica, Segoe UI Emoji" font-size="20px" fill="#000000" text-anchor="middle" style="white-space: pre;" direction="ltr" dominant-baseline="text-before-edge">Docker image</text></g><g transform="translate(1446.6683487970051 880.0453878561906) rotate(0 46.68333435058594 12)"><text x="46.68333435058594" y="0" font-family="Helvetica, Segoe UI Emoji" font-size="20px" fill="#000000" text-anchor="middle" style="white-space: pre;" direction="ltr" dominant-baseline="text-before-edge">Pull image</text></g><g stroke-linecap="round" transform="translate(986.1781763673965 552.9921541897828) rotate(0 76 34.5)"><path d="M16.22 -1.61 L134.57 1.83 L147.22 2.64 L148.89 6.38 L152.88 11.33 L153.53 51.85 L150.46 61.2 L144.71 65.99 L133.54 69.25 L16.55 69.55 L8.44 64.96 L2.98 63.47 L2.01 56.22 L0.23 15.06 L4.57 4.52 L9.19 2.75 L17.1 -1.68" stroke="none" stroke-width="0" fill="#40c057"></path><path d="M17.25 0 M17.25 0 C40.95 0.85, 69.95 -1.27, 134.75 0 M17.25 0 C62.71 -0.12, 105.34 -0.32, 134.75 0 M134.75 0 C147.14 1.85, 151.75 7.11, 152 17.25 M134.75 0 C147.08 0.63, 151.54 7.65, 152 17.25 M152 17.25 C152.38 27.41, 152.26 34.53, 152 51.75 M152 17.25 C151.23 27.47, 152.87 35.28, 152 51.75 M152 51.75 C150.91 62.27, 144.46 70.39, 134.75 69 M152 51.75 C151.98 63.33, 145.28 71.24, 134.75 69 M134.75 69 C106.89 70.69, 84.05 71.6, 17.25 69 M134.75 69 C107.3 67.59, 77.46 68.96, 17.25 69 M17.25 69 C5.98 68.33, 1.57 63.53, 0 51.75 M17.25 69 C5.14 71, 1.65 65.22, 0 51.75 M0 51.75 C-1.88 43.48, -0.64 32.83, 0 17.25 M0 51.75 C-0.59 39.55, 0.23 25.59, 0 17.25 M0 17.25 C-0.34 5.16, 7.63 -0.8, 17.25 0 M0 17.25 C1.08 4.29, 3.97 1.89, 17.25 0" stroke="#000000" stroke-width="2" fill="none"></path></g><g transform="translate(1005.4865107179825 575.4921541897828) rotate(0 56.69166564941406 12)"><text x="56.69166564941406" y="0" font-family="Helvetica, Segoe UI Emoji" font-size="20px" fill="#000000" text-anchor="middle" style="white-space: pre;" direction="ltr" dominant-baseline="text-before-edge">Running app</text></g></svg>